<svg xmlns="http://www.w3.org/2000/svg" xmlns:xlink="http://www.w3.org/1999/xlink" contentStyleType="text/css" data-diagram-type="DESCRIPTION" height="784px" preserveAspectRatio="none" style="width:1716px;height:784px;background:#FFFFFF;" version="1.1" viewBox="0 0 1716 784" width="1716px" zoomAndPan="magnify"><title>LayerLens Atlas App Architecture</title><defs/><g><rect fill="#FFFFCC" height="26.6406" rx="2.5" ry="2.5" style="stroke:#FFDD88;stroke-width:3;" width="1705.8012" x="5" y="5"/><text fill="#000000" font-family="monospace" font-size="10" lengthAdjust="spacing" textLength="355.21" x="10" y="20">Please&#160;use&#160;'!option&#160;handwritten&#160;true'&#160;to&#160;enable&#160;handwritten</text><text fill="#000000" font-family="sans-serif" font-size="14" font-weight="bold" lengthAdjust="spacing" textLength="240.5771" x="723.6121" y="60.1758">LayerLens Atlas App Architecture</text><!--cluster User Interface Layer--><g class="cluster" data-entity="User Interface Layer" data-source-line="7" data-uid="ent0002" id="cluster_User Interface Layer"><path d="M400.3012,80.1289 L546.1889,80.1289 A3.75,3.75 0 0 1 548.6889,82.6289 L555.6889,102.6172 L796.3012,102.6172 A2.5,2.5 0 0 1 798.8012,105.1172 L798.8012,358.0989 A2.5,2.5 0 0 1 796.3012,360.5989 L400.3012,360.5989 A2.5,2.5 0 0 1 397.8012,358.0989 L397.8012,82.6289 A2.5,2.5 0 0 1 400.3012,80.1289" fill="none" style="stroke:#000000;stroke-width:1.5;"/><line style="stroke:#000000;stroke-width:1.5;" x1="397.8012" x2="555.6889" y1="102.6172" y2="102.6172"/><text fill="#000000" font-family="sans-serif" font-size="14" font-weight="bold" lengthAdjust="spacing" textLength="144.8877" x="401.8012" y="95.6641">User Interface Layer</text></g><!--cluster API Layer--><g class="cluster" data-entity="API Layer" data-source-line="14" data-uid="ent0007" id="cluster_API Layer"><path d="M1114.3012,273.1089 L1182.5532,273.1089 A3.75,3.75 0 0 1 1185.0532,275.6089 L1192.0532,295.5972 L1583.3012,295.5972 A2.5,2.5 0 0 1 1585.8012,298.0972 L1585.8012,469.5789 A2.5,2.5 0 0 1 1583.3012,472.0789 L1114.3012,472.0789 A2.5,2.5 0 0 1 1111.8012,469.5789 L1111.8012,275.6089 A2.5,2.5 0 0 1 1114.3012,273.1089" fill="none" style="stroke:#000000;stroke-width:1.5;"/><line style="stroke:#000000;stroke-width:1.5;" x1="1111.8012" x2="1192.0532" y1="295.5972" y2="295.5972"/><text fill="#000000" font-family="sans-serif" font-size="14" font-weight="bold" lengthAdjust="spacing" textLength="67.252" x="1115.8012" y="288.6441">API Layer</text></g><!--cluster Core Services--><g class="cluster" data-entity="Core Services" data-source-line="21" data-uid="ent0012" id="cluster_Core Services"><path d="M847.3012,496.0789 L945.3921,496.0789 A3.75,3.75 0 0 1 947.8921,498.5789 L954.8921,518.5672 L1674.3012,518.5672 A2.5,2.5 0 0 1 1676.8012,521.0672 L1676.8012,581.0689 A2.5,2.5 0 0 1 1674.3012,583.5689 L847.3012,583.5689 A2.5,2.5 0 0 1 844.8012,581.0689 L844.8012,498.5789 A2.5,2.5 0 0 1 847.3012,496.0789" fill="none" style="stroke:#000000;stroke-width:1.5;"/><line style="stroke:#000000;stroke-width:1.5;" x1="844.8012" x2="954.8921" y1="518.5672" y2="518.5672"/><text fill="#000000" font-family="sans-serif" font-size="14" font-weight="bold" lengthAdjust="spacing" textLength="97.0908" x="848.8012" y="511.6141">Core Services</text></g><!--cluster Integration Layer--><g class="cluster" data-entity="Integration Layer" data-source-line="29" data-uid="ent0018" id="cluster_Integration Layer"><path d="M298.3012,384.5989 L422.9223,384.5989 A3.75,3.75 0 0 1 425.4223,387.0989 L432.4223,407.0872 L636.3012,407.0872 A2.5,2.5 0 0 1 638.8012,409.5872 L638.8012,581.0689 A2.5,2.5 0 0 1 636.3012,583.5689 L298.3012,583.5689 A2.5,2.5 0 0 1 295.8012,581.0689 L295.8012,387.0989 A2.5,2.5 0 0 1 298.3012,384.5989" fill="none" style="stroke:#000000;stroke-width:1.5;"/><line style="stroke:#000000;stroke-width:1.5;" x1="295.8012" x2="432.4223" y1="407.0872" y2="407.0872"/><text fill="#000000" font-family="sans-serif" font-size="14" font-weight="bold" lengthAdjust="spacing" textLength="123.6211" x="299.8012" y="400.1341">Integration Layer</text></g><!--cluster Data Layer--><g class="cluster" data-entity="Data Layer" data-source-line="35" data-uid="ent0022" id="cluster_Data Layer"><path d="M488.3012,607.5689 L566.2534,607.5689 A3.75,3.75 0 0 1 568.7534,610.0689 L575.7534,630.0572 L1692.3012,630.0572 A2.5,2.5 0 0 1 1694.8012,632.5572 L1694.8012,774.5589 A2.5,2.5 0 0 1 1692.3012,777.0589 L488.3012,777.0589 A2.5,2.5 0 0 1 485.8012,774.5589 L485.8012,610.0689 A2.5,2.5 0 0 1 488.3012,607.5689" fill="none" style="stroke:#000000;stroke-width:1.5;"/><line style="stroke:#000000;stroke-width:1.5;" x1="485.8012" x2="575.7534" y1="630.0572" y2="630.0572"/><text fill="#000000" font-family="sans-serif" font-size="14" font-weight="bold" lengthAdjust="spacing" textLength="76.9521" x="489.8012" y="623.1041">Data Layer</text></g><!--cluster MongoDB--><g class="cluster" data-entity="MongoDB" data-source-line="36" data-uid="ent0023" id="cluster_MongoDB"><path d="M1335.8012,660.5689 C1335.8012,650.5689 1503.3012,650.5689 1503.3012,650.5689 C1503.3012,650.5689 1670.8012,650.5689 1670.8012,660.5689 L1670.8012,743.0589 C1670.8012,753.0589 1503.3012,753.0589 1503.3012,753.0589 C1503.3012,753.0589 1335.8012,753.0589 1335.8012,743.0589 L1335.8012,660.5689" fill="none" style="stroke:#181818;stroke-width:1;"/><path d="M1335.8012,660.5689 C1335.8012,670.5689 1503.3012,670.5689 1503.3012,670.5689 C1503.3012,670.5689 1670.8012,670.5689 1670.8012,660.5689" fill="none" style="stroke:#181818;stroke-width:1;"/><text fill="#000000" font-family="sans-serif" font-size="14" font-weight="bold" lengthAdjust="spacing" textLength="68.9404" x="1468.831" y="686.1041">MongoDB</text></g><!--cluster MariaDB--><g class="cluster" data-entity="MariaDB" data-source-line="42" data-uid="ent0027" id="cluster_MariaDB"><path d="M509.8012,660.5689 C509.8012,650.5689 679.3012,650.5689 679.3012,650.5689 C679.3012,650.5689 848.8012,650.5689 848.8012,660.5689 L848.8012,743.0589 C848.8012,753.0589 679.3012,753.0589 679.3012,753.0589 C679.3012,753.0589 509.8012,753.0589 509.8012,743.0589 L509.8012,660.5689" fill="none" style="stroke:#181818;stroke-width:1;"/><path d="M509.8012,660.5689 C509.8012,670.5689 679.3012,670.5689 679.3012,670.5689 C679.3012,670.5689 848.8012,670.5689 848.8012,660.5689" fill="none" style="stroke:#181818;stroke-width:1;"/><text fill="#000000" font-family="sans-serif" font-size="14" font-weight="bold" lengthAdjust="spacing" textLength="60.0059" x="649.2983" y="686.1041">MariaDB</text></g><!--cluster S3--><g class="cluster" data-entity="S3" data-source-line="47" data-uid="ent0030" id="cluster_S3"><path d="M872.8012,660.5689 C872.8012,650.5689 1021.8012,650.5689 1021.8012,650.5689 C1021.8012,650.5689 1170.8012,650.5689 1170.8012,660.5689 L1170.8012,743.0589 C1170.8012,753.0589 1021.8012,753.0589 1021.8012,753.0589 C1021.8012,753.0589 872.8012,753.0589 872.8012,743.0589 L872.8012,660.5689" fill="none" style="stroke:#181818;stroke-width:1;"/><path d="M872.8012,660.5689 C872.8012,670.5689 1021.8012,670.5689 1021.8012,670.5689 C1021.8012,670.5689 1170.8012,670.5689 1170.8012,660.5689" fill="none" style="stroke:#181818;stroke-width:1;"/><text fill="#000000" font-family="sans-serif" font-size="14" font-weight="bold" lengthAdjust="spacing" textLength="52.8076" x="995.3974" y="686.1041">AWS S3</text></g><!--cluster External Services--><g class="cluster" data-entity="External Services" data-source-line="55" data-uid="ent0034" id="cluster_External Services"><path d="M31.9253,674.9733 C39.0833,662.1992 50.96,661.2202 58.5249,674.559 C69.1139,658.8754 82.6636,659.0318 91.5644,676.2541 C97.9266,660.5734 109.1987,659.7999 119.1724,672.7746 C129.5261,653.8242 142.3605,654.5645 153.8644,671.6677 C162.9568,660.4008 172.4931,660.0329 181.5214,671.7448 C190.436,656.921 199.2642,655.8301 210.5702,669.2886 C221.6246,654.7736 237.1407,655.3402 245.5055,672.2763 C251.9868,656.0718 261.7046,656.4579 272.6042,667.954 C283.4033,653.5827 294.1737,655.2093 302.7334,670.2481 C313.3305,657.5978 326.9017,656.4421 333.67,674.1499 C342.795,661.0444 352.5614,657.2895 363.2253,672.5464 C374.529,655.3952 389.6976,658.1511 398.0657,675.5102 C407.1007,663.1879 415.6692,662.2601 425.0384,675.1526 C434.5749,661.8435 447.4465,657.4234 457.3891,674.7235 C475.561,685.4857 483.3462,696.2985 464.4428,713.7601 C480.0679,727.5967 471.2706,742.4075 455.074,747.3751 C447.8809,764.4323 435.3895,762.7145 424.9071,750.8001 C415.0716,766.5999 402.0579,764.3772 393.1204,749.8586 C385.6832,761.0614 373.9619,762.6862 367.1193,749.2315 C356.9794,765.1848 347.2843,763.5612 335.7163,750.7931 C327.7065,766.7325 311.2477,767.0055 302.4169,751.6671 C295.9714,764.1799 283.1563,764.2902 275.4435,753.1099 C268.6813,767.3818 253.6776,766.6704 245.4581,754.7802 C235.344,771.1064 223.2819,769.2697 214.5636,753.4392 C206.716,769.0283 190.7434,768.7066 181.1838,755.4181 C170.4753,771.4572 159.6672,772.0318 149.7814,754.6451 C138.7831,766.0169 128.2232,767.8613 120.6914,751.0652 C109.37,763.4702 98.8368,763.9799 89.6857,748.6401 C81.4726,763.3151 69.2871,763.2562 60.9073,748.8048 C52.2136,764.5674 37.8009,765.6966 28.4409,749.4813 C12.9168,740.9131 6,726.2594 24.4368,713.8725 C9.0987,697.1089 9.0375,684.378 31.9253,674.9733" fill="none" style="stroke:#181818;stroke-width:1;"/><text fill="#000000" font-family="sans-serif" font-size="14" font-weight="bold" lengthAdjust="spacing" textLength="122.5068" x="179.5478" y="692.1041">External Services</text></g><!--entity WebUI--><g class="entity" data-entity="WebUI" data-source-line="8" data-uid="ent0003" id="entity_WebUI"><rect fill="#F1F1F1" height="36.4883" rx="2.5" ry="2.5" style="stroke:#181818;stroke-width:0.5;" width="104.9912" x="643.3012" y="115.1289"/><text fill="#000000" font-family="sans-serif" font-size="14" lengthAdjust="spacing" textLength="84.9912" x="653.3012" y="138.6641">Atlas Web UI</text></g><!--entity NextApp--><g class="entity" data-entity="NextApp" data-source-line="9" data-uid="ent0004" id="entity_NextApp"><rect fill="#F1F1F1" height="36.4883" rx="2.5" ry="2.5" style="stroke:#181818;stroke-width:0.5;" width="99.502" x="646.0512" y="211.6189"/><text fill="#000000" font-family="sans-serif" font-size="14" lengthAdjust="spacing" textLength="79.502" x="656.0512" y="235.1541">Next.js App</text></g><!--entity Auth--><g class="entity" data-entity="Auth" data-source-line="10" data-uid="ent0005" id="entity_Auth"><rect fill="#F1F1F1" height="36.4883" rx="2.5" ry="2.5" style="stroke:#181818;stroke-width:0.5;" width="173.9521" x="608.8212" y="308.1089"/><text fill="#000000" font-family="sans-serif" font-size="14" lengthAdjust="spacing" textLength="153.9521" x="618.8212" y="331.6441">Authentication Module</text></g><!--entity Viz--><g class="entity" data-entity="Viz" data-source-line="11" data-uid="ent0006" id="entity_Viz"><rect fill="#F1F1F1" height="36.4883" rx="2.5" ry="2.5" style="stroke:#181818;stroke-width:0.5;" width="160.5059" x="413.5512" y="308.1089"/><text fill="#000000" font-family="sans-serif" font-size="14" lengthAdjust="spacing" textLength="140.5059" x="423.5512" y="331.6441">Results Visualization</text></g><!--entity ApiGw--><g class="entity" data-entity="ApiGw" data-source-line="15" data-uid="ent0008" id="entity_ApiGw"><rect fill="#F1F1F1" height="36.4883" rx="2.5" ry="2.5" style="stroke:#181818;stroke-width:0.5;" width="102.5781" x="1224.5112" y="308.1089"/><text fill="#000000" font-family="sans-serif" font-size="14" lengthAdjust="spacing" textLength="82.5781" x="1234.5112" y="331.6441">API Gateway</text></g><!--entity GoBackend--><g class="entity" data-entity="GoBackend" data-source-line="16" data-uid="ent0009" id="entity_GoBackend"><rect fill="#F1F1F1" height="36.4883" rx="2.5" ry="2.5" style="stroke:#181818;stroke-width:0.5;" width="125.4443" x="1128.0812" y="419.5989"/><text fill="#000000" font-family="sans-serif" font-size="14" lengthAdjust="spacing" textLength="105.4443" x="1138.0812" y="443.1341">Go Backend API</text></g><!--entity WebSocket--><g class="entity" data-entity="WebSocket" data-source-line="17" data-uid="ent0010" id="entity_WebSocket"><rect fill="#F1F1F1" height="36.4883" rx="2.5" ry="2.5" style="stroke:#181818;stroke-width:0.5;" width="144.8789" x="1288.3612" y="419.5989"/><text fill="#000000" font-family="sans-serif" font-size="14" lengthAdjust="spacing" textLength="124.8789" x="1298.3612" y="443.1341">WebSocket Service</text></g><!--entity RateLim--><g class="entity" data-entity="RateLim" data-source-line="18" data-uid="ent0011" id="entity_RateLim"><rect fill="#F1F1F1" height="36.4883" rx="2.5" ry="2.5" style="stroke:#181818;stroke-width:0.5;" width="101.4434" x="1468.0812" y="419.5989"/><text fill="#000000" font-family="sans-serif" font-size="14" lengthAdjust="spacing" textLength="81.4434" x="1478.0812" y="443.1341">Rate Limiter</text></g><!--entity EvalManager--><g class="entity" data-entity="EvalManager" data-source-line="22" data-uid="ent0013" id="entity_EvalManager"><rect fill="#F1F1F1" height="36.4883" rx="2.5" ry="2.5" style="stroke:#181818;stroke-width:0.5;" width="152.501" x="1203.5512" y="531.0789"/><text fill="#000000" font-family="sans-serif" font-size="14" lengthAdjust="spacing" textLength="132.501" x="1213.5512" y="554.6141">Evaluation Manager</text></g><!--entity ModelRegistry--><g class="entity" data-entity="ModelRegistry" data-source-line="23" data-uid="ent0014" id="entity_ModelRegistry"><rect fill="#F1F1F1" height="36.4883" rx="2.5" ry="2.5" style="stroke:#181818;stroke-width:0.5;" width="120.5908" x="1391.5012" y="531.0789"/><text fill="#000000" font-family="sans-serif" font-size="14" lengthAdjust="spacing" textLength="100.5908" x="1401.5012" y="554.6141">Model Registry</text></g><!--entity DatasetManager--><g class="entity" data-entity="DatasetManager" data-source-line="24" data-uid="ent0015" id="entity_DatasetManager"><rect fill="#F1F1F1" height="36.4883" rx="2.5" ry="2.5" style="stroke:#181818;stroke-width:0.5;" width="134.2559" x="1034.6712" y="531.0789"/><text fill="#000000" font-family="sans-serif" font-size="14" lengthAdjust="spacing" textLength="114.2559" x="1044.6712" y="554.6141">Dataset Manager</text></g><!--entity UserManager--><g class="entity" data-entity="UserManager" data-source-line="25" data-uid="ent0016" id="entity_UserManager"><rect fill="#F1F1F1" height="36.4883" rx="2.5" ry="2.5" style="stroke:#181818;stroke-width:0.5;" width="113.2627" x="1547.1712" y="531.0789"/><text fill="#000000" font-family="sans-serif" font-size="14" lengthAdjust="spacing" textLength="93.2627" x="1557.1712" y="554.6141">User Manager</text></g><!--entity ResultsProcessor--><g class="entity" data-entity="ResultsProcessor" data-source-line="26" data-uid="ent0017" id="entity_ResultsProcessor"><rect fill="#F1F1F1" height="36.4883" rx="2.5" ry="2.5" style="stroke:#181818;stroke-width:0.5;" width="138.9658" x="860.3212" y="531.0789"/><text fill="#000000" font-family="sans-serif" font-size="14" lengthAdjust="spacing" textLength="118.9658" x="870.3212" y="554.6141">Results Processor</text></g><!--entity Worker--><g class="entity" data-entity="Worker" data-source-line="30" data-uid="ent0019" id="entity_Worker"><rect fill="#F1F1F1" height="36.4883" rx="2.5" ry="2.5" style="stroke:#181818;stroke-width:0.5;" width="142.0488" x="480.7812" y="419.5989"/><text fill="#000000" font-family="sans-serif" font-size="14" lengthAdjust="spacing" textLength="122.0488" x="490.7812" y="443.1341">Evaluation Worker</text></g><!--entity ContractClient--><g class="entity" data-entity="ContractClient" data-source-line="31" data-uid="ent0020" id="entity_ContractClient"><rect fill="#F1F1F1" height="36.4883" rx="2.5" ry="2.5" style="stroke:#181818;stroke-width:0.5;" width="165.749" x="311.9312" y="531.0789"/><text fill="#000000" font-family="sans-serif" font-size="14" lengthAdjust="spacing" textLength="145.749" x="321.9312" y="554.6141">Smart Contract Client</text></g><!--entity MetricsCollector--><g class="entity" data-entity="MetricsCollector" data-source-line="32" data-uid="ent0021" id="entity_MetricsCollector"><rect fill="#F1F1F1" height="36.4883" rx="2.5" ry="2.5" style="stroke:#181818;stroke-width:0.5;" width="134.5225" x="311.5412" y="419.5989"/><text fill="#000000" font-family="sans-serif" font-size="14" lengthAdjust="spacing" textLength="114.5225" x="321.5412" y="443.1341">Metrics Collector</text></g><!--entity Queue--><g class="entity" data-entity="Queue" data-source-line="52" data-uid="ent0033" id="entity_Queue"><path d="M1194.4612,705.5689 L1311.1361,705.5689 C1316.1361,705.5689 1316.1361,718.813 1316.1361,718.813 C1316.1361,718.813 1316.1361,732.0572 1311.1361,732.0572 L1194.4612,732.0572 C1189.4612,732.0572 1189.4612,718.813 1189.4612,718.813 C1189.4612,718.813 1189.4612,705.5689 1194.4612,705.5689" fill="#F1F1F1" style="stroke:#181818;stroke-width:0.5;"/><path d="M1311.1361,705.5689 C1306.1361,705.5689 1306.1361,718.813 1306.1361,718.813 C1306.1361,732.0572 1311.1361,732.0572 1311.1361,732.0572" fill="none" style="stroke:#181818;stroke-width:0.5;"/><text fill="#000000" font-family="sans-serif" font-size="14" lengthAdjust="spacing" textLength="106.6748" x="1194.4612" y="724.1041">Message Queue</text></g><!--entity MongoEvals--><g class="entity" data-entity="MongoEvals" data-source-line="37" data-uid="ent0024" id="entity_MongoEvals"><rect fill="#F1F1F1" height="36.4883" rx="2.5" ry="2.5" style="stroke:#181818;stroke-width:0.5;" width="96.7402" x="1465.4312" y="700.5689"/><text fill="#000000" font-family="sans-serif" font-size="14" lengthAdjust="spacing" textLength="76.7402" x="1475.4312" y="724.1041">Evaluations</text></g><!--entity MongoUsers--><g class="entity" data-entity="MongoUsers" data-source-line="38" data-uid="ent0025" id="entity_MongoUsers"><rect fill="#F1F1F1" height="36.4883" rx="2.5" ry="2.5" style="stroke:#181818;stroke-width:0.5;" width="57.502" x="1597.0512" y="700.5689"/><text fill="#000000" font-family="sans-serif" font-size="14" lengthAdjust="spacing" textLength="37.502" x="1607.0512" y="724.1041">Users</text></g><!--entity MongoDsets--><g class="entity" data-entity="MongoDsets" data-source-line="39" data-uid="ent0026" id="entity_MongoDsets"><rect fill="#F1F1F1" height="36.4883" rx="2.5" ry="2.5" style="stroke:#181818;stroke-width:0.5;" width="78.4951" x="1351.5512" y="700.5689"/><text fill="#000000" font-family="sans-serif" font-size="14" lengthAdjust="spacing" textLength="58.4951" x="1361.5512" y="724.1041">Datasets</text></g><!--entity MetricsDB--><g class="entity" data-entity="MetricsDB" data-source-line="43" data-uid="ent0028" id="entity_MetricsDB"><rect fill="#F1F1F1" height="36.4883" rx="2.5" ry="2.5" style="stroke:#181818;stroke-width:0.5;" width="152.5625" x="525.5212" y="700.5689"/><text fill="#000000" font-family="sans-serif" font-size="14" lengthAdjust="spacing" textLength="132.5625" x="535.5212" y="724.1041">Aggregated Metrics</text></g><!--entity HistoryDB--><g class="entity" data-entity="HistoryDB" data-source-line="44" data-uid="ent0029" id="entity_HistoryDB"><rect fill="#F1F1F1" height="36.4883" rx="2.5" ry="2.5" style="stroke:#181818;stroke-width:0.5;" width="119.6475" x="712.9812" y="700.5689"/><text fill="#000000" font-family="sans-serif" font-size="14" lengthAdjust="spacing" textLength="99.6475" x="722.9812" y="724.1041">Historical Data</text></g><!--entity ResultsS3--><g class="entity" data-entity="ResultsS3" data-source-line="48" data-uid="ent0031" id="entity_ResultsS3"><rect fill="#F1F1F1" height="36.4883" rx="2.5" ry="2.5" style="stroke:#181818;stroke-width:0.5;" width="124.6924" x="888.4512" y="700.5689"/><text fill="#000000" font-family="sans-serif" font-size="14" lengthAdjust="spacing" textLength="104.6924" x="898.4512" y="724.1041">Results Storage</text></g><!--entity DatasetsS3--><g class="entity" data-entity="DatasetsS3" data-source-line="49" data-uid="ent0032" id="entity_DatasetsS3"><rect fill="#F1F1F1" height="36.4883" rx="2.5" ry="2.5" style="stroke:#181818;stroke-width:0.5;" width="106.3242" x="1048.6412" y="700.5689"/><text fill="#000000" font-family="sans-serif" font-size="14" lengthAdjust="spacing" textLength="86.3242" x="1058.6412" y="724.1041">Dataset Files</text></g><!--entity Cognito--><g class="entity" data-entity="Cognito" data-source-line="56" data-uid="ent0035" id="entity_Cognito"><rect fill="#F1F1F1" height="36.4883" rx="2.5" ry="2.5" style="stroke:#181818;stroke-width:0.5;" width="107.1924" x="36.2012" y="700.5689"/><text fill="#000000" font-family="sans-serif" font-size="14" lengthAdjust="spacing" textLength="87.1924" x="46.2012" y="724.1041">AWS Cognito</text></g><!--entity AVS--><g class="entity" data-entity="AVS" data-source-line="57" data-uid="ent0036" id="entity_AVS"><rect fill="#F1F1F1" height="36.4883" rx="2.5" ry="2.5" style="stroke:#181818;stroke-width:0.5;" width="117.9111" x="178.8412" y="700.5689"/><text fill="#000000" font-family="sans-serif" font-size="14" lengthAdjust="spacing" textLength="97.9111" x="188.8412" y="724.1041">LayerLens AVS</text></g><!--entity LLMs--><g class="entity" data-entity="LLMs" data-source-line="58" data-uid="ent0037" id="entity_LLMs"><rect fill="#F1F1F1" height="36.4883" rx="2.5" ry="2.5" style="stroke:#181818;stroke-width:0.5;" width="114.2539" x="331.6712" y="700.5689"/><text fill="#000000" font-family="sans-serif" font-size="14" lengthAdjust="spacing" textLength="94.2539" x="341.6712" y="724.1041">LLM Providers</text></g><!--link WebUI to NextApp--><g class="link" data-entity-1="WebUI" data-entity-2="NextApp" data-source-line="62" data-uid="lnk38" id="link_WebUI_NextApp"><path d="M695.8012,151.6989 C695.8012,168.6489 695.8012,188.3089 695.8012,205.3189" fill="none" id="WebUI-to-NextApp" style="stroke:#181818;stroke-width:1;"/><polygon fill="#181818" points="695.8012,211.3189,699.8012,202.3189,695.8012,206.3189,691.8012,202.3189,695.8012,211.3189" style="stroke:#181818;stroke-width:1;"/></g><!--link NextApp to Auth--><g class="link" data-entity-1="NextApp" data-entity-2="Auth" data-source-line="63" data-uid="lnk39" id="link_NextApp_Auth"><path d="M695.8012,248.1889 C695.8012,265.1389 695.8012,284.7989 695.8012,301.8089" fill="none" id="NextApp-to-Auth" style="stroke:#181818;stroke-width:1;"/><polygon fill="#181818" points="695.8012,307.8089,699.8012,298.8089,695.8012,302.8089,691.8012,298.8089,695.8012,307.8089" style="stroke:#181818;stroke-width:1;"/></g><!--link NextApp to Viz--><g class="link" data-entity-1="NextApp" data-entity-2="Viz" data-source-line="64" data-uid="lnk40" id="link_NextApp_Viz"><path d="M645.6912,244.7589 C628.2912,250.2689 608.8712,257.1789 591.8012,265.1089 C565.7112,277.2189 542.942,291.3987 523.652,304.4387" fill="none" id="NextApp-to-Viz" style="stroke:#181818;stroke-width:1;"/><polygon fill="#181818" points="518.6812,307.7989,528.3776,306.0724,522.8236,304.9987,523.8973,299.4447,518.6812,307.7989" style="stroke:#181818;stroke-width:1;"/></g><!--link NextApp to ApiGw--><g class="link" data-entity-1="NextApp" data-entity-2="ApiGw" data-source-line="65" data-uid="lnk41" id="link_NextApp_ApiGw"><path d="M746.0012,239.0389 C855.2612,256.8389 1107.6893,297.9641 1218.2393,315.9741" fill="none" id="NextApp-to-ApiGw" style="stroke:#181818;stroke-width:1;"/><polygon fill="#181818" points="1224.1612,316.9389,1215.9215,311.5438,1219.2263,316.1349,1214.6352,319.4397,1224.1612,316.9389" style="stroke:#181818;stroke-width:1;"/></g><!--link Auth to Cognito--><g class="link" data-entity-1="Auth" data-entity-2="Cognito" data-source-line="68" data-uid="lnk42" id="link_Auth_Cognito"><path d="M660.1812,345.0789 C640.5312,353.9289 615.3912,363.7589 591.8012,368.5989 C575.6812,371.8989 310.0212,368.3189 295.8012,376.5989 C167.2312,451.4589 110.8259,635.4406 95.5759,694.3106" fill="none" id="Auth-to-Cognito" style="stroke:#181818;stroke-width:1;"/><polygon fill="#181818" points="94.0712,700.1189,100.2004,692.4096,95.3251,695.2787,92.456,690.4034,94.0712,700.1189" style="stroke:#181818;stroke-width:1;"/></g><!--link ApiGw to GoBackend--><g class="link" data-entity-1="ApiGw" data-entity-2="GoBackend" data-source-line="69" data-uid="lnk43" id="link_ApiGw_GoBackend"><path d="M1262.1412,344.9389 C1246.2812,365.3689 1223.9514,394.14 1208.1014,414.55" fill="none" id="ApiGw-to-GoBackend" style="stroke:#181818;stroke-width:1;"/><polygon fill="#181818" points="1204.4212,419.2889,1213.1007,414.634,1207.488,415.3399,1206.7822,409.7272,1204.4212,419.2889" style="stroke:#181818;stroke-width:1;"/></g><!--link ApiGw to WebSocket--><g class="link" data-entity-1="ApiGw" data-entity-2="WebSocket" data-source-line="70" data-uid="lnk44" id="link_ApiGw_WebSocket"><path d="M1289.4612,344.9389 C1305.3212,365.3689 1327.6511,394.14 1343.5011,414.55" fill="none" id="ApiGw-to-WebSocket" style="stroke:#181818;stroke-width:1;"/><polygon fill="#181818" points="1347.1812,419.2889,1344.8203,409.7272,1344.1145,415.3399,1338.5018,414.634,1347.1812,419.2889" style="stroke:#181818;stroke-width:1;"/></g><!--link ApiGw to RateLim--><g class="link" data-entity-1="ApiGw" data-entity-2="RateLim" data-source-line="71" data-uid="lnk45" id="link_ApiGw_RateLim"><path d="M1327.5312,335.5589 C1363.6612,342.7689 1412.1512,355.4989 1450.8012,376.5989 C1471.0112,387.6289 1486.1531,401.3243 1498.9831,414.7943" fill="none" id="ApiGw-to-RateLim" style="stroke:#181818;stroke-width:1;"/><polygon fill="#181818" points="1503.1212,419.1389,1499.8104,409.8632,1499.6728,415.5184,1494.0176,415.3808,1503.1212,419.1389" style="stroke:#181818;stroke-width:1;"/></g><!--link GoBackend to EvalManager--><g class="link" data-entity-1="GoBackend" data-entity-2="EvalManager" data-source-line="74" data-uid="lnk46" id="link_GoBackend_EvalManager"><path d="M1205.1012,456.4289 C1221.7112,476.8589 1245.1554,505.7141 1261.7554,526.1241" fill="none" id="GoBackend-to-EvalManager" style="stroke:#181818;stroke-width:1;"/><polygon fill="#181818" points="1265.5412,530.7789,1262.9656,521.2728,1262.3864,526.8999,1256.7592,526.3206,1265.5412,530.7789" style="stroke:#181818;stroke-width:1;"/></g><!--link GoBackend to ModelRegistry--><g class="link" data-entity-1="GoBackend" data-entity-2="ModelRegistry" data-source-line="75" data-uid="lnk47" id="link_GoBackend_ModelRegistry"><path d="M1218.1712,456.4189 C1233.1212,465.1089 1252.3112,474.8289 1270.8012,480.0789 C1314.9712,492.6289 1330.9512,471.5789 1373.8012,488.0789 C1397.7512,497.3089 1416.1074,512.2184 1430.7674,526.4584" fill="none" id="GoBackend-to-ModelRegistry" style="stroke:#181818;stroke-width:1;"/><polygon fill="#181818" points="1435.0712,530.6389,1431.4025,521.4989,1431.4847,527.1551,1425.8285,527.2373,1435.0712,530.6389" style="stroke:#181818;stroke-width:1;"/></g><!--link GoBackend to DatasetManager--><g class="link" data-entity-1="GoBackend" data-entity-2="DatasetManager" data-source-line="76" data-uid="lnk48" id="link_GoBackend_DatasetManager"><path d="M1176.5012,456.4289 C1159.8912,476.8589 1136.4471,505.7141 1119.8471,526.1241" fill="none" id="GoBackend-to-DatasetManager" style="stroke:#181818;stroke-width:1;"/><polygon fill="#181818" points="1116.0612,530.7789,1124.8433,526.3206,1119.2161,526.8999,1118.6369,521.2728,1116.0612,530.7789" style="stroke:#181818;stroke-width:1;"/></g><!--link GoBackend to UserManager--><g class="link" data-entity-1="GoBackend" data-entity-2="UserManager" data-source-line="77" data-uid="lnk49" id="link_GoBackend_UserManager"><path d="M1217.7112,456.5489 C1232.6912,465.3989 1252.0412,475.2189 1270.8012,480.0789 C1326.5412,494.5189 1475.8512,467.9589 1529.8012,488.0789 C1553.2412,496.8289 1570.6369,511.8706 1584.3569,526.3006" fill="none" id="GoBackend-to-UserManager" style="stroke:#181818;stroke-width:1;"/><polygon fill="#181818" points="1588.4912,530.6489,1585.1886,521.3703,1585.046,527.0254,1579.3909,526.8827,1588.4912,530.6489" style="stroke:#181818;stroke-width:1;"/></g><!--link GoBackend to ResultsProcessor--><g class="link" data-entity-1="GoBackend" data-entity-2="ResultsProcessor" data-source-line="78" data-uid="lnk50" id="link_GoBackend_ResultsProcessor"><path d="M1127.8112,451.3689 C1093.9312,459.3989 1052.0112,471.4789 1016.8012,488.0789 C992.5412,499.5289 972.3595,513.7897 955.4595,527.1397" fill="none" id="GoBackend-to-ResultsProcessor" style="stroke:#181818;stroke-width:1;"/><polygon fill="#181818" points="950.7512,530.8589,960.2931,528.4189,954.6748,527.7596,955.3341,522.1413,950.7512,530.8589" style="stroke:#181818;stroke-width:1;"/></g><!--link EvalManager to MongoEvals--><g class="link" data-entity-1="EvalManager" data-entity-2="MongoEvals" data-source-line="81" data-uid="lnk51" id="link_EvalManager_MongoEvals"><path d="M1313.2712,567.9989 C1330.8212,576.4989 1352.9612,586.0189 1373.8012,591.5689 C1389.7812,595.8289 1434.0112,590.4389 1447.8012,599.5689 C1483.6812,623.3189 1500.3652,667.7634 1507.8852,694.4734" fill="none" id="EvalManager-to-MongoEvals" style="stroke:#181818;stroke-width:1;"/><polygon fill="#181818" points="1509.5112,700.2489,1510.9225,690.5017,1508.1562,695.436,1503.2219,692.6697,1509.5112,700.2489" style="stroke:#181818;stroke-width:1;"/></g><!--link ModelRegistry to MongoEvals--><g class="link" data-entity-1="ModelRegistry" data-entity-2="MongoEvals" data-source-line="82" data-uid="lnk52" id="link_ModelRegistry_MongoEvals"><path d="M1458.3212,567.9389 C1470.2312,600.0989 1493.2771,662.3825 1505.1971,694.5625" fill="none" id="ModelRegistry-to-MongoEvals" style="stroke:#181818;stroke-width:1;"/><polygon fill="#181818" points="1507.2812,700.1889,1507.906,690.3599,1505.5445,695.5002,1500.4041,693.1387,1507.2812,700.1889" style="stroke:#181818;stroke-width:1;"/></g><!--link DatasetManager to MongoDsets--><g class="link" data-entity-1="DatasetManager" data-entity-2="MongoDsets" data-source-line="83" data-uid="lnk53" id="link_DatasetManager_MongoDsets"><path d="M1130.2112,567.8989 C1145.9812,576.6989 1166.3012,586.5289 1185.8012,591.5689 C1203.2512,596.0789 1333.3012,588.8689 1347.8012,599.5689 C1379.9712,623.3089 1387.6666,667.5462 1389.6966,694.2562" fill="none" id="DatasetManager-to-MongoDsets" style="stroke:#181818;stroke-width:1;"/><polygon fill="#181818" points="1390.1512,700.2389,1393.4577,690.9617,1389.7723,695.2533,1385.4807,691.5679,1390.1512,700.2389" style="stroke:#181818;stroke-width:1;"/></g><!--link UserManager to MongoUsers--><g class="link" data-entity-1="UserManager" data-entity-2="MongoUsers" data-source-line="84" data-uid="lnk54" id="link_UserManager_MongoUsers"><path d="M1606.1112,567.9389 C1610.3412,600.0989 1618.4793,662.0601 1622.7093,694.2401" fill="none" id="UserManager-to-MongoUsers" style="stroke:#181818;stroke-width:1;"/><polygon fill="#181818" points="1623.4912,700.1889,1626.2842,690.7444,1622.8396,695.2316,1618.3524,691.787,1623.4912,700.1889" style="stroke:#181818;stroke-width:1;"/></g><!--link ResultsProcessor to MetricsDB--><g class="link" data-entity-1="ResultsProcessor" data-entity-2="MetricsDB" data-source-line="85" data-uid="lnk55" id="link_ResultsProcessor_MetricsDB"><path d="M859.9312,552.6589 C810.8312,557.1189 745.3412,568.9789 695.8012,599.5689 C655.1912,624.6489 627.6547,668.5554 613.4847,694.8854" fill="none" id="ResultsProcessor-to-MetricsDB" style="stroke:#181818;stroke-width:1;"/><polygon fill="#181818" points="610.6412,700.1689,618.4287,694.1393,613.0108,695.766,611.384,690.3481,610.6412,700.1689" style="stroke:#181818;stroke-width:1;"/></g><!--link ResultsProcessor to HistoryDB--><g class="link" data-entity-1="ResultsProcessor" data-entity-2="HistoryDB" data-source-line="86" data-uid="lnk56" id="link_ResultsProcessor_HistoryDB"><path d="M907.7012,568.0389 C896.8312,577.0889 883.7512,588.5089 872.8012,599.5689 C839.5212,633.2089 808.4152,671.743 789.9252,695.513" fill="none" id="ResultsProcessor-to-HistoryDB" style="stroke:#181818;stroke-width:1;"/><polygon fill="#181818" points="786.2412,700.2489,794.9244,695.601,789.3112,696.3023,788.6099,690.6891,786.2412,700.2489" style="stroke:#181818;stroke-width:1;"/></g><!--link EvalManager to Queue--><g class="link" data-entity-1="EvalManager" data-entity-2="Queue" data-source-line="89" data-uid="lnk57" id="link_EvalManager_Queue"><path d="M1276.9612,567.9389 C1271.4912,601.8689 1260.5665,669.6454 1255.7965,699.2254" fill="none" id="EvalManager-to-Queue" style="stroke:#181818;stroke-width:1;"/><polygon fill="#181818" points="1254.8412,705.1489,1260.223,696.9005,1255.6373,700.2127,1252.3251,695.6269,1254.8412,705.1489" style="stroke:#181818;stroke-width:1;"/></g><!--link Queue to Worker--><g class="link" data-entity-1="Queue" data-entity-2="Worker" data-source-line="90" data-uid="lnk58" id="link_Queue_Worker"><path d="M1248.5012,705.1989 C1239.0712,679.7789 1213.9012,622.8089 1170.8012,599.5689 C1138.9112,582.3789 879.8812,600.6189 844.8012,591.5689 C737.0412,563.7689 629.2509,493.8379 580.9809,459.9279" fill="none" id="Queue-to-Worker" style="stroke:#181818;stroke-width:1;"/><polygon fill="#181818" points="576.0712,456.4789,581.1363,464.9255,580.1626,459.3531,585.735,458.3794,576.0712,456.4789" style="stroke:#181818;stroke-width:1;"/></g><!--link Worker to ContractClient--><g class="link" data-entity-1="Worker" data-entity-2="ContractClient" data-source-line="91" data-uid="lnk59" id="link_Worker_ContractClient"><path d="M526.5812,456.4289 C497.3612,476.7989 454.4429,506.7372 425.1429,527.1672" fill="none" id="Worker-to-ContractClient" style="stroke:#181818;stroke-width:1;"/><polygon fill="#181818" points="420.2212,530.5989,429.8916,528.7324,424.3227,527.7391,425.316,522.1702,420.2212,530.5989" style="stroke:#181818;stroke-width:1;"/></g><!--link Worker to ResultsProcessor--><g class="link" data-entity-1="Worker" data-entity-2="ResultsProcessor" data-source-line="92" data-uid="lnk60" id="link_Worker_ResultsProcessor"><path d="M623.0912,452.7589 C665.2412,461.5789 719.4612,473.9789 766.8012,488.0789 C808.1512,500.3989 848.584,515.5465 881.154,528.4665" fill="none" id="Worker-to-ResultsProcessor" style="stroke:#181818;stroke-width:1;"/><polygon fill="#181818" points="886.7312,530.6789,879.8404,523.6422,882.0836,528.8352,876.8905,531.0785,886.7312,530.6789" style="stroke:#181818;stroke-width:1;"/></g><!--link ContractClient to AVS--><g class="link" data-entity-1="ContractClient" data-entity-2="AVS" data-source-line="93" data-uid="lnk61" id="link_ContractClient_AVS"><path d="M358.0512,567.9989 C343.2312,576.2589 326.6412,587.0489 313.8012,599.5689 C282.5312,630.0689 260.4576,670.3343 248.4276,695.0443" fill="none" id="ContractClient-to-AVS" style="stroke:#181818;stroke-width:1;"/><polygon fill="#181818" points="245.8012,700.4389,253.3372,694.0979,247.9899,695.9434,246.1444,690.596,245.8012,700.4389" style="stroke:#181818;stroke-width:1;"/></g><!--link MetricsCollector to LLMs--><g class="link" data-entity-1="MetricsCollector" data-entity-2="LLMs" data-source-line="94" data-uid="lnk62" id="link_MetricsCollector_LLMs"><path d="M410.8112,456.5389 C426.1912,464.5289 445.1012,473.6089 462.8012,480.0789 C476.5712,485.1189 485.7812,476.5289 494.8012,488.0789 C549.1312,557.6689 457.2067,655.5356 413.3067,696.1256" fill="none" id="MetricsCollector-to-LLMs" style="stroke:#181818;stroke-width:1;"/><polygon fill="#181818" points="408.9012,700.1989,418.225,697.0259,412.5725,696.8045,412.7939,691.152,408.9012,700.1989" style="stroke:#181818;stroke-width:1;"/></g><!--link MetricsCollector to MetricsDB--><g class="link" data-entity-1="MetricsCollector" data-entity-2="MetricsDB" data-source-line="95" data-uid="lnk63" id="link_MetricsCollector_MetricsDB"><path d="M408.5212,456.4789 C424.1612,464.9689 443.9512,474.4889 462.8012,480.0789 C476.9612,484.2889 517.4212,478.6589 528.8012,488.0789 C594.7012,542.6789 601.8696,650.649 602.0996,694.289" fill="none" id="MetricsCollector-to-MetricsDB" style="stroke:#181818;stroke-width:1;"/><polygon fill="#181818" points="602.1312,700.2889,606.0838,691.2679,602.1049,695.289,598.0839,691.3101,602.1312,700.2889" style="stroke:#181818;stroke-width:1;"/></g><!--link DatasetManager to DatasetsS3--><g class="link" data-entity-1="DatasetManager" data-entity-2="DatasetsS3" data-source-line="98" data-uid="lnk64" id="link_DatasetManager_DatasetsS3"><path d="M1101.8012,567.9389 C1101.8012,600.0989 1101.8012,662.0089 1101.8012,694.1889" fill="none" id="DatasetManager-to-DatasetsS3" style="stroke:#181818;stroke-width:1;"/><polygon fill="#181818" points="1101.8012,700.1889,1105.8012,691.1889,1101.8012,695.1889,1097.8012,691.1889,1101.8012,700.1889" style="stroke:#181818;stroke-width:1;"/></g><!--link ResultsProcessor to ResultsS3--><g class="link" data-entity-1="ResultsProcessor" data-entity-2="ResultsS3" data-source-line="99" data-uid="lnk65" id="link_ResultsProcessor_ResultsS3"><path d="M932.0112,567.9389 C936.0412,600.0989 943.8157,662.0554 947.8457,694.2354" fill="none" id="ResultsProcessor-to-ResultsS3" style="stroke:#181818;stroke-width:1;"/><polygon fill="#181818" points="948.5912,700.1889,951.4419,690.7616,947.9699,695.2277,943.5039,691.7557,948.5912,700.1889" style="stroke:#181818;stroke-width:1;"/></g><!--SRC=[VLJ1KXin3BtdApovz4Glt3iJ4Xeo4pgK7SAXmy7iYiN5iLFRImWT_hsIxDsrGwQ7REptPFb9ikHVbDb99xUYjjkTDM125GuQX8CwIDDgcFZ1v57MBwspdMdcLbidziygvFopDCtUgH30Y2UfFKmcGGLqjfO7S6imNio2blZTxSJCrNIy3fr3knswbYs8wPq79rOcW7kITJev5NydGloAP-_XKToj7aHStgs8-G5luUjlzii4xN7DXxhmZ46fMWPbZRYsJQU1ZOWXYrlmdGvUR9Jlf5RlRCWM6_K- -SYqpMvMfI3SBsM0lJn4Zpkrt1EnjE823u5f1DemjxG98Hw5LnPtGLJWNbKDVJWHPLNeLwpL5bFac2K0zuMWkNNGk_19rEMhr5qALXeqYyS9JdkomZo05hVGAXzSLCzGZv3DGWRfKMFk9c6P9ovORa90nlVflN4MHNgReede01PXKVbR5sF8yvs5Tc_TIxelBecljj85CRScE5dZGYkiFDlqM8Gu0H2SgedH6XzXafNG0InaKUovdWRtZvWDCRssfhMBYsbC8w_Pej3i7mQQG1zvobR6y3OoATKPkQ0jaX_uA- -NJid-_hZkxv-rhOCMtqxJ1vS7khY8LbTOT8k0r5nXDedOWKq-tJYxhqHrpXTMv_rTVQahF8SPomjTdHT1YUzAWyzVLBH8z_pfeAEmy6bGvd_Ibk_Y5HMbrhPhnFJo3Tl3eEgZ9Y1vSziQ5MogFw-9ocRHfefjkwcOM5_J8trLJLyHH3nTzeNVj50qbV0HKIqdF7l4sTctOTYaVyPujkG0ZPB2W4S5UgOPKZYcespIQsPJHiOPCcBZq1YnVbIWUvuGFYO7HxmnaAuPVF69V3gKJ3aLIkve69HaFWPAvbFleqxkhLnVfYZf6Fgca7HCbff6DlPE9cgaOiyTguhyq2OdwR55C8HyQlqlalY6-Hih6ETN_4kLBwPLndnANMaQdnO-v-CvnWG_vvFC62R6aRgtYE54LhE-FPcRiV7_0G00]--></g></svg>