<?xml version="1.0" encoding="us-ascii" standalone="no"?><svg xmlns="http://www.w3.org/2000/svg" xmlns:xlink="http://www.w3.org/1999/xlink" contentStyleType="text/css" height="1279px" preserveAspectRatio="none" style="width:911px;height:1279px;background:#FFFFFF;" version="1.1" viewBox="0 0 911 1279" width="911px" zoomAndPan="magnify"><defs/><g><text fill="#000000" font-family="Arial" font-size="14" font-weight="bold" lengthAdjust="spacing" textLength="181" x="364.25" y="28.1318">Dataset Management Flow</text><rect fill="#FFFFFF" height="344.436" style="stroke:#181818;stroke-width:1.0;" width="10" x="267" y="213.0435"/><rect fill="#FFFFFF" height="144.7437" style="stroke:#181818;stroke-width:1.0;" width="10" x="267" y="586.4282"/><rect fill="#FFFFFF" height="202.6411" style="stroke:#181818;stroke-width:1.0;" width="10" x="267" y="760.1206"/><rect fill="#FFFFFF" height="244.5898" style="stroke:#181818;stroke-width:1.0;" width="10" x="442" y="283.9409"/><rect fill="#FFFFFF" height="86.8462" style="stroke:#181818;stroke-width:1.0;" width="10" x="442" y="615.377"/><rect fill="#FFFFFF" height="144.7437" style="stroke:#181818;stroke-width:1.0;" width="10" x="442" y="789.0693"/><line style="stroke:#181818;stroke-width:0.5;stroke-dasharray:5.0,5.0;" x1="45" x2="45" y1="118.1973" y2="980.7617"/><line style="stroke:#181818;stroke-width:0.5;stroke-dasharray:5.0,5.0;" x1="96" x2="96" y1="118.1973" y2="980.7617"/><line style="stroke:#181818;stroke-width:0.5;stroke-dasharray:5.0,5.0;" x1="272" x2="272" y1="118.1973" y2="980.7617"/><line style="stroke:#181818;stroke-width:0.5;stroke-dasharray:5.0,5.0;" x1="447" x2="447" y1="118.1973" y2="980.7617"/><line style="stroke:#181818;stroke-width:0.5;stroke-dasharray:5.0,5.0;" x1="622.5" x2="622.5" y1="118.1973" y2="980.7617"/><line style="stroke:#181818;stroke-width:0.5;stroke-dasharray:5.0,5.0;" x1="721.5" x2="721.5" y1="118.1973" y2="980.7617"/><line style="stroke:#181818;stroke-width:0.5;stroke-dasharray:5.0,5.0;" x1="841.5" x2="841.5" y1="118.1973" y2="980.7617"/><text fill="#000000" font-family="Arial" font-size="14" lengthAdjust="spacing" textLength="40" x="22" y="115.2305">Admin</text><ellipse cx="45" cy="50.5986" fill="#E2E2F0" rx="8" ry="8" style="stroke:#181818;stroke-width:0.5;"/><path d="M45,58.5986 L45,85.5986 M32,66.5986 L58,66.5986 M45,85.5986 L32,100.5986 M45,85.5986 L58,100.5986 " fill="none" style="stroke:#181818;stroke-width:0.5;"/><text fill="#000000" font-family="Arial" font-size="14" lengthAdjust="spacing" textLength="40" x="22" y="992.8936">Admin</text><ellipse cx="45" cy="1004.3604" fill="#E2E2F0" rx="8" ry="8" style="stroke:#181818;stroke-width:0.5;"/><path d="M45,1012.3604 L45,1039.3604 M32,1020.3604 L58,1020.3604 M45,1039.3604 L32,1054.3604 M45,1039.3604 L58,1054.3604 " fill="none" style="stroke:#181818;stroke-width:0.5;"/><text fill="#000000" font-family="Arial" font-size="14" lengthAdjust="spacing" textLength="30" x="78" y="115.2305">User</text><ellipse cx="96" cy="50.5986" fill="#E2E2F0" rx="8" ry="8" style="stroke:#181818;stroke-width:0.5;"/><path d="M96,58.5986 L96,85.5986 M83,66.5986 L109,66.5986 M96,85.5986 L83,100.5986 M96,85.5986 L109,100.5986 " fill="none" style="stroke:#181818;stroke-width:0.5;"/><text fill="#000000" font-family="Arial" font-size="14" lengthAdjust="spacing" textLength="30" x="78" y="992.8936">User</text><ellipse cx="96" cy="1004.3604" fill="#E2E2F0" rx="8" ry="8" style="stroke:#181818;stroke-width:0.5;"/><path d="M96,1012.3604 L96,1039.3604 M83,1020.3604 L109,1020.3604 M96,1039.3604 L83,1054.3604 M96,1039.3604 L109,1054.3604 " fill="none" style="stroke:#181818;stroke-width:0.5;"/><rect fill="#E9F7EF" height="46.1973" rx="2.5" ry="2.5" style="stroke:#27AE60;stroke-width:2.0;" width="116" x="214" y="71"/><text fill="#000000" font-family="Arial" font-size="14" font-weight="bold" lengthAdjust="spacing" textLength="79" x="232.5" y="91.1318">&#171;Frontend&#187;</text><text fill="#000000" font-family="Arial" font-size="14" font-weight="bold" lengthAdjust="spacing" textLength="102" x="221" y="107.2305">Atlas Frontend</text><rect fill="#E9F7EF" height="46.1973" rx="2.5" ry="2.5" style="stroke:#27AE60;stroke-width:2.0;" width="116" x="214" y="979.7617"/><text fill="#000000" font-family="Arial" font-size="14" font-weight="bold" lengthAdjust="spacing" textLength="79" x="232.5" y="999.8936">&#171;Frontend&#187;</text><text fill="#000000" font-family="Arial" font-size="14" font-weight="bold" lengthAdjust="spacing" textLength="102" x="221" y="1015.9922">Atlas Frontend</text><rect fill="#EBF5FB" height="46.1973" rx="2.5" ry="2.5" style="stroke:#3498DB;stroke-width:2.0;" width="76" x="409" y="71"/><text fill="#000000" font-family="Arial" font-size="14" font-weight="bold" lengthAdjust="spacing" textLength="39" x="427.5" y="91.1318">&#171;API&#187;</text><text fill="#000000" font-family="Arial" font-size="14" font-weight="bold" lengthAdjust="spacing" textLength="62" x="416" y="107.2305">Atlas API</text><rect fill="#EBF5FB" height="46.1973" rx="2.5" ry="2.5" style="stroke:#3498DB;stroke-width:2.0;" width="76" x="409" y="979.7617"/><text fill="#000000" font-family="Arial" font-size="14" font-weight="bold" lengthAdjust="spacing" textLength="39" x="427.5" y="999.8936">&#171;API&#187;</text><text fill="#000000" font-family="Arial" font-size="14" font-weight="bold" lengthAdjust="spacing" textLength="62" x="416" y="1015.9922">Atlas API</text><rect fill="#F5EEF8" height="46.1973" rx="2.5" ry="2.5" style="stroke:#76448A;stroke-width:2.0;" width="83" x="581.5" y="71"/><text fill="#000000" font-family="Arial" font-size="14" font-weight="bold" lengthAdjust="spacing" textLength="69" x="588.5" y="91.1318">&#171;Storage&#187;</text><text fill="#000000" font-family="Arial" font-size="14" font-weight="bold" lengthAdjust="spacing" textLength="53" x="596.5" y="107.2305">AWS S3</text><rect fill="#F5EEF8" height="46.1973" rx="2.5" ry="2.5" style="stroke:#76448A;stroke-width:2.0;" width="83" x="581.5" y="979.7617"/><text fill="#000000" font-family="Arial" font-size="14" font-weight="bold" lengthAdjust="spacing" textLength="69" x="588.5" y="999.8936">&#171;Storage&#187;</text><text fill="#000000" font-family="Arial" font-size="14" font-weight="bold" lengthAdjust="spacing" textLength="53" x="596.5" y="1015.9922">AWS S3</text><rect fill="#F4ECF7" height="46.1973" rx="2.5" ry="2.5" style="stroke:#8E44AD;stroke-width:2.0;" width="94" x="674.5" y="71"/><text fill="#000000" font-family="Arial" font-size="14" font-weight="bold" lengthAdjust="spacing" textLength="80" x="681.5" y="91.1318">&#171;Database&#187;</text><text fill="#000000" font-family="Arial" font-size="14" font-weight="bold" lengthAdjust="spacing" textLength="68" x="687.5" y="107.2305">MongoDB</text><rect fill="#F4ECF7" height="46.1973" rx="2.5" ry="2.5" style="stroke:#8E44AD;stroke-width:2.0;" width="94" x="674.5" y="979.7617"/><text fill="#000000" font-family="Arial" font-size="14" font-weight="bold" lengthAdjust="spacing" textLength="80" x="681.5" y="999.8936">&#171;Database&#187;</text><text fill="#000000" font-family="Arial" font-size="14" font-weight="bold" lengthAdjust="spacing" textLength="68" x="687.5" y="1015.9922">MongoDB</text><rect fill="#F5EEF8" height="46.1973" rx="2.5" ry="2.5" style="stroke:#76448A;stroke-width:2.0;" width="127" x="778.5" y="71"/><text fill="#000000" font-family="Arial" font-size="14" font-weight="bold" lengthAdjust="spacing" textLength="69" x="807.5" y="91.1318">&#171;Storage&#187;</text><text fill="#000000" font-family="Arial" font-size="14" font-weight="bold" lengthAdjust="spacing" textLength="113" x="785.5" y="107.2305">Dataset Registry</text><rect fill="#F5EEF8" height="46.1973" rx="2.5" ry="2.5" style="stroke:#76448A;stroke-width:2.0;" width="127" x="778.5" y="979.7617"/><text fill="#000000" font-family="Arial" font-size="14" font-weight="bold" lengthAdjust="spacing" textLength="69" x="807.5" y="999.8936">&#171;Storage&#187;</text><text fill="#000000" font-family="Arial" font-size="14" font-weight="bold" lengthAdjust="spacing" textLength="113" x="785.5" y="1015.9922">Dataset Registry</text><rect fill="#FFFFFF" height="344.436" style="stroke:#181818;stroke-width:1.0;" width="10" x="267" y="213.0435"/><rect fill="#FFFFFF" height="144.7437" style="stroke:#181818;stroke-width:1.0;" width="10" x="267" y="586.4282"/><rect fill="#FFFFFF" height="202.6411" style="stroke:#181818;stroke-width:1.0;" width="10" x="267" y="760.1206"/><rect fill="#FFFFFF" height="244.5898" style="stroke:#181818;stroke-width:1.0;" width="10" x="442" y="283.9409"/><rect fill="#FFFFFF" height="86.8462" style="stroke:#181818;stroke-width:1.0;" width="10" x="442" y="615.377"/><rect fill="#FFFFFF" height="144.7437" style="stroke:#181818;stroke-width:1.0;" width="10" x="442" y="789.0693"/><path d="M5,133.1973 L5,157.1973 L883,157.1973 L883,143.1973 L873,133.1973 L5,133.1973 " fill="#FEFFDD" style="stroke:#181818;stroke-width:0.5;"/><path d="M873,133.1973 L873,143.1973 L883,143.1973 L873,133.1973 " fill="#FEFFDD" style="stroke:#181818;stroke-width:0.5;"/><text fill="#000000" font-family="Arial" font-size="13" lengthAdjust="spacing" textLength="193" x="343.25" y="150.3911">Dataset Upload and Management</text><polygon fill="#181818" points="260,180.0947,270,184.0947,260,188.0947,264,184.0947" style="stroke:#181818;stroke-width:1.0;"/><line style="stroke:#181818;stroke-width:1.0;" x1="45" x2="266" y1="184.0947" y2="184.0947"/><text fill="#000000" font-family="Arial" font-size="13" lengthAdjust="spacing" textLength="192" x="62.5" y="179.3398">Navigate to dataset management</text><polygon fill="#181818" points="255,209.0435,265,213.0435,255,217.0435,259,213.0435" style="stroke:#181818;stroke-width:1.0;"/><line style="stroke:#181818;stroke-width:1.0;" x1="45" x2="261" y1="213.0435" y2="213.0435"/><text fill="#000000" font-family="Arial" font-size="13" lengthAdjust="spacing" textLength="115" x="98.5" y="208.2886">Upload dataset files</text><line style="stroke:#181818;stroke-width:1.0;" x1="277" x2="319" y1="241.9922" y2="241.9922"/><line style="stroke:#181818;stroke-width:1.0;" x1="319" x2="319" y1="241.9922" y2="254.9922"/><line style="stroke:#181818;stroke-width:1.0;" x1="278" x2="319" y1="254.9922" y2="254.9922"/><polygon fill="#181818" points="288,250.9922,278,254.9922,288,258.9922,284,254.9922" style="stroke:#181818;stroke-width:1.0;"/><text fill="#000000" font-family="Arial" font-size="13" lengthAdjust="spacing" textLength="135" x="284" y="237.2373">Validate dataset format</text><polygon fill="#181818" points="430,279.9409,440,283.9409,430,287.9409,434,283.9409" style="stroke:#181818;stroke-width:1.0;"/><line style="stroke:#181818;stroke-width:1.0;" x1="277" x2="436" y1="283.9409" y2="283.9409"/><text fill="#000000" font-family="Arial" font-size="13" lengthAdjust="spacing" textLength="133" x="293" y="279.186">POST /api/v1/datasets</text><line style="stroke:#181818;stroke-width:1.0;" x1="452" x2="494" y1="312.8896" y2="312.8896"/><line style="stroke:#181818;stroke-width:1.0;" x1="494" x2="494" y1="312.8896" y2="325.8896"/><line style="stroke:#181818;stroke-width:1.0;" x1="453" x2="494" y1="325.8896" y2="325.8896"/><polygon fill="#181818" points="463,321.8896,453,325.8896,463,329.8896,459,325.8896" style="stroke:#181818;stroke-width:1.0;"/><text fill="#000000" font-family="Arial" font-size="13" lengthAdjust="spacing" textLength="152" x="459" y="308.1348">Validate dataset metadata</text><polygon fill="#181818" points="611,350.8384,621,354.8384,611,358.8384,615,354.8384" style="stroke:#181818;stroke-width:1.0;"/><line style="stroke:#181818;stroke-width:1.0;" x1="452" x2="617" y1="354.8384" y2="354.8384"/><text fill="#000000" font-family="Arial" font-size="13" lengthAdjust="spacing" textLength="115" x="480" y="350.0835">Upload dataset files</text><polygon fill="#181818" points="463,379.7871,453,383.7871,463,387.7871,459,383.7871" style="stroke:#181818;stroke-width:1.0;"/><line style="stroke:#181818;stroke-width:1.0;stroke-dasharray:2.0,2.0;" x1="457" x2="622" y1="383.7871" y2="383.7871"/><text fill="#000000" font-family="Arial" font-size="13" lengthAdjust="spacing" textLength="87" x="494" y="379.0322">Confirm upload</text><polygon fill="#181818" points="709.5,408.7358,719.5,412.7358,709.5,416.7358,713.5,412.7358" style="stroke:#181818;stroke-width:1.0;"/><line style="stroke:#181818;stroke-width:1.0;" x1="452" x2="715.5" y1="412.7358" y2="412.7358"/><text fill="#000000" font-family="Arial" font-size="13" lengthAdjust="spacing" textLength="136" x="518.75" y="407.981">Store dataset metadata</text><polygon fill="#181818" points="463,437.6846,453,441.6846,463,445.6846,459,441.6846" style="stroke:#181818;stroke-width:1.0;"/><line style="stroke:#181818;stroke-width:1.0;stroke-dasharray:2.0,2.0;" x1="457" x2="720.5" y1="441.6846" y2="441.6846"/><text fill="#000000" font-family="Arial" font-size="13" lengthAdjust="spacing" textLength="92" x="540.75" y="436.9297">Confirm storage</text><polygon fill="#181818" points="830,466.6333,840,470.6333,830,474.6333,834,470.6333" style="stroke:#181818;stroke-width:1.0;"/><line style="stroke:#181818;stroke-width:1.0;" x1="452" x2="836" y1="470.6333" y2="470.6333"/><text fill="#000000" font-family="Arial" font-size="13" lengthAdjust="spacing" textLength="156" x="569" y="465.8784">Register dataset in registry</text><polygon fill="#181818" points="463,495.582,453,499.582,463,503.582,459,499.582" style="stroke:#181818;stroke-width:1.0;"/><line style="stroke:#181818;stroke-width:1.0;stroke-dasharray:2.0,2.0;" x1="457" x2="841" y1="499.582" y2="499.582"/><text fill="#000000" font-family="Arial" font-size="13" lengthAdjust="spacing" textLength="113" x="590.5" y="494.8271">Confirm registration</text><polygon fill="#181818" points="288,524.5308,278,528.5308,288,532.5308,284,528.5308" style="stroke:#181818;stroke-width:1.0;"/><line style="stroke:#181818;stroke-width:1.0;stroke-dasharray:2.0,2.0;" x1="282" x2="446" y1="528.5308" y2="528.5308"/><text fill="#000000" font-family="Arial" font-size="13" lengthAdjust="spacing" textLength="91" x="316.5" y="523.7759">Return success</text><polygon fill="#181818" points="56,553.4795,46,557.4795,56,561.4795,52,557.4795" style="stroke:#181818;stroke-width:1.0;"/><line style="stroke:#181818;stroke-width:1.0;stroke-dasharray:2.0,2.0;" x1="50" x2="271" y1="557.4795" y2="557.4795"/><text fill="#000000" font-family="Arial" font-size="13" lengthAdjust="spacing" textLength="142" x="87.5" y="552.7246">Show success message</text><polygon fill="#181818" points="255,582.4282,265,586.4282,255,590.4282,259,586.4282" style="stroke:#181818;stroke-width:1.0;"/><line style="stroke:#181818;stroke-width:1.0;" x1="96" x2="261" y1="586.4282" y2="586.4282"/><text fill="#000000" font-family="Arial" font-size="13" lengthAdjust="spacing" textLength="152" x="105.5" y="581.6733">Browse available datasets</text><polygon fill="#181818" points="430,611.377,440,615.377,430,619.377,434,615.377" style="stroke:#181818;stroke-width:1.0;"/><line style="stroke:#181818;stroke-width:1.0;" x1="277" x2="436" y1="615.377" y2="615.377"/><text fill="#000000" font-family="Arial" font-size="13" lengthAdjust="spacing" textLength="124" x="297.5" y="610.6221">GET /api/v1/datasets</text><polygon fill="#181818" points="709.5,640.3257,719.5,644.3257,709.5,648.3257,713.5,644.3257" style="stroke:#181818;stroke-width:1.0;"/><line style="stroke:#181818;stroke-width:1.0;" x1="452" x2="715.5" y1="644.3257" y2="644.3257"/><text fill="#000000" font-family="Arial" font-size="13" lengthAdjust="spacing" textLength="138" x="517.75" y="639.5708">Fetch dataset metadata</text><polygon fill="#181818" points="463,669.2744,453,673.2744,463,677.2744,459,673.2744" style="stroke:#181818;stroke-width:1.0;"/><line style="stroke:#181818;stroke-width:1.0;stroke-dasharray:2.0,2.0;" x1="457" x2="720.5" y1="673.2744" y2="673.2744"/><text fill="#000000" font-family="Arial" font-size="13" lengthAdjust="spacing" textLength="92" x="540.75" y="668.5195">Return datasets</text><polygon fill="#181818" points="288,698.2231,278,702.2231,288,706.2231,284,702.2231" style="stroke:#181818;stroke-width:1.0;"/><line style="stroke:#181818;stroke-width:1.0;stroke-dasharray:2.0,2.0;" x1="282" x2="446" y1="702.2231" y2="702.2231"/><text fill="#000000" font-family="Arial" font-size="13" lengthAdjust="spacing" textLength="106" x="309" y="697.4683">Return dataset list</text><polygon fill="#181818" points="107,727.1719,97,731.1719,107,735.1719,103,731.1719" style="stroke:#181818;stroke-width:1.0;"/><line style="stroke:#181818;stroke-width:1.0;stroke-dasharray:2.0,2.0;" x1="101" x2="271" y1="731.1719" y2="731.1719"/><text fill="#000000" font-family="Arial" font-size="13" lengthAdjust="spacing" textLength="132" x="118" y="726.417">Display dataset gallery</text><polygon fill="#181818" points="255,756.1206,265,760.1206,255,764.1206,259,760.1206" style="stroke:#181818;stroke-width:1.0;"/><line style="stroke:#181818;stroke-width:1.0;" x1="96" x2="261" y1="760.1206" y2="760.1206"/><text fill="#000000" font-family="Arial" font-size="13" lengthAdjust="spacing" textLength="117" x="123" y="755.3657">View dataset details</text><polygon fill="#181818" points="430,785.0693,440,789.0693,430,793.0693,434,789.0693" style="stroke:#181818;stroke-width:1.0;"/><line style="stroke:#181818;stroke-width:1.0;" x1="277" x2="436" y1="789.0693" y2="789.0693"/><text fill="#000000" font-family="Arial" font-size="13" lengthAdjust="spacing" textLength="146" x="286.5" y="784.3145">GET /api/v1/datasets/{id}</text><polygon fill="#181818" points="709.5,814.0181,719.5,818.0181,709.5,822.0181,713.5,818.0181" style="stroke:#181818;stroke-width:1.0;"/><line style="stroke:#181818;stroke-width:1.0;" x1="452" x2="715.5" y1="818.0181" y2="818.0181"/><text fill="#000000" font-family="Arial" font-size="13" lengthAdjust="spacing" textLength="138" x="517.75" y="813.2632">Fetch dataset metadata</text><polygon fill="#181818" points="463,842.9668,453,846.9668,463,850.9668,459,846.9668" style="stroke:#181818;stroke-width:1.0;"/><line style="stroke:#181818;stroke-width:1.0;stroke-dasharray:2.0,2.0;" x1="457" x2="720.5" y1="846.9668" y2="846.9668"/><text fill="#000000" font-family="Arial" font-size="13" lengthAdjust="spacing" textLength="85" x="544.25" y="842.2119">Return dataset</text><polygon fill="#181818" points="611,871.9155,621,875.9155,611,879.9155,615,875.9155" style="stroke:#181818;stroke-width:1.0;"/><line style="stroke:#181818;stroke-width:1.0;" x1="452" x2="617" y1="875.9155" y2="875.9155"/><text fill="#000000" font-family="Arial" font-size="13" lengthAdjust="spacing" textLength="114" x="480.5" y="871.1606">Get dataset sample</text><polygon fill="#181818" points="463,900.8643,453,904.8643,463,908.8643,459,904.8643" style="stroke:#181818;stroke-width:1.0;"/><line style="stroke:#181818;stroke-width:1.0;stroke-dasharray:2.0,2.0;" x1="457" x2="622" y1="904.8643" y2="904.8643"/><text fill="#000000" font-family="Arial" font-size="13" lengthAdjust="spacing" textLength="113" x="481" y="900.1094">Return sample data</text><polygon fill="#181818" points="288,929.813,278,933.813,288,937.813,284,933.813" style="stroke:#181818;stroke-width:1.0;"/><line style="stroke:#181818;stroke-width:1.0;stroke-dasharray:2.0,2.0;" x1="282" x2="446" y1="933.813" y2="933.813"/><text fill="#000000" font-family="Arial" font-size="13" lengthAdjust="spacing" textLength="127" x="298.5" y="929.0581">Return combined data</text><polygon fill="#181818" points="107,958.7617,97,962.7617,107,966.7617,103,962.7617" style="stroke:#181818;stroke-width:1.0;"/><line style="stroke:#181818;stroke-width:1.0;stroke-dasharray:2.0,2.0;" x1="101" x2="271" y1="962.7617" y2="962.7617"/><text fill="#000000" font-family="Arial" font-size="13" lengthAdjust="spacing" textLength="132" x="118" y="958.0068">Display dataset details</text><rect fill="#DDDDDD" height="191.085" id="_legend" rx="7.5" ry="7.5" style="stroke:#000000;stroke-width:1.0;" width="307" x="301.25" y="1068.8604"/><text fill="#000000" font-family="Arial" font-size="14" font-weight="bold" lengthAdjust="spacing" textLength="78" x="310.25" y="1088.9922">Entity Type</text><text fill="#000000" font-family="Arial" font-size="14" font-weight="bold" lengthAdjust="spacing" textLength="79" x="396.25" y="1088.9922">Description</text><rect fill="#E9F7EF" height="16.0986" style="stroke:none;stroke-width:1.0;" width="86" x="306.25" y="1091.959"/><text fill="#000000" font-family="Arial" font-size="14" lengthAdjust="spacing" textLength="4" x="306.25" y="1105.0908">&#160;</text><text fill="#000000" font-family="Arial" font-size="14" lengthAdjust="spacing" textLength="203" x="396.25" y="1105.0908">Frontend - Web/UI Components</text><rect fill="#EBF5FB" height="16.0986" style="stroke:none;stroke-width:1.0;" width="86" x="306.25" y="1108.0576"/><text fill="#000000" font-family="Arial" font-size="14" lengthAdjust="spacing" textLength="4" x="306.25" y="1121.1895">&#160;</text><text fill="#000000" font-family="Arial" font-size="14" lengthAdjust="spacing" textLength="148" x="396.25" y="1121.1895">API - Backend Services</text><rect fill="#F9EBEA" height="16.0986" style="stroke:none;stroke-width:1.0;" width="86" x="306.25" y="1124.1563"/><text fill="#000000" font-family="Arial" font-size="14" lengthAdjust="spacing" textLength="4" x="306.25" y="1137.2881">&#160;</text><text fill="#000000" font-family="Arial" font-size="14" lengthAdjust="spacing" textLength="190" x="396.25" y="1137.2881">Auth - Authentication Services</text><rect fill="#F4ECF7" height="16.0986" style="stroke:none;stroke-width:1.0;" width="86" x="306.25" y="1140.2549"/><text fill="#000000" font-family="Arial" font-size="14" lengthAdjust="spacing" textLength="4" x="306.25" y="1153.3867">&#160;</text><text fill="#000000" font-family="Arial" font-size="14" lengthAdjust="spacing" textLength="158" x="396.25" y="1153.3867">Database - Data Storage</text><rect fill="#FEF9E7" height="16.0986" style="stroke:none;stroke-width:1.0;" width="86" x="306.25" y="1156.3535"/><text fill="#000000" font-family="Arial" font-size="14" lengthAdjust="spacing" textLength="4" x="306.25" y="1169.4854">&#160;</text><text fill="#000000" font-family="Arial" font-size="14" lengthAdjust="spacing" textLength="181" x="396.25" y="1169.4854">External - 3rd Party Services</text><rect fill="#FADBD8" height="16.0986" style="stroke:none;stroke-width:1.0;" width="86" x="306.25" y="1172.4521"/><text fill="#000000" font-family="Arial" font-size="14" lengthAdjust="spacing" textLength="4" x="306.25" y="1185.584">&#160;</text><text fill="#000000" font-family="Arial" font-size="14" lengthAdjust="spacing" textLength="170" x="396.25" y="1185.584">Contract - Smart Contracts</text><rect fill="#FCF3CF" height="16.0986" style="stroke:none;stroke-width:1.0;" width="86" x="306.25" y="1188.5508"/><text fill="#000000" font-family="Arial" font-size="14" lengthAdjust="spacing" textLength="4" x="306.25" y="1201.6826">&#160;</text><text fill="#000000" font-family="Arial" font-size="14" lengthAdjust="spacing" textLength="168" x="396.25" y="1201.6826">Queue - Message Queues</text><rect fill="#D6EAF8" height="16.0986" style="stroke:none;stroke-width:1.0;" width="86" x="306.25" y="1204.6494"/><text fill="#000000" font-family="Arial" font-size="14" lengthAdjust="spacing" textLength="4" x="306.25" y="1217.7813">&#160;</text><text fill="#000000" font-family="Arial" font-size="14" lengthAdjust="spacing" textLength="171" x="396.25" y="1217.7813">Operator - Validator Nodes</text><rect fill="#D4EFDF" height="16.0986" style="stroke:none;stroke-width:1.0;" width="86" x="306.25" y="1220.748"/><text fill="#000000" font-family="Arial" font-size="14" lengthAdjust="spacing" textLength="4" x="306.25" y="1233.8799">&#160;</text><text fill="#000000" font-family="Arial" font-size="14" lengthAdjust="spacing" textLength="197" x="396.25" y="1233.8799">Evaluator - Evaluation Services</text><rect fill="#F5EEF8" height="16.0986" style="stroke:none;stroke-width:1.0;" width="86" x="306.25" y="1236.8467"/><text fill="#000000" font-family="Arial" font-size="14" lengthAdjust="spacing" textLength="4" x="306.25" y="1249.9785">&#160;</text><text fill="#000000" font-family="Arial" font-size="14" lengthAdjust="spacing" textLength="171" x="396.25" y="1249.9785">Storage - Storage Services</text><line style="stroke:#000000;stroke-width:1.0;" x1="306.25" x2="603.25" y1="1075.8604" y2="1075.8604"/><line style="stroke:#000000;stroke-width:1.0;" x1="306.25" x2="603.25" y1="1091.959" y2="1091.959"/><line style="stroke:#000000;stroke-width:1.0;" x1="306.25" x2="603.25" y1="1108.0576" y2="1108.0576"/><line style="stroke:#000000;stroke-width:1.0;" x1="306.25" x2="603.25" y1="1124.1563" y2="1124.1563"/><line style="stroke:#000000;stroke-width:1.0;" x1="306.25" x2="603.25" y1="1140.2549" y2="1140.2549"/><line style="stroke:#000000;stroke-width:1.0;" x1="306.25" x2="603.25" y1="1156.3535" y2="1156.3535"/><line style="stroke:#000000;stroke-width:1.0;" x1="306.25" x2="603.25" y1="1172.4521" y2="1172.4521"/><line style="stroke:#000000;stroke-width:1.0;" x1="306.25" x2="603.25" y1="1188.5508" y2="1188.5508"/><line style="stroke:#000000;stroke-width:1.0;" x1="306.25" x2="603.25" y1="1204.6494" y2="1204.6494"/><line style="stroke:#000000;stroke-width:1.0;" x1="306.25" x2="603.25" y1="1220.748" y2="1220.748"/><line style="stroke:#000000;stroke-width:1.0;" x1="306.25" x2="603.25" y1="1236.8467" y2="1236.8467"/><line style="stroke:#000000;stroke-width:1.0;" x1="306.25" x2="603.25" y1="1252.9453" y2="1252.9453"/><line style="stroke:#000000;stroke-width:1.0;" x1="306.25" x2="306.25" y1="1075.8604" y2="1252.9453"/><line style="stroke:#000000;stroke-width:1.0;" x1="392.25" x2="392.25" y1="1075.8604" y2="1252.9453"/><line style="stroke:#000000;stroke-width:1.0;" x1="603.25" x2="603.25" y1="1075.8604" y2="1252.9453"/><!--SRC=[jPJ1Rjim44Jl_8fjpdMDmZSZCE0aTT13sY1gqlDQsYW4A58GAHb6qN_lKYOfArPQ8q0lDWNDZBXlH7sGEbTjGP2RgZ9wPjrUqQUwhPGGJZf5S8CEBJcuGuqbLQGTR9JP2O6vCmsiYqhgi7wqr8WQ6oTpMICBBzPEeOLDOxGZNLp0qGLSNiRbQZNbMjz_xGtyprh-FP7zp21Rz9fimPACzy1RV2sxCxeqDrUzBgnPxCVQyc2lrN7S1ogbTSs-jyMBqKE4Dex0T1GWV4ooPOBsM2k31I2FE_0JejV3R9LWBE4RTh943dG6Yk2k1ik48sH7yRDKP7qHilCnKISIxv7v2PKil2xPJLEX6waP-HBklsS_O8wrd7UVvq5yz1ZM25zGb9_aLkJGhwCgMxonSwvm5bEkZNwMJGLjBupMKDuIV0SJJuZbdiJOGsSnPwZfiE82OnOpRi9TaKe_oGiITDBeG-Y8xGEvjj5WspmdQqL18re3OH_hQ-M1NimkwdaUQ_rkZtofJE6FsBZ9gyRiB05sA1LkLUBohtUXd-Zsovdb9lORSldB6Um3X1Jw9gOOfHZfNrdvqVbaILiht2TRYKeHjtKchIT9k-GjUFTIlHlK_9SiVlyFMiTdvTRlC_WjLhMYqKc9xrf_1uQ3DaMQF_5RgUbmyDw1EkAQGFq7]--></g></svg>