<?xml version="1.0" encoding="us-ascii" standalone="no"?><svg xmlns="http://www.w3.org/2000/svg" xmlns:xlink="http://www.w3.org/1999/xlink" contentStyleType="text/css" height="1086px" preserveAspectRatio="none" style="width:1445px;height:1086px;background:#FFFFFF;" version="1.1" viewBox="0 0 1445 1086" width="1445px" zoomAndPan="magnify"><defs><filter height="1" id="bwd6c2pl0nqwu0" width="1" x="0" y="0"><feFlood flood-color="#E9F7EF" result="flood"/><feComposite in="SourceGraphic" in2="flood" operator="over"/></filter><filter height="1" id="bwd6c2pl0nqwu1" width="1" x="0" y="0"><feFlood flood-color="#EBF5FB" result="flood"/><feComposite in="SourceGraphic" in2="flood" operator="over"/></filter><filter height="1" id="bwd6c2pl0nqwu2" width="1" x="0" y="0"><feFlood flood-color="#F9EBEA" result="flood"/><feComposite in="SourceGraphic" in2="flood" operator="over"/></filter><filter height="1" id="bwd6c2pl0nqwu3" width="1" x="0" y="0"><feFlood flood-color="#F4ECF7" result="flood"/><feComposite in="SourceGraphic" in2="flood" operator="over"/></filter><filter height="1" id="bwd6c2pl0nqwu4" width="1" x="0" y="0"><feFlood flood-color="#FEF9E7" result="flood"/><feComposite in="SourceGraphic" in2="flood" operator="over"/></filter><filter height="1" id="bwd6c2pl0nqwu5" width="1" x="0" y="0"><feFlood flood-color="#FADBD8" result="flood"/><feComposite in="SourceGraphic" in2="flood" operator="over"/></filter><filter height="1" id="bwd6c2pl0nqwu6" width="1" x="0" y="0"><feFlood flood-color="#FCF3CF" result="flood"/><feComposite in="SourceGraphic" in2="flood" operator="over"/></filter><filter height="1" id="bwd6c2pl0nqwu7" width="1" x="0" y="0"><feFlood flood-color="#D6EAF8" result="flood"/><feComposite in="SourceGraphic" in2="flood" operator="over"/></filter><filter height="1" id="bwd6c2pl0nqwu8" width="1" x="0" y="0"><feFlood flood-color="#D4EFDF" result="flood"/><feComposite in="SourceGraphic" in2="flood" operator="over"/></filter><filter height="1" id="bwd6c2pl0nqwu9" width="1" x="0" y="0"><feFlood flood-color="#F5EEF8" result="flood"/><feComposite in="SourceGraphic" in2="flood" operator="over"/></filter></defs><g><!--cluster Atlas Frontend--><g id="cluster_Atlas Frontend"><rect fill="none" height="341" rx="4" ry="4" style="stroke:#999999;stroke-width:1.0;" width="310" x="943.0425" y="123"/><text fill="#000000" font-family="sans-serif" font-size="14" font-weight="bold" lengthAdjust="spacing" textLength="106" x="1045.0425" y="138.5352">Atlas Frontend</text></g><!--cluster API Layer--><g id="cluster_API Layer"><rect fill="none" height="227" rx="4" ry="4" style="stroke:#999999;stroke-width:1.0;" width="374" x="354.0425" y="368"/><text fill="#000000" font-family="sans-serif" font-size="14" font-weight="bold" lengthAdjust="spacing" textLength="67" x="507.5425" y="383.5352">API Layer</text></g><!--cluster Core Services--><g id="cluster_Core Services"><rect fill="none" height="96" rx="4" ry="4" style="stroke:#999999;stroke-width:1.0;" width="652" x="31.0425" y="630"/><text fill="#000000" font-family="sans-serif" font-size="14" font-weight="bold" lengthAdjust="spacing" textLength="96" x="309.0425" y="645.5352">Core Services</text></g><!--cluster Integration Layer--><g id="cluster_Integration Layer"><rect fill="none" height="227" rx="4" ry="4" style="stroke:#999999;stroke-width:1.0;" width="266" x="976.0425" y="499"/><text fill="#000000" font-family="sans-serif" font-size="14" font-weight="bold" lengthAdjust="spacing" textLength="123" x="1047.5425" y="514.5352">Integration Layer</text></g><!--cluster Data Layer--><g id="cluster_Data Layer"><rect fill="none" height="96" rx="4" ry="4" style="stroke:#999999;stroke-width:1.0;" width="465" x="293.0425" y="761"/><text fill="#000000" font-family="sans-serif" font-size="14" font-weight="bold" lengthAdjust="spacing" textLength="76" x="487.5425" y="776.5352">Data Layer</text></g><!--cluster External Services--><g id="cluster_External Services"><rect fill="none" height="96" rx="4" ry="4" style="stroke:#999999;stroke-width:1.0;" width="350" x="1089.0425" y="761"/><text fill="#000000" font-family="sans-serif" font-size="14" font-weight="bold" lengthAdjust="spacing" textLength="121" x="1203.5425" y="776.5352">External Services</text></g><!--entity user--><g id="elem_user"><ellipse cx="1015.0425" cy="12.5" fill="#F1F1F1" rx="8" ry="8" style="stroke:#181818;stroke-width:0.5;"/><path d="M1015.0425,20.5 L1015.0425,47.5 M1002.0425,28.5 L1028.0425,28.5 M1015.0425,47.5 L1002.0425,62.5 M1015.0425,47.5 L1028.0425,62.5 " fill="none" style="stroke:#181818;stroke-width:0.5;"/><text fill="#000000" font-family="sans-serif" font-size="14" lengthAdjust="spacing" textLength="31" x="999.5425" y="77.5352">User</text></g><!--entity web_ui--><g id="elem_web_ui"><rect fill="#E9F7EF" height="61.3965" rx="4" ry="4" style="stroke:#27AE60;stroke-width:2.0;" width="90" x="970.0425" y="150"/><text fill="#000000" font-family="Arial" font-size="12" font-style="italic" lengthAdjust="spacing" textLength="63" x="983.5425" y="171.2559">&#171;Frontend&#187;</text><text fill="#000000" font-family="Arial" font-size="12" lengthAdjust="spacing" textLength="70" x="980.0425" y="185.0547">Atlas Web UI</text><text fill="#000000" font-family="Arial" font-size="12" lengthAdjust="spacing" textLength="40" x="995.0425" y="198.8535">(React)</text></g><!--entity nextjs--><g id="elem_nextjs"><rect fill="#E9F7EF" height="61.3965" rx="4" ry="4" style="stroke:#27AE60;stroke-width:2.0;" width="83" x="973.5425" y="264"/><text fill="#000000" font-family="Arial" font-size="12" font-style="italic" lengthAdjust="spacing" textLength="63" x="983.5425" y="285.2559">&#171;Frontend&#187;</text><text fill="#000000" font-family="Arial" font-size="12" lengthAdjust="spacing" textLength="62" x="984.0425" y="299.0547">Next.js App</text><text fill="#000000" font-family="Arial" font-size="12" lengthAdjust="spacing" textLength="50" x="990.0425" y="312.8535">(Node.js)</text></g><!--entity auth--><g id="elem_auth"><rect fill="#F9EBEA" height="61.3965" rx="4" ry="4" style="stroke:#E74C3C;stroke-width:2.0;" width="142" x="1103.0425" y="395"/><text fill="#000000" font-family="Arial" font-size="12" font-style="italic" lengthAdjust="spacing" textLength="39" x="1154.5425" y="416.2559">&#171;Auth&#187;</text><text fill="#000000" font-family="Arial" font-size="12" lengthAdjust="spacing" textLength="122" x="1113.0425" y="430.0547">Authentication Module</text><text fill="#000000" font-family="Arial" font-size="12" lengthAdjust="spacing" textLength="58" x="1145.0425" y="443.8535">(NextAuth)</text></g><!--entity viz--><g id="elem_viz"><rect fill="#E9F7EF" height="61.3965" rx="4" ry="4" style="stroke:#27AE60;stroke-width:2.0;" width="134" x="951.0425" y="395"/><text fill="#000000" font-family="Arial" font-size="12" font-style="italic" lengthAdjust="spacing" textLength="63" x="986.5425" y="416.2559">&#171;Frontend&#187;</text><text fill="#000000" font-family="Arial" font-size="12" lengthAdjust="spacing" textLength="114" x="961.0425" y="430.0547">Results Visualization</text><text fill="#000000" font-family="Arial" font-size="12" lengthAdjust="spacing" textLength="40" x="998.0425" y="443.8535">(React)</text></g><!--entity api_gw--><g id="elem_api_gw"><rect fill="#EBF5FB" height="61.3965" rx="4" ry="4" style="stroke:#3498DB;stroke-width:2.0;" width="90" x="529.0425" y="395"/><text fill="#000000" font-family="Arial" font-size="12" font-style="italic" lengthAdjust="spacing" textLength="33" x="557.5425" y="416.2559">&#171;API&#187;</text><text fill="#000000" font-family="Arial" font-size="12" lengthAdjust="spacing" textLength="70" x="539.0425" y="430.0547">API Gateway</text><text fill="#000000" font-family="Arial" font-size="12" lengthAdjust="spacing" textLength="24" x="562.0425" y="443.8535">(Go)</text></g><!--entity go_backend--><g id="elem_go_backend"><rect fill="#EBF5FB" height="61.3965" rx="4" ry="4" style="stroke:#3498DB;stroke-width:2.0;" width="109" x="362.5425" y="526"/><text fill="#000000" font-family="Arial" font-size="12" font-style="italic" lengthAdjust="spacing" textLength="33" x="400.5425" y="547.2559">&#171;API&#187;</text><text fill="#000000" font-family="Arial" font-size="12" lengthAdjust="spacing" textLength="89" x="372.5425" y="561.0547">Go Backend API</text><text fill="#000000" font-family="Arial" font-size="12" lengthAdjust="spacing" textLength="24" x="405.0425" y="574.8535">(Go)</text></g><!--entity websocket--><g id="elem_websocket"><rect fill="#EBF5FB" height="61.3965" rx="4" ry="4" style="stroke:#3498DB;stroke-width:2.0;" width="126" x="490.0425" y="526"/><text fill="#000000" font-family="Arial" font-size="12" font-style="italic" lengthAdjust="spacing" textLength="33" x="536.5425" y="547.2559">&#171;API&#187;</text><text fill="#000000" font-family="Arial" font-size="12" lengthAdjust="spacing" textLength="106" x="500.0425" y="561.0547">WebSocket Service</text><text fill="#000000" font-family="Arial" font-size="12" lengthAdjust="spacing" textLength="24" x="541.0425" y="574.8535">(Go)</text></g><!--entity rate_limiter--><g id="elem_rate_limiter"><rect fill="#EBF5FB" height="61.3965" rx="4" ry="4" style="stroke:#3498DB;stroke-width:2.0;" width="86" x="634.0425" y="526"/><text fill="#000000" font-family="Arial" font-size="12" font-style="italic" lengthAdjust="spacing" textLength="33" x="660.5425" y="547.2559">&#171;API&#187;</text><text fill="#000000" font-family="Arial" font-size="12" lengthAdjust="spacing" textLength="66" x="644.0425" y="561.0547">Rate Limiter</text><text fill="#000000" font-family="Arial" font-size="12" lengthAdjust="spacing" textLength="24" x="665.0425" y="574.8535">(Go)</text></g><!--entity eval_manager--><g id="elem_eval_manager"><rect fill="#EBF5FB" height="61.3965" rx="4" ry="4" style="stroke:#3498DB;stroke-width:2.0;" width="130" x="407.0425" y="657"/><text fill="#000000" font-family="Arial" font-size="12" font-style="italic" lengthAdjust="spacing" textLength="33" x="455.5425" y="678.2559">&#171;API&#187;</text><text fill="#000000" font-family="Arial" font-size="12" lengthAdjust="spacing" textLength="110" x="417.0425" y="692.0547">Evaluation Manager</text><text fill="#000000" font-family="Arial" font-size="12" lengthAdjust="spacing" textLength="24" x="460.0425" y="705.8535">(Go)</text></g><!--entity model_registry--><g id="elem_model_registry"><rect fill="#EBF5FB" height="61.3965" rx="4" ry="4" style="stroke:#3498DB;stroke-width:2.0;" width="102" x="39.0425" y="657"/><text fill="#000000" font-family="Arial" font-size="12" font-style="italic" lengthAdjust="spacing" textLength="33" x="73.5425" y="678.2559">&#171;API&#187;</text><text fill="#000000" font-family="Arial" font-size="12" lengthAdjust="spacing" textLength="82" x="49.0425" y="692.0547">Model Registry</text><text fill="#000000" font-family="Arial" font-size="12" lengthAdjust="spacing" textLength="24" x="78.0425" y="705.8535">(Go)</text></g><!--entity dataset_manager--><g id="elem_dataset_manager"><rect fill="#EBF5FB" height="61.3965" rx="4" ry="4" style="stroke:#3498DB;stroke-width:2.0;" width="114" x="275.0425" y="657"/><text fill="#000000" font-family="Arial" font-size="12" font-style="italic" lengthAdjust="spacing" textLength="33" x="315.5425" y="678.2559">&#171;API&#187;</text><text fill="#000000" font-family="Arial" font-size="12" lengthAdjust="spacing" textLength="94" x="285.0425" y="692.0547">Dataset Manager</text><text fill="#000000" font-family="Arial" font-size="12" lengthAdjust="spacing" textLength="24" x="320.0425" y="705.8535">(Go)</text></g><!--entity user_manager--><g id="elem_user_manager"><rect fill="#EBF5FB" height="61.3965" rx="4" ry="4" style="stroke:#3498DB;stroke-width:2.0;" width="98" x="159.0425" y="657"/><text fill="#000000" font-family="Arial" font-size="12" font-style="italic" lengthAdjust="spacing" textLength="33" x="191.5425" y="678.2559">&#171;API&#187;</text><text fill="#000000" font-family="Arial" font-size="12" lengthAdjust="spacing" textLength="78" x="169.0425" y="692.0547">User Manager</text><text fill="#000000" font-family="Arial" font-size="12" lengthAdjust="spacing" textLength="24" x="196.0425" y="705.8535">(Go)</text></g><!--entity results_processor--><g id="elem_results_processor"><rect fill="#EBF5FB" height="61.3965" rx="4" ry="4" style="stroke:#3498DB;stroke-width:2.0;" width="119" x="555.5425" y="657"/><text fill="#000000" font-family="Arial" font-size="12" font-style="italic" lengthAdjust="spacing" textLength="33" x="598.5425" y="678.2559">&#171;API&#187;</text><text fill="#000000" font-family="Arial" font-size="12" lengthAdjust="spacing" textLength="99" x="565.5425" y="692.0547">Results Processor</text><text fill="#000000" font-family="Arial" font-size="12" lengthAdjust="spacing" textLength="24" x="603.0425" y="705.8535">(Go)</text></g><!--entity worker--><g id="elem_worker"><rect fill="#D4EFDF" height="61.3965" rx="4" ry="4" style="stroke:#196F3D;stroke-width:2.0;" width="120" x="984.0425" y="526"/><text fill="#000000" font-family="Arial" font-size="12" font-style="italic" lengthAdjust="spacing" textLength="66" x="1011.0425" y="547.2559">&#171;Evaluator&#187;</text><text fill="#000000" font-family="Arial" font-size="12" lengthAdjust="spacing" textLength="100" x="994.0425" y="561.0547">Evaluation Worker</text><text fill="#000000" font-family="Arial" font-size="12" lengthAdjust="spacing" textLength="24" x="1032.0425" y="574.8535">(Go)</text></g><!--entity contract_client--><g id="elem_contract_client"><rect fill="#FADBD8" height="61.3965" rx="4" ry="4" style="stroke:#943126;stroke-width:2.0;" width="136" x="1098.0425" y="657"/><text fill="#000000" font-family="Arial" font-size="12" font-style="italic" lengthAdjust="spacing" textLength="60" x="1136.0425" y="678.2559">&#171;Contract&#187;</text><text fill="#000000" font-family="Arial" font-size="12" lengthAdjust="spacing" textLength="116" x="1108.0425" y="692.0547">Smart Contract Client</text><text fill="#000000" font-family="Arial" font-size="12" lengthAdjust="spacing" textLength="24" x="1154.0425" y="705.8535">(Go)</text></g><!--entity metrics--><g id="elem_metrics"><rect fill="#D4EFDF" height="61.3965" rx="4" ry="4" style="stroke:#196F3D;stroke-width:2.0;" width="111" x="1122.5425" y="526"/><text fill="#000000" font-family="Arial" font-size="12" font-style="italic" lengthAdjust="spacing" textLength="66" x="1145.0425" y="547.2559">&#171;Evaluator&#187;</text><text fill="#000000" font-family="Arial" font-size="12" lengthAdjust="spacing" textLength="91" x="1132.5425" y="561.0547">Metrics Collector</text><text fill="#000000" font-family="Arial" font-size="12" lengthAdjust="spacing" textLength="24" x="1166.0425" y="574.8535">(Go)</text></g><!--entity mongodb--><g id="elem_mongodb"><rect fill="#F4ECF7" height="61.3965" rx="4" ry="4" style="stroke:#8E44AD;stroke-width:2.0;" width="87" x="301.5425" y="788"/><text fill="#000000" font-family="Arial" font-size="12" font-style="italic" lengthAdjust="spacing" textLength="67" x="311.5425" y="809.2559">&#171;Database&#187;</text><text fill="#000000" font-family="Arial" font-size="12" lengthAdjust="spacing" textLength="55" x="317.5425" y="823.0547">MongoDB</text><text fill="#000000" font-family="Arial" font-size="12" lengthAdjust="spacing" textLength="48" x="321.0425" y="836.8535">(NoSQL)</text></g><!--entity mariadb--><g id="elem_mariadb"><rect fill="#F4ECF7" height="61.3965" rx="4" ry="4" style="stroke:#8E44AD;stroke-width:2.0;" width="87" x="662.5425" y="788"/><text fill="#000000" font-family="Arial" font-size="12" font-style="italic" lengthAdjust="spacing" textLength="67" x="672.5425" y="809.2559">&#171;Database&#187;</text><text fill="#000000" font-family="Arial" font-size="12" lengthAdjust="spacing" textLength="48" x="682.0425" y="823.0547">MariaDB</text><text fill="#000000" font-family="Arial" font-size="12" lengthAdjust="spacing" textLength="32" x="690.0425" y="836.8535">(SQL)</text></g><!--entity s3--><g id="elem_s3"><rect fill="#F5EEF8" height="61.3965" rx="4" ry="4" style="stroke:#76448A;stroke-width:2.0;" width="109" x="406.5425" y="788"/><text fill="#000000" font-family="Arial" font-size="12" font-style="italic" lengthAdjust="spacing" textLength="57" x="432.5425" y="809.2559">&#171;Storage&#187;</text><text fill="#000000" font-family="Arial" font-size="12" lengthAdjust="spacing" textLength="45" x="438.5425" y="823.0547">AWS S3</text><text fill="#000000" font-family="Arial" font-size="12" lengthAdjust="spacing" textLength="89" x="416.5425" y="836.8535">(Object Storage)</text></g><!--entity queue--><g id="elem_queue"><rect fill="#FCF3CF" height="61.3965" rx="4" ry="4" style="stroke:#B7950B;stroke-width:2.0;" width="110" x="534.0425" y="788"/><text fill="#000000" font-family="Arial" font-size="12" font-style="italic" lengthAdjust="spacing" textLength="51" x="563.5425" y="809.2559">&#171;Queue&#187;</text><text fill="#000000" font-family="Arial" font-size="12" lengthAdjust="spacing" textLength="90" x="544.0425" y="823.0547">Message Queue</text><text fill="#000000" font-family="Arial" font-size="12" lengthAdjust="spacing" textLength="39" x="569.5425" y="836.8535">(Kafka)</text></g><!--entity cognito--><g id="elem_cognito"><rect fill="#F9EBEA" height="61.3965" rx="4" ry="4" style="stroke:#E74C3C;stroke-width:2.0;" width="93" x="1337.5425" y="788"/><text fill="#000000" font-family="Arial" font-size="12" font-style="italic" lengthAdjust="spacing" textLength="39" x="1364.5425" y="809.2559">&#171;Auth&#187;</text><text fill="#000000" font-family="Arial" font-size="12" lengthAdjust="spacing" textLength="73" x="1347.5425" y="823.0547">AWS Cognito</text><text fill="#000000" font-family="Arial" font-size="12" lengthAdjust="spacing" textLength="33" x="1367.5425" y="836.8535">(Auth)</text></g><!--entity avs--><g id="elem_avs"><rect fill="#D6EAF8" height="61.3965" rx="4" ry="4" style="stroke:#2E86C1;stroke-width:2.0;" width="105" x="1097.5425" y="788"/><text fill="#000000" font-family="Arial" font-size="12" font-style="italic" lengthAdjust="spacing" textLength="62" x="1119.0425" y="809.2559">&#171;Operator&#187;</text><text fill="#000000" font-family="Arial" font-size="12" lengthAdjust="spacing" textLength="85" x="1107.5425" y="823.0547">LayerLens AVS</text><text fill="#000000" font-family="Arial" font-size="12" lengthAdjust="spacing" textLength="49" x="1125.5425" y="836.8535">(Service)</text></g><!--entity llms--><g id="elem_llms"><rect fill="#FEF9E7" height="61.3965" rx="4" ry="4" style="stroke:#F1C40F;stroke-width:2.0;" width="99" x="1220.5425" y="788"/><text fill="#000000" font-family="Arial" font-size="12" font-style="italic" lengthAdjust="spacing" textLength="59" x="1240.5425" y="809.2559">&#171;External&#187;</text><text fill="#000000" font-family="Arial" font-size="12" lengthAdjust="spacing" textLength="79" x="1230.5425" y="823.0547">LLM Providers</text><text fill="#000000" font-family="Arial" font-size="12" lengthAdjust="spacing" textLength="27" x="1256.5425" y="836.8535">(API)</text></g><polygon fill="#000000" points="1015.0425,149.5867,1019.0425,140.5867,1015.0425,144.5867,1011.0425,140.5867,1015.0425,149.5867" style="stroke:#000000;stroke-width:1.0;"/><path d="M1015.0425,80.2992 C1015.0425,102.0855 1015.0425,123.21 1015.0425,143.5867 " fill="none" style="stroke:#000000;stroke-width:1.3;"/><text fill="#000000" font-family="sans-serif" font-size="13" lengthAdjust="spacing" textLength="30" x="1016.0425" y="111.5684">Uses</text><polygon fill="#000000" points="1015.0425,263.6412,1019.0425,254.6412,1015.0425,258.6412,1011.0425,254.6412,1015.0425,263.6412" style="stroke:#000000;stroke-width:1.0;"/><path d="M1015.0425,211.2199 C1015.0425,227.4213 1015.0425,241.4182 1015.0425,257.6412 " fill="none" style="stroke:#000000;stroke-width:1.3;"/><text fill="#000000" font-family="sans-serif" font-size="13" lengthAdjust="spacing" textLength="104" x="1016.0425" y="242.5684">Renders through</text><polygon fill="#000000" points="1152.3049,394.6108,1149.8808,385.0649,1149.2121,390.6821,1143.5949,390.0134,1152.3049,394.6108" style="stroke:#000000;stroke-width:1.0;"/><path d="M1056.8038,314.1519 C1072.1035,321.9612 1089.0767,331.8318 1103.0425,343 C1121.6551,357.8843 1135.5629,373.344 1148.5935,389.8964 " fill="none" style="stroke:#000000;stroke-width:1.3;"/><text fill="#000000" font-family="sans-serif" font-size="13" lengthAdjust="spacing" textLength="118" x="1122.0425" y="356.5684">Authenticates with</text><polygon fill="#000000" points="1017.0304,394.9615,1020.7409,385.8384,1016.8707,389.9641,1012.745,386.0939,1017.0304,394.9615" style="stroke:#000000;stroke-width:1.0;"/><path d="M1015.4044,325.0429 C1015.5642,336.0206 1015.7769,348.5798 1016.0425,360 C1016.3081,371.4243 1016.488,377.9874 1016.8388,388.9646 " fill="none" style="stroke:#000000;stroke-width:1.3;"/><text fill="#000000" font-family="sans-serif" font-size="13" lengthAdjust="spacing" textLength="85" x="1017.0425" y="356.5684">Displays with</text><polygon fill="#000000" points="619.2478,411.2767,629.0088,412.589,624.0467,409.8729,626.7628,404.9108,619.2478,411.2767" style="stroke:#000000;stroke-width:1.0;"/><path d="M973.1567,307.7523 C890.0584,332.06 710.7433,384.5127 625.0065,409.5922 " fill="none" style="stroke:#000000;stroke-width:1.3;"/><text fill="#000000" font-family="sans-serif" font-size="13" lengthAdjust="spacing" textLength="115" x="848.0425" y="356.5684">Makes requests to</text><polygon fill="#000000" points="1375.4774,787.907,1376.6827,778.1322,1374.0211,783.1238,1369.0295,780.4622,1375.4774,787.907" style="stroke:#000000;stroke-width:1.0;"/><path d="M1208.2561,456.0474 C1221.2097,468.4153 1235.3856,483.508 1246.0425,499 C1312.4713,595.5685 1355.8716,723.5104 1373.7299,782.1671 " fill="none" style="stroke:#000000;stroke-width:1.3;"/><text fill="#000000" font-family="sans-serif" font-size="13" lengthAdjust="spacing" textLength="78" x="1314.0425" y="618.5684">Verifies with</text><polygon fill="#000000" points="425.2785,525.8454,432.0591,518.7024,426.9514,521.1335,424.5202,516.0258,425.2785,525.8454" style="stroke:#000000;stroke-width:1.0;"/><path d="M528.7824,436.2465 C504.778,443.3438 476.1728,455.1114 456.0425,474 C441.1721,487.9531 433.3548,503.0976 427.2859,520.1912 " fill="none" style="stroke:#000000;stroke-width:1.3;"/><text fill="#000000" font-family="sans-serif" font-size="13" lengthAdjust="spacing" textLength="60" x="457.0425" y="487.5684">Routes to</text><polygon fill="#000000" points="532.2099,525.7026,531.5339,515.877,529.8704,521.2838,524.4636,519.6203,532.2099,525.7026" style="stroke:#000000;stroke-width:1.0;"/><path d="M536.4922,456.158 C531.8394,461.5698 527.7676,467.5628 525.0425,474 C517.9267,490.8083 521.1448,504.8032 529.4025,520.4 " fill="none" style="stroke:#000000;stroke-width:1.3;"/><text fill="#000000" font-family="sans-serif" font-size="13" lengthAdjust="spacing" textLength="76" x="526.0425" y="487.5684">Connects to</text><polygon fill="#000000" points="653.1655,525.5958,650.6757,516.0668,650.0457,521.6885,644.424,521.0585,653.1655,525.5958" style="stroke:#000000;stroke-width:1.0;"/><path d="M597.6728,456.0952 C614.3027,476.9231 632.7372,500.0109 649.4217,520.907 " fill="none" style="stroke:#000000;stroke-width:1.3;"/><text fill="#000000" font-family="sans-serif" font-size="13" lengthAdjust="spacing" textLength="93" x="627.0425" y="487.5684">Limits through</text><polygon fill="#000000" points="459.2926,656.5958,459.4424,646.7481,457.3316,651.9964,452.0833,649.8856,459.2926,656.5958" style="stroke:#000000;stroke-width:1.0;"/><path d="M429.6606,587.0952 C438.5407,607.9231 448.0302,630.1804 456.9394,651.0765 " fill="none" style="stroke:#000000;stroke-width:1.3;"/><text fill="#000000" font-family="sans-serif" font-size="13" lengthAdjust="spacing" textLength="30" x="446.0425" y="618.5684">Uses</text><polygon fill="#000000" points="115.8201,656.9132,125.0259,653.4128,119.3691,653.3912,119.3907,647.7344,115.8201,656.9132" style="stroke:#000000;stroke-width:1.0;"/><path d="M362.427,564.3562 C306.2795,573.1754 217.7341,592.1136 150.0425,630 C137.5569,636.9881 129.9292,642.9116 120.0789,652.6868 " fill="none" style="stroke:#000000;stroke-width:1.3;"/><text fill="#000000" font-family="sans-serif" font-size="13" lengthAdjust="spacing" textLength="30" x="199.0425" y="618.5684">Uses</text><polygon fill="#000000" points="351.7468,656.5958,360.0388,651.2814,354.4979,652.4207,353.3586,646.8797,351.7468,656.5958" style="stroke:#000000;stroke-width:1.0;"/><path d="M397.5418,587.0952 C383.818,607.9231 368.8168,630.6895 355.0481,651.5856 " fill="none" style="stroke:#000000;stroke-width:1.3;"/><text fill="#000000" font-family="sans-serif" font-size="13" lengthAdjust="spacing" textLength="30" x="386.0425" y="618.5684">Uses</text><polygon fill="#000000" points="234.7282,656.9361,243.9212,653.4023,238.2644,653.4013,238.2654,647.7444,234.7282,656.9361" style="stroke:#000000;stroke-width:1.0;"/><path d="M362.295,578.6664 C332.5374,591.4037 295.8378,609.1771 266.0425,630 C254.9809,637.7305 248.3027,643.3666 238.9716,652.6943 " fill="none" style="stroke:#000000;stroke-width:1.3;"/><text fill="#000000" font-family="sans-serif" font-size="13" lengthAdjust="spacing" textLength="30" x="307.0425" y="618.5684">Uses</text><polygon fill="#000000" points="581.6478,656.9869,577.2739,648.1626,577.7992,653.795,572.1668,654.3203,581.6478,656.9869" style="stroke:#000000;stroke-width:1.0;"/><path d="M467.2523,587.1498 C471.9019,589.8259 476.5518,592.4764 481.0425,595 C509.6461,611.0741 518.7793,611.7445 546.0425,630 C558.1356,638.0976 566.0326,644.0359 577.0295,653.1566 " fill="none" style="stroke:#000000;stroke-width:1.3;"/><text fill="#000000" font-family="sans-serif" font-size="13" lengthAdjust="spacing" textLength="30" x="534.0425" y="618.5684">Uses</text><polygon fill="#000000" points="371.7107,787.8715,380.7446,783.9486,375.0929,784.1889,374.8525,778.5372,371.7107,787.8715" style="stroke:#000000;stroke-width:1.0;"/><path d="M440.6276,718.0821 C427.0464,731.0716 411.0815,746.6126 397.0425,761 C388.6632,769.5872 383.8072,774.7006 375.7693,783.4524 " fill="none" style="stroke:#000000;stroke-width:1.3;"/><text fill="#000000" font-family="sans-serif" font-size="13" lengthAdjust="spacing" textLength="86" x="423.0425" y="749.5684">Stores data in</text><polygon fill="#000000" points="301.225,815.7066,292.4508,811.2329,296.2321,815.4402,292.0247,819.2215,301.225,815.7066" style="stroke:#000000;stroke-width:1.0;"/><path d="M38.903,708.0558 C15.9077,719.7741 -3.215,735.7258 11.0425,753 C47.3667,797.01 213.1876,811.0109 295.2335,815.387 " fill="none" style="stroke:#000000;stroke-width:1.3;"/><text fill="#000000" font-family="sans-serif" font-size="13" lengthAdjust="spacing" textLength="86" x="12.0425" y="749.5684">Stores data in</text><polygon fill="#000000" points="301.2068,810.8371,293.319,804.9393,296.3315,809.7273,291.5435,812.7398,301.2068,810.8371" style="stroke:#000000;stroke-width:1.0;"/><path d="M284.7022,718.0629 C278.5766,721.0863 272.2662,723.8357 266.0425,726 C252.2389,730.8002 210.5584,724.9082 201.0425,736 C196.1228,741.7344 196.9345,746.6588 201.0425,753 C223.0107,786.9112 261.6179,801.8257 295.3564,809.5054 " fill="none" style="stroke:#000000;stroke-width:1.3;"/><text fill="#000000" font-family="sans-serif" font-size="13" lengthAdjust="spacing" textLength="86" x="202.0425" y="749.5684">Stores data in</text><polygon fill="#000000" points="301.353,812.0502,292.9985,806.8346,296.4018,811.3532,291.8833,814.7565,301.353,812.0502" style="stroke:#000000;stroke-width:1.0;"/><path d="M165.8997,718.114 C160.7007,721.0506 155.3466,723.7655 150.0425,726 C131.5612,733.7857 118.5533,720.3267 106.0425,736 C101.3289,741.905 101.4483,747.0016 106.0425,753 C129.6597,783.8358 233.13,802.4457 295.4116,811.2138 " fill="none" style="stroke:#000000;stroke-width:1.3;"/><text fill="#000000" font-family="sans-serif" font-size="13" lengthAdjust="spacing" textLength="86" x="107.0425" y="749.5684">Stores data in</text><polygon fill="#000000" points="732.188,787.7102,740.5373,782.4863,734.9843,783.5652,733.9054,778.0122,732.188,787.7102" style="stroke:#000000;stroke-width:1.0;"/><path d="M674.8609,696.2771 C699.2776,702.7244 725.2132,714.501 740.0425,736 C750.9237,751.7752 746.4281,766.6021 735.5435,782.7362 " fill="none" style="stroke:#000000;stroke-width:1.3;"/><text fill="#000000" font-family="sans-serif" font-size="13" lengthAdjust="spacing" textLength="106" x="747.0425" y="749.5684">Stores metrics in</text><polygon fill="#000000" points="561.9201,787.5958,558.8366,778.2421,558.561,783.8922,552.9108,783.6166,561.9201,787.5958" style="stroke:#000000;stroke-width:1.0;"/><path d="M498.8846,718.0952 C517.775,738.9231 538.9369,762.2553 557.8892,783.1515 " fill="none" style="stroke:#000000;stroke-width:1.3;"/><text fill="#000000" font-family="sans-serif" font-size="13" lengthAdjust="spacing" textLength="77" x="532.0425" y="749.5684">Publishes to</text><polygon fill="#000000" points="983.8536,575.3988,974.0148,574.9548,979.1977,577.2215,976.931,582.4044,983.8536,575.3988" style="stroke:#000000;stroke-width:1.0;"/><path d="M614.4969,787.7596 C625.2343,777.3337 638.5966,766.7886 653.0425,761 C674.202,752.5211 839.8136,766.6866 858.0425,753 C904.1233,718.4016 861.2873,673.5321 899.0425,630 C921.2634,604.379 949.1047,589.0018 978.2665,577.586 " fill="none" style="stroke:#000000;stroke-width:1.3;"/><text fill="#000000" font-family="sans-serif" font-size="13" lengthAdjust="spacing" textLength="100" x="900.0425" y="692.5684">Consumes from</text><polygon fill="#000000" points="1137.761,656.5958,1134.4831,647.3084,1134.3254,652.9631,1128.6707,652.8054,1137.761,656.5958" style="stroke:#000000;stroke-width:1.0;"/><path d="M1072.0317,587.0952 C1091.7294,607.9231 1113.876,631.3404 1133.6383,652.2365 " fill="none" style="stroke:#000000;stroke-width:1.3;"/><text fill="#000000" font-family="sans-serif" font-size="13" lengthAdjust="spacing" textLength="31" x="1106.0425" y="618.5684">Calls</text><polygon fill="#000000" points="664.1592,656.8712,673.9634,655.9346,668.5144,654.4152,670.0338,648.9662,664.1592,656.8712" style="stroke:#000000;stroke-width:1.0;"/><path d="M983.9886,563.0533 C928.8417,569.3374 845.4079,581.8581 776.0425,605 C736.8142,618.0874 700.4615,636.3996 669.3854,653.924 " fill="none" style="stroke:#000000;stroke-width:1.3;"/><text fill="#000000" font-family="sans-serif" font-size="13" lengthAdjust="spacing" textLength="93" x="777.0425" y="618.5684">Processes with</text><polygon fill="#000000" points="1153.7515,787.5958,1158.8289,779.1566,1154.367,782.6338,1150.8897,778.1719,1153.7515,787.5958" style="stroke:#000000;stroke-width:1.0;"/><path d="M1162.3718,718.0952 C1159.7885,738.9231 1157.0818,760.7453 1154.4901,781.6414 " fill="none" style="stroke:#000000;stroke-width:1.3;"/><text fill="#000000" font-family="sans-serif" font-size="13" lengthAdjust="spacing" textLength="86" x="1161.0425" y="749.5684">Interacts with</text><polygon fill="#000000" points="1270.961,787.74,1274.972,778.7449,1270.9671,782.74,1266.972,778.7351,1270.961,787.74" style="stroke:#000000;stroke-width:1.0;"/><path d="M1212.0469,587.3299 C1223.7125,599.4065 1235.6739,614.224 1243.0425,630 C1267.1898,681.6991 1271.0153,743.4449 1270.9684,781.74 " fill="none" style="stroke:#000000;stroke-width:1.3;"/><text fill="#000000" font-family="sans-serif" font-size="13" lengthAdjust="spacing" textLength="31" x="1269.0425" y="692.5684">Calls</text><polygon fill="#000000" points="749.6575,816.0917,758.9125,819.4599,754.6456,815.746,758.3595,811.4791,749.6575,816.0917" style="stroke:#000000;stroke-width:1.0;"/><path d="M1128.4284,587.1709 C1123.2898,589.9273 1118.0984,592.5874 1113.0425,595 C1077.6486,611.8893 1058.1442,600.731 1032.0425,630 C1002.2009,663.4627 1032.9295,694.4803 1001.0425,726 C932.1122,794.1362 819.4432,811.2558 755.6432,815.6769 " fill="none" style="stroke:#000000;stroke-width:1.3;"/><text fill="#000000" font-family="sans-serif" font-size="13" lengthAdjust="spacing" textLength="55" x="1033.0425" y="692.5684">Stores in</text><polygon fill="#000000" points="435.1051,787.8825,431.3822,778.7644,431.4979,784.4201,425.8423,784.5358,435.1051,787.8825" style="stroke:#000000;stroke-width:1.0;"/><path d="M312.1223,718.2374 C306.6968,730.2546 304.4037,743.4993 313.0425,753 C325.6573,766.8734 379.8387,753.5412 397.0425,761 C411.1848,767.1315 420.0704,773.4509 430.7765,783.7276 " fill="none" style="stroke:#000000;stroke-width:1.3;"/><text fill="#000000" font-family="sans-serif" font-size="13" lengthAdjust="spacing" textLength="86" x="314.0425" y="749.5684">Stores files in</text><polygon fill="#000000" points="486.966,787.8504,496.2279,784.5012,490.5722,784.387,490.6864,778.7313,486.966,787.8504" style="stroke:#000000;stroke-width:1.0;"/><path d="M622.023,718.0959 C623.1048,730.3794 621.6464,743.8667 613.0425,753 C599.5779,767.2928 543.075,753.2278 525.0425,761 C510.8871,767.1011 501.9979,773.4136 491.2934,783.6943 " fill="none" style="stroke:#000000;stroke-width:1.3;"/><text fill="#000000" font-family="sans-serif" font-size="13" lengthAdjust="spacing" textLength="102" x="623.0425" y="749.5684">Stores results in</text><rect fill="none" height="195.3711" id="_legend" rx="4" ry="4" style="stroke:#CCCCCC;stroke-width:1.0;" width="311" x="1090" y="871"/><text fill="#000000" font-family="sans-serif" font-size="14" font-weight="bold" lengthAdjust="spacing" textLength="123" x="1100" y="891.5352">Component Type</text><text fill="#000000" font-family="sans-serif" font-size="14" font-weight="bold" lengthAdjust="spacing" textLength="83" x="1233" y="891.5352">Description</text><text fill="#000000" filter="url(#bwd6c2pl0nqwu0)" font-family="sans-serif" font-size="14" lengthAdjust="spacing" textLength="63" x="1095" y="908.0234">Frontend</text><text fill="#000000" font-family="sans-serif" font-size="14" lengthAdjust="spacing" textLength="142" x="1232" y="908.0234">Web/UI Components</text><text fill="#000000" filter="url(#bwd6c2pl0nqwu1)" font-family="sans-serif" font-size="14" lengthAdjust="spacing" textLength="22" x="1095" y="924.5117">API</text><text fill="#000000" font-family="sans-serif" font-size="14" lengthAdjust="spacing" textLength="116" x="1232" y="924.5117">Backend Services</text><text fill="#000000" filter="url(#bwd6c2pl0nqwu2)" font-family="sans-serif" font-size="14" lengthAdjust="spacing" textLength="33" x="1095" y="941">Auth</text><text fill="#000000" font-family="sans-serif" font-size="14" lengthAdjust="spacing" textLength="160" x="1232" y="941">Authentication Services</text><text fill="#000000" filter="url(#bwd6c2pl0nqwu3)" font-family="sans-serif" font-size="14" lengthAdjust="spacing" textLength="63" x="1095" y="957.4883">Database</text><text fill="#000000" font-family="sans-serif" font-size="14" lengthAdjust="spacing" textLength="88" x="1232" y="957.4883">Data Storage</text><text fill="#000000" filter="url(#bwd6c2pl0nqwu4)" font-family="sans-serif" font-size="14" lengthAdjust="spacing" textLength="57" x="1095" y="973.9766">External</text><text fill="#000000" font-family="sans-serif" font-size="14" lengthAdjust="spacing" textLength="121" x="1232" y="973.9766">3rd Party Services</text><text fill="#000000" filter="url(#bwd6c2pl0nqwu5)" font-family="sans-serif" font-size="14" lengthAdjust="spacing" textLength="59" x="1095" y="990.4648">Contract</text><text fill="#000000" font-family="sans-serif" font-size="14" lengthAdjust="spacing" textLength="110" x="1232" y="990.4648">Smart Contracts</text><text fill="#000000" filter="url(#bwd6c2pl0nqwu6)" font-family="sans-serif" font-size="14" lengthAdjust="spacing" textLength="45" x="1095" y="1006.9531">Queue</text><text fill="#000000" font-family="sans-serif" font-size="14" lengthAdjust="spacing" textLength="115" x="1232" y="1006.9531">Message Queues</text><text fill="#000000" filter="url(#bwd6c2pl0nqwu7)" font-family="sans-serif" font-size="14" lengthAdjust="spacing" textLength="62" x="1095" y="1023.4414">Operator</text><text fill="#000000" font-family="sans-serif" font-size="14" lengthAdjust="spacing" textLength="109" x="1232" y="1023.4414">Validator Nodes</text><text fill="#000000" filter="url(#bwd6c2pl0nqwu8)" font-family="sans-serif" font-size="14" lengthAdjust="spacing" textLength="64" x="1095" y="1039.9297">Evaluator</text><text fill="#000000" font-family="sans-serif" font-size="14" lengthAdjust="spacing" textLength="130" x="1232" y="1039.9297">Evaluation Services</text><text fill="#000000" filter="url(#bwd6c2pl0nqwu9)" font-family="sans-serif" font-size="14" lengthAdjust="spacing" textLength="53" x="1095" y="1056.418">Storage</text><text fill="#000000" font-family="sans-serif" font-size="14" lengthAdjust="spacing" textLength="112" x="1232" y="1056.418">Storage Services</text><line style="stroke:#000000;stroke-width:1.0;" x1="1095" x2="1396" y1="878" y2="878"/><line style="stroke:#000000;stroke-width:1.0;" x1="1095" x2="1396" y1="894.4883" y2="894.4883"/><line style="stroke:#000000;stroke-width:1.0;" x1="1095" x2="1396" y1="910.9766" y2="910.9766"/><line style="stroke:#000000;stroke-width:1.0;" x1="1095" x2="1396" y1="927.4648" y2="927.4648"/><line style="stroke:#000000;stroke-width:1.0;" x1="1095" x2="1396" y1="943.9531" y2="943.9531"/><line style="stroke:#000000;stroke-width:1.0;" x1="1095" x2="1396" y1="960.4414" y2="960.4414"/><line style="stroke:#000000;stroke-width:1.0;" x1="1095" x2="1396" y1="976.9297" y2="976.9297"/><line style="stroke:#000000;stroke-width:1.0;" x1="1095" x2="1396" y1="993.418" y2="993.418"/><line style="stroke:#000000;stroke-width:1.0;" x1="1095" x2="1396" y1="1009.9063" y2="1009.9063"/><line style="stroke:#000000;stroke-width:1.0;" x1="1095" x2="1396" y1="1026.3945" y2="1026.3945"/><line style="stroke:#000000;stroke-width:1.0;" x1="1095" x2="1396" y1="1042.8828" y2="1042.8828"/><line style="stroke:#000000;stroke-width:1.0;" x1="1095" x2="1396" y1="1059.3711" y2="1059.3711"/><line style="stroke:#000000;stroke-width:1.0;" x1="1095" x2="1095" y1="878" y2="1059.3711"/><line style="stroke:#000000;stroke-width:1.0;" x1="1228" x2="1228" y1="878" y2="1059.3711"/><line style="stroke:#000000;stroke-width:1.0;" x1="1396" x2="1396" y1="878" y2="1059.3711"/><!--SRC=[jLXDSzis4BtpLw3k8UqXYMN9NnfNCn95PZnr4iTAd4FRqK0aJAC62GK0xJXD_diN7xG0alAC3j71bh0FRx6BnSEIlwm5BagC67xajKAo90fNE8fUe3cveHL1MIqLBr766HSIAOvAhB9R9CcNcbGPGJd5XS2bZEGThTOOlWAsNFEALEhiB1MyKgJA9nFqNuJG36TtXU1rbSUQ3_sQdAR7IQejNEH4kD63usbojFyq-l6MPdSLaH8TH3-YVaVJo_EjFcRfOJfh-nYEJa_cizryrEfscvFqD9abqxQJv7WK3-ETdConmYiioLP7eoHEZzkEJfBHQ3hVoL7oLH5HORRLKG8nTHobWtYqd-xaA8OI43XJMnrDvxFvITlHwMWuE3ZQoT67cjJRynQdmxXJQRFZqyFztQhW_Pe8hBZOvcX-b4pJJZW7oSbHFDXjW-ungv_rD4hIUIUamUbHEjoj51RW11VRKtUO9Ds8Zez6evFfDZylK6o5Gwf7Hgl2SpmLWZyuadtpQHitN8DNGy-OanjSC_MHV5LJHekgXDMZ3FuGuQ6kxD95HGGwySOLLOoaK8mB-esWGRy9LalGYhFSiyPDfgnLa0mqic2aBvdjP0nU7VR1Diius6P-Xqi2wQ2OUOXBs1lOgUqBMLj0Um_X05OI4C3T0mxEdVbu84OA4F1kKPXF5-TpnURZRw0JjvyjSr-q4lm4GG0L0z3U9qd47i8IrV0bYbmQqTvKCHXixhmzu_SlE_YPhD2dyx-htwu8aFp-ZvxzG5RBcYB_bjGJta5vl_fNekbw3VXtF2Vmoywem0IMzWnzCS7EqWmhoYlqbkSr8tgkFYXWivCnV4FDBQQdNH49fqcYQofhpEWtCpjSuZtz5dhxuOTxUOukyAFEXOqKVh_1YZpWHs1vmvtRDLqM3yXTqHhtXflT0484OnwquCkLCtXmIDs2mwX22oBkQKQy6P12QMtUX2jO0xgW9GLTyB2WscJ9xF0Jt8y7D8CqFgIBoOcmIIiqHaN0IC2uBEsmlm3O0CBG5IceLCBFHQaDI-4C_XHz7YI4qNMIMqkV7rs7FJDqLVR1c_s-51m2b3n8ZhKjrusjDqFdK0RGxPbq-3llPUap5tV1QXxC00hkCprdKMAXKDCSe9XHA65lNkOioynOaDz8c2GJ9MWcWO4nei-bdsTd2vtwaUXy1o6yvLN1vpDpuXOVBfhzWi5yXNozCc0Ckcp06wWUwe5EFo_GOWZ8zwj_OPd8tRLsaXmYx_QrKKcf5sYa2sRzYM_ki0KRKKDFgXQ4qpHpxVBLtcDUL5Hn8DjeGMR70ZamsRWW5IZFzKA7PgdSARxNsTpqFcR2nLjTI_SKX59g-ijp2sQiDBb_wZ3rMdLLefSl9utiZH6KhupSBsrmwZQ6arDfIgHkGR2BsyWPDCQ8s1XvYaUWnAWAG5grncXEvHeUQxfcfqXZE3ftH9S-P5Og_N032g_vDQZ9q1XT4q5lQEF6JTOGJwx6kklGIm4E3x6Hfx6kz0eAe0q9L6biPMiJUUJvqEX0SLm6Mv2MnlI3sgBIZmg4f1_IrGs7YuAbseNPmpGsPu1OPKEqYbehVXRRNlYpu63zpoAxOHYuEzDFy4PNO4OtFdi-n-YoNZ4gRsqns45J2rO7JI78kWJpZU1bv8PjoOMA1r3CcFGXVUbsSjuKQ9l5LFozFbPQlRN50PjWDC2SsCQVR-YaG8VUjmaWPK-O6yeiiZ-jFjGX3EqBDCrp-wRXPSPpU6fmJMLa_o51Yri5olFzZqrFZZu-heaUcHEP2Resbz1t3JhJTJfshnWcPuPtl68mE6aQchFNPdHozbfZ9zzrc_Rwq_c6NOPKvar2I0MYrs5fkfj6Z0CI-wQWHGAgqs5fTNNzPAPD3icQ-wT3QEuyTzk4BEPHFsHfnBl3CXGvF8O8zRXbHUPfFkHgBkuELzW3j8XCVnuIcQklmnBScI69VHWFIPfBhCDp3KrmhYr8Dzqj8lEitKfHqrjqcBn-g3z9veawP7CRqysHsp2F26hB7Op_0G00]--></g></svg>