<?xml version="1.0" encoding="us-ascii" standalone="no"?><svg xmlns="http://www.w3.org/2000/svg" xmlns:xlink="http://www.w3.org/1999/xlink" contentStyleType="text/css" height="700px" preserveAspectRatio="none" style="width:829px;height:700px;background:#FFFFFF;" version="1.1" viewBox="0 0 829 700" width="829px" zoomAndPan="magnify"><defs/><g><text fill="#000000" font-family="Arial" font-size="14" font-weight="bold" lengthAdjust="spacing" textLength="174" x="326.75" y="28.1318">User Authentication Flow</text><rect fill="#FFFFFF" height="144.7437" style="stroke:#181818;stroke-width:1.0;" width="10" x="201" y="184.0947"/><rect fill="#FFFFFF" height="244.5898" style="stroke:#181818;stroke-width:1.0;" width="10" x="201" y="357.7871"/><rect fill="#FFFFFF" height="186.6924" style="stroke:#181818;stroke-width:1.0;" width="10" x="472.5" y="386.7358"/><rect fill="#FFFFFF" height="28.9487" style="stroke:#181818;stroke-width:1.0;" width="10" x="684.5" y="241.9922"/><line style="stroke:#181818;stroke-width:0.5;stroke-dasharray:5.0,5.0;" x1="30" x2="30" y1="118.1973" y2="620.377"/><line style="stroke:#181818;stroke-width:0.5;stroke-dasharray:5.0,5.0;" x1="205.5" x2="205.5" y1="118.1973" y2="620.377"/><line style="stroke:#181818;stroke-width:0.5;stroke-dasharray:5.0,5.0;" x1="394" x2="394" y1="118.1973" y2="620.377"/><line style="stroke:#181818;stroke-width:0.5;stroke-dasharray:5.0,5.0;" x1="477" x2="477" y1="118.1973" y2="620.377"/><line style="stroke:#181818;stroke-width:0.5;stroke-dasharray:5.0,5.0;" x1="689.5" x2="689.5" y1="118.1973" y2="620.377"/><line style="stroke:#181818;stroke-width:0.5;stroke-dasharray:5.0,5.0;" x1="785.5" x2="785.5" y1="118.1973" y2="620.377"/><text fill="#000000" font-family="Arial" font-size="14" lengthAdjust="spacing" textLength="30" x="12" y="115.2305">User</text><ellipse cx="30" cy="50.5986" fill="#E3E3E3" rx="8" ry="8" style="stroke:#181818;stroke-width:0.5;"/><path d="M30,58.5986 L30,85.5986 M17,66.5986 L43,66.5986 M30,85.5986 L17,100.5986 M30,85.5986 L43,100.5986 " fill="none" style="stroke:#181818;stroke-width:0.5;"/><text fill="#000000" font-family="Arial" font-size="14" lengthAdjust="spacing" textLength="30" x="12" y="632.5088">User</text><ellipse cx="30" cy="643.9756" fill="#E3E3E3" rx="8" ry="8" style="stroke:#181818;stroke-width:0.5;"/><path d="M30,651.9756 L30,678.9756 M17,659.9756 L43,659.9756 M30,678.9756 L17,693.9756 M30,678.9756 L43,693.9756 " fill="none" style="stroke:#181818;stroke-width:0.5;"/><rect fill="#E3E3E3" height="30.0986" rx="2.5" ry="2.5" style="stroke:#181818;stroke-width:0.5;" width="107" x="152.5" y="87.0986"/><text fill="#000000" font-family="Arial" font-size="14" lengthAdjust="spacing" textLength="93" x="159.5" y="107.2305">Atlas Frontend</text><rect fill="#E3E3E3" height="30.0986" rx="2.5" ry="2.5" style="stroke:#181818;stroke-width:0.5;" width="107" x="152.5" y="619.377"/><text fill="#000000" font-family="Arial" font-size="14" lengthAdjust="spacing" textLength="93" x="159.5" y="639.5088">Atlas Frontend</text><rect fill="#E3E3E3" height="30.0986" rx="2.5" ry="2.5" style="stroke:#181818;stroke-width:0.5;" width="76" x="356" y="87.0986"/><text fill="#000000" font-family="Arial" font-size="14" lengthAdjust="spacing" textLength="62" x="363" y="107.2305">Next Auth</text><rect fill="#E3E3E3" height="30.0986" rx="2.5" ry="2.5" style="stroke:#181818;stroke-width:0.5;" width="76" x="356" y="619.377"/><text fill="#000000" font-family="Arial" font-size="14" lengthAdjust="spacing" textLength="62" x="363" y="639.5088">Next Auth</text><rect fill="#E3E3E3" height="30.0986" rx="2.5" ry="2.5" style="stroke:#181818;stroke-width:0.5;" width="71" x="442" y="87.0986"/><text fill="#000000" font-family="Arial" font-size="14" lengthAdjust="spacing" textLength="57" x="449" y="107.2305">Atlas API</text><rect fill="#E3E3E3" height="30.0986" rx="2.5" ry="2.5" style="stroke:#181818;stroke-width:0.5;" width="71" x="442" y="619.377"/><text fill="#000000" font-family="Arial" font-size="14" lengthAdjust="spacing" textLength="57" x="449" y="639.5088">Atlas API</text><rect fill="#E3E3E3" height="30.0986" rx="2.5" ry="2.5" style="stroke:#181818;stroke-width:0.5;" width="98" x="640.5" y="87.0986"/><text fill="#000000" font-family="Arial" font-size="14" lengthAdjust="spacing" textLength="84" x="647.5" y="107.2305">AWS Cognito</text><rect fill="#E3E3E3" height="30.0986" rx="2.5" ry="2.5" style="stroke:#181818;stroke-width:0.5;" width="98" x="640.5" y="619.377"/><text fill="#000000" font-family="Arial" font-size="14" lengthAdjust="spacing" textLength="84" x="647.5" y="639.5088">AWS Cognito</text><rect fill="#E3E3E3" height="30.0986" rx="2.5" ry="2.5" style="stroke:#181818;stroke-width:0.5;" width="75" x="748.5" y="87.0986"/><text fill="#000000" font-family="Arial" font-size="14" lengthAdjust="spacing" textLength="61" x="755.5" y="107.2305">Database</text><rect fill="#E3E3E3" height="30.0986" rx="2.5" ry="2.5" style="stroke:#181818;stroke-width:0.5;" width="75" x="748.5" y="619.377"/><text fill="#000000" font-family="Arial" font-size="14" lengthAdjust="spacing" textLength="61" x="755.5" y="639.5088">Database</text><rect fill="#FFFFFF" height="144.7437" style="stroke:#181818;stroke-width:1.0;" width="10" x="201" y="184.0947"/><rect fill="#FFFFFF" height="244.5898" style="stroke:#181818;stroke-width:1.0;" width="10" x="201" y="357.7871"/><rect fill="#FFFFFF" height="186.6924" style="stroke:#181818;stroke-width:1.0;" width="10" x="472.5" y="386.7358"/><rect fill="#FFFFFF" height="28.9487" style="stroke:#181818;stroke-width:1.0;" width="10" x="684.5" y="241.9922"/><path d="M5,133.1973 L5,157.1973 L811,157.1973 L811,143.1973 L801,133.1973 L5,133.1973 " fill="#FAFAFA" style="stroke:#181818;stroke-width:0.5;"/><path d="M801,133.1973 L801,143.1973 L811,143.1973 L801,133.1973 " fill="#FAFAFA" style="stroke:#181818;stroke-width:0.5;"/><text fill="#000000" font-family="Arial" font-size="13" lengthAdjust="spacing" textLength="166" x="320.75" y="150.3911">User Authentication Process</text><polygon fill="#181818" points="189,180.0947,199,184.0947,189,188.0947,193,184.0947" style="stroke:#181818;stroke-width:1.0;"/><line style="stroke:#181818;stroke-width:1.0;" x1="30" x2="195" y1="184.0947" y2="184.0947"/><text fill="#000000" font-family="Arial" font-size="13" lengthAdjust="spacing" textLength="152" x="39.5" y="179.3398">Login with email/password</text><polygon fill="#181818" points="382,209.0435,392,213.0435,382,217.0435,386,213.0435" style="stroke:#181818;stroke-width:1.0;"/><line style="stroke:#181818;stroke-width:1.0;" x1="211" x2="388" y1="213.0435" y2="213.0435"/><text fill="#000000" font-family="Arial" font-size="13" lengthAdjust="spacing" textLength="108" x="248.5" y="208.2886">Submit credentials</text><polygon fill="#181818" points="672.5,237.9922,682.5,241.9922,672.5,245.9922,676.5,241.9922" style="stroke:#181818;stroke-width:1.0;"/><line style="stroke:#181818;stroke-width:1.0;" x1="394" x2="678.5" y1="241.9922" y2="241.9922"/><text fill="#000000" font-family="Arial" font-size="13" lengthAdjust="spacing" textLength="102" x="488.25" y="237.2373">Authenticate user</text><polygon fill="#181818" points="405,266.9409,395,270.9409,405,274.9409,401,270.9409" style="stroke:#181818;stroke-width:1.0;"/><line style="stroke:#181818;stroke-width:1.0;stroke-dasharray:2.0,2.0;" x1="399" x2="688.5" y1="270.9409" y2="270.9409"/><text fill="#000000" font-family="Arial" font-size="13" lengthAdjust="spacing" textLength="105" x="489.25" y="266.186">Return JWT token</text><polygon fill="#181818" points="222,295.8896,212,299.8896,222,303.8896,218,299.8896" style="stroke:#181818;stroke-width:1.0;"/><line style="stroke:#181818;stroke-width:1.0;stroke-dasharray:2.0,2.0;" x1="216" x2="393" y1="299.8896" y2="299.8896"/><text fill="#000000" font-family="Arial" font-size="13" lengthAdjust="spacing" textLength="159" x="223" y="295.1348">Store auth token in session</text><polygon fill="#181818" points="41,324.8384,31,328.8384,41,332.8384,37,328.8384" style="stroke:#181818;stroke-width:1.0;"/><line style="stroke:#181818;stroke-width:1.0;stroke-dasharray:2.0,2.0;" x1="35" x2="205" y1="328.8384" y2="328.8384"/><text fill="#000000" font-family="Arial" font-size="13" lengthAdjust="spacing" textLength="127" x="54.5" y="324.0835">Redirect to dashboard</text><polygon fill="#181818" points="189,353.7871,199,357.7871,189,361.7871,193,357.7871" style="stroke:#181818;stroke-width:1.0;"/><line style="stroke:#181818;stroke-width:1.0;" x1="30" x2="195" y1="357.7871" y2="357.7871"/><text fill="#000000" font-family="Arial" font-size="13" lengthAdjust="spacing" textLength="135" x="48" y="353.0322">Access protected route</text><polygon fill="#181818" points="460.5,382.7358,470.5,386.7358,460.5,390.7358,464.5,386.7358" style="stroke:#181818;stroke-width:1.0;"/><line style="stroke:#181818;stroke-width:1.0;" x1="211" x2="466.5" y1="386.7358" y2="386.7358"/><text fill="#000000" font-family="Arial" font-size="13" lengthAdjust="spacing" textLength="169" x="257.25" y="381.981">Request data with auth token</text><line style="stroke:#181818;stroke-width:1.0;" x1="482.5" x2="524.5" y1="415.6846" y2="415.6846"/><line style="stroke:#181818;stroke-width:1.0;" x1="524.5" x2="524.5" y1="415.6846" y2="428.6846"/><line style="stroke:#181818;stroke-width:1.0;" x1="483.5" x2="524.5" y1="428.6846" y2="428.6846"/><polygon fill="#181818" points="493.5,424.6846,483.5,428.6846,493.5,432.6846,489.5,428.6846" style="stroke:#181818;stroke-width:1.0;"/><text fill="#000000" font-family="Arial" font-size="13" lengthAdjust="spacing" textLength="188" x="489.5" y="410.9297">JWT middleware validates token</text><polygon fill="#181818" points="677.5,453.6333,687.5,457.6333,677.5,461.6333,681.5,457.6333" style="stroke:#181818;stroke-width:1.0;"/><line style="stroke:#181818;stroke-width:1.0;" x1="482.5" x2="683.5" y1="457.6333" y2="457.6333"/><text fill="#000000" font-family="Arial" font-size="13" lengthAdjust="spacing" textLength="135" x="518.5" y="452.8784">Verify token (if needed)</text><polygon fill="#181818" points="493.5,482.582,483.5,486.582,493.5,490.582,489.5,486.582" style="stroke:#181818;stroke-width:1.0;"/><line style="stroke:#181818;stroke-width:1.0;stroke-dasharray:2.0,2.0;" x1="487.5" x2="688.5" y1="486.582" y2="486.582"/><text fill="#000000" font-family="Arial" font-size="13" lengthAdjust="spacing" textLength="103" x="534.5" y="481.8271">Token verification</text><polygon fill="#181818" points="774,511.5308,784,515.5308,774,519.5308,778,515.5308" style="stroke:#181818;stroke-width:1.0;"/><line style="stroke:#181818;stroke-width:1.0;" x1="482.5" x2="780" y1="515.5308" y2="515.5308"/><text fill="#000000" font-family="Arial" font-size="13" lengthAdjust="spacing" textLength="126" x="571.25" y="510.7759">Fetch authorized data</text><polygon fill="#181818" points="493.5,540.4795,483.5,544.4795,493.5,548.4795,489.5,544.4795" style="stroke:#181818;stroke-width:1.0;"/><line style="stroke:#181818;stroke-width:1.0;stroke-dasharray:2.0,2.0;" x1="487.5" x2="785" y1="544.4795" y2="544.4795"/><text fill="#000000" font-family="Arial" font-size="13" lengthAdjust="spacing" textLength="67" x="600.75" y="539.7246">Return data</text><polygon fill="#181818" points="222,569.4282,212,573.4282,222,577.4282,218,573.4282" style="stroke:#181818;stroke-width:1.0;"/><line style="stroke:#181818;stroke-width:1.0;stroke-dasharray:2.0,2.0;" x1="216" x2="476.5" y1="573.4282" y2="573.4282"/><text fill="#000000" font-family="Arial" font-size="13" lengthAdjust="spacing" textLength="131" x="278.75" y="568.6733">Return authorized data</text><polygon fill="#181818" points="41,598.377,31,602.377,41,606.377,37,602.377" style="stroke:#181818;stroke-width:1.0;"/><line style="stroke:#181818;stroke-width:1.0;stroke-dasharray:2.0,2.0;" x1="35" x2="205" y1="602.377" y2="602.377"/><text fill="#000000" font-family="Arial" font-size="13" lengthAdjust="spacing" textLength="90" x="73" y="597.6221">Display content</text><!--SRC=[XLB1Rjim3BthAuYUDc35xZaCS1S4sB0LnTAjPzPYOgAov4bqlEphHocEOxS1TZ1i-Rr7yZqglR3lC68BRV2XRc9e2IJsPDA4DEZj45c4FEpGfJcM6hHXOBz_WrZQOUza4xpSenQj8gERA-btJxwcxvGIxgbolFTGanUACvPZJtBi2BhWZlbWZB0uWf-98bIzDAhW6eM3XuqBWp5OIuW5Drf3GUxG2znKuZ319kf0vEqDp0vBuZtzaLAwSF8f7wuLgnw-58w-Ny5FM_WSzfub5CBulIIjKV0P4nN6-iuO7uGW7EWq_GVzjxhgyo66MbCpfe2tdoOVA_WMzknXO6c0McJtiSEKXX1jZeKFg0qcq-UFNE7iSWNR_hbbWJgIpIrrg-OCPkBeP3MVYQ3FQKyTpcx7Dzmk6lmWwQE7hq-F8E65lB7qHddfk72trSqIO0QA5DHhqYGqb9aRbUHWSYVBaMfHCbXCpND03MBMRehYIf9LdJE6BkfIQY4BCVH2_ubHBq9kgpSxYROKFAtYCl55d- -CFfCgvz6ojOu6L9C7TAm5A8swaJh5_uiYxuvZ3Ezu1vvqOVRz8lHI-B5G3fa_Ng1piNo_DYJrQS0G-Q_Qp5ERzTr5F-wh_2_2HKmZ-hh0BEHizCforfmwXqUe2oBNrl8F]--></g></svg>