<?xml version="1.0" encoding="us-ascii" standalone="no"?><svg xmlns="http://www.w3.org/2000/svg" xmlns:xlink="http://www.w3.org/1999/xlink" contentStyleType="text/css" height="1279px" preserveAspectRatio="none" style="width:897px;height:1279px;background:#FFFFFF;" version="1.1" viewBox="0 0 897 1279" width="897px" zoomAndPan="magnify"><defs/><g><text fill="#000000" font-family="Arial" font-size="14" font-weight="bold" lengthAdjust="spacing" textLength="181" x="357" y="28.1318">Dataset Management Flow</text><rect fill="#FFFFFF" height="344.436" style="stroke:#181818;stroke-width:1.0;" width="10" x="265" y="213.0435"/><rect fill="#FFFFFF" height="144.7437" style="stroke:#181818;stroke-width:1.0;" width="10" x="265" y="586.4282"/><rect fill="#FFFFFF" height="202.6411" style="stroke:#181818;stroke-width:1.0;" width="10" x="265" y="760.1206"/><rect fill="#FFFFFF" height="244.5898" style="stroke:#181818;stroke-width:1.0;" width="10" x="440" y="283.9409"/><rect fill="#FFFFFF" height="86.8462" style="stroke:#181818;stroke-width:1.0;" width="10" x="440" y="615.377"/><rect fill="#FFFFFF" height="144.7437" style="stroke:#181818;stroke-width:1.0;" width="10" x="440" y="789.0693"/><line style="stroke:#181818;stroke-width:0.5;stroke-dasharray:5.0,5.0;" x1="43" x2="43" y1="118.1973" y2="980.7617"/><line style="stroke:#181818;stroke-width:0.5;stroke-dasharray:5.0,5.0;" x1="94" x2="94" y1="118.1973" y2="980.7617"/><line style="stroke:#181818;stroke-width:0.5;stroke-dasharray:5.0,5.0;" x1="269.5" x2="269.5" y1="118.1973" y2="980.7617"/><line style="stroke:#181818;stroke-width:0.5;stroke-dasharray:5.0,5.0;" x1="444.5" x2="444.5" y1="118.1973" y2="980.7617"/><line style="stroke:#181818;stroke-width:0.5;stroke-dasharray:5.0,5.0;" x1="621" x2="621" y1="118.1973" y2="980.7617"/><line style="stroke:#181818;stroke-width:0.5;stroke-dasharray:5.0,5.0;" x1="716" x2="716" y1="118.1973" y2="980.7617"/><line style="stroke:#181818;stroke-width:0.5;stroke-dasharray:5.0,5.0;" x1="831" x2="831" y1="118.1973" y2="980.7617"/><text fill="#000000" font-family="Arial" font-size="14" lengthAdjust="spacing" textLength="40" x="20" y="115.2305">Admin</text><ellipse cx="43" cy="50.5986" fill="#E2E2F0" rx="8" ry="8" style="stroke:#181818;stroke-width:0.5;"/><path d="M43,58.5986 L43,85.5986 M30,66.5986 L56,66.5986 M43,85.5986 L30,100.5986 M43,85.5986 L56,100.5986 " fill="none" style="stroke:#181818;stroke-width:0.5;"/><text fill="#000000" font-family="Arial" font-size="14" lengthAdjust="spacing" textLength="40" x="20" y="992.8936">Admin</text><ellipse cx="43" cy="1004.3604" fill="#E2E2F0" rx="8" ry="8" style="stroke:#181818;stroke-width:0.5;"/><path d="M43,1012.3604 L43,1039.3604 M30,1020.3604 L56,1020.3604 M43,1039.3604 L30,1054.3604 M43,1039.3604 L56,1054.3604 " fill="none" style="stroke:#181818;stroke-width:0.5;"/><text fill="#000000" font-family="Arial" font-size="14" lengthAdjust="spacing" textLength="30" x="76" y="115.2305">User</text><ellipse cx="94" cy="50.5986" fill="#E2E2F0" rx="8" ry="8" style="stroke:#181818;stroke-width:0.5;"/><path d="M94,58.5986 L94,85.5986 M81,66.5986 L107,66.5986 M94,85.5986 L81,100.5986 M94,85.5986 L107,100.5986 " fill="none" style="stroke:#181818;stroke-width:0.5;"/><text fill="#000000" font-family="Arial" font-size="14" lengthAdjust="spacing" textLength="30" x="76" y="992.8936">User</text><ellipse cx="94" cy="1004.3604" fill="#E2E2F0" rx="8" ry="8" style="stroke:#181818;stroke-width:0.5;"/><path d="M94,1012.3604 L94,1039.3604 M81,1020.3604 L107,1020.3604 M94,1039.3604 L81,1054.3604 M94,1039.3604 L107,1054.3604 " fill="none" style="stroke:#181818;stroke-width:0.5;"/><rect fill="#E9F7EF" height="46.1973" rx="2.5" ry="2.5" style="stroke:#27AE60;stroke-width:0.5;" width="107" x="216.5" y="71"/><text fill="#000000" font-family="Arial" font-size="14" font-style="italic" lengthAdjust="spacing" textLength="74" x="233" y="91.1318">&#171;Frontend&#187;</text><text fill="#000000" font-family="Arial" font-size="14" lengthAdjust="spacing" textLength="93" x="223.5" y="107.2305">Atlas Frontend</text><rect fill="#E9F7EF" height="46.1973" rx="2.5" ry="2.5" style="stroke:#27AE60;stroke-width:0.5;" width="107" x="216.5" y="979.7617"/><text fill="#000000" font-family="Arial" font-size="14" font-style="italic" lengthAdjust="spacing" textLength="74" x="233" y="999.8936">&#171;Frontend&#187;</text><text fill="#000000" font-family="Arial" font-size="14" lengthAdjust="spacing" textLength="93" x="223.5" y="1015.9922">Atlas Frontend</text><rect fill="#EBF5FB" height="46.1973" rx="2.5" ry="2.5" style="stroke:#3498DB;stroke-width:0.5;" width="71" x="409.5" y="71"/><text fill="#000000" font-family="Arial" font-size="14" font-style="italic" lengthAdjust="spacing" textLength="38" x="426" y="91.1318">&#171;API&#187;</text><text fill="#000000" font-family="Arial" font-size="14" lengthAdjust="spacing" textLength="57" x="416.5" y="107.2305">Atlas API</text><rect fill="#EBF5FB" height="46.1973" rx="2.5" ry="2.5" style="stroke:#3498DB;stroke-width:0.5;" width="71" x="409.5" y="979.7617"/><text fill="#000000" font-family="Arial" font-size="14" font-style="italic" lengthAdjust="spacing" textLength="38" x="426" y="999.8936">&#171;API&#187;</text><text fill="#000000" font-family="Arial" font-size="14" lengthAdjust="spacing" textLength="57" x="416.5" y="1015.9922">Atlas API</text><rect fill="#F5EEF8" height="46.1973" rx="2.5" ry="2.5" style="stroke:#76448A;stroke-width:0.5;" width="80" x="581" y="71"/><text fill="#000000" font-family="Arial" font-size="14" font-style="italic" lengthAdjust="spacing" textLength="66" x="588" y="91.1318">&#171;Storage&#187;</text><text fill="#000000" font-family="Arial" font-size="14" lengthAdjust="spacing" textLength="52" x="595" y="107.2305">AWS S3</text><rect fill="#F5EEF8" height="46.1973" rx="2.5" ry="2.5" style="stroke:#76448A;stroke-width:0.5;" width="80" x="581" y="979.7617"/><text fill="#000000" font-family="Arial" font-size="14" font-style="italic" lengthAdjust="spacing" textLength="66" x="588" y="999.8936">&#171;Storage&#187;</text><text fill="#000000" font-family="Arial" font-size="14" lengthAdjust="spacing" textLength="52" x="595" y="1015.9922">AWS S3</text><rect fill="#F4ECF7" height="46.1973" rx="2.5" ry="2.5" style="stroke:#8E44AD;stroke-width:0.5;" width="91" x="671" y="71"/><text fill="#000000" font-family="Arial" font-size="14" font-style="italic" lengthAdjust="spacing" textLength="77" x="678" y="91.1318">&#171;Database&#187;</text><text fill="#000000" font-family="Arial" font-size="14" lengthAdjust="spacing" textLength="63" x="685" y="107.2305">MongoDB</text><rect fill="#F4ECF7" height="46.1973" rx="2.5" ry="2.5" style="stroke:#8E44AD;stroke-width:0.5;" width="91" x="671" y="979.7617"/><text fill="#000000" font-family="Arial" font-size="14" font-style="italic" lengthAdjust="spacing" textLength="77" x="678" y="999.8936">&#171;Database&#187;</text><text fill="#000000" font-family="Arial" font-size="14" lengthAdjust="spacing" textLength="63" x="685" y="1015.9922">MongoDB</text><rect fill="#F5EEF8" height="46.1973" rx="2.5" ry="2.5" style="stroke:#76448A;stroke-width:0.5;" width="119" x="772" y="71"/><text fill="#000000" font-family="Arial" font-size="14" font-style="italic" lengthAdjust="spacing" textLength="66" x="798.5" y="91.1318">&#171;Storage&#187;</text><text fill="#000000" font-family="Arial" font-size="14" lengthAdjust="spacing" textLength="105" x="779" y="107.2305">Dataset Registry</text><rect fill="#F5EEF8" height="46.1973" rx="2.5" ry="2.5" style="stroke:#76448A;stroke-width:0.5;" width="119" x="772" y="979.7617"/><text fill="#000000" font-family="Arial" font-size="14" font-style="italic" lengthAdjust="spacing" textLength="66" x="798.5" y="999.8936">&#171;Storage&#187;</text><text fill="#000000" font-family="Arial" font-size="14" lengthAdjust="spacing" textLength="105" x="779" y="1015.9922">Dataset Registry</text><rect fill="#FFFFFF" height="344.436" style="stroke:#181818;stroke-width:1.0;" width="10" x="265" y="213.0435"/><rect fill="#FFFFFF" height="144.7437" style="stroke:#181818;stroke-width:1.0;" width="10" x="265" y="586.4282"/><rect fill="#FFFFFF" height="202.6411" style="stroke:#181818;stroke-width:1.0;" width="10" x="265" y="760.1206"/><rect fill="#FFFFFF" height="244.5898" style="stroke:#181818;stroke-width:1.0;" width="10" x="440" y="283.9409"/><rect fill="#FFFFFF" height="86.8462" style="stroke:#181818;stroke-width:1.0;" width="10" x="440" y="615.377"/><rect fill="#FFFFFF" height="144.7437" style="stroke:#181818;stroke-width:1.0;" width="10" x="440" y="789.0693"/><path d="M5,133.1973 L5,157.1973 L871,157.1973 L871,143.1973 L861,133.1973 L5,133.1973 " fill="#FEFFDD" style="stroke:#181818;stroke-width:0.5;"/><path d="M861,133.1973 L861,143.1973 L871,143.1973 L861,133.1973 " fill="#FEFFDD" style="stroke:#181818;stroke-width:0.5;"/><text fill="#000000" font-family="Arial" font-size="13" lengthAdjust="spacing" textLength="193" x="337" y="150.3911">Dataset Upload and Management</text><polygon fill="#181818" points="258,180.0947,268,184.0947,258,188.0947,262,184.0947" style="stroke:#181818;stroke-width:1.0;"/><line style="stroke:#181818;stroke-width:1.0;" x1="43" x2="264" y1="184.0947" y2="184.0947"/><text fill="#000000" font-family="Arial" font-size="13" lengthAdjust="spacing" textLength="192" x="60.5" y="179.3398">Navigate to dataset management</text><polygon fill="#181818" points="253,209.0435,263,213.0435,253,217.0435,257,213.0435" style="stroke:#181818;stroke-width:1.0;"/><line style="stroke:#181818;stroke-width:1.0;" x1="43" x2="259" y1="213.0435" y2="213.0435"/><text fill="#000000" font-family="Arial" font-size="13" lengthAdjust="spacing" textLength="115" x="96.5" y="208.2886">Upload dataset files</text><line style="stroke:#181818;stroke-width:1.0;" x1="275" x2="317" y1="241.9922" y2="241.9922"/><line style="stroke:#181818;stroke-width:1.0;" x1="317" x2="317" y1="241.9922" y2="254.9922"/><line style="stroke:#181818;stroke-width:1.0;" x1="276" x2="317" y1="254.9922" y2="254.9922"/><polygon fill="#181818" points="286,250.9922,276,254.9922,286,258.9922,282,254.9922" style="stroke:#181818;stroke-width:1.0;"/><text fill="#000000" font-family="Arial" font-size="13" lengthAdjust="spacing" textLength="135" x="282" y="237.2373">Validate dataset format</text><polygon fill="#181818" points="428,279.9409,438,283.9409,428,287.9409,432,283.9409" style="stroke:#181818;stroke-width:1.0;"/><line style="stroke:#181818;stroke-width:1.0;" x1="275" x2="434" y1="283.9409" y2="283.9409"/><text fill="#000000" font-family="Arial" font-size="13" lengthAdjust="spacing" textLength="133" x="291" y="279.186">POST /api/v1/datasets</text><line style="stroke:#181818;stroke-width:1.0;" x1="450" x2="492" y1="312.8896" y2="312.8896"/><line style="stroke:#181818;stroke-width:1.0;" x1="492" x2="492" y1="312.8896" y2="325.8896"/><line style="stroke:#181818;stroke-width:1.0;" x1="451" x2="492" y1="325.8896" y2="325.8896"/><polygon fill="#181818" points="461,321.8896,451,325.8896,461,329.8896,457,325.8896" style="stroke:#181818;stroke-width:1.0;"/><text fill="#000000" font-family="Arial" font-size="13" lengthAdjust="spacing" textLength="152" x="457" y="308.1348">Validate dataset metadata</text><polygon fill="#181818" points="609,350.8384,619,354.8384,609,358.8384,613,354.8384" style="stroke:#181818;stroke-width:1.0;"/><line style="stroke:#181818;stroke-width:1.0;" x1="450" x2="615" y1="354.8384" y2="354.8384"/><text fill="#000000" font-family="Arial" font-size="13" lengthAdjust="spacing" textLength="115" x="478" y="350.0835">Upload dataset files</text><polygon fill="#181818" points="461,379.7871,451,383.7871,461,387.7871,457,383.7871" style="stroke:#181818;stroke-width:1.0;"/><line style="stroke:#181818;stroke-width:1.0;stroke-dasharray:2.0,2.0;" x1="455" x2="620" y1="383.7871" y2="383.7871"/><text fill="#000000" font-family="Arial" font-size="13" lengthAdjust="spacing" textLength="87" x="492" y="379.0322">Confirm upload</text><polygon fill="#181818" points="704.5,408.7358,714.5,412.7358,704.5,416.7358,708.5,412.7358" style="stroke:#181818;stroke-width:1.0;"/><line style="stroke:#181818;stroke-width:1.0;" x1="450" x2="710.5" y1="412.7358" y2="412.7358"/><text fill="#000000" font-family="Arial" font-size="13" lengthAdjust="spacing" textLength="136" x="515.25" y="407.981">Store dataset metadata</text><polygon fill="#181818" points="461,437.6846,451,441.6846,461,445.6846,457,441.6846" style="stroke:#181818;stroke-width:1.0;"/><line style="stroke:#181818;stroke-width:1.0;stroke-dasharray:2.0,2.0;" x1="455" x2="715.5" y1="441.6846" y2="441.6846"/><text fill="#000000" font-family="Arial" font-size="13" lengthAdjust="spacing" textLength="92" x="537.25" y="436.9297">Confirm storage</text><polygon fill="#181818" points="819.5,466.6333,829.5,470.6333,819.5,474.6333,823.5,470.6333" style="stroke:#181818;stroke-width:1.0;"/><line style="stroke:#181818;stroke-width:1.0;" x1="450" x2="825.5" y1="470.6333" y2="470.6333"/><text fill="#000000" font-family="Arial" font-size="13" lengthAdjust="spacing" textLength="156" x="562.75" y="465.8784">Register dataset in registry</text><polygon fill="#181818" points="461,495.582,451,499.582,461,503.582,457,499.582" style="stroke:#181818;stroke-width:1.0;"/><line style="stroke:#181818;stroke-width:1.0;stroke-dasharray:2.0,2.0;" x1="455" x2="830.5" y1="499.582" y2="499.582"/><text fill="#000000" font-family="Arial" font-size="13" lengthAdjust="spacing" textLength="113" x="584.25" y="494.8271">Confirm registration</text><polygon fill="#181818" points="286,524.5308,276,528.5308,286,532.5308,282,528.5308" style="stroke:#181818;stroke-width:1.0;"/><line style="stroke:#181818;stroke-width:1.0;stroke-dasharray:2.0,2.0;" x1="280" x2="444" y1="528.5308" y2="528.5308"/><text fill="#000000" font-family="Arial" font-size="13" lengthAdjust="spacing" textLength="91" x="314.5" y="523.7759">Return success</text><polygon fill="#181818" points="54,553.4795,44,557.4795,54,561.4795,50,557.4795" style="stroke:#181818;stroke-width:1.0;"/><line style="stroke:#181818;stroke-width:1.0;stroke-dasharray:2.0,2.0;" x1="48" x2="269" y1="557.4795" y2="557.4795"/><text fill="#000000" font-family="Arial" font-size="13" lengthAdjust="spacing" textLength="142" x="85.5" y="552.7246">Show success message</text><polygon fill="#181818" points="253,582.4282,263,586.4282,253,590.4282,257,586.4282" style="stroke:#181818;stroke-width:1.0;"/><line style="stroke:#181818;stroke-width:1.0;" x1="94" x2="259" y1="586.4282" y2="586.4282"/><text fill="#000000" font-family="Arial" font-size="13" lengthAdjust="spacing" textLength="152" x="103.5" y="581.6733">Browse available datasets</text><polygon fill="#181818" points="428,611.377,438,615.377,428,619.377,432,615.377" style="stroke:#181818;stroke-width:1.0;"/><line style="stroke:#181818;stroke-width:1.0;" x1="275" x2="434" y1="615.377" y2="615.377"/><text fill="#000000" font-family="Arial" font-size="13" lengthAdjust="spacing" textLength="124" x="295.5" y="610.6221">GET /api/v1/datasets</text><polygon fill="#181818" points="704.5,640.3257,714.5,644.3257,704.5,648.3257,708.5,644.3257" style="stroke:#181818;stroke-width:1.0;"/><line style="stroke:#181818;stroke-width:1.0;" x1="450" x2="710.5" y1="644.3257" y2="644.3257"/><text fill="#000000" font-family="Arial" font-size="13" lengthAdjust="spacing" textLength="138" x="514.25" y="639.5708">Fetch dataset metadata</text><polygon fill="#181818" points="461,669.2744,451,673.2744,461,677.2744,457,673.2744" style="stroke:#181818;stroke-width:1.0;"/><line style="stroke:#181818;stroke-width:1.0;stroke-dasharray:2.0,2.0;" x1="455" x2="715.5" y1="673.2744" y2="673.2744"/><text fill="#000000" font-family="Arial" font-size="13" lengthAdjust="spacing" textLength="92" x="537.25" y="668.5195">Return datasets</text><polygon fill="#181818" points="286,698.2231,276,702.2231,286,706.2231,282,702.2231" style="stroke:#181818;stroke-width:1.0;"/><line style="stroke:#181818;stroke-width:1.0;stroke-dasharray:2.0,2.0;" x1="280" x2="444" y1="702.2231" y2="702.2231"/><text fill="#000000" font-family="Arial" font-size="13" lengthAdjust="spacing" textLength="106" x="307" y="697.4683">Return dataset list</text><polygon fill="#181818" points="105,727.1719,95,731.1719,105,735.1719,101,731.1719" style="stroke:#181818;stroke-width:1.0;"/><line style="stroke:#181818;stroke-width:1.0;stroke-dasharray:2.0,2.0;" x1="99" x2="269" y1="731.1719" y2="731.1719"/><text fill="#000000" font-family="Arial" font-size="13" lengthAdjust="spacing" textLength="132" x="116" y="726.417">Display dataset gallery</text><polygon fill="#181818" points="253,756.1206,263,760.1206,253,764.1206,257,760.1206" style="stroke:#181818;stroke-width:1.0;"/><line style="stroke:#181818;stroke-width:1.0;" x1="94" x2="259" y1="760.1206" y2="760.1206"/><text fill="#000000" font-family="Arial" font-size="13" lengthAdjust="spacing" textLength="117" x="121" y="755.3657">View dataset details</text><polygon fill="#181818" points="428,785.0693,438,789.0693,428,793.0693,432,789.0693" style="stroke:#181818;stroke-width:1.0;"/><line style="stroke:#181818;stroke-width:1.0;" x1="275" x2="434" y1="789.0693" y2="789.0693"/><text fill="#000000" font-family="Arial" font-size="13" lengthAdjust="spacing" textLength="146" x="284.5" y="784.3145">GET /api/v1/datasets/{id}</text><polygon fill="#181818" points="704.5,814.0181,714.5,818.0181,704.5,822.0181,708.5,818.0181" style="stroke:#181818;stroke-width:1.0;"/><line style="stroke:#181818;stroke-width:1.0;" x1="450" x2="710.5" y1="818.0181" y2="818.0181"/><text fill="#000000" font-family="Arial" font-size="13" lengthAdjust="spacing" textLength="138" x="514.25" y="813.2632">Fetch dataset metadata</text><polygon fill="#181818" points="461,842.9668,451,846.9668,461,850.9668,457,846.9668" style="stroke:#181818;stroke-width:1.0;"/><line style="stroke:#181818;stroke-width:1.0;stroke-dasharray:2.0,2.0;" x1="455" x2="715.5" y1="846.9668" y2="846.9668"/><text fill="#000000" font-family="Arial" font-size="13" lengthAdjust="spacing" textLength="85" x="540.75" y="842.2119">Return dataset</text><polygon fill="#181818" points="609,871.9155,619,875.9155,609,879.9155,613,875.9155" style="stroke:#181818;stroke-width:1.0;"/><line style="stroke:#181818;stroke-width:1.0;" x1="450" x2="615" y1="875.9155" y2="875.9155"/><text fill="#000000" font-family="Arial" font-size="13" lengthAdjust="spacing" textLength="114" x="478.5" y="871.1606">Get dataset sample</text><polygon fill="#181818" points="461,900.8643,451,904.8643,461,908.8643,457,904.8643" style="stroke:#181818;stroke-width:1.0;"/><line style="stroke:#181818;stroke-width:1.0;stroke-dasharray:2.0,2.0;" x1="455" x2="620" y1="904.8643" y2="904.8643"/><text fill="#000000" font-family="Arial" font-size="13" lengthAdjust="spacing" textLength="113" x="479" y="900.1094">Return sample data</text><polygon fill="#181818" points="286,929.813,276,933.813,286,937.813,282,933.813" style="stroke:#181818;stroke-width:1.0;"/><line style="stroke:#181818;stroke-width:1.0;stroke-dasharray:2.0,2.0;" x1="280" x2="444" y1="933.813" y2="933.813"/><text fill="#000000" font-family="Arial" font-size="13" lengthAdjust="spacing" textLength="127" x="296.5" y="929.0581">Return combined data</text><polygon fill="#181818" points="105,958.7617,95,962.7617,105,966.7617,101,962.7617" style="stroke:#181818;stroke-width:1.0;"/><line style="stroke:#181818;stroke-width:1.0;stroke-dasharray:2.0,2.0;" x1="99" x2="269" y1="962.7617" y2="962.7617"/><text fill="#000000" font-family="Arial" font-size="13" lengthAdjust="spacing" textLength="132" x="116" y="958.0068">Display dataset details</text><rect fill="#DDDDDD" height="191.085" id="_legend" rx="7.5" ry="7.5" style="stroke:#000000;stroke-width:1.0;" width="183" x="356" y="1068.8604"/><text fill="#000000" font-family="Arial" font-size="14" font-weight="bold" lengthAdjust="spacing" textLength="78" x="365" y="1088.9922">Entity Type</text><text fill="#000000" font-family="Arial" font-size="14" font-weight="bold" lengthAdjust="spacing" textLength="79" x="451" y="1088.9922">Description</text><rect fill="#E9F7EF" height="16.0986" style="stroke:none;stroke-width:1.0;" width="86" x="361" y="1091.959"/><text fill="#000000" font-family="Arial" font-size="14" lengthAdjust="spacing" textLength="4" x="361" y="1105.0908">&#160;</text><text fill="#000000" font-family="Arial" font-size="14" lengthAdjust="spacing" textLength="58" x="451" y="1105.0908">Frontend</text><rect fill="#EBF5FB" height="16.0986" style="stroke:none;stroke-width:1.0;" width="86" x="361" y="1108.0576"/><text fill="#000000" font-family="Arial" font-size="14" lengthAdjust="spacing" textLength="4" x="361" y="1121.1895">&#160;</text><text fill="#000000" font-family="Arial" font-size="14" lengthAdjust="spacing" textLength="22" x="451" y="1121.1895">API</text><rect fill="#F9EBEA" height="16.0986" style="stroke:none;stroke-width:1.0;" width="86" x="361" y="1124.1563"/><text fill="#000000" font-family="Arial" font-size="14" lengthAdjust="spacing" textLength="4" x="361" y="1137.2881">&#160;</text><text fill="#000000" font-family="Arial" font-size="14" lengthAdjust="spacing" textLength="29" x="451" y="1137.2881">Auth</text><rect fill="#F4ECF7" height="16.0986" style="stroke:none;stroke-width:1.0;" width="86" x="361" y="1140.2549"/><text fill="#000000" font-family="Arial" font-size="14" lengthAdjust="spacing" textLength="4" x="361" y="1153.3867">&#160;</text><text fill="#000000" font-family="Arial" font-size="14" lengthAdjust="spacing" textLength="61" x="451" y="1153.3867">Database</text><rect fill="#FEF9E7" height="16.0986" style="stroke:none;stroke-width:1.0;" width="86" x="361" y="1156.3535"/><text fill="#000000" font-family="Arial" font-size="14" lengthAdjust="spacing" textLength="4" x="361" y="1169.4854">&#160;</text><text fill="#000000" font-family="Arial" font-size="14" lengthAdjust="spacing" textLength="52" x="451" y="1169.4854">External</text><rect fill="#FADBD8" height="16.0986" style="stroke:none;stroke-width:1.0;" width="86" x="361" y="1172.4521"/><text fill="#000000" font-family="Arial" font-size="14" lengthAdjust="spacing" textLength="4" x="361" y="1185.584">&#160;</text><text fill="#000000" font-family="Arial" font-size="14" lengthAdjust="spacing" textLength="54" x="451" y="1185.584">Contract</text><rect fill="#FCF3CF" height="16.0986" style="stroke:none;stroke-width:1.0;" width="86" x="361" y="1188.5508"/><text fill="#000000" font-family="Arial" font-size="14" lengthAdjust="spacing" textLength="4" x="361" y="1201.6826">&#160;</text><text fill="#000000" font-family="Arial" font-size="14" lengthAdjust="spacing" textLength="43" x="451" y="1201.6826">Queue</text><rect fill="#D6EAF8" height="16.0986" style="stroke:none;stroke-width:1.0;" width="86" x="361" y="1204.6494"/><text fill="#000000" font-family="Arial" font-size="14" lengthAdjust="spacing" textLength="4" x="361" y="1217.7813">&#160;</text><text fill="#000000" font-family="Arial" font-size="14" lengthAdjust="spacing" textLength="57" x="451" y="1217.7813">Operator</text><rect fill="#D4EFDF" height="16.0986" style="stroke:none;stroke-width:1.0;" width="86" x="361" y="1220.748"/><text fill="#000000" font-family="Arial" font-size="14" lengthAdjust="spacing" textLength="4" x="361" y="1233.8799">&#160;</text><text fill="#000000" font-family="Arial" font-size="14" lengthAdjust="spacing" textLength="60" x="451" y="1233.8799">Evaluator</text><rect fill="#F5EEF8" height="16.0986" style="stroke:none;stroke-width:1.0;" width="86" x="361" y="1236.8467"/><text fill="#000000" font-family="Arial" font-size="14" lengthAdjust="spacing" textLength="4" x="361" y="1249.9785">&#160;</text><text fill="#000000" font-family="Arial" font-size="14" lengthAdjust="spacing" textLength="50" x="451" y="1249.9785">Storage</text><line style="stroke:#000000;stroke-width:1.0;" x1="361" x2="534" y1="1075.8604" y2="1075.8604"/><line style="stroke:#000000;stroke-width:1.0;" x1="361" x2="534" y1="1091.959" y2="1091.959"/><line style="stroke:#000000;stroke-width:1.0;" x1="361" x2="534" y1="1108.0576" y2="1108.0576"/><line style="stroke:#000000;stroke-width:1.0;" x1="361" x2="534" y1="1124.1563" y2="1124.1563"/><line style="stroke:#000000;stroke-width:1.0;" x1="361" x2="534" y1="1140.2549" y2="1140.2549"/><line style="stroke:#000000;stroke-width:1.0;" x1="361" x2="534" y1="1156.3535" y2="1156.3535"/><line style="stroke:#000000;stroke-width:1.0;" x1="361" x2="534" y1="1172.4521" y2="1172.4521"/><line style="stroke:#000000;stroke-width:1.0;" x1="361" x2="534" y1="1188.5508" y2="1188.5508"/><line style="stroke:#000000;stroke-width:1.0;" x1="361" x2="534" y1="1204.6494" y2="1204.6494"/><line style="stroke:#000000;stroke-width:1.0;" x1="361" x2="534" y1="1220.748" y2="1220.748"/><line style="stroke:#000000;stroke-width:1.0;" x1="361" x2="534" y1="1236.8467" y2="1236.8467"/><line style="stroke:#000000;stroke-width:1.0;" x1="361" x2="534" y1="1252.9453" y2="1252.9453"/><line style="stroke:#000000;stroke-width:1.0;" x1="361" x2="361" y1="1075.8604" y2="1252.9453"/><line style="stroke:#000000;stroke-width:1.0;" x1="447" x2="447" y1="1075.8604" y2="1252.9453"/><line style="stroke:#000000;stroke-width:1.0;" x1="534" x2="534" y1="1075.8604" y2="1252.9453"/><!--SRC=[jPJ1Rjim44Jl_8fjpdMDmZSZCE0aTT13sY1gqlDQsYW4A58GAHb6qN_lKYOfArPQ8q0lDWNDZBXlH7sGEbTjGP2RgZ9wPjrUqQUwhPGGJZf5S8CEBJcuGuqbLQGTR9JP2O6vCmsiYqhgi7wqr8WQ6oTpMICBBzPEeOLDOxGZNLp0qGLSNiRbQZNbMjz_xGtyprh-FP7zp21Rz9fimPACzy1RV2sxCxeqDrUzBgnPxCVQyc2lrN7S1ogbTSs-jyMBqKE4Dex0T1GWV4ooPOBsM2k31I2FE_0JejV3R9LWBE4RTh943dG6Yk2k1ik48sH7yRDKP7qHilCnKISIxv7v2PKil2xPJLEX6waP-HBklsS_O8wrd7UVvq5yz1ZM25zGb9_aLkJGhwCgMxonSwvm5bEkZNwMJGLjBupMKDuIV0SJJuZbdiJOGsSnPwZfiE82OnOpRi9TaKe_oGiITDBeG-Y8xGEvjj5WspmdQqL18re3OH_hQ-M1NimkwdaUQ_rkZtofJE6FsBZ9gyRiB05sA1LkLUBohtUXd-Zsovdb9lORSldB6Um3X1Jw9gOOfHZfNrdvqVbaILiht2TRYKeHjtKchIT9k-GjUFTIlHlK_9SiVlyFMiTdvTRlC_WjLhMYqKc9xrf_1uQ3DaMQF_5RgUbmyDw1EkAQGFq7]--></g></svg>