<?xml version="1.0" encoding="us-ascii" standalone="no"?><svg xmlns="http://www.w3.org/2000/svg" xmlns:xlink="http://www.w3.org/1999/xlink" contentStyleType="text/css" height="919px" preserveAspectRatio="none" style="width:862px;height:919px;background:#FFFFFF;" version="1.1" viewBox="0 0 862 919" width="862px" zoomAndPan="magnify"><defs/><g><text fill="#000000" font-family="Arial" font-size="14" font-weight="bold" lengthAdjust="spacing" textLength="174" x="343.25" y="28.1318">User Authentication Flow</text><rect fill="#FFFFFF" height="144.7437" style="stroke:#181818;stroke-width:1.0;" width="10" x="206" y="184.0947"/><rect fill="#FFFFFF" height="244.5898" style="stroke:#181818;stroke-width:1.0;" width="10" x="206" y="357.7871"/><rect fill="#FFFFFF" height="186.6924" style="stroke:#181818;stroke-width:1.0;" width="10" x="483" y="386.7358"/><rect fill="#FFFFFF" height="28.9487" style="stroke:#181818;stroke-width:1.0;" width="10" x="695" y="241.9922"/><line style="stroke:#181818;stroke-width:0.5;stroke-dasharray:5.0,5.0;" x1="35" x2="35" y1="118.1973" y2="620.377"/><line style="stroke:#181818;stroke-width:0.5;stroke-dasharray:5.0,5.0;" x1="211" x2="211" y1="118.1973" y2="620.377"/><line style="stroke:#181818;stroke-width:0.5;stroke-dasharray:5.0,5.0;" x1="399" x2="399" y1="118.1973" y2="620.377"/><line style="stroke:#181818;stroke-width:0.5;stroke-dasharray:5.0,5.0;" x1="488" x2="488" y1="118.1973" y2="620.377"/><line style="stroke:#181818;stroke-width:0.5;stroke-dasharray:5.0,5.0;" x1="699.5" x2="699.5" y1="118.1973" y2="620.377"/><line style="stroke:#181818;stroke-width:0.5;stroke-dasharray:5.0,5.0;" x1="809.5" x2="809.5" y1="118.1973" y2="620.377"/><text fill="#000000" font-family="Arial" font-size="14" lengthAdjust="spacing" textLength="30" x="17" y="115.2305">User</text><ellipse cx="35" cy="50.5986" fill="#E2E2F0" rx="8" ry="8" style="stroke:#181818;stroke-width:0.5;"/><path d="M35,58.5986 L35,85.5986 M22,66.5986 L48,66.5986 M35,85.5986 L22,100.5986 M35,85.5986 L48,100.5986 " fill="none" style="stroke:#181818;stroke-width:0.5;"/><text fill="#000000" font-family="Arial" font-size="14" lengthAdjust="spacing" textLength="30" x="17" y="632.5088">User</text><ellipse cx="35" cy="643.9756" fill="#E2E2F0" rx="8" ry="8" style="stroke:#181818;stroke-width:0.5;"/><path d="M35,651.9756 L35,678.9756 M22,659.9756 L48,659.9756 M35,678.9756 L22,693.9756 M35,678.9756 L48,693.9756 " fill="none" style="stroke:#181818;stroke-width:0.5;"/><rect fill="#E9F7EF" height="46.1973" rx="2.5" ry="2.5" style="stroke:#27AE60;stroke-width:2.0;" width="116" x="153" y="71"/><text fill="#000000" font-family="Arial" font-size="14" font-weight="bold" lengthAdjust="spacing" textLength="79" x="171.5" y="91.1318">&#171;Frontend&#187;</text><text fill="#000000" font-family="Arial" font-size="14" font-weight="bold" lengthAdjust="spacing" textLength="102" x="160" y="107.2305">Atlas Frontend</text><rect fill="#E9F7EF" height="46.1973" rx="2.5" ry="2.5" style="stroke:#27AE60;stroke-width:2.0;" width="116" x="153" y="619.377"/><text fill="#000000" font-family="Arial" font-size="14" font-weight="bold" lengthAdjust="spacing" textLength="79" x="171.5" y="639.5088">&#171;Frontend&#187;</text><text fill="#000000" font-family="Arial" font-size="14" font-weight="bold" lengthAdjust="spacing" textLength="102" x="160" y="655.6074">Atlas Frontend</text><rect fill="#F9EBEA" height="46.1973" rx="2.5" ry="2.5" style="stroke:#E74C3C;stroke-width:2.0;" width="82" x="358" y="71"/><text fill="#000000" font-family="Arial" font-size="14" font-weight="bold" lengthAdjust="spacing" textLength="49" x="374.5" y="91.1318">&#171;Auth&#187;</text><text fill="#000000" font-family="Arial" font-size="14" font-weight="bold" lengthAdjust="spacing" textLength="68" x="365" y="107.2305">Next Auth</text><rect fill="#F9EBEA" height="46.1973" rx="2.5" ry="2.5" style="stroke:#E74C3C;stroke-width:2.0;" width="82" x="358" y="619.377"/><text fill="#000000" font-family="Arial" font-size="14" font-weight="bold" lengthAdjust="spacing" textLength="49" x="374.5" y="639.5088">&#171;Auth&#187;</text><text fill="#000000" font-family="Arial" font-size="14" font-weight="bold" lengthAdjust="spacing" textLength="68" x="365" y="655.6074">Next Auth</text><rect fill="#EBF5FB" height="46.1973" rx="2.5" ry="2.5" style="stroke:#3498DB;stroke-width:2.0;" width="76" x="450" y="71"/><text fill="#000000" font-family="Arial" font-size="14" font-weight="bold" lengthAdjust="spacing" textLength="39" x="468.5" y="91.1318">&#171;API&#187;</text><text fill="#000000" font-family="Arial" font-size="14" font-weight="bold" lengthAdjust="spacing" textLength="62" x="457" y="107.2305">Atlas API</text><rect fill="#EBF5FB" height="46.1973" rx="2.5" ry="2.5" style="stroke:#3498DB;stroke-width:2.0;" width="76" x="450" y="619.377"/><text fill="#000000" font-family="Arial" font-size="14" font-weight="bold" lengthAdjust="spacing" textLength="39" x="468.5" y="639.5088">&#171;API&#187;</text><text fill="#000000" font-family="Arial" font-size="14" font-weight="bold" lengthAdjust="spacing" textLength="62" x="457" y="655.6074">Atlas API</text><rect fill="#FEF9E7" height="46.1973" rx="2.5" ry="2.5" style="stroke:#F1C40F;stroke-width:2.0;" width="105" x="647.5" y="71"/><text fill="#000000" font-family="Arial" font-size="14" font-weight="bold" lengthAdjust="spacing" textLength="72" x="664" y="91.1318">&#171;External&#187;</text><text fill="#000000" font-family="Arial" font-size="14" font-weight="bold" lengthAdjust="spacing" textLength="91" x="654.5" y="107.2305">AWS Cognito</text><rect fill="#FEF9E7" height="46.1973" rx="2.5" ry="2.5" style="stroke:#F1C40F;stroke-width:2.0;" width="105" x="647.5" y="619.377"/><text fill="#000000" font-family="Arial" font-size="14" font-weight="bold" lengthAdjust="spacing" textLength="72" x="664" y="639.5088">&#171;External&#187;</text><text fill="#000000" font-family="Arial" font-size="14" font-weight="bold" lengthAdjust="spacing" textLength="91" x="654.5" y="655.6074">AWS Cognito</text><rect fill="#F4ECF7" height="46.1973" rx="2.5" ry="2.5" style="stroke:#8E44AD;stroke-width:2.0;" width="94" x="762.5" y="71"/><text fill="#000000" font-family="Arial" font-size="14" font-weight="bold" lengthAdjust="spacing" textLength="80" x="769.5" y="91.1318">&#171;Database&#187;</text><text fill="#000000" font-family="Arial" font-size="14" font-weight="bold" lengthAdjust="spacing" textLength="64" x="777.5" y="107.2305">Database</text><rect fill="#F4ECF7" height="46.1973" rx="2.5" ry="2.5" style="stroke:#8E44AD;stroke-width:2.0;" width="94" x="762.5" y="619.377"/><text fill="#000000" font-family="Arial" font-size="14" font-weight="bold" lengthAdjust="spacing" textLength="80" x="769.5" y="639.5088">&#171;Database&#187;</text><text fill="#000000" font-family="Arial" font-size="14" font-weight="bold" lengthAdjust="spacing" textLength="64" x="777.5" y="655.6074">Database</text><rect fill="#FFFFFF" height="144.7437" style="stroke:#181818;stroke-width:1.0;" width="10" x="206" y="184.0947"/><rect fill="#FFFFFF" height="244.5898" style="stroke:#181818;stroke-width:1.0;" width="10" x="206" y="357.7871"/><rect fill="#FFFFFF" height="186.6924" style="stroke:#181818;stroke-width:1.0;" width="10" x="483" y="386.7358"/><rect fill="#FFFFFF" height="28.9487" style="stroke:#181818;stroke-width:1.0;" width="10" x="695" y="241.9922"/><path d="M5,133.1973 L5,157.1973 L839,157.1973 L839,143.1973 L829,133.1973 L5,133.1973 " fill="#FEFFDD" style="stroke:#181818;stroke-width:0.5;"/><path d="M829,133.1973 L829,143.1973 L839,143.1973 L829,133.1973 " fill="#FEFFDD" style="stroke:#181818;stroke-width:0.5;"/><text fill="#000000" font-family="Arial" font-size="13" lengthAdjust="spacing" textLength="166" x="334.75" y="150.3911">User Authentication Process</text><polygon fill="#181818" points="194,180.0947,204,184.0947,194,188.0947,198,184.0947" style="stroke:#181818;stroke-width:1.0;"/><line style="stroke:#181818;stroke-width:1.0;" x1="35" x2="200" y1="184.0947" y2="184.0947"/><text fill="#000000" font-family="Arial" font-size="13" lengthAdjust="spacing" textLength="152" x="44.5" y="179.3398">Login with email/password</text><polygon fill="#181818" points="387,209.0435,397,213.0435,387,217.0435,391,213.0435" style="stroke:#181818;stroke-width:1.0;"/><line style="stroke:#181818;stroke-width:1.0;" x1="216" x2="393" y1="213.0435" y2="213.0435"/><text fill="#000000" font-family="Arial" font-size="13" lengthAdjust="spacing" textLength="108" x="253.5" y="208.2886">Submit credentials</text><polygon fill="#181818" points="683,237.9922,693,241.9922,683,245.9922,687,241.9922" style="stroke:#181818;stroke-width:1.0;"/><line style="stroke:#181818;stroke-width:1.0;" x1="399" x2="689" y1="241.9922" y2="241.9922"/><text fill="#000000" font-family="Arial" font-size="13" lengthAdjust="spacing" textLength="102" x="496" y="237.2373">Authenticate user</text><polygon fill="#181818" points="410,266.9409,400,270.9409,410,274.9409,406,270.9409" style="stroke:#181818;stroke-width:1.0;"/><line style="stroke:#181818;stroke-width:1.0;stroke-dasharray:2.0,2.0;" x1="404" x2="699" y1="270.9409" y2="270.9409"/><text fill="#000000" font-family="Arial" font-size="13" lengthAdjust="spacing" textLength="105" x="497" y="266.186">Return JWT token</text><polygon fill="#181818" points="227,295.8896,217,299.8896,227,303.8896,223,299.8896" style="stroke:#181818;stroke-width:1.0;"/><line style="stroke:#181818;stroke-width:1.0;stroke-dasharray:2.0,2.0;" x1="221" x2="398" y1="299.8896" y2="299.8896"/><text fill="#000000" font-family="Arial" font-size="13" lengthAdjust="spacing" textLength="159" x="228" y="295.1348">Store auth token in session</text><polygon fill="#181818" points="46,324.8384,36,328.8384,46,332.8384,42,328.8384" style="stroke:#181818;stroke-width:1.0;"/><line style="stroke:#181818;stroke-width:1.0;stroke-dasharray:2.0,2.0;" x1="40" x2="210" y1="328.8384" y2="328.8384"/><text fill="#000000" font-family="Arial" font-size="13" lengthAdjust="spacing" textLength="127" x="59.5" y="324.0835">Redirect to dashboard</text><polygon fill="#181818" points="194,353.7871,204,357.7871,194,361.7871,198,357.7871" style="stroke:#181818;stroke-width:1.0;"/><line style="stroke:#181818;stroke-width:1.0;" x1="35" x2="200" y1="357.7871" y2="357.7871"/><text fill="#000000" font-family="Arial" font-size="13" lengthAdjust="spacing" textLength="135" x="53" y="353.0322">Access protected route</text><polygon fill="#181818" points="471,382.7358,481,386.7358,471,390.7358,475,386.7358" style="stroke:#181818;stroke-width:1.0;"/><line style="stroke:#181818;stroke-width:1.0;" x1="216" x2="477" y1="386.7358" y2="386.7358"/><text fill="#000000" font-family="Arial" font-size="13" lengthAdjust="spacing" textLength="169" x="265" y="381.981">Request data with auth token</text><line style="stroke:#181818;stroke-width:1.0;" x1="493" x2="535" y1="415.6846" y2="415.6846"/><line style="stroke:#181818;stroke-width:1.0;" x1="535" x2="535" y1="415.6846" y2="428.6846"/><line style="stroke:#181818;stroke-width:1.0;" x1="494" x2="535" y1="428.6846" y2="428.6846"/><polygon fill="#181818" points="504,424.6846,494,428.6846,504,432.6846,500,428.6846" style="stroke:#181818;stroke-width:1.0;"/><text fill="#000000" font-family="Arial" font-size="13" lengthAdjust="spacing" textLength="188" x="500" y="410.9297">JWT middleware validates token</text><polygon fill="#181818" points="688,453.6333,698,457.6333,688,461.6333,692,457.6333" style="stroke:#181818;stroke-width:1.0;"/><line style="stroke:#181818;stroke-width:1.0;" x1="493" x2="694" y1="457.6333" y2="457.6333"/><text fill="#000000" font-family="Arial" font-size="13" lengthAdjust="spacing" textLength="135" x="529" y="452.8784">Verify token (if needed)</text><polygon fill="#181818" points="504,482.582,494,486.582,504,490.582,500,486.582" style="stroke:#181818;stroke-width:1.0;"/><line style="stroke:#181818;stroke-width:1.0;stroke-dasharray:2.0,2.0;" x1="498" x2="699" y1="486.582" y2="486.582"/><text fill="#000000" font-family="Arial" font-size="13" lengthAdjust="spacing" textLength="103" x="545" y="481.8271">Token verification</text><polygon fill="#181818" points="797.5,511.5308,807.5,515.5308,797.5,519.5308,801.5,515.5308" style="stroke:#181818;stroke-width:1.0;"/><line style="stroke:#181818;stroke-width:1.0;" x1="493" x2="803.5" y1="515.5308" y2="515.5308"/><text fill="#000000" font-family="Arial" font-size="13" lengthAdjust="spacing" textLength="126" x="588.25" y="510.7759">Fetch authorized data</text><polygon fill="#181818" points="504,540.4795,494,544.4795,504,548.4795,500,544.4795" style="stroke:#181818;stroke-width:1.0;"/><line style="stroke:#181818;stroke-width:1.0;stroke-dasharray:2.0,2.0;" x1="498" x2="808.5" y1="544.4795" y2="544.4795"/><text fill="#000000" font-family="Arial" font-size="13" lengthAdjust="spacing" textLength="67" x="617.75" y="539.7246">Return data</text><polygon fill="#181818" points="227,569.4282,217,573.4282,227,577.4282,223,573.4282" style="stroke:#181818;stroke-width:1.0;"/><line style="stroke:#181818;stroke-width:1.0;stroke-dasharray:2.0,2.0;" x1="221" x2="487" y1="573.4282" y2="573.4282"/><text fill="#000000" font-family="Arial" font-size="13" lengthAdjust="spacing" textLength="131" x="286.5" y="568.6733">Return authorized data</text><polygon fill="#181818" points="46,598.377,36,602.377,46,606.377,42,602.377" style="stroke:#181818;stroke-width:1.0;"/><line style="stroke:#181818;stroke-width:1.0;stroke-dasharray:2.0,2.0;" x1="40" x2="210" y1="602.377" y2="602.377"/><text fill="#000000" font-family="Arial" font-size="13" lengthAdjust="spacing" textLength="90" x="78" y="597.6221">Display content</text><rect fill="#DDDDDD" height="191.085" id="_legend" rx="7.5" ry="7.5" style="stroke:#000000;stroke-width:1.0;" width="307" x="276.75" y="708.4756"/><text fill="#000000" font-family="Arial" font-size="14" font-weight="bold" lengthAdjust="spacing" textLength="78" x="285.75" y="728.6074">Entity Type</text><text fill="#000000" font-family="Arial" font-size="14" font-weight="bold" lengthAdjust="spacing" textLength="79" x="371.75" y="728.6074">Description</text><rect fill="#E9F7EF" height="16.0986" style="stroke:none;stroke-width:1.0;" width="86" x="281.75" y="731.5742"/><text fill="#000000" font-family="Arial" font-size="14" lengthAdjust="spacing" textLength="4" x="281.75" y="744.7061">&#160;</text><text fill="#000000" font-family="Arial" font-size="14" lengthAdjust="spacing" textLength="203" x="371.75" y="744.7061">Frontend - Web/UI Components</text><rect fill="#EBF5FB" height="16.0986" style="stroke:none;stroke-width:1.0;" width="86" x="281.75" y="747.6729"/><text fill="#000000" font-family="Arial" font-size="14" lengthAdjust="spacing" textLength="4" x="281.75" y="760.8047">&#160;</text><text fill="#000000" font-family="Arial" font-size="14" lengthAdjust="spacing" textLength="148" x="371.75" y="760.8047">API - Backend Services</text><rect fill="#F9EBEA" height="16.0986" style="stroke:none;stroke-width:1.0;" width="86" x="281.75" y="763.7715"/><text fill="#000000" font-family="Arial" font-size="14" lengthAdjust="spacing" textLength="4" x="281.75" y="776.9033">&#160;</text><text fill="#000000" font-family="Arial" font-size="14" lengthAdjust="spacing" textLength="190" x="371.75" y="776.9033">Auth - Authentication Services</text><rect fill="#F4ECF7" height="16.0986" style="stroke:none;stroke-width:1.0;" width="86" x="281.75" y="779.8701"/><text fill="#000000" font-family="Arial" font-size="14" lengthAdjust="spacing" textLength="4" x="281.75" y="793.002">&#160;</text><text fill="#000000" font-family="Arial" font-size="14" lengthAdjust="spacing" textLength="158" x="371.75" y="793.002">Database - Data Storage</text><rect fill="#FEF9E7" height="16.0986" style="stroke:none;stroke-width:1.0;" width="86" x="281.75" y="795.9688"/><text fill="#000000" font-family="Arial" font-size="14" lengthAdjust="spacing" textLength="4" x="281.75" y="809.1006">&#160;</text><text fill="#000000" font-family="Arial" font-size="14" lengthAdjust="spacing" textLength="181" x="371.75" y="809.1006">External - 3rd Party Services</text><rect fill="#FADBD8" height="16.0986" style="stroke:none;stroke-width:1.0;" width="86" x="281.75" y="812.0674"/><text fill="#000000" font-family="Arial" font-size="14" lengthAdjust="spacing" textLength="4" x="281.75" y="825.1992">&#160;</text><text fill="#000000" font-family="Arial" font-size="14" lengthAdjust="spacing" textLength="170" x="371.75" y="825.1992">Contract - Smart Contracts</text><rect fill="#FCF3CF" height="16.0986" style="stroke:none;stroke-width:1.0;" width="86" x="281.75" y="828.166"/><text fill="#000000" font-family="Arial" font-size="14" lengthAdjust="spacing" textLength="4" x="281.75" y="841.2979">&#160;</text><text fill="#000000" font-family="Arial" font-size="14" lengthAdjust="spacing" textLength="168" x="371.75" y="841.2979">Queue - Message Queues</text><rect fill="#D6EAF8" height="16.0986" style="stroke:none;stroke-width:1.0;" width="86" x="281.75" y="844.2646"/><text fill="#000000" font-family="Arial" font-size="14" lengthAdjust="spacing" textLength="4" x="281.75" y="857.3965">&#160;</text><text fill="#000000" font-family="Arial" font-size="14" lengthAdjust="spacing" textLength="171" x="371.75" y="857.3965">Operator - Validator Nodes</text><rect fill="#D4EFDF" height="16.0986" style="stroke:none;stroke-width:1.0;" width="86" x="281.75" y="860.3633"/><text fill="#000000" font-family="Arial" font-size="14" lengthAdjust="spacing" textLength="4" x="281.75" y="873.4951">&#160;</text><text fill="#000000" font-family="Arial" font-size="14" lengthAdjust="spacing" textLength="197" x="371.75" y="873.4951">Evaluator - Evaluation Services</text><rect fill="#F5EEF8" height="16.0986" style="stroke:none;stroke-width:1.0;" width="86" x="281.75" y="876.4619"/><text fill="#000000" font-family="Arial" font-size="14" lengthAdjust="spacing" textLength="4" x="281.75" y="889.5938">&#160;</text><text fill="#000000" font-family="Arial" font-size="14" lengthAdjust="spacing" textLength="171" x="371.75" y="889.5938">Storage - Storage Services</text><line style="stroke:#000000;stroke-width:1.0;" x1="281.75" x2="578.75" y1="715.4756" y2="715.4756"/><line style="stroke:#000000;stroke-width:1.0;" x1="281.75" x2="578.75" y1="731.5742" y2="731.5742"/><line style="stroke:#000000;stroke-width:1.0;" x1="281.75" x2="578.75" y1="747.6729" y2="747.6729"/><line style="stroke:#000000;stroke-width:1.0;" x1="281.75" x2="578.75" y1="763.7715" y2="763.7715"/><line style="stroke:#000000;stroke-width:1.0;" x1="281.75" x2="578.75" y1="779.8701" y2="779.8701"/><line style="stroke:#000000;stroke-width:1.0;" x1="281.75" x2="578.75" y1="795.9688" y2="795.9688"/><line style="stroke:#000000;stroke-width:1.0;" x1="281.75" x2="578.75" y1="812.0674" y2="812.0674"/><line style="stroke:#000000;stroke-width:1.0;" x1="281.75" x2="578.75" y1="828.166" y2="828.166"/><line style="stroke:#000000;stroke-width:1.0;" x1="281.75" x2="578.75" y1="844.2646" y2="844.2646"/><line style="stroke:#000000;stroke-width:1.0;" x1="281.75" x2="578.75" y1="860.3633" y2="860.3633"/><line style="stroke:#000000;stroke-width:1.0;" x1="281.75" x2="578.75" y1="876.4619" y2="876.4619"/><line style="stroke:#000000;stroke-width:1.0;" x1="281.75" x2="578.75" y1="892.5605" y2="892.5605"/><line style="stroke:#000000;stroke-width:1.0;" x1="281.75" x2="281.75" y1="715.4756" y2="892.5605"/><line style="stroke:#000000;stroke-width:1.0;" x1="367.75" x2="367.75" y1="715.4756" y2="892.5605"/><line style="stroke:#000000;stroke-width:1.0;" x1="578.75" x2="578.75" y1="715.4756" y2="892.5605"/><!--SRC=[XLJ1Rjim3BthAxYUDc3Pxa4H85iMeCCm14ktdXcBRON9aYVHIREl7wdOZfq6sCcM-HwVtYFXDovKlhK4LQph66QPZvu-D6tjZM77dk1dfWJBbfyfiAkGNGomzl5W35OSKwcR1fCKNOE1uMR97ZEiKmnCmTx0w02tj_thOZ5bVQSNBZg5e2Sz244Vb-2Jn79pLy3oLDpcxXNiOGkVurDm70kmUnVmbnUc5D1VCbR8kCDC1Rxw9CZ-Yo1DY4mGztHo_Lu0ywlvR5AiA6TZId6s6FpFuLjySW4EJgnHZSv_R33dGqnMutHx584UR8RKf4CVo1osxQvs35KYgvBeindI4c3dSJw-4q6hKneKEepfyvXD17uGjod0ruTxuFYRWh7qYdbMdBZRoaOGe1OA5SHhbYGab94ReMWmgcHTeee531RpyowY136I6wAuakIoqeoXIJAKYib2YYtJVsAK9L7PForb5ad6qoZEDpxp1MfqitgMvb4xQpqTK4pkqJjfGBdZTT0X_b-KtEEnY-6jUuH0CZ3xRX9wQNnV87l5TmlKDzFzMXDNfml6vFwAJRsraTMSdUsKUPNlXJY9gQjUDXY5h4Ql36VbSkFnA7y6hV2riVm3]--></g></svg>