<?xml version="1.0" encoding="us-ascii" standalone="no"?><svg xmlns="http://www.w3.org/2000/svg" xmlns:xlink="http://www.w3.org/1999/xlink" contentStyleType="text/css" height="919px" preserveAspectRatio="none" style="width:849px;height:919px;background:#FFFFFF;" version="1.1" viewBox="0 0 849 919" width="849px" zoomAndPan="magnify"><defs/><g><text fill="#000000" font-family="Arial" font-size="14" font-weight="bold" lengthAdjust="spacing" textLength="174" x="336.75" y="28.1318">User Authentication Flow</text><rect fill="#FFFFFF" height="144.7437" style="stroke:#181818;stroke-width:1.0;" width="10" x="205" y="184.0947"/><rect fill="#FFFFFF" height="244.5898" style="stroke:#181818;stroke-width:1.0;" width="10" x="205" y="357.7871"/><rect fill="#FFFFFF" height="186.6924" style="stroke:#181818;stroke-width:1.0;" width="10" x="476.5" y="386.7358"/><rect fill="#FFFFFF" height="28.9487" style="stroke:#181818;stroke-width:1.0;" width="10" x="688.5" y="241.9922"/><line style="stroke:#181818;stroke-width:0.5;stroke-dasharray:5.0,5.0;" x1="34" x2="34" y1="118.1973" y2="620.377"/><line style="stroke:#181818;stroke-width:0.5;stroke-dasharray:5.0,5.0;" x1="209.5" x2="209.5" y1="118.1973" y2="620.377"/><line style="stroke:#181818;stroke-width:0.5;stroke-dasharray:5.0,5.0;" x1="398" x2="398" y1="118.1973" y2="620.377"/><line style="stroke:#181818;stroke-width:0.5;stroke-dasharray:5.0,5.0;" x1="481" x2="481" y1="118.1973" y2="620.377"/><line style="stroke:#181818;stroke-width:0.5;stroke-dasharray:5.0,5.0;" x1="693.5" x2="693.5" y1="118.1973" y2="620.377"/><line style="stroke:#181818;stroke-width:0.5;stroke-dasharray:5.0,5.0;" x1="797.5" x2="797.5" y1="118.1973" y2="620.377"/><text fill="#000000" font-family="Arial" font-size="14" lengthAdjust="spacing" textLength="30" x="16" y="115.2305">User</text><ellipse cx="34" cy="50.5986" fill="#E2E2F0" rx="8" ry="8" style="stroke:#181818;stroke-width:0.5;"/><path d="M34,58.5986 L34,85.5986 M21,66.5986 L47,66.5986 M34,85.5986 L21,100.5986 M34,85.5986 L47,100.5986 " fill="none" style="stroke:#181818;stroke-width:0.5;"/><text fill="#000000" font-family="Arial" font-size="14" lengthAdjust="spacing" textLength="30" x="16" y="632.5088">User</text><ellipse cx="34" cy="643.9756" fill="#E2E2F0" rx="8" ry="8" style="stroke:#181818;stroke-width:0.5;"/><path d="M34,651.9756 L34,678.9756 M21,659.9756 L47,659.9756 M34,678.9756 L21,693.9756 M34,678.9756 L47,693.9756 " fill="none" style="stroke:#181818;stroke-width:0.5;"/><rect fill="#E9F7EF" height="46.1973" rx="2.5" ry="2.5" style="stroke:#27AE60;stroke-width:0.5;" width="107" x="156.5" y="71"/><text fill="#000000" font-family="Arial" font-size="14" font-style="italic" lengthAdjust="spacing" textLength="74" x="173" y="91.1318">&#171;Frontend&#187;</text><text fill="#000000" font-family="Arial" font-size="14" lengthAdjust="spacing" textLength="93" x="163.5" y="107.2305">Atlas Frontend</text><rect fill="#E9F7EF" height="46.1973" rx="2.5" ry="2.5" style="stroke:#27AE60;stroke-width:0.5;" width="107" x="156.5" y="619.377"/><text fill="#000000" font-family="Arial" font-size="14" font-style="italic" lengthAdjust="spacing" textLength="74" x="173" y="639.5088">&#171;Frontend&#187;</text><text fill="#000000" font-family="Arial" font-size="14" lengthAdjust="spacing" textLength="93" x="163.5" y="655.6074">Atlas Frontend</text><rect fill="#F9EBEA" height="46.1973" rx="2.5" ry="2.5" style="stroke:#E74C3C;stroke-width:0.5;" width="76" x="360" y="71"/><text fill="#000000" font-family="Arial" font-size="14" font-style="italic" lengthAdjust="spacing" textLength="45" x="375.5" y="91.1318">&#171;Auth&#187;</text><text fill="#000000" font-family="Arial" font-size="14" lengthAdjust="spacing" textLength="62" x="367" y="107.2305">Next Auth</text><rect fill="#F9EBEA" height="46.1973" rx="2.5" ry="2.5" style="stroke:#E74C3C;stroke-width:0.5;" width="76" x="360" y="619.377"/><text fill="#000000" font-family="Arial" font-size="14" font-style="italic" lengthAdjust="spacing" textLength="45" x="375.5" y="639.5088">&#171;Auth&#187;</text><text fill="#000000" font-family="Arial" font-size="14" lengthAdjust="spacing" textLength="62" x="367" y="655.6074">Next Auth</text><rect fill="#EBF5FB" height="46.1973" rx="2.5" ry="2.5" style="stroke:#3498DB;stroke-width:0.5;" width="71" x="446" y="71"/><text fill="#000000" font-family="Arial" font-size="14" font-style="italic" lengthAdjust="spacing" textLength="38" x="462.5" y="91.1318">&#171;API&#187;</text><text fill="#000000" font-family="Arial" font-size="14" lengthAdjust="spacing" textLength="57" x="453" y="107.2305">Atlas API</text><rect fill="#EBF5FB" height="46.1973" rx="2.5" ry="2.5" style="stroke:#3498DB;stroke-width:0.5;" width="71" x="446" y="619.377"/><text fill="#000000" font-family="Arial" font-size="14" font-style="italic" lengthAdjust="spacing" textLength="38" x="462.5" y="639.5088">&#171;API&#187;</text><text fill="#000000" font-family="Arial" font-size="14" lengthAdjust="spacing" textLength="57" x="453" y="655.6074">Atlas API</text><rect fill="#FEF9E7" height="46.1973" rx="2.5" ry="2.5" style="stroke:#F1C40F;stroke-width:0.5;" width="98" x="644.5" y="71"/><text fill="#000000" font-family="Arial" font-size="14" font-style="italic" lengthAdjust="spacing" textLength="68" x="659.5" y="91.1318">&#171;External&#187;</text><text fill="#000000" font-family="Arial" font-size="14" lengthAdjust="spacing" textLength="84" x="651.5" y="107.2305">AWS Cognito</text><rect fill="#FEF9E7" height="46.1973" rx="2.5" ry="2.5" style="stroke:#F1C40F;stroke-width:0.5;" width="98" x="644.5" y="619.377"/><text fill="#000000" font-family="Arial" font-size="14" font-style="italic" lengthAdjust="spacing" textLength="68" x="659.5" y="639.5088">&#171;External&#187;</text><text fill="#000000" font-family="Arial" font-size="14" lengthAdjust="spacing" textLength="84" x="651.5" y="655.6074">AWS Cognito</text><rect fill="#F4ECF7" height="46.1973" rx="2.5" ry="2.5" style="stroke:#8E44AD;stroke-width:0.5;" width="91" x="752.5" y="71"/><text fill="#000000" font-family="Arial" font-size="14" font-style="italic" lengthAdjust="spacing" textLength="77" x="759.5" y="91.1318">&#171;Database&#187;</text><text fill="#000000" font-family="Arial" font-size="14" lengthAdjust="spacing" textLength="61" x="767.5" y="107.2305">Database</text><rect fill="#F4ECF7" height="46.1973" rx="2.5" ry="2.5" style="stroke:#8E44AD;stroke-width:0.5;" width="91" x="752.5" y="619.377"/><text fill="#000000" font-family="Arial" font-size="14" font-style="italic" lengthAdjust="spacing" textLength="77" x="759.5" y="639.5088">&#171;Database&#187;</text><text fill="#000000" font-family="Arial" font-size="14" lengthAdjust="spacing" textLength="61" x="767.5" y="655.6074">Database</text><rect fill="#FFFFFF" height="144.7437" style="stroke:#181818;stroke-width:1.0;" width="10" x="205" y="184.0947"/><rect fill="#FFFFFF" height="244.5898" style="stroke:#181818;stroke-width:1.0;" width="10" x="205" y="357.7871"/><rect fill="#FFFFFF" height="186.6924" style="stroke:#181818;stroke-width:1.0;" width="10" x="476.5" y="386.7358"/><rect fill="#FFFFFF" height="28.9487" style="stroke:#181818;stroke-width:1.0;" width="10" x="688.5" y="241.9922"/><path d="M5,133.1973 L5,157.1973 L827,157.1973 L827,143.1973 L817,133.1973 L5,133.1973 " fill="#FEFFDD" style="stroke:#181818;stroke-width:0.5;"/><path d="M817,133.1973 L817,143.1973 L827,143.1973 L817,133.1973 " fill="#FEFFDD" style="stroke:#181818;stroke-width:0.5;"/><text fill="#000000" font-family="Arial" font-size="13" lengthAdjust="spacing" textLength="166" x="328.75" y="150.3911">User Authentication Process</text><polygon fill="#181818" points="193,180.0947,203,184.0947,193,188.0947,197,184.0947" style="stroke:#181818;stroke-width:1.0;"/><line style="stroke:#181818;stroke-width:1.0;" x1="34" x2="199" y1="184.0947" y2="184.0947"/><text fill="#000000" font-family="Arial" font-size="13" lengthAdjust="spacing" textLength="152" x="43.5" y="179.3398">Login with email/password</text><polygon fill="#181818" points="386,209.0435,396,213.0435,386,217.0435,390,213.0435" style="stroke:#181818;stroke-width:1.0;"/><line style="stroke:#181818;stroke-width:1.0;" x1="215" x2="392" y1="213.0435" y2="213.0435"/><text fill="#000000" font-family="Arial" font-size="13" lengthAdjust="spacing" textLength="108" x="252.5" y="208.2886">Submit credentials</text><polygon fill="#181818" points="676.5,237.9922,686.5,241.9922,676.5,245.9922,680.5,241.9922" style="stroke:#181818;stroke-width:1.0;"/><line style="stroke:#181818;stroke-width:1.0;" x1="398" x2="682.5" y1="241.9922" y2="241.9922"/><text fill="#000000" font-family="Arial" font-size="13" lengthAdjust="spacing" textLength="102" x="492.25" y="237.2373">Authenticate user</text><polygon fill="#181818" points="409,266.9409,399,270.9409,409,274.9409,405,270.9409" style="stroke:#181818;stroke-width:1.0;"/><line style="stroke:#181818;stroke-width:1.0;stroke-dasharray:2.0,2.0;" x1="403" x2="692.5" y1="270.9409" y2="270.9409"/><text fill="#000000" font-family="Arial" font-size="13" lengthAdjust="spacing" textLength="105" x="493.25" y="266.186">Return JWT token</text><polygon fill="#181818" points="226,295.8896,216,299.8896,226,303.8896,222,299.8896" style="stroke:#181818;stroke-width:1.0;"/><line style="stroke:#181818;stroke-width:1.0;stroke-dasharray:2.0,2.0;" x1="220" x2="397" y1="299.8896" y2="299.8896"/><text fill="#000000" font-family="Arial" font-size="13" lengthAdjust="spacing" textLength="159" x="227" y="295.1348">Store auth token in session</text><polygon fill="#181818" points="45,324.8384,35,328.8384,45,332.8384,41,328.8384" style="stroke:#181818;stroke-width:1.0;"/><line style="stroke:#181818;stroke-width:1.0;stroke-dasharray:2.0,2.0;" x1="39" x2="209" y1="328.8384" y2="328.8384"/><text fill="#000000" font-family="Arial" font-size="13" lengthAdjust="spacing" textLength="127" x="58.5" y="324.0835">Redirect to dashboard</text><polygon fill="#181818" points="193,353.7871,203,357.7871,193,361.7871,197,357.7871" style="stroke:#181818;stroke-width:1.0;"/><line style="stroke:#181818;stroke-width:1.0;" x1="34" x2="199" y1="357.7871" y2="357.7871"/><text fill="#000000" font-family="Arial" font-size="13" lengthAdjust="spacing" textLength="135" x="52" y="353.0322">Access protected route</text><polygon fill="#181818" points="464.5,382.7358,474.5,386.7358,464.5,390.7358,468.5,386.7358" style="stroke:#181818;stroke-width:1.0;"/><line style="stroke:#181818;stroke-width:1.0;" x1="215" x2="470.5" y1="386.7358" y2="386.7358"/><text fill="#000000" font-family="Arial" font-size="13" lengthAdjust="spacing" textLength="169" x="261.25" y="381.981">Request data with auth token</text><line style="stroke:#181818;stroke-width:1.0;" x1="486.5" x2="528.5" y1="415.6846" y2="415.6846"/><line style="stroke:#181818;stroke-width:1.0;" x1="528.5" x2="528.5" y1="415.6846" y2="428.6846"/><line style="stroke:#181818;stroke-width:1.0;" x1="487.5" x2="528.5" y1="428.6846" y2="428.6846"/><polygon fill="#181818" points="497.5,424.6846,487.5,428.6846,497.5,432.6846,493.5,428.6846" style="stroke:#181818;stroke-width:1.0;"/><text fill="#000000" font-family="Arial" font-size="13" lengthAdjust="spacing" textLength="188" x="493.5" y="410.9297">JWT middleware validates token</text><polygon fill="#181818" points="681.5,453.6333,691.5,457.6333,681.5,461.6333,685.5,457.6333" style="stroke:#181818;stroke-width:1.0;"/><line style="stroke:#181818;stroke-width:1.0;" x1="486.5" x2="687.5" y1="457.6333" y2="457.6333"/><text fill="#000000" font-family="Arial" font-size="13" lengthAdjust="spacing" textLength="135" x="522.5" y="452.8784">Verify token (if needed)</text><polygon fill="#181818" points="497.5,482.582,487.5,486.582,497.5,490.582,493.5,486.582" style="stroke:#181818;stroke-width:1.0;"/><line style="stroke:#181818;stroke-width:1.0;stroke-dasharray:2.0,2.0;" x1="491.5" x2="692.5" y1="486.582" y2="486.582"/><text fill="#000000" font-family="Arial" font-size="13" lengthAdjust="spacing" textLength="103" x="538.5" y="481.8271">Token verification</text><polygon fill="#181818" points="786,511.5308,796,515.5308,786,519.5308,790,515.5308" style="stroke:#181818;stroke-width:1.0;"/><line style="stroke:#181818;stroke-width:1.0;" x1="486.5" x2="792" y1="515.5308" y2="515.5308"/><text fill="#000000" font-family="Arial" font-size="13" lengthAdjust="spacing" textLength="126" x="579.25" y="510.7759">Fetch authorized data</text><polygon fill="#181818" points="497.5,540.4795,487.5,544.4795,497.5,548.4795,493.5,544.4795" style="stroke:#181818;stroke-width:1.0;"/><line style="stroke:#181818;stroke-width:1.0;stroke-dasharray:2.0,2.0;" x1="491.5" x2="797" y1="544.4795" y2="544.4795"/><text fill="#000000" font-family="Arial" font-size="13" lengthAdjust="spacing" textLength="67" x="608.75" y="539.7246">Return data</text><polygon fill="#181818" points="226,569.4282,216,573.4282,226,577.4282,222,573.4282" style="stroke:#181818;stroke-width:1.0;"/><line style="stroke:#181818;stroke-width:1.0;stroke-dasharray:2.0,2.0;" x1="220" x2="480.5" y1="573.4282" y2="573.4282"/><text fill="#000000" font-family="Arial" font-size="13" lengthAdjust="spacing" textLength="131" x="282.75" y="568.6733">Return authorized data</text><polygon fill="#181818" points="45,598.377,35,602.377,45,606.377,41,602.377" style="stroke:#181818;stroke-width:1.0;"/><line style="stroke:#181818;stroke-width:1.0;stroke-dasharray:2.0,2.0;" x1="39" x2="209" y1="602.377" y2="602.377"/><text fill="#000000" font-family="Arial" font-size="13" lengthAdjust="spacing" textLength="90" x="77" y="597.6221">Display content</text><rect fill="#DDDDDD" height="191.085" id="_legend" rx="7.5" ry="7.5" style="stroke:#000000;stroke-width:1.0;" width="183" x="332.25" y="708.4756"/><text fill="#000000" font-family="Arial" font-size="14" font-weight="bold" lengthAdjust="spacing" textLength="78" x="341.25" y="728.6074">Entity Type</text><text fill="#000000" font-family="Arial" font-size="14" font-weight="bold" lengthAdjust="spacing" textLength="79" x="427.25" y="728.6074">Description</text><rect fill="#E9F7EF" height="16.0986" style="stroke:none;stroke-width:1.0;" width="86" x="337.25" y="731.5742"/><text fill="#000000" font-family="Arial" font-size="14" lengthAdjust="spacing" textLength="4" x="337.25" y="744.7061">&#160;</text><text fill="#000000" font-family="Arial" font-size="14" lengthAdjust="spacing" textLength="58" x="427.25" y="744.7061">Frontend</text><rect fill="#EBF5FB" height="16.0986" style="stroke:none;stroke-width:1.0;" width="86" x="337.25" y="747.6729"/><text fill="#000000" font-family="Arial" font-size="14" lengthAdjust="spacing" textLength="4" x="337.25" y="760.8047">&#160;</text><text fill="#000000" font-family="Arial" font-size="14" lengthAdjust="spacing" textLength="22" x="427.25" y="760.8047">API</text><rect fill="#F9EBEA" height="16.0986" style="stroke:none;stroke-width:1.0;" width="86" x="337.25" y="763.7715"/><text fill="#000000" font-family="Arial" font-size="14" lengthAdjust="spacing" textLength="4" x="337.25" y="776.9033">&#160;</text><text fill="#000000" font-family="Arial" font-size="14" lengthAdjust="spacing" textLength="29" x="427.25" y="776.9033">Auth</text><rect fill="#F4ECF7" height="16.0986" style="stroke:none;stroke-width:1.0;" width="86" x="337.25" y="779.8701"/><text fill="#000000" font-family="Arial" font-size="14" lengthAdjust="spacing" textLength="4" x="337.25" y="793.002">&#160;</text><text fill="#000000" font-family="Arial" font-size="14" lengthAdjust="spacing" textLength="61" x="427.25" y="793.002">Database</text><rect fill="#FEF9E7" height="16.0986" style="stroke:none;stroke-width:1.0;" width="86" x="337.25" y="795.9688"/><text fill="#000000" font-family="Arial" font-size="14" lengthAdjust="spacing" textLength="4" x="337.25" y="809.1006">&#160;</text><text fill="#000000" font-family="Arial" font-size="14" lengthAdjust="spacing" textLength="52" x="427.25" y="809.1006">External</text><rect fill="#FADBD8" height="16.0986" style="stroke:none;stroke-width:1.0;" width="86" x="337.25" y="812.0674"/><text fill="#000000" font-family="Arial" font-size="14" lengthAdjust="spacing" textLength="4" x="337.25" y="825.1992">&#160;</text><text fill="#000000" font-family="Arial" font-size="14" lengthAdjust="spacing" textLength="54" x="427.25" y="825.1992">Contract</text><rect fill="#FCF3CF" height="16.0986" style="stroke:none;stroke-width:1.0;" width="86" x="337.25" y="828.166"/><text fill="#000000" font-family="Arial" font-size="14" lengthAdjust="spacing" textLength="4" x="337.25" y="841.2979">&#160;</text><text fill="#000000" font-family="Arial" font-size="14" lengthAdjust="spacing" textLength="43" x="427.25" y="841.2979">Queue</text><rect fill="#D6EAF8" height="16.0986" style="stroke:none;stroke-width:1.0;" width="86" x="337.25" y="844.2646"/><text fill="#000000" font-family="Arial" font-size="14" lengthAdjust="spacing" textLength="4" x="337.25" y="857.3965">&#160;</text><text fill="#000000" font-family="Arial" font-size="14" lengthAdjust="spacing" textLength="57" x="427.25" y="857.3965">Operator</text><rect fill="#D4EFDF" height="16.0986" style="stroke:none;stroke-width:1.0;" width="86" x="337.25" y="860.3633"/><text fill="#000000" font-family="Arial" font-size="14" lengthAdjust="spacing" textLength="4" x="337.25" y="873.4951">&#160;</text><text fill="#000000" font-family="Arial" font-size="14" lengthAdjust="spacing" textLength="60" x="427.25" y="873.4951">Evaluator</text><rect fill="#F5EEF8" height="16.0986" style="stroke:none;stroke-width:1.0;" width="86" x="337.25" y="876.4619"/><text fill="#000000" font-family="Arial" font-size="14" lengthAdjust="spacing" textLength="4" x="337.25" y="889.5938">&#160;</text><text fill="#000000" font-family="Arial" font-size="14" lengthAdjust="spacing" textLength="50" x="427.25" y="889.5938">Storage</text><line style="stroke:#000000;stroke-width:1.0;" x1="337.25" x2="510.25" y1="715.4756" y2="715.4756"/><line style="stroke:#000000;stroke-width:1.0;" x1="337.25" x2="510.25" y1="731.5742" y2="731.5742"/><line style="stroke:#000000;stroke-width:1.0;" x1="337.25" x2="510.25" y1="747.6729" y2="747.6729"/><line style="stroke:#000000;stroke-width:1.0;" x1="337.25" x2="510.25" y1="763.7715" y2="763.7715"/><line style="stroke:#000000;stroke-width:1.0;" x1="337.25" x2="510.25" y1="779.8701" y2="779.8701"/><line style="stroke:#000000;stroke-width:1.0;" x1="337.25" x2="510.25" y1="795.9688" y2="795.9688"/><line style="stroke:#000000;stroke-width:1.0;" x1="337.25" x2="510.25" y1="812.0674" y2="812.0674"/><line style="stroke:#000000;stroke-width:1.0;" x1="337.25" x2="510.25" y1="828.166" y2="828.166"/><line style="stroke:#000000;stroke-width:1.0;" x1="337.25" x2="510.25" y1="844.2646" y2="844.2646"/><line style="stroke:#000000;stroke-width:1.0;" x1="337.25" x2="510.25" y1="860.3633" y2="860.3633"/><line style="stroke:#000000;stroke-width:1.0;" x1="337.25" x2="510.25" y1="876.4619" y2="876.4619"/><line style="stroke:#000000;stroke-width:1.0;" x1="337.25" x2="510.25" y1="892.5605" y2="892.5605"/><line style="stroke:#000000;stroke-width:1.0;" x1="337.25" x2="337.25" y1="715.4756" y2="892.5605"/><line style="stroke:#000000;stroke-width:1.0;" x1="423.25" x2="423.25" y1="715.4756" y2="892.5605"/><line style="stroke:#000000;stroke-width:1.0;" x1="510.25" x2="510.25" y1="715.4756" y2="892.5605"/><!--SRC=[XLJ1Rjim3BthAxYUDc3Pxa4H85iMeCCm14ktdXcBRON9aYVHIREl7wdOZfq6sCcM-HwVtYFXDovKlhK4LQph66QPZvu-D6tjZM77dk1dfWJBbfyfiAkGNGomzl5W35OSKwcR1fCKNOE1uMR97ZEiKmnCmTx0w02tj_thOZ5bVQSNBZg5e2Sz244Vb-2Jn79pLy3oLDpcxXNiOGkVurDm70kmUnVmbnUc5D1VCbR8kCDC1Rxw9CZ-Yo1DY4mGztHo_Lu0ywlvR5AiA6TZId6s6FpFuLjySW4EJgnHZSv_R33dGqnMutHx584UR8RKf4CVo1osxQvs35KYgvBeindI4c3dSJw-4q6hKneKEepfyvXD17uGjod0ruTxuFYRWh7qYdbMdBZRoaOGe1OA5SHhbYGab94ReMWmgcHTeee531RpyowY136I6wAuakIoqeoXIJAKYib2YYtJVsAK9L7PForb5ad6qoZEDpxp1MfqitgMvb4xQpqTK4pkqJjfGBdZTT0X_b-KtEEnY-6jUuH0CZ3xRX9wQNnV87l5TmlKDzFzMXDNfml6vFwAJRsraTMSdUsKUPNlXJY9gQjUDXY5h4Ql36VbSkFnA7y6hV2riVm3]--></g></svg>