<?xml version="1.0" encoding="us-ascii" standalone="no"?><svg xmlns="http://www.w3.org/2000/svg" xmlns:xlink="http://www.w3.org/1999/xlink" contentStyleType="text/css" height="1090px" preserveAspectRatio="none" style="width:1519px;height:1090px;background:#FFFFFF;" version="1.1" viewBox="0 0 1519 1090" width="1519px" zoomAndPan="magnify"><defs><filter height="1" id="b29hys389j7mc0" width="1" x="0" y="0"><feFlood flood-color="#E9F7EF" result="flood"/><feComposite in="SourceGraphic" in2="flood" operator="over"/></filter><filter height="1" id="b29hys389j7mc1" width="1" x="0" y="0"><feFlood flood-color="#EBF5FB" result="flood"/><feComposite in="SourceGraphic" in2="flood" operator="over"/></filter><filter height="1" id="b29hys389j7mc2" width="1" x="0" y="0"><feFlood flood-color="#F9EBEA" result="flood"/><feComposite in="SourceGraphic" in2="flood" operator="over"/></filter><filter height="1" id="b29hys389j7mc3" width="1" x="0" y="0"><feFlood flood-color="#F4ECF7" result="flood"/><feComposite in="SourceGraphic" in2="flood" operator="over"/></filter><filter height="1" id="b29hys389j7mc4" width="1" x="0" y="0"><feFlood flood-color="#FEF9E7" result="flood"/><feComposite in="SourceGraphic" in2="flood" operator="over"/></filter><filter height="1" id="b29hys389j7mc5" width="1" x="0" y="0"><feFlood flood-color="#FADBD8" result="flood"/><feComposite in="SourceGraphic" in2="flood" operator="over"/></filter><filter height="1" id="b29hys389j7mc6" width="1" x="0" y="0"><feFlood flood-color="#FCF3CF" result="flood"/><feComposite in="SourceGraphic" in2="flood" operator="over"/></filter><filter height="1" id="b29hys389j7mc7" width="1" x="0" y="0"><feFlood flood-color="#D6EAF8" result="flood"/><feComposite in="SourceGraphic" in2="flood" operator="over"/></filter><filter height="1" id="b29hys389j7mc8" width="1" x="0" y="0"><feFlood flood-color="#D4EFDF" result="flood"/><feComposite in="SourceGraphic" in2="flood" operator="over"/></filter><filter height="1" id="b29hys389j7mc9" width="1" x="0" y="0"><feFlood flood-color="#F5EEF8" result="flood"/><feComposite in="SourceGraphic" in2="flood" operator="over"/></filter></defs><g><!--cluster Frontend--><g id="cluster_Frontend"><rect fill="none" height="344" rx="4" ry="4" style="stroke:#999999;stroke-width:1.0;" width="343" x="1168" y="123"/><text fill="#000000" font-family="sans-serif" font-size="14" font-weight="bold" lengthAdjust="spacing" textLength="72" x="1303.5" y="137.9951">Frontend</text></g><!--cluster API--><g id="cluster_API"><rect fill="none" height="229" rx="4" ry="4" style="stroke:#999999;stroke-width:1.0;" width="404" x="371" y="370"/><text fill="#000000" font-family="sans-serif" font-size="14" font-weight="bold" lengthAdjust="spacing" textLength="25" x="560.5" y="384.9951">API</text></g><!--cluster Core--><g id="cluster_Core"><rect fill="none" height="97" rx="4" ry="4" style="stroke:#999999;stroke-width:1.0;" width="716" x="14" y="634"/><text fill="#000000" font-family="sans-serif" font-size="14" font-weight="bold" lengthAdjust="spacing" textLength="38" x="353" y="648.9951">Core</text></g><!--cluster Integration--><g id="cluster_Integration"><rect fill="none" height="229" rx="4" ry="4" style="stroke:#999999;stroke-width:1.0;" width="292" x="1005" y="502"/><text fill="#000000" font-family="sans-serif" font-size="14" font-weight="bold" lengthAdjust="spacing" textLength="86" x="1108" y="516.9951">Integration</text></g><!--cluster Data--><g id="cluster_Data"><rect fill="none" height="97" rx="4" ry="4" style="stroke:#999999;stroke-width:1.0;" width="504" x="290" y="766"/><text fill="#000000" font-family="sans-serif" font-size="14" font-weight="bold" lengthAdjust="spacing" textLength="35" x="524.5" y="780.9951">Data</text></g><!--cluster External--><g id="cluster_External"><rect fill="none" height="97" rx="4" ry="4" style="stroke:#999999;stroke-width:1.0;" width="366" x="1137" y="766"/><text fill="#000000" font-family="sans-serif" font-size="14" font-weight="bold" lengthAdjust="spacing" textLength="64" x="1288" y="780.9951">External</text></g><!--entity user--><g id="elem_user"><ellipse cx="1250" cy="12.5" fill="#F1F1F1" rx="8" ry="8" style="stroke:#181818;stroke-width:0.5;"/><path d="M1250,20.5 L1250,47.5 M1237,28.5 L1263,28.5 M1250,47.5 L1237,62.5 M1250,47.5 L1263,62.5 " fill="none" style="stroke:#181818;stroke-width:0.5;"/><text fill="#000000" font-family="sans-serif" font-size="14" lengthAdjust="spacing" textLength="32" x="1234" y="76.9951">User</text></g><!--entity web_ui--><g id="elem_web_ui"><rect fill="#E9F7EF" height="61.9063" rx="4" ry="4" style="stroke:#27AE60;stroke-width:2.0;" width="98" x="1201" y="150"/><text fill="#000000" font-family="Arial" font-size="12" font-style="italic" lengthAdjust="spacing" textLength="71" x="1214.5" y="171.1387">&#171;Frontend&#187;</text><text fill="#000000" font-family="Arial" font-size="12" lengthAdjust="spacing" textLength="78" x="1211" y="185.1074">Atlas Web UI</text><text fill="#000000" font-family="Arial" font-size="12" lengthAdjust="spacing" textLength="46" x="1227" y="199.0762">(React)</text></g><!--entity nextjs--><g id="elem_nextjs"><rect fill="#E9F7EF" height="61.9063" rx="4" ry="4" style="stroke:#27AE60;stroke-width:2.0;" width="91" x="1204.5" y="265"/><text fill="#000000" font-family="Arial" font-size="12" font-style="italic" lengthAdjust="spacing" textLength="71" x="1214.5" y="286.1387">&#171;Frontend&#187;</text><text fill="#000000" font-family="Arial" font-size="12" lengthAdjust="spacing" textLength="70" x="1215" y="300.1074">Next.js App</text><text fill="#000000" font-family="Arial" font-size="12" lengthAdjust="spacing" textLength="57" x="1221.5" y="314.0762">(Node.js)</text></g><!--entity auth--><g id="elem_auth"><rect fill="#F9EBEA" height="61.9063" rx="4" ry="4" style="stroke:#E74C3C;stroke-width:2.0;" width="161" x="1341.5" y="397"/><text fill="#000000" font-family="Arial" font-size="12" font-style="italic" lengthAdjust="spacing" textLength="43" x="1400.5" y="418.1387">&#171;Auth&#187;</text><text fill="#000000" font-family="Arial" font-size="12" lengthAdjust="spacing" textLength="141" x="1351.5" y="432.1074">Authentication Module</text><text fill="#000000" font-family="Arial" font-size="12" lengthAdjust="spacing" textLength="67" x="1388.5" y="446.0762">(NextAuth)</text></g><!--entity viz--><g id="elem_viz"><rect fill="#E9F7EF" height="61.9063" rx="4" ry="4" style="stroke:#27AE60;stroke-width:2.0;" width="147" x="1176.5" y="397"/><text fill="#000000" font-family="Arial" font-size="12" font-style="italic" lengthAdjust="spacing" textLength="71" x="1214.5" y="418.1387">&#171;Frontend&#187;</text><text fill="#000000" font-family="Arial" font-size="12" lengthAdjust="spacing" textLength="127" x="1186.5" y="432.1074">Results Visualization</text><text fill="#000000" font-family="Arial" font-size="12" lengthAdjust="spacing" textLength="46" x="1227" y="446.0762">(React)</text></g><!--entity api_gw--><g id="elem_api_gw"><rect fill="#EBF5FB" height="61.9063" rx="4" ry="4" style="stroke:#3498DB;stroke-width:2.0;" width="96" x="574" y="397"/><text fill="#000000" font-family="Arial" font-size="12" font-style="italic" lengthAdjust="spacing" textLength="33" x="605.5" y="418.1387">&#171;API&#187;</text><text fill="#000000" font-family="Arial" font-size="12" lengthAdjust="spacing" textLength="76" x="584" y="432.1074">API Gateway</text><text fill="#000000" font-family="Arial" font-size="12" lengthAdjust="spacing" textLength="27" x="608.5" y="446.0762">(Go)</text></g><!--entity go_backend--><g id="elem_go_backend"><rect fill="#EBF5FB" height="61.9063" rx="4" ry="4" style="stroke:#3498DB;stroke-width:2.0;" width="118" x="379" y="529"/><text fill="#000000" font-family="Arial" font-size="12" font-style="italic" lengthAdjust="spacing" textLength="33" x="421.5" y="550.1387">&#171;API&#187;</text><text fill="#000000" font-family="Arial" font-size="12" lengthAdjust="spacing" textLength="98" x="389" y="564.1074">Go Backend API</text><text fill="#000000" font-family="Arial" font-size="12" lengthAdjust="spacing" textLength="27" x="424.5" y="578.0762">(Go)</text></g><!--entity websocket--><g id="elem_websocket"><rect fill="#EBF5FB" height="61.9063" rx="4" ry="4" style="stroke:#3498DB;stroke-width:2.0;" width="139" x="515.5" y="529"/><text fill="#000000" font-family="Arial" font-size="12" font-style="italic" lengthAdjust="spacing" textLength="33" x="568.5" y="550.1387">&#171;API&#187;</text><text fill="#000000" font-family="Arial" font-size="12" lengthAdjust="spacing" textLength="119" x="525.5" y="564.1074">WebSocket Service</text><text fill="#000000" font-family="Arial" font-size="12" lengthAdjust="spacing" textLength="27" x="571.5" y="578.0762">(Go)</text></g><!--entity rate_limiter--><g id="elem_rate_limiter"><rect fill="#EBF5FB" height="61.9063" rx="4" ry="4" style="stroke:#3498DB;stroke-width:2.0;" width="94" x="673" y="529"/><text fill="#000000" font-family="Arial" font-size="12" font-style="italic" lengthAdjust="spacing" textLength="33" x="703.5" y="550.1387">&#171;API&#187;</text><text fill="#000000" font-family="Arial" font-size="12" lengthAdjust="spacing" textLength="74" x="683" y="564.1074">Rate Limiter</text><text fill="#000000" font-family="Arial" font-size="12" lengthAdjust="spacing" textLength="27" x="706.5" y="578.0762">(Go)</text></g><!--entity eval_manager--><g id="elem_eval_manager"><rect fill="#EBF5FB" height="61.9063" rx="4" ry="4" style="stroke:#3498DB;stroke-width:2.0;" width="144" x="426" y="661"/><text fill="#000000" font-family="Arial" font-size="12" font-style="italic" lengthAdjust="spacing" textLength="33" x="481.5" y="682.1387">&#171;API&#187;</text><text fill="#000000" font-family="Arial" font-size="12" lengthAdjust="spacing" textLength="124" x="436" y="696.1074">Evaluation Manager</text><text fill="#000000" font-family="Arial" font-size="12" lengthAdjust="spacing" textLength="27" x="484.5" y="710.0762">(Go)</text></g><!--entity model_registry--><g id="elem_model_registry"><rect fill="#EBF5FB" height="61.9063" rx="4" ry="4" style="stroke:#3498DB;stroke-width:2.0;" width="111" x="22.5" y="661"/><text fill="#000000" font-family="Arial" font-size="12" font-style="italic" lengthAdjust="spacing" textLength="33" x="61.5" y="682.1387">&#171;API&#187;</text><text fill="#000000" font-family="Arial" font-size="12" lengthAdjust="spacing" textLength="91" x="32.5" y="696.1074">Model Registry</text><text fill="#000000" font-family="Arial" font-size="12" lengthAdjust="spacing" textLength="27" x="64.5" y="710.0762">(Go)</text></g><!--entity dataset_manager--><g id="elem_dataset_manager"><rect fill="#EBF5FB" height="61.9063" rx="4" ry="4" style="stroke:#3498DB;stroke-width:2.0;" width="129" x="278.5" y="661"/><text fill="#000000" font-family="Arial" font-size="12" font-style="italic" lengthAdjust="spacing" textLength="33" x="326.5" y="682.1387">&#171;API&#187;</text><text fill="#000000" font-family="Arial" font-size="12" lengthAdjust="spacing" textLength="109" x="288.5" y="696.1074">Dataset Manager</text><text fill="#000000" font-family="Arial" font-size="12" lengthAdjust="spacing" textLength="27" x="329.5" y="710.0762">(Go)</text></g><!--entity user_manager--><g id="elem_user_manager"><rect fill="#EBF5FB" height="61.9063" rx="4" ry="4" style="stroke:#3498DB;stroke-width:2.0;" width="108" x="152" y="661"/><text fill="#000000" font-family="Arial" font-size="12" font-style="italic" lengthAdjust="spacing" textLength="33" x="189.5" y="682.1387">&#171;API&#187;</text><text fill="#000000" font-family="Arial" font-size="12" lengthAdjust="spacing" textLength="88" x="162" y="696.1074">User Manager</text><text fill="#000000" font-family="Arial" font-size="12" lengthAdjust="spacing" textLength="27" x="192.5" y="710.0762">(Go)</text></g><!--entity results_processor--><g id="elem_results_processor"><rect fill="#EBF5FB" height="61.9063" rx="4" ry="4" style="stroke:#3498DB;stroke-width:2.0;" width="133" x="588.5" y="661"/><text fill="#000000" font-family="Arial" font-size="12" font-style="italic" lengthAdjust="spacing" textLength="33" x="638.5" y="682.1387">&#171;API&#187;</text><text fill="#000000" font-family="Arial" font-size="12" lengthAdjust="spacing" textLength="113" x="598.5" y="696.1074">Results Processor</text><text fill="#000000" font-family="Arial" font-size="12" lengthAdjust="spacing" textLength="27" x="641.5" y="710.0762">(Go)</text></g><!--entity worker--><g id="elem_worker"><rect fill="#D4EFDF" height="61.9063" rx="4" ry="4" style="stroke:#196F3D;stroke-width:2.0;" width="133" x="1013.5" y="529"/><text fill="#000000" font-family="Arial" font-size="12" font-style="italic" lengthAdjust="spacing" textLength="73" x="1043.5" y="550.1387">&#171;Evaluator&#187;</text><text fill="#000000" font-family="Arial" font-size="12" lengthAdjust="spacing" textLength="113" x="1023.5" y="564.1074">Evaluation Worker</text><text fill="#000000" font-family="Arial" font-size="12" lengthAdjust="spacing" textLength="27" x="1066.5" y="578.0762">(Go)</text></g><!--entity contract_client--><g id="elem_contract_client"><rect fill="#FADBD8" height="61.9063" rx="4" ry="4" style="stroke:#943126;stroke-width:2.0;" width="154" x="1135" y="661"/><text fill="#000000" font-family="Arial" font-size="12" font-style="italic" lengthAdjust="spacing" textLength="68" x="1178" y="682.1387">&#171;Contract&#187;</text><text fill="#000000" font-family="Arial" font-size="12" lengthAdjust="spacing" textLength="134" x="1145" y="696.1074">Smart Contract Client</text><text fill="#000000" font-family="Arial" font-size="12" lengthAdjust="spacing" textLength="27" x="1198.5" y="710.0762">(Go)</text></g><!--entity metrics--><g id="elem_metrics"><rect fill="#D4EFDF" height="61.9063" rx="4" ry="4" style="stroke:#196F3D;stroke-width:2.0;" width="124" x="1165" y="529"/><text fill="#000000" font-family="Arial" font-size="12" font-style="italic" lengthAdjust="spacing" textLength="73" x="1190.5" y="550.1387">&#171;Evaluator&#187;</text><text fill="#000000" font-family="Arial" font-size="12" lengthAdjust="spacing" textLength="104" x="1175" y="564.1074">Metrics Collector</text><text fill="#000000" font-family="Arial" font-size="12" lengthAdjust="spacing" textLength="27" x="1213.5" y="578.0762">(Go)</text></g><!--entity mongodb--><g id="elem_mongodb"><rect fill="#F4ECF7" height="61.9063" rx="4" ry="4" style="stroke:#8E44AD;stroke-width:2.0;" width="94" x="298" y="793"/><text fill="#000000" font-family="Arial" font-size="12" font-style="italic" lengthAdjust="spacing" textLength="74" x="308" y="814.1387">&#171;Database&#187;</text><text fill="#000000" font-family="Arial" font-size="12" lengthAdjust="spacing" textLength="59" x="315.5" y="828.1074">MongoDB</text><text fill="#000000" font-family="Arial" font-size="12" lengthAdjust="spacing" textLength="50" x="320" y="842.0762">(NoSQL)</text></g><!--entity mariadb--><g id="elem_mariadb"><rect fill="#F4ECF7" height="61.9063" rx="4" ry="4" style="stroke:#8E44AD;stroke-width:2.0;" width="94" x="692" y="793"/><text fill="#000000" font-family="Arial" font-size="12" font-style="italic" lengthAdjust="spacing" textLength="74" x="702" y="814.1387">&#171;Database&#187;</text><text fill="#000000" font-family="Arial" font-size="12" lengthAdjust="spacing" textLength="51" x="713.5" y="828.1074">MariaDB</text><text fill="#000000" font-family="Arial" font-size="12" lengthAdjust="spacing" textLength="33" x="722.5" y="842.0762">(SQL)</text></g><!--entity s3--><g id="elem_s3"><rect fill="#F5EEF8" height="61.9063" rx="4" ry="4" style="stroke:#76448A;stroke-width:2.0;" width="124" x="410" y="793"/><text fill="#000000" font-family="Arial" font-size="12" font-style="italic" lengthAdjust="spacing" textLength="64" x="440" y="814.1387">&#171;Storage&#187;</text><text fill="#000000" font-family="Arial" font-size="12" lengthAdjust="spacing" textLength="47" x="448.5" y="828.1074">AWS S3</text><text fill="#000000" font-family="Arial" font-size="12" lengthAdjust="spacing" textLength="104" x="420" y="842.0762">(Object Storage)</text></g><!--entity queue--><g id="elem_queue"><rect fill="#FCF3CF" height="61.9063" rx="4" ry="4" style="stroke:#B7950B;stroke-width:2.0;" width="121" x="552.5" y="793"/><text fill="#000000" font-family="Arial" font-size="12" font-style="italic" lengthAdjust="spacing" textLength="54" x="586" y="814.1387">&#171;Queue&#187;</text><text fill="#000000" font-family="Arial" font-size="12" lengthAdjust="spacing" textLength="101" x="562.5" y="828.1074">Message Queue</text><text fill="#000000" font-family="Arial" font-size="12" lengthAdjust="spacing" textLength="44" x="591" y="842.0762">(Kafka)</text></g><!--entity cognito--><g id="elem_cognito"><rect fill="#F9EBEA" height="61.9063" rx="4" ry="4" style="stroke:#E74C3C;stroke-width:2.0;" width="99" x="1395.5" y="793"/><text fill="#000000" font-family="Arial" font-size="12" font-style="italic" lengthAdjust="spacing" textLength="43" x="1423.5" y="814.1387">&#171;Auth&#187;</text><text fill="#000000" font-family="Arial" font-size="12" lengthAdjust="spacing" textLength="79" x="1405.5" y="828.1074">AWS Cognito</text><text fill="#000000" font-family="Arial" font-size="12" lengthAdjust="spacing" textLength="39" x="1425.5" y="842.0762">(Auth)</text></g><!--entity avs--><g id="elem_avs"><rect fill="#D6EAF8" height="61.9063" rx="4" ry="4" style="stroke:#2E86C1;stroke-width:2.0;" width="110" x="1145" y="793"/><text fill="#000000" font-family="Arial" font-size="12" font-style="italic" lengthAdjust="spacing" textLength="69" x="1165.5" y="814.1387">&#171;Operator&#187;</text><text fill="#000000" font-family="Arial" font-size="12" lengthAdjust="spacing" textLength="90" x="1155" y="828.1074">LayerLens AVS</text><text fill="#000000" font-family="Arial" font-size="12" lengthAdjust="spacing" textLength="55" x="1172.5" y="842.0762">(Service)</text></g><!--entity llms--><g id="elem_llms"><rect fill="#FEF9E7" height="61.9063" rx="4" ry="4" style="stroke:#F1C40F;stroke-width:2.0;" width="104" x="1273" y="793"/><text fill="#000000" font-family="Arial" font-size="12" font-style="italic" lengthAdjust="spacing" textLength="66" x="1292" y="814.1387">&#171;External&#187;</text><text fill="#000000" font-family="Arial" font-size="12" lengthAdjust="spacing" textLength="84" x="1283" y="828.1074">LLM Providers</text><text fill="#000000" font-family="Arial" font-size="12" lengthAdjust="spacing" textLength="29" x="1310.5" y="842.0762">(API)</text></g><polygon fill="#000000" points="1250,149.8209,1254,140.8209,1250,144.8209,1246,140.8209,1250,149.8209" style="stroke:#000000;stroke-width:1.0;"/><path d="M1250,80.0742 C1250,101.9456 1250,123.2742 1250,143.8209 " fill="none" style="stroke:#000000;stroke-width:1.3;"/><text fill="#000000" font-family="sans-serif" font-size="13" lengthAdjust="spacing" textLength="32" x="1251" y="111.0669">Uses</text><polygon fill="#000000" points="1250,264.6345,1254,255.6345,1250,259.6345,1246,255.6345,1250,264.6345" style="stroke:#000000;stroke-width:1.0;"/><path d="M1250,212.2819 C1250,228.4949 1250,242.4088 1250,258.6345 " fill="none" style="stroke:#000000;stroke-width:1.3;"/><text fill="#000000" font-family="sans-serif" font-size="13" lengthAdjust="spacing" textLength="106" x="1251" y="243.0669">Renders through</text><polygon fill="#000000" points="1394.993,396.8445,1391.691,387.5657,1391.548,393.2207,1385.8929,393.0777,1394.993,396.8445" style="stroke:#000000;stroke-width:1.0;"/><path d="M1295.7657,318.9009 C1309.8103,326.4175 1324.9832,335.3821 1338,345 C1358.6526,360.2599 1375.1902,376.0142 1390.859,392.496 " fill="none" style="stroke:#000000;stroke-width:1.3;"/><text fill="#000000" font-family="sans-serif" font-size="13" lengthAdjust="spacing" textLength="118" x="1359" y="358.0669">Authenticates with</text><polygon fill="#000000" points="1250,396.5618,1254,387.5618,1250,391.5618,1246,387.5618,1250,396.5618" style="stroke:#000000;stroke-width:1.0;"/><path d="M1250,327.1514 C1250,348.0032 1250,369.6481 1250,390.5618 " fill="none" style="stroke:#000000;stroke-width:1.3;"/><text fill="#000000" font-family="sans-serif" font-size="13" lengthAdjust="spacing" textLength="82" x="1251" y="358.0669">Displays with</text><polygon fill="#000000" points="670.0652,417.0502,679.6892,419.1428,674.9614,416.0367,678.0675,411.3089,670.0652,417.0502" style="stroke:#000000;stroke-width:1.0;"/><path d="M1204.3299,306.454 C1089.1707,330.2927 793.6367,391.4701 675.9406,415.834 " fill="none" style="stroke:#000000;stroke-width:1.3;"/><text fill="#000000" font-family="sans-serif" font-size="13" lengthAdjust="spacing" textLength="118" x="1012" y="358.0669">Makes requests to</text><polygon fill="#000000" points="1443.2432,792.9048,1446.7119,783.687,1442.9518,787.9133,1438.7255,784.1532,1443.2432,792.9048" style="stroke:#000000;stroke-width:1.0;"/><path d="M1423.7666,459.2623 C1428.0531,532.6919 1438.6171,713.6579 1442.8935,786.915 " fill="none" style="stroke:#000000;stroke-width:1.3;"/><text fill="#000000" font-family="sans-serif" font-size="13" lengthAdjust="spacing" textLength="76" x="1435" y="622.0669">Verifies with</text><polygon fill="#000000" points="455.8731,528.8113,464.1917,523.5386,458.6451,524.65,457.5337,519.1034,455.8731,528.8113" style="stroke:#000000;stroke-width:1.0;"/><path d="M573.7313,441.8454 C550.5488,449.5596 523.2589,461.0297 502,477 C483.3742,490.9922 470.5951,506.711 459.1995,523.8178 " fill="none" style="stroke:#000000;stroke-width:1.3;"/><text fill="#000000" font-family="sans-serif" font-size="13" lengthAdjust="spacing" textLength="61" x="503" y="490.0669">Routes to</text><polygon fill="#000000" points="572.4905,528.8053,573.773,519.0403,571.0721,524.0107,566.1017,521.3098,572.4905,528.8053" style="stroke:#000000;stroke-width:1.0;"/><path d="M583.4476,459.2027 C578.7995,464.6046 574.7365,470.5796 572,477 C565.0486,493.3095 566.076,507.1228 570.7884,523.0518 " fill="none" style="stroke:#000000;stroke-width:1.3;"/><text fill="#000000" font-family="sans-serif" font-size="13" lengthAdjust="spacing" textLength="77" x="573" y="490.0669">Connects to</text><polygon fill="#000000" points="697.0543,528.5618,694.8307,518.9673,694.0445,524.5692,688.4425,523.783,697.0543,528.5618" style="stroke:#000000;stroke-width:1.0;"/><path d="M644.7295,459.1514 C660.4485,480.0032 677.6768,502.857 693.4425,523.7707 " fill="none" style="stroke:#000000;stroke-width:1.3;"/><text fill="#000000" font-family="sans-serif" font-size="13" lengthAdjust="spacing" textLength="92" x="672" y="490.0669">Limits through</text><polygon fill="#000000" points="483.9516,660.5618,483.8119,650.714,481.8563,656.022,476.5482,654.0664,483.9516,660.5618" style="stroke:#000000;stroke-width:1.0;"/><path d="M451.916,591.1514 C461.5399,612.0032 471.7848,634.2003 481.4373,655.1141 " fill="none" style="stroke:#000000;stroke-width:1.3;"/><text fill="#000000" font-family="sans-serif" font-size="13" lengthAdjust="spacing" textLength="32" x="469" y="622.0669">Uses</text><polygon fill="#000000" points="106.4943,660.741,115.8257,657.5907,110.1737,657.3555,110.409,651.7035,106.4943,660.741" style="stroke:#000000;stroke-width:1.0;"/><path d="M378.8177,567.2574 C317.0744,575.6547 218.8801,594.3752 143,634 C129.8287,640.8781 121.5392,646.8982 110.9096,656.6784 " fill="none" style="stroke:#000000;stroke-width:1.3;"/><text fill="#000000" font-family="sans-serif" font-size="13" lengthAdjust="spacing" textLength="32" x="197" y="622.0669">Uses</text><polygon fill="#000000" points="365.2433,660.5618,373.783,655.6554,368.1934,656.5249,367.3239,650.9352,365.2433,660.5618" style="stroke:#000000;stroke-width:1.0;"/><path d="M415.9663,591.1514 C400.7285,612.0032 384.0665,634.8038 368.7834,655.7175 " fill="none" style="stroke:#000000;stroke-width:1.3;"/><text fill="#000000" font-family="sans-serif" font-size="13" lengthAdjust="spacing" textLength="32" x="403" y="622.0669">Uses</text><polygon fill="#000000" points="235.4281,660.7172,244.7485,657.5344,239.0958,657.3189,239.3112,651.6662,235.4281,660.7172" style="stroke:#000000;stroke-width:1.0;"/><path d="M378.9102,581.0511 C345.3265,593.7618 303.2721,611.9556 269,634 C257.2151,641.5803 249.9022,647.3061 239.8293,656.6393 " fill="none" style="stroke:#000000;stroke-width:1.3;"/><text fill="#000000" font-family="sans-serif" font-size="13" lengthAdjust="spacing" textLength="32" x="315" y="622.0669">Uses</text><polygon fill="#000000" points="617.7523,660.7777,613.0014,652.1505,613.7695,657.7549,608.165,658.523,617.7523,660.7777" style="stroke:#000000;stroke-width:1.0;"/><path d="M491.2817,591.1887 C496.2358,593.8704 501.1976,596.51 506,599 C537.9424,615.562 548.2372,615.3381 579,634 C592.1141,641.9556 600.9506,648.0261 612.9729,657.1504 " fill="none" style="stroke:#000000;stroke-width:1.3;"/><text fill="#000000" font-family="sans-serif" font-size="13" lengthAdjust="spacing" textLength="32" x="566" y="622.0669">Uses</text><polygon fill="#000000" points="369.5377,792.9755,378.6189,789.1634,372.9647,789.3346,372.7935,783.6803,369.5377,792.9755" style="stroke:#000000;stroke-width:1.0;"/><path d="M464.9512,723.0688 C447.5173,738.7397 428.7643,755.2229 424,758 C414.6496,763.4502 410.1439,760.2099 401,766 C389.514,773.2732 382.7277,778.9619 373.65,788.6064 " fill="none" style="stroke:#000000;stroke-width:1.3;"/><text fill="#000000" font-family="sans-serif" font-size="13" lengthAdjust="spacing" textLength="90" x="446" y="754.0669">Stores data in</text><polygon fill="#000000" points="297.9219,820.6759,289.1902,816.1198,292.9317,820.3626,288.6889,824.1041,297.9219,820.6759" style="stroke:#000000;stroke-width:1.0;"/><path d="M28.6022,723.2907 C17.0307,734.0766 10.5074,746.4209 20,758 C54.6107,800.2183 210.4785,815.1859 291.9337,820.3 " fill="none" style="stroke:#000000;stroke-width:1.3;"/><text fill="#000000" font-family="sans-serif" font-size="13" lengthAdjust="spacing" textLength="90" x="21" y="754.0669">Stores data in</text><polygon fill="#000000" points="297.7044,811.4428,290.1978,805.0669,292.9073,810.0327,287.9416,812.7422,297.7044,811.4428" style="stroke:#000000;stroke-width:1.0;"/><path d="M288.3631,723.1028 C281.9434,726.0241 275.3995,728.737 269,731 C248.4553,738.265 234.748,724.0927 221,741 C194.3777,773.7402 246.5846,796.4157 291.9479,809.7506 " fill="none" style="stroke:#000000;stroke-width:1.3;"/><text fill="#000000" font-family="sans-serif" font-size="13" lengthAdjust="spacing" textLength="90" x="222" y="754.0669">Stores data in</text><polygon fill="#000000" points="297.8947,816.1671,289.6558,810.7708,292.9598,815.3624,288.3682,818.6665,297.8947,816.1671" style="stroke:#000000;stroke-width:1.0;"/><path d="M156.7313,723.0843 C151.8003,725.8438 146.8315,728.5277 142,731 C132.0771,736.0776 125.1117,731.6783 119,741 C114.8573,747.3186 114.4554,751.964 119,758 C140.4874,786.5385 232.2856,805.4684 291.9729,815.2015 " fill="none" style="stroke:#000000;stroke-width:1.3;"/><text fill="#000000" font-family="sans-serif" font-size="13" lengthAdjust="spacing" textLength="90" x="120" y="754.0669">Stores data in</text><polygon fill="#000000" points="763.3309,792.9963,771.4737,787.456,765.9662,788.7472,764.675,783.2396,763.3309,792.9963" style="stroke:#000000;stroke-width:1.0;"/><path d="M721.627,706.1189 C740.421,713.2251 758.7845,724.1655 770,741 C780.5479,756.8325 776.5664,771.6548 766.4932,787.8973 " fill="none" style="stroke:#000000;stroke-width:1.3;"/><text fill="#000000" font-family="sans-serif" font-size="13" lengthAdjust="spacing" textLength="109" x="777" y="754.0669">Stores metrics in</text><polygon fill="#000000" points="586.0739,792.5618,583.1067,783.1706,582.761,788.8168,577.1148,788.4711,586.0739,792.5618" style="stroke:#000000;stroke-width:1.0;"/><path d="M524.6724,723.1514 C543.1182,744.0032 563.5979,767.1541 582.0985,788.0678 " fill="none" style="stroke:#000000;stroke-width:1.3;"/><text fill="#000000" font-family="sans-serif" font-size="13" lengthAdjust="spacing" textLength="77" x="557" y="754.0669">Publishes to</text><polygon fill="#000000" points="1013.3184,580.8704,1003.4757,580.523,1008.6806,582.7387,1006.465,587.9436,1013.3184,580.8704" style="stroke:#000000;stroke-width:1.0;"/><path d="M641.2629,792.9663 C653.062,782.4443 667.6044,771.8111 683,766 C704.6381,757.8327 872.5176,771.9038 891,758 C937.3857,723.1052 893.9028,677.7937 932,634 C953.3425,609.4663 979.2868,594.5796 1007.753,583.1123 " fill="none" style="stroke:#000000;stroke-width:1.3;"/><text fill="#000000" font-family="sans-serif" font-size="13" lengthAdjust="spacing" textLength="102" x="933" y="696.5669">Consumes from</text><polygon fill="#000000" points="1181.0935,660.5618,1177.4879,651.3967,1177.5311,657.0534,1171.8744,657.0966,1181.0935,660.5618" style="stroke:#000000;stroke-width:1.0;"/><path d="M1110.6152,591.1514 C1131.7878,612.0032 1155.5832,635.438 1176.8186,656.3517 " fill="none" style="stroke:#000000;stroke-width:1.3;"/><text fill="#000000" font-family="sans-serif" font-size="13" lengthAdjust="spacing" textLength="30" x="1147" y="622.0669">Calls</text><polygon fill="#000000" points="701.7915,660.8817,711.5674,659.6848,706.08,658.3108,707.454,652.8233,701.7915,660.8817" style="stroke:#000000;stroke-width:1.0;"/><path d="M1013.3963,566.8001 C957.3981,573.0727 875.8555,585.505 808,609 C770.5513,621.9667 736.351,640.1635 706.9376,657.7966 " fill="none" style="stroke:#000000;stroke-width:1.3;"/><text fill="#000000" font-family="sans-serif" font-size="13" lengthAdjust="spacing" textLength="94" x="809" y="622.0669">Processes with</text><polygon fill="#000000" points="1202.8097,792.5618,1207.62,783.9676,1203.2693,787.583,1199.6539,783.2323,1202.8097,792.5618" style="stroke:#000000;stroke-width:1.0;"/><path d="M1209.2168,723.1514 C1207.292,744.0032 1205.2917,765.6735 1203.3612,786.5872 " fill="none" style="stroke:#000000;stroke-width:1.3;"/><text fill="#000000" font-family="sans-serif" font-size="13" lengthAdjust="spacing" textLength="85" x="1209" y="754.0669">Interacts with</text><polygon fill="#000000" points="1326.2965,792.8465,1330.4009,783.8936,1326.3546,787.8468,1322.4014,783.8006,1326.2965,792.8465" style="stroke:#000000;stroke-width:1.0;"/><path d="M1264.9057,591.2524 C1277.4131,603.2306 1290.1256,617.9739 1298,634 C1323.3604,685.6138 1326.8171,748.0793 1326.3663,786.8469 " fill="none" style="stroke:#000000;stroke-width:1.3;"/><text fill="#000000" font-family="sans-serif" font-size="13" lengthAdjust="spacing" textLength="30" x="1325" y="696.5669">Calls</text><polygon fill="#000000" points="786.1815,821.3994,795.4494,824.7318,791.1681,821.0344,794.8655,816.7531,786.1815,821.3994" style="stroke:#000000;stroke-width:1.0;"/><path d="M1171.966,591.0625 C1166.2893,593.8564 1160.5634,596.5533 1155,599 C1116.4703,615.9446 1095.4643,602.9929 1067,634 C1036.3932,667.341 1068.1458,699.1403 1036,731 C967.8514,798.5422 857.1384,816.2059 792.1654,820.9614 " fill="none" style="stroke:#000000;stroke-width:1.3;"/><text fill="#000000" font-family="sans-serif" font-size="13" lengthAdjust="spacing" textLength="57" x="1068" y="696.5669">Stores in</text><polygon fill="#000000" points="441.9583,792.7435,437.7379,783.8447,438.1656,789.4854,432.5249,789.9131,441.9583,792.7435" style="stroke:#000000;stroke-width:1.0;"/><path d="M330.6956,723.185 C327.8578,735.332 327.7286,748.6481 336,758 C345.6418,768.9013 387.5923,760.3399 401,766 C415.854,772.2707 425.5913,778.6836 437.407,788.8338 " fill="none" style="stroke:#000000;stroke-width:1.3;"/><text fill="#000000" font-family="sans-serif" font-size="13" lengthAdjust="spacing" textLength="86" x="337" y="754.0669">Stores files in</text><polygon fill="#000000" points="501.5646,792.7247,510.9859,789.8542,505.3434,789.4505,505.7472,783.8081,501.5646,792.7247" style="stroke:#000000;stroke-width:1.0;"/><path d="M654.9524,723.2084 C653.279,735.8135 648.9908,749.4769 639,758 C622.7139,771.8937 562.8818,758.0636 543,766 C527.8788,772.0361 517.9666,778.5131 506.0992,788.7956 " fill="none" style="stroke:#000000;stroke-width:1.3;"/><text fill="#000000" font-family="sans-serif" font-size="13" lengthAdjust="spacing" textLength="104" x="652" y="754.0669">Stores results in</text><rect fill="none" height="193.2656" id="_legend" rx="4" ry="4" style="stroke:#CCCCCC;stroke-width:1.0;" width="325" x="1165" y="877"/><text fill="#000000" font-family="sans-serif" font-size="14" font-weight="bold" lengthAdjust="spacing" textLength="135" x="1175" y="896.9951">Component Type</text><text fill="#000000" font-family="sans-serif" font-size="14" font-weight="bold" lengthAdjust="spacing" textLength="90" x="1320" y="896.9951">Description</text><text fill="#000000" filter="url(#b29hys389j7mc0)" font-family="sans-serif" font-size="14" lengthAdjust="spacing" textLength="63" x="1170" y="913.292">Frontend</text><text fill="#000000" font-family="sans-serif" font-size="14" lengthAdjust="spacing" textLength="143" x="1319" y="913.292">Web/UI Components</text><text fill="#000000" filter="url(#b29hys389j7mc1)" font-family="sans-serif" font-size="14" lengthAdjust="spacing" textLength="21" x="1170" y="929.5889">API</text><text fill="#000000" font-family="sans-serif" font-size="14" lengthAdjust="spacing" textLength="123" x="1319" y="929.5889">Backend Services</text><text fill="#000000" filter="url(#b29hys389j7mc2)" font-family="sans-serif" font-size="14" lengthAdjust="spacing" textLength="32" x="1170" y="945.8857">Auth</text><text fill="#000000" font-family="sans-serif" font-size="14" lengthAdjust="spacing" textLength="162" x="1319" y="945.8857">Authentication Services</text><text fill="#000000" filter="url(#b29hys389j7mc3)" font-family="sans-serif" font-size="14" lengthAdjust="spacing" textLength="66" x="1170" y="962.1826">Database</text><text fill="#000000" font-family="sans-serif" font-size="14" lengthAdjust="spacing" textLength="90" x="1319" y="962.1826">Data Storage</text><text fill="#000000" filter="url(#b29hys389j7mc4)" font-family="sans-serif" font-size="14" lengthAdjust="spacing" textLength="55" x="1170" y="978.4795">External</text><text fill="#000000" font-family="sans-serif" font-size="14" lengthAdjust="spacing" textLength="123" x="1319" y="978.4795">3rd Party Services</text><text fill="#000000" filter="url(#b29hys389j7mc5)" font-family="sans-serif" font-size="14" lengthAdjust="spacing" textLength="59" x="1170" y="994.7764">Contract</text><text fill="#000000" font-family="sans-serif" font-size="14" lengthAdjust="spacing" textLength="111" x="1319" y="994.7764">Smart Contracts</text><text fill="#000000" filter="url(#b29hys389j7mc6)" font-family="sans-serif" font-size="14" lengthAdjust="spacing" textLength="47" x="1170" y="1011.0732">Queue</text><text fill="#000000" font-family="sans-serif" font-size="14" lengthAdjust="spacing" textLength="122" x="1319" y="1011.0732">Message Queues</text><text fill="#000000" filter="url(#b29hys389j7mc7)" font-family="sans-serif" font-size="14" lengthAdjust="spacing" textLength="61" x="1170" y="1027.3701">Operator</text><text fill="#000000" font-family="sans-serif" font-size="14" lengthAdjust="spacing" textLength="108" x="1319" y="1027.3701">Validator Nodes</text><text fill="#000000" filter="url(#b29hys389j7mc8)" font-family="sans-serif" font-size="14" lengthAdjust="spacing" textLength="63" x="1170" y="1043.667">Evaluator</text><text fill="#000000" font-family="sans-serif" font-size="14" lengthAdjust="spacing" textLength="132" x="1319" y="1043.667">Evaluation Services</text><text fill="#000000" filter="url(#b29hys389j7mc9)" font-family="sans-serif" font-size="14" lengthAdjust="spacing" textLength="54" x="1170" y="1059.9639">Storage</text><text fill="#000000" font-family="sans-serif" font-size="14" lengthAdjust="spacing" textLength="116" x="1319" y="1059.9639">Storage Services</text><line style="stroke:#000000;stroke-width:1.0;" x1="1170" x2="1485" y1="884" y2="884"/><line style="stroke:#000000;stroke-width:1.0;" x1="1170" x2="1485" y1="900.2969" y2="900.2969"/><line style="stroke:#000000;stroke-width:1.0;" x1="1170" x2="1485" y1="916.5938" y2="916.5938"/><line style="stroke:#000000;stroke-width:1.0;" x1="1170" x2="1485" y1="932.8906" y2="932.8906"/><line style="stroke:#000000;stroke-width:1.0;" x1="1170" x2="1485" y1="949.1875" y2="949.1875"/><line style="stroke:#000000;stroke-width:1.0;" x1="1170" x2="1485" y1="965.4844" y2="965.4844"/><line style="stroke:#000000;stroke-width:1.0;" x1="1170" x2="1485" y1="981.7813" y2="981.7813"/><line style="stroke:#000000;stroke-width:1.0;" x1="1170" x2="1485" y1="998.0781" y2="998.0781"/><line style="stroke:#000000;stroke-width:1.0;" x1="1170" x2="1485" y1="1014.375" y2="1014.375"/><line style="stroke:#000000;stroke-width:1.0;" x1="1170" x2="1485" y1="1030.6719" y2="1030.6719"/><line style="stroke:#000000;stroke-width:1.0;" x1="1170" x2="1485" y1="1046.9688" y2="1046.9688"/><line style="stroke:#000000;stroke-width:1.0;" x1="1170" x2="1485" y1="1063.2656" y2="1063.2656"/><line style="stroke:#000000;stroke-width:1.0;" x1="1170" x2="1170" y1="884" y2="1063.2656"/><line style="stroke:#000000;stroke-width:1.0;" x1="1315" x2="1315" y1="884" y2="1063.2656"/><line style="stroke:#000000;stroke-width:1.0;" x1="1485" x2="1485" y1="884" y2="1063.2656"/><!--SRC=[jLXDSzis4BtpLw3k8UqXYMN9NnfNCn95PZnr4iTAd4FRqK0aJAC62GK0xJXD_diN7xG0alAC3j4XaR5ltmABnSD2lwm5BagC67xajKAo90fNE8fUe3cveHL1MIqLBr766HSIAOvAhB9R9CcNcbGPGJd5XS2bZEGThTOOlWAsNFEALEhiB1MyKgJA9nFqNuJG36TtXU1rbSUQ3_sQdAR7IQejNEH4kD63usbojFyq-l6MPdSLaH8TH3-Y_a3Jo_EjCMRfOJfhnnYEJa_cizrYrEfsMv3qD9abqtQGv7WK3-ETWionmYiioTP0eoHEZzk1JfBHQ3hVAL3oLH5HOROrK09hwWHA1_5eFzqfK0mb872cjWQQpcVpatQWqz5mS72qKw0FDQctvorEXt6dqcR7fuVxkrN1-pKHM76nBT3yA9ccdUKS92T7yM2t3Rh7h7usqYX9vvqb3KwFqk5kfR208BZOdhh39EckwFXeD3gPRelp0iLMEAHwPBGglC1J8VY38zatdxPnmpLuDVICERd1DLCVoLSrPRIeIfWzok0V8ZpKbPswg8X09zwueegH58fnGRyHDEWtmMm9Md6MUzQuoPIr2fA1HXQCz2MpdOp1gyC-s6OQ1zlCxt1981qKCmzn2Ni3ExLz8ciBQEyX7C1A0WAuUy31kJCV3yH80GBUBGhpwU9yhjXy_0rqulQpPUwBLeAV80YWOW3Q-oI9s4DOeXg-H95B8zfhRhiz4_6lgMA0-KnMwDFvtzLlLmJSV_z7-psGrRAcoByVjSCxAEnN_qeqNQy1_uxd1Fwo7XMOmDBsq5SIx2dDiAAyGczvNZEYVVKH0Pjrnl0DDVUNThiY4iwHHDTKrfZHRyOxdE8z_HP6- -4j56xRPesNv-WDLkG1FuB_6-u2hkcoU43kMjQuDzpi050X6FEW1L-kdC63Gz8M74OLMX1nJpFYUK3ofBLv3bSm1tH1ImfQu651gScIsU4dkByIq0dYbkBqrkGHUg0Y829WN9Pss8yB6ISCNP62IYNy59JQi1JEuBleqfSm-swGt5hwukYIw_7G1TW7RpRuKl0CgfS7ER6svRgnzIRc7FOT6ZkTZcv-FdDn5ypZmGoWuDBIFeiI2uMQ3W35Z4ArUdwPiompOq5-js3IIvIWcGG6neW-V7w6dIqCwgz1PzfD_Ysl2ZwVcMEr-73Hx14CvYlaov41Ov1T0zv0zL0FTFfvWHP3GBvV_GiJHEugjKvoYBpBrQv7IZqreqpWzIU-kSCMR3GBFObMi92cLsiE7GIDUL5HnO5ZSyupEnOSzGlyICG5gK1LhXTwHVOykNDwhzEtwMYCmyLRNJRt5EHFQlhBSmjch3J9VkeRzHHr0QANBoUDf8qHLAgCt5_Qu9Hh38UaqfH8tO8C5xUHCsYC4QWnyjICG4rH5O2q8etHdCerF5QwPgSvOpWbTqHNEIHKAlra0TtM_1hKP6YChecWDxG9uvmrn1EaiUubz5I0mqDi16YiIxk2VMz30jqPMs7Qh3poOcXq82ukWor8IqxwGMtzw4S5cj4FwKg4mqN1LEt4x1aQcz8dLiGGhQBMZ9_5jYV-B3YO_xF8xZ8Ct1tb9tWZ9E3HNPyzbcDqMQyObRUs6EoWgGKhVAOGP5s2-KRmCdB3jkH2YGCePapwaBvqE-Lk2hJDOYh-NXyhBTJQue3DOZJ0dDWcdc_ef40llMyJGC6UC3UKMMH_MdseGnZQ5sYQv_RtWvSPp-4ju5h5oFw712rk5IZFzpysdJRw-BWcUcHEP2ResjmwtpNeJDVfsFrmC3aplECLWy59qwoSlJQZaxFN6Zlvhbkmrv_ED-mof3A_3uHK87eTbgP_SGeQajZtVui4LAV3qkhO-ibCynkIDTTEXr0RccidP34F-92b4UyEor3ayBWGwd7BZCmRFUHgRkeELtZfjuXCrnqIcHklmn9SbI69VMA79Cqbrk6vXWOtrnQa6-eMaNb1jrBKD1CT9gy1wa-IUIU7R6vZkZbo6-OHGMsvW_4_]--></g></svg>