<?xml version="1.0" encoding="us-ascii" standalone="no"?><svg xmlns="http://www.w3.org/2000/svg" xmlns:xlink="http://www.w3.org/1999/xlink" contentStyleType="text/css" height="1939px" preserveAspectRatio="none" style="width:1039px;height:1939px;background:#FFFFFF;" version="1.1" viewBox="0 0 1039 1939" width="1039px" zoomAndPan="magnify"><defs/><g><text fill="#303030" font-family="Arial" font-size="16" font-weight="bold" lengthAdjust="spacing" textLength="200" x="415.75" y="38.0078">Dataset Management Flow</text><rect fill="#F8F8F8" height="507.7871" style="stroke:#000000;stroke-width:1.0;" width="10" x="306.5" y="293.0435"/><rect fill="#F8F8F8" height="218.9941" style="stroke:#000000;stroke-width:1.0;" width="10" x="306.5" y="844.6294"/><rect fill="#F8F8F8" height="306.5918" style="stroke:#000000;stroke-width:1.0;" width="10" x="306.5" y="1107.4224"/><rect fill="#F8F8F8" height="363.3906" style="stroke:#000000;stroke-width:1.0;" width="10" x="484.5" y="393.6411"/><rect fill="#F8F8F8" height="131.3965" style="stroke:#000000;stroke-width:1.0;" width="10" x="484.5" y="888.4282"/><rect fill="#F8F8F8" height="218.9941" style="stroke:#000000;stroke-width:1.0;" width="10" x="484.5" y="1151.2212"/><line style="stroke:#000000;stroke-width:0.5;stroke-dasharray:5.0,5.0;" x1="59" x2="59" y1="152.4971" y2="1432.0142"/><line style="stroke:#000000;stroke-width:0.5;stroke-dasharray:5.0,5.0;" x1="128" x2="128" y1="152.4971" y2="1432.0142"/><line style="stroke:#000000;stroke-width:0.5;stroke-dasharray:5.0,5.0;" x1="311" x2="311" y1="152.4971" y2="1432.0142"/><line style="stroke:#000000;stroke-width:0.5;stroke-dasharray:5.0,5.0;" x1="489" x2="489" y1="152.4971" y2="1432.0142"/><line style="stroke:#000000;stroke-width:0.5;stroke-dasharray:5.0,5.0;" x1="671.5" x2="671.5" y1="152.4971" y2="1432.0142"/><line style="stroke:#000000;stroke-width:0.5;stroke-dasharray:5.0,5.0;" x1="796.5" x2="796.5" y1="152.4971" y2="1432.0142"/><line style="stroke:#000000;stroke-width:0.5;stroke-dasharray:5.0,5.0;" x1="947.5" x2="947.5" y1="152.4971" y2="1432.0142"/><text fill="#000000" font-family="Arial" font-size="14" font-weight="bold" lengthAdjust="spacing" textLength="44" x="34" y="141.5303">Admin</text><ellipse cx="59" cy="68.8984" fill="#FFFFFF" rx="8" ry="8" style="stroke:#454545;stroke-width:0.5;"/><path d="M59,76.8984 L59,103.8984 M46,84.8984 L72,84.8984 M59,103.8984 L46,118.8984 M59,103.8984 L72,118.8984 " fill="none" style="stroke:#454545;stroke-width:0.5;"/><text fill="#000000" font-family="Arial" font-size="14" font-weight="bold" lengthAdjust="spacing" textLength="44" x="34" y="1452.146">Admin</text><ellipse cx="59" cy="1471.6128" fill="#FFFFFF" rx="8" ry="8" style="stroke:#454545;stroke-width:0.5;"/><path d="M59,1479.6128 L59,1506.6128 M46,1487.6128 L72,1487.6128 M59,1506.6128 L46,1521.6128 M59,1506.6128 L72,1521.6128 " fill="none" style="stroke:#454545;stroke-width:0.5;"/><text fill="#000000" font-family="Arial" font-size="14" font-weight="bold" lengthAdjust="spacing" textLength="31" x="110" y="141.5303">User</text><ellipse cx="128.5" cy="68.8984" fill="#FFFFFF" rx="8" ry="8" style="stroke:#454545;stroke-width:0.5;"/><path d="M128.5,76.8984 L128.5,103.8984 M115.5,84.8984 L141.5,84.8984 M128.5,103.8984 L115.5,118.8984 M128.5,103.8984 L141.5,118.8984 " fill="none" style="stroke:#454545;stroke-width:0.5;"/><text fill="#000000" font-family="Arial" font-size="14" font-weight="bold" lengthAdjust="spacing" textLength="31" x="110" y="1452.146">User</text><ellipse cx="128.5" cy="1471.6128" fill="#FFFFFF" rx="8" ry="8" style="stroke:#454545;stroke-width:0.5;"/><path d="M128.5,1479.6128 L128.5,1506.6128 M115.5,1487.6128 L141.5,1487.6128 M128.5,1506.6128 L115.5,1521.6128 M128.5,1506.6128 L141.5,1521.6128 " fill="none" style="stroke:#454545;stroke-width:0.5;"/><rect fill="#E9F7EF" height="56.4478" rx="4" ry="4" style="stroke:#27AE60;stroke-width:2.0;" width="121" x="251" y="95.0493"/><text fill="#000000" font-family="Arial" font-size="10" font-weight="bold" lengthAdjust="spacing" textLength="55" x="284" y="119.4292">&#171;Frontend&#187;</text><text fill="#000000" font-family="Arial" font-size="13" font-weight="bold" lengthAdjust="spacing" textLength="91" x="266" y="133.7422">Atlas Frontend</text><rect fill="#E9F7EF" height="56.4478" rx="4" ry="4" style="stroke:#27AE60;stroke-width:2.0;" width="121" x="251" y="1431.0142"/><text fill="#000000" font-family="Arial" font-size="10" font-weight="bold" lengthAdjust="spacing" textLength="55" x="284" y="1455.394">&#171;Frontend&#187;</text><text fill="#000000" font-family="Arial" font-size="13" font-weight="bold" lengthAdjust="spacing" textLength="91" x="266" y="1469.707">Atlas Frontend</text><rect fill="#EBF5FB" height="56.4478" rx="4" ry="4" style="stroke:#3498DB;stroke-width:2.0;" width="87" x="446" y="95.0493"/><text fill="#000000" font-family="Arial" font-size="10" font-weight="bold" lengthAdjust="spacing" textLength="29" x="475" y="119.4292">&#171;API&#187;</text><text fill="#000000" font-family="Arial" font-size="13" font-weight="bold" lengthAdjust="spacing" textLength="57" x="461" y="133.7422">Atlas API</text><rect fill="#EBF5FB" height="56.4478" rx="4" ry="4" style="stroke:#3498DB;stroke-width:2.0;" width="87" x="446" y="1431.0142"/><text fill="#000000" font-family="Arial" font-size="10" font-weight="bold" lengthAdjust="spacing" textLength="29" x="475" y="1455.394">&#171;API&#187;</text><text fill="#000000" font-family="Arial" font-size="13" font-weight="bold" lengthAdjust="spacing" textLength="57" x="461" y="1469.707">Atlas API</text><rect fill="#F5EEF8" height="56.4478" rx="4" ry="4" style="stroke:#76448A;stroke-width:2.0;" width="80" x="631.5" y="95.0493"/><text fill="#000000" font-family="Arial" font-size="10" font-weight="bold" lengthAdjust="spacing" textLength="50" x="646.5" y="119.4292">&#171;Storage&#187;</text><text fill="#000000" font-family="Arial" font-size="13" font-weight="bold" lengthAdjust="spacing" textLength="50" x="646.5" y="133.7422">AWS S3</text><rect fill="#F5EEF8" height="56.4478" rx="4" ry="4" style="stroke:#76448A;stroke-width:2.0;" width="80" x="631.5" y="1431.0142"/><text fill="#000000" font-family="Arial" font-size="10" font-weight="bold" lengthAdjust="spacing" textLength="50" x="646.5" y="1455.394">&#171;Storage&#187;</text><text fill="#000000" font-family="Arial" font-size="13" font-weight="bold" lengthAdjust="spacing" textLength="50" x="646.5" y="1469.707">AWS S3</text><rect fill="#F4ECF7" height="56.4478" rx="4" ry="4" style="stroke:#8E44AD;stroke-width:2.0;" width="91" x="751.5" y="95.0493"/><text fill="#000000" font-family="Arial" font-size="10" font-weight="bold" lengthAdjust="spacing" textLength="58" x="768" y="119.4292">&#171;Database&#187;</text><text fill="#000000" font-family="Arial" font-size="13" font-weight="bold" lengthAdjust="spacing" textLength="61" x="766.5" y="133.7422">MongoDB</text><rect fill="#F4ECF7" height="56.4478" rx="4" ry="4" style="stroke:#8E44AD;stroke-width:2.0;" width="91" x="751.5" y="1431.0142"/><text fill="#000000" font-family="Arial" font-size="10" font-weight="bold" lengthAdjust="spacing" textLength="58" x="768" y="1455.394">&#171;Database&#187;</text><text fill="#000000" font-family="Arial" font-size="13" font-weight="bold" lengthAdjust="spacing" textLength="61" x="766.5" y="1469.707">MongoDB</text><rect fill="#F5EEF8" height="56.4478" rx="4" ry="4" style="stroke:#76448A;stroke-width:2.0;" width="130" x="882.5" y="95.0493"/><text fill="#000000" font-family="Arial" font-size="10" font-weight="bold" lengthAdjust="spacing" textLength="50" x="922.5" y="119.4292">&#171;Storage&#187;</text><text fill="#000000" font-family="Arial" font-size="13" font-weight="bold" lengthAdjust="spacing" textLength="100" x="897.5" y="133.7422">Dataset Registry</text><rect fill="#F5EEF8" height="56.4478" rx="4" ry="4" style="stroke:#76448A;stroke-width:2.0;" width="130" x="882.5" y="1431.0142"/><text fill="#000000" font-family="Arial" font-size="10" font-weight="bold" lengthAdjust="spacing" textLength="50" x="922.5" y="1455.394">&#171;Storage&#187;</text><text fill="#000000" font-family="Arial" font-size="13" font-weight="bold" lengthAdjust="spacing" textLength="100" x="897.5" y="1469.707">Dataset Registry</text><rect fill="#F8F8F8" height="507.7871" style="stroke:#000000;stroke-width:1.0;" width="10" x="306.5" y="293.0435"/><rect fill="#F8F8F8" height="218.9941" style="stroke:#000000;stroke-width:1.0;" width="10" x="306.5" y="844.6294"/><rect fill="#F8F8F8" height="306.5918" style="stroke:#000000;stroke-width:1.0;" width="10" x="306.5" y="1107.4224"/><rect fill="#F8F8F8" height="363.3906" style="stroke:#000000;stroke-width:1.0;" width="10" x="484.5" y="393.6411"/><rect fill="#F8F8F8" height="131.3965" style="stroke:#000000;stroke-width:1.0;" width="10" x="484.5" y="888.4282"/><rect fill="#F8F8F8" height="218.9941" style="stroke:#000000;stroke-width:1.0;" width="10" x="484.5" y="1151.2212"/><path d="M5,171.4971 L5,203.4971 A4,4 0 0 0 9,207.4971 L997,207.4971 A4,4 0 0 0 1001,203.4971 L1001,177.4971 L991,167.4971 L9,167.4971 A4,4 0 0 0 5,171.4971 " fill="#FFFFDD" style="stroke:#999999;stroke-width:1.0;"/><path d="M991,167.4971 L991,175.4971 A2,2 0 0 0 993,177.4971 L1001,177.4971 L991,167.4971 " fill="#FFFFDD" style="stroke:#999999;stroke-width:1.0;"/><text fill="#000000" font-family="Arial" font-size="13" lengthAdjust="spacing" textLength="193" x="406.75" y="192.6909">Dataset Upload and Management</text><polygon fill="#000000" points="299.5,245.2446,309.5,249.2446,299.5,253.2446,303.5,249.2446" style="stroke:#000000;stroke-width:1.0;"/><line style="stroke:#000000;stroke-width:1.5;" x1="59" x2="305.5" y1="249.2446" y2="249.2446"/><text fill="#000000" font-family="Arial" font-size="12" lengthAdjust="spacing" textLength="49" x="95.25" y="236.7017">Navigate</text><text fill="#000000" font-family="Arial" font-size="12" lengthAdjust="spacing" textLength="3" x="144.25" y="236.7017">&#160;</text><text fill="#000000" font-family="Arial" font-size="12" lengthAdjust="spacing" textLength="10" x="147.25" y="236.7017">to</text><text fill="#000000" font-family="Arial" font-size="12" lengthAdjust="spacing" textLength="3" x="157.25" y="236.7017">&#160;</text><text fill="#000000" font-family="Arial" font-size="12" lengthAdjust="spacing" textLength="40" x="160.25" y="236.7017">dataset</text><text fill="#000000" font-family="Arial" font-size="12" lengthAdjust="spacing" textLength="3" x="200.25" y="236.7017">&#160;</text><text fill="#000000" font-family="Arial" font-size="12" lengthAdjust="spacing" textLength="72" x="203.25" y="236.7017">management</text><polygon fill="#000000" points="294.5,289.0435,304.5,293.0435,294.5,297.0435,298.5,293.0435" style="stroke:#000000;stroke-width:1.0;"/><line style="stroke:#000000;stroke-width:1.5;" x1="59" x2="300.5" y1="293.0435" y2="293.0435"/><text fill="#000000" font-family="Arial" font-size="12" lengthAdjust="spacing" textLength="40" x="128.75" y="280.5005">Upload</text><text fill="#000000" font-family="Arial" font-size="12" lengthAdjust="spacing" textLength="3" x="168.75" y="280.5005">&#160;</text><text fill="#000000" font-family="Arial" font-size="12" lengthAdjust="spacing" textLength="40" x="171.75" y="280.5005">dataset</text><text fill="#000000" font-family="Arial" font-size="12" lengthAdjust="spacing" textLength="3" x="211.75" y="280.5005">&#160;</text><text fill="#000000" font-family="Arial" font-size="12" lengthAdjust="spacing" textLength="22" x="214.75" y="280.5005">files</text><line style="stroke:#000000;stroke-width:1.5;" x1="316.5" x2="358.5" y1="336.8423" y2="336.8423"/><line style="stroke:#000000;stroke-width:1.5;" x1="358.5" x2="358.5" y1="336.8423" y2="349.8423"/><line style="stroke:#000000;stroke-width:1.5;" x1="317.5" x2="358.5" y1="349.8423" y2="349.8423"/><polygon fill="#000000" points="327.5,345.8423,317.5,349.8423,327.5,353.8423,323.5,349.8423" style="stroke:#000000;stroke-width:1.0;"/><text fill="#000000" font-family="Arial" font-size="12" lengthAdjust="spacing" textLength="45" x="331.5" y="324.2993">Validate</text><text fill="#000000" font-family="Arial" font-size="12" lengthAdjust="spacing" textLength="3" x="376.5" y="324.2993">&#160;</text><text fill="#000000" font-family="Arial" font-size="12" lengthAdjust="spacing" textLength="40" x="379.5" y="324.2993">dataset</text><text fill="#000000" font-family="Arial" font-size="12" lengthAdjust="spacing" textLength="3" x="419.5" y="324.2993">&#160;</text><text fill="#000000" font-family="Arial" font-size="12" lengthAdjust="spacing" textLength="34" x="422.5" y="324.2993">format</text><polygon fill="#000000" points="472.5,389.6411,482.5,393.6411,472.5,397.6411,476.5,393.6411" style="stroke:#000000;stroke-width:1.0;"/><line style="stroke:#000000;stroke-width:1.5;" x1="316.5" x2="478.5" y1="393.6411" y2="393.6411"/><text fill="#000000" font-family="Arial" font-size="12" lengthAdjust="spacing" textLength="32" x="340.5" y="381.0981">POST</text><text fill="#000000" font-family="Arial" font-size="12" lengthAdjust="spacing" textLength="3" x="372.5" y="381.0981">&#160;</text><text fill="#000000" font-family="Arial" font-size="12" lengthAdjust="spacing" textLength="85" x="375.5" y="381.0981">/api/v1/datasets</text><line style="stroke:#000000;stroke-width:1.5;" x1="494.5" x2="536.5" y1="437.4399" y2="437.4399"/><line style="stroke:#000000;stroke-width:1.5;" x1="536.5" x2="536.5" y1="437.4399" y2="450.4399"/><line style="stroke:#000000;stroke-width:1.5;" x1="495.5" x2="536.5" y1="450.4399" y2="450.4399"/><polygon fill="#000000" points="505.5,446.4399,495.5,450.4399,505.5,454.4399,501.5,450.4399" style="stroke:#000000;stroke-width:1.0;"/><text fill="#000000" font-family="Arial" font-size="12" lengthAdjust="spacing" textLength="45" x="509.5" y="424.897">Validate</text><text fill="#000000" font-family="Arial" font-size="12" lengthAdjust="spacing" textLength="3" x="554.5" y="424.897">&#160;</text><text fill="#000000" font-family="Arial" font-size="12" lengthAdjust="spacing" textLength="40" x="557.5" y="424.897">dataset</text><text fill="#000000" font-family="Arial" font-size="12" lengthAdjust="spacing" textLength="3" x="597.5" y="424.897">&#160;</text><text fill="#000000" font-family="Arial" font-size="12" lengthAdjust="spacing" textLength="51" x="600.5" y="424.897">metadata</text><polygon fill="#000000" points="659.5,490.2388,669.5,494.2388,659.5,498.2388,663.5,494.2388" style="stroke:#000000;stroke-width:1.0;"/><line style="stroke:#000000;stroke-width:1.5;" x1="494.5" x2="665.5" y1="494.2388" y2="494.2388"/><text fill="#000000" font-family="Arial" font-size="12" lengthAdjust="spacing" textLength="40" x="529" y="481.6958">Upload</text><text fill="#000000" font-family="Arial" font-size="12" lengthAdjust="spacing" textLength="3" x="569" y="481.6958">&#160;</text><text fill="#000000" font-family="Arial" font-size="12" lengthAdjust="spacing" textLength="40" x="572" y="481.6958">dataset</text><text fill="#000000" font-family="Arial" font-size="12" lengthAdjust="spacing" textLength="3" x="612" y="481.6958">&#160;</text><text fill="#000000" font-family="Arial" font-size="12" lengthAdjust="spacing" textLength="22" x="615" y="481.6958">files</text><polygon fill="#000000" points="505.5,534.0376,495.5,538.0376,505.5,542.0376,501.5,538.0376" style="stroke:#000000;stroke-width:1.0;"/><line style="stroke:#000000;stroke-width:1.5;stroke-dasharray:2.0,2.0;" x1="499.5" x2="670.5" y1="538.0376" y2="538.0376"/><text fill="#000000" font-family="Arial" font-size="12" lengthAdjust="spacing" textLength="43" x="541" y="525.4946">Confirm</text><text fill="#000000" font-family="Arial" font-size="12" lengthAdjust="spacing" textLength="3" x="584" y="525.4946">&#160;</text><text fill="#000000" font-family="Arial" font-size="12" lengthAdjust="spacing" textLength="38" x="587" y="525.4946">upload</text><polygon fill="#000000" points="785,577.8364,795,581.8364,785,585.8364,789,581.8364" style="stroke:#000000;stroke-width:1.0;"/><line style="stroke:#000000;stroke-width:1.5;" x1="494.5" x2="791" y1="581.8364" y2="581.8364"/><text fill="#000000" font-family="Arial" font-size="12" lengthAdjust="spacing" textLength="29" x="582.75" y="569.2935">Store</text><text fill="#000000" font-family="Arial" font-size="12" lengthAdjust="spacing" textLength="3" x="611.75" y="569.2935">&#160;</text><text fill="#000000" font-family="Arial" font-size="12" lengthAdjust="spacing" textLength="40" x="614.75" y="569.2935">dataset</text><text fill="#000000" font-family="Arial" font-size="12" lengthAdjust="spacing" textLength="3" x="654.75" y="569.2935">&#160;</text><text fill="#000000" font-family="Arial" font-size="12" lengthAdjust="spacing" textLength="51" x="657.75" y="569.2935">metadata</text><polygon fill="#000000" points="505.5,621.6353,495.5,625.6353,505.5,629.6353,501.5,625.6353" style="stroke:#000000;stroke-width:1.0;"/><line style="stroke:#000000;stroke-width:1.5;stroke-dasharray:2.0,2.0;" x1="499.5" x2="796" y1="625.6353" y2="625.6353"/><text fill="#000000" font-family="Arial" font-size="12" lengthAdjust="spacing" textLength="43" x="602.25" y="613.0923">Confirm</text><text fill="#000000" font-family="Arial" font-size="12" lengthAdjust="spacing" textLength="3" x="645.25" y="613.0923">&#160;</text><text fill="#000000" font-family="Arial" font-size="12" lengthAdjust="spacing" textLength="41" x="648.25" y="613.0923">storage</text><polygon fill="#000000" points="935.5,665.4341,945.5,669.4341,935.5,673.4341,939.5,669.4341" style="stroke:#000000;stroke-width:1.0;"/><line style="stroke:#000000;stroke-width:1.5;" x1="494.5" x2="941.5" y1="669.4341" y2="669.4341"/><text fill="#000000" font-family="Arial" font-size="12" lengthAdjust="spacing" textLength="46" x="648.5" y="656.8911">Register</text><text fill="#000000" font-family="Arial" font-size="12" lengthAdjust="spacing" textLength="3" x="694.5" y="656.8911">&#160;</text><text fill="#000000" font-family="Arial" font-size="12" lengthAdjust="spacing" textLength="40" x="697.5" y="656.8911">dataset</text><text fill="#000000" font-family="Arial" font-size="12" lengthAdjust="spacing" textLength="3" x="737.5" y="656.8911">&#160;</text><text fill="#000000" font-family="Arial" font-size="12" lengthAdjust="spacing" textLength="10" x="740.5" y="656.8911">in</text><text fill="#000000" font-family="Arial" font-size="12" lengthAdjust="spacing" textLength="3" x="750.5" y="656.8911">&#160;</text><text fill="#000000" font-family="Arial" font-size="12" lengthAdjust="spacing" textLength="40" x="753.5" y="656.8911">registry</text><polygon fill="#000000" points="505.5,709.2329,495.5,713.2329,505.5,717.2329,501.5,713.2329" style="stroke:#000000;stroke-width:1.0;"/><line style="stroke:#000000;stroke-width:1.5;stroke-dasharray:2.0,2.0;" x1="499.5" x2="946.5" y1="713.2329" y2="713.2329"/><text fill="#000000" font-family="Arial" font-size="12" lengthAdjust="spacing" textLength="43" x="667.5" y="700.6899">Confirm</text><text fill="#000000" font-family="Arial" font-size="12" lengthAdjust="spacing" textLength="3" x="710.5" y="700.6899">&#160;</text><text fill="#000000" font-family="Arial" font-size="12" lengthAdjust="spacing" textLength="61" x="713.5" y="700.6899">registration</text><polygon fill="#000000" points="327.5,753.0317,317.5,757.0317,327.5,761.0317,323.5,757.0317" style="stroke:#000000;stroke-width:1.0;"/><line style="stroke:#000000;stroke-width:1.5;stroke-dasharray:2.0,2.0;" x1="321.5" x2="488.5" y1="757.0317" y2="757.0317"/><text fill="#000000" font-family="Arial" font-size="12" lengthAdjust="spacing" textLength="37" x="361" y="744.4888">Return</text><text fill="#000000" font-family="Arial" font-size="12" lengthAdjust="spacing" textLength="3" x="398" y="744.4888">&#160;</text><text fill="#000000" font-family="Arial" font-size="12" lengthAdjust="spacing" textLength="44" x="401" y="744.4888">success</text><polygon fill="#000000" points="70,796.8306,60,800.8306,70,804.8306,66,800.8306" style="stroke:#000000;stroke-width:1.0;"/><line style="stroke:#000000;stroke-width:1.5;stroke-dasharray:2.0,2.0;" x1="64" x2="310.5" y1="800.8306" y2="800.8306"/><text fill="#000000" font-family="Arial" font-size="12" lengthAdjust="spacing" textLength="31" x="119.75" y="788.2876">Show</text><text fill="#000000" font-family="Arial" font-size="12" lengthAdjust="spacing" textLength="3" x="150.75" y="788.2876">&#160;</text><text fill="#000000" font-family="Arial" font-size="12" lengthAdjust="spacing" textLength="44" x="153.75" y="788.2876">success</text><text fill="#000000" font-family="Arial" font-size="12" lengthAdjust="spacing" textLength="3" x="197.75" y="788.2876">&#160;</text><text fill="#000000" font-family="Arial" font-size="12" lengthAdjust="spacing" textLength="50" x="200.75" y="788.2876">message</text><polygon fill="#000000" points="294.5,840.6294,304.5,844.6294,294.5,848.6294,298.5,844.6294" style="stroke:#000000;stroke-width:1.0;"/><line style="stroke:#000000;stroke-width:1.5;" x1="128.5" x2="300.5" y1="844.6294" y2="844.6294"/><text fill="#000000" font-family="Arial" font-size="12" lengthAdjust="spacing" textLength="41" x="146" y="832.0864">Browse</text><text fill="#000000" font-family="Arial" font-size="12" lengthAdjust="spacing" textLength="3" x="187" y="832.0864">&#160;</text><text fill="#000000" font-family="Arial" font-size="12" lengthAdjust="spacing" textLength="50" x="190" y="832.0864">available</text><text fill="#000000" font-family="Arial" font-size="12" lengthAdjust="spacing" textLength="3" x="240" y="832.0864">&#160;</text><text fill="#000000" font-family="Arial" font-size="12" lengthAdjust="spacing" textLength="46" x="243" y="832.0864">datasets</text><polygon fill="#000000" points="472.5,884.4282,482.5,888.4282,472.5,892.4282,476.5,888.4282" style="stroke:#000000;stroke-width:1.0;"/><line style="stroke:#000000;stroke-width:1.5;" x1="316.5" x2="478.5" y1="888.4282" y2="888.4282"/><text fill="#000000" font-family="Arial" font-size="12" lengthAdjust="spacing" textLength="24" x="344.5" y="875.8853">GET</text><text fill="#000000" font-family="Arial" font-size="12" lengthAdjust="spacing" textLength="3" x="368.5" y="875.8853">&#160;</text><text fill="#000000" font-family="Arial" font-size="12" lengthAdjust="spacing" textLength="85" x="371.5" y="875.8853">/api/v1/datasets</text><polygon fill="#000000" points="785,928.2271,795,932.2271,785,936.2271,789,932.2271" style="stroke:#000000;stroke-width:1.0;"/><line style="stroke:#000000;stroke-width:1.5;" x1="494.5" x2="791" y1="932.2271" y2="932.2271"/><text fill="#000000" font-family="Arial" font-size="12" lengthAdjust="spacing" textLength="30" x="582.25" y="919.6841">Fetch</text><text fill="#000000" font-family="Arial" font-size="12" lengthAdjust="spacing" textLength="3" x="612.25" y="919.6841">&#160;</text><text fill="#000000" font-family="Arial" font-size="12" lengthAdjust="spacing" textLength="40" x="615.25" y="919.6841">dataset</text><text fill="#000000" font-family="Arial" font-size="12" lengthAdjust="spacing" textLength="3" x="655.25" y="919.6841">&#160;</text><text fill="#000000" font-family="Arial" font-size="12" lengthAdjust="spacing" textLength="51" x="658.25" y="919.6841">metadata</text><polygon fill="#000000" points="505.5,972.0259,495.5,976.0259,505.5,980.0259,501.5,976.0259" style="stroke:#000000;stroke-width:1.0;"/><line style="stroke:#000000;stroke-width:1.5;stroke-dasharray:2.0,2.0;" x1="499.5" x2="796" y1="976.0259" y2="976.0259"/><text fill="#000000" font-family="Arial" font-size="12" lengthAdjust="spacing" textLength="37" x="602.75" y="963.4829">Return</text><text fill="#000000" font-family="Arial" font-size="12" lengthAdjust="spacing" textLength="3" x="639.75" y="963.4829">&#160;</text><text fill="#000000" font-family="Arial" font-size="12" lengthAdjust="spacing" textLength="46" x="642.75" y="963.4829">datasets</text><polygon fill="#000000" points="327.5,1015.8247,317.5,1019.8247,327.5,1023.8247,323.5,1019.8247" style="stroke:#000000;stroke-width:1.0;"/><line style="stroke:#000000;stroke-width:1.5;stroke-dasharray:2.0,2.0;" x1="321.5" x2="488.5" y1="1019.8247" y2="1019.8247"/><text fill="#000000" font-family="Arial" font-size="12" lengthAdjust="spacing" textLength="37" x="354" y="1007.2817">Return</text><text fill="#000000" font-family="Arial" font-size="12" lengthAdjust="spacing" textLength="3" x="391" y="1007.2817">&#160;</text><text fill="#000000" font-family="Arial" font-size="12" lengthAdjust="spacing" textLength="40" x="394" y="1007.2817">dataset</text><text fill="#000000" font-family="Arial" font-size="12" lengthAdjust="spacing" textLength="3" x="434" y="1007.2817">&#160;</text><text fill="#000000" font-family="Arial" font-size="12" lengthAdjust="spacing" textLength="15" x="437" y="1007.2817">list</text><polygon fill="#000000" points="139.5,1059.6235,129.5,1063.6235,139.5,1067.6235,135.5,1063.6235" style="stroke:#000000;stroke-width:1.0;"/><line style="stroke:#000000;stroke-width:1.5;stroke-dasharray:2.0,2.0;" x1="133.5" x2="310.5" y1="1063.6235" y2="1063.6235"/><text fill="#000000" font-family="Arial" font-size="12" lengthAdjust="spacing" textLength="41" x="158" y="1051.0806">Display</text><text fill="#000000" font-family="Arial" font-size="12" lengthAdjust="spacing" textLength="3" x="199" y="1051.0806">&#160;</text><text fill="#000000" font-family="Arial" font-size="12" lengthAdjust="spacing" textLength="40" x="202" y="1051.0806">dataset</text><text fill="#000000" font-family="Arial" font-size="12" lengthAdjust="spacing" textLength="3" x="242" y="1051.0806">&#160;</text><text fill="#000000" font-family="Arial" font-size="12" lengthAdjust="spacing" textLength="37" x="245" y="1051.0806">gallery</text><polygon fill="#000000" points="294.5,1103.4224,304.5,1107.4224,294.5,1111.4224,298.5,1107.4224" style="stroke:#000000;stroke-width:1.0;"/><line style="stroke:#000000;stroke-width:1.5;" x1="128.5" x2="300.5" y1="1107.4224" y2="1107.4224"/><text fill="#000000" font-family="Arial" font-size="12" lengthAdjust="spacing" textLength="27" x="163" y="1094.8794">View</text><text fill="#000000" font-family="Arial" font-size="12" lengthAdjust="spacing" textLength="3" x="190" y="1094.8794">&#160;</text><text fill="#000000" font-family="Arial" font-size="12" lengthAdjust="spacing" textLength="40" x="193" y="1094.8794">dataset</text><text fill="#000000" font-family="Arial" font-size="12" lengthAdjust="spacing" textLength="3" x="233" y="1094.8794">&#160;</text><text fill="#000000" font-family="Arial" font-size="12" lengthAdjust="spacing" textLength="36" x="236" y="1094.8794">details</text><polygon fill="#000000" points="472.5,1147.2212,482.5,1151.2212,472.5,1155.2212,476.5,1151.2212" style="stroke:#000000;stroke-width:1.0;"/><line style="stroke:#000000;stroke-width:1.5;" x1="316.5" x2="478.5" y1="1151.2212" y2="1151.2212"/><text fill="#000000" font-family="Arial" font-size="12" lengthAdjust="spacing" textLength="24" x="334" y="1138.6782">GET</text><text fill="#000000" font-family="Arial" font-size="12" lengthAdjust="spacing" textLength="3" x="358" y="1138.6782">&#160;</text><text fill="#000000" font-family="Arial" font-size="12" lengthAdjust="spacing" textLength="106" x="361" y="1138.6782">/api/v1/datasets/{id}</text><polygon fill="#000000" points="785,1191.02,795,1195.02,785,1199.02,789,1195.02" style="stroke:#000000;stroke-width:1.0;"/><line style="stroke:#000000;stroke-width:1.5;" x1="494.5" x2="791" y1="1195.02" y2="1195.02"/><text fill="#000000" font-family="Arial" font-size="12" lengthAdjust="spacing" textLength="30" x="582.25" y="1182.4771">Fetch</text><text fill="#000000" font-family="Arial" font-size="12" lengthAdjust="spacing" textLength="3" x="612.25" y="1182.4771">&#160;</text><text fill="#000000" font-family="Arial" font-size="12" lengthAdjust="spacing" textLength="40" x="615.25" y="1182.4771">dataset</text><text fill="#000000" font-family="Arial" font-size="12" lengthAdjust="spacing" textLength="3" x="655.25" y="1182.4771">&#160;</text><text fill="#000000" font-family="Arial" font-size="12" lengthAdjust="spacing" textLength="51" x="658.25" y="1182.4771">metadata</text><polygon fill="#000000" points="505.5,1234.8188,495.5,1238.8188,505.5,1242.8188,501.5,1238.8188" style="stroke:#000000;stroke-width:1.0;"/><line style="stroke:#000000;stroke-width:1.5;stroke-dasharray:2.0,2.0;" x1="499.5" x2="796" y1="1238.8188" y2="1238.8188"/><text fill="#000000" font-family="Arial" font-size="12" lengthAdjust="spacing" textLength="37" x="605.75" y="1226.2759">Return</text><text fill="#000000" font-family="Arial" font-size="12" lengthAdjust="spacing" textLength="3" x="642.75" y="1226.2759">&#160;</text><text fill="#000000" font-family="Arial" font-size="12" lengthAdjust="spacing" textLength="40" x="645.75" y="1226.2759">dataset</text><polygon fill="#000000" points="659.5,1278.6177,669.5,1282.6177,659.5,1286.6177,663.5,1282.6177" style="stroke:#000000;stroke-width:1.0;"/><line style="stroke:#000000;stroke-width:1.5;" x1="494.5" x2="665.5" y1="1282.6177" y2="1282.6177"/><text fill="#000000" font-family="Arial" font-size="12" lengthAdjust="spacing" textLength="19" x="530.5" y="1270.0747">Get</text><text fill="#000000" font-family="Arial" font-size="12" lengthAdjust="spacing" textLength="3" x="549.5" y="1270.0747">&#160;</text><text fill="#000000" font-family="Arial" font-size="12" lengthAdjust="spacing" textLength="40" x="552.5" y="1270.0747">dataset</text><text fill="#000000" font-family="Arial" font-size="12" lengthAdjust="spacing" textLength="3" x="592.5" y="1270.0747">&#160;</text><text fill="#000000" font-family="Arial" font-size="12" lengthAdjust="spacing" textLength="40" x="595.5" y="1270.0747">sample</text><polygon fill="#000000" points="505.5,1322.4165,495.5,1326.4165,505.5,1330.4165,501.5,1326.4165" style="stroke:#000000;stroke-width:1.0;"/><line style="stroke:#000000;stroke-width:1.5;stroke-dasharray:2.0,2.0;" x1="499.5" x2="670.5" y1="1326.4165" y2="1326.4165"/><text fill="#000000" font-family="Arial" font-size="12" lengthAdjust="spacing" textLength="37" x="529.5" y="1313.8735">Return</text><text fill="#000000" font-family="Arial" font-size="12" lengthAdjust="spacing" textLength="3" x="566.5" y="1313.8735">&#160;</text><text fill="#000000" font-family="Arial" font-size="12" lengthAdjust="spacing" textLength="40" x="569.5" y="1313.8735">sample</text><text fill="#000000" font-family="Arial" font-size="12" lengthAdjust="spacing" textLength="3" x="609.5" y="1313.8735">&#160;</text><text fill="#000000" font-family="Arial" font-size="12" lengthAdjust="spacing" textLength="24" x="612.5" y="1313.8735">data</text><polygon fill="#000000" points="327.5,1366.2153,317.5,1370.2153,327.5,1374.2153,323.5,1370.2153" style="stroke:#000000;stroke-width:1.0;"/><line style="stroke:#000000;stroke-width:1.5;stroke-dasharray:2.0,2.0;" x1="321.5" x2="488.5" y1="1370.2153" y2="1370.2153"/><text fill="#000000" font-family="Arial" font-size="12" lengthAdjust="spacing" textLength="37" x="342.5" y="1357.6724">Return</text><text fill="#000000" font-family="Arial" font-size="12" lengthAdjust="spacing" textLength="3" x="379.5" y="1357.6724">&#160;</text><text fill="#000000" font-family="Arial" font-size="12" lengthAdjust="spacing" textLength="54" x="382.5" y="1357.6724">combined</text><text fill="#000000" font-family="Arial" font-size="12" lengthAdjust="spacing" textLength="3" x="436.5" y="1357.6724">&#160;</text><text fill="#000000" font-family="Arial" font-size="12" lengthAdjust="spacing" textLength="24" x="439.5" y="1357.6724">data</text><polygon fill="#000000" points="139.5,1410.0142,129.5,1414.0142,139.5,1418.0142,135.5,1414.0142" style="stroke:#000000;stroke-width:1.0;"/><line style="stroke:#000000;stroke-width:1.5;stroke-dasharray:2.0,2.0;" x1="133.5" x2="310.5" y1="1414.0142" y2="1414.0142"/><text fill="#000000" font-family="Arial" font-size="12" lengthAdjust="spacing" textLength="41" x="158.5" y="1401.4712">Display</text><text fill="#000000" font-family="Arial" font-size="12" lengthAdjust="spacing" textLength="3" x="199.5" y="1401.4712">&#160;</text><text fill="#000000" font-family="Arial" font-size="12" lengthAdjust="spacing" textLength="40" x="202.5" y="1401.4712">dataset</text><text fill="#000000" font-family="Arial" font-size="12" lengthAdjust="spacing" textLength="3" x="242.5" y="1401.4712">&#160;</text><text fill="#000000" font-family="Arial" font-size="12" lengthAdjust="spacing" textLength="36" x="245.5" y="1401.4712">details</text><rect fill="none" height="383.085" id="_legend" rx="4" ry="4" style="stroke:#000000;stroke-width:1.0;" width="355" x="664.5" y="1536.1128"/><text fill="#000000" font-family="Arial" font-size="14" font-weight="bold" lengthAdjust="spacing" textLength="78" x="689.5" y="1572.2446">Entity Type</text><text fill="#000000" font-family="Arial" font-size="14" font-weight="bold" lengthAdjust="spacing" textLength="79" x="791.5" y="1572.2446">Description</text><rect fill="#E9F7EF" height="32.0986" style="stroke:none;stroke-width:1.0;" width="102" x="677.5" y="1583.2114"/><text fill="#000000" font-family="Arial" font-size="14" lengthAdjust="spacing" textLength="4" x="685.5" y="1604.3433">&#160;</text><text fill="#000000" font-family="Arial" font-size="14" lengthAdjust="spacing" textLength="203" x="791.5" y="1604.3433">Frontend - Web/UI Components</text><rect fill="#EBF5FB" height="32.0986" style="stroke:none;stroke-width:1.0;" width="102" x="677.5" y="1615.3101"/><text fill="#000000" font-family="Arial" font-size="14" lengthAdjust="spacing" textLength="4" x="685.5" y="1636.4419">&#160;</text><text fill="#000000" font-family="Arial" font-size="14" lengthAdjust="spacing" textLength="148" x="791.5" y="1636.4419">API - Backend Services</text><rect fill="#F9EBEA" height="32.0986" style="stroke:none;stroke-width:1.0;" width="102" x="677.5" y="1647.4087"/><text fill="#000000" font-family="Arial" font-size="14" lengthAdjust="spacing" textLength="4" x="685.5" y="1668.5405">&#160;</text><text fill="#000000" font-family="Arial" font-size="14" lengthAdjust="spacing" textLength="190" x="791.5" y="1668.5405">Auth - Authentication Services</text><rect fill="#F4ECF7" height="32.0986" style="stroke:none;stroke-width:1.0;" width="102" x="677.5" y="1679.5073"/><text fill="#000000" font-family="Arial" font-size="14" lengthAdjust="spacing" textLength="4" x="685.5" y="1700.6392">&#160;</text><text fill="#000000" font-family="Arial" font-size="14" lengthAdjust="spacing" textLength="158" x="791.5" y="1700.6392">Database - Data Storage</text><rect fill="#FEF9E7" height="32.0986" style="stroke:none;stroke-width:1.0;" width="102" x="677.5" y="1711.606"/><text fill="#000000" font-family="Arial" font-size="14" lengthAdjust="spacing" textLength="4" x="685.5" y="1732.7378">&#160;</text><text fill="#000000" font-family="Arial" font-size="14" lengthAdjust="spacing" textLength="181" x="791.5" y="1732.7378">External - 3rd Party Services</text><rect fill="#FADBD8" height="32.0986" style="stroke:none;stroke-width:1.0;" width="102" x="677.5" y="1743.7046"/><text fill="#000000" font-family="Arial" font-size="14" lengthAdjust="spacing" textLength="4" x="685.5" y="1764.8364">&#160;</text><text fill="#000000" font-family="Arial" font-size="14" lengthAdjust="spacing" textLength="170" x="791.5" y="1764.8364">Contract - Smart Contracts</text><rect fill="#FCF3CF" height="32.0986" style="stroke:none;stroke-width:1.0;" width="102" x="677.5" y="1775.8032"/><text fill="#000000" font-family="Arial" font-size="14" lengthAdjust="spacing" textLength="4" x="685.5" y="1796.9351">&#160;</text><text fill="#000000" font-family="Arial" font-size="14" lengthAdjust="spacing" textLength="168" x="791.5" y="1796.9351">Queue - Message Queues</text><rect fill="#D6EAF8" height="32.0986" style="stroke:none;stroke-width:1.0;" width="102" x="677.5" y="1807.9019"/><text fill="#000000" font-family="Arial" font-size="14" lengthAdjust="spacing" textLength="4" x="685.5" y="1829.0337">&#160;</text><text fill="#000000" font-family="Arial" font-size="14" lengthAdjust="spacing" textLength="171" x="791.5" y="1829.0337">Operator - Validator Nodes</text><rect fill="#D4EFDF" height="32.0986" style="stroke:none;stroke-width:1.0;" width="102" x="677.5" y="1840.0005"/><text fill="#000000" font-family="Arial" font-size="14" lengthAdjust="spacing" textLength="4" x="685.5" y="1861.1323">&#160;</text><text fill="#000000" font-family="Arial" font-size="14" lengthAdjust="spacing" textLength="197" x="791.5" y="1861.1323">Evaluator - Evaluation Services</text><rect fill="#F5EEF8" height="32.0986" style="stroke:none;stroke-width:1.0;" width="102" x="677.5" y="1872.0991"/><text fill="#000000" font-family="Arial" font-size="14" lengthAdjust="spacing" textLength="4" x="685.5" y="1893.231">&#160;</text><text fill="#000000" font-family="Arial" font-size="14" lengthAdjust="spacing" textLength="171" x="791.5" y="1893.231">Storage - Storage Services</text><line style="stroke:#000000;stroke-width:1.0;" x1="677.5" x2="1006.5" y1="1551.1128" y2="1551.1128"/><line style="stroke:#000000;stroke-width:1.0;" x1="677.5" x2="1006.5" y1="1583.2114" y2="1583.2114"/><line style="stroke:#000000;stroke-width:1.0;" x1="677.5" x2="1006.5" y1="1615.3101" y2="1615.3101"/><line style="stroke:#000000;stroke-width:1.0;" x1="677.5" x2="1006.5" y1="1647.4087" y2="1647.4087"/><line style="stroke:#000000;stroke-width:1.0;" x1="677.5" x2="1006.5" y1="1679.5073" y2="1679.5073"/><line style="stroke:#000000;stroke-width:1.0;" x1="677.5" x2="1006.5" y1="1711.606" y2="1711.606"/><line style="stroke:#000000;stroke-width:1.0;" x1="677.5" x2="1006.5" y1="1743.7046" y2="1743.7046"/><line style="stroke:#000000;stroke-width:1.0;" x1="677.5" x2="1006.5" y1="1775.8032" y2="1775.8032"/><line style="stroke:#000000;stroke-width:1.0;" x1="677.5" x2="1006.5" y1="1807.9019" y2="1807.9019"/><line style="stroke:#000000;stroke-width:1.0;" x1="677.5" x2="1006.5" y1="1840.0005" y2="1840.0005"/><line style="stroke:#000000;stroke-width:1.0;" x1="677.5" x2="1006.5" y1="1872.0991" y2="1872.0991"/><line style="stroke:#000000;stroke-width:1.0;" x1="677.5" x2="1006.5" y1="1904.1978" y2="1904.1978"/><line style="stroke:#000000;stroke-width:1.0;" x1="677.5" x2="677.5" y1="1551.1128" y2="1904.1978"/><line style="stroke:#000000;stroke-width:1.0;" x1="779.5" x2="779.5" y1="1551.1128" y2="1904.1978"/><line style="stroke:#000000;stroke-width:1.0;" x1="1006.5" x2="1006.5" y1="1551.1128" y2="1904.1978"/><!--SRC=[jPJ1Rjim44Jl_8fjpdMDmZSZCE0aTT13sY1gqlDQsYW4A58GAHb6qN_lKYOfArPQ8q0lDWNDZBXlH7sGEbTjGP2RgZ9wPjrUqQUwhPGGJZf5S8CEBJcuGuqbLQGTR9JP2O6vCmsiYqhgi7wqr8WQ6oTpMICBBzPEeOLDOxGZNLp0qGLSNiRbQZNbMjz_xGtyprh-FP7zp21Rz9fimPACzy1RV2sxCxeqDrUzBgnPxCVQyc2lrN7S1ogbTSs-jyMBqKE4Dex0T1GWV4ooPOBsM2k31I2FE_0JejV3R9LWBE4RTh943dG6Yk2k1ik48sH7yRDKP7qHilCnKISIxv7v2PKil2xPJLEX6waP-HBklsS_O8wrd7UVvq5yz1ZM25zGb9_aLkJGhwCgMxonSwvm5bEkZNwMJGLjBupMKDuIV0SJJuZbdiJOGsSnPwZfiE82OnOpRi9TaKe_oGiITDBeG-Y8xGEvjj5WspmdQqL18re3OH_hQ-M1NimkwdaUQ_rkZtofJE6FsBZ9gyRiB05sA1LkLUBohtUXd-Zsovdb9lORSldB6Um3X1Jw9gOOfHZfNrdvqVbaILiht2TRYKeHjtKchIT9k-GjUFTIlHlK_9SiVlyFMiTdvTRlC_WjLhMYqKc9xrf_1uQ3DaMQF_5RgUbmyDw1EkAQGFq7]--></g></svg>