<?xml version="1.0" encoding="us-ascii" standalone="no"?><svg xmlns="http://www.w3.org/2000/svg" xmlns:xlink="http://www.w3.org/1999/xlink" contentStyleType="text/css" height="1128px" preserveAspectRatio="none" style="width:1445px;height:1128px;background:#FFFFFF;" version="1.1" viewBox="0 0 1445 1128" width="1445px" zoomAndPan="magnify"><defs><filter height="1" id="b1l5l0imhees8u0" width="1" x="0" y="0"><feFlood flood-color="#E9F7EF" result="flood"/><feComposite in="SourceGraphic" in2="flood" operator="over"/></filter><filter height="1" id="b1l5l0imhees8u1" width="1" x="0" y="0"><feFlood flood-color="#EBF5FB" result="flood"/><feComposite in="SourceGraphic" in2="flood" operator="over"/></filter><filter height="1" id="b1l5l0imhees8u2" width="1" x="0" y="0"><feFlood flood-color="#F9EBEA" result="flood"/><feComposite in="SourceGraphic" in2="flood" operator="over"/></filter><filter height="1" id="b1l5l0imhees8u3" width="1" x="0" y="0"><feFlood flood-color="#F4ECF7" result="flood"/><feComposite in="SourceGraphic" in2="flood" operator="over"/></filter><filter height="1" id="b1l5l0imhees8u4" width="1" x="0" y="0"><feFlood flood-color="#FEF9E7" result="flood"/><feComposite in="SourceGraphic" in2="flood" operator="over"/></filter><filter height="1" id="b1l5l0imhees8u5" width="1" x="0" y="0"><feFlood flood-color="#FADBD8" result="flood"/><feComposite in="SourceGraphic" in2="flood" operator="over"/></filter><filter height="1" id="b1l5l0imhees8u6" width="1" x="0" y="0"><feFlood flood-color="#FCF3CF" result="flood"/><feComposite in="SourceGraphic" in2="flood" operator="over"/></filter><filter height="1" id="b1l5l0imhees8u7" width="1" x="0" y="0"><feFlood flood-color="#D6EAF8" result="flood"/><feComposite in="SourceGraphic" in2="flood" operator="over"/></filter><filter height="1" id="b1l5l0imhees8u8" width="1" x="0" y="0"><feFlood flood-color="#D4EFDF" result="flood"/><feComposite in="SourceGraphic" in2="flood" operator="over"/></filter><filter height="1" id="b1l5l0imhees8u9" width="1" x="0" y="0"><feFlood flood-color="#F5EEF8" result="flood"/><feComposite in="SourceGraphic" in2="flood" operator="over"/></filter></defs><g><text fill="#000000" font-family="sans-serif" font-size="18" font-weight="bold" lengthAdjust="spacing" textLength="310" x="551.5" y="27.4023">LayerLens Atlas App Architecture</text><!--cluster Atlas Frontend--><g id="cluster_Atlas Frontend"><rect fill="none" height="341" rx="4" ry="4" style="stroke:#999999;stroke-width:1.0;" width="310" x="943.0425" y="165.1992"/><text fill="#000000" font-family="sans-serif" font-size="14" font-weight="bold" lengthAdjust="spacing" textLength="106" x="1045.0425" y="180.7344">Atlas Frontend</text></g><!--cluster API Layer--><g id="cluster_API Layer"><rect fill="none" height="227" rx="4" ry="4" style="stroke:#999999;stroke-width:1.0;" width="374" x="354.0425" y="410.1992"/><text fill="#000000" font-family="sans-serif" font-size="14" font-weight="bold" lengthAdjust="spacing" textLength="67" x="507.5425" y="425.7344">API Layer</text></g><!--cluster Core Services--><g id="cluster_Core Services"><rect fill="none" height="96" rx="4" ry="4" style="stroke:#999999;stroke-width:1.0;" width="652" x="31.0425" y="672.1992"/><text fill="#000000" font-family="sans-serif" font-size="14" font-weight="bold" lengthAdjust="spacing" textLength="96" x="309.0425" y="687.7344">Core Services</text></g><!--cluster Integration Layer--><g id="cluster_Integration Layer"><rect fill="none" height="227" rx="4" ry="4" style="stroke:#999999;stroke-width:1.0;" width="266" x="976.0425" y="541.1992"/><text fill="#000000" font-family="sans-serif" font-size="14" font-weight="bold" lengthAdjust="spacing" textLength="123" x="1047.5425" y="556.7344">Integration Layer</text></g><!--cluster Data Layer--><g id="cluster_Data Layer"><rect fill="none" height="96" rx="4" ry="4" style="stroke:#999999;stroke-width:1.0;" width="465" x="293.0425" y="803.1992"/><text fill="#000000" font-family="sans-serif" font-size="14" font-weight="bold" lengthAdjust="spacing" textLength="76" x="487.5425" y="818.7344">Data Layer</text></g><!--cluster External Services--><g id="cluster_External Services"><rect fill="none" height="96" rx="4" ry="4" style="stroke:#999999;stroke-width:1.0;" width="350" x="1089.0425" y="803.1992"/><text fill="#000000" font-family="sans-serif" font-size="14" font-weight="bold" lengthAdjust="spacing" textLength="121" x="1203.5425" y="818.7344">External Services</text></g><!--entity user--><g id="elem_user"><ellipse cx="1015.0425" cy="54.6992" fill="#F1F1F1" rx="8" ry="8" style="stroke:#181818;stroke-width:0.5;"/><path d="M1015.0425,62.6992 L1015.0425,89.6992 M1002.0425,70.6992 L1028.0425,70.6992 M1015.0425,89.6992 L1002.0425,104.6992 M1015.0425,89.6992 L1028.0425,104.6992 " fill="none" style="stroke:#181818;stroke-width:0.5;"/><text fill="#000000" font-family="sans-serif" font-size="14" lengthAdjust="spacing" textLength="31" x="999.5425" y="119.7344">User</text></g><!--entity web_ui--><g id="elem_web_ui"><rect fill="#E9F7EF" height="61.3965" rx="4" ry="4" style="stroke:#27AE60;stroke-width:2.0;" width="90" x="970.0425" y="192.1992"/><text fill="#000000" font-family="Arial" font-size="12" font-style="italic" lengthAdjust="spacing" textLength="63" x="983.5425" y="213.4551">&#171;Frontend&#187;</text><text fill="#000000" font-family="Arial" font-size="12" lengthAdjust="spacing" textLength="70" x="980.0425" y="227.2539">Atlas Web UI</text><text fill="#000000" font-family="Arial" font-size="12" lengthAdjust="spacing" textLength="40" x="995.0425" y="241.0527">(React)</text></g><!--entity nextjs--><g id="elem_nextjs"><rect fill="#E9F7EF" height="61.3965" rx="4" ry="4" style="stroke:#27AE60;stroke-width:2.0;" width="83" x="973.5425" y="306.1992"/><text fill="#000000" font-family="Arial" font-size="12" font-style="italic" lengthAdjust="spacing" textLength="63" x="983.5425" y="327.4551">&#171;Frontend&#187;</text><text fill="#000000" font-family="Arial" font-size="12" lengthAdjust="spacing" textLength="62" x="984.0425" y="341.2539">Next.js App</text><text fill="#000000" font-family="Arial" font-size="12" lengthAdjust="spacing" textLength="50" x="990.0425" y="355.0527">(Node.js)</text></g><!--entity auth--><g id="elem_auth"><rect fill="#F9EBEA" height="61.3965" rx="4" ry="4" style="stroke:#E74C3C;stroke-width:2.0;" width="142" x="1103.0425" y="437.1992"/><text fill="#000000" font-family="Arial" font-size="12" font-style="italic" lengthAdjust="spacing" textLength="39" x="1154.5425" y="458.4551">&#171;Auth&#187;</text><text fill="#000000" font-family="Arial" font-size="12" lengthAdjust="spacing" textLength="122" x="1113.0425" y="472.2539">Authentication Module</text><text fill="#000000" font-family="Arial" font-size="12" lengthAdjust="spacing" textLength="58" x="1145.0425" y="486.0527">(NextAuth)</text></g><!--entity viz--><g id="elem_viz"><rect fill="#E9F7EF" height="61.3965" rx="4" ry="4" style="stroke:#27AE60;stroke-width:2.0;" width="134" x="951.0425" y="437.1992"/><text fill="#000000" font-family="Arial" font-size="12" font-style="italic" lengthAdjust="spacing" textLength="63" x="986.5425" y="458.4551">&#171;Frontend&#187;</text><text fill="#000000" font-family="Arial" font-size="12" lengthAdjust="spacing" textLength="114" x="961.0425" y="472.2539">Results Visualization</text><text fill="#000000" font-family="Arial" font-size="12" lengthAdjust="spacing" textLength="40" x="998.0425" y="486.0527">(React)</text></g><!--entity api_gw--><g id="elem_api_gw"><rect fill="#EBF5FB" height="61.3965" rx="4" ry="4" style="stroke:#3498DB;stroke-width:2.0;" width="90" x="529.0425" y="437.1992"/><text fill="#000000" font-family="Arial" font-size="12" font-style="italic" lengthAdjust="spacing" textLength="33" x="557.5425" y="458.4551">&#171;API&#187;</text><text fill="#000000" font-family="Arial" font-size="12" lengthAdjust="spacing" textLength="70" x="539.0425" y="472.2539">API Gateway</text><text fill="#000000" font-family="Arial" font-size="12" lengthAdjust="spacing" textLength="24" x="562.0425" y="486.0527">(Go)</text></g><!--entity go_backend--><g id="elem_go_backend"><rect fill="#EBF5FB" height="61.3965" rx="4" ry="4" style="stroke:#3498DB;stroke-width:2.0;" width="109" x="362.5425" y="568.1992"/><text fill="#000000" font-family="Arial" font-size="12" font-style="italic" lengthAdjust="spacing" textLength="33" x="400.5425" y="589.4551">&#171;API&#187;</text><text fill="#000000" font-family="Arial" font-size="12" lengthAdjust="spacing" textLength="89" x="372.5425" y="603.2539">Go Backend API</text><text fill="#000000" font-family="Arial" font-size="12" lengthAdjust="spacing" textLength="24" x="405.0425" y="617.0527">(Go)</text></g><!--entity websocket--><g id="elem_websocket"><rect fill="#EBF5FB" height="61.3965" rx="4" ry="4" style="stroke:#3498DB;stroke-width:2.0;" width="126" x="490.0425" y="568.1992"/><text fill="#000000" font-family="Arial" font-size="12" font-style="italic" lengthAdjust="spacing" textLength="33" x="536.5425" y="589.4551">&#171;API&#187;</text><text fill="#000000" font-family="Arial" font-size="12" lengthAdjust="spacing" textLength="106" x="500.0425" y="603.2539">WebSocket Service</text><text fill="#000000" font-family="Arial" font-size="12" lengthAdjust="spacing" textLength="24" x="541.0425" y="617.0527">(Go)</text></g><!--entity rate_limiter--><g id="elem_rate_limiter"><rect fill="#EBF5FB" height="61.3965" rx="4" ry="4" style="stroke:#3498DB;stroke-width:2.0;" width="86" x="634.0425" y="568.1992"/><text fill="#000000" font-family="Arial" font-size="12" font-style="italic" lengthAdjust="spacing" textLength="33" x="660.5425" y="589.4551">&#171;API&#187;</text><text fill="#000000" font-family="Arial" font-size="12" lengthAdjust="spacing" textLength="66" x="644.0425" y="603.2539">Rate Limiter</text><text fill="#000000" font-family="Arial" font-size="12" lengthAdjust="spacing" textLength="24" x="665.0425" y="617.0527">(Go)</text></g><!--entity eval_manager--><g id="elem_eval_manager"><rect fill="#EBF5FB" height="61.3965" rx="4" ry="4" style="stroke:#3498DB;stroke-width:2.0;" width="130" x="407.0425" y="699.1992"/><text fill="#000000" font-family="Arial" font-size="12" font-style="italic" lengthAdjust="spacing" textLength="33" x="455.5425" y="720.4551">&#171;API&#187;</text><text fill="#000000" font-family="Arial" font-size="12" lengthAdjust="spacing" textLength="110" x="417.0425" y="734.2539">Evaluation Manager</text><text fill="#000000" font-family="Arial" font-size="12" lengthAdjust="spacing" textLength="24" x="460.0425" y="748.0527">(Go)</text></g><!--entity model_registry--><g id="elem_model_registry"><rect fill="#EBF5FB" height="61.3965" rx="4" ry="4" style="stroke:#3498DB;stroke-width:2.0;" width="102" x="39.0425" y="699.1992"/><text fill="#000000" font-family="Arial" font-size="12" font-style="italic" lengthAdjust="spacing" textLength="33" x="73.5425" y="720.4551">&#171;API&#187;</text><text fill="#000000" font-family="Arial" font-size="12" lengthAdjust="spacing" textLength="82" x="49.0425" y="734.2539">Model Registry</text><text fill="#000000" font-family="Arial" font-size="12" lengthAdjust="spacing" textLength="24" x="78.0425" y="748.0527">(Go)</text></g><!--entity dataset_manager--><g id="elem_dataset_manager"><rect fill="#EBF5FB" height="61.3965" rx="4" ry="4" style="stroke:#3498DB;stroke-width:2.0;" width="114" x="275.0425" y="699.1992"/><text fill="#000000" font-family="Arial" font-size="12" font-style="italic" lengthAdjust="spacing" textLength="33" x="315.5425" y="720.4551">&#171;API&#187;</text><text fill="#000000" font-family="Arial" font-size="12" lengthAdjust="spacing" textLength="94" x="285.0425" y="734.2539">Dataset Manager</text><text fill="#000000" font-family="Arial" font-size="12" lengthAdjust="spacing" textLength="24" x="320.0425" y="748.0527">(Go)</text></g><!--entity user_manager--><g id="elem_user_manager"><rect fill="#EBF5FB" height="61.3965" rx="4" ry="4" style="stroke:#3498DB;stroke-width:2.0;" width="98" x="159.0425" y="699.1992"/><text fill="#000000" font-family="Arial" font-size="12" font-style="italic" lengthAdjust="spacing" textLength="33" x="191.5425" y="720.4551">&#171;API&#187;</text><text fill="#000000" font-family="Arial" font-size="12" lengthAdjust="spacing" textLength="78" x="169.0425" y="734.2539">User Manager</text><text fill="#000000" font-family="Arial" font-size="12" lengthAdjust="spacing" textLength="24" x="196.0425" y="748.0527">(Go)</text></g><!--entity results_processor--><g id="elem_results_processor"><rect fill="#EBF5FB" height="61.3965" rx="4" ry="4" style="stroke:#3498DB;stroke-width:2.0;" width="119" x="555.5425" y="699.1992"/><text fill="#000000" font-family="Arial" font-size="12" font-style="italic" lengthAdjust="spacing" textLength="33" x="598.5425" y="720.4551">&#171;API&#187;</text><text fill="#000000" font-family="Arial" font-size="12" lengthAdjust="spacing" textLength="99" x="565.5425" y="734.2539">Results Processor</text><text fill="#000000" font-family="Arial" font-size="12" lengthAdjust="spacing" textLength="24" x="603.0425" y="748.0527">(Go)</text></g><!--entity worker--><g id="elem_worker"><rect fill="#D4EFDF" height="61.3965" rx="4" ry="4" style="stroke:#196F3D;stroke-width:2.0;" width="120" x="984.0425" y="568.1992"/><text fill="#000000" font-family="Arial" font-size="12" font-style="italic" lengthAdjust="spacing" textLength="66" x="1011.0425" y="589.4551">&#171;Evaluator&#187;</text><text fill="#000000" font-family="Arial" font-size="12" lengthAdjust="spacing" textLength="100" x="994.0425" y="603.2539">Evaluation Worker</text><text fill="#000000" font-family="Arial" font-size="12" lengthAdjust="spacing" textLength="24" x="1032.0425" y="617.0527">(Go)</text></g><!--entity contract_client--><g id="elem_contract_client"><rect fill="#FADBD8" height="61.3965" rx="4" ry="4" style="stroke:#943126;stroke-width:2.0;" width="136" x="1098.0425" y="699.1992"/><text fill="#000000" font-family="Arial" font-size="12" font-style="italic" lengthAdjust="spacing" textLength="60" x="1136.0425" y="720.4551">&#171;Contract&#187;</text><text fill="#000000" font-family="Arial" font-size="12" lengthAdjust="spacing" textLength="116" x="1108.0425" y="734.2539">Smart Contract Client</text><text fill="#000000" font-family="Arial" font-size="12" lengthAdjust="spacing" textLength="24" x="1154.0425" y="748.0527">(Go)</text></g><!--entity metrics--><g id="elem_metrics"><rect fill="#D4EFDF" height="61.3965" rx="4" ry="4" style="stroke:#196F3D;stroke-width:2.0;" width="111" x="1122.5425" y="568.1992"/><text fill="#000000" font-family="Arial" font-size="12" font-style="italic" lengthAdjust="spacing" textLength="66" x="1145.0425" y="589.4551">&#171;Evaluator&#187;</text><text fill="#000000" font-family="Arial" font-size="12" lengthAdjust="spacing" textLength="91" x="1132.5425" y="603.2539">Metrics Collector</text><text fill="#000000" font-family="Arial" font-size="12" lengthAdjust="spacing" textLength="24" x="1166.0425" y="617.0527">(Go)</text></g><!--entity mongodb--><g id="elem_mongodb"><rect fill="#F4ECF7" height="61.3965" rx="4" ry="4" style="stroke:#8E44AD;stroke-width:2.0;" width="87" x="301.5425" y="830.1992"/><text fill="#000000" font-family="Arial" font-size="12" font-style="italic" lengthAdjust="spacing" textLength="67" x="311.5425" y="851.4551">&#171;Database&#187;</text><text fill="#000000" font-family="Arial" font-size="12" lengthAdjust="spacing" textLength="55" x="317.5425" y="865.2539">MongoDB</text><text fill="#000000" font-family="Arial" font-size="12" lengthAdjust="spacing" textLength="48" x="321.0425" y="879.0527">(NoSQL)</text></g><!--entity mariadb--><g id="elem_mariadb"><rect fill="#F4ECF7" height="61.3965" rx="4" ry="4" style="stroke:#8E44AD;stroke-width:2.0;" width="87" x="662.5425" y="830.1992"/><text fill="#000000" font-family="Arial" font-size="12" font-style="italic" lengthAdjust="spacing" textLength="67" x="672.5425" y="851.4551">&#171;Database&#187;</text><text fill="#000000" font-family="Arial" font-size="12" lengthAdjust="spacing" textLength="48" x="682.0425" y="865.2539">MariaDB</text><text fill="#000000" font-family="Arial" font-size="12" lengthAdjust="spacing" textLength="32" x="690.0425" y="879.0527">(SQL)</text></g><!--entity s3--><g id="elem_s3"><rect fill="#F5EEF8" height="61.3965" rx="4" ry="4" style="stroke:#76448A;stroke-width:2.0;" width="109" x="406.5425" y="830.1992"/><text fill="#000000" font-family="Arial" font-size="12" font-style="italic" lengthAdjust="spacing" textLength="57" x="432.5425" y="851.4551">&#171;Storage&#187;</text><text fill="#000000" font-family="Arial" font-size="12" lengthAdjust="spacing" textLength="45" x="438.5425" y="865.2539">AWS S3</text><text fill="#000000" font-family="Arial" font-size="12" lengthAdjust="spacing" textLength="89" x="416.5425" y="879.0527">(Object Storage)</text></g><!--entity queue--><g id="elem_queue"><rect fill="#FCF3CF" height="61.3965" rx="4" ry="4" style="stroke:#B7950B;stroke-width:2.0;" width="110" x="534.0425" y="830.1992"/><text fill="#000000" font-family="Arial" font-size="12" font-style="italic" lengthAdjust="spacing" textLength="51" x="563.5425" y="851.4551">&#171;Queue&#187;</text><text fill="#000000" font-family="Arial" font-size="12" lengthAdjust="spacing" textLength="90" x="544.0425" y="865.2539">Message Queue</text><text fill="#000000" font-family="Arial" font-size="12" lengthAdjust="spacing" textLength="39" x="569.5425" y="879.0527">(Kafka)</text></g><!--entity cognito--><g id="elem_cognito"><rect fill="#F9EBEA" height="61.3965" rx="4" ry="4" style="stroke:#E74C3C;stroke-width:2.0;" width="93" x="1337.5425" y="830.1992"/><text fill="#000000" font-family="Arial" font-size="12" font-style="italic" lengthAdjust="spacing" textLength="39" x="1364.5425" y="851.4551">&#171;Auth&#187;</text><text fill="#000000" font-family="Arial" font-size="12" lengthAdjust="spacing" textLength="73" x="1347.5425" y="865.2539">AWS Cognito</text><text fill="#000000" font-family="Arial" font-size="12" lengthAdjust="spacing" textLength="33" x="1367.5425" y="879.0527">(Auth)</text></g><!--entity avs--><g id="elem_avs"><rect fill="#D6EAF8" height="61.3965" rx="4" ry="4" style="stroke:#2E86C1;stroke-width:2.0;" width="105" x="1097.5425" y="830.1992"/><text fill="#000000" font-family="Arial" font-size="12" font-style="italic" lengthAdjust="spacing" textLength="62" x="1119.0425" y="851.4551">&#171;Operator&#187;</text><text fill="#000000" font-family="Arial" font-size="12" lengthAdjust="spacing" textLength="85" x="1107.5425" y="865.2539">LayerLens AVS</text><text fill="#000000" font-family="Arial" font-size="12" lengthAdjust="spacing" textLength="49" x="1125.5425" y="879.0527">(Service)</text></g><!--entity llms--><g id="elem_llms"><rect fill="#FEF9E7" height="61.3965" rx="4" ry="4" style="stroke:#F1C40F;stroke-width:2.0;" width="99" x="1220.5425" y="830.1992"/><text fill="#000000" font-family="Arial" font-size="12" font-style="italic" lengthAdjust="spacing" textLength="59" x="1240.5425" y="851.4551">&#171;External&#187;</text><text fill="#000000" font-family="Arial" font-size="12" lengthAdjust="spacing" textLength="79" x="1230.5425" y="865.2539">LLM Providers</text><text fill="#000000" font-family="Arial" font-size="12" lengthAdjust="spacing" textLength="27" x="1256.5425" y="879.0527">(API)</text></g><polygon fill="#000000" points="1015.0425,191.7859,1019.0425,182.7859,1015.0425,186.7859,1011.0425,182.7859,1015.0425,191.7859" style="stroke:#000000;stroke-width:1.0;"/><path d="M1015.0425,122.4984 C1015.0425,144.2847 1015.0425,165.4093 1015.0425,185.7859 " fill="none" style="stroke:#000000;stroke-width:1.3;"/><text fill="#000000" font-family="sans-serif" font-size="13" lengthAdjust="spacing" textLength="30" x="1016.0425" y="153.7676">Uses</text><polygon fill="#000000" points="1015.0425,305.8404,1019.0425,296.8404,1015.0425,300.8404,1011.0425,296.8404,1015.0425,305.8404" style="stroke:#000000;stroke-width:1.0;"/><path d="M1015.0425,253.4191 C1015.0425,269.6206 1015.0425,283.6174 1015.0425,299.8404 " fill="none" style="stroke:#000000;stroke-width:1.3;"/><text fill="#000000" font-family="sans-serif" font-size="13" lengthAdjust="spacing" textLength="104" x="1016.0425" y="284.7676">Renders through</text><polygon fill="#000000" points="1152.3049,436.81,1149.8808,427.2641,1149.2121,432.8813,1143.5949,432.2126,1152.3049,436.81" style="stroke:#000000;stroke-width:1.0;"/><path d="M1056.8038,356.3511 C1072.1035,364.1604 1089.0767,374.031 1103.0425,385.1992 C1121.6551,400.0835 1135.5629,415.5432 1148.5935,432.0956 " fill="none" style="stroke:#000000;stroke-width:1.3;"/><text fill="#000000" font-family="sans-serif" font-size="13" lengthAdjust="spacing" textLength="118" x="1122.0425" y="398.7676">Authenticates with</text><polygon fill="#000000" points="1017.0304,437.1608,1020.7409,428.0376,1016.8707,432.1633,1012.745,428.2931,1017.0304,437.1608" style="stroke:#000000;stroke-width:1.0;"/><path d="M1015.4044,367.2422 C1015.5642,378.2198 1015.7769,390.7791 1016.0425,402.1992 C1016.3081,413.6235 1016.488,420.1866 1016.8388,431.1638 " fill="none" style="stroke:#000000;stroke-width:1.3;"/><text fill="#000000" font-family="sans-serif" font-size="13" lengthAdjust="spacing" textLength="85" x="1017.0425" y="398.7676">Displays with</text><polygon fill="#000000" points="619.2478,453.4759,629.0088,454.7882,624.0467,452.0721,626.7628,447.11,619.2478,453.4759" style="stroke:#000000;stroke-width:1.0;"/><path d="M973.1567,349.9515 C890.0584,374.2592 710.7433,426.7119 625.0065,451.7914 " fill="none" style="stroke:#000000;stroke-width:1.3;"/><text fill="#000000" font-family="sans-serif" font-size="13" lengthAdjust="spacing" textLength="115" x="848.0425" y="398.7676">Makes requests to</text><polygon fill="#000000" points="1375.4774,830.1062,1376.6827,820.3314,1374.0211,825.323,1369.0295,822.6614,1375.4774,830.1062" style="stroke:#000000;stroke-width:1.0;"/><path d="M1208.2561,498.2466 C1221.2097,510.6145 1235.3856,525.7072 1246.0425,541.1992 C1312.4713,637.7677 1355.8716,765.7096 1373.7299,824.3664 " fill="none" style="stroke:#000000;stroke-width:1.3;"/><text fill="#000000" font-family="sans-serif" font-size="13" lengthAdjust="spacing" textLength="78" x="1314.0425" y="660.7676">Verifies with</text><polygon fill="#000000" points="425.2785,568.0446,432.0591,560.9016,426.9514,563.3328,424.5202,558.225,425.2785,568.0446" style="stroke:#000000;stroke-width:1.0;"/><path d="M528.7824,478.4457 C504.778,485.543 476.1728,497.3106 456.0425,516.1992 C441.1721,530.1524 433.3548,545.2968 427.2859,562.3904 " fill="none" style="stroke:#000000;stroke-width:1.3;"/><text fill="#000000" font-family="sans-serif" font-size="13" lengthAdjust="spacing" textLength="60" x="457.0425" y="529.7676">Routes to</text><polygon fill="#000000" points="532.2099,567.9018,531.5339,558.0762,529.8704,563.483,524.4636,561.8195,532.2099,567.9018" style="stroke:#000000;stroke-width:1.0;"/><path d="M536.4922,498.3573 C531.8394,503.769 527.7676,509.762 525.0425,516.1992 C517.9267,533.0075 521.1448,547.0024 529.4025,562.5992 " fill="none" style="stroke:#000000;stroke-width:1.3;"/><text fill="#000000" font-family="sans-serif" font-size="13" lengthAdjust="spacing" textLength="76" x="526.0425" y="529.7676">Connects to</text><polygon fill="#000000" points="653.1655,567.795,650.6757,558.266,650.0457,563.8877,644.424,563.2577,653.1655,567.795" style="stroke:#000000;stroke-width:1.0;"/><path d="M597.6728,498.2944 C614.3027,519.1223 632.7372,542.2101 649.4217,563.1063 " fill="none" style="stroke:#000000;stroke-width:1.3;"/><text fill="#000000" font-family="sans-serif" font-size="13" lengthAdjust="spacing" textLength="93" x="627.0425" y="529.7676">Limits through</text><polygon fill="#000000" points="459.2926,698.795,459.4424,688.9473,457.3316,694.1956,452.0833,692.0849,459.2926,698.795" style="stroke:#000000;stroke-width:1.0;"/><path d="M429.6606,629.2944 C438.5407,650.1223 448.0302,672.3796 456.9394,693.2757 " fill="none" style="stroke:#000000;stroke-width:1.3;"/><text fill="#000000" font-family="sans-serif" font-size="13" lengthAdjust="spacing" textLength="30" x="446.0425" y="660.7676">Uses</text><polygon fill="#000000" points="115.8201,699.1124,125.0259,695.612,119.3691,695.5904,119.3907,689.9336,115.8201,699.1124" style="stroke:#000000;stroke-width:1.0;"/><path d="M362.427,606.5554 C306.2795,615.3746 217.7341,634.3128 150.0425,672.1992 C137.5569,679.1873 129.9292,685.1108 120.0789,694.886 " fill="none" style="stroke:#000000;stroke-width:1.3;"/><text fill="#000000" font-family="sans-serif" font-size="13" lengthAdjust="spacing" textLength="30" x="199.0425" y="660.7676">Uses</text><polygon fill="#000000" points="351.7468,698.795,360.0388,693.4806,354.4979,694.6199,353.3586,689.0789,351.7468,698.795" style="stroke:#000000;stroke-width:1.0;"/><path d="M397.5418,629.2944 C383.818,650.1223 368.8168,672.8887 355.0481,693.7849 " fill="none" style="stroke:#000000;stroke-width:1.3;"/><text fill="#000000" font-family="sans-serif" font-size="13" lengthAdjust="spacing" textLength="30" x="386.0425" y="660.7676">Uses</text><polygon fill="#000000" points="234.7282,699.1354,243.9212,695.6015,238.2644,695.6005,238.2654,689.9436,234.7282,699.1354" style="stroke:#000000;stroke-width:1.0;"/><path d="M362.295,620.8656 C332.5374,633.6029 295.8378,651.3763 266.0425,672.1992 C254.9809,679.9297 248.3027,685.5658 238.9716,694.8935 " fill="none" style="stroke:#000000;stroke-width:1.3;"/><text fill="#000000" font-family="sans-serif" font-size="13" lengthAdjust="spacing" textLength="30" x="307.0425" y="660.7676">Uses</text><polygon fill="#000000" points="581.6478,699.1862,577.2739,690.3618,577.7992,695.9942,572.1668,696.5195,581.6478,699.1862" style="stroke:#000000;stroke-width:1.0;"/><path d="M467.2523,629.349 C471.9019,632.0251 476.5518,634.6756 481.0425,637.1992 C509.6461,653.2733 518.7793,653.9437 546.0425,672.1992 C558.1356,680.2968 566.0326,686.2351 577.0295,695.3558 " fill="none" style="stroke:#000000;stroke-width:1.3;"/><text fill="#000000" font-family="sans-serif" font-size="13" lengthAdjust="spacing" textLength="30" x="534.0425" y="660.7676">Uses</text><polygon fill="#000000" points="371.7107,830.0707,380.7446,826.1478,375.0929,826.3881,374.8525,820.7364,371.7107,830.0707" style="stroke:#000000;stroke-width:1.0;"/><path d="M440.6276,760.2814 C427.0464,773.2708 411.0815,788.8119 397.0425,803.1992 C388.6632,811.7864 383.8072,816.8998 375.7693,825.6516 " fill="none" style="stroke:#000000;stroke-width:1.3;"/><text fill="#000000" font-family="sans-serif" font-size="13" lengthAdjust="spacing" textLength="86" x="423.0425" y="791.7676">Stores data in</text><polygon fill="#000000" points="301.225,857.9058,292.4508,853.4321,296.2321,857.6395,292.0247,861.4207,301.225,857.9058" style="stroke:#000000;stroke-width:1.0;"/><path d="M38.903,750.255 C15.9077,761.9733 -3.215,777.925 11.0425,795.1992 C47.3667,839.2092 213.1876,853.2101 295.2335,857.5862 " fill="none" style="stroke:#000000;stroke-width:1.3;"/><text fill="#000000" font-family="sans-serif" font-size="13" lengthAdjust="spacing" textLength="86" x="12.0425" y="791.7676">Stores data in</text><polygon fill="#000000" points="301.2068,853.0363,293.319,847.1385,296.3315,851.9266,291.5435,854.939,301.2068,853.0363" style="stroke:#000000;stroke-width:1.0;"/><path d="M284.7022,760.2621 C278.5766,763.2855 272.2662,766.0349 266.0425,768.1992 C252.2389,772.9995 210.5584,767.1074 201.0425,778.1992 C196.1228,783.9336 196.9345,788.858 201.0425,795.1992 C223.0107,829.1104 261.6179,844.0249 295.3564,851.7046 " fill="none" style="stroke:#000000;stroke-width:1.3;"/><text fill="#000000" font-family="sans-serif" font-size="13" lengthAdjust="spacing" textLength="86" x="202.0425" y="791.7676">Stores data in</text><polygon fill="#000000" points="301.353,854.2494,292.9985,849.0338,296.4018,853.5524,291.8833,856.9557,301.353,854.2494" style="stroke:#000000;stroke-width:1.0;"/><path d="M165.8997,760.3132 C160.7007,763.2498 155.3466,765.9647 150.0425,768.1992 C131.5612,775.9849 118.5533,762.5259 106.0425,778.1992 C101.3289,784.1042 101.4483,789.2009 106.0425,795.1992 C129.6597,826.035 233.13,844.645 295.4116,853.413 " fill="none" style="stroke:#000000;stroke-width:1.3;"/><text fill="#000000" font-family="sans-serif" font-size="13" lengthAdjust="spacing" textLength="86" x="107.0425" y="791.7676">Stores data in</text><polygon fill="#000000" points="732.188,829.9094,740.5373,824.6855,734.9843,825.7644,733.9054,820.2114,732.188,829.9094" style="stroke:#000000;stroke-width:1.0;"/><path d="M674.8609,738.4763 C699.2776,744.9237 725.2132,756.7002 740.0425,778.1992 C750.9237,793.9744 746.4281,808.8013 735.5435,824.9354 " fill="none" style="stroke:#000000;stroke-width:1.3;"/><text fill="#000000" font-family="sans-serif" font-size="13" lengthAdjust="spacing" textLength="106" x="747.0425" y="791.7676">Stores metrics in</text><polygon fill="#000000" points="561.9201,829.795,558.8366,820.4413,558.561,826.0914,552.9108,825.8158,561.9201,829.795" style="stroke:#000000;stroke-width:1.0;"/><path d="M498.8846,760.2944 C517.775,781.1223 538.9369,804.4546 557.8892,825.3507 " fill="none" style="stroke:#000000;stroke-width:1.3;"/><text fill="#000000" font-family="sans-serif" font-size="13" lengthAdjust="spacing" textLength="77" x="532.0425" y="791.7676">Publishes to</text><polygon fill="#000000" points="983.8536,617.5981,974.0148,617.154,979.1977,619.4207,976.931,624.6036,983.8536,617.5981" style="stroke:#000000;stroke-width:1.0;"/><path d="M614.4969,829.9588 C625.2343,819.5329 638.5966,808.9879 653.0425,803.1992 C674.202,794.7203 839.8136,808.8858 858.0425,795.1992 C904.1233,760.6008 861.2873,715.7313 899.0425,672.1992 C921.2634,646.5782 949.1047,631.201 978.2665,619.7852 " fill="none" style="stroke:#000000;stroke-width:1.3;"/><text fill="#000000" font-family="sans-serif" font-size="13" lengthAdjust="spacing" textLength="100" x="900.0425" y="734.7676">Consumes from</text><polygon fill="#000000" points="1137.761,698.795,1134.4831,689.5076,1134.3254,695.1623,1128.6707,695.0046,1137.761,698.795" style="stroke:#000000;stroke-width:1.0;"/><path d="M1072.0317,629.2944 C1091.7294,650.1223 1113.876,673.5396 1133.6383,694.4357 " fill="none" style="stroke:#000000;stroke-width:1.3;"/><text fill="#000000" font-family="sans-serif" font-size="13" lengthAdjust="spacing" textLength="31" x="1106.0425" y="660.7676">Calls</text><polygon fill="#000000" points="664.1592,699.0704,673.9634,698.1338,668.5144,696.6144,670.0338,691.1654,664.1592,699.0704" style="stroke:#000000;stroke-width:1.0;"/><path d="M983.9886,605.2525 C928.8417,611.5366 845.4079,624.0574 776.0425,647.1992 C736.8142,660.2866 700.4615,678.5988 669.3854,696.1232 " fill="none" style="stroke:#000000;stroke-width:1.3;"/><text fill="#000000" font-family="sans-serif" font-size="13" lengthAdjust="spacing" textLength="93" x="777.0425" y="660.7676">Processes with</text><polygon fill="#000000" points="1153.7515,829.795,1158.8289,821.3558,1154.367,824.833,1150.8897,820.3711,1153.7515,829.795" style="stroke:#000000;stroke-width:1.0;"/><path d="M1162.3718,760.2944 C1159.7885,781.1223 1157.0818,802.9445 1154.4901,823.8406 " fill="none" style="stroke:#000000;stroke-width:1.3;"/><text fill="#000000" font-family="sans-serif" font-size="13" lengthAdjust="spacing" textLength="86" x="1161.0425" y="791.7676">Interacts with</text><polygon fill="#000000" points="1270.961,829.9392,1274.972,820.9441,1270.9671,824.9392,1266.972,820.9343,1270.961,829.9392" style="stroke:#000000;stroke-width:1.0;"/><path d="M1212.0469,629.5291 C1223.7125,641.6057 1235.6739,656.4233 1243.0425,672.1992 C1267.1898,723.8983 1271.0153,785.6441 1270.9684,823.9392 " fill="none" style="stroke:#000000;stroke-width:1.3;"/><text fill="#000000" font-family="sans-serif" font-size="13" lengthAdjust="spacing" textLength="31" x="1269.0425" y="734.7676">Calls</text><polygon fill="#000000" points="749.6575,858.2909,758.9125,861.6592,754.6456,857.9453,758.3595,853.6783,749.6575,858.2909" style="stroke:#000000;stroke-width:1.0;"/><path d="M1128.4284,629.3701 C1123.2898,632.1265 1118.0984,634.7866 1113.0425,637.1992 C1077.6486,654.0885 1058.1442,642.9302 1032.0425,672.1992 C1002.2009,705.6619 1032.9295,736.6795 1001.0425,768.1992 C932.1122,836.3355 819.4432,853.4551 755.6432,857.8761 " fill="none" style="stroke:#000000;stroke-width:1.3;"/><text fill="#000000" font-family="sans-serif" font-size="13" lengthAdjust="spacing" textLength="55" x="1033.0425" y="734.7676">Stores in</text><polygon fill="#000000" points="435.1051,830.0818,431.3822,820.9636,431.4979,826.6193,425.8423,826.735,435.1051,830.0818" style="stroke:#000000;stroke-width:1.0;"/><path d="M312.1223,760.4367 C306.6968,772.4538 304.4037,785.6986 313.0425,795.1992 C325.6573,809.0726 379.8387,795.7404 397.0425,803.1992 C411.1848,809.3307 420.0704,815.6501 430.7765,825.9268 " fill="none" style="stroke:#000000;stroke-width:1.3;"/><text fill="#000000" font-family="sans-serif" font-size="13" lengthAdjust="spacing" textLength="86" x="314.0425" y="791.7676">Stores files in</text><polygon fill="#000000" points="486.966,830.0496,496.2279,826.7004,490.5722,826.5862,490.6864,820.9305,486.966,830.0496" style="stroke:#000000;stroke-width:1.0;"/><path d="M622.023,760.2951 C623.1048,772.5786 621.6464,786.066 613.0425,795.1992 C599.5779,809.4921 543.075,795.427 525.0425,803.1992 C510.8871,809.3003 501.9979,815.6129 491.2934,825.8935 " fill="none" style="stroke:#000000;stroke-width:1.3;"/><text fill="#000000" font-family="sans-serif" font-size="13" lengthAdjust="spacing" textLength="102" x="623.0425" y="791.7676">Stores results in</text><rect fill="#DDDDDD" height="195.3711" id="_legend" rx="4" ry="4" style="stroke:#000000;stroke-width:1.0;" width="311" x="1090" y="913.1992"/><text fill="#000000" font-family="sans-serif" font-size="14" font-weight="bold" lengthAdjust="spacing" textLength="123" x="1100" y="933.7344">Component Type</text><text fill="#000000" font-family="sans-serif" font-size="14" font-weight="bold" lengthAdjust="spacing" textLength="83" x="1233" y="933.7344">Description</text><text fill="#000000" filter="url(#b1l5l0imhees8u0)" font-family="sans-serif" font-size="14" lengthAdjust="spacing" textLength="63" x="1095" y="950.2227">Frontend</text><text fill="#000000" font-family="sans-serif" font-size="14" lengthAdjust="spacing" textLength="142" x="1232" y="950.2227">Web/UI Components</text><text fill="#000000" filter="url(#b1l5l0imhees8u1)" font-family="sans-serif" font-size="14" lengthAdjust="spacing" textLength="22" x="1095" y="966.7109">API</text><text fill="#000000" font-family="sans-serif" font-size="14" lengthAdjust="spacing" textLength="116" x="1232" y="966.7109">Backend Services</text><text fill="#000000" filter="url(#b1l5l0imhees8u2)" font-family="sans-serif" font-size="14" lengthAdjust="spacing" textLength="33" x="1095" y="983.1992">Auth</text><text fill="#000000" font-family="sans-serif" font-size="14" lengthAdjust="spacing" textLength="160" x="1232" y="983.1992">Authentication Services</text><text fill="#000000" filter="url(#b1l5l0imhees8u3)" font-family="sans-serif" font-size="14" lengthAdjust="spacing" textLength="63" x="1095" y="999.6875">Database</text><text fill="#000000" font-family="sans-serif" font-size="14" lengthAdjust="spacing" textLength="88" x="1232" y="999.6875">Data Storage</text><text fill="#000000" filter="url(#b1l5l0imhees8u4)" font-family="sans-serif" font-size="14" lengthAdjust="spacing" textLength="57" x="1095" y="1016.1758">External</text><text fill="#000000" font-family="sans-serif" font-size="14" lengthAdjust="spacing" textLength="121" x="1232" y="1016.1758">3rd Party Services</text><text fill="#000000" filter="url(#b1l5l0imhees8u5)" font-family="sans-serif" font-size="14" lengthAdjust="spacing" textLength="59" x="1095" y="1032.6641">Contract</text><text fill="#000000" font-family="sans-serif" font-size="14" lengthAdjust="spacing" textLength="110" x="1232" y="1032.6641">Smart Contracts</text><text fill="#000000" filter="url(#b1l5l0imhees8u6)" font-family="sans-serif" font-size="14" lengthAdjust="spacing" textLength="45" x="1095" y="1049.1523">Queue</text><text fill="#000000" font-family="sans-serif" font-size="14" lengthAdjust="spacing" textLength="115" x="1232" y="1049.1523">Message Queues</text><text fill="#000000" filter="url(#b1l5l0imhees8u7)" font-family="sans-serif" font-size="14" lengthAdjust="spacing" textLength="62" x="1095" y="1065.6406">Operator</text><text fill="#000000" font-family="sans-serif" font-size="14" lengthAdjust="spacing" textLength="109" x="1232" y="1065.6406">Validator Nodes</text><text fill="#000000" filter="url(#b1l5l0imhees8u8)" font-family="sans-serif" font-size="14" lengthAdjust="spacing" textLength="64" x="1095" y="1082.1289">Evaluator</text><text fill="#000000" font-family="sans-serif" font-size="14" lengthAdjust="spacing" textLength="130" x="1232" y="1082.1289">Evaluation Services</text><text fill="#000000" filter="url(#b1l5l0imhees8u9)" font-family="sans-serif" font-size="14" lengthAdjust="spacing" textLength="53" x="1095" y="1098.6172">Storage</text><text fill="#000000" font-family="sans-serif" font-size="14" lengthAdjust="spacing" textLength="112" x="1232" y="1098.6172">Storage Services</text><line style="stroke:#000000;stroke-width:1.0;" x1="1095" x2="1396" y1="920.1992" y2="920.1992"/><line style="stroke:#000000;stroke-width:1.0;" x1="1095" x2="1396" y1="936.6875" y2="936.6875"/><line style="stroke:#000000;stroke-width:1.0;" x1="1095" x2="1396" y1="953.1758" y2="953.1758"/><line style="stroke:#000000;stroke-width:1.0;" x1="1095" x2="1396" y1="969.6641" y2="969.6641"/><line style="stroke:#000000;stroke-width:1.0;" x1="1095" x2="1396" y1="986.1523" y2="986.1523"/><line style="stroke:#000000;stroke-width:1.0;" x1="1095" x2="1396" y1="1002.6406" y2="1002.6406"/><line style="stroke:#000000;stroke-width:1.0;" x1="1095" x2="1396" y1="1019.1289" y2="1019.1289"/><line style="stroke:#000000;stroke-width:1.0;" x1="1095" x2="1396" y1="1035.6172" y2="1035.6172"/><line style="stroke:#000000;stroke-width:1.0;" x1="1095" x2="1396" y1="1052.1055" y2="1052.1055"/><line style="stroke:#000000;stroke-width:1.0;" x1="1095" x2="1396" y1="1068.5938" y2="1068.5938"/><line style="stroke:#000000;stroke-width:1.0;" x1="1095" x2="1396" y1="1085.082" y2="1085.082"/><line style="stroke:#000000;stroke-width:1.0;" x1="1095" x2="1396" y1="1101.5703" y2="1101.5703"/><line style="stroke:#000000;stroke-width:1.0;" x1="1095" x2="1095" y1="920.1992" y2="1101.5703"/><line style="stroke:#000000;stroke-width:1.0;" x1="1228" x2="1228" y1="920.1992" y2="1101.5703"/><line style="stroke:#000000;stroke-width:1.0;" x1="1396" x2="1396" y1="920.1992" y2="1101.5703"/><!--SRC=[jLXBSzis4BxpLspTGzf34jkINnfNCtfG6K-TnB4Ivz1sD109KwX9GW50EqwJ_zx5WnP0KfxH8Jx84lRRRnUBnGUGlwm5oGe2ENdabG9PK4LA4aKlO4flMKaXgQJY1IGyvqA2ub0GbQn0qYyLBHCAAIEP88MCv1qhrmI_8hPOyvAMwlny9dYfQ9aEX_1V130coLqcU5Mc4yq7lyPdivDufYrSf5IuqSEJKNoy_pJwSSMIkv9A2OVHZwWxqEZgOckCyUneDcx6wFNFJgVZtM9KQhKjoEmi7iUZPf3uf3_fJNOACYMAB8caMmFruydif1deDExtHzET0iLV5HKboRS6Yd5EhK2pWqb_VxPJe0csW229sXfeD1rFJvk1plgzWyFZdG9zg6YrlMwJMM_IwhJnoTdH_cvTy7vD1L5SR0iqFOv7izPq3kFJuyd1RWjqJ_BgsKZzU3PjJUdWx7ZMswqLvXY4PDjBTnJ7xHcT7FVxfwDjSLx0n0g7L8yvApCly4W8_k18zirVqxZXEdZLyumflILLhZxIhsgKiwmiC7j8y8CA3tLjKnSb5N3gZIkcSZh3PfopRnGEkasOBOKbprFFEgahPQs29gYHMKwxYjaini6heoxO9et3RUPtfA1O3aPo3t65QuChjJsHjGKqrn0tO2aHWTmTu63VcJ-_w4wGVhOqVT6xzoTiOhEsS4aUgRYafOIHoWb-hjTOt6J551Qn4ZIAKA6GRE-Jf68F457XboXo9O8zwrQVPticlx_iu6UwX4yNVvU_NLCa-VqVxVr0bukAWNy2QeTtsBgl_ZNX4V-EfnH_MOyIJMXfUkX31rUD9KGnNi9RdbOvrRvw4w3DEXFy1lK9fTskgSIT8k66oOhax9ln3bEyPz_2Q3_ywLvTs9hLCyNVRuYY3-GHMTvm5tRD5ja3kEDNuzvmisf823ZcGJE-M3g31yVIpJcEAfXJSSyIwdbW2QMrUGxNc0DSiWBNJNXOL6IwoEtm4zoV3-e1hMD8DoSdiAQiUEd90aQAnaLXX_q4S05e3jSqOr89lnQ5DYo4C_WkUjz8d4OxI6ejNN5q7tPuwAxiWjVhVIKuJb3oe3ZMjbZNjiuANM0Ru4tEbCDVUQzAdxcu2x9vC0CGd5NQPruGeQ0- -66ICsnXpoznbaLYBE1V4aoHgH8iaSYGvrJlIx_EpXO6zMUYwnrCuIqlCpuTcnqt_t1PhnSEfalmTSs02Mgk0M-WUgW3EleyXtaFaU-N_sAQuCvHwoHxu9siTbPIwWIDnA7Nd-JsZbYm4JzuKhzWElL5hTc-Elg4PoLJ7CasMf3OiK0EFFcxcUkfMIgtY-zrDJVt6kDm-LRtqZr3GPMQ_kh2WlEyCBL_kZtgN7LNmikNmrhs1e3jAoFtInkSkWrmvvIQ4jGAXJrRHSwWCKR41k0f7iKMOoe0QTKQm9J9DJwojCrEaGQuTUweRdsih5JwmGKLNlDhK5sX0TnGmMvP7SOvQuWdLmDzez2f88U7sCZJG7TwYGtGX0IgDB2ojPbvvCNGw41nN0KRa8R6T8EQejAD2eIa6zBM3OUBWbHjOdOp3SmUe5RPW9LH8-DdiSt4dmK7-J-BR4_3mDsUVeBNke8UxVdP_Jc0gsgPCxcopM07JIzO7JID8Ai2pRU25v4RjYqNAXv2IPvB7z9LRYVdTOCsMKp7t-jjfTLRMnomdem6c1rRn_CDhHBegNSj0ahP4-QMvHRPNLOVwX26zWMCqjI-HNYPy1IV222d6NPQPF-1ODbAeV9y_sDptuQFZskgHwPK9eAjpI7qNOFETPyEtEk3uRdX7Inp71pM5vhprsPqUFvQOuVVzJNjzQUB3RiCgSnRWf0AHQ_5KjzkQZ4EIEnRW0O9gawBfN6hwoOpr-cGh3v_MeJcp7EdJSXY7kD3bbgyMomzaU8ZXb2FMp8oJ-eXLtrmjxZ2Eq23oDpZGo9pzBLOWZCp9B4FsY59VOYrU6xm4fng2-XBTuF8F4StIbJVBLfCtdsekqZcQJbaSmlJhf5RC8y8UyjjZFy1]--></g></svg>