<?xml version="1.0" encoding="us-ascii" standalone="no"?><svg xmlns="http://www.w3.org/2000/svg" xmlns:xlink="http://www.w3.org/1999/xlink" contentStyleType="text/css" height="1145px" preserveAspectRatio="none" style="width:1447px;height:1145px;background:#FFFFFF;" version="1.1" viewBox="0 0 1447 1145" width="1447px" zoomAndPan="magnify"><defs><filter height="1" id="b1xbroowezh5330" width="1" x="0" y="0"><feFlood flood-color="#FFFFFF" result="flood"/><feComposite in="SourceGraphic" in2="flood" operator="over"/></filter></defs><g><text fill="#000000" font-family="sans-serif" font-size="18" font-weight="bold" lengthAdjust="spacing" textLength="310" x="551.5" y="27.4023">LayerLens Atlas App Architecture</text><!--cluster Atlas Frontend--><g id="cluster_Atlas Frontend"><rect fill="none" height="341" rx="4" ry="4" style="stroke:#999999;stroke-width:1.0;" width="310" x="945.9889" y="165.1992"/><text fill="#000000" font-family="sans-serif" font-size="14" font-weight="bold" lengthAdjust="spacing" textLength="106" x="1047.9889" y="180.7344">Atlas Frontend</text></g><!--cluster API Layer--><g id="cluster_API Layer"><rect fill="none" height="227" rx="4" ry="4" style="stroke:#999999;stroke-width:1.0;" width="374" x="356.9889" y="410.1992"/><text fill="#000000" font-family="sans-serif" font-size="14" font-weight="bold" lengthAdjust="spacing" textLength="67" x="510.4889" y="425.7344">API Layer</text></g><!--cluster Core Services--><g id="cluster_Core Services"><rect fill="none" height="96" rx="4" ry="4" style="stroke:#999999;stroke-width:1.0;" width="652" x="33.9889" y="672.1992"/><text fill="#000000" font-family="sans-serif" font-size="14" font-weight="bold" lengthAdjust="spacing" textLength="96" x="311.9889" y="687.7344">Core Services</text></g><!--cluster Integration Layer--><g id="cluster_Integration Layer"><rect fill="none" height="227" rx="4" ry="4" style="stroke:#999999;stroke-width:1.0;" width="266" x="978.9889" y="541.1992"/><text fill="#000000" font-family="sans-serif" font-size="14" font-weight="bold" lengthAdjust="spacing" textLength="123" x="1050.4889" y="556.7344">Integration Layer</text></g><!--cluster Data Layer--><g id="cluster_Data Layer"><rect fill="none" height="113" rx="4" ry="4" style="stroke:#999999;stroke-width:1.0;" width="525" x="247.9889" y="803.1992"/><text fill="#000000" font-family="sans-serif" font-size="14" font-weight="bold" lengthAdjust="spacing" textLength="76" x="472.4889" y="818.7344">Data Layer</text></g><!--cluster External Services--><g id="cluster_External Services"><rect fill="none" height="96" rx="4" ry="4" style="stroke:#999999;stroke-width:1.0;" width="350" x="1091.9889" y="811.6992"/><text fill="#000000" font-family="sans-serif" font-size="14" font-weight="bold" lengthAdjust="spacing" textLength="121" x="1206.4889" y="827.2344">External Services</text></g><!--entity user--><g id="elem_user"><ellipse cx="1017.9889" cy="54.6992" fill="#F1F1F1" rx="8" ry="8" style="stroke:#181818;stroke-width:0.5;"/><path d="M1017.9889,62.6992 L1017.9889,89.6992 M1004.9889,70.6992 L1030.9889,70.6992 M1017.9889,89.6992 L1004.9889,104.6992 M1017.9889,89.6992 L1030.9889,104.6992 " fill="none" style="stroke:#181818;stroke-width:0.5;"/><text fill="#000000" font-family="sans-serif" font-size="14" lengthAdjust="spacing" textLength="31" x="1002.4889" y="119.7344">User</text></g><!--entity web_ui--><g id="elem_web_ui"><rect fill="#E9F7EF" height="61.3965" rx="4" ry="4" style="stroke:#27AE60;stroke-width:2.0;" width="90" x="972.9889" y="192.1992"/><text fill="#000000" font-family="Arial" font-size="12" font-style="italic" lengthAdjust="spacing" textLength="63" x="986.4889" y="213.4551">&#171;Frontend&#187;</text><text fill="#000000" font-family="Arial" font-size="12" lengthAdjust="spacing" textLength="70" x="982.9889" y="227.2539">Atlas Web UI</text><text fill="#000000" font-family="Arial" font-size="12" lengthAdjust="spacing" textLength="40" x="997.9889" y="241.0527">(React)</text></g><!--entity nextjs--><g id="elem_nextjs"><rect fill="#E9F7EF" height="61.3965" rx="4" ry="4" style="stroke:#27AE60;stroke-width:2.0;" width="83" x="976.4889" y="306.1992"/><text fill="#000000" font-family="Arial" font-size="12" font-style="italic" lengthAdjust="spacing" textLength="63" x="986.4889" y="327.4551">&#171;Frontend&#187;</text><text fill="#000000" font-family="Arial" font-size="12" lengthAdjust="spacing" textLength="62" x="986.9889" y="341.2539">Next.js App</text><text fill="#000000" font-family="Arial" font-size="12" lengthAdjust="spacing" textLength="50" x="992.9889" y="355.0527">(Node.js)</text></g><!--entity auth--><g id="elem_auth"><rect fill="#F9EBEA" height="61.3965" rx="4" ry="4" style="stroke:#E74C3C;stroke-width:2.0;" width="142" x="1105.9889" y="437.1992"/><text fill="#000000" font-family="Arial" font-size="12" font-style="italic" lengthAdjust="spacing" textLength="39" x="1157.4889" y="458.4551">&#171;Auth&#187;</text><text fill="#000000" font-family="Arial" font-size="12" lengthAdjust="spacing" textLength="122" x="1115.9889" y="472.2539">Authentication Module</text><text fill="#000000" font-family="Arial" font-size="12" lengthAdjust="spacing" textLength="58" x="1147.9889" y="486.0527">(NextAuth)</text></g><!--entity viz--><g id="elem_viz"><rect fill="#E9F7EF" height="61.3965" rx="4" ry="4" style="stroke:#27AE60;stroke-width:2.0;" width="134" x="953.9889" y="437.1992"/><text fill="#000000" font-family="Arial" font-size="12" font-style="italic" lengthAdjust="spacing" textLength="63" x="989.4889" y="458.4551">&#171;Frontend&#187;</text><text fill="#000000" font-family="Arial" font-size="12" lengthAdjust="spacing" textLength="114" x="963.9889" y="472.2539">Results Visualization</text><text fill="#000000" font-family="Arial" font-size="12" lengthAdjust="spacing" textLength="40" x="1000.9889" y="486.0527">(React)</text></g><!--entity api_gw--><g id="elem_api_gw"><rect fill="#EBF5FB" height="61.3965" rx="4" ry="4" style="stroke:#3498DB;stroke-width:2.0;" width="90" x="531.9889" y="437.1992"/><text fill="#000000" font-family="Arial" font-size="12" font-style="italic" lengthAdjust="spacing" textLength="33" x="560.4889" y="458.4551">&#171;API&#187;</text><text fill="#000000" font-family="Arial" font-size="12" lengthAdjust="spacing" textLength="70" x="541.9889" y="472.2539">API Gateway</text><text fill="#000000" font-family="Arial" font-size="12" lengthAdjust="spacing" textLength="24" x="564.9889" y="486.0527">(Go)</text></g><!--entity go_backend--><g id="elem_go_backend"><rect fill="#EBF5FB" height="61.3965" rx="4" ry="4" style="stroke:#3498DB;stroke-width:2.0;" width="109" x="365.4889" y="568.1992"/><text fill="#000000" font-family="Arial" font-size="12" font-style="italic" lengthAdjust="spacing" textLength="33" x="403.4889" y="589.4551">&#171;API&#187;</text><text fill="#000000" font-family="Arial" font-size="12" lengthAdjust="spacing" textLength="89" x="375.4889" y="603.2539">Go Backend API</text><text fill="#000000" font-family="Arial" font-size="12" lengthAdjust="spacing" textLength="24" x="407.9889" y="617.0527">(Go)</text></g><!--entity websocket--><g id="elem_websocket"><rect fill="#EBF5FB" height="61.3965" rx="4" ry="4" style="stroke:#3498DB;stroke-width:2.0;" width="126" x="492.9889" y="568.1992"/><text fill="#000000" font-family="Arial" font-size="12" font-style="italic" lengthAdjust="spacing" textLength="33" x="539.4889" y="589.4551">&#171;API&#187;</text><text fill="#000000" font-family="Arial" font-size="12" lengthAdjust="spacing" textLength="106" x="502.9889" y="603.2539">WebSocket Service</text><text fill="#000000" font-family="Arial" font-size="12" lengthAdjust="spacing" textLength="24" x="543.9889" y="617.0527">(Go)</text></g><!--entity rate_limiter--><g id="elem_rate_limiter"><rect fill="#EBF5FB" height="61.3965" rx="4" ry="4" style="stroke:#3498DB;stroke-width:2.0;" width="86" x="636.9889" y="568.1992"/><text fill="#000000" font-family="Arial" font-size="12" font-style="italic" lengthAdjust="spacing" textLength="33" x="663.4889" y="589.4551">&#171;API&#187;</text><text fill="#000000" font-family="Arial" font-size="12" lengthAdjust="spacing" textLength="66" x="646.9889" y="603.2539">Rate Limiter</text><text fill="#000000" font-family="Arial" font-size="12" lengthAdjust="spacing" textLength="24" x="667.9889" y="617.0527">(Go)</text></g><!--entity eval_manager--><g id="elem_eval_manager"><rect fill="#EBF5FB" height="61.3965" rx="4" ry="4" style="stroke:#3498DB;stroke-width:2.0;" width="130" x="409.9889" y="699.1992"/><text fill="#000000" font-family="Arial" font-size="12" font-style="italic" lengthAdjust="spacing" textLength="33" x="458.4889" y="720.4551">&#171;API&#187;</text><text fill="#000000" font-family="Arial" font-size="12" lengthAdjust="spacing" textLength="110" x="419.9889" y="734.2539">Evaluation Manager</text><text fill="#000000" font-family="Arial" font-size="12" lengthAdjust="spacing" textLength="24" x="462.9889" y="748.0527">(Go)</text></g><!--entity model_registry--><g id="elem_model_registry"><rect fill="#EBF5FB" height="61.3965" rx="4" ry="4" style="stroke:#3498DB;stroke-width:2.0;" width="102" x="41.9889" y="699.1992"/><text fill="#000000" font-family="Arial" font-size="12" font-style="italic" lengthAdjust="spacing" textLength="33" x="76.4889" y="720.4551">&#171;API&#187;</text><text fill="#000000" font-family="Arial" font-size="12" lengthAdjust="spacing" textLength="82" x="51.9889" y="734.2539">Model Registry</text><text fill="#000000" font-family="Arial" font-size="12" lengthAdjust="spacing" textLength="24" x="80.9889" y="748.0527">(Go)</text></g><!--entity dataset_manager--><g id="elem_dataset_manager"><rect fill="#EBF5FB" height="61.3965" rx="4" ry="4" style="stroke:#3498DB;stroke-width:2.0;" width="114" x="277.9889" y="699.1992"/><text fill="#000000" font-family="Arial" font-size="12" font-style="italic" lengthAdjust="spacing" textLength="33" x="318.4889" y="720.4551">&#171;API&#187;</text><text fill="#000000" font-family="Arial" font-size="12" lengthAdjust="spacing" textLength="94" x="287.9889" y="734.2539">Dataset Manager</text><text fill="#000000" font-family="Arial" font-size="12" lengthAdjust="spacing" textLength="24" x="322.9889" y="748.0527">(Go)</text></g><!--entity user_manager--><g id="elem_user_manager"><rect fill="#EBF5FB" height="61.3965" rx="4" ry="4" style="stroke:#3498DB;stroke-width:2.0;" width="98" x="161.9889" y="699.1992"/><text fill="#000000" font-family="Arial" font-size="12" font-style="italic" lengthAdjust="spacing" textLength="33" x="194.4889" y="720.4551">&#171;API&#187;</text><text fill="#000000" font-family="Arial" font-size="12" lengthAdjust="spacing" textLength="78" x="171.9889" y="734.2539">User Manager</text><text fill="#000000" font-family="Arial" font-size="12" lengthAdjust="spacing" textLength="24" x="198.9889" y="748.0527">(Go)</text></g><!--entity results_processor--><g id="elem_results_processor"><rect fill="#EBF5FB" height="61.3965" rx="4" ry="4" style="stroke:#3498DB;stroke-width:2.0;" width="119" x="558.4889" y="699.1992"/><text fill="#000000" font-family="Arial" font-size="12" font-style="italic" lengthAdjust="spacing" textLength="33" x="601.4889" y="720.4551">&#171;API&#187;</text><text fill="#000000" font-family="Arial" font-size="12" lengthAdjust="spacing" textLength="99" x="568.4889" y="734.2539">Results Processor</text><text fill="#000000" font-family="Arial" font-size="12" lengthAdjust="spacing" textLength="24" x="605.9889" y="748.0527">(Go)</text></g><!--entity worker--><g id="elem_worker"><rect fill="#D4EFDF" height="61.3965" rx="4" ry="4" style="stroke:#196F3D;stroke-width:2.0;" width="120" x="986.9889" y="568.1992"/><text fill="#000000" font-family="Arial" font-size="12" font-style="italic" lengthAdjust="spacing" textLength="66" x="1013.9889" y="589.4551">&#171;Evaluator&#187;</text><text fill="#000000" font-family="Arial" font-size="12" lengthAdjust="spacing" textLength="100" x="996.9889" y="603.2539">Evaluation Worker</text><text fill="#000000" font-family="Arial" font-size="12" lengthAdjust="spacing" textLength="24" x="1034.9889" y="617.0527">(Go)</text></g><!--entity contract_client--><g id="elem_contract_client"><rect fill="#FADBD8" height="61.3965" rx="4" ry="4" style="stroke:#943126;stroke-width:2.0;" width="136" x="1100.9889" y="699.1992"/><text fill="#000000" font-family="Arial" font-size="12" font-style="italic" lengthAdjust="spacing" textLength="60" x="1138.9889" y="720.4551">&#171;Contract&#187;</text><text fill="#000000" font-family="Arial" font-size="12" lengthAdjust="spacing" textLength="116" x="1110.9889" y="734.2539">Smart Contract Client</text><text fill="#000000" font-family="Arial" font-size="12" lengthAdjust="spacing" textLength="24" x="1156.9889" y="748.0527">(Go)</text></g><!--entity metrics--><g id="elem_metrics"><rect fill="#D4EFDF" height="61.3965" rx="4" ry="4" style="stroke:#196F3D;stroke-width:2.0;" width="111" x="1125.4889" y="568.1992"/><text fill="#000000" font-family="Arial" font-size="12" font-style="italic" lengthAdjust="spacing" textLength="66" x="1147.9889" y="589.4551">&#171;Evaluator&#187;</text><text fill="#000000" font-family="Arial" font-size="12" lengthAdjust="spacing" textLength="91" x="1135.4889" y="603.2539">Metrics Collector</text><text fill="#000000" font-family="Arial" font-size="12" lengthAdjust="spacing" textLength="24" x="1168.9889" y="617.0527">(Go)</text></g><!--entity mongodb--><g id="elem_mongodb"><path d="M256.4889,840.1992 C256.4889,830.1992 304.9889,830.1992 304.9889,830.1992 C304.9889,830.1992 353.4889,830.1992 353.4889,840.1992 L353.4889,898.6641 C353.4889,908.6641 304.9889,908.6641 304.9889,908.6641 C304.9889,908.6641 256.4889,908.6641 256.4889,898.6641 L256.4889,840.1992 " fill="#FFFFFF" style="stroke:#FFFFFF;stroke-width:0.5;"/><path d="M256.4889,840.1992 C256.4889,850.1992 304.9889,850.1992 304.9889,850.1992 C304.9889,850.1992 353.4889,850.1992 353.4889,840.1992 " fill="none" style="stroke:#FFFFFF;stroke-width:0.5;"/><text fill="#000000" font-family="sans-serif" font-size="14" font-style="italic" lengthAdjust="spacing" textLength="77" x="266.4889" y="867.7344">&#171;Database&#187;</text><text fill="#000000" font-family="sans-serif" font-size="14" lengthAdjust="spacing" textLength="66" x="271.9889" y="884.2227">MongoDB</text><text fill="#000000" font-family="sans-serif" font-size="14" lengthAdjust="spacing" textLength="55" x="277.4889" y="900.7109">(NoSQL)</text></g><!--entity mariadb--><g id="elem_mariadb"><path d="M667.4889,840.1992 C667.4889,830.1992 715.9889,830.1992 715.9889,830.1992 C715.9889,830.1992 764.4889,830.1992 764.4889,840.1992 L764.4889,898.6641 C764.4889,908.6641 715.9889,908.6641 715.9889,908.6641 C715.9889,908.6641 667.4889,908.6641 667.4889,898.6641 L667.4889,840.1992 " fill="#FFFFFF" style="stroke:#FFFFFF;stroke-width:0.5;"/><path d="M667.4889,840.1992 C667.4889,850.1992 715.9889,850.1992 715.9889,850.1992 C715.9889,850.1992 764.4889,850.1992 764.4889,840.1992 " fill="none" style="stroke:#FFFFFF;stroke-width:0.5;"/><text fill="#000000" font-family="sans-serif" font-size="14" font-style="italic" lengthAdjust="spacing" textLength="77" x="677.4889" y="867.7344">&#171;Database&#187;</text><text fill="#000000" font-family="sans-serif" font-size="14" lengthAdjust="spacing" textLength="56" x="687.9889" y="884.2227">MariaDB</text><text fill="#000000" font-family="sans-serif" font-size="14" lengthAdjust="spacing" textLength="36" x="697.9889" y="900.7109">(SQL)</text></g><!--entity s3--><g id="elem_s3"><path d="M371.4889,840.1992 C371.4889,830.1992 436.9889,830.1992 436.9889,830.1992 C436.9889,830.1992 502.4889,830.1992 502.4889,840.1992 L502.4889,898.6641 C502.4889,908.6641 436.9889,908.6641 436.9889,908.6641 C436.9889,908.6641 371.4889,908.6641 371.4889,898.6641 L371.4889,840.1992 " fill="#FFFFFF" style="stroke:#FFFFFF;stroke-width:0.5;"/><path d="M371.4889,840.1992 C371.4889,850.1992 436.9889,850.1992 436.9889,850.1992 C436.9889,850.1992 502.4889,850.1992 502.4889,840.1992 " fill="none" style="stroke:#FFFFFF;stroke-width:0.5;"/><text fill="#000000" font-family="sans-serif" font-size="14" font-style="italic" lengthAdjust="spacing" textLength="67" x="403.4889" y="867.7344">&#171;Storage&#187;</text><text fill="#000000" font-family="sans-serif" font-size="14" lengthAdjust="spacing" textLength="51" x="411.4889" y="884.2227">AWS S3</text><text fill="#000000" font-family="sans-serif" font-size="14" lengthAdjust="spacing" textLength="111" x="381.4889" y="900.7109">(Object Storage)</text></g><!--entity queue--><g id="elem_queue"><path d="M525.9889,839.6992 L643.9889,839.6992 C648.9889,839.6992 648.9889,869.4316 648.9889,869.4316 C648.9889,869.4316 648.9889,899.1641 643.9889,899.1641 L525.9889,899.1641 C520.9889,899.1641 520.9889,869.4316 520.9889,869.4316 C520.9889,869.4316 520.9889,839.6992 525.9889,839.6992 " fill="#FFFFFF" style="stroke:#FFFFFF;stroke-width:0.5;"/><path d="M643.9889,839.6992 C638.9889,839.6992 638.9889,869.4316 638.9889,869.4316 C638.9889,899.1641 643.9889,899.1641 643.9889,899.1641 " fill="none" style="stroke:#FFFFFF;stroke-width:0.5;"/><text fill="#000000" font-family="sans-serif" font-size="14" font-style="italic" lengthAdjust="spacing" textLength="59" x="550.4889" y="858.2344">&#171;Queue&#187;</text><text fill="#000000" font-family="sans-serif" font-size="14" lengthAdjust="spacing" textLength="108" x="525.9889" y="874.7227">Message Queue</text><text fill="#000000" font-family="sans-serif" font-size="14" lengthAdjust="spacing" textLength="48" x="555.9889" y="891.2109">(Kafka)</text></g><!--entity cognito--><g id="elem_cognito"><rect fill="#F9EBEA" height="61.3965" rx="4" ry="4" style="stroke:#E74C3C;stroke-width:2.0;" width="93" x="1340.4889" y="838.6992"/><text fill="#000000" font-family="Arial" font-size="12" font-style="italic" lengthAdjust="spacing" textLength="39" x="1367.4889" y="859.9551">&#171;Auth&#187;</text><text fill="#000000" font-family="Arial" font-size="12" lengthAdjust="spacing" textLength="73" x="1350.4889" y="873.7539">AWS Cognito</text><text fill="#000000" font-family="Arial" font-size="12" lengthAdjust="spacing" textLength="33" x="1370.4889" y="887.5527">(Auth)</text></g><!--entity avs--><g id="elem_avs"><rect fill="#D6EAF8" height="61.3965" rx="4" ry="4" style="stroke:#2E86C1;stroke-width:2.0;" width="105" x="1100.4889" y="838.6992"/><text fill="#000000" font-family="Arial" font-size="12" font-style="italic" lengthAdjust="spacing" textLength="62" x="1121.9889" y="859.9551">&#171;Operator&#187;</text><text fill="#000000" font-family="Arial" font-size="12" lengthAdjust="spacing" textLength="85" x="1110.4889" y="873.7539">LayerLens AVS</text><text fill="#000000" font-family="Arial" font-size="12" lengthAdjust="spacing" textLength="49" x="1128.4889" y="887.5527">(Service)</text></g><!--entity llms--><g id="elem_llms"><rect fill="#FEF9E7" height="61.3965" rx="4" ry="4" style="stroke:#F1C40F;stroke-width:2.0;" width="99" x="1223.4889" y="838.6992"/><text fill="#000000" font-family="Arial" font-size="12" font-style="italic" lengthAdjust="spacing" textLength="59" x="1243.4889" y="859.9551">&#171;External&#187;</text><text fill="#000000" font-family="Arial" font-size="12" lengthAdjust="spacing" textLength="79" x="1233.4889" y="873.7539">LLM Providers</text><text fill="#000000" font-family="Arial" font-size="12" lengthAdjust="spacing" textLength="27" x="1259.4889" y="887.5527">(API)</text></g><polygon fill="#000000" points="1017.9889,191.7859,1021.9889,182.7859,1017.9889,186.7859,1013.9889,182.7859,1017.9889,191.7859" style="stroke:#000000;stroke-width:1.0;"/><path d="M1017.9889,122.4984 C1017.9889,144.2847 1017.9889,165.4093 1017.9889,185.7859 " fill="none" style="stroke:#000000;stroke-width:1.3;"/><text fill="#000000" font-family="sans-serif" font-size="13" lengthAdjust="spacing" textLength="30" x="1018.9889" y="153.7676">Uses</text><polygon fill="#000000" points="1017.9889,305.8404,1021.9889,296.8404,1017.9889,300.8404,1013.9889,296.8404,1017.9889,305.8404" style="stroke:#000000;stroke-width:1.0;"/><path d="M1017.9889,253.4191 C1017.9889,269.6206 1017.9889,283.6174 1017.9889,299.8404 " fill="none" style="stroke:#000000;stroke-width:1.3;"/><text fill="#000000" font-family="sans-serif" font-size="13" lengthAdjust="spacing" textLength="104" x="1018.9889" y="284.7676">Renders through</text><polygon fill="#000000" points="1155.2514,436.81,1152.8273,427.2641,1152.1586,432.8813,1146.5414,432.2126,1155.2514,436.81" style="stroke:#000000;stroke-width:1.0;"/><path d="M1059.7502,356.3511 C1075.05,364.1604 1092.0232,374.031 1105.9889,385.1992 C1124.6016,400.0835 1138.5093,415.5432 1151.54,432.0956 " fill="none" style="stroke:#000000;stroke-width:1.3;"/><text fill="#000000" font-family="sans-serif" font-size="13" lengthAdjust="spacing" textLength="118" x="1124.9889" y="398.7676">Authenticates with</text><polygon fill="#000000" points="1019.9769,437.1608,1023.6874,428.0376,1019.8172,432.1633,1015.6914,428.2931,1019.9769,437.1608" style="stroke:#000000;stroke-width:1.0;"/><path d="M1018.3509,367.2422 C1018.5107,378.2198 1018.7234,390.7791 1018.9889,402.1992 C1019.2546,413.6235 1019.4344,420.1866 1019.7852,431.1638 " fill="none" style="stroke:#000000;stroke-width:1.3;"/><text fill="#000000" font-family="sans-serif" font-size="13" lengthAdjust="spacing" textLength="85" x="1019.9889" y="398.7676">Displays with</text><polygon fill="#000000" points="622.1943,453.4759,631.9553,454.7882,626.9932,452.0721,629.7093,447.11,622.1943,453.4759" style="stroke:#000000;stroke-width:1.0;"/><path d="M976.1032,349.9515 C893.0049,374.2592 713.6898,426.7119 627.9529,451.7914 " fill="none" style="stroke:#000000;stroke-width:1.3;"/><text fill="#000000" font-family="sans-serif" font-size="13" lengthAdjust="spacing" textLength="115" x="850.9889" y="398.7676">Makes requests to</text><polygon fill="#000000" points="1378.9491,838.6714,1380.3065,828.9165,1377.5675,833.866,1372.618,831.127,1378.9491,838.6714" style="stroke:#000000;stroke-width:1.0;"/><path d="M1211.2026,498.2466 C1224.1562,510.6145 1238.3321,525.7072 1248.9889,541.1992 C1317.2627,640.4497 1360.0819,773.0488 1377.2912,832.905 " fill="none" style="stroke:#000000;stroke-width:1.3;"/><text fill="#000000" font-family="sans-serif" font-size="13" lengthAdjust="spacing" textLength="78" x="1316.9889" y="660.7676">Verifies with</text><polygon fill="#000000" points="428.2249,568.0446,435.0056,560.9016,429.8978,563.3328,427.4667,558.225,428.2249,568.0446" style="stroke:#000000;stroke-width:1.0;"/><path d="M531.7289,478.4457 C507.7245,485.543 479.1193,497.3106 458.9889,516.1992 C444.1185,530.1524 436.3013,545.2968 430.2324,562.3904 " fill="none" style="stroke:#000000;stroke-width:1.3;"/><text fill="#000000" font-family="sans-serif" font-size="13" lengthAdjust="spacing" textLength="60" x="459.9889" y="529.7676">Routes to</text><polygon fill="#000000" points="535.1564,567.9018,534.4803,558.0762,532.8169,563.483,527.4101,561.8195,535.1564,567.9018" style="stroke:#000000;stroke-width:1.0;"/><path d="M539.4387,498.3573 C534.7858,503.769 530.7141,509.762 527.9889,516.1992 C520.8732,533.0075 524.0913,547.0024 532.3489,562.5992 " fill="none" style="stroke:#000000;stroke-width:1.3;"/><text fill="#000000" font-family="sans-serif" font-size="13" lengthAdjust="spacing" textLength="76" x="528.9889" y="529.7676">Connects to</text><polygon fill="#000000" points="656.1119,567.795,653.6222,558.266,652.9922,563.8877,647.3705,563.2577,656.1119,567.795" style="stroke:#000000;stroke-width:1.0;"/><path d="M600.6192,498.2944 C617.2492,519.1223 635.6837,542.2101 652.3682,563.1063 " fill="none" style="stroke:#000000;stroke-width:1.3;"/><text fill="#000000" font-family="sans-serif" font-size="13" lengthAdjust="spacing" textLength="93" x="629.9889" y="529.7676">Limits through</text><polygon fill="#000000" points="462.2391,698.795,462.3888,688.9473,460.2781,694.1956,455.0298,692.0849,462.2391,698.795" style="stroke:#000000;stroke-width:1.0;"/><path d="M432.6071,629.2944 C441.4871,650.1223 450.9767,672.3796 459.8859,693.2757 " fill="none" style="stroke:#000000;stroke-width:1.3;"/><text fill="#000000" font-family="sans-serif" font-size="13" lengthAdjust="spacing" textLength="30" x="448.9889" y="660.7676">Uses</text><polygon fill="#000000" points="118.7665,699.1124,127.9724,695.612,122.3156,695.5904,122.3372,689.9336,118.7665,699.1124" style="stroke:#000000;stroke-width:1.0;"/><path d="M365.3734,606.5554 C309.226,615.3746 220.6805,634.3128 152.9889,672.1992 C140.5033,679.1873 132.8757,685.1108 123.0254,694.886 " fill="none" style="stroke:#000000;stroke-width:1.3;"/><text fill="#000000" font-family="sans-serif" font-size="13" lengthAdjust="spacing" textLength="30" x="201.9889" y="660.7676">Uses</text><polygon fill="#000000" points="354.6933,698.795,362.9853,693.4806,357.4443,694.6199,356.3051,689.0789,354.6933,698.795" style="stroke:#000000;stroke-width:1.0;"/><path d="M400.4882,629.2944 C386.7644,650.1223 371.7633,672.8887 357.9945,693.7849 " fill="none" style="stroke:#000000;stroke-width:1.3;"/><text fill="#000000" font-family="sans-serif" font-size="13" lengthAdjust="spacing" textLength="30" x="388.9889" y="660.7676">Uses</text><polygon fill="#000000" points="237.6747,699.1354,246.8677,695.6015,241.2108,695.6005,241.2119,689.9436,237.6747,699.1354" style="stroke:#000000;stroke-width:1.0;"/><path d="M365.2414,620.8656 C335.4838,633.6029 298.7843,651.3763 268.9889,672.1992 C257.9274,679.9297 251.2492,685.5658 241.9181,694.8935 " fill="none" style="stroke:#000000;stroke-width:1.3;"/><text fill="#000000" font-family="sans-serif" font-size="13" lengthAdjust="spacing" textLength="30" x="309.9889" y="660.7676">Uses</text><polygon fill="#000000" points="584.5943,699.1862,580.2204,690.3618,580.7457,695.9942,575.1133,696.5195,584.5943,699.1862" style="stroke:#000000;stroke-width:1.0;"/><path d="M470.1988,629.349 C474.8484,632.0251 479.4983,634.6756 483.9889,637.1992 C512.5926,653.2733 521.7258,653.9437 548.9889,672.1992 C561.0821,680.2968 568.9791,686.2351 579.976,695.3558 " fill="none" style="stroke:#000000;stroke-width:1.3;"/><text fill="#000000" font-family="sans-serif" font-size="13" lengthAdjust="spacing" textLength="30" x="536.9889" y="660.7676">Uses</text><polygon fill="#000000" points="331.0356,830.1447,339.9286,825.9123,334.2885,826.3476,333.8532,820.7075,331.0356,830.1447" style="stroke:#000000;stroke-width:1.0;"/><path d="M441.9922,760.2799 C423.0864,777.2251 403.0682,795.1598 402.9889,795.1992 C386.3662,803.4682 378.0842,793.9454 361.9889,803.1992 C350.2783,809.9321 343.6603,815.4082 334.9391,825.5882 " fill="none" style="stroke:#000000;stroke-width:1.3;"/><text fill="#000000" font-family="sans-serif" font-size="13" lengthAdjust="spacing" textLength="86" x="421.9889" y="791.7676">Stores data in</text><polygon fill="#000000" points="256.2991,863.2757,247.8195,858.266,251.3323,862.7,246.8984,866.2128,256.2991,863.2757" style="stroke:#000000;stroke-width:1.0;"/><path d="M41.842,748.9824 C17.5291,760.5601 -3.4049,776.7943 10.9889,795.1992 C40.9172,833.4674 174.8097,853.83 250.339,862.5848 " fill="none" style="stroke:#000000;stroke-width:1.3;"/><text fill="#000000" font-family="sans-serif" font-size="13" lengthAdjust="spacing" textLength="86" x="11.9889" y="791.7676">Stores data in</text><polygon fill="#000000" points="256.2996,848.7818,249.8925,841.3019,251.785,846.6328,246.4541,848.5253,256.2996,848.7818" style="stroke:#000000;stroke-width:1.0;"/><path d="M287.6487,760.2621 C281.523,763.2855 275.2127,766.0349 268.9889,768.1992 C255.1854,772.9995 213.5048,767.1074 203.9889,778.1992 C180.897,805.1154 214.7683,829.0125 250.8821,846.203 " fill="none" style="stroke:#000000;stroke-width:1.3;"/><text fill="#000000" font-family="sans-serif" font-size="13" lengthAdjust="spacing" textLength="86" x="204.9889" y="791.7676">Stores data in</text><polygon fill="#000000" points="256.246,865.4672,247.7738,860.4449,251.2801,864.8841,246.8409,868.3903,256.246,865.4672" style="stroke:#000000;stroke-width:1.0;"/><path d="M169.2016,760.2029 C163.8956,763.1971 158.4192,765.9557 152.9889,768.1992 C133.2507,776.3541 119.4273,761.6008 105.9889,778.1992 C101.2347,784.0715 101.6631,789.0046 105.9889,795.1992 C139.7,843.4733 203.0476,859.2207 250.2869,864.7675 " fill="none" style="stroke:#000000;stroke-width:1.3;"/><text fill="#000000" font-family="sans-serif" font-size="13" lengthAdjust="spacing" textLength="86" x="106.9889" y="791.7676">Stores data in</text><polygon fill="#000000" points="741.4414,829.976,748.8718,823.5115,743.5556,825.4449,741.6221,820.1288,741.4414,829.976" style="stroke:#000000;stroke-width:1.0;"/><path d="M677.8073,738.4763 C702.224,744.9237 728.1596,756.7002 742.9889,778.1992 C753.5481,793.5075 751.8859,807.5919 743.9785,824.5387 " fill="none" style="stroke:#000000;stroke-width:1.3;"/><text fill="#000000" font-family="sans-serif" font-size="13" lengthAdjust="spacing" textLength="106" x="749.9889" y="791.7676">Stores metrics in</text><polygon fill="#000000" points="562.4287,839.3079,560.0231,829.7574,559.3435,835.3733,553.7276,834.6937,562.4287,839.3079" style="stroke:#000000;stroke-width:1.0;"/><path d="M499.4193,760.2723 C504.268,766.1927 509.3059,772.3807 513.9889,778.1992 C530.3355,798.5094 544.8419,816.8788 558.7265,834.5863 " fill="none" style="stroke:#000000;stroke-width:1.3;"/><text fill="#000000" font-family="sans-serif" font-size="13" lengthAdjust="spacing" textLength="77" x="526.9889" y="791.7676">Publishes to</text><polygon fill="#000000" points="986.8001,617.5981,976.9613,617.154,982.1441,619.4207,979.8775,624.6036,986.8001,617.5981" style="stroke:#000000;stroke-width:1.0;"/><path d="M608.5938,839.4445 C621.597,825.8223 638.9468,810.8809 657.9889,803.1992 C678.9228,794.7543 842.9402,808.756 860.9889,795.1992 C907.0632,760.592 864.2338,715.7313 901.9889,672.1992 C924.2099,646.5782 952.0512,631.201 981.2129,619.7852 " fill="none" style="stroke:#000000;stroke-width:1.3;"/><text fill="#000000" font-family="sans-serif" font-size="13" lengthAdjust="spacing" textLength="100" x="902.9889" y="734.7676">Consumes from</text><polygon fill="#000000" points="1140.7074,698.795,1137.4295,689.5076,1137.2718,695.1623,1131.6172,695.0046,1140.7074,698.795" style="stroke:#000000;stroke-width:1.0;"/><path d="M1074.9782,629.2944 C1094.6759,650.1223 1116.8225,673.5396 1136.5847,694.4357 " fill="none" style="stroke:#000000;stroke-width:1.3;"/><text fill="#000000" font-family="sans-serif" font-size="13" lengthAdjust="spacing" textLength="31" x="1108.9889" y="660.7676">Calls</text><polygon fill="#000000" points="667.1056,699.0704,676.9099,698.1338,671.4609,696.6144,672.9802,691.1654,667.1056,699.0704" style="stroke:#000000;stroke-width:1.0;"/><path d="M986.935,605.2525 C931.7882,611.5366 848.3544,624.0574 778.9889,647.1992 C739.7607,660.2866 703.4079,678.5988 672.3319,696.1232 " fill="none" style="stroke:#000000;stroke-width:1.3;"/><text fill="#000000" font-family="sans-serif" font-size="13" lengthAdjust="spacing" textLength="93" x="779.9889" y="660.7676">Processes with</text><polygon fill="#000000" points="1156.4539,838.422,1161.4674,829.9446,1157.0318,833.4555,1153.521,829.02,1156.4539,838.422" style="stroke:#000000;stroke-width:1.0;"/><path d="M1165.5172,760.5347 C1162.8334,783.598 1159.8295,809.4135 1157.1474,832.4622 " fill="none" style="stroke:#000000;stroke-width:1.3;"/><text fill="#000000" font-family="sans-serif" font-size="13" lengthAdjust="spacing" textLength="86" x="1164.9889" y="791.7676">Interacts with</text><polygon fill="#000000" points="1274.1766,838.4712,1278.2761,829.5161,1274.232,833.4715,1270.2766,829.4275,1274.1766,838.4712" style="stroke:#000000;stroke-width:1.0;"/><path d="M1215.0452,629.505 C1226.7168,641.5788 1238.6687,656.4008 1245.9889,672.1992 C1271.3326,726.8957 1274.6835,792.7136 1274.2431,832.4716 " fill="none" style="stroke:#000000;stroke-width:1.3;"/><text fill="#000000" font-family="sans-serif" font-size="13" lengthAdjust="spacing" textLength="31" x="1271.9889" y="734.7676">Calls</text><polygon fill="#000000" points="764.5138,864.4175,773.9216,867.3317,769.4791,863.8297,772.9811,859.3871,764.5138,864.4175" style="stroke:#000000;stroke-width:1.0;"/><path d="M1131.3748,629.3701 C1126.2362,632.1265 1121.0449,634.7866 1115.9889,637.1992 C1080.5951,654.0885 1061.0906,642.9302 1034.9889,672.1992 C1005.1474,705.6619 1035.3445,736.1509 1003.9889,768.1992 C939.1204,834.5009 834.0571,856.1845 770.4722,863.7121 " fill="none" style="stroke:#000000;stroke-width:1.3;"/><text fill="#000000" font-family="sans-serif" font-size="13" lengthAdjust="spacing" textLength="55" x="1035.9889" y="734.7676">Stores in</text><polygon fill="#000000" points="400.9671,830.0074,396.8717,821.0504,397.2204,826.6965,391.5743,827.0452,400.9671,830.0074" style="stroke:#000000;stroke-width:1.0;"/><path d="M314.6247,760.4179 C309.1479,772.2917 306.7457,785.4343 314.9889,795.1992 C328.6573,811.3907 342.83,794.1481 361.9889,803.1992 C376.0104,809.8233 384.9466,815.8505 396.4711,826.0343 " fill="none" style="stroke:#000000;stroke-width:1.3;"/><text fill="#000000" font-family="sans-serif" font-size="13" lengthAdjust="spacing" textLength="86" x="315.9889" y="791.7676">Stores files in</text><polygon fill="#000000" points="471.9021,829.9175,481.2767,826.8981,475.6285,826.5838,475.9428,820.9357,471.9021,829.9175" style="stroke:#000000;stroke-width:1.0;"/><path d="M621.3931,760.3771 C621.1157,772.8276 618.274,786.4232 608.9889,795.1992 C593.2703,810.0561 531.9256,794.8127 511.9889,803.1992 C497.3772,809.3458 488.0531,815.4689 476.3738,825.9171 " fill="none" style="stroke:#000000;stroke-width:1.3;"/><text fill="#000000" font-family="sans-serif" font-size="13" lengthAdjust="spacing" textLength="102" x="619.9889" y="791.7676">Stores results in</text><rect fill="#DDDDDD" height="195.3711" id="_legend" rx="4" ry="4" style="stroke:#000000;stroke-width:1.0;" width="372" x="1029" y="930.1992"/><text fill="#000000" font-family="sans-serif" font-size="14" font-weight="bold" lengthAdjust="spacing" textLength="123" x="1039" y="950.7344">Component Type</text><text fill="#000000" font-family="sans-serif" font-size="14" font-weight="bold" lengthAdjust="spacing" textLength="83" x="1172" y="950.7344">Description</text><text fill="#000000" filter="url(#b1xbroowezh5330)" font-family="sans-serif" font-size="14" lengthAdjust="spacing" textLength="64" x="1034" y="967.2227">&#160;&#160;&#160;&#160;&#160;&#160;&#160;&#160;&#160;&#160;&#160;&#160;&#160;&#160;&#160;&#160;</text><text fill="#000000" font-family="sans-serif" font-size="14" lengthAdjust="spacing" textLength="221" x="1171" y="967.2227">Frontend - Web/UI Components</text><text fill="#000000" filter="url(#b1xbroowezh5330)" font-family="sans-serif" font-size="14" lengthAdjust="spacing" textLength="64" x="1034" y="983.7109">&#160;&#160;&#160;&#160;&#160;&#160;&#160;&#160;&#160;&#160;&#160;&#160;&#160;&#160;&#160;&#160;</text><text fill="#000000" font-family="sans-serif" font-size="14" lengthAdjust="spacing" textLength="154" x="1171" y="983.7109">API - Backend Services</text><text fill="#000000" filter="url(#b1xbroowezh5330)" font-family="sans-serif" font-size="14" lengthAdjust="spacing" textLength="64" x="1034" y="1000.1992">&#160;&#160;&#160;&#160;&#160;&#160;&#160;&#160;&#160;&#160;&#160;&#160;&#160;&#160;&#160;&#160;</text><text fill="#000000" font-family="sans-serif" font-size="14" lengthAdjust="spacing" textLength="209" x="1171" y="1000.1992">Auth - Authentication Services</text><text fill="#000000" filter="url(#b1xbroowezh5330)" font-family="sans-serif" font-size="14" lengthAdjust="spacing" textLength="64" x="1034" y="1016.6875">&#160;&#160;&#160;&#160;&#160;&#160;&#160;&#160;&#160;&#160;&#160;&#160;&#160;&#160;&#160;&#160;</text><text fill="#000000" font-family="sans-serif" font-size="14" lengthAdjust="spacing" textLength="167" x="1171" y="1016.6875">Database - Data Storage</text><text fill="#000000" filter="url(#b1xbroowezh5330)" font-family="sans-serif" font-size="14" lengthAdjust="spacing" textLength="64" x="1034" y="1033.1758">&#160;&#160;&#160;&#160;&#160;&#160;&#160;&#160;&#160;&#160;&#160;&#160;&#160;&#160;&#160;&#160;</text><text fill="#000000" font-family="sans-serif" font-size="14" lengthAdjust="spacing" textLength="194" x="1171" y="1033.1758">External - 3rd Party Services</text><text fill="#000000" filter="url(#b1xbroowezh5330)" font-family="sans-serif" font-size="14" lengthAdjust="spacing" textLength="64" x="1034" y="1049.6641">&#160;&#160;&#160;&#160;&#160;&#160;&#160;&#160;&#160;&#160;&#160;&#160;&#160;&#160;&#160;&#160;</text><text fill="#000000" font-family="sans-serif" font-size="14" lengthAdjust="spacing" textLength="185" x="1171" y="1049.6641">Contract - Smart Contracts</text><text fill="#000000" filter="url(#b1xbroowezh5330)" font-family="sans-serif" font-size="14" lengthAdjust="spacing" textLength="64" x="1034" y="1066.1523">&#160;&#160;&#160;&#160;&#160;&#160;&#160;&#160;&#160;&#160;&#160;&#160;&#160;&#160;&#160;&#160;</text><text fill="#000000" font-family="sans-serif" font-size="14" lengthAdjust="spacing" textLength="176" x="1171" y="1066.1523">Queue - Message Queues</text><text fill="#000000" filter="url(#b1xbroowezh5330)" font-family="sans-serif" font-size="14" lengthAdjust="spacing" textLength="64" x="1034" y="1082.6406">&#160;&#160;&#160;&#160;&#160;&#160;&#160;&#160;&#160;&#160;&#160;&#160;&#160;&#160;&#160;&#160;</text><text fill="#000000" font-family="sans-serif" font-size="14" lengthAdjust="spacing" textLength="187" x="1171" y="1082.6406">Operator - Validator Nodes</text><text fill="#000000" filter="url(#b1xbroowezh5330)" font-family="sans-serif" font-size="14" lengthAdjust="spacing" textLength="64" x="1034" y="1099.1289">&#160;&#160;&#160;&#160;&#160;&#160;&#160;&#160;&#160;&#160;&#160;&#160;&#160;&#160;&#160;&#160;</text><text fill="#000000" font-family="sans-serif" font-size="14" lengthAdjust="spacing" textLength="210" x="1171" y="1099.1289">Evaluator - Evaluation Services</text><text fill="#000000" filter="url(#b1xbroowezh5330)" font-family="sans-serif" font-size="14" lengthAdjust="spacing" textLength="64" x="1034" y="1115.6172">&#160;&#160;&#160;&#160;&#160;&#160;&#160;&#160;&#160;&#160;&#160;&#160;&#160;&#160;&#160;&#160;</text><text fill="#000000" font-family="sans-serif" font-size="14" lengthAdjust="spacing" textLength="181" x="1171" y="1115.6172">Storage - Storage Services</text><line style="stroke:#000000;stroke-width:1.0;" x1="1034" x2="1396" y1="937.1992" y2="937.1992"/><line style="stroke:#000000;stroke-width:1.0;" x1="1034" x2="1396" y1="953.6875" y2="953.6875"/><line style="stroke:#000000;stroke-width:1.0;" x1="1034" x2="1396" y1="970.1758" y2="970.1758"/><line style="stroke:#000000;stroke-width:1.0;" x1="1034" x2="1396" y1="986.6641" y2="986.6641"/><line style="stroke:#000000;stroke-width:1.0;" x1="1034" x2="1396" y1="1003.1523" y2="1003.1523"/><line style="stroke:#000000;stroke-width:1.0;" x1="1034" x2="1396" y1="1019.6406" y2="1019.6406"/><line style="stroke:#000000;stroke-width:1.0;" x1="1034" x2="1396" y1="1036.1289" y2="1036.1289"/><line style="stroke:#000000;stroke-width:1.0;" x1="1034" x2="1396" y1="1052.6172" y2="1052.6172"/><line style="stroke:#000000;stroke-width:1.0;" x1="1034" x2="1396" y1="1069.1055" y2="1069.1055"/><line style="stroke:#000000;stroke-width:1.0;" x1="1034" x2="1396" y1="1085.5938" y2="1085.5938"/><line style="stroke:#000000;stroke-width:1.0;" x1="1034" x2="1396" y1="1102.082" y2="1102.082"/><line style="stroke:#000000;stroke-width:1.0;" x1="1034" x2="1396" y1="1118.5703" y2="1118.5703"/><line style="stroke:#000000;stroke-width:1.0;" x1="1034" x2="1034" y1="937.1992" y2="1118.5703"/><line style="stroke:#000000;stroke-width:1.0;" x1="1167" x2="1167" y1="937.1992" y2="1118.5703"/><line style="stroke:#000000;stroke-width:1.0;" x1="1396" x2="1396" y1="937.1992" y2="1118.5703"/><!--SRC=[bLZRSjis47tdLspTXpGFIcnBlcbSpr0KwNhg-2B9JcVQZWOYOGerBme0sd6Q_7iN02c15AME_E38sBDdiOl5mIe_BJY9Km89USiB2IAbacJ4STx1a3wnZ49O29cd4EP9pWN8758Ympa8-gMWMKWXOYJc91MEU6RPWk17nAQBFAEPF3yFU9v9caKN5_2l0p0WuNFCyoABFCK7F_jdmOaVA4lE8yhBrSCJrp_UNwvEvYnypgWGSEZySDe3kNTN6sCCWgDWq8pHxPsT3WUxnIZaV5EGuCmV-6upY7_IyxhUJa66H98P4NHZe9xl1IVDGAT-h-SETmhaVvMKPoJP6CZ7dDO21GTURp_OAP27BS19A3S6SeU3uMapq5clUt1ul5EW-u8Mc-lc1LrlhTC69sT7-xjrmUs2SY9plYdGyDXtWxLq3ltJO-zWjmDw8KcnDLBF3uPhAHsS7GVTtLfXZ458lBbqHxw_dj79SQztwcwAymuy8nn2lYKiYwt0BkVvQqcoht-QnXNNmOUkPOpe4oaIEQ5VfPkmE4jnzn3YByejrCXidMUKmwcrBfbCQ83DE6RVA1oqct2t56Pv4bbMhwgKiN8QeaR62MqhPhCO1n-Esc2hRHnkCj-Gb68v64ain1sU3PxKveqi3A1vXdW1Cu48v6u1r-wT_h6BNWfIatBeJjo1E_QdWyisjCMvGjwEXlx8GdzHDxP9VF_WFpHO3SwYB366pz771zVaZV9hcWbmPKBmzsA1zGldJ6AT2auT1qK8VVSU1ELxW8W2FpXEMGNOCsxLaxMdByEVPl4pdS73rL_PBoEA9E__LjwlT3Oj6DYFd7AumUxyy8yEZ_YRFABub_78q8IMfeTwL_1WM4WaopFub4T5GfMlwdEq6MU2dw1wX9JRY0gy308UcIX8mhvfx_eMNzYtUhGVThftLwPcLQRuzoMHz9My8SjbNePTi6dy2kKBgt2NkPO890HSiw1nFfsL1WkEfHldk2fXJFaB2wdbWIKKncOvZ70FSCrIF3TkOL5qwJGnoqkudGzUULh546LEfORgik9S4zSOAHgdgLcsDu07G1COqPW9oUrQfCemvQN1Tb6lji0qreD4nj8MH_LXYuVgoZPuTTvtFCS4HLuhZh5D5vMjjK9Ns0OuhEbos2TlLUbppfzhktdL2r1xZfJFE2LSGlMsWvSmR67BBomjqr1Rm9u3T96fv2mKo90aLDrBkywbhHxKpaJLsqwXaXtO-vHdSJuSwAitlhz-lsSE3XUZ6TZZLTsBeD1ghvMFMjhcutuUmxYBBhUpVp03A5zHuoswOBshwASb30FXwQWCzAo2lh-JfsTYN0nYESRKygs6jMP_gpruUPmncIFPIYn2irRJ2qiV7ySgKqDLNlCNLUxLRACThZ-fPdjXABj2qTzT6N2IfFfmbXEasgjgM-XqBYfTx0Fsjt3AlvIXbBy-NgrCKOASe-p7SwSqA8nMkJvOaaYn1vciWPIizM78n0A_jgoRIydguzrwfkfkO6M5L5zUy0bG_0fKLQWFZvIp9rQ5APqLnDAplfegr5QGmqAizAklhaA6RT24r6IhRtHjbRbZnL3ecYIL5Mn06YBK3cggJZkgfZJja7LXAN5ERQjcO-QIzVLDe4RwW6LEOyTRiSsDRmNNzhyLkPw6XfTNV0clX0SzrlCpzxCFTyKiOM9kci4iwbumGgaRGHGfcfzudZhbiccvkYGYb2I9i25jvIxrlchG9elk-1TrhPIyAqi9h99H07rZgtYsOQq4AlMsGq11MsAUM6AGxMMreIL2qxu3DuhC_oHqmZp2RmMGq1WxpJ7_06VnNABoVFzrDNF3v6r1rSgGYf2pXNwblYlGkUhJVZ2wlPduDqCS62-WyNF-KK4klYzdEkYeIUxZmzMANzXag71RUTI8r5bEFvKMrnWU9hzjfz0218sPhutA6h0tqrLl4rBgDx5yScmU_u-9FxfnhxVoB1-O3dHvXDypk7nhtPM7vHwvtcGhst8iw41zJgXHLOF-PfvxSxkWzchME6xl_94xkHrjfQcUDMHwn4avqf_LP5wZyX_TwuV_vLfE94XcpKrjfHeZbtkvFSFgl3hBJnOJDbbvGVu3]--></g></svg>