<?xml version="1.0" encoding="us-ascii" standalone="no"?><svg xmlns="http://www.w3.org/2000/svg" xmlns:xlink="http://www.w3.org/1999/xlink" contentStyleType="text/css" height="1009px" preserveAspectRatio="none" style="width:1268px;height:1009px;background:#FFFFFF;" version="1.1" viewBox="0 0 1268 1009" width="1268px" zoomAndPan="magnify"><defs/><g><text fill="#000000" font-family="Verdana" font-size="22" font-weight="bold" lengthAdjust="spacing" textLength="477" x="407" y="37.1182">Results Viewing and Comparison Flow</text><rect fill="#FFFFFF" height="148.9966" style="stroke:#000000;stroke-width:1.0;" width="10" x="305.5" y="198.3506"/><rect fill="#FFFFFF" height="251.3945" style="stroke:#000000;stroke-width:1.0;" width="10" x="305.5" y="377.1465"/><rect fill="#FFFFFF" height="251.3945" style="stroke:#000000;stroke-width:1.0;" width="10" x="305.5" y="658.3403"/><rect fill="#FFFFFF" height="89.3979" style="stroke:#000000;stroke-width:1.0;" width="10" x="749.5" y="228.1499"/><rect fill="#FFFFFF" height="148.9966" style="stroke:#000000;stroke-width:1.0;" width="10" x="749.5" y="406.9458"/><rect fill="#FFFFFF" height="148.9966" style="stroke:#000000;stroke-width:1.0;" width="10" x="749.5" y="688.1396"/><line style="stroke:#000000;stroke-width:1.0;" x1="44" x2="44" y1="130.752" y2="927.7349"/><line style="stroke:#000000;stroke-width:1.0;" x1="310" x2="310" y1="130.752" y2="927.7349"/><line style="stroke:#000000;stroke-width:1.0;" x1="754.5" x2="754.5" y1="130.752" y2="927.7349"/><line style="stroke:#000000;stroke-width:1.0;" x1="976" x2="976" y1="130.752" y2="927.7349"/><line style="stroke:#000000;stroke-width:1.0;" x1="1103" x2="1103" y1="130.752" y2="927.7349"/><line style="stroke:#000000;stroke-width:1.0;" x1="1226" x2="1226" y1="130.752" y2="927.7349"/><text fill="#000000" font-family="Verdana" font-size="14" lengthAdjust="spacing" textLength="31" x="26" y="127.8125">User</text><ellipse cx="44.5" cy="61.7373" fill="#FFFFFF" rx="8" ry="8" style="stroke:#000000;stroke-width:1.0;"/><path d="M44.5,69.7373 L44.5,96.7373 M31.5,77.7373 L57.5,77.7373 M44.5,96.7373 L31.5,111.7373 M44.5,96.7373 L57.5,111.7373 " fill="none" style="stroke:#000000;stroke-width:1.0;"/><text fill="#000000" font-family="Verdana" font-size="14" lengthAdjust="spacing" textLength="31" x="26" y="940.8101">User</text><ellipse cx="44.5" cy="952.7495" fill="#FFFFFF" rx="8" ry="8" style="stroke:#000000;stroke-width:1.0;"/><path d="M44.5,960.7495 L44.5,987.7495 M31.5,968.7495 L57.5,968.7495 M44.5,987.7495 L31.5,1002.7495 M44.5,987.7495 L57.5,1002.7495 " fill="none" style="stroke:#000000;stroke-width:1.0;"/><rect fill="#FFFFFF" height="31.0146" style="stroke:#000000;stroke-width:1.0;" width="117" x="252" y="98.7373"/><text fill="#000000" font-family="Verdana" font-size="14" lengthAdjust="spacing" textLength="103" x="259" y="119.8125">Atlas Frontend</text><rect fill="#FFFFFF" height="31.0146" style="stroke:#000000;stroke-width:1.0;" width="117" x="252" y="926.7349"/><text fill="#000000" font-family="Verdana" font-size="14" lengthAdjust="spacing" textLength="103" x="259" y="947.8101">Atlas Frontend</text><rect fill="#FFFFFF" height="31.0146" style="stroke:#000000;stroke-width:1.0;" width="78" x="715.5" y="98.7373"/><text fill="#000000" font-family="Verdana" font-size="14" lengthAdjust="spacing" textLength="64" x="722.5" y="119.8125">Atlas API</text><rect fill="#FFFFFF" height="31.0146" style="stroke:#000000;stroke-width:1.0;" width="78" x="715.5" y="926.7349"/><text fill="#000000" font-family="Verdana" font-size="14" lengthAdjust="spacing" textLength="64" x="722.5" y="947.8101">Atlas API</text><rect fill="#FFFFFF" height="31.0146" style="stroke:#000000;stroke-width:1.0;" width="81" x="936" y="98.7373"/><text fill="#000000" font-family="Verdana" font-size="14" lengthAdjust="spacing" textLength="67" x="943" y="119.8125">MongoDB</text><rect fill="#FFFFFF" height="31.0146" style="stroke:#000000;stroke-width:1.0;" width="81" x="936" y="926.7349"/><text fill="#000000" font-family="Verdana" font-size="14" lengthAdjust="spacing" textLength="67" x="943" y="947.8101">MongoDB</text><rect fill="#FFFFFF" height="31.0146" style="stroke:#000000;stroke-width:1.0;" width="73" x="1067" y="98.7373"/><text fill="#000000" font-family="Verdana" font-size="14" lengthAdjust="spacing" textLength="59" x="1074" y="119.8125">MariaDB</text><rect fill="#FFFFFF" height="31.0146" style="stroke:#000000;stroke-width:1.0;" width="73" x="1067" y="926.7349"/><text fill="#000000" font-family="Verdana" font-size="14" lengthAdjust="spacing" textLength="59" x="1074" y="947.8101">MariaDB</text><rect fill="#FFFFFF" height="31.0146" style="stroke:#000000;stroke-width:1.0;" width="72" x="1190" y="98.7373"/><text fill="#000000" font-family="Verdana" font-size="14" lengthAdjust="spacing" textLength="58" x="1197" y="119.8125">AWS S3</text><rect fill="#FFFFFF" height="31.0146" style="stroke:#000000;stroke-width:1.0;" width="72" x="1190" y="926.7349"/><text fill="#000000" font-family="Verdana" font-size="14" lengthAdjust="spacing" textLength="58" x="1197" y="947.8101">AWS S3</text><rect fill="#FFFFFF" height="148.9966" style="stroke:#000000;stroke-width:1.0;" width="10" x="305.5" y="198.3506"/><rect fill="#FFFFFF" height="251.3945" style="stroke:#000000;stroke-width:1.0;" width="10" x="305.5" y="377.1465"/><rect fill="#FFFFFF" height="251.3945" style="stroke:#000000;stroke-width:1.0;" width="10" x="305.5" y="658.3403"/><rect fill="#FFFFFF" height="89.3979" style="stroke:#000000;stroke-width:1.0;" width="10" x="749.5" y="228.1499"/><rect fill="#FFFFFF" height="148.9966" style="stroke:#000000;stroke-width:1.0;" width="10" x="749.5" y="406.9458"/><rect fill="#FFFFFF" height="148.9966" style="stroke:#000000;stroke-width:1.0;" width="10" x="749.5" y="688.1396"/><path d="M10,145.752 L10,170.752 L1261,170.752 L1261,155.752 L1251,145.752 L10,145.752 " fill="#FFFFFF" style="stroke:#000000;stroke-width:1.0;"/><path d="M1251,145.752 L1251,155.752 L1261,155.752 L1251,145.752 " fill="#FFFFFF" style="stroke:#000000;stroke-width:1.0;"/><text fill="#000000" font-family="Verdana" font-size="13" lengthAdjust="spacing" textLength="211" x="530" y="163.8218">Viewing and Comparing Results</text><polygon fill="#000000" points="293.5,194.3506,303.5,198.3506,293.5,202.3506,297.5,198.3506" style="stroke:#000000;stroke-width:1.0;"/><line style="stroke:#000000;stroke-width:1.5;" x1="44.5" x2="299.5" y1="198.3506" y2="198.3506"/><text fill="#000000" font-family="Verdana" font-size="13" lengthAdjust="spacing" textLength="158" x="96" y="193.6211">Navigate to evaluations</text><polygon fill="#000000" points="737.5,224.1499,747.5,228.1499,737.5,232.1499,741.5,228.1499" style="stroke:#000000;stroke-width:1.0;"/><line style="stroke:#000000;stroke-width:1.5;" x1="315.5" x2="743.5" y1="228.1499" y2="228.1499"/><text fill="#000000" font-family="Verdana" font-size="13" lengthAdjust="spacing" textLength="161" x="452" y="223.4204">GET /api/v1/evaluations</text><polygon fill="#000000" points="964.5,253.9492,974.5,257.9492,964.5,261.9492,968.5,257.9492" style="stroke:#000000;stroke-width:1.0;"/><line style="stroke:#000000;stroke-width:1.5;" x1="759.5" x2="970.5" y1="257.9492" y2="257.9492"/><text fill="#000000" font-family="Verdana" font-size="13" lengthAdjust="spacing" textLength="160" x="788" y="253.2197">Fetch user's evaluations</text><polygon fill="#000000" points="770.5,283.7485,760.5,287.7485,770.5,291.7485,766.5,287.7485" style="stroke:#000000;stroke-width:1.0;"/><line style="stroke:#000000;stroke-width:1.5;stroke-dasharray:2.0,2.0;" x1="764.5" x2="975.5" y1="287.7485" y2="287.7485"/><text fill="#000000" font-family="Verdana" font-size="13" lengthAdjust="spacing" textLength="125" x="805.5" y="283.019">Return evaluations</text><polygon fill="#000000" points="326.5,313.5479,316.5,317.5479,326.5,321.5479,322.5,317.5479" style="stroke:#000000;stroke-width:1.0;"/><line style="stroke:#000000;stroke-width:1.5;stroke-dasharray:2.0,2.0;" x1="320.5" x2="753.5" y1="317.5479" y2="317.5479"/><text fill="#000000" font-family="Verdana" font-size="13" lengthAdjust="spacing" textLength="143" x="463.5" y="312.8184">Return evaluation list</text><polygon fill="#000000" points="55.5,343.3472,45.5,347.3472,55.5,351.3472,51.5,347.3472" style="stroke:#000000;stroke-width:1.0;"/><line style="stroke:#000000;stroke-width:1.5;stroke-dasharray:2.0,2.0;" x1="49.5" x2="309.5" y1="347.3472" y2="347.3472"/><text fill="#000000" font-family="Verdana" font-size="13" lengthAdjust="spacing" textLength="130" x="112.5" y="342.6177">Display evaluations</text><polygon fill="#000000" points="293.5,373.1465,303.5,377.1465,293.5,381.1465,297.5,377.1465" style="stroke:#000000;stroke-width:1.0;"/><line style="stroke:#000000;stroke-width:1.5;" x1="44.5" x2="299.5" y1="377.1465" y2="377.1465"/><text fill="#000000" font-family="Verdana" font-size="13" lengthAdjust="spacing" textLength="188" x="81" y="372.417">Select evaluation for details</text><polygon fill="#000000" points="737.5,402.9458,747.5,406.9458,737.5,410.9458,741.5,406.9458" style="stroke:#000000;stroke-width:1.0;"/><line style="stroke:#000000;stroke-width:1.5;" x1="315.5" x2="743.5" y1="406.9458" y2="406.9458"/><text fill="#000000" font-family="Verdana" font-size="13" lengthAdjust="spacing" textLength="195" x="435" y="402.2163">GET /api/v1/evaluations/{id}</text><polygon fill="#000000" points="964.5,432.7451,974.5,436.7451,964.5,440.7451,968.5,436.7451" style="stroke:#000000;stroke-width:1.0;"/><line style="stroke:#000000;stroke-width:1.5;" x1="759.5" x2="970.5" y1="436.7451" y2="436.7451"/><text fill="#000000" font-family="Verdana" font-size="13" lengthAdjust="spacing" textLength="177" x="779.5" y="432.0156">Fetch evaluation metadata</text><polygon fill="#000000" points="770.5,462.5444,760.5,466.5444,770.5,470.5444,766.5,466.5444" style="stroke:#000000;stroke-width:1.0;"/><line style="stroke:#000000;stroke-width:1.5;stroke-dasharray:2.0,2.0;" x1="764.5" x2="975.5" y1="466.5444" y2="466.5444"/><text fill="#000000" font-family="Verdana" font-size="13" lengthAdjust="spacing" textLength="112" x="812" y="461.8149">Return metadata</text><polygon fill="#000000" points="1214,492.3438,1224,496.3438,1214,500.3438,1218,496.3438" style="stroke:#000000;stroke-width:1.0;"/><line style="stroke:#000000;stroke-width:1.5;" x1="759.5" x2="1220" y1="496.3438" y2="496.3438"/><text fill="#000000" font-family="Verdana" font-size="13" lengthAdjust="spacing" textLength="143" x="921.25" y="491.6143">Fetch detailed results</text><polygon fill="#000000" points="770.5,522.1431,760.5,526.1431,770.5,530.1431,766.5,526.1431" style="stroke:#000000;stroke-width:1.0;"/><line style="stroke:#000000;stroke-width:1.5;stroke-dasharray:2.0,2.0;" x1="764.5" x2="1225" y1="526.1431" y2="526.1431"/><text fill="#000000" font-family="Verdana" font-size="13" lengthAdjust="spacing" textLength="121" x="932.25" y="521.4136">Return result data</text><polygon fill="#000000" points="326.5,551.9424,316.5,555.9424,326.5,559.9424,322.5,555.9424" style="stroke:#000000;stroke-width:1.0;"/><line style="stroke:#000000;stroke-width:1.5;stroke-dasharray:2.0,2.0;" x1="320.5" x2="753.5" y1="555.9424" y2="555.9424"/><text fill="#000000" font-family="Verdana" font-size="13" lengthAdjust="spacing" textLength="147" x="461.5" y="551.2129">Return combined data</text><line style="stroke:#000000;stroke-width:1.5;" x1="315.5" x2="357.5" y1="585.7417" y2="585.7417"/><line style="stroke:#000000;stroke-width:1.5;" x1="357.5" x2="357.5" y1="585.7417" y2="598.7417"/><line style="stroke:#000000;stroke-width:1.5;" x1="316.5" x2="357.5" y1="598.7417" y2="598.7417"/><polygon fill="#000000" points="326.5,594.7417,316.5,598.7417,326.5,602.7417,322.5,598.7417" style="stroke:#000000;stroke-width:1.0;"/><text fill="#000000" font-family="Verdana" font-size="13" lengthAdjust="spacing" textLength="193" x="322.5" y="581.0122">Process and visualize results</text><polygon fill="#000000" points="55.5,624.541,45.5,628.541,55.5,632.541,51.5,628.541" style="stroke:#000000;stroke-width:1.0;"/><line style="stroke:#000000;stroke-width:1.5;stroke-dasharray:2.0,2.0;" x1="49.5" x2="309.5" y1="628.541" y2="628.541"/><text fill="#000000" font-family="Verdana" font-size="13" lengthAdjust="spacing" textLength="237" x="59" y="623.8115">Display detailed metrics and charts</text><polygon fill="#000000" points="293.5,654.3403,303.5,658.3403,293.5,662.3403,297.5,658.3403" style="stroke:#000000;stroke-width:1.0;"/><line style="stroke:#000000;stroke-width:1.5;" x1="44.5" x2="299.5" y1="658.3403" y2="658.3403"/><text fill="#000000" font-family="Verdana" font-size="13" lengthAdjust="spacing" textLength="181" x="84.5" y="653.6108">Request model comparison</text><polygon fill="#000000" points="737.5,684.1396,747.5,688.1396,737.5,692.1396,741.5,688.1396" style="stroke:#000000;stroke-width:1.0;"/><line style="stroke:#000000;stroke-width:1.5;" x1="315.5" x2="743.5" y1="688.1396" y2="688.1396"/><text fill="#000000" font-family="Verdana" font-size="13" lengthAdjust="spacing" textLength="415" x="325" y="683.4102">GET /api/v1/models/compare?ids=model1,model2&amp;dataset=X</text><polygon fill="#000000" points="1091.5,713.939,1101.5,717.939,1091.5,721.939,1095.5,717.939" style="stroke:#000000;stroke-width:1.0;"/><line style="stroke:#000000;stroke-width:1.5;" x1="759.5" x2="1097.5" y1="717.939" y2="717.939"/><text fill="#000000" font-family="Verdana" font-size="13" lengthAdjust="spacing" textLength="162" x="850.5" y="713.2095">Fetch aggregate metrics</text><polygon fill="#000000" points="770.5,743.7383,760.5,747.7383,770.5,751.7383,766.5,747.7383" style="stroke:#000000;stroke-width:1.0;"/><line style="stroke:#000000;stroke-width:1.5;stroke-dasharray:2.0,2.0;" x1="764.5" x2="1102.5" y1="747.7383" y2="747.7383"/><text fill="#000000" font-family="Verdana" font-size="13" lengthAdjust="spacing" textLength="99" x="882" y="743.0088">Return metrics</text><polygon fill="#000000" points="964.5,773.5376,974.5,777.5376,964.5,781.5376,968.5,777.5376" style="stroke:#000000;stroke-width:1.0;"/><line style="stroke:#000000;stroke-width:1.5;" x1="759.5" x2="970.5" y1="777.5376" y2="777.5376"/><text fill="#000000" font-family="Verdana" font-size="13" lengthAdjust="spacing" textLength="193" x="771.5" y="772.8081">Fetch evaluations for models</text><polygon fill="#000000" points="770.5,803.3369,760.5,807.3369,770.5,811.3369,766.5,807.3369" style="stroke:#000000;stroke-width:1.0;"/><line style="stroke:#000000;stroke-width:1.5;stroke-dasharray:2.0,2.0;" x1="764.5" x2="975.5" y1="807.3369" y2="807.3369"/><text fill="#000000" font-family="Verdana" font-size="13" lengthAdjust="spacing" textLength="125" x="805.5" y="802.6074">Return evaluations</text><polygon fill="#000000" points="326.5,833.1362,316.5,837.1362,326.5,841.1362,322.5,837.1362" style="stroke:#000000;stroke-width:1.0;"/><line style="stroke:#000000;stroke-width:1.5;stroke-dasharray:2.0,2.0;" x1="320.5" x2="753.5" y1="837.1362" y2="837.1362"/><text fill="#000000" font-family="Verdana" font-size="13" lengthAdjust="spacing" textLength="160" x="455" y="832.4067">Return comparison data</text><line style="stroke:#000000;stroke-width:1.5;" x1="315.5" x2="357.5" y1="866.9355" y2="866.9355"/><line style="stroke:#000000;stroke-width:1.5;" x1="357.5" x2="357.5" y1="866.9355" y2="879.9355"/><line style="stroke:#000000;stroke-width:1.5;" x1="316.5" x2="357.5" y1="879.9355" y2="879.9355"/><polygon fill="#000000" points="326.5,875.9355,316.5,879.9355,326.5,883.9355,322.5,879.9355" style="stroke:#000000;stroke-width:1.0;"/><text fill="#000000" font-family="Verdana" font-size="13" lengthAdjust="spacing" textLength="238" x="322.5" y="862.2061">Generate comparison visualizations</text><polygon fill="#000000" points="55.5,905.7349,45.5,909.7349,55.5,913.7349,51.5,909.7349" style="stroke:#000000;stroke-width:1.0;"/><line style="stroke:#000000;stroke-width:1.5;stroke-dasharray:2.0,2.0;" x1="49.5" x2="309.5" y1="909.7349" y2="909.7349"/><text fill="#000000" font-family="Verdana" font-size="13" lengthAdjust="spacing" textLength="177" x="89" y="905.0054">Display model comparison</text><!--SRC=[fLLDRzim3BtxLt0zh9TsQLhi4g0RqeyKEtG8ckxZoaYCBKIMF4bEcWtxxwDi9t4QjslHGs9PV2GV7odv42xGAm4-hBGoQV8kP9GJ51gLIVnScG8TvZ15CK-TBOsyjDewM6OgKCikQOQb3lVq48PQfIOd4q3m7xaaEOJhXq8heO9UWLGUfveWGoENJeL01d8hsy7QfXbgtxRv3ALTCjCzIyFE6N9m4fEEh1F4XJbKQHQ0ooFVmiVti2e8h0kPRHd6w0AJBT24CKePSvsUjEmJ-bMI4NHX7zRsVfNm5kUShtHKvm8k0sRM15xndd3A5wqmG-ViibPpgbdUnwRxJ8avX_7G__0nIGAhHt17dcNsy5rH9K9CSMbpTbFU6XXfkqmI5863VlEiVR6j1Gw6GQE7aMDAPEG1j5wwWCFnbmh3prtphJMflRgeZCtw4O3fu1fGhnyb-361oLbbdvmbYR61sx2WclGHxmswAkItfluaYK0u_hGfO01VSQ5Iv4310YrGbnYKDJwgeHPnVrFhUX7zkRW1t5pVGmyBrLlqUvskKGB-HOUcu06CA8WCIkPnw7SIDWWuNeU_er0wiuEfWktGtmFn4FcGIDeXiQNEpb630LpnM6bSxOHlUMsgxf1iGff4QEUSyU182gZqMuJh_L7oxqlKQsNEEQl4W4_Ajm4qeUAGr55gmYJ1DTCnETlphasm3T0blh3vb4-kh65FIj_s73ihuXcDOxfGlaIjVjE6o3Fjsf3ckfmITGIHyIbvSVlkuaNaGtLzwaY-kGPUsxdAt_Vg0FHPINzURVMFgiVf-oY7ft3-ixkdzGbVTmFJr55r49lAaWRGrT7A_h_PyDLOrYpVThgs6hsYnJV4dvG8QNclMzqaVARFUytfQEu_]--></g></svg>