<?xml version="1.0" encoding="us-ascii" standalone="no"?><svg xmlns="http://www.w3.org/2000/svg" xmlns:xlink="http://www.w3.org/1999/xlink" contentStyleType="text/css" height="1193px" preserveAspectRatio="none" style="width:1181px;height:1193px;background:#FFFFFF;" version="1.1" viewBox="0 0 1181 1193" width="1181px" zoomAndPan="magnify"><defs/><g><text fill="#000000" font-family="Arial" font-size="14" font-weight="bold" lengthAdjust="spacing" textLength="264" x="467.75" y="28.1318">Results Viewing and Comparison Flow</text><rect fill="#FFFFFF" height="144.7437" style="stroke:#181818;stroke-width:1.0;" width="10" x="269" y="184.0947"/><rect fill="#FFFFFF" height="244.5898" style="stroke:#181818;stroke-width:1.0;" width="10" x="269" y="357.7871"/><rect fill="#FFFFFF" height="244.5898" style="stroke:#181818;stroke-width:1.0;" width="10" x="269" y="631.3257"/><rect fill="#FFFFFF" height="86.8462" style="stroke:#181818;stroke-width:1.0;" width="10" x="657" y="213.0435"/><rect fill="#FFFFFF" height="144.7437" style="stroke:#181818;stroke-width:1.0;" width="10" x="657" y="386.7358"/><rect fill="#FFFFFF" height="144.7437" style="stroke:#181818;stroke-width:1.0;" width="10" x="657" y="660.2744"/><line style="stroke:#181818;stroke-width:0.5;stroke-dasharray:5.0,5.0;" x1="41" x2="41" y1="118.1973" y2="893.9155"/><line style="stroke:#181818;stroke-width:0.5;stroke-dasharray:5.0,5.0;" x1="273.5" x2="273.5" y1="118.1973" y2="893.9155"/><line style="stroke:#181818;stroke-width:0.5;stroke-dasharray:5.0,5.0;" x1="661.5" x2="661.5" y1="118.1973" y2="893.9155"/><line style="stroke:#181818;stroke-width:0.5;stroke-dasharray:5.0,5.0;" x1="858.5" x2="858.5" y1="118.1973" y2="893.9155"/><line style="stroke:#181818;stroke-width:0.5;stroke-dasharray:5.0,5.0;" x1="999.5" x2="999.5" y1="118.1973" y2="893.9155"/><line style="stroke:#181818;stroke-width:0.5;stroke-dasharray:5.0,5.0;" x1="1135.5" x2="1135.5" y1="118.1973" y2="893.9155"/><text fill="#000000" font-family="Arial" font-size="14" lengthAdjust="spacing" textLength="30" x="23" y="115.2305">User</text><ellipse cx="41" cy="50.5986" fill="#E2E2F0" rx="8" ry="8" style="stroke:#181818;stroke-width:0.5;"/><path d="M41,58.5986 L41,85.5986 M28,66.5986 L54,66.5986 M41,85.5986 L28,100.5986 M41,85.5986 L54,100.5986 " fill="none" style="stroke:#181818;stroke-width:0.5;"/><text fill="#000000" font-family="Arial" font-size="14" lengthAdjust="spacing" textLength="30" x="23" y="906.0474">User</text><ellipse cx="41" cy="917.5142" fill="#E2E2F0" rx="8" ry="8" style="stroke:#181818;stroke-width:0.5;"/><path d="M41,925.5142 L41,952.5142 M28,933.5142 L54,933.5142 M41,952.5142 L28,967.5142 M41,952.5142 L54,967.5142 " fill="none" style="stroke:#181818;stroke-width:0.5;"/><rect fill="#E9F7EF" height="46.1973" rx="2.5" ry="2.5" style="stroke:#27AE60;stroke-width:0.5;" width="107" x="220.5" y="71"/><text fill="#000000" font-family="Arial" font-size="14" font-style="italic" lengthAdjust="spacing" textLength="74" x="237" y="91.1318">&#171;Frontend&#187;</text><text fill="#000000" font-family="Arial" font-size="14" lengthAdjust="spacing" textLength="93" x="227.5" y="107.2305">Atlas Frontend</text><rect fill="#E9F7EF" height="46.1973" rx="2.5" ry="2.5" style="stroke:#27AE60;stroke-width:0.5;" width="107" x="220.5" y="892.9155"/><text fill="#000000" font-family="Arial" font-size="14" font-style="italic" lengthAdjust="spacing" textLength="74" x="237" y="913.0474">&#171;Frontend&#187;</text><text fill="#000000" font-family="Arial" font-size="14" lengthAdjust="spacing" textLength="93" x="227.5" y="929.146">Atlas Frontend</text><rect fill="#EBF5FB" height="46.1973" rx="2.5" ry="2.5" style="stroke:#3498DB;stroke-width:0.5;" width="71" x="626.5" y="71"/><text fill="#000000" font-family="Arial" font-size="14" font-style="italic" lengthAdjust="spacing" textLength="38" x="643" y="91.1318">&#171;API&#187;</text><text fill="#000000" font-family="Arial" font-size="14" lengthAdjust="spacing" textLength="57" x="633.5" y="107.2305">Atlas API</text><rect fill="#EBF5FB" height="46.1973" rx="2.5" ry="2.5" style="stroke:#3498DB;stroke-width:0.5;" width="71" x="626.5" y="892.9155"/><text fill="#000000" font-family="Arial" font-size="14" font-style="italic" lengthAdjust="spacing" textLength="38" x="643" y="913.0474">&#171;API&#187;</text><text fill="#000000" font-family="Arial" font-size="14" lengthAdjust="spacing" textLength="57" x="633.5" y="929.146">Atlas API</text><rect fill="#F4ECF7" height="46.1973" rx="2.5" ry="2.5" style="stroke:#8E44AD;stroke-width:0.5;" width="91" x="813.5" y="71"/><text fill="#000000" font-family="Arial" font-size="14" font-style="italic" lengthAdjust="spacing" textLength="77" x="820.5" y="91.1318">&#171;Database&#187;</text><text fill="#000000" font-family="Arial" font-size="14" lengthAdjust="spacing" textLength="63" x="827.5" y="107.2305">MongoDB</text><rect fill="#F4ECF7" height="46.1973" rx="2.5" ry="2.5" style="stroke:#8E44AD;stroke-width:0.5;" width="91" x="813.5" y="892.9155"/><text fill="#000000" font-family="Arial" font-size="14" font-style="italic" lengthAdjust="spacing" textLength="77" x="820.5" y="913.0474">&#171;Database&#187;</text><text fill="#000000" font-family="Arial" font-size="14" lengthAdjust="spacing" textLength="63" x="827.5" y="929.146">MongoDB</text><rect fill="#F4ECF7" height="46.1973" rx="2.5" ry="2.5" style="stroke:#8E44AD;stroke-width:0.5;" width="91" x="954.5" y="71"/><text fill="#000000" font-family="Arial" font-size="14" font-style="italic" lengthAdjust="spacing" textLength="77" x="961.5" y="91.1318">&#171;Database&#187;</text><text fill="#000000" font-family="Arial" font-size="14" lengthAdjust="spacing" textLength="55" x="972.5" y="107.2305">MariaDB</text><rect fill="#F4ECF7" height="46.1973" rx="2.5" ry="2.5" style="stroke:#8E44AD;stroke-width:0.5;" width="91" x="954.5" y="892.9155"/><text fill="#000000" font-family="Arial" font-size="14" font-style="italic" lengthAdjust="spacing" textLength="77" x="961.5" y="913.0474">&#171;Database&#187;</text><text fill="#000000" font-family="Arial" font-size="14" lengthAdjust="spacing" textLength="55" x="972.5" y="929.146">MariaDB</text><rect fill="#F5EEF8" height="46.1973" rx="2.5" ry="2.5" style="stroke:#76448A;stroke-width:0.5;" width="80" x="1095.5" y="71"/><text fill="#000000" font-family="Arial" font-size="14" font-style="italic" lengthAdjust="spacing" textLength="66" x="1102.5" y="91.1318">&#171;Storage&#187;</text><text fill="#000000" font-family="Arial" font-size="14" lengthAdjust="spacing" textLength="52" x="1109.5" y="107.2305">AWS S3</text><rect fill="#F5EEF8" height="46.1973" rx="2.5" ry="2.5" style="stroke:#76448A;stroke-width:0.5;" width="80" x="1095.5" y="892.9155"/><text fill="#000000" font-family="Arial" font-size="14" font-style="italic" lengthAdjust="spacing" textLength="66" x="1102.5" y="913.0474">&#171;Storage&#187;</text><text fill="#000000" font-family="Arial" font-size="14" lengthAdjust="spacing" textLength="52" x="1109.5" y="929.146">AWS S3</text><rect fill="#FFFFFF" height="144.7437" style="stroke:#181818;stroke-width:1.0;" width="10" x="269" y="184.0947"/><rect fill="#FFFFFF" height="244.5898" style="stroke:#181818;stroke-width:1.0;" width="10" x="269" y="357.7871"/><rect fill="#FFFFFF" height="244.5898" style="stroke:#181818;stroke-width:1.0;" width="10" x="269" y="631.3257"/><rect fill="#FFFFFF" height="86.8462" style="stroke:#181818;stroke-width:1.0;" width="10" x="657" y="213.0435"/><rect fill="#FFFFFF" height="144.7437" style="stroke:#181818;stroke-width:1.0;" width="10" x="657" y="386.7358"/><rect fill="#FFFFFF" height="144.7437" style="stroke:#181818;stroke-width:1.0;" width="10" x="657" y="660.2744"/><path d="M5,133.1973 L5,157.1973 L1172,157.1973 L1172,143.1973 L1162,133.1973 L5,133.1973 " fill="#FEFFDD" style="stroke:#181818;stroke-width:0.5;"/><path d="M1162,133.1973 L1162,143.1973 L1172,143.1973 L1162,133.1973 " fill="#FEFFDD" style="stroke:#181818;stroke-width:0.5;"/><text fill="#000000" font-family="Arial" font-size="13" lengthAdjust="spacing" textLength="184" x="492.25" y="150.3911">Viewing and Comparing Results</text><polygon fill="#181818" points="257,180.0947,267,184.0947,257,188.0947,261,184.0947" style="stroke:#181818;stroke-width:1.0;"/><line style="stroke:#181818;stroke-width:1.5;" x1="41" x2="263" y1="184.0947" y2="184.0947"/><text fill="#000000" font-family="Arial" font-size="13" lengthAdjust="spacing" textLength="136" x="87" y="179.3398">Navigate to evaluations</text><polygon fill="#181818" points="645,209.0435,655,213.0435,645,217.0435,649,213.0435" style="stroke:#181818;stroke-width:1.0;"/><line style="stroke:#181818;stroke-width:1.5;" x1="279" x2="651" y1="213.0435" y2="213.0435"/><text fill="#000000" font-family="Arial" font-size="13" lengthAdjust="spacing" textLength="140" x="398" y="208.2886">GET /api/v1/evaluations</text><polygon fill="#181818" points="847,237.9922,857,241.9922,847,245.9922,851,241.9922" style="stroke:#181818;stroke-width:1.0;"/><line style="stroke:#181818;stroke-width:1.5;" x1="667" x2="853" y1="241.9922" y2="241.9922"/><text fill="#000000" font-family="Arial" font-size="13" lengthAdjust="spacing" textLength="141" x="692.5" y="237.2373">Fetch user's evaluations</text><polygon fill="#181818" points="678,266.9409,668,270.9409,678,274.9409,674,270.9409" style="stroke:#181818;stroke-width:1.0;"/><line style="stroke:#181818;stroke-width:1.5;stroke-dasharray:2.0,2.0;" x1="672" x2="858" y1="270.9409" y2="270.9409"/><text fill="#000000" font-family="Arial" font-size="13" lengthAdjust="spacing" textLength="108" x="709" y="266.186">Return evaluations</text><polygon fill="#181818" points="290,295.8896,280,299.8896,290,303.8896,286,299.8896" style="stroke:#181818;stroke-width:1.0;"/><line style="stroke:#181818;stroke-width:1.5;stroke-dasharray:2.0,2.0;" x1="284" x2="661" y1="299.8896" y2="299.8896"/><text fill="#000000" font-family="Arial" font-size="13" lengthAdjust="spacing" textLength="122" x="409.5" y="295.1348">Return evaluation list</text><polygon fill="#181818" points="52,324.8384,42,328.8384,52,332.8384,48,328.8384" style="stroke:#181818;stroke-width:1.0;"/><line style="stroke:#181818;stroke-width:1.5;stroke-dasharray:2.0,2.0;" x1="46" x2="273" y1="328.8384" y2="328.8384"/><text fill="#000000" font-family="Arial" font-size="13" lengthAdjust="spacing" textLength="113" x="101" y="324.0835">Display evaluations</text><polygon fill="#181818" points="257,353.7871,267,357.7871,257,361.7871,261,357.7871" style="stroke:#181818;stroke-width:1.0;"/><line style="stroke:#181818;stroke-width:1.5;" x1="41" x2="263" y1="357.7871" y2="357.7871"/><text fill="#000000" font-family="Arial" font-size="13" lengthAdjust="spacing" textLength="161" x="74.5" y="353.0322">Select evaluation for details</text><polygon fill="#181818" points="645,382.7358,655,386.7358,645,390.7358,649,386.7358" style="stroke:#181818;stroke-width:1.0;"/><line style="stroke:#181818;stroke-width:1.5;" x1="279" x2="651" y1="386.7358" y2="386.7358"/><text fill="#000000" font-family="Arial" font-size="13" lengthAdjust="spacing" textLength="162" x="387" y="381.981">GET /api/v1/evaluations/{id}</text><polygon fill="#181818" points="847,411.6846,857,415.6846,847,419.6846,851,415.6846" style="stroke:#181818;stroke-width:1.0;"/><line style="stroke:#181818;stroke-width:1.5;" x1="667" x2="853" y1="415.6846" y2="415.6846"/><text fill="#000000" font-family="Arial" font-size="13" lengthAdjust="spacing" textLength="154" x="686" y="410.9297">Fetch evaluation metadata</text><polygon fill="#181818" points="678,440.6333,668,444.6333,678,448.6333,674,444.6333" style="stroke:#181818;stroke-width:1.0;"/><line style="stroke:#181818;stroke-width:1.5;stroke-dasharray:2.0,2.0;" x1="672" x2="858" y1="444.6333" y2="444.6333"/><text fill="#000000" font-family="Arial" font-size="13" lengthAdjust="spacing" textLength="96" x="715" y="439.8784">Return metadata</text><polygon fill="#181818" points="1123.5,469.582,1133.5,473.582,1123.5,477.582,1127.5,473.582" style="stroke:#181818;stroke-width:1.0;"/><line style="stroke:#181818;stroke-width:1.5;" x1="667" x2="1129.5" y1="473.582" y2="473.582"/><text fill="#000000" font-family="Arial" font-size="13" lengthAdjust="spacing" textLength="125" x="838.75" y="468.8271">Fetch detailed results</text><polygon fill="#181818" points="678,498.5308,668,502.5308,678,506.5308,674,502.5308" style="stroke:#181818;stroke-width:1.0;"/><line style="stroke:#181818;stroke-width:1.5;stroke-dasharray:2.0,2.0;" x1="672" x2="1134.5" y1="502.5308" y2="502.5308"/><text fill="#000000" font-family="Arial" font-size="13" lengthAdjust="spacing" textLength="103" x="849.75" y="497.7759">Return result data</text><polygon fill="#181818" points="290,527.4795,280,531.4795,290,535.4795,286,531.4795" style="stroke:#181818;stroke-width:1.0;"/><line style="stroke:#181818;stroke-width:1.5;stroke-dasharray:2.0,2.0;" x1="284" x2="661" y1="531.4795" y2="531.4795"/><text fill="#000000" font-family="Arial" font-size="13" lengthAdjust="spacing" textLength="127" x="407" y="526.7246">Return combined data</text><line style="stroke:#181818;stroke-width:1.5;" x1="279" x2="321" y1="560.4282" y2="560.4282"/><line style="stroke:#181818;stroke-width:1.5;" x1="321" x2="321" y1="560.4282" y2="573.4282"/><line style="stroke:#181818;stroke-width:1.5;" x1="280" x2="321" y1="573.4282" y2="573.4282"/><polygon fill="#181818" points="290,569.4282,280,573.4282,290,577.4282,286,573.4282" style="stroke:#181818;stroke-width:1.0;"/><text fill="#000000" font-family="Arial" font-size="13" lengthAdjust="spacing" textLength="171" x="286" y="555.6733">Process and visualize results</text><polygon fill="#181818" points="52,598.377,42,602.377,52,606.377,48,602.377" style="stroke:#181818;stroke-width:1.0;"/><line style="stroke:#181818;stroke-width:1.5;stroke-dasharray:2.0,2.0;" x1="46" x2="273" y1="602.377" y2="602.377"/><text fill="#000000" font-family="Arial" font-size="13" lengthAdjust="spacing" textLength="204" x="55.5" y="597.6221">Display detailed metrics and charts</text><polygon fill="#181818" points="257,627.3257,267,631.3257,257,635.3257,261,631.3257" style="stroke:#181818;stroke-width:1.0;"/><line style="stroke:#181818;stroke-width:1.5;" x1="41" x2="263" y1="631.3257" y2="631.3257"/><text fill="#000000" font-family="Arial" font-size="13" lengthAdjust="spacing" textLength="158" x="76" y="626.5708">Request model comparison</text><polygon fill="#181818" points="645,656.2744,655,660.2744,645,664.2744,649,660.2744" style="stroke:#181818;stroke-width:1.0;"/><line style="stroke:#181818;stroke-width:1.5;" x1="279" x2="651" y1="660.2744" y2="660.2744"/><text fill="#000000" font-family="Arial" font-size="13" lengthAdjust="spacing" textLength="359" x="288.5" y="655.5195">GET /api/v1/models/compare?ids=model1,model2&amp;dataset=X</text><polygon fill="#181818" points="988,685.2231,998,689.2231,988,693.2231,992,689.2231" style="stroke:#181818;stroke-width:1.0;"/><line style="stroke:#181818;stroke-width:1.5;" x1="667" x2="994" y1="689.2231" y2="689.2231"/><text fill="#000000" font-family="Arial" font-size="13" lengthAdjust="spacing" textLength="141" x="763" y="684.4683">Fetch aggregate metrics</text><polygon fill="#181818" points="678,714.1719,668,718.1719,678,722.1719,674,718.1719" style="stroke:#181818;stroke-width:1.0;"/><line style="stroke:#181818;stroke-width:1.5;stroke-dasharray:2.0,2.0;" x1="672" x2="999" y1="718.1719" y2="718.1719"/><text fill="#000000" font-family="Arial" font-size="13" lengthAdjust="spacing" textLength="85" x="791" y="713.417">Return metrics</text><polygon fill="#181818" points="847,743.1206,857,747.1206,847,751.1206,851,747.1206" style="stroke:#181818;stroke-width:1.0;"/><line style="stroke:#181818;stroke-width:1.5;" x1="667" x2="853" y1="747.1206" y2="747.1206"/><text fill="#000000" font-family="Arial" font-size="13" lengthAdjust="spacing" textLength="168" x="679" y="742.3657">Fetch evaluations for models</text><polygon fill="#181818" points="678,772.0693,668,776.0693,678,780.0693,674,776.0693" style="stroke:#181818;stroke-width:1.0;"/><line style="stroke:#181818;stroke-width:1.5;stroke-dasharray:2.0,2.0;" x1="672" x2="858" y1="776.0693" y2="776.0693"/><text fill="#000000" font-family="Arial" font-size="13" lengthAdjust="spacing" textLength="108" x="709" y="771.3145">Return evaluations</text><polygon fill="#181818" points="290,801.0181,280,805.0181,290,809.0181,286,805.0181" style="stroke:#181818;stroke-width:1.0;"/><line style="stroke:#181818;stroke-width:1.5;stroke-dasharray:2.0,2.0;" x1="284" x2="661" y1="805.0181" y2="805.0181"/><text fill="#000000" font-family="Arial" font-size="13" lengthAdjust="spacing" textLength="138" x="401.5" y="800.2632">Return comparison data</text><line style="stroke:#181818;stroke-width:1.5;" x1="279" x2="321" y1="833.9668" y2="833.9668"/><line style="stroke:#181818;stroke-width:1.5;" x1="321" x2="321" y1="833.9668" y2="846.9668"/><line style="stroke:#181818;stroke-width:1.5;" x1="280" x2="321" y1="846.9668" y2="846.9668"/><polygon fill="#181818" points="290,842.9668,280,846.9668,290,850.9668,286,846.9668" style="stroke:#181818;stroke-width:1.0;"/><text fill="#000000" font-family="Arial" font-size="13" lengthAdjust="spacing" textLength="207" x="286" y="829.2119">Generate comparison visualizations</text><polygon fill="#181818" points="52,871.9155,42,875.9155,52,879.9155,48,875.9155" style="stroke:#181818;stroke-width:1.0;"/><line style="stroke:#181818;stroke-width:1.5;stroke-dasharray:2.0,2.0;" x1="46" x2="273" y1="875.9155" y2="875.9155"/><text fill="#000000" font-family="Arial" font-size="13" lengthAdjust="spacing" textLength="153" x="81" y="871.1606">Display model comparison</text><rect fill="#DDDDDD" height="191.085" id="_legend" rx="7.5" ry="7.5" style="stroke:#000000;stroke-width:1.0;" width="183" x="508.25" y="982.0142"/><text fill="#000000" font-family="Arial" font-size="14" font-weight="bold" lengthAdjust="spacing" textLength="78" x="517.25" y="1002.146">Entity Type</text><text fill="#000000" font-family="Arial" font-size="14" font-weight="bold" lengthAdjust="spacing" textLength="79" x="603.25" y="1002.146">Description</text><rect fill="#E9F7EF" height="16.0986" style="stroke:none;stroke-width:1.0;" width="86" x="513.25" y="1005.1128"/><text fill="#000000" font-family="Arial" font-size="14" lengthAdjust="spacing" textLength="4" x="513.25" y="1018.2446">&#160;</text><text fill="#000000" font-family="Arial" font-size="14" lengthAdjust="spacing" textLength="58" x="603.25" y="1018.2446">Frontend</text><rect fill="#EBF5FB" height="16.0986" style="stroke:none;stroke-width:1.0;" width="86" x="513.25" y="1021.2114"/><text fill="#000000" font-family="Arial" font-size="14" lengthAdjust="spacing" textLength="4" x="513.25" y="1034.3433">&#160;</text><text fill="#000000" font-family="Arial" font-size="14" lengthAdjust="spacing" textLength="22" x="603.25" y="1034.3433">API</text><rect fill="#F9EBEA" height="16.0986" style="stroke:none;stroke-width:1.0;" width="86" x="513.25" y="1037.3101"/><text fill="#000000" font-family="Arial" font-size="14" lengthAdjust="spacing" textLength="4" x="513.25" y="1050.4419">&#160;</text><text fill="#000000" font-family="Arial" font-size="14" lengthAdjust="spacing" textLength="29" x="603.25" y="1050.4419">Auth</text><rect fill="#F4ECF7" height="16.0986" style="stroke:none;stroke-width:1.0;" width="86" x="513.25" y="1053.4087"/><text fill="#000000" font-family="Arial" font-size="14" lengthAdjust="spacing" textLength="4" x="513.25" y="1066.5405">&#160;</text><text fill="#000000" font-family="Arial" font-size="14" lengthAdjust="spacing" textLength="61" x="603.25" y="1066.5405">Database</text><rect fill="#FEF9E7" height="16.0986" style="stroke:none;stroke-width:1.0;" width="86" x="513.25" y="1069.5073"/><text fill="#000000" font-family="Arial" font-size="14" lengthAdjust="spacing" textLength="4" x="513.25" y="1082.6392">&#160;</text><text fill="#000000" font-family="Arial" font-size="14" lengthAdjust="spacing" textLength="52" x="603.25" y="1082.6392">External</text><rect fill="#FADBD8" height="16.0986" style="stroke:none;stroke-width:1.0;" width="86" x="513.25" y="1085.606"/><text fill="#000000" font-family="Arial" font-size="14" lengthAdjust="spacing" textLength="4" x="513.25" y="1098.7378">&#160;</text><text fill="#000000" font-family="Arial" font-size="14" lengthAdjust="spacing" textLength="54" x="603.25" y="1098.7378">Contract</text><rect fill="#FCF3CF" height="16.0986" style="stroke:none;stroke-width:1.0;" width="86" x="513.25" y="1101.7046"/><text fill="#000000" font-family="Arial" font-size="14" lengthAdjust="spacing" textLength="4" x="513.25" y="1114.8364">&#160;</text><text fill="#000000" font-family="Arial" font-size="14" lengthAdjust="spacing" textLength="43" x="603.25" y="1114.8364">Queue</text><rect fill="#D6EAF8" height="16.0986" style="stroke:none;stroke-width:1.0;" width="86" x="513.25" y="1117.8032"/><text fill="#000000" font-family="Arial" font-size="14" lengthAdjust="spacing" textLength="4" x="513.25" y="1130.9351">&#160;</text><text fill="#000000" font-family="Arial" font-size="14" lengthAdjust="spacing" textLength="57" x="603.25" y="1130.9351">Operator</text><rect fill="#D4EFDF" height="16.0986" style="stroke:none;stroke-width:1.0;" width="86" x="513.25" y="1133.9019"/><text fill="#000000" font-family="Arial" font-size="14" lengthAdjust="spacing" textLength="4" x="513.25" y="1147.0337">&#160;</text><text fill="#000000" font-family="Arial" font-size="14" lengthAdjust="spacing" textLength="60" x="603.25" y="1147.0337">Evaluator</text><rect fill="#F5EEF8" height="16.0986" style="stroke:none;stroke-width:1.0;" width="86" x="513.25" y="1150.0005"/><text fill="#000000" font-family="Arial" font-size="14" lengthAdjust="spacing" textLength="4" x="513.25" y="1163.1323">&#160;</text><text fill="#000000" font-family="Arial" font-size="14" lengthAdjust="spacing" textLength="50" x="603.25" y="1163.1323">Storage</text><line style="stroke:#000000;stroke-width:1.0;" x1="513.25" x2="686.25" y1="989.0142" y2="989.0142"/><line style="stroke:#000000;stroke-width:1.0;" x1="513.25" x2="686.25" y1="1005.1128" y2="1005.1128"/><line style="stroke:#000000;stroke-width:1.0;" x1="513.25" x2="686.25" y1="1021.2114" y2="1021.2114"/><line style="stroke:#000000;stroke-width:1.0;" x1="513.25" x2="686.25" y1="1037.3101" y2="1037.3101"/><line style="stroke:#000000;stroke-width:1.0;" x1="513.25" x2="686.25" y1="1053.4087" y2="1053.4087"/><line style="stroke:#000000;stroke-width:1.0;" x1="513.25" x2="686.25" y1="1069.5073" y2="1069.5073"/><line style="stroke:#000000;stroke-width:1.0;" x1="513.25" x2="686.25" y1="1085.606" y2="1085.606"/><line style="stroke:#000000;stroke-width:1.0;" x1="513.25" x2="686.25" y1="1101.7046" y2="1101.7046"/><line style="stroke:#000000;stroke-width:1.0;" x1="513.25" x2="686.25" y1="1117.8032" y2="1117.8032"/><line style="stroke:#000000;stroke-width:1.0;" x1="513.25" x2="686.25" y1="1133.9019" y2="1133.9019"/><line style="stroke:#000000;stroke-width:1.0;" x1="513.25" x2="686.25" y1="1150.0005" y2="1150.0005"/><line style="stroke:#000000;stroke-width:1.0;" x1="513.25" x2="686.25" y1="1166.0991" y2="1166.0991"/><line style="stroke:#000000;stroke-width:1.0;" x1="513.25" x2="513.25" y1="989.0142" y2="1166.0991"/><line style="stroke:#000000;stroke-width:1.0;" x1="599.25" x2="599.25" y1="989.0142" y2="1166.0991"/><line style="stroke:#000000;stroke-width:1.0;" x1="686.25" x2="686.25" y1="989.0142" y2="1166.0991"/><!--SRC=[fLHBKzim4BxhLsmvb0kG1gQN3D09JM5we9CXz74LqkBi84kk98S2q__UbH-90oQ5uP1OzdxVQlVRnpkoofGQGRayTtOtn3k3UqMP6o6suLoIZVo3u7A4KA2YQrAWoX1TJlSoahC1hfs7EAS0ccJcPIx23Tb2yWaCMOnt1OBpSUuwXgdqaHGLqiQfr9fi1liVElOP_YxHAZnnVrhxi6iVU-zkB-UaRYo60CEzZq94YWRX0aDfOe0VXBU99gs6povd6WLduTIuMo6aYXpqzu1U5Aj8O6iSZGnmwfsDQFKMT5xWyB0z7X_tiSRJhnM1dupb_yUmSsSpDpcfGCsPWHCPvPKC-0JD0SiMNPyteCS_Pp0xgC2p0yRDE3-P9PYmBhB-2wpptM7xg4ySVcka4o81OVTucVi8lia5PP8THGUuaAQiQv-4f4NwtaB5KY_cimWZEFjo2GDPq60n7FHI6IMIQ4neP1d1AKOrXvBZs0vh5xR2xRRkBp2MtgvXAcThuJy1SMU6A3Ik1R4AdSb9Wn5CA1H6tgsvxx2MMVT8DaE3AdRlJ8EYaGVAl4MumGFflozHhtDpphTgRfrdvLi26bUfIMelTS2emJVTmVtrc5sROEMWJtpUC5Uy3dGDUrRwBdFgdKhZdTfqGQ6KXkvn6SY6SYs3vhmygTg3clF4lBXy5sa3XGYvqsXIyCq6UMtbAduOr0xm4-bmL7qQxbIF_VT9Ze3nw5T_JUlHRwiXiynZDOXDPgBT3JqLhUp_wurwVzTHlcswLXgzeiHdQD4dI8VTbhgvS4ETdnIdfxZ_0000]--></g></svg>