<?xml version="1.0" encoding="us-ascii" standalone="no"?><svg xmlns="http://www.w3.org/2000/svg" xmlns:xlink="http://www.w3.org/1999/xlink" contentStyleType="text/css" height="1770px" preserveAspectRatio="none" style="width:1166px;height:1770px;background:#FFFFFF;" version="1.1" viewBox="0 0 1166 1770" width="1166px" zoomAndPan="magnify"><defs/><g><text fill="#303030" font-family="Arial" font-size="16" font-weight="bold" lengthAdjust="spacing" textLength="293" x="432.5" y="38.0078">Results Viewing and Comparison Flow</text><rect fill="#F8F8F8" height="218.9941" style="stroke:#000000;stroke-width:1.0;" width="10" x="261.5" y="198.2959"/><rect fill="#F8F8F8" height="363.3906" style="stroke:#000000;stroke-width:1.0;" width="10" x="261.5" y="461.0889"/><rect fill="#F8F8F8" height="377.1895" style="stroke:#000000;stroke-width:1.0;" width="10" x="261.5" y="868.2783"/><rect fill="#F8F8F8" height="131.3965" style="stroke:#000000;stroke-width:1.0;" width="10" x="614.5" y="242.0947"/><rect fill="#F8F8F8" height="218.9941" style="stroke:#000000;stroke-width:1.0;" width="10" x="614.5" y="504.8877"/><rect fill="#F8F8F8" height="218.9941" style="stroke:#000000;stroke-width:1.0;" width="10" x="614.5" y="925.876"/><line style="stroke:#000000;stroke-width:0.5;stroke-dasharray:5.0,5.0;" x1="31" x2="31" y1="152.4971" y2="1263.4678"/><line style="stroke:#000000;stroke-width:0.5;stroke-dasharray:5.0,5.0;" x1="266" x2="266" y1="152.4971" y2="1263.4678"/><line style="stroke:#000000;stroke-width:0.5;stroke-dasharray:5.0,5.0;" x1="619" x2="619" y1="152.4971" y2="1263.4678"/><line style="stroke:#000000;stroke-width:0.5;stroke-dasharray:5.0,5.0;" x1="820" x2="820" y1="152.4971" y2="1263.4678"/><line style="stroke:#000000;stroke-width:0.5;stroke-dasharray:5.0,5.0;" x1="960" x2="960" y1="152.4971" y2="1263.4678"/><line style="stroke:#000000;stroke-width:0.5;stroke-dasharray:5.0,5.0;" x1="1094" x2="1094" y1="152.4971" y2="1263.4678"/><text fill="#000000" font-family="Arial" font-size="14" font-weight="bold" lengthAdjust="spacing" textLength="31" x="13" y="141.5303">User</text><ellipse cx="31.5" cy="68.8984" fill="#FFFFFF" rx="8" ry="8" style="stroke:#454545;stroke-width:0.5;"/><path d="M31.5,76.8984 L31.5,103.8984 M18.5,84.8984 L44.5,84.8984 M31.5,103.8984 L18.5,118.8984 M31.5,103.8984 L44.5,118.8984 " fill="none" style="stroke:#454545;stroke-width:0.5;"/><text fill="#000000" font-family="Arial" font-size="14" font-weight="bold" lengthAdjust="spacing" textLength="31" x="13" y="1283.5996">User</text><ellipse cx="31.5" cy="1303.0664" fill="#FFFFFF" rx="8" ry="8" style="stroke:#454545;stroke-width:0.5;"/><path d="M31.5,1311.0664 L31.5,1338.0664 M18.5,1319.0664 L44.5,1319.0664 M31.5,1338.0664 L18.5,1353.0664 M31.5,1338.0664 L44.5,1353.0664 " fill="none" style="stroke:#454545;stroke-width:0.5;"/><rect fill="#E9F7EF" height="56.4478" rx="4" ry="4" style="stroke:#27AE60;stroke-width:2.0;" width="121" x="206" y="95.0493"/><text fill="#000000" font-family="Arial" font-size="10" font-weight="bold" lengthAdjust="spacing" textLength="55" x="239" y="119.4292">&#171;Frontend&#187;</text><text fill="#000000" font-family="Arial" font-size="13" font-weight="bold" lengthAdjust="spacing" textLength="91" x="221" y="133.7422">Atlas Frontend</text><rect fill="#E9F7EF" height="56.4478" rx="4" ry="4" style="stroke:#27AE60;stroke-width:2.0;" width="121" x="206" y="1262.4678"/><text fill="#000000" font-family="Arial" font-size="10" font-weight="bold" lengthAdjust="spacing" textLength="55" x="239" y="1286.8477">&#171;Frontend&#187;</text><text fill="#000000" font-family="Arial" font-size="13" font-weight="bold" lengthAdjust="spacing" textLength="91" x="221" y="1301.1606">Atlas Frontend</text><rect fill="#EBF5FB" height="56.4478" rx="4" ry="4" style="stroke:#3498DB;stroke-width:2.0;" width="87" x="576" y="95.0493"/><text fill="#000000" font-family="Arial" font-size="10" font-weight="bold" lengthAdjust="spacing" textLength="29" x="605" y="119.4292">&#171;API&#187;</text><text fill="#000000" font-family="Arial" font-size="13" font-weight="bold" lengthAdjust="spacing" textLength="57" x="591" y="133.7422">Atlas API</text><rect fill="#EBF5FB" height="56.4478" rx="4" ry="4" style="stroke:#3498DB;stroke-width:2.0;" width="87" x="576" y="1262.4678"/><text fill="#000000" font-family="Arial" font-size="10" font-weight="bold" lengthAdjust="spacing" textLength="29" x="605" y="1286.8477">&#171;API&#187;</text><text fill="#000000" font-family="Arial" font-size="13" font-weight="bold" lengthAdjust="spacing" textLength="57" x="591" y="1301.1606">Atlas API</text><rect fill="#F4ECF7" height="56.4478" rx="4" ry="4" style="stroke:#8E44AD;stroke-width:2.0;" width="91" x="775" y="95.0493"/><text fill="#000000" font-family="Arial" font-size="10" font-weight="bold" lengthAdjust="spacing" textLength="58" x="791.5" y="119.4292">&#171;Database&#187;</text><text fill="#000000" font-family="Arial" font-size="13" font-weight="bold" lengthAdjust="spacing" textLength="61" x="790" y="133.7422">MongoDB</text><rect fill="#F4ECF7" height="56.4478" rx="4" ry="4" style="stroke:#8E44AD;stroke-width:2.0;" width="91" x="775" y="1262.4678"/><text fill="#000000" font-family="Arial" font-size="10" font-weight="bold" lengthAdjust="spacing" textLength="58" x="791.5" y="1286.8477">&#171;Database&#187;</text><text fill="#000000" font-family="Arial" font-size="13" font-weight="bold" lengthAdjust="spacing" textLength="61" x="790" y="1301.1606">MongoDB</text><rect fill="#F4ECF7" height="56.4478" rx="4" ry="4" style="stroke:#8E44AD;stroke-width:2.0;" width="88" x="916" y="95.0493"/><text fill="#000000" font-family="Arial" font-size="10" font-weight="bold" lengthAdjust="spacing" textLength="58" x="931" y="119.4292">&#171;Database&#187;</text><text fill="#000000" font-family="Arial" font-size="13" font-weight="bold" lengthAdjust="spacing" textLength="52" x="934" y="133.7422">MariaDB</text><rect fill="#F4ECF7" height="56.4478" rx="4" ry="4" style="stroke:#8E44AD;stroke-width:2.0;" width="88" x="916" y="1262.4678"/><text fill="#000000" font-family="Arial" font-size="10" font-weight="bold" lengthAdjust="spacing" textLength="58" x="931" y="1286.8477">&#171;Database&#187;</text><text fill="#000000" font-family="Arial" font-size="13" font-weight="bold" lengthAdjust="spacing" textLength="52" x="934" y="1301.1606">MariaDB</text><rect fill="#F5EEF8" height="56.4478" rx="4" ry="4" style="stroke:#76448A;stroke-width:2.0;" width="80" x="1054" y="95.0493"/><text fill="#000000" font-family="Arial" font-size="10" font-weight="bold" lengthAdjust="spacing" textLength="50" x="1069" y="119.4292">&#171;Storage&#187;</text><text fill="#000000" font-family="Arial" font-size="13" font-weight="bold" lengthAdjust="spacing" textLength="50" x="1069" y="133.7422">AWS S3</text><rect fill="#F5EEF8" height="56.4478" rx="4" ry="4" style="stroke:#76448A;stroke-width:2.0;" width="80" x="1054" y="1262.4678"/><text fill="#000000" font-family="Arial" font-size="10" font-weight="bold" lengthAdjust="spacing" textLength="50" x="1069" y="1286.8477">&#171;Storage&#187;</text><text fill="#000000" font-family="Arial" font-size="13" font-weight="bold" lengthAdjust="spacing" textLength="50" x="1069" y="1301.1606">AWS S3</text><rect fill="#F8F8F8" height="218.9941" style="stroke:#000000;stroke-width:1.0;" width="10" x="261.5" y="198.2959"/><rect fill="#F8F8F8" height="363.3906" style="stroke:#000000;stroke-width:1.0;" width="10" x="261.5" y="461.0889"/><rect fill="#F8F8F8" height="377.1895" style="stroke:#000000;stroke-width:1.0;" width="10" x="261.5" y="868.2783"/><rect fill="#F8F8F8" height="131.3965" style="stroke:#000000;stroke-width:1.0;" width="10" x="614.5" y="242.0947"/><rect fill="#F8F8F8" height="218.9941" style="stroke:#000000;stroke-width:1.0;" width="10" x="614.5" y="504.8877"/><rect fill="#F8F8F8" height="218.9941" style="stroke:#000000;stroke-width:1.0;" width="10" x="614.5" y="925.876"/><polygon fill="#000000" points="249.5,194.2959,259.5,198.2959,249.5,202.2959,253.5,198.2959" style="stroke:#000000;stroke-width:1.0;"/><line style="stroke:#000000;stroke-width:1.5;" x1="31.5" x2="255.5" y1="198.2959" y2="198.2959"/><text fill="#000000" font-family="Arial" font-size="12" lengthAdjust="spacing" textLength="49" x="82.5" y="185.7529">Navigate</text><text fill="#000000" font-family="Arial" font-size="12" lengthAdjust="spacing" textLength="3" x="131.5" y="185.7529">&#160;</text><text fill="#000000" font-family="Arial" font-size="12" lengthAdjust="spacing" textLength="10" x="134.5" y="185.7529">to</text><text fill="#000000" font-family="Arial" font-size="12" lengthAdjust="spacing" textLength="3" x="144.5" y="185.7529">&#160;</text><text fill="#000000" font-family="Arial" font-size="12" lengthAdjust="spacing" textLength="63" x="147.5" y="185.7529">evaluations</text><polygon fill="#000000" points="602.5,238.0947,612.5,242.0947,602.5,246.0947,606.5,242.0947" style="stroke:#000000;stroke-width:1.0;"/><line style="stroke:#000000;stroke-width:1.5;" x1="271.5" x2="608.5" y1="242.0947" y2="242.0947"/><text fill="#000000" font-family="Arial" font-size="12" lengthAdjust="spacing" textLength="24" x="378.5" y="229.5518">GET</text><text fill="#000000" font-family="Arial" font-size="12" lengthAdjust="spacing" textLength="3" x="402.5" y="229.5518">&#160;</text><text fill="#000000" font-family="Arial" font-size="12" lengthAdjust="spacing" textLength="102" x="405.5" y="229.5518">/api/v1/evaluations</text><polygon fill="#000000" points="808.5,281.8936,818.5,285.8936,808.5,289.8936,812.5,285.8936" style="stroke:#000000;stroke-width:1.0;"/><line style="stroke:#000000;stroke-width:1.5;" x1="624.5" x2="814.5" y1="285.8936" y2="285.8936"/><text fill="#000000" font-family="Arial" font-size="12" lengthAdjust="spacing" textLength="30" x="657" y="273.3506">Fetch</text><text fill="#000000" font-family="Arial" font-size="12" lengthAdjust="spacing" textLength="3" x="687" y="273.3506">&#160;</text><text fill="#000000" font-family="Arial" font-size="12" lengthAdjust="spacing" textLength="32" x="690" y="273.3506">user's</text><text fill="#000000" font-family="Arial" font-size="12" lengthAdjust="spacing" textLength="3" x="722" y="273.3506">&#160;</text><text fill="#000000" font-family="Arial" font-size="12" lengthAdjust="spacing" textLength="63" x="725" y="273.3506">evaluations</text><polygon fill="#000000" points="635.5,325.6924,625.5,329.6924,635.5,333.6924,631.5,329.6924" style="stroke:#000000;stroke-width:1.0;"/><line style="stroke:#000000;stroke-width:1.5;stroke-dasharray:2.0,2.0;" x1="629.5" x2="819.5" y1="329.6924" y2="329.6924"/><text fill="#000000" font-family="Arial" font-size="12" lengthAdjust="spacing" textLength="37" x="671" y="317.1494">Return</text><text fill="#000000" font-family="Arial" font-size="12" lengthAdjust="spacing" textLength="3" x="708" y="317.1494">&#160;</text><text fill="#000000" font-family="Arial" font-size="12" lengthAdjust="spacing" textLength="63" x="711" y="317.1494">evaluations</text><polygon fill="#000000" points="282.5,369.4912,272.5,373.4912,282.5,377.4912,278.5,373.4912" style="stroke:#000000;stroke-width:1.0;"/><line style="stroke:#000000;stroke-width:1.5;stroke-dasharray:2.0,2.0;" x1="276.5" x2="618.5" y1="373.4912" y2="373.4912"/><text fill="#000000" font-family="Arial" font-size="12" lengthAdjust="spacing" textLength="37" x="388" y="360.9482">Return</text><text fill="#000000" font-family="Arial" font-size="12" lengthAdjust="spacing" textLength="3" x="425" y="360.9482">&#160;</text><text fill="#000000" font-family="Arial" font-size="12" lengthAdjust="spacing" textLength="57" x="428" y="360.9482">evaluation</text><text fill="#000000" font-family="Arial" font-size="12" lengthAdjust="spacing" textLength="3" x="485" y="360.9482">&#160;</text><text fill="#000000" font-family="Arial" font-size="12" lengthAdjust="spacing" textLength="15" x="488" y="360.9482">list</text><polygon fill="#000000" points="42.5,413.29,32.5,417.29,42.5,421.29,38.5,417.29" style="stroke:#000000;stroke-width:1.0;"/><line style="stroke:#000000;stroke-width:1.5;stroke-dasharray:2.0,2.0;" x1="36.5" x2="265.5" y1="417.29" y2="417.29"/><text fill="#000000" font-family="Arial" font-size="12" lengthAdjust="spacing" textLength="41" x="95.5" y="404.7471">Display</text><text fill="#000000" font-family="Arial" font-size="12" lengthAdjust="spacing" textLength="3" x="136.5" y="404.7471">&#160;</text><text fill="#000000" font-family="Arial" font-size="12" lengthAdjust="spacing" textLength="63" x="139.5" y="404.7471">evaluations</text><polygon fill="#000000" points="249.5,457.0889,259.5,461.0889,249.5,465.0889,253.5,461.0889" style="stroke:#000000;stroke-width:1.0;"/><line style="stroke:#000000;stroke-width:1.5;" x1="31.5" x2="255.5" y1="461.0889" y2="461.0889"/><text fill="#000000" font-family="Arial" font-size="12" lengthAdjust="spacing" textLength="34" x="71.5" y="448.5459">Select</text><text fill="#000000" font-family="Arial" font-size="12" lengthAdjust="spacing" textLength="3" x="105.5" y="448.5459">&#160;</text><text fill="#000000" font-family="Arial" font-size="12" lengthAdjust="spacing" textLength="57" x="108.5" y="448.5459">evaluation</text><text fill="#000000" font-family="Arial" font-size="12" lengthAdjust="spacing" textLength="3" x="165.5" y="448.5459">&#160;</text><text fill="#000000" font-family="Arial" font-size="12" lengthAdjust="spacing" textLength="14" x="168.5" y="448.5459">for</text><text fill="#000000" font-family="Arial" font-size="12" lengthAdjust="spacing" textLength="3" x="182.5" y="448.5459">&#160;</text><text fill="#000000" font-family="Arial" font-size="12" lengthAdjust="spacing" textLength="36" x="185.5" y="448.5459">details</text><polygon fill="#000000" points="602.5,500.8877,612.5,504.8877,602.5,508.8877,606.5,504.8877" style="stroke:#000000;stroke-width:1.0;"/><line style="stroke:#000000;stroke-width:1.5;" x1="271.5" x2="608.5" y1="504.8877" y2="504.8877"/><text fill="#000000" font-family="Arial" font-size="12" lengthAdjust="spacing" textLength="24" x="368" y="492.3447">GET</text><text fill="#000000" font-family="Arial" font-size="12" lengthAdjust="spacing" textLength="3" x="392" y="492.3447">&#160;</text><text fill="#000000" font-family="Arial" font-size="12" lengthAdjust="spacing" textLength="123" x="395" y="492.3447">/api/v1/evaluations/{id}</text><polygon fill="#000000" points="808.5,544.6865,818.5,548.6865,808.5,552.6865,812.5,548.6865" style="stroke:#000000;stroke-width:1.0;"/><line style="stroke:#000000;stroke-width:1.5;" x1="624.5" x2="814.5" y1="548.6865" y2="548.6865"/><text fill="#000000" font-family="Arial" font-size="12" lengthAdjust="spacing" textLength="30" x="650.5" y="536.1436">Fetch</text><text fill="#000000" font-family="Arial" font-size="12" lengthAdjust="spacing" textLength="3" x="680.5" y="536.1436">&#160;</text><text fill="#000000" font-family="Arial" font-size="12" lengthAdjust="spacing" textLength="57" x="683.5" y="536.1436">evaluation</text><text fill="#000000" font-family="Arial" font-size="12" lengthAdjust="spacing" textLength="3" x="740.5" y="536.1436">&#160;</text><text fill="#000000" font-family="Arial" font-size="12" lengthAdjust="spacing" textLength="51" x="743.5" y="536.1436">metadata</text><polygon fill="#000000" points="635.5,588.4854,625.5,592.4854,635.5,596.4854,631.5,592.4854" style="stroke:#000000;stroke-width:1.0;"/><line style="stroke:#000000;stroke-width:1.5;stroke-dasharray:2.0,2.0;" x1="629.5" x2="819.5" y1="592.4854" y2="592.4854"/><text fill="#000000" font-family="Arial" font-size="12" lengthAdjust="spacing" textLength="37" x="677" y="579.9424">Return</text><text fill="#000000" font-family="Arial" font-size="12" lengthAdjust="spacing" textLength="3" x="714" y="579.9424">&#160;</text><text fill="#000000" font-family="Arial" font-size="12" lengthAdjust="spacing" textLength="51" x="717" y="579.9424">metadata</text><polygon fill="#000000" points="1082,632.2842,1092,636.2842,1082,640.2842,1086,636.2842" style="stroke:#000000;stroke-width:1.0;"/><line style="stroke:#000000;stroke-width:1.5;" x1="624.5" x2="1088" y1="636.2842" y2="636.2842"/><text fill="#000000" font-family="Arial" font-size="12" lengthAdjust="spacing" textLength="30" x="801.25" y="623.7412">Fetch</text><text fill="#000000" font-family="Arial" font-size="12" lengthAdjust="spacing" textLength="3" x="831.25" y="623.7412">&#160;</text><text fill="#000000" font-family="Arial" font-size="12" lengthAdjust="spacing" textLength="44" x="834.25" y="623.7412">detailed</text><text fill="#000000" font-family="Arial" font-size="12" lengthAdjust="spacing" textLength="3" x="878.25" y="623.7412">&#160;</text><text fill="#000000" font-family="Arial" font-size="12" lengthAdjust="spacing" textLength="36" x="881.25" y="623.7412">results</text><polygon fill="#000000" points="635.5,676.083,625.5,680.083,635.5,684.083,631.5,680.083" style="stroke:#000000;stroke-width:1.0;"/><line style="stroke:#000000;stroke-width:1.5;stroke-dasharray:2.0,2.0;" x1="629.5" x2="1093" y1="680.083" y2="680.083"/><text fill="#000000" font-family="Arial" font-size="12" lengthAdjust="spacing" textLength="37" x="810.75" y="667.54">Return</text><text fill="#000000" font-family="Arial" font-size="12" lengthAdjust="spacing" textLength="3" x="847.75" y="667.54">&#160;</text><text fill="#000000" font-family="Arial" font-size="12" lengthAdjust="spacing" textLength="30" x="850.75" y="667.54">result</text><text fill="#000000" font-family="Arial" font-size="12" lengthAdjust="spacing" textLength="3" x="880.75" y="667.54">&#160;</text><text fill="#000000" font-family="Arial" font-size="12" lengthAdjust="spacing" textLength="24" x="883.75" y="667.54">data</text><polygon fill="#000000" points="282.5,719.8818,272.5,723.8818,282.5,727.8818,278.5,723.8818" style="stroke:#000000;stroke-width:1.0;"/><line style="stroke:#000000;stroke-width:1.5;stroke-dasharray:2.0,2.0;" x1="276.5" x2="618.5" y1="723.8818" y2="723.8818"/><text fill="#000000" font-family="Arial" font-size="12" lengthAdjust="spacing" textLength="37" x="385" y="711.3389">Return</text><text fill="#000000" font-family="Arial" font-size="12" lengthAdjust="spacing" textLength="3" x="422" y="711.3389">&#160;</text><text fill="#000000" font-family="Arial" font-size="12" lengthAdjust="spacing" textLength="54" x="425" y="711.3389">combined</text><text fill="#000000" font-family="Arial" font-size="12" lengthAdjust="spacing" textLength="3" x="479" y="711.3389">&#160;</text><text fill="#000000" font-family="Arial" font-size="12" lengthAdjust="spacing" textLength="24" x="482" y="711.3389">data</text><line style="stroke:#000000;stroke-width:1.5;" x1="271.5" x2="313.5" y1="767.6807" y2="767.6807"/><line style="stroke:#000000;stroke-width:1.5;" x1="313.5" x2="313.5" y1="767.6807" y2="780.6807"/><line style="stroke:#000000;stroke-width:1.5;" x1="272.5" x2="313.5" y1="780.6807" y2="780.6807"/><polygon fill="#000000" points="282.5,776.6807,272.5,780.6807,282.5,784.6807,278.5,780.6807" style="stroke:#000000;stroke-width:1.0;"/><text fill="#000000" font-family="Arial" font-size="12" lengthAdjust="spacing" textLength="44" x="286.5" y="755.1377">Process</text><text fill="#000000" font-family="Arial" font-size="12" lengthAdjust="spacing" textLength="3" x="330.5" y="755.1377">&#160;</text><text fill="#000000" font-family="Arial" font-size="12" lengthAdjust="spacing" textLength="21" x="333.5" y="755.1377">and</text><text fill="#000000" font-family="Arial" font-size="12" lengthAdjust="spacing" textLength="3" x="354.5" y="755.1377">&#160;</text><text fill="#000000" font-family="Arial" font-size="12" lengthAdjust="spacing" textLength="48" x="357.5" y="755.1377">visualize</text><text fill="#000000" font-family="Arial" font-size="12" lengthAdjust="spacing" textLength="3" x="405.5" y="755.1377">&#160;</text><text fill="#000000" font-family="Arial" font-size="12" lengthAdjust="spacing" textLength="36" x="408.5" y="755.1377">results</text><polygon fill="#000000" points="42.5,820.4795,32.5,824.4795,42.5,828.4795,38.5,824.4795" style="stroke:#000000;stroke-width:1.0;"/><line style="stroke:#000000;stroke-width:1.5;stroke-dasharray:2.0,2.0;" x1="36.5" x2="265.5" y1="824.4795" y2="824.4795"/><text fill="#000000" font-family="Arial" font-size="12" lengthAdjust="spacing" textLength="41" x="54" y="811.9365">Display</text><text fill="#000000" font-family="Arial" font-size="12" lengthAdjust="spacing" textLength="3" x="95" y="811.9365">&#160;</text><text fill="#000000" font-family="Arial" font-size="12" lengthAdjust="spacing" textLength="44" x="98" y="811.9365">detailed</text><text fill="#000000" font-family="Arial" font-size="12" lengthAdjust="spacing" textLength="3" x="142" y="811.9365">&#160;</text><text fill="#000000" font-family="Arial" font-size="12" lengthAdjust="spacing" textLength="39" x="145" y="811.9365">metrics</text><text fill="#000000" font-family="Arial" font-size="12" lengthAdjust="spacing" textLength="3" x="184" y="811.9365">&#160;</text><text fill="#000000" font-family="Arial" font-size="12" lengthAdjust="spacing" textLength="21" x="187" y="811.9365">and</text><text fill="#000000" font-family="Arial" font-size="12" lengthAdjust="spacing" textLength="3" x="208" y="811.9365">&#160;</text><text fill="#000000" font-family="Arial" font-size="12" lengthAdjust="spacing" textLength="33" x="211" y="811.9365">charts</text><polygon fill="#000000" points="249.5,864.2783,259.5,868.2783,249.5,872.2783,253.5,868.2783" style="stroke:#000000;stroke-width:1.0;"/><line style="stroke:#000000;stroke-width:1.5;" x1="31.5" x2="255.5" y1="868.2783" y2="868.2783"/><text fill="#000000" font-family="Arial" font-size="12" lengthAdjust="spacing" textLength="46" x="71.5" y="855.7354">Request</text><text fill="#000000" font-family="Arial" font-size="12" lengthAdjust="spacing" textLength="3" x="117.5" y="855.7354">&#160;</text><text fill="#000000" font-family="Arial" font-size="12" lengthAdjust="spacing" textLength="34" x="120.5" y="855.7354">model</text><text fill="#000000" font-family="Arial" font-size="12" lengthAdjust="spacing" textLength="3" x="154.5" y="855.7354">&#160;</text><text fill="#000000" font-family="Arial" font-size="12" lengthAdjust="spacing" textLength="64" x="157.5" y="855.7354">comparison</text><polygon fill="#000000" points="602.5,921.876,612.5,925.876,602.5,929.876,606.5,925.876" style="stroke:#000000;stroke-width:1.0;"/><line style="stroke:#000000;stroke-width:1.5;" x1="271.5" x2="608.5" y1="925.876" y2="925.876"/><text fill="#000000" font-family="Arial" font-size="12" lengthAdjust="spacing" textLength="24" x="431" y="899.5342">GET</text><text fill="#000000" font-family="Arial" font-size="12" lengthAdjust="spacing" textLength="308" x="289" y="913.333">/api/v1/models/compare?ids=model1,model2&amp;dataset=X</text><polygon fill="#000000" points="948,965.6748,958,969.6748,948,973.6748,952,969.6748" style="stroke:#000000;stroke-width:1.0;"/><line style="stroke:#000000;stroke-width:1.5;" x1="624.5" x2="954" y1="969.6748" y2="969.6748"/><text fill="#000000" font-family="Arial" font-size="12" lengthAdjust="spacing" textLength="30" x="726.75" y="957.1318">Fetch</text><text fill="#000000" font-family="Arial" font-size="12" lengthAdjust="spacing" textLength="3" x="756.75" y="957.1318">&#160;</text><text fill="#000000" font-family="Arial" font-size="12" lengthAdjust="spacing" textLength="56" x="759.75" y="957.1318">aggregate</text><text fill="#000000" font-family="Arial" font-size="12" lengthAdjust="spacing" textLength="3" x="815.75" y="957.1318">&#160;</text><text fill="#000000" font-family="Arial" font-size="12" lengthAdjust="spacing" textLength="39" x="818.75" y="957.1318">metrics</text><polygon fill="#000000" points="635.5,1009.4736,625.5,1013.4736,635.5,1017.4736,631.5,1013.4736" style="stroke:#000000;stroke-width:1.0;"/><line style="stroke:#000000;stroke-width:1.5;stroke-dasharray:2.0,2.0;" x1="629.5" x2="959" y1="1013.4736" y2="1013.4736"/><text fill="#000000" font-family="Arial" font-size="12" lengthAdjust="spacing" textLength="37" x="752.75" y="1000.9307">Return</text><text fill="#000000" font-family="Arial" font-size="12" lengthAdjust="spacing" textLength="3" x="789.75" y="1000.9307">&#160;</text><text fill="#000000" font-family="Arial" font-size="12" lengthAdjust="spacing" textLength="39" x="792.75" y="1000.9307">metrics</text><polygon fill="#000000" points="808.5,1053.2725,818.5,1057.2725,808.5,1061.2725,812.5,1057.2725" style="stroke:#000000;stroke-width:1.0;"/><line style="stroke:#000000;stroke-width:1.5;" x1="624.5" x2="814.5" y1="1057.2725" y2="1057.2725"/><text fill="#000000" font-family="Arial" font-size="12" lengthAdjust="spacing" textLength="30" x="644.5" y="1044.7295">Fetch</text><text fill="#000000" font-family="Arial" font-size="12" lengthAdjust="spacing" textLength="3" x="674.5" y="1044.7295">&#160;</text><text fill="#000000" font-family="Arial" font-size="12" lengthAdjust="spacing" textLength="63" x="677.5" y="1044.7295">evaluations</text><text fill="#000000" font-family="Arial" font-size="12" lengthAdjust="spacing" textLength="3" x="740.5" y="1044.7295">&#160;</text><text fill="#000000" font-family="Arial" font-size="12" lengthAdjust="spacing" textLength="14" x="743.5" y="1044.7295">for</text><text fill="#000000" font-family="Arial" font-size="12" lengthAdjust="spacing" textLength="3" x="757.5" y="1044.7295">&#160;</text><text fill="#000000" font-family="Arial" font-size="12" lengthAdjust="spacing" textLength="40" x="760.5" y="1044.7295">models</text><polygon fill="#000000" points="635.5,1097.0713,625.5,1101.0713,635.5,1105.0713,631.5,1101.0713" style="stroke:#000000;stroke-width:1.0;"/><line style="stroke:#000000;stroke-width:1.5;stroke-dasharray:2.0,2.0;" x1="629.5" x2="819.5" y1="1101.0713" y2="1101.0713"/><text fill="#000000" font-family="Arial" font-size="12" lengthAdjust="spacing" textLength="37" x="671" y="1088.5283">Return</text><text fill="#000000" font-family="Arial" font-size="12" lengthAdjust="spacing" textLength="3" x="708" y="1088.5283">&#160;</text><text fill="#000000" font-family="Arial" font-size="12" lengthAdjust="spacing" textLength="63" x="711" y="1088.5283">evaluations</text><polygon fill="#000000" points="282.5,1140.8701,272.5,1144.8701,282.5,1148.8701,278.5,1144.8701" style="stroke:#000000;stroke-width:1.0;"/><line style="stroke:#000000;stroke-width:1.5;stroke-dasharray:2.0,2.0;" x1="276.5" x2="618.5" y1="1144.8701" y2="1144.8701"/><text fill="#000000" font-family="Arial" font-size="12" lengthAdjust="spacing" textLength="37" x="380" y="1132.3271">Return</text><text fill="#000000" font-family="Arial" font-size="12" lengthAdjust="spacing" textLength="3" x="417" y="1132.3271">&#160;</text><text fill="#000000" font-family="Arial" font-size="12" lengthAdjust="spacing" textLength="64" x="420" y="1132.3271">comparison</text><text fill="#000000" font-family="Arial" font-size="12" lengthAdjust="spacing" textLength="3" x="484" y="1132.3271">&#160;</text><text fill="#000000" font-family="Arial" font-size="12" lengthAdjust="spacing" textLength="24" x="487" y="1132.3271">data</text><line style="stroke:#000000;stroke-width:1.5;" x1="271.5" x2="313.5" y1="1188.6689" y2="1188.6689"/><line style="stroke:#000000;stroke-width:1.5;" x1="313.5" x2="313.5" y1="1188.6689" y2="1201.6689"/><line style="stroke:#000000;stroke-width:1.5;" x1="272.5" x2="313.5" y1="1201.6689" y2="1201.6689"/><polygon fill="#000000" points="282.5,1197.6689,272.5,1201.6689,282.5,1205.6689,278.5,1201.6689" style="stroke:#000000;stroke-width:1.0;"/><text fill="#000000" font-family="Arial" font-size="12" lengthAdjust="spacing" textLength="51" x="286.5" y="1176.126">Generate</text><text fill="#000000" font-family="Arial" font-size="12" lengthAdjust="spacing" textLength="3" x="337.5" y="1176.126">&#160;</text><text fill="#000000" font-family="Arial" font-size="12" lengthAdjust="spacing" textLength="64" x="340.5" y="1176.126">comparison</text><text fill="#000000" font-family="Arial" font-size="12" lengthAdjust="spacing" textLength="3" x="404.5" y="1176.126">&#160;</text><text fill="#000000" font-family="Arial" font-size="12" lengthAdjust="spacing" textLength="74" x="407.5" y="1176.126">visualizations</text><polygon fill="#000000" points="42.5,1241.4678,32.5,1245.4678,42.5,1249.4678,38.5,1245.4678" style="stroke:#000000;stroke-width:1.0;"/><line style="stroke:#000000;stroke-width:1.5;stroke-dasharray:2.0,2.0;" x1="36.5" x2="265.5" y1="1245.4678" y2="1245.4678"/><text fill="#000000" font-family="Arial" font-size="12" lengthAdjust="spacing" textLength="41" x="76.5" y="1232.9248">Display</text><text fill="#000000" font-family="Arial" font-size="12" lengthAdjust="spacing" textLength="3" x="117.5" y="1232.9248">&#160;</text><text fill="#000000" font-family="Arial" font-size="12" lengthAdjust="spacing" textLength="34" x="120.5" y="1232.9248">model</text><text fill="#000000" font-family="Arial" font-size="12" lengthAdjust="spacing" textLength="3" x="154.5" y="1232.9248">&#160;</text><text fill="#000000" font-family="Arial" font-size="12" lengthAdjust="spacing" textLength="64" x="157.5" y="1232.9248">comparison</text><rect fill="none" height="383.085" id="_legend" rx="4" ry="4" style="stroke:#000000;stroke-width:1.0;" width="355" x="791" y="1367.5664"/><text fill="#000000" font-family="Arial" font-size="14" font-weight="bold" lengthAdjust="spacing" textLength="78" x="816" y="1403.6982">Entity Type</text><text fill="#000000" font-family="Arial" font-size="14" font-weight="bold" lengthAdjust="spacing" textLength="79" x="918" y="1403.6982">Description</text><rect fill="#E9F7EF" height="32.0986" style="stroke:none;stroke-width:1.0;" width="102" x="804" y="1414.665"/><text fill="#000000" font-family="Arial" font-size="14" lengthAdjust="spacing" textLength="4" x="812" y="1435.7969">&#160;</text><text fill="#000000" font-family="Arial" font-size="14" lengthAdjust="spacing" textLength="203" x="918" y="1435.7969">Frontend - Web/UI Components</text><rect fill="#EBF5FB" height="32.0986" style="stroke:none;stroke-width:1.0;" width="102" x="804" y="1446.7637"/><text fill="#000000" font-family="Arial" font-size="14" lengthAdjust="spacing" textLength="4" x="812" y="1467.8955">&#160;</text><text fill="#000000" font-family="Arial" font-size="14" lengthAdjust="spacing" textLength="148" x="918" y="1467.8955">API - Backend Services</text><rect fill="#F9EBEA" height="32.0986" style="stroke:none;stroke-width:1.0;" width="102" x="804" y="1478.8623"/><text fill="#000000" font-family="Arial" font-size="14" lengthAdjust="spacing" textLength="4" x="812" y="1499.9941">&#160;</text><text fill="#000000" font-family="Arial" font-size="14" lengthAdjust="spacing" textLength="190" x="918" y="1499.9941">Auth - Authentication Services</text><rect fill="#F4ECF7" height="32.0986" style="stroke:none;stroke-width:1.0;" width="102" x="804" y="1510.9609"/><text fill="#000000" font-family="Arial" font-size="14" lengthAdjust="spacing" textLength="4" x="812" y="1532.0928">&#160;</text><text fill="#000000" font-family="Arial" font-size="14" lengthAdjust="spacing" textLength="158" x="918" y="1532.0928">Database - Data Storage</text><rect fill="#FEF9E7" height="32.0986" style="stroke:none;stroke-width:1.0;" width="102" x="804" y="1543.0596"/><text fill="#000000" font-family="Arial" font-size="14" lengthAdjust="spacing" textLength="4" x="812" y="1564.1914">&#160;</text><text fill="#000000" font-family="Arial" font-size="14" lengthAdjust="spacing" textLength="181" x="918" y="1564.1914">External - 3rd Party Services</text><rect fill="#FADBD8" height="32.0986" style="stroke:none;stroke-width:1.0;" width="102" x="804" y="1575.1582"/><text fill="#000000" font-family="Arial" font-size="14" lengthAdjust="spacing" textLength="4" x="812" y="1596.29">&#160;</text><text fill="#000000" font-family="Arial" font-size="14" lengthAdjust="spacing" textLength="170" x="918" y="1596.29">Contract - Smart Contracts</text><rect fill="#FCF3CF" height="32.0986" style="stroke:none;stroke-width:1.0;" width="102" x="804" y="1607.2568"/><text fill="#000000" font-family="Arial" font-size="14" lengthAdjust="spacing" textLength="4" x="812" y="1628.3887">&#160;</text><text fill="#000000" font-family="Arial" font-size="14" lengthAdjust="spacing" textLength="168" x="918" y="1628.3887">Queue - Message Queues</text><rect fill="#D6EAF8" height="32.0986" style="stroke:none;stroke-width:1.0;" width="102" x="804" y="1639.3555"/><text fill="#000000" font-family="Arial" font-size="14" lengthAdjust="spacing" textLength="4" x="812" y="1660.4873">&#160;</text><text fill="#000000" font-family="Arial" font-size="14" lengthAdjust="spacing" textLength="171" x="918" y="1660.4873">Operator - Validator Nodes</text><rect fill="#D4EFDF" height="32.0986" style="stroke:none;stroke-width:1.0;" width="102" x="804" y="1671.4541"/><text fill="#000000" font-family="Arial" font-size="14" lengthAdjust="spacing" textLength="4" x="812" y="1692.5859">&#160;</text><text fill="#000000" font-family="Arial" font-size="14" lengthAdjust="spacing" textLength="197" x="918" y="1692.5859">Evaluator - Evaluation Services</text><rect fill="#F5EEF8" height="32.0986" style="stroke:none;stroke-width:1.0;" width="102" x="804" y="1703.5527"/><text fill="#000000" font-family="Arial" font-size="14" lengthAdjust="spacing" textLength="4" x="812" y="1724.6846">&#160;</text><text fill="#000000" font-family="Arial" font-size="14" lengthAdjust="spacing" textLength="171" x="918" y="1724.6846">Storage - Storage Services</text><line style="stroke:#000000;stroke-width:1.0;" x1="804" x2="1133" y1="1382.5664" y2="1382.5664"/><line style="stroke:#000000;stroke-width:1.0;" x1="804" x2="1133" y1="1414.665" y2="1414.665"/><line style="stroke:#000000;stroke-width:1.0;" x1="804" x2="1133" y1="1446.7637" y2="1446.7637"/><line style="stroke:#000000;stroke-width:1.0;" x1="804" x2="1133" y1="1478.8623" y2="1478.8623"/><line style="stroke:#000000;stroke-width:1.0;" x1="804" x2="1133" y1="1510.9609" y2="1510.9609"/><line style="stroke:#000000;stroke-width:1.0;" x1="804" x2="1133" y1="1543.0596" y2="1543.0596"/><line style="stroke:#000000;stroke-width:1.0;" x1="804" x2="1133" y1="1575.1582" y2="1575.1582"/><line style="stroke:#000000;stroke-width:1.0;" x1="804" x2="1133" y1="1607.2568" y2="1607.2568"/><line style="stroke:#000000;stroke-width:1.0;" x1="804" x2="1133" y1="1639.3555" y2="1639.3555"/><line style="stroke:#000000;stroke-width:1.0;" x1="804" x2="1133" y1="1671.4541" y2="1671.4541"/><line style="stroke:#000000;stroke-width:1.0;" x1="804" x2="1133" y1="1703.5527" y2="1703.5527"/><line style="stroke:#000000;stroke-width:1.0;" x1="804" x2="1133" y1="1735.6514" y2="1735.6514"/><line style="stroke:#000000;stroke-width:1.0;" x1="804" x2="804" y1="1382.5664" y2="1735.6514"/><line style="stroke:#000000;stroke-width:1.0;" x1="906" x2="906" y1="1382.5664" y2="1735.6514"/><line style="stroke:#000000;stroke-width:1.0;" x1="1133" x2="1133" y1="1382.5664" y2="1735.6514"/><!--SRC=[fLHDKzim4BthLsmvb4iX3Kml6Q0JIc5we9E9wSTLI8kpWoovaXmAdVxthkmuSOX9OJWabgttLc_txUeDMMKgZQ1SKJYx5-AzmVsoAemGkt0foKR-GN05GYXHqGqfK5M8hg076SdP03VEGvnH04qozx8GuPPiANa5XYp6-nB1-JXpdOs9z94KbTB6YTIQR0u7xplx6Vwgq2eyTR_R_M5tV-ozkxkQaRgr608Czpy84IaQX2c6oiG0tmdl4arQ3PzSmJGApiAvSNT2I1LPzBU0NfGh9R0pZaO6EFVEHhHw1pelS7JKBazE-bZZoPUQm4_6ylzZsAMpkJixhK6BDGFFP9JNCk06cWNB5jsijw37FpB83cjmTiYuZFEJUO89aTA4lPDb9YFuAkUKouWG7U1ScgfnCfM5vkbx2nNBx9dFAOtWulCL36H9W_bmq4jbb4WbOC8YoH6SOrGpg5Z7RbWxi2t3NXj-Yh7oTWrJ1rkJlm7YFWjHQ5mJiPBEv5I34PnHA8syNmlVOIspxYbPXWPLx9wPsbuZZuTvJU46VqZ_VKxrEYSNVAhcHdYoV4l08bHss4Pf1AC6tuo9u6vvp6wsO1MWh_XyNrppSEi6zcJfkyo9ToeDQvh8EOLA6dh0fP0jTYr5SrwUL1D1pRZ_dstVDDqd8KBXD9eaVd4VlDIvcXy6JG3yI3eSrv-6x-h7mTjKZe3n-6U_fyqWjsx8FFTO3-8YCz5EUe-ZzVx_UgEvZHkLhvkkLOrUOF45MlG9qc6tLYyEtEBpXZazvlu3]--></g></svg>