<?xml version="1.0" encoding="us-ascii" standalone="no"?><svg xmlns="http://www.w3.org/2000/svg" xmlns:xlink="http://www.w3.org/1999/xlink" contentStyleType="text/css" height="1193px" preserveAspectRatio="none" style="width:1190px;height:1193px;background:#FFFFFF;" version="1.1" viewBox="0 0 1190 1193" width="1190px" zoomAndPan="magnify"><defs/><g><text fill="#000000" font-family="Arial" font-size="14" font-weight="bold" lengthAdjust="spacing" textLength="264" x="472" y="28.1318">Results Viewing and Comparison Flow</text><rect fill="#FFFFFF" height="144.7437" style="stroke:#181818;stroke-width:1.0;" width="10" x="270" y="184.0947"/><rect fill="#FFFFFF" height="244.5898" style="stroke:#181818;stroke-width:1.0;" width="10" x="270" y="357.7871"/><rect fill="#FFFFFF" height="244.5898" style="stroke:#181818;stroke-width:1.0;" width="10" x="270" y="631.3257"/><rect fill="#FFFFFF" height="86.8462" style="stroke:#181818;stroke-width:1.0;" width="10" x="658" y="213.0435"/><rect fill="#FFFFFF" height="144.7437" style="stroke:#181818;stroke-width:1.0;" width="10" x="658" y="386.7358"/><rect fill="#FFFFFF" height="144.7437" style="stroke:#181818;stroke-width:1.0;" width="10" x="658" y="660.2744"/><line style="stroke:#181818;stroke-width:0.5;stroke-dasharray:5.0,5.0;" x1="42" x2="42" y1="118.1973" y2="893.9155"/><line style="stroke:#181818;stroke-width:0.5;stroke-dasharray:5.0,5.0;" x1="275" x2="275" y1="118.1973" y2="893.9155"/><line style="stroke:#181818;stroke-width:0.5;stroke-dasharray:5.0,5.0;" x1="663" x2="663" y1="118.1973" y2="893.9155"/><line style="stroke:#181818;stroke-width:0.5;stroke-dasharray:5.0,5.0;" x1="860" x2="860" y1="118.1973" y2="893.9155"/><line style="stroke:#181818;stroke-width:0.5;stroke-dasharray:5.0,5.0;" x1="1004" x2="1004" y1="118.1973" y2="893.9155"/><line style="stroke:#181818;stroke-width:0.5;stroke-dasharray:5.0,5.0;" x1="1142" x2="1142" y1="118.1973" y2="893.9155"/><text fill="#000000" font-family="Arial" font-size="14" lengthAdjust="spacing" textLength="30" x="24" y="115.2305">User</text><ellipse cx="42" cy="50.5986" fill="#E2E2F0" rx="8" ry="8" style="stroke:#181818;stroke-width:0.5;"/><path d="M42,58.5986 L42,85.5986 M29,66.5986 L55,66.5986 M42,85.5986 L29,100.5986 M42,85.5986 L55,100.5986 " fill="none" style="stroke:#181818;stroke-width:0.5;"/><text fill="#000000" font-family="Arial" font-size="14" lengthAdjust="spacing" textLength="30" x="24" y="906.0474">User</text><ellipse cx="42" cy="917.5142" fill="#E2E2F0" rx="8" ry="8" style="stroke:#181818;stroke-width:0.5;"/><path d="M42,925.5142 L42,952.5142 M29,933.5142 L55,933.5142 M42,952.5142 L29,967.5142 M42,952.5142 L55,967.5142 " fill="none" style="stroke:#181818;stroke-width:0.5;"/><rect fill="#E9F7EF" height="46.1973" rx="2.5" ry="2.5" style="stroke:#27AE60;stroke-width:2.0;" width="116" x="217" y="71"/><text fill="#000000" font-family="Arial" font-size="14" font-weight="bold" lengthAdjust="spacing" textLength="79" x="235.5" y="91.1318">&#171;Frontend&#187;</text><text fill="#000000" font-family="Arial" font-size="14" font-weight="bold" lengthAdjust="spacing" textLength="102" x="224" y="107.2305">Atlas Frontend</text><rect fill="#E9F7EF" height="46.1973" rx="2.5" ry="2.5" style="stroke:#27AE60;stroke-width:2.0;" width="116" x="217" y="892.9155"/><text fill="#000000" font-family="Arial" font-size="14" font-weight="bold" lengthAdjust="spacing" textLength="79" x="235.5" y="913.0474">&#171;Frontend&#187;</text><text fill="#000000" font-family="Arial" font-size="14" font-weight="bold" lengthAdjust="spacing" textLength="102" x="224" y="929.146">Atlas Frontend</text><rect fill="#EBF5FB" height="46.1973" rx="2.5" ry="2.5" style="stroke:#3498DB;stroke-width:2.0;" width="76" x="625" y="71"/><text fill="#000000" font-family="Arial" font-size="14" font-weight="bold" lengthAdjust="spacing" textLength="39" x="643.5" y="91.1318">&#171;API&#187;</text><text fill="#000000" font-family="Arial" font-size="14" font-weight="bold" lengthAdjust="spacing" textLength="62" x="632" y="107.2305">Atlas API</text><rect fill="#EBF5FB" height="46.1973" rx="2.5" ry="2.5" style="stroke:#3498DB;stroke-width:2.0;" width="76" x="625" y="892.9155"/><text fill="#000000" font-family="Arial" font-size="14" font-weight="bold" lengthAdjust="spacing" textLength="39" x="643.5" y="913.0474">&#171;API&#187;</text><text fill="#000000" font-family="Arial" font-size="14" font-weight="bold" lengthAdjust="spacing" textLength="62" x="632" y="929.146">Atlas API</text><rect fill="#F4ECF7" height="46.1973" rx="2.5" ry="2.5" style="stroke:#8E44AD;stroke-width:2.0;" width="94" x="813" y="71"/><text fill="#000000" font-family="Arial" font-size="14" font-weight="bold" lengthAdjust="spacing" textLength="80" x="820" y="91.1318">&#171;Database&#187;</text><text fill="#000000" font-family="Arial" font-size="14" font-weight="bold" lengthAdjust="spacing" textLength="68" x="826" y="107.2305">MongoDB</text><rect fill="#F4ECF7" height="46.1973" rx="2.5" ry="2.5" style="stroke:#8E44AD;stroke-width:2.0;" width="94" x="813" y="892.9155"/><text fill="#000000" font-family="Arial" font-size="14" font-weight="bold" lengthAdjust="spacing" textLength="80" x="820" y="913.0474">&#171;Database&#187;</text><text fill="#000000" font-family="Arial" font-size="14" font-weight="bold" lengthAdjust="spacing" textLength="68" x="826" y="929.146">MongoDB</text><rect fill="#F4ECF7" height="46.1973" rx="2.5" ry="2.5" style="stroke:#8E44AD;stroke-width:2.0;" width="94" x="957" y="71"/><text fill="#000000" font-family="Arial" font-size="14" font-weight="bold" lengthAdjust="spacing" textLength="80" x="964" y="91.1318">&#171;Database&#187;</text><text fill="#000000" font-family="Arial" font-size="14" font-weight="bold" lengthAdjust="spacing" textLength="57" x="975.5" y="107.2305">MariaDB</text><rect fill="#F4ECF7" height="46.1973" rx="2.5" ry="2.5" style="stroke:#8E44AD;stroke-width:2.0;" width="94" x="957" y="892.9155"/><text fill="#000000" font-family="Arial" font-size="14" font-weight="bold" lengthAdjust="spacing" textLength="80" x="964" y="913.0474">&#171;Database&#187;</text><text fill="#000000" font-family="Arial" font-size="14" font-weight="bold" lengthAdjust="spacing" textLength="57" x="975.5" y="929.146">MariaDB</text><rect fill="#F5EEF8" height="46.1973" rx="2.5" ry="2.5" style="stroke:#76448A;stroke-width:2.0;" width="83" x="1101" y="71"/><text fill="#000000" font-family="Arial" font-size="14" font-weight="bold" lengthAdjust="spacing" textLength="69" x="1108" y="91.1318">&#171;Storage&#187;</text><text fill="#000000" font-family="Arial" font-size="14" font-weight="bold" lengthAdjust="spacing" textLength="53" x="1116" y="107.2305">AWS S3</text><rect fill="#F5EEF8" height="46.1973" rx="2.5" ry="2.5" style="stroke:#76448A;stroke-width:2.0;" width="83" x="1101" y="892.9155"/><text fill="#000000" font-family="Arial" font-size="14" font-weight="bold" lengthAdjust="spacing" textLength="69" x="1108" y="913.0474">&#171;Storage&#187;</text><text fill="#000000" font-family="Arial" font-size="14" font-weight="bold" lengthAdjust="spacing" textLength="53" x="1116" y="929.146">AWS S3</text><rect fill="#FFFFFF" height="144.7437" style="stroke:#181818;stroke-width:1.0;" width="10" x="270" y="184.0947"/><rect fill="#FFFFFF" height="244.5898" style="stroke:#181818;stroke-width:1.0;" width="10" x="270" y="357.7871"/><rect fill="#FFFFFF" height="244.5898" style="stroke:#181818;stroke-width:1.0;" width="10" x="270" y="631.3257"/><rect fill="#FFFFFF" height="86.8462" style="stroke:#181818;stroke-width:1.0;" width="10" x="658" y="213.0435"/><rect fill="#FFFFFF" height="144.7437" style="stroke:#181818;stroke-width:1.0;" width="10" x="658" y="386.7358"/><rect fill="#FFFFFF" height="144.7437" style="stroke:#181818;stroke-width:1.0;" width="10" x="658" y="660.2744"/><path d="M5,133.1973 L5,157.1973 L1180,157.1973 L1180,143.1973 L1170,133.1973 L5,133.1973 " fill="#FEFFDD" style="stroke:#181818;stroke-width:0.5;"/><path d="M1170,133.1973 L1170,143.1973 L1180,143.1973 L1170,133.1973 " fill="#FEFFDD" style="stroke:#181818;stroke-width:0.5;"/><text fill="#000000" font-family="Arial" font-size="13" lengthAdjust="spacing" textLength="184" x="496" y="150.3911">Viewing and Comparing Results</text><polygon fill="#181818" points="258,180.0947,268,184.0947,258,188.0947,262,184.0947" style="stroke:#181818;stroke-width:1.0;"/><line style="stroke:#181818;stroke-width:1.5;" x1="42" x2="264" y1="184.0947" y2="184.0947"/><text fill="#000000" font-family="Arial" font-size="13" lengthAdjust="spacing" textLength="136" x="88" y="179.3398">Navigate to evaluations</text><polygon fill="#181818" points="646,209.0435,656,213.0435,646,217.0435,650,213.0435" style="stroke:#181818;stroke-width:1.0;"/><line style="stroke:#181818;stroke-width:1.5;" x1="280" x2="652" y1="213.0435" y2="213.0435"/><text fill="#000000" font-family="Arial" font-size="13" lengthAdjust="spacing" textLength="140" x="399" y="208.2886">GET /api/v1/evaluations</text><polygon fill="#181818" points="848,237.9922,858,241.9922,848,245.9922,852,241.9922" style="stroke:#181818;stroke-width:1.0;"/><line style="stroke:#181818;stroke-width:1.5;" x1="668" x2="854" y1="241.9922" y2="241.9922"/><text fill="#000000" font-family="Arial" font-size="13" lengthAdjust="spacing" textLength="141" x="693.5" y="237.2373">Fetch user's evaluations</text><polygon fill="#181818" points="679,266.9409,669,270.9409,679,274.9409,675,270.9409" style="stroke:#181818;stroke-width:1.0;"/><line style="stroke:#181818;stroke-width:1.5;stroke-dasharray:2.0,2.0;" x1="673" x2="859" y1="270.9409" y2="270.9409"/><text fill="#000000" font-family="Arial" font-size="13" lengthAdjust="spacing" textLength="108" x="710" y="266.186">Return evaluations</text><polygon fill="#181818" points="291,295.8896,281,299.8896,291,303.8896,287,299.8896" style="stroke:#181818;stroke-width:1.0;"/><line style="stroke:#181818;stroke-width:1.5;stroke-dasharray:2.0,2.0;" x1="285" x2="662" y1="299.8896" y2="299.8896"/><text fill="#000000" font-family="Arial" font-size="13" lengthAdjust="spacing" textLength="122" x="410.5" y="295.1348">Return evaluation list</text><polygon fill="#181818" points="53,324.8384,43,328.8384,53,332.8384,49,328.8384" style="stroke:#181818;stroke-width:1.0;"/><line style="stroke:#181818;stroke-width:1.5;stroke-dasharray:2.0,2.0;" x1="47" x2="274" y1="328.8384" y2="328.8384"/><text fill="#000000" font-family="Arial" font-size="13" lengthAdjust="spacing" textLength="113" x="102" y="324.0835">Display evaluations</text><polygon fill="#181818" points="258,353.7871,268,357.7871,258,361.7871,262,357.7871" style="stroke:#181818;stroke-width:1.0;"/><line style="stroke:#181818;stroke-width:1.5;" x1="42" x2="264" y1="357.7871" y2="357.7871"/><text fill="#000000" font-family="Arial" font-size="13" lengthAdjust="spacing" textLength="161" x="75.5" y="353.0322">Select evaluation for details</text><polygon fill="#181818" points="646,382.7358,656,386.7358,646,390.7358,650,386.7358" style="stroke:#181818;stroke-width:1.0;"/><line style="stroke:#181818;stroke-width:1.5;" x1="280" x2="652" y1="386.7358" y2="386.7358"/><text fill="#000000" font-family="Arial" font-size="13" lengthAdjust="spacing" textLength="162" x="388" y="381.981">GET /api/v1/evaluations/{id}</text><polygon fill="#181818" points="848,411.6846,858,415.6846,848,419.6846,852,415.6846" style="stroke:#181818;stroke-width:1.0;"/><line style="stroke:#181818;stroke-width:1.5;" x1="668" x2="854" y1="415.6846" y2="415.6846"/><text fill="#000000" font-family="Arial" font-size="13" lengthAdjust="spacing" textLength="154" x="687" y="410.9297">Fetch evaluation metadata</text><polygon fill="#181818" points="679,440.6333,669,444.6333,679,448.6333,675,444.6333" style="stroke:#181818;stroke-width:1.0;"/><line style="stroke:#181818;stroke-width:1.5;stroke-dasharray:2.0,2.0;" x1="673" x2="859" y1="444.6333" y2="444.6333"/><text fill="#000000" font-family="Arial" font-size="13" lengthAdjust="spacing" textLength="96" x="716" y="439.8784">Return metadata</text><polygon fill="#181818" points="1130.5,469.582,1140.5,473.582,1130.5,477.582,1134.5,473.582" style="stroke:#181818;stroke-width:1.0;"/><line style="stroke:#181818;stroke-width:1.5;" x1="668" x2="1136.5" y1="473.582" y2="473.582"/><text fill="#000000" font-family="Arial" font-size="13" lengthAdjust="spacing" textLength="125" x="842.75" y="468.8271">Fetch detailed results</text><polygon fill="#181818" points="679,498.5308,669,502.5308,679,506.5308,675,502.5308" style="stroke:#181818;stroke-width:1.0;"/><line style="stroke:#181818;stroke-width:1.5;stroke-dasharray:2.0,2.0;" x1="673" x2="1141.5" y1="502.5308" y2="502.5308"/><text fill="#000000" font-family="Arial" font-size="13" lengthAdjust="spacing" textLength="103" x="853.75" y="497.7759">Return result data</text><polygon fill="#181818" points="291,527.4795,281,531.4795,291,535.4795,287,531.4795" style="stroke:#181818;stroke-width:1.0;"/><line style="stroke:#181818;stroke-width:1.5;stroke-dasharray:2.0,2.0;" x1="285" x2="662" y1="531.4795" y2="531.4795"/><text fill="#000000" font-family="Arial" font-size="13" lengthAdjust="spacing" textLength="127" x="408" y="526.7246">Return combined data</text><line style="stroke:#181818;stroke-width:1.5;" x1="280" x2="322" y1="560.4282" y2="560.4282"/><line style="stroke:#181818;stroke-width:1.5;" x1="322" x2="322" y1="560.4282" y2="573.4282"/><line style="stroke:#181818;stroke-width:1.5;" x1="281" x2="322" y1="573.4282" y2="573.4282"/><polygon fill="#181818" points="291,569.4282,281,573.4282,291,577.4282,287,573.4282" style="stroke:#181818;stroke-width:1.0;"/><text fill="#000000" font-family="Arial" font-size="13" lengthAdjust="spacing" textLength="171" x="287" y="555.6733">Process and visualize results</text><polygon fill="#181818" points="53,598.377,43,602.377,53,606.377,49,602.377" style="stroke:#181818;stroke-width:1.0;"/><line style="stroke:#181818;stroke-width:1.5;stroke-dasharray:2.0,2.0;" x1="47" x2="274" y1="602.377" y2="602.377"/><text fill="#000000" font-family="Arial" font-size="13" lengthAdjust="spacing" textLength="204" x="56.5" y="597.6221">Display detailed metrics and charts</text><polygon fill="#181818" points="258,627.3257,268,631.3257,258,635.3257,262,631.3257" style="stroke:#181818;stroke-width:1.0;"/><line style="stroke:#181818;stroke-width:1.5;" x1="42" x2="264" y1="631.3257" y2="631.3257"/><text fill="#000000" font-family="Arial" font-size="13" lengthAdjust="spacing" textLength="158" x="77" y="626.5708">Request model comparison</text><polygon fill="#181818" points="646,656.2744,656,660.2744,646,664.2744,650,660.2744" style="stroke:#181818;stroke-width:1.0;"/><line style="stroke:#181818;stroke-width:1.5;" x1="280" x2="652" y1="660.2744" y2="660.2744"/><text fill="#000000" font-family="Arial" font-size="13" lengthAdjust="spacing" textLength="359" x="289.5" y="655.5195">GET /api/v1/models/compare?ids=model1,model2&amp;dataset=X</text><polygon fill="#181818" points="992,685.2231,1002,689.2231,992,693.2231,996,689.2231" style="stroke:#181818;stroke-width:1.0;"/><line style="stroke:#181818;stroke-width:1.5;" x1="668" x2="998" y1="689.2231" y2="689.2231"/><text fill="#000000" font-family="Arial" font-size="13" lengthAdjust="spacing" textLength="141" x="765.5" y="684.4683">Fetch aggregate metrics</text><polygon fill="#181818" points="679,714.1719,669,718.1719,679,722.1719,675,718.1719" style="stroke:#181818;stroke-width:1.0;"/><line style="stroke:#181818;stroke-width:1.5;stroke-dasharray:2.0,2.0;" x1="673" x2="1003" y1="718.1719" y2="718.1719"/><text fill="#000000" font-family="Arial" font-size="13" lengthAdjust="spacing" textLength="85" x="793.5" y="713.417">Return metrics</text><polygon fill="#181818" points="848,743.1206,858,747.1206,848,751.1206,852,747.1206" style="stroke:#181818;stroke-width:1.0;"/><line style="stroke:#181818;stroke-width:1.5;" x1="668" x2="854" y1="747.1206" y2="747.1206"/><text fill="#000000" font-family="Arial" font-size="13" lengthAdjust="spacing" textLength="168" x="680" y="742.3657">Fetch evaluations for models</text><polygon fill="#181818" points="679,772.0693,669,776.0693,679,780.0693,675,776.0693" style="stroke:#181818;stroke-width:1.0;"/><line style="stroke:#181818;stroke-width:1.5;stroke-dasharray:2.0,2.0;" x1="673" x2="859" y1="776.0693" y2="776.0693"/><text fill="#000000" font-family="Arial" font-size="13" lengthAdjust="spacing" textLength="108" x="710" y="771.3145">Return evaluations</text><polygon fill="#181818" points="291,801.0181,281,805.0181,291,809.0181,287,805.0181" style="stroke:#181818;stroke-width:1.0;"/><line style="stroke:#181818;stroke-width:1.5;stroke-dasharray:2.0,2.0;" x1="285" x2="662" y1="805.0181" y2="805.0181"/><text fill="#000000" font-family="Arial" font-size="13" lengthAdjust="spacing" textLength="138" x="402.5" y="800.2632">Return comparison data</text><line style="stroke:#181818;stroke-width:1.5;" x1="280" x2="322" y1="833.9668" y2="833.9668"/><line style="stroke:#181818;stroke-width:1.5;" x1="322" x2="322" y1="833.9668" y2="846.9668"/><line style="stroke:#181818;stroke-width:1.5;" x1="281" x2="322" y1="846.9668" y2="846.9668"/><polygon fill="#181818" points="291,842.9668,281,846.9668,291,850.9668,287,846.9668" style="stroke:#181818;stroke-width:1.0;"/><text fill="#000000" font-family="Arial" font-size="13" lengthAdjust="spacing" textLength="207" x="287" y="829.2119">Generate comparison visualizations</text><polygon fill="#181818" points="53,871.9155,43,875.9155,53,879.9155,49,875.9155" style="stroke:#181818;stroke-width:1.0;"/><line style="stroke:#181818;stroke-width:1.5;stroke-dasharray:2.0,2.0;" x1="47" x2="274" y1="875.9155" y2="875.9155"/><text fill="#000000" font-family="Arial" font-size="13" lengthAdjust="spacing" textLength="153" x="82" y="871.1606">Display model comparison</text><rect fill="#DDDDDD" height="191.085" id="_legend" rx="7.5" ry="7.5" style="stroke:#000000;stroke-width:1.0;" width="307" x="450.5" y="982.0142"/><text fill="#000000" font-family="Arial" font-size="14" font-weight="bold" lengthAdjust="spacing" textLength="78" x="459.5" y="1002.146">Entity Type</text><text fill="#000000" font-family="Arial" font-size="14" font-weight="bold" lengthAdjust="spacing" textLength="79" x="545.5" y="1002.146">Description</text><rect fill="#E9F7EF" height="16.0986" style="stroke:none;stroke-width:1.0;" width="86" x="455.5" y="1005.1128"/><text fill="#000000" font-family="Arial" font-size="14" lengthAdjust="spacing" textLength="4" x="455.5" y="1018.2446">&#160;</text><text fill="#000000" font-family="Arial" font-size="14" lengthAdjust="spacing" textLength="203" x="545.5" y="1018.2446">Frontend - Web/UI Components</text><rect fill="#EBF5FB" height="16.0986" style="stroke:none;stroke-width:1.0;" width="86" x="455.5" y="1021.2114"/><text fill="#000000" font-family="Arial" font-size="14" lengthAdjust="spacing" textLength="4" x="455.5" y="1034.3433">&#160;</text><text fill="#000000" font-family="Arial" font-size="14" lengthAdjust="spacing" textLength="148" x="545.5" y="1034.3433">API - Backend Services</text><rect fill="#F9EBEA" height="16.0986" style="stroke:none;stroke-width:1.0;" width="86" x="455.5" y="1037.3101"/><text fill="#000000" font-family="Arial" font-size="14" lengthAdjust="spacing" textLength="4" x="455.5" y="1050.4419">&#160;</text><text fill="#000000" font-family="Arial" font-size="14" lengthAdjust="spacing" textLength="190" x="545.5" y="1050.4419">Auth - Authentication Services</text><rect fill="#F4ECF7" height="16.0986" style="stroke:none;stroke-width:1.0;" width="86" x="455.5" y="1053.4087"/><text fill="#000000" font-family="Arial" font-size="14" lengthAdjust="spacing" textLength="4" x="455.5" y="1066.5405">&#160;</text><text fill="#000000" font-family="Arial" font-size="14" lengthAdjust="spacing" textLength="158" x="545.5" y="1066.5405">Database - Data Storage</text><rect fill="#FEF9E7" height="16.0986" style="stroke:none;stroke-width:1.0;" width="86" x="455.5" y="1069.5073"/><text fill="#000000" font-family="Arial" font-size="14" lengthAdjust="spacing" textLength="4" x="455.5" y="1082.6392">&#160;</text><text fill="#000000" font-family="Arial" font-size="14" lengthAdjust="spacing" textLength="181" x="545.5" y="1082.6392">External - 3rd Party Services</text><rect fill="#FADBD8" height="16.0986" style="stroke:none;stroke-width:1.0;" width="86" x="455.5" y="1085.606"/><text fill="#000000" font-family="Arial" font-size="14" lengthAdjust="spacing" textLength="4" x="455.5" y="1098.7378">&#160;</text><text fill="#000000" font-family="Arial" font-size="14" lengthAdjust="spacing" textLength="170" x="545.5" y="1098.7378">Contract - Smart Contracts</text><rect fill="#FCF3CF" height="16.0986" style="stroke:none;stroke-width:1.0;" width="86" x="455.5" y="1101.7046"/><text fill="#000000" font-family="Arial" font-size="14" lengthAdjust="spacing" textLength="4" x="455.5" y="1114.8364">&#160;</text><text fill="#000000" font-family="Arial" font-size="14" lengthAdjust="spacing" textLength="168" x="545.5" y="1114.8364">Queue - Message Queues</text><rect fill="#D6EAF8" height="16.0986" style="stroke:none;stroke-width:1.0;" width="86" x="455.5" y="1117.8032"/><text fill="#000000" font-family="Arial" font-size="14" lengthAdjust="spacing" textLength="4" x="455.5" y="1130.9351">&#160;</text><text fill="#000000" font-family="Arial" font-size="14" lengthAdjust="spacing" textLength="171" x="545.5" y="1130.9351">Operator - Validator Nodes</text><rect fill="#D4EFDF" height="16.0986" style="stroke:none;stroke-width:1.0;" width="86" x="455.5" y="1133.9019"/><text fill="#000000" font-family="Arial" font-size="14" lengthAdjust="spacing" textLength="4" x="455.5" y="1147.0337">&#160;</text><text fill="#000000" font-family="Arial" font-size="14" lengthAdjust="spacing" textLength="197" x="545.5" y="1147.0337">Evaluator - Evaluation Services</text><rect fill="#F5EEF8" height="16.0986" style="stroke:none;stroke-width:1.0;" width="86" x="455.5" y="1150.0005"/><text fill="#000000" font-family="Arial" font-size="14" lengthAdjust="spacing" textLength="4" x="455.5" y="1163.1323">&#160;</text><text fill="#000000" font-family="Arial" font-size="14" lengthAdjust="spacing" textLength="171" x="545.5" y="1163.1323">Storage - Storage Services</text><line style="stroke:#000000;stroke-width:1.0;" x1="455.5" x2="752.5" y1="989.0142" y2="989.0142"/><line style="stroke:#000000;stroke-width:1.0;" x1="455.5" x2="752.5" y1="1005.1128" y2="1005.1128"/><line style="stroke:#000000;stroke-width:1.0;" x1="455.5" x2="752.5" y1="1021.2114" y2="1021.2114"/><line style="stroke:#000000;stroke-width:1.0;" x1="455.5" x2="752.5" y1="1037.3101" y2="1037.3101"/><line style="stroke:#000000;stroke-width:1.0;" x1="455.5" x2="752.5" y1="1053.4087" y2="1053.4087"/><line style="stroke:#000000;stroke-width:1.0;" x1="455.5" x2="752.5" y1="1069.5073" y2="1069.5073"/><line style="stroke:#000000;stroke-width:1.0;" x1="455.5" x2="752.5" y1="1085.606" y2="1085.606"/><line style="stroke:#000000;stroke-width:1.0;" x1="455.5" x2="752.5" y1="1101.7046" y2="1101.7046"/><line style="stroke:#000000;stroke-width:1.0;" x1="455.5" x2="752.5" y1="1117.8032" y2="1117.8032"/><line style="stroke:#000000;stroke-width:1.0;" x1="455.5" x2="752.5" y1="1133.9019" y2="1133.9019"/><line style="stroke:#000000;stroke-width:1.0;" x1="455.5" x2="752.5" y1="1150.0005" y2="1150.0005"/><line style="stroke:#000000;stroke-width:1.0;" x1="455.5" x2="752.5" y1="1166.0991" y2="1166.0991"/><line style="stroke:#000000;stroke-width:1.0;" x1="455.5" x2="455.5" y1="989.0142" y2="1166.0991"/><line style="stroke:#000000;stroke-width:1.0;" x1="541.5" x2="541.5" y1="989.0142" y2="1166.0991"/><line style="stroke:#000000;stroke-width:1.0;" x1="752.5" x2="752.5" y1="989.0142" y2="1166.0991"/><!--SRC=[fLHBKzim4BxhLsmvb0kG1gQN3D09JM5we9CXz74LqkBi84kk98S2q__UbH-90oQ5uP1OzdxVQlVRnpkoofGQGRayTtOtn3k3UqMP6o6suLoIZVo3u7A4KA2YQrAWoX1TJlSoahC1hfs7EAS0ccJcPIx23Tb2yWaCMOnt1OBpSUuwXgdqaHGLqiQfr9fi1liVElOP_YxHAZnnVrhxi6iVU-zkB-UaRYo60CEzZq94YWRX0aDfOe0VXBU99gs6povd6WLduTIuMo6aYXpqzu1U5Aj8O6iSZGnmwfsDQFKMT5xWyB0z7X_tiSRJhnM1dupb_yUmSsSpDpcfGCsPWHCPvPKC-0JD0SiMNPyteCS_Pp0xgC2p0yRDE3-P9PYmBhB-2wpptM7xg4ySVcka4o81OVTucVi8lia5PP8THGUuaAQiQv-4f4NwtaB5KY_cimWZEFjo2GDPq60n7FHI6IMIQ4neP1d1AKOrXvBZs0vh5xR2xRRkBp2MtgvXAcThuJy1SMU6A3Ik1R4AdSb9Wn5CA1H6tgsvxx2MMVT8DaE3AdRlJ8EYaGVAl4MumGFflozHhtDpphTgRfrdvLi26bUfIMelTS2emJVTmVtrc5sROEMWJtpUC5Uy3dGDUrRwBdFgdKhZdTfqGQ6KXkvn6SY6SYs3vhmygTg3clF4lBXy5sa3XGYvqsXIyCq6UMtbAduOr0xm4-bmL7qQxbIF_VT9Ze3nw5T_JUlHRwiXiynZDOXDPgBT3JqLhUp_wurwVzTHlcswLXgzeiHdQD4dI8VTbhgvS4ETdnIdfxZ_0000]--></g></svg>