<?xml version="1.0" encoding="us-ascii" standalone="no"?><svg xmlns="http://www.w3.org/2000/svg" xmlns:xlink="http://www.w3.org/1999/xlink" contentStyleType="text/css" height="1888px" preserveAspectRatio="none" style="width:1018px;height:1888px;background:#FFFFFF;" version="1.1" viewBox="0 0 1018 1888" width="1018px" zoomAndPan="magnify"><defs/><g><text fill="#303030" font-family="Arial" font-size="16" font-weight="bold" lengthAdjust="spacing" textLength="200" x="405.25" y="38.0078">Dataset Management Flow</text><rect fill="#F8F8F8" height="507.7871" style="stroke:#000000;stroke-width:1.0;" width="10" x="285.5" y="242.0947"/><rect fill="#F8F8F8" height="218.9941" style="stroke:#000000;stroke-width:1.0;" width="10" x="285.5" y="793.6807"/><rect fill="#F8F8F8" height="306.5918" style="stroke:#000000;stroke-width:1.0;" width="10" x="285.5" y="1056.4736"/><rect fill="#F8F8F8" height="363.3906" style="stroke:#000000;stroke-width:1.0;" width="10" x="463.5" y="342.6924"/><rect fill="#F8F8F8" height="131.3965" style="stroke:#000000;stroke-width:1.0;" width="10" x="463.5" y="837.4795"/><rect fill="#F8F8F8" height="218.9941" style="stroke:#000000;stroke-width:1.0;" width="10" x="463.5" y="1100.2725"/><line style="stroke:#000000;stroke-width:0.5;stroke-dasharray:5.0,5.0;" x1="38" x2="38" y1="152.4971" y2="1381.0654"/><line style="stroke:#000000;stroke-width:0.5;stroke-dasharray:5.0,5.0;" x1="107" x2="107" y1="152.4971" y2="1381.0654"/><line style="stroke:#000000;stroke-width:0.5;stroke-dasharray:5.0,5.0;" x1="290" x2="290" y1="152.4971" y2="1381.0654"/><line style="stroke:#000000;stroke-width:0.5;stroke-dasharray:5.0,5.0;" x1="468" x2="468" y1="152.4971" y2="1381.0654"/><line style="stroke:#000000;stroke-width:0.5;stroke-dasharray:5.0,5.0;" x1="650.5" x2="650.5" y1="152.4971" y2="1381.0654"/><line style="stroke:#000000;stroke-width:0.5;stroke-dasharray:5.0,5.0;" x1="775.5" x2="775.5" y1="152.4971" y2="1381.0654"/><line style="stroke:#000000;stroke-width:0.5;stroke-dasharray:5.0,5.0;" x1="926.5" x2="926.5" y1="152.4971" y2="1381.0654"/><text fill="#000000" font-family="Arial" font-size="14" font-weight="bold" lengthAdjust="spacing" textLength="44" x="13" y="141.5303">Admin</text><ellipse cx="38" cy="68.8984" fill="#FFFFFF" rx="8" ry="8" style="stroke:#454545;stroke-width:0.5;"/><path d="M38,76.8984 L38,103.8984 M25,84.8984 L51,84.8984 M38,103.8984 L25,118.8984 M38,103.8984 L51,118.8984 " fill="none" style="stroke:#454545;stroke-width:0.5;"/><text fill="#000000" font-family="Arial" font-size="14" font-weight="bold" lengthAdjust="spacing" textLength="44" x="13" y="1401.1973">Admin</text><ellipse cx="38" cy="1420.6641" fill="#FFFFFF" rx="8" ry="8" style="stroke:#454545;stroke-width:0.5;"/><path d="M38,1428.6641 L38,1455.6641 M25,1436.6641 L51,1436.6641 M38,1455.6641 L25,1470.6641 M38,1455.6641 L51,1470.6641 " fill="none" style="stroke:#454545;stroke-width:0.5;"/><text fill="#000000" font-family="Arial" font-size="14" font-weight="bold" lengthAdjust="spacing" textLength="31" x="89" y="141.5303">User</text><ellipse cx="107.5" cy="68.8984" fill="#FFFFFF" rx="8" ry="8" style="stroke:#454545;stroke-width:0.5;"/><path d="M107.5,76.8984 L107.5,103.8984 M94.5,84.8984 L120.5,84.8984 M107.5,103.8984 L94.5,118.8984 M107.5,103.8984 L120.5,118.8984 " fill="none" style="stroke:#454545;stroke-width:0.5;"/><text fill="#000000" font-family="Arial" font-size="14" font-weight="bold" lengthAdjust="spacing" textLength="31" x="89" y="1401.1973">User</text><ellipse cx="107.5" cy="1420.6641" fill="#FFFFFF" rx="8" ry="8" style="stroke:#454545;stroke-width:0.5;"/><path d="M107.5,1428.6641 L107.5,1455.6641 M94.5,1436.6641 L120.5,1436.6641 M107.5,1455.6641 L94.5,1470.6641 M107.5,1455.6641 L120.5,1470.6641 " fill="none" style="stroke:#454545;stroke-width:0.5;"/><rect fill="#E9F7EF" height="56.4478" rx="4" ry="4" style="stroke:#27AE60;stroke-width:2.0;" width="121" x="230" y="95.0493"/><text fill="#000000" font-family="Arial" font-size="10" font-weight="bold" lengthAdjust="spacing" textLength="55" x="263" y="119.4292">&#171;Frontend&#187;</text><text fill="#000000" font-family="Arial" font-size="13" font-weight="bold" lengthAdjust="spacing" textLength="91" x="245" y="133.7422">Atlas Frontend</text><rect fill="#E9F7EF" height="56.4478" rx="4" ry="4" style="stroke:#27AE60;stroke-width:2.0;" width="121" x="230" y="1380.0654"/><text fill="#000000" font-family="Arial" font-size="10" font-weight="bold" lengthAdjust="spacing" textLength="55" x="263" y="1404.4453">&#171;Frontend&#187;</text><text fill="#000000" font-family="Arial" font-size="13" font-weight="bold" lengthAdjust="spacing" textLength="91" x="245" y="1418.7583">Atlas Frontend</text><rect fill="#EBF5FB" height="56.4478" rx="4" ry="4" style="stroke:#3498DB;stroke-width:2.0;" width="87" x="425" y="95.0493"/><text fill="#000000" font-family="Arial" font-size="10" font-weight="bold" lengthAdjust="spacing" textLength="29" x="454" y="119.4292">&#171;API&#187;</text><text fill="#000000" font-family="Arial" font-size="13" font-weight="bold" lengthAdjust="spacing" textLength="57" x="440" y="133.7422">Atlas API</text><rect fill="#EBF5FB" height="56.4478" rx="4" ry="4" style="stroke:#3498DB;stroke-width:2.0;" width="87" x="425" y="1380.0654"/><text fill="#000000" font-family="Arial" font-size="10" font-weight="bold" lengthAdjust="spacing" textLength="29" x="454" y="1404.4453">&#171;API&#187;</text><text fill="#000000" font-family="Arial" font-size="13" font-weight="bold" lengthAdjust="spacing" textLength="57" x="440" y="1418.7583">Atlas API</text><rect fill="#F5EEF8" height="56.4478" rx="4" ry="4" style="stroke:#76448A;stroke-width:2.0;" width="80" x="610.5" y="95.0493"/><text fill="#000000" font-family="Arial" font-size="10" font-weight="bold" lengthAdjust="spacing" textLength="50" x="625.5" y="119.4292">&#171;Storage&#187;</text><text fill="#000000" font-family="Arial" font-size="13" font-weight="bold" lengthAdjust="spacing" textLength="50" x="625.5" y="133.7422">AWS S3</text><rect fill="#F5EEF8" height="56.4478" rx="4" ry="4" style="stroke:#76448A;stroke-width:2.0;" width="80" x="610.5" y="1380.0654"/><text fill="#000000" font-family="Arial" font-size="10" font-weight="bold" lengthAdjust="spacing" textLength="50" x="625.5" y="1404.4453">&#171;Storage&#187;</text><text fill="#000000" font-family="Arial" font-size="13" font-weight="bold" lengthAdjust="spacing" textLength="50" x="625.5" y="1418.7583">AWS S3</text><rect fill="#F4ECF7" height="56.4478" rx="4" ry="4" style="stroke:#8E44AD;stroke-width:2.0;" width="91" x="730.5" y="95.0493"/><text fill="#000000" font-family="Arial" font-size="10" font-weight="bold" lengthAdjust="spacing" textLength="58" x="747" y="119.4292">&#171;Database&#187;</text><text fill="#000000" font-family="Arial" font-size="13" font-weight="bold" lengthAdjust="spacing" textLength="61" x="745.5" y="133.7422">MongoDB</text><rect fill="#F4ECF7" height="56.4478" rx="4" ry="4" style="stroke:#8E44AD;stroke-width:2.0;" width="91" x="730.5" y="1380.0654"/><text fill="#000000" font-family="Arial" font-size="10" font-weight="bold" lengthAdjust="spacing" textLength="58" x="747" y="1404.4453">&#171;Database&#187;</text><text fill="#000000" font-family="Arial" font-size="13" font-weight="bold" lengthAdjust="spacing" textLength="61" x="745.5" y="1418.7583">MongoDB</text><rect fill="#F5EEF8" height="56.4478" rx="4" ry="4" style="stroke:#76448A;stroke-width:2.0;" width="130" x="861.5" y="95.0493"/><text fill="#000000" font-family="Arial" font-size="10" font-weight="bold" lengthAdjust="spacing" textLength="50" x="901.5" y="119.4292">&#171;Storage&#187;</text><text fill="#000000" font-family="Arial" font-size="13" font-weight="bold" lengthAdjust="spacing" textLength="100" x="876.5" y="133.7422">Dataset Registry</text><rect fill="#F5EEF8" height="56.4478" rx="4" ry="4" style="stroke:#76448A;stroke-width:2.0;" width="130" x="861.5" y="1380.0654"/><text fill="#000000" font-family="Arial" font-size="10" font-weight="bold" lengthAdjust="spacing" textLength="50" x="901.5" y="1404.4453">&#171;Storage&#187;</text><text fill="#000000" font-family="Arial" font-size="13" font-weight="bold" lengthAdjust="spacing" textLength="100" x="876.5" y="1418.7583">Dataset Registry</text><rect fill="#F8F8F8" height="507.7871" style="stroke:#000000;stroke-width:1.0;" width="10" x="285.5" y="242.0947"/><rect fill="#F8F8F8" height="218.9941" style="stroke:#000000;stroke-width:1.0;" width="10" x="285.5" y="793.6807"/><rect fill="#F8F8F8" height="306.5918" style="stroke:#000000;stroke-width:1.0;" width="10" x="285.5" y="1056.4736"/><rect fill="#F8F8F8" height="363.3906" style="stroke:#000000;stroke-width:1.0;" width="10" x="463.5" y="342.6924"/><rect fill="#F8F8F8" height="131.3965" style="stroke:#000000;stroke-width:1.0;" width="10" x="463.5" y="837.4795"/><rect fill="#F8F8F8" height="218.9941" style="stroke:#000000;stroke-width:1.0;" width="10" x="463.5" y="1100.2725"/><polygon fill="#000000" points="278.5,194.2959,288.5,198.2959,278.5,202.2959,282.5,198.2959" style="stroke:#000000;stroke-width:1.0;"/><line style="stroke:#000000;stroke-width:1.5;" x1="38" x2="284.5" y1="198.2959" y2="198.2959"/><text fill="#000000" font-family="Arial" font-size="12" lengthAdjust="spacing" textLength="49" x="74.25" y="185.7529">Navigate</text><text fill="#000000" font-family="Arial" font-size="12" lengthAdjust="spacing" textLength="3" x="123.25" y="185.7529">&#160;</text><text fill="#000000" font-family="Arial" font-size="12" lengthAdjust="spacing" textLength="10" x="126.25" y="185.7529">to</text><text fill="#000000" font-family="Arial" font-size="12" lengthAdjust="spacing" textLength="3" x="136.25" y="185.7529">&#160;</text><text fill="#000000" font-family="Arial" font-size="12" lengthAdjust="spacing" textLength="40" x="139.25" y="185.7529">dataset</text><text fill="#000000" font-family="Arial" font-size="12" lengthAdjust="spacing" textLength="3" x="179.25" y="185.7529">&#160;</text><text fill="#000000" font-family="Arial" font-size="12" lengthAdjust="spacing" textLength="72" x="182.25" y="185.7529">management</text><polygon fill="#000000" points="273.5,238.0947,283.5,242.0947,273.5,246.0947,277.5,242.0947" style="stroke:#000000;stroke-width:1.0;"/><line style="stroke:#000000;stroke-width:1.5;" x1="38" x2="279.5" y1="242.0947" y2="242.0947"/><text fill="#000000" font-family="Arial" font-size="12" lengthAdjust="spacing" textLength="40" x="107.75" y="229.5518">Upload</text><text fill="#000000" font-family="Arial" font-size="12" lengthAdjust="spacing" textLength="3" x="147.75" y="229.5518">&#160;</text><text fill="#000000" font-family="Arial" font-size="12" lengthAdjust="spacing" textLength="40" x="150.75" y="229.5518">dataset</text><text fill="#000000" font-family="Arial" font-size="12" lengthAdjust="spacing" textLength="3" x="190.75" y="229.5518">&#160;</text><text fill="#000000" font-family="Arial" font-size="12" lengthAdjust="spacing" textLength="22" x="193.75" y="229.5518">files</text><line style="stroke:#000000;stroke-width:1.5;" x1="295.5" x2="337.5" y1="285.8936" y2="285.8936"/><line style="stroke:#000000;stroke-width:1.5;" x1="337.5" x2="337.5" y1="285.8936" y2="298.8936"/><line style="stroke:#000000;stroke-width:1.5;" x1="296.5" x2="337.5" y1="298.8936" y2="298.8936"/><polygon fill="#000000" points="306.5,294.8936,296.5,298.8936,306.5,302.8936,302.5,298.8936" style="stroke:#000000;stroke-width:1.0;"/><text fill="#000000" font-family="Arial" font-size="12" lengthAdjust="spacing" textLength="45" x="310.5" y="273.3506">Validate</text><text fill="#000000" font-family="Arial" font-size="12" lengthAdjust="spacing" textLength="3" x="355.5" y="273.3506">&#160;</text><text fill="#000000" font-family="Arial" font-size="12" lengthAdjust="spacing" textLength="40" x="358.5" y="273.3506">dataset</text><text fill="#000000" font-family="Arial" font-size="12" lengthAdjust="spacing" textLength="3" x="398.5" y="273.3506">&#160;</text><text fill="#000000" font-family="Arial" font-size="12" lengthAdjust="spacing" textLength="34" x="401.5" y="273.3506">format</text><polygon fill="#000000" points="451.5,338.6924,461.5,342.6924,451.5,346.6924,455.5,342.6924" style="stroke:#000000;stroke-width:1.0;"/><line style="stroke:#000000;stroke-width:1.5;" x1="295.5" x2="457.5" y1="342.6924" y2="342.6924"/><text fill="#000000" font-family="Arial" font-size="12" lengthAdjust="spacing" textLength="32" x="319.5" y="330.1494">POST</text><text fill="#000000" font-family="Arial" font-size="12" lengthAdjust="spacing" textLength="3" x="351.5" y="330.1494">&#160;</text><text fill="#000000" font-family="Arial" font-size="12" lengthAdjust="spacing" textLength="85" x="354.5" y="330.1494">/api/v1/datasets</text><line style="stroke:#000000;stroke-width:1.5;" x1="473.5" x2="515.5" y1="386.4912" y2="386.4912"/><line style="stroke:#000000;stroke-width:1.5;" x1="515.5" x2="515.5" y1="386.4912" y2="399.4912"/><line style="stroke:#000000;stroke-width:1.5;" x1="474.5" x2="515.5" y1="399.4912" y2="399.4912"/><polygon fill="#000000" points="484.5,395.4912,474.5,399.4912,484.5,403.4912,480.5,399.4912" style="stroke:#000000;stroke-width:1.0;"/><text fill="#000000" font-family="Arial" font-size="12" lengthAdjust="spacing" textLength="45" x="488.5" y="373.9482">Validate</text><text fill="#000000" font-family="Arial" font-size="12" lengthAdjust="spacing" textLength="3" x="533.5" y="373.9482">&#160;</text><text fill="#000000" font-family="Arial" font-size="12" lengthAdjust="spacing" textLength="40" x="536.5" y="373.9482">dataset</text><text fill="#000000" font-family="Arial" font-size="12" lengthAdjust="spacing" textLength="3" x="576.5" y="373.9482">&#160;</text><text fill="#000000" font-family="Arial" font-size="12" lengthAdjust="spacing" textLength="51" x="579.5" y="373.9482">metadata</text><polygon fill="#000000" points="638.5,439.29,648.5,443.29,638.5,447.29,642.5,443.29" style="stroke:#000000;stroke-width:1.0;"/><line style="stroke:#000000;stroke-width:1.5;" x1="473.5" x2="644.5" y1="443.29" y2="443.29"/><text fill="#000000" font-family="Arial" font-size="12" lengthAdjust="spacing" textLength="40" x="508" y="430.7471">Upload</text><text fill="#000000" font-family="Arial" font-size="12" lengthAdjust="spacing" textLength="3" x="548" y="430.7471">&#160;</text><text fill="#000000" font-family="Arial" font-size="12" lengthAdjust="spacing" textLength="40" x="551" y="430.7471">dataset</text><text fill="#000000" font-family="Arial" font-size="12" lengthAdjust="spacing" textLength="3" x="591" y="430.7471">&#160;</text><text fill="#000000" font-family="Arial" font-size="12" lengthAdjust="spacing" textLength="22" x="594" y="430.7471">files</text><polygon fill="#000000" points="484.5,483.0889,474.5,487.0889,484.5,491.0889,480.5,487.0889" style="stroke:#000000;stroke-width:1.0;"/><line style="stroke:#000000;stroke-width:1.5;stroke-dasharray:2.0,2.0;" x1="478.5" x2="649.5" y1="487.0889" y2="487.0889"/><text fill="#000000" font-family="Arial" font-size="12" lengthAdjust="spacing" textLength="43" x="520" y="474.5459">Confirm</text><text fill="#000000" font-family="Arial" font-size="12" lengthAdjust="spacing" textLength="3" x="563" y="474.5459">&#160;</text><text fill="#000000" font-family="Arial" font-size="12" lengthAdjust="spacing" textLength="38" x="566" y="474.5459">upload</text><polygon fill="#000000" points="764,526.8877,774,530.8877,764,534.8877,768,530.8877" style="stroke:#000000;stroke-width:1.0;"/><line style="stroke:#000000;stroke-width:1.5;" x1="473.5" x2="770" y1="530.8877" y2="530.8877"/><text fill="#000000" font-family="Arial" font-size="12" lengthAdjust="spacing" textLength="29" x="561.75" y="518.3447">Store</text><text fill="#000000" font-family="Arial" font-size="12" lengthAdjust="spacing" textLength="3" x="590.75" y="518.3447">&#160;</text><text fill="#000000" font-family="Arial" font-size="12" lengthAdjust="spacing" textLength="40" x="593.75" y="518.3447">dataset</text><text fill="#000000" font-family="Arial" font-size="12" lengthAdjust="spacing" textLength="3" x="633.75" y="518.3447">&#160;</text><text fill="#000000" font-family="Arial" font-size="12" lengthAdjust="spacing" textLength="51" x="636.75" y="518.3447">metadata</text><polygon fill="#000000" points="484.5,570.6865,474.5,574.6865,484.5,578.6865,480.5,574.6865" style="stroke:#000000;stroke-width:1.0;"/><line style="stroke:#000000;stroke-width:1.5;stroke-dasharray:2.0,2.0;" x1="478.5" x2="775" y1="574.6865" y2="574.6865"/><text fill="#000000" font-family="Arial" font-size="12" lengthAdjust="spacing" textLength="43" x="581.25" y="562.1436">Confirm</text><text fill="#000000" font-family="Arial" font-size="12" lengthAdjust="spacing" textLength="3" x="624.25" y="562.1436">&#160;</text><text fill="#000000" font-family="Arial" font-size="12" lengthAdjust="spacing" textLength="41" x="627.25" y="562.1436">storage</text><polygon fill="#000000" points="914.5,614.4854,924.5,618.4854,914.5,622.4854,918.5,618.4854" style="stroke:#000000;stroke-width:1.0;"/><line style="stroke:#000000;stroke-width:1.5;" x1="473.5" x2="920.5" y1="618.4854" y2="618.4854"/><text fill="#000000" font-family="Arial" font-size="12" lengthAdjust="spacing" textLength="46" x="627.5" y="605.9424">Register</text><text fill="#000000" font-family="Arial" font-size="12" lengthAdjust="spacing" textLength="3" x="673.5" y="605.9424">&#160;</text><text fill="#000000" font-family="Arial" font-size="12" lengthAdjust="spacing" textLength="40" x="676.5" y="605.9424">dataset</text><text fill="#000000" font-family="Arial" font-size="12" lengthAdjust="spacing" textLength="3" x="716.5" y="605.9424">&#160;</text><text fill="#000000" font-family="Arial" font-size="12" lengthAdjust="spacing" textLength="10" x="719.5" y="605.9424">in</text><text fill="#000000" font-family="Arial" font-size="12" lengthAdjust="spacing" textLength="3" x="729.5" y="605.9424">&#160;</text><text fill="#000000" font-family="Arial" font-size="12" lengthAdjust="spacing" textLength="40" x="732.5" y="605.9424">registry</text><polygon fill="#000000" points="484.5,658.2842,474.5,662.2842,484.5,666.2842,480.5,662.2842" style="stroke:#000000;stroke-width:1.0;"/><line style="stroke:#000000;stroke-width:1.5;stroke-dasharray:2.0,2.0;" x1="478.5" x2="925.5" y1="662.2842" y2="662.2842"/><text fill="#000000" font-family="Arial" font-size="12" lengthAdjust="spacing" textLength="43" x="646.5" y="649.7412">Confirm</text><text fill="#000000" font-family="Arial" font-size="12" lengthAdjust="spacing" textLength="3" x="689.5" y="649.7412">&#160;</text><text fill="#000000" font-family="Arial" font-size="12" lengthAdjust="spacing" textLength="61" x="692.5" y="649.7412">registration</text><polygon fill="#000000" points="306.5,702.083,296.5,706.083,306.5,710.083,302.5,706.083" style="stroke:#000000;stroke-width:1.0;"/><line style="stroke:#000000;stroke-width:1.5;stroke-dasharray:2.0,2.0;" x1="300.5" x2="467.5" y1="706.083" y2="706.083"/><text fill="#000000" font-family="Arial" font-size="12" lengthAdjust="spacing" textLength="37" x="340" y="693.54">Return</text><text fill="#000000" font-family="Arial" font-size="12" lengthAdjust="spacing" textLength="3" x="377" y="693.54">&#160;</text><text fill="#000000" font-family="Arial" font-size="12" lengthAdjust="spacing" textLength="44" x="380" y="693.54">success</text><polygon fill="#000000" points="49,745.8818,39,749.8818,49,753.8818,45,749.8818" style="stroke:#000000;stroke-width:1.0;"/><line style="stroke:#000000;stroke-width:1.5;stroke-dasharray:2.0,2.0;" x1="43" x2="289.5" y1="749.8818" y2="749.8818"/><text fill="#000000" font-family="Arial" font-size="12" lengthAdjust="spacing" textLength="31" x="98.75" y="737.3389">Show</text><text fill="#000000" font-family="Arial" font-size="12" lengthAdjust="spacing" textLength="3" x="129.75" y="737.3389">&#160;</text><text fill="#000000" font-family="Arial" font-size="12" lengthAdjust="spacing" textLength="44" x="132.75" y="737.3389">success</text><text fill="#000000" font-family="Arial" font-size="12" lengthAdjust="spacing" textLength="3" x="176.75" y="737.3389">&#160;</text><text fill="#000000" font-family="Arial" font-size="12" lengthAdjust="spacing" textLength="50" x="179.75" y="737.3389">message</text><polygon fill="#000000" points="273.5,789.6807,283.5,793.6807,273.5,797.6807,277.5,793.6807" style="stroke:#000000;stroke-width:1.0;"/><line style="stroke:#000000;stroke-width:1.5;" x1="107.5" x2="279.5" y1="793.6807" y2="793.6807"/><text fill="#000000" font-family="Arial" font-size="12" lengthAdjust="spacing" textLength="41" x="125" y="781.1377">Browse</text><text fill="#000000" font-family="Arial" font-size="12" lengthAdjust="spacing" textLength="3" x="166" y="781.1377">&#160;</text><text fill="#000000" font-family="Arial" font-size="12" lengthAdjust="spacing" textLength="50" x="169" y="781.1377">available</text><text fill="#000000" font-family="Arial" font-size="12" lengthAdjust="spacing" textLength="3" x="219" y="781.1377">&#160;</text><text fill="#000000" font-family="Arial" font-size="12" lengthAdjust="spacing" textLength="46" x="222" y="781.1377">datasets</text><polygon fill="#000000" points="451.5,833.4795,461.5,837.4795,451.5,841.4795,455.5,837.4795" style="stroke:#000000;stroke-width:1.0;"/><line style="stroke:#000000;stroke-width:1.5;" x1="295.5" x2="457.5" y1="837.4795" y2="837.4795"/><text fill="#000000" font-family="Arial" font-size="12" lengthAdjust="spacing" textLength="24" x="323.5" y="824.9365">GET</text><text fill="#000000" font-family="Arial" font-size="12" lengthAdjust="spacing" textLength="3" x="347.5" y="824.9365">&#160;</text><text fill="#000000" font-family="Arial" font-size="12" lengthAdjust="spacing" textLength="85" x="350.5" y="824.9365">/api/v1/datasets</text><polygon fill="#000000" points="764,877.2783,774,881.2783,764,885.2783,768,881.2783" style="stroke:#000000;stroke-width:1.0;"/><line style="stroke:#000000;stroke-width:1.5;" x1="473.5" x2="770" y1="881.2783" y2="881.2783"/><text fill="#000000" font-family="Arial" font-size="12" lengthAdjust="spacing" textLength="30" x="561.25" y="868.7354">Fetch</text><text fill="#000000" font-family="Arial" font-size="12" lengthAdjust="spacing" textLength="3" x="591.25" y="868.7354">&#160;</text><text fill="#000000" font-family="Arial" font-size="12" lengthAdjust="spacing" textLength="40" x="594.25" y="868.7354">dataset</text><text fill="#000000" font-family="Arial" font-size="12" lengthAdjust="spacing" textLength="3" x="634.25" y="868.7354">&#160;</text><text fill="#000000" font-family="Arial" font-size="12" lengthAdjust="spacing" textLength="51" x="637.25" y="868.7354">metadata</text><polygon fill="#000000" points="484.5,921.0771,474.5,925.0771,484.5,929.0771,480.5,925.0771" style="stroke:#000000;stroke-width:1.0;"/><line style="stroke:#000000;stroke-width:1.5;stroke-dasharray:2.0,2.0;" x1="478.5" x2="775" y1="925.0771" y2="925.0771"/><text fill="#000000" font-family="Arial" font-size="12" lengthAdjust="spacing" textLength="37" x="581.75" y="912.5342">Return</text><text fill="#000000" font-family="Arial" font-size="12" lengthAdjust="spacing" textLength="3" x="618.75" y="912.5342">&#160;</text><text fill="#000000" font-family="Arial" font-size="12" lengthAdjust="spacing" textLength="46" x="621.75" y="912.5342">datasets</text><polygon fill="#000000" points="306.5,964.876,296.5,968.876,306.5,972.876,302.5,968.876" style="stroke:#000000;stroke-width:1.0;"/><line style="stroke:#000000;stroke-width:1.5;stroke-dasharray:2.0,2.0;" x1="300.5" x2="467.5" y1="968.876" y2="968.876"/><text fill="#000000" font-family="Arial" font-size="12" lengthAdjust="spacing" textLength="37" x="333" y="956.333">Return</text><text fill="#000000" font-family="Arial" font-size="12" lengthAdjust="spacing" textLength="3" x="370" y="956.333">&#160;</text><text fill="#000000" font-family="Arial" font-size="12" lengthAdjust="spacing" textLength="40" x="373" y="956.333">dataset</text><text fill="#000000" font-family="Arial" font-size="12" lengthAdjust="spacing" textLength="3" x="413" y="956.333">&#160;</text><text fill="#000000" font-family="Arial" font-size="12" lengthAdjust="spacing" textLength="15" x="416" y="956.333">list</text><polygon fill="#000000" points="118.5,1008.6748,108.5,1012.6748,118.5,1016.6748,114.5,1012.6748" style="stroke:#000000;stroke-width:1.0;"/><line style="stroke:#000000;stroke-width:1.5;stroke-dasharray:2.0,2.0;" x1="112.5" x2="289.5" y1="1012.6748" y2="1012.6748"/><text fill="#000000" font-family="Arial" font-size="12" lengthAdjust="spacing" textLength="41" x="137" y="1000.1318">Display</text><text fill="#000000" font-family="Arial" font-size="12" lengthAdjust="spacing" textLength="3" x="178" y="1000.1318">&#160;</text><text fill="#000000" font-family="Arial" font-size="12" lengthAdjust="spacing" textLength="40" x="181" y="1000.1318">dataset</text><text fill="#000000" font-family="Arial" font-size="12" lengthAdjust="spacing" textLength="3" x="221" y="1000.1318">&#160;</text><text fill="#000000" font-family="Arial" font-size="12" lengthAdjust="spacing" textLength="37" x="224" y="1000.1318">gallery</text><polygon fill="#000000" points="273.5,1052.4736,283.5,1056.4736,273.5,1060.4736,277.5,1056.4736" style="stroke:#000000;stroke-width:1.0;"/><line style="stroke:#000000;stroke-width:1.5;" x1="107.5" x2="279.5" y1="1056.4736" y2="1056.4736"/><text fill="#000000" font-family="Arial" font-size="12" lengthAdjust="spacing" textLength="27" x="142" y="1043.9307">View</text><text fill="#000000" font-family="Arial" font-size="12" lengthAdjust="spacing" textLength="3" x="169" y="1043.9307">&#160;</text><text fill="#000000" font-family="Arial" font-size="12" lengthAdjust="spacing" textLength="40" x="172" y="1043.9307">dataset</text><text fill="#000000" font-family="Arial" font-size="12" lengthAdjust="spacing" textLength="3" x="212" y="1043.9307">&#160;</text><text fill="#000000" font-family="Arial" font-size="12" lengthAdjust="spacing" textLength="36" x="215" y="1043.9307">details</text><polygon fill="#000000" points="451.5,1096.2725,461.5,1100.2725,451.5,1104.2725,455.5,1100.2725" style="stroke:#000000;stroke-width:1.0;"/><line style="stroke:#000000;stroke-width:1.5;" x1="295.5" x2="457.5" y1="1100.2725" y2="1100.2725"/><text fill="#000000" font-family="Arial" font-size="12" lengthAdjust="spacing" textLength="24" x="313" y="1087.7295">GET</text><text fill="#000000" font-family="Arial" font-size="12" lengthAdjust="spacing" textLength="3" x="337" y="1087.7295">&#160;</text><text fill="#000000" font-family="Arial" font-size="12" lengthAdjust="spacing" textLength="106" x="340" y="1087.7295">/api/v1/datasets/{id}</text><polygon fill="#000000" points="764,1140.0713,774,1144.0713,764,1148.0713,768,1144.0713" style="stroke:#000000;stroke-width:1.0;"/><line style="stroke:#000000;stroke-width:1.5;" x1="473.5" x2="770" y1="1144.0713" y2="1144.0713"/><text fill="#000000" font-family="Arial" font-size="12" lengthAdjust="spacing" textLength="30" x="561.25" y="1131.5283">Fetch</text><text fill="#000000" font-family="Arial" font-size="12" lengthAdjust="spacing" textLength="3" x="591.25" y="1131.5283">&#160;</text><text fill="#000000" font-family="Arial" font-size="12" lengthAdjust="spacing" textLength="40" x="594.25" y="1131.5283">dataset</text><text fill="#000000" font-family="Arial" font-size="12" lengthAdjust="spacing" textLength="3" x="634.25" y="1131.5283">&#160;</text><text fill="#000000" font-family="Arial" font-size="12" lengthAdjust="spacing" textLength="51" x="637.25" y="1131.5283">metadata</text><polygon fill="#000000" points="484.5,1183.8701,474.5,1187.8701,484.5,1191.8701,480.5,1187.8701" style="stroke:#000000;stroke-width:1.0;"/><line style="stroke:#000000;stroke-width:1.5;stroke-dasharray:2.0,2.0;" x1="478.5" x2="775" y1="1187.8701" y2="1187.8701"/><text fill="#000000" font-family="Arial" font-size="12" lengthAdjust="spacing" textLength="37" x="584.75" y="1175.3271">Return</text><text fill="#000000" font-family="Arial" font-size="12" lengthAdjust="spacing" textLength="3" x="621.75" y="1175.3271">&#160;</text><text fill="#000000" font-family="Arial" font-size="12" lengthAdjust="spacing" textLength="40" x="624.75" y="1175.3271">dataset</text><polygon fill="#000000" points="638.5,1227.6689,648.5,1231.6689,638.5,1235.6689,642.5,1231.6689" style="stroke:#000000;stroke-width:1.0;"/><line style="stroke:#000000;stroke-width:1.5;" x1="473.5" x2="644.5" y1="1231.6689" y2="1231.6689"/><text fill="#000000" font-family="Arial" font-size="12" lengthAdjust="spacing" textLength="19" x="509.5" y="1219.126">Get</text><text fill="#000000" font-family="Arial" font-size="12" lengthAdjust="spacing" textLength="3" x="528.5" y="1219.126">&#160;</text><text fill="#000000" font-family="Arial" font-size="12" lengthAdjust="spacing" textLength="40" x="531.5" y="1219.126">dataset</text><text fill="#000000" font-family="Arial" font-size="12" lengthAdjust="spacing" textLength="3" x="571.5" y="1219.126">&#160;</text><text fill="#000000" font-family="Arial" font-size="12" lengthAdjust="spacing" textLength="40" x="574.5" y="1219.126">sample</text><polygon fill="#000000" points="484.5,1271.4678,474.5,1275.4678,484.5,1279.4678,480.5,1275.4678" style="stroke:#000000;stroke-width:1.0;"/><line style="stroke:#000000;stroke-width:1.5;stroke-dasharray:2.0,2.0;" x1="478.5" x2="649.5" y1="1275.4678" y2="1275.4678"/><text fill="#000000" font-family="Arial" font-size="12" lengthAdjust="spacing" textLength="37" x="508.5" y="1262.9248">Return</text><text fill="#000000" font-family="Arial" font-size="12" lengthAdjust="spacing" textLength="3" x="545.5" y="1262.9248">&#160;</text><text fill="#000000" font-family="Arial" font-size="12" lengthAdjust="spacing" textLength="40" x="548.5" y="1262.9248">sample</text><text fill="#000000" font-family="Arial" font-size="12" lengthAdjust="spacing" textLength="3" x="588.5" y="1262.9248">&#160;</text><text fill="#000000" font-family="Arial" font-size="12" lengthAdjust="spacing" textLength="24" x="591.5" y="1262.9248">data</text><polygon fill="#000000" points="306.5,1315.2666,296.5,1319.2666,306.5,1323.2666,302.5,1319.2666" style="stroke:#000000;stroke-width:1.0;"/><line style="stroke:#000000;stroke-width:1.5;stroke-dasharray:2.0,2.0;" x1="300.5" x2="467.5" y1="1319.2666" y2="1319.2666"/><text fill="#000000" font-family="Arial" font-size="12" lengthAdjust="spacing" textLength="37" x="321.5" y="1306.7236">Return</text><text fill="#000000" font-family="Arial" font-size="12" lengthAdjust="spacing" textLength="3" x="358.5" y="1306.7236">&#160;</text><text fill="#000000" font-family="Arial" font-size="12" lengthAdjust="spacing" textLength="54" x="361.5" y="1306.7236">combined</text><text fill="#000000" font-family="Arial" font-size="12" lengthAdjust="spacing" textLength="3" x="415.5" y="1306.7236">&#160;</text><text fill="#000000" font-family="Arial" font-size="12" lengthAdjust="spacing" textLength="24" x="418.5" y="1306.7236">data</text><polygon fill="#000000" points="118.5,1359.0654,108.5,1363.0654,118.5,1367.0654,114.5,1363.0654" style="stroke:#000000;stroke-width:1.0;"/><line style="stroke:#000000;stroke-width:1.5;stroke-dasharray:2.0,2.0;" x1="112.5" x2="289.5" y1="1363.0654" y2="1363.0654"/><text fill="#000000" font-family="Arial" font-size="12" lengthAdjust="spacing" textLength="41" x="137.5" y="1350.5225">Display</text><text fill="#000000" font-family="Arial" font-size="12" lengthAdjust="spacing" textLength="3" x="178.5" y="1350.5225">&#160;</text><text fill="#000000" font-family="Arial" font-size="12" lengthAdjust="spacing" textLength="40" x="181.5" y="1350.5225">dataset</text><text fill="#000000" font-family="Arial" font-size="12" lengthAdjust="spacing" textLength="3" x="221.5" y="1350.5225">&#160;</text><text fill="#000000" font-family="Arial" font-size="12" lengthAdjust="spacing" textLength="36" x="224.5" y="1350.5225">details</text><rect fill="none" height="383.085" id="_legend" rx="4" ry="4" style="stroke:#000000;stroke-width:1.0;" width="355" x="643.5" y="1485.1641"/><text fill="#000000" font-family="Arial" font-size="14" font-weight="bold" lengthAdjust="spacing" textLength="78" x="668.5" y="1521.2959">Entity Type</text><text fill="#000000" font-family="Arial" font-size="14" font-weight="bold" lengthAdjust="spacing" textLength="79" x="770.5" y="1521.2959">Description</text><rect fill="#E9F7EF" height="32.0986" style="stroke:none;stroke-width:1.0;" width="102" x="656.5" y="1532.2627"/><text fill="#000000" font-family="Arial" font-size="14" lengthAdjust="spacing" textLength="4" x="664.5" y="1553.3945">&#160;</text><text fill="#000000" font-family="Arial" font-size="14" lengthAdjust="spacing" textLength="203" x="770.5" y="1553.3945">Frontend - Web/UI Components</text><rect fill="#EBF5FB" height="32.0986" style="stroke:none;stroke-width:1.0;" width="102" x="656.5" y="1564.3613"/><text fill="#000000" font-family="Arial" font-size="14" lengthAdjust="spacing" textLength="4" x="664.5" y="1585.4932">&#160;</text><text fill="#000000" font-family="Arial" font-size="14" lengthAdjust="spacing" textLength="148" x="770.5" y="1585.4932">API - Backend Services</text><rect fill="#F9EBEA" height="32.0986" style="stroke:none;stroke-width:1.0;" width="102" x="656.5" y="1596.46"/><text fill="#000000" font-family="Arial" font-size="14" lengthAdjust="spacing" textLength="4" x="664.5" y="1617.5918">&#160;</text><text fill="#000000" font-family="Arial" font-size="14" lengthAdjust="spacing" textLength="190" x="770.5" y="1617.5918">Auth - Authentication Services</text><rect fill="#F4ECF7" height="32.0986" style="stroke:none;stroke-width:1.0;" width="102" x="656.5" y="1628.5586"/><text fill="#000000" font-family="Arial" font-size="14" lengthAdjust="spacing" textLength="4" x="664.5" y="1649.6904">&#160;</text><text fill="#000000" font-family="Arial" font-size="14" lengthAdjust="spacing" textLength="158" x="770.5" y="1649.6904">Database - Data Storage</text><rect fill="#FEF9E7" height="32.0986" style="stroke:none;stroke-width:1.0;" width="102" x="656.5" y="1660.6572"/><text fill="#000000" font-family="Arial" font-size="14" lengthAdjust="spacing" textLength="4" x="664.5" y="1681.7891">&#160;</text><text fill="#000000" font-family="Arial" font-size="14" lengthAdjust="spacing" textLength="181" x="770.5" y="1681.7891">External - 3rd Party Services</text><rect fill="#FADBD8" height="32.0986" style="stroke:none;stroke-width:1.0;" width="102" x="656.5" y="1692.7559"/><text fill="#000000" font-family="Arial" font-size="14" lengthAdjust="spacing" textLength="4" x="664.5" y="1713.8877">&#160;</text><text fill="#000000" font-family="Arial" font-size="14" lengthAdjust="spacing" textLength="170" x="770.5" y="1713.8877">Contract - Smart Contracts</text><rect fill="#FCF3CF" height="32.0986" style="stroke:none;stroke-width:1.0;" width="102" x="656.5" y="1724.8545"/><text fill="#000000" font-family="Arial" font-size="14" lengthAdjust="spacing" textLength="4" x="664.5" y="1745.9863">&#160;</text><text fill="#000000" font-family="Arial" font-size="14" lengthAdjust="spacing" textLength="168" x="770.5" y="1745.9863">Queue - Message Queues</text><rect fill="#D6EAF8" height="32.0986" style="stroke:none;stroke-width:1.0;" width="102" x="656.5" y="1756.9531"/><text fill="#000000" font-family="Arial" font-size="14" lengthAdjust="spacing" textLength="4" x="664.5" y="1778.085">&#160;</text><text fill="#000000" font-family="Arial" font-size="14" lengthAdjust="spacing" textLength="171" x="770.5" y="1778.085">Operator - Validator Nodes</text><rect fill="#D4EFDF" height="32.0986" style="stroke:none;stroke-width:1.0;" width="102" x="656.5" y="1789.0518"/><text fill="#000000" font-family="Arial" font-size="14" lengthAdjust="spacing" textLength="4" x="664.5" y="1810.1836">&#160;</text><text fill="#000000" font-family="Arial" font-size="14" lengthAdjust="spacing" textLength="197" x="770.5" y="1810.1836">Evaluator - Evaluation Services</text><rect fill="#F5EEF8" height="32.0986" style="stroke:none;stroke-width:1.0;" width="102" x="656.5" y="1821.1504"/><text fill="#000000" font-family="Arial" font-size="14" lengthAdjust="spacing" textLength="4" x="664.5" y="1842.2822">&#160;</text><text fill="#000000" font-family="Arial" font-size="14" lengthAdjust="spacing" textLength="171" x="770.5" y="1842.2822">Storage - Storage Services</text><line style="stroke:#000000;stroke-width:1.0;" x1="656.5" x2="985.5" y1="1500.1641" y2="1500.1641"/><line style="stroke:#000000;stroke-width:1.0;" x1="656.5" x2="985.5" y1="1532.2627" y2="1532.2627"/><line style="stroke:#000000;stroke-width:1.0;" x1="656.5" x2="985.5" y1="1564.3613" y2="1564.3613"/><line style="stroke:#000000;stroke-width:1.0;" x1="656.5" x2="985.5" y1="1596.46" y2="1596.46"/><line style="stroke:#000000;stroke-width:1.0;" x1="656.5" x2="985.5" y1="1628.5586" y2="1628.5586"/><line style="stroke:#000000;stroke-width:1.0;" x1="656.5" x2="985.5" y1="1660.6572" y2="1660.6572"/><line style="stroke:#000000;stroke-width:1.0;" x1="656.5" x2="985.5" y1="1692.7559" y2="1692.7559"/><line style="stroke:#000000;stroke-width:1.0;" x1="656.5" x2="985.5" y1="1724.8545" y2="1724.8545"/><line style="stroke:#000000;stroke-width:1.0;" x1="656.5" x2="985.5" y1="1756.9531" y2="1756.9531"/><line style="stroke:#000000;stroke-width:1.0;" x1="656.5" x2="985.5" y1="1789.0518" y2="1789.0518"/><line style="stroke:#000000;stroke-width:1.0;" x1="656.5" x2="985.5" y1="1821.1504" y2="1821.1504"/><line style="stroke:#000000;stroke-width:1.0;" x1="656.5" x2="985.5" y1="1853.249" y2="1853.249"/><line style="stroke:#000000;stroke-width:1.0;" x1="656.5" x2="656.5" y1="1500.1641" y2="1853.249"/><line style="stroke:#000000;stroke-width:1.0;" x1="758.5" x2="758.5" y1="1500.1641" y2="1853.249"/><line style="stroke:#000000;stroke-width:1.0;" x1="985.5" x2="985.5" y1="1500.1641" y2="1853.249"/><!--SRC=[jPHFJ-Cm4CNl_XIptBlLghS8LIhRBUB0BYB0dgV942pvJsGxhIh4TyTERTFGi5iXSKaSvRtdcT_4-SPL9RgQeD9IQZMnRYVeUzj9mPZZJX0iqQ4b1zUei259oi5Aw2rZM3bjO55BhkBwtf9XBHh7AzwY5vujd40BAwEL8rMVmS43d9-dvNm-vbhSNFK6V_TQVpsI_IsXdFMQSkObfQ_1b_XUTgrLevSNlIwklJYqjVQDlLUdTc-fuTQPNMzB3uDD6EjxXyayzrJ0Rzpm1Xs1qr37A9d9ZJdkMw6npk97BiW6ddmJOfAEPMm3ymCANWTTjciZqGtKdbm1Dt_AEvXYowUR7zCeFjZ6QrZWdEH7kP8SXdLIbRCFAlUJcAIKdrezSYEXwuN96cTGG40viaEQqL6CtQDFEMaeHLoHoLcUiOblMPxTKLwKeEDQxKC7R6_9TKQ1xQgAh6Kr3MYz4GwnOQo-eIUzJNhVZxMXsWDV7YOB9sKuoGkZjvO0DyW5haNcyhzleU_eyjU9mytiL-IgfnFOHmWvz4DCAKfufFza5LelOCbjAt2NRGqAGNvQ9z9wuBJDtjfNpyMdGKsVUVto5RGEpyfbg3FwBSfMqE2af6-jVmDl1ssCjFzJhxcY_S7x1Eg4QmJrAm00]--></g></svg>