<?xml version="1.0" encoding="us-ascii" standalone="no"?><svg xmlns="http://www.w3.org/2000/svg" xmlns:xlink="http://www.w3.org/1999/xlink" contentStyleType="text/css" height="1355px" preserveAspectRatio="none" style="width:1062px;height:1355px;background:#FFFFFF;" version="1.1" viewBox="0 0 1062 1355" width="1062px" zoomAndPan="magnify"><defs/><g><text fill="#303030" font-family="Arial" font-size="16" font-weight="bold" lengthAdjust="spacing" textLength="223" x="415.75" y="37.8516">User Authentication Flow</text><rect fill="#F8F8F8" height="219.8438" style="stroke:#000000;stroke-width:1.0;" width="10" x="232.5" y="198.8906"/><rect fill="#F8F8F8" height="364.75" style="stroke:#000000;stroke-width:1.0;" width="10" x="232.5" y="462.7031"/><rect fill="#F8F8F8" height="276.8125" style="stroke:#000000;stroke-width:1.0;" width="10" x="591" y="506.6719"/><rect fill="#F8F8F8" height="43.9688" style="stroke:#000000;stroke-width:1.0;" width="10" x="827" y="286.8281"/><line style="stroke:#000000;stroke-width:0.5;stroke-dasharray:5.0,5.0;" x1="34" x2="34" y1="152.9219" y2="845.4531"/><line style="stroke:#000000;stroke-width:0.5;stroke-dasharray:5.0,5.0;" x1="237" x2="237" y1="152.9219" y2="845.4531"/><line style="stroke:#000000;stroke-width:0.5;stroke-dasharray:5.0,5.0;" x1="456" x2="456" y1="152.9219" y2="845.4531"/><line style="stroke:#000000;stroke-width:0.5;stroke-dasharray:5.0,5.0;" x1="596" x2="596" y1="152.9219" y2="845.4531"/><line style="stroke:#000000;stroke-width:0.5;stroke-dasharray:5.0,5.0;" x1="831.5" x2="831.5" y1="152.9219" y2="845.4531"/><line style="stroke:#000000;stroke-width:0.5;stroke-dasharray:5.0,5.0;" x1="984.5" x2="984.5" y1="152.9219" y2="845.4531"/><text fill="#000000" font-family="Arial" font-size="14" font-weight="bold" lengthAdjust="spacing" textLength="37" x="13" y="141.6201">User</text><ellipse cx="34.5" cy="69.125" fill="#FFFFFF" rx="8" ry="8" style="stroke:#454545;stroke-width:0.5;"/><path d="M34.5,77.125 L34.5,104.125 M21.5,85.125 L47.5,85.125 M34.5,104.125 L21.5,119.125 M34.5,104.125 L47.5,119.125 " fill="none" style="stroke:#454545;stroke-width:0.5;"/><text fill="#000000" font-family="Arial" font-size="14" font-weight="bold" lengthAdjust="spacing" textLength="37" x="13" y="865.4482">User</text><ellipse cx="34.5" cy="885.25" fill="#FFFFFF" rx="8" ry="8" style="stroke:#454545;stroke-width:0.5;"/><path d="M34.5,893.25 L34.5,920.25 M21.5,901.25 L47.5,901.25 M34.5,920.25 L21.5,935.25 M34.5,920.25 L47.5,935.25 " fill="none" style="stroke:#454545;stroke-width:0.5;"/><rect fill="#E9F7EF" height="56.7734" rx="4" ry="4" style="stroke:#27AE60;stroke-width:2.0;" width="139" x="168" y="95.1484"/><text fill="#000000" font-family="Arial" font-size="10" font-weight="bold" lengthAdjust="spacing" textLength="63" x="206" y="119.4307">&#171;Frontend&#187;</text><text fill="#000000" font-family="Arial" font-size="13" font-weight="bold" lengthAdjust="spacing" textLength="109" x="183" y="133.856">Atlas Frontend</text><rect fill="#E9F7EF" height="56.7734" rx="4" ry="4" style="stroke:#27AE60;stroke-width:2.0;" width="139" x="168" y="844.4531"/><text fill="#000000" font-family="Arial" font-size="10" font-weight="bold" lengthAdjust="spacing" textLength="63" x="206" y="868.7354">&#171;Frontend&#187;</text><text fill="#000000" font-family="Arial" font-size="13" font-weight="bold" lengthAdjust="spacing" textLength="109" x="183" y="883.1606">Atlas Frontend</text><rect fill="#F9EBEA" height="56.7734" rx="4" ry="4" style="stroke:#E74C3C;stroke-width:2.0;" width="103" x="405" y="95.1484"/><text fill="#000000" font-family="Arial" font-size="10" font-weight="bold" lengthAdjust="spacing" textLength="40" x="436.5" y="119.4307">&#171;Auth&#187;</text><text fill="#000000" font-family="Arial" font-size="13" font-weight="bold" lengthAdjust="spacing" textLength="73" x="420" y="133.856">Next Auth</text><rect fill="#F9EBEA" height="56.7734" rx="4" ry="4" style="stroke:#E74C3C;stroke-width:2.0;" width="103" x="405" y="844.4531"/><text fill="#000000" font-family="Arial" font-size="10" font-weight="bold" lengthAdjust="spacing" textLength="40" x="436.5" y="868.7354">&#171;Auth&#187;</text><text fill="#000000" font-family="Arial" font-size="13" font-weight="bold" lengthAdjust="spacing" textLength="73" x="420" y="883.1606">Next Auth</text><rect fill="#EBF5FB" height="56.7734" rx="4" ry="4" style="stroke:#3498DB;stroke-width:2.0;" width="96" x="548" y="95.1484"/><text fill="#000000" font-family="Arial" font-size="10" font-weight="bold" lengthAdjust="spacing" textLength="31" x="580.5" y="119.4307">&#171;API&#187;</text><text fill="#000000" font-family="Arial" font-size="13" font-weight="bold" lengthAdjust="spacing" textLength="66" x="563" y="133.856">Atlas API</text><rect fill="#EBF5FB" height="56.7734" rx="4" ry="4" style="stroke:#3498DB;stroke-width:2.0;" width="96" x="548" y="844.4531"/><text fill="#000000" font-family="Arial" font-size="10" font-weight="bold" lengthAdjust="spacing" textLength="31" x="580.5" y="868.7354">&#171;API&#187;</text><text fill="#000000" font-family="Arial" font-size="13" font-weight="bold" lengthAdjust="spacing" textLength="66" x="563" y="883.1606">Atlas API</text><rect fill="#FEF9E7" height="56.7734" rx="4" ry="4" style="stroke:#F1C40F;stroke-width:2.0;" width="125" x="769.5" y="95.1484"/><text fill="#000000" font-family="Arial" font-size="10" font-weight="bold" lengthAdjust="spacing" textLength="59" x="802.5" y="119.4307">&#171;External&#187;</text><text fill="#000000" font-family="Arial" font-size="13" font-weight="bold" lengthAdjust="spacing" textLength="95" x="784.5" y="133.856">AWS Cognito</text><rect fill="#FEF9E7" height="56.7734" rx="4" ry="4" style="stroke:#F1C40F;stroke-width:2.0;" width="125" x="769.5" y="844.4531"/><text fill="#000000" font-family="Arial" font-size="10" font-weight="bold" lengthAdjust="spacing" textLength="59" x="802.5" y="868.7354">&#171;External&#187;</text><text fill="#000000" font-family="Arial" font-size="13" font-weight="bold" lengthAdjust="spacing" textLength="95" x="784.5" y="883.1606">AWS Cognito</text><rect fill="#F4ECF7" height="56.7734" rx="4" ry="4" style="stroke:#8E44AD;stroke-width:2.0;" width="101" x="934.5" y="95.1484"/><text fill="#000000" font-family="Arial" font-size="10" font-weight="bold" lengthAdjust="spacing" textLength="66" x="952" y="119.4307">&#171;Database&#187;</text><text fill="#000000" font-family="Arial" font-size="13" font-weight="bold" lengthAdjust="spacing" textLength="71" x="949.5" y="133.856">Database</text><rect fill="#F4ECF7" height="56.7734" rx="4" ry="4" style="stroke:#8E44AD;stroke-width:2.0;" width="101" x="934.5" y="844.4531"/><text fill="#000000" font-family="Arial" font-size="10" font-weight="bold" lengthAdjust="spacing" textLength="66" x="952" y="868.7354">&#171;Database&#187;</text><text fill="#000000" font-family="Arial" font-size="13" font-weight="bold" lengthAdjust="spacing" textLength="71" x="949.5" y="883.1606">Database</text><rect fill="#F8F8F8" height="219.8438" style="stroke:#000000;stroke-width:1.0;" width="10" x="232.5" y="198.8906"/><rect fill="#F8F8F8" height="364.75" style="stroke:#000000;stroke-width:1.0;" width="10" x="232.5" y="462.7031"/><rect fill="#F8F8F8" height="276.8125" style="stroke:#000000;stroke-width:1.0;" width="10" x="591" y="506.6719"/><rect fill="#F8F8F8" height="43.9688" style="stroke:#000000;stroke-width:1.0;" width="10" x="827" y="286.8281"/><polygon fill="#000000" points="220.5,194.8906,230.5,198.8906,220.5,202.8906,224.5,198.8906" style="stroke:#000000;stroke-width:1.0;"/><line style="stroke:#000000;stroke-width:1.5;" x1="34.5" x2="226.5" y1="198.8906" y2="198.8906"/><text fill="#000000" font-family="Arial" font-size="12" lengthAdjust="spacing" textLength="33" x="52" y="186.0605">Login</text><text fill="#000000" font-family="Arial" font-size="12" lengthAdjust="spacing" textLength="4" x="85" y="186.0605">&#160;</text><text fill="#000000" font-family="Arial" font-size="12" lengthAdjust="spacing" textLength="25" x="89" y="186.0605">with</text><text fill="#000000" font-family="Arial" font-size="12" lengthAdjust="spacing" textLength="4" x="114" y="186.0605">&#160;</text><text fill="#000000" font-family="Arial" font-size="12" lengthAdjust="spacing" textLength="97" x="118" y="186.0605">email/password</text><polygon fill="#000000" points="444.5,238.8594,454.5,242.8594,444.5,246.8594,448.5,242.8594" style="stroke:#000000;stroke-width:1.0;"/><line style="stroke:#000000;stroke-width:1.5;" x1="242.5" x2="450.5" y1="242.8594" y2="242.8594"/><text fill="#000000" font-family="Arial" font-size="12" lengthAdjust="spacing" textLength="43" x="291" y="230.0293">Submit</text><text fill="#000000" font-family="Arial" font-size="12" lengthAdjust="spacing" textLength="4" x="334" y="230.0293">&#160;</text><text fill="#000000" font-family="Arial" font-size="12" lengthAdjust="spacing" textLength="70" x="338" y="230.0293">credentials</text><polygon fill="#000000" points="815,282.8281,825,286.8281,815,290.8281,819,286.8281" style="stroke:#000000;stroke-width:1.0;"/><line style="stroke:#000000;stroke-width:1.5;" x1="456.5" x2="821" y1="286.8281" y2="286.8281"/><text fill="#000000" font-family="Arial" font-size="12" lengthAdjust="spacing" textLength="81" x="585.25" y="273.998">Authenticate</text><text fill="#000000" font-family="Arial" font-size="12" lengthAdjust="spacing" textLength="4" x="666.25" y="273.998">&#160;</text><text fill="#000000" font-family="Arial" font-size="12" lengthAdjust="spacing" textLength="28" x="670.25" y="273.998">user</text><polygon fill="#000000" points="467.5,326.7969,457.5,330.7969,467.5,334.7969,463.5,330.7969" style="stroke:#000000;stroke-width:1.0;"/><line style="stroke:#000000;stroke-width:1.5;stroke-dasharray:2.0,2.0;" x1="461.5" x2="831" y1="330.7969" y2="330.7969"/><text fill="#000000" font-family="Arial" font-size="12" lengthAdjust="spacing" textLength="42" x="590.75" y="317.9668">Return</text><text fill="#000000" font-family="Arial" font-size="12" lengthAdjust="spacing" textLength="4" x="632.75" y="317.9668">&#160;</text><text fill="#000000" font-family="Arial" font-size="12" lengthAdjust="spacing" textLength="21" x="636.75" y="317.9668">JWT</text><text fill="#000000" font-family="Arial" font-size="12" lengthAdjust="spacing" textLength="4" x="657.75" y="317.9668">&#160;</text><text fill="#000000" font-family="Arial" font-size="12" lengthAdjust="spacing" textLength="36" x="661.75" y="317.9668">token</text><polygon fill="#000000" points="253.5,370.7656,243.5,374.7656,253.5,378.7656,249.5,374.7656" style="stroke:#000000;stroke-width:1.0;"/><line style="stroke:#000000;stroke-width:1.5;stroke-dasharray:2.0,2.0;" x1="247.5" x2="455.5" y1="374.7656" y2="374.7656"/><text fill="#000000" font-family="Arial" font-size="12" lengthAdjust="spacing" textLength="34" x="262.5" y="361.9355">Store</text><text fill="#000000" font-family="Arial" font-size="12" lengthAdjust="spacing" textLength="4" x="296.5" y="361.9355">&#160;</text><text fill="#000000" font-family="Arial" font-size="12" lengthAdjust="spacing" textLength="29" x="300.5" y="361.9355">auth</text><text fill="#000000" font-family="Arial" font-size="12" lengthAdjust="spacing" textLength="4" x="329.5" y="361.9355">&#160;</text><text fill="#000000" font-family="Arial" font-size="12" lengthAdjust="spacing" textLength="36" x="333.5" y="361.9355">token</text><text fill="#000000" font-family="Arial" font-size="12" lengthAdjust="spacing" textLength="4" x="369.5" y="361.9355">&#160;</text><text fill="#000000" font-family="Arial" font-size="12" lengthAdjust="spacing" textLength="11" x="373.5" y="361.9355">in</text><text fill="#000000" font-family="Arial" font-size="12" lengthAdjust="spacing" textLength="4" x="384.5" y="361.9355">&#160;</text><text fill="#000000" font-family="Arial" font-size="12" lengthAdjust="spacing" textLength="48" x="388.5" y="361.9355">session</text><polygon fill="#000000" points="45.5,414.7344,35.5,418.7344,45.5,422.7344,41.5,418.7344" style="stroke:#000000;stroke-width:1.0;"/><line style="stroke:#000000;stroke-width:1.5;stroke-dasharray:2.0,2.0;" x1="39.5" x2="236.5" y1="418.7344" y2="418.7344"/><text fill="#000000" font-family="Arial" font-size="12" lengthAdjust="spacing" textLength="52" x="65.5" y="405.9043">Redirect</text><text fill="#000000" font-family="Arial" font-size="12" lengthAdjust="spacing" textLength="4" x="117.5" y="405.9043">&#160;</text><text fill="#000000" font-family="Arial" font-size="12" lengthAdjust="spacing" textLength="13" x="121.5" y="405.9043">to</text><text fill="#000000" font-family="Arial" font-size="12" lengthAdjust="spacing" textLength="4" x="134.5" y="405.9043">&#160;</text><text fill="#000000" font-family="Arial" font-size="12" lengthAdjust="spacing" textLength="68" x="138.5" y="405.9043">dashboard</text><polygon fill="#000000" points="220.5,458.7031,230.5,462.7031,220.5,466.7031,224.5,462.7031" style="stroke:#000000;stroke-width:1.0;"/><line style="stroke:#000000;stroke-width:1.5;" x1="34.5" x2="226.5" y1="462.7031" y2="462.7031"/><text fill="#000000" font-family="Arial" font-size="12" lengthAdjust="spacing" textLength="44" x="59.5" y="449.873">Access</text><text fill="#000000" font-family="Arial" font-size="12" lengthAdjust="spacing" textLength="4" x="103.5" y="449.873">&#160;</text><text fill="#000000" font-family="Arial" font-size="12" lengthAdjust="spacing" textLength="62" x="107.5" y="449.873">protected</text><text fill="#000000" font-family="Arial" font-size="12" lengthAdjust="spacing" textLength="4" x="169.5" y="449.873">&#160;</text><text fill="#000000" font-family="Arial" font-size="12" lengthAdjust="spacing" textLength="34" x="173.5" y="449.873">route</text><polygon fill="#000000" points="579,502.6719,589,506.6719,579,510.6719,583,506.6719" style="stroke:#000000;stroke-width:1.0;"/><line style="stroke:#000000;stroke-width:1.5;" x1="242.5" x2="585" y1="506.6719" y2="506.6719"/><text fill="#000000" font-family="Arial" font-size="12" lengthAdjust="spacing" textLength="52" x="323.25" y="493.8418">Request</text><text fill="#000000" font-family="Arial" font-size="12" lengthAdjust="spacing" textLength="4" x="375.25" y="493.8418">&#160;</text><text fill="#000000" font-family="Arial" font-size="12" lengthAdjust="spacing" textLength="29" x="379.25" y="493.8418">data</text><text fill="#000000" font-family="Arial" font-size="12" lengthAdjust="spacing" textLength="4" x="408.25" y="493.8418">&#160;</text><text fill="#000000" font-family="Arial" font-size="12" lengthAdjust="spacing" textLength="25" x="412.25" y="493.8418">with</text><text fill="#000000" font-family="Arial" font-size="12" lengthAdjust="spacing" textLength="4" x="437.25" y="493.8418">&#160;</text><text fill="#000000" font-family="Arial" font-size="12" lengthAdjust="spacing" textLength="29" x="441.25" y="493.8418">auth</text><text fill="#000000" font-family="Arial" font-size="12" lengthAdjust="spacing" textLength="4" x="470.25" y="493.8418">&#160;</text><text fill="#000000" font-family="Arial" font-size="12" lengthAdjust="spacing" textLength="36" x="474.25" y="493.8418">token</text><line style="stroke:#000000;stroke-width:1.5;" x1="601" x2="643" y1="550.6406" y2="550.6406"/><line style="stroke:#000000;stroke-width:1.5;" x1="643" x2="643" y1="550.6406" y2="563.6406"/><line style="stroke:#000000;stroke-width:1.5;" x1="602" x2="643" y1="563.6406" y2="563.6406"/><polygon fill="#000000" points="612,559.6406,602,563.6406,612,567.6406,608,563.6406" style="stroke:#000000;stroke-width:1.0;"/><text fill="#000000" font-family="Arial" font-size="12" lengthAdjust="spacing" textLength="21" x="616" y="537.8105">JWT</text><text fill="#000000" font-family="Arial" font-size="12" lengthAdjust="spacing" textLength="4" x="637" y="537.8105">&#160;</text><text fill="#000000" font-family="Arial" font-size="12" lengthAdjust="spacing" textLength="71" x="641" y="537.8105">middleware</text><text fill="#000000" font-family="Arial" font-size="12" lengthAdjust="spacing" textLength="4" x="712" y="537.8105">&#160;</text><text fill="#000000" font-family="Arial" font-size="12" lengthAdjust="spacing" textLength="56" x="716" y="537.8105">validates</text><text fill="#000000" font-family="Arial" font-size="12" lengthAdjust="spacing" textLength="4" x="772" y="537.8105">&#160;</text><text fill="#000000" font-family="Arial" font-size="12" lengthAdjust="spacing" textLength="36" x="776" y="537.8105">token</text><polygon fill="#000000" points="820,603.6094,830,607.6094,820,611.6094,824,607.6094" style="stroke:#000000;stroke-width:1.0;"/><line style="stroke:#000000;stroke-width:1.5;" x1="601" x2="826" y1="607.6094" y2="607.6094"/><text fill="#000000" font-family="Arial" font-size="12" lengthAdjust="spacing" textLength="34" x="643" y="594.7793">Verify</text><text fill="#000000" font-family="Arial" font-size="12" lengthAdjust="spacing" textLength="4" x="677" y="594.7793">&#160;</text><text fill="#000000" font-family="Arial" font-size="12" lengthAdjust="spacing" textLength="36" x="681" y="594.7793">token</text><text fill="#000000" font-family="Arial" font-size="12" lengthAdjust="spacing" textLength="4" x="717" y="594.7793">&#160;</text><text fill="#000000" font-family="Arial" font-size="12" lengthAdjust="spacing" textLength="12" x="721" y="594.7793">(if</text><text fill="#000000" font-family="Arial" font-size="12" lengthAdjust="spacing" textLength="4" x="733" y="594.7793">&#160;</text><text fill="#000000" font-family="Arial" font-size="12" lengthAdjust="spacing" textLength="53" x="737" y="594.7793">needed)</text><polygon fill="#000000" points="612,647.5781,602,651.5781,612,655.5781,608,651.5781" style="stroke:#000000;stroke-width:1.0;"/><line style="stroke:#000000;stroke-width:1.5;stroke-dasharray:2.0,2.0;" x1="606" x2="831" y1="651.5781" y2="651.5781"/><text fill="#000000" font-family="Arial" font-size="12" lengthAdjust="spacing" textLength="38" x="661.5" y="638.748">Token</text><text fill="#000000" font-family="Arial" font-size="12" lengthAdjust="spacing" textLength="4" x="699.5" y="638.748">&#160;</text><text fill="#000000" font-family="Arial" font-size="12" lengthAdjust="spacing" textLength="68" x="703.5" y="638.748">verification</text><polygon fill="#000000" points="973,691.5469,983,695.5469,973,699.5469,977,695.5469" style="stroke:#000000;stroke-width:1.0;"/><line style="stroke:#000000;stroke-width:1.5;" x1="601" x2="979" y1="695.5469" y2="695.5469"/><text fill="#000000" font-family="Arial" font-size="12" lengthAdjust="spacing" textLength="35" x="724" y="682.7168">Fetch</text><text fill="#000000" font-family="Arial" font-size="12" lengthAdjust="spacing" textLength="4" x="759" y="682.7168">&#160;</text><text fill="#000000" font-family="Arial" font-size="12" lengthAdjust="spacing" textLength="66" x="763" y="682.7168">authorized</text><text fill="#000000" font-family="Arial" font-size="12" lengthAdjust="spacing" textLength="4" x="829" y="682.7168">&#160;</text><text fill="#000000" font-family="Arial" font-size="12" lengthAdjust="spacing" textLength="29" x="833" y="682.7168">data</text><polygon fill="#000000" points="612,735.5156,602,739.5156,612,743.5156,608,739.5156" style="stroke:#000000;stroke-width:1.0;"/><line style="stroke:#000000;stroke-width:1.5;stroke-dasharray:2.0,2.0;" x1="606" x2="984" y1="739.5156" y2="739.5156"/><text fill="#000000" font-family="Arial" font-size="12" lengthAdjust="spacing" textLength="42" x="755.5" y="726.6855">Return</text><text fill="#000000" font-family="Arial" font-size="12" lengthAdjust="spacing" textLength="4" x="797.5" y="726.6855">&#160;</text><text fill="#000000" font-family="Arial" font-size="12" lengthAdjust="spacing" textLength="29" x="801.5" y="726.6855">data</text><polygon fill="#000000" points="253.5,779.4844,243.5,783.4844,253.5,787.4844,249.5,783.4844" style="stroke:#000000;stroke-width:1.0;"/><line style="stroke:#000000;stroke-width:1.5;stroke-dasharray:2.0,2.0;" x1="247.5" x2="595" y1="783.4844" y2="783.4844"/><text fill="#000000" font-family="Arial" font-size="12" lengthAdjust="spacing" textLength="42" x="346.75" y="770.6543">Return</text><text fill="#000000" font-family="Arial" font-size="12" lengthAdjust="spacing" textLength="4" x="388.75" y="770.6543">&#160;</text><text fill="#000000" font-family="Arial" font-size="12" lengthAdjust="spacing" textLength="66" x="392.75" y="770.6543">authorized</text><text fill="#000000" font-family="Arial" font-size="12" lengthAdjust="spacing" textLength="4" x="458.75" y="770.6543">&#160;</text><text fill="#000000" font-family="Arial" font-size="12" lengthAdjust="spacing" textLength="29" x="462.75" y="770.6543">data</text><polygon fill="#000000" points="45.5,823.4531,35.5,827.4531,45.5,831.4531,41.5,827.4531" style="stroke:#000000;stroke-width:1.0;"/><line style="stroke:#000000;stroke-width:1.5;stroke-dasharray:2.0,2.0;" x1="39.5" x2="236.5" y1="827.4531" y2="827.4531"/><text fill="#000000" font-family="Arial" font-size="12" lengthAdjust="spacing" textLength="44" x="87.5" y="814.623">Display</text><text fill="#000000" font-family="Arial" font-size="12" lengthAdjust="spacing" textLength="4" x="131.5" y="814.623">&#160;</text><text fill="#000000" font-family="Arial" font-size="12" lengthAdjust="spacing" textLength="49" x="135.5" y="814.623">content</text><rect fill="none" height="385.2656" id="_legend" rx="4" ry="4" style="stroke:#000000;stroke-width:1.0;" width="383" x="659.5" y="949.75"/><text fill="#000000" font-family="Arial" font-size="14" font-weight="bold" lengthAdjust="spacing" textLength="88" x="685.5" y="985.7451">Entity Type</text><text fill="#000000" font-family="Arial" font-size="14" font-weight="bold" lengthAdjust="spacing" textLength="90" x="799.5" y="985.7451">Description</text><rect fill="#E9F7EF" height="32.2969" style="stroke:none;stroke-width:1.0;" width="114" x="672.5" y="997.0469"/><text fill="#000000" font-family="Arial" font-size="14" lengthAdjust="spacing" textLength="4" x="680.5" y="1018.042">&#160;</text><text fill="#000000" font-family="Arial" font-size="14" lengthAdjust="spacing" textLength="219" x="798.5" y="1018.042">Frontend - Web/UI Components</text><rect fill="#EBF5FB" height="32.2969" style="stroke:none;stroke-width:1.0;" width="114" x="672.5" y="1029.3438"/><text fill="#000000" font-family="Arial" font-size="14" lengthAdjust="spacing" textLength="4" x="680.5" y="1050.3389">&#160;</text><text fill="#000000" font-family="Arial" font-size="14" lengthAdjust="spacing" textLength="157" x="798.5" y="1050.3389">API - Backend Services</text><rect fill="#F9EBEA" height="32.2969" style="stroke:none;stroke-width:1.0;" width="114" x="672.5" y="1061.6406"/><text fill="#000000" font-family="Arial" font-size="14" lengthAdjust="spacing" textLength="4" x="680.5" y="1082.6357">&#160;</text><text fill="#000000" font-family="Arial" font-size="14" lengthAdjust="spacing" textLength="207" x="798.5" y="1082.6357">Auth - Authentication Services</text><rect fill="#F4ECF7" height="32.2969" style="stroke:none;stroke-width:1.0;" width="114" x="672.5" y="1093.9375"/><text fill="#000000" font-family="Arial" font-size="14" lengthAdjust="spacing" textLength="4" x="680.5" y="1114.9326">&#160;</text><text fill="#000000" font-family="Arial" font-size="14" lengthAdjust="spacing" textLength="169" x="798.5" y="1114.9326">Database - Data Storage</text><rect fill="#FEF9E7" height="32.2969" style="stroke:none;stroke-width:1.0;" width="114" x="672.5" y="1126.2344"/><text fill="#000000" font-family="Arial" font-size="14" lengthAdjust="spacing" textLength="4" x="680.5" y="1147.2295">&#160;</text><text fill="#000000" font-family="Arial" font-size="14" lengthAdjust="spacing" textLength="191" x="798.5" y="1147.2295">External - 3rd Party Services</text><rect fill="#FADBD8" height="32.2969" style="stroke:none;stroke-width:1.0;" width="114" x="672.5" y="1158.5313"/><text fill="#000000" font-family="Arial" font-size="14" lengthAdjust="spacing" textLength="4" x="680.5" y="1179.5264">&#160;</text><text fill="#000000" font-family="Arial" font-size="14" lengthAdjust="spacing" textLength="183" x="798.5" y="1179.5264">Contract - Smart Contracts</text><rect fill="#FCF3CF" height="32.2969" style="stroke:none;stroke-width:1.0;" width="114" x="672.5" y="1190.8281"/><text fill="#000000" font-family="Arial" font-size="14" lengthAdjust="spacing" textLength="4" x="680.5" y="1211.8232">&#160;</text><text fill="#000000" font-family="Arial" font-size="14" lengthAdjust="spacing" textLength="182" x="798.5" y="1211.8232">Queue - Message Queues</text><rect fill="#D6EAF8" height="32.2969" style="stroke:none;stroke-width:1.0;" width="114" x="672.5" y="1223.125"/><text fill="#000000" font-family="Arial" font-size="14" lengthAdjust="spacing" textLength="4" x="680.5" y="1244.1201">&#160;</text><text fill="#000000" font-family="Arial" font-size="14" lengthAdjust="spacing" textLength="182" x="798.5" y="1244.1201">Operator - Validator Nodes</text><rect fill="#D4EFDF" height="32.2969" style="stroke:none;stroke-width:1.0;" width="114" x="672.5" y="1255.4219"/><text fill="#000000" font-family="Arial" font-size="14" lengthAdjust="spacing" textLength="4" x="680.5" y="1276.417">&#160;</text><text fill="#000000" font-family="Arial" font-size="14" lengthAdjust="spacing" textLength="208" x="798.5" y="1276.417">Evaluator - Evaluation Services</text><rect fill="#F5EEF8" height="32.2969" style="stroke:none;stroke-width:1.0;" width="114" x="672.5" y="1287.7188"/><text fill="#000000" font-family="Arial" font-size="14" lengthAdjust="spacing" textLength="4" x="680.5" y="1308.7139">&#160;</text><text fill="#000000" font-family="Arial" font-size="14" lengthAdjust="spacing" textLength="183" x="798.5" y="1308.7139">Storage - Storage Services</text><line style="stroke:#000000;stroke-width:1.0;" x1="672.5" x2="1029.5" y1="964.75" y2="964.75"/><line style="stroke:#000000;stroke-width:1.0;" x1="672.5" x2="1029.5" y1="997.0469" y2="997.0469"/><line style="stroke:#000000;stroke-width:1.0;" x1="672.5" x2="1029.5" y1="1029.3438" y2="1029.3438"/><line style="stroke:#000000;stroke-width:1.0;" x1="672.5" x2="1029.5" y1="1061.6406" y2="1061.6406"/><line style="stroke:#000000;stroke-width:1.0;" x1="672.5" x2="1029.5" y1="1093.9375" y2="1093.9375"/><line style="stroke:#000000;stroke-width:1.0;" x1="672.5" x2="1029.5" y1="1126.2344" y2="1126.2344"/><line style="stroke:#000000;stroke-width:1.0;" x1="672.5" x2="1029.5" y1="1158.5313" y2="1158.5313"/><line style="stroke:#000000;stroke-width:1.0;" x1="672.5" x2="1029.5" y1="1190.8281" y2="1190.8281"/><line style="stroke:#000000;stroke-width:1.0;" x1="672.5" x2="1029.5" y1="1223.125" y2="1223.125"/><line style="stroke:#000000;stroke-width:1.0;" x1="672.5" x2="1029.5" y1="1255.4219" y2="1255.4219"/><line style="stroke:#000000;stroke-width:1.0;" x1="672.5" x2="1029.5" y1="1287.7188" y2="1287.7188"/><line style="stroke:#000000;stroke-width:1.0;" x1="672.5" x2="1029.5" y1="1320.0156" y2="1320.0156"/><line style="stroke:#000000;stroke-width:1.0;" x1="672.5" x2="672.5" y1="964.75" y2="1320.0156"/><line style="stroke:#000000;stroke-width:1.0;" x1="786.5" x2="786.5" y1="964.75" y2="1320.0156"/><line style="stroke:#000000;stroke-width:1.0;" x1="1029.5" x2="1029.5" y1="964.75" y2="1320.0156"/><!--SRC=[XLF1Rjim3BthAxYUjaFMUr04I9S5Q34CnTAjPyPYMsAov4bqqkphHocsOwS1Th9bliV7zoX_O5-vrX9KeQw3doKvEFhSjBKpHbWSmSz44PQjl98Nhb0uU5Yxi3S6Amcnr4s3KOlSe1UuMeh31EiOl92tLp0wmCrD_xfOJ5dVwKsAJY7aKpue8J_EmKU9vSDT0Uipunxkti6UDl0bl7YMK83TkuA_lWb5Z-wSiKB1BIOgyDMj8lilYZIcX35R37xcy2syi8SzwwXK8xlh1bFQXsXpFBn3eG5iXXIqGszm3fjsMxD05SdcYD4bCxXNO3VpVBm3WZQdFYXq6DFxcqq4Vf2qqSFzqoD8-4tUM7h7F2bEt6rqmmIO2uKAwZLHIde9HcwKaeF9IfOZLQ9Wi9XUjm4rY97S4CM599TLfPsXYK6q1Lc8eHNwJuowz2pxfwKaAYbuNCLfuXDVeIRVb9wLywZPMaTxL9CxTAmDA7My3Zh4_uiYFn-w63xoCtZIXTbFaz1BuyS2sMLyzyFqpLQtSrYJLCS1G-I_QZDFRVIgpKvsohxAzqASnDHLpnkCGiv6BondnQbnUD0_FLVaqbh-0G00]--></g></svg>