<?xml version="1.0" encoding="us-ascii" standalone="no"?><svg xmlns="http://www.w3.org/2000/svg" xmlns:xlink="http://www.w3.org/1999/xlink" contentStyleType="text/css" height="1400px" preserveAspectRatio="none" style="width:977px;height:1400px;background:#FFFFFF;" version="1.1" viewBox="0 0 977 1400" width="977px" zoomAndPan="magnify"><defs/><g><text fill="#303030" font-family="Arial" font-size="16" font-weight="bold" lengthAdjust="spacing" textLength="192" x="388.75" y="38.0078">User Authentication Flow</text><rect fill="#F8F8F8" height="218.9941" style="stroke:#000000;stroke-width:1.0;" width="10" x="224.5" y="249.2446"/><rect fill="#F8F8F8" height="363.3906" style="stroke:#000000;stroke-width:1.0;" width="10" x="224.5" y="512.0376"/><rect fill="#F8F8F8" height="275.793" style="stroke:#000000;stroke-width:1.0;" width="10" x="545" y="555.8364"/><rect fill="#F8F8F8" height="43.7988" style="stroke:#000000;stroke-width:1.0;" width="10" x="761" y="336.8423"/><line style="stroke:#000000;stroke-width:0.5;stroke-dasharray:5.0,5.0;" x1="44" x2="44" y1="152.4971" y2="893.4282"/><line style="stroke:#000000;stroke-width:0.5;stroke-dasharray:5.0,5.0;" x1="229" x2="229" y1="152.4971" y2="893.4282"/><line style="stroke:#000000;stroke-width:0.5;stroke-dasharray:5.0,5.0;" x1="421.5" x2="421.5" y1="152.4971" y2="893.4282"/><line style="stroke:#000000;stroke-width:0.5;stroke-dasharray:5.0,5.0;" x1="549.5" x2="549.5" y1="152.4971" y2="893.4282"/><line style="stroke:#000000;stroke-width:0.5;stroke-dasharray:5.0,5.0;" x1="765.5" x2="765.5" y1="152.4971" y2="893.4282"/><line style="stroke:#000000;stroke-width:0.5;stroke-dasharray:5.0,5.0;" x1="906.5" x2="906.5" y1="152.4971" y2="893.4282"/><text fill="#000000" font-family="Arial" font-size="14" font-weight="bold" lengthAdjust="spacing" textLength="31" x="26" y="141.5303">User</text><ellipse cx="44.5" cy="68.8984" fill="#FFFFFF" rx="8" ry="8" style="stroke:#454545;stroke-width:0.5;"/><path d="M44.5,76.8984 L44.5,103.8984 M31.5,84.8984 L57.5,84.8984 M44.5,103.8984 L31.5,118.8984 M44.5,103.8984 L57.5,118.8984 " fill="none" style="stroke:#454545;stroke-width:0.5;"/><text fill="#000000" font-family="Arial" font-size="14" font-weight="bold" lengthAdjust="spacing" textLength="31" x="26" y="913.5601">User</text><ellipse cx="44.5" cy="933.0269" fill="#FFFFFF" rx="8" ry="8" style="stroke:#454545;stroke-width:0.5;"/><path d="M44.5,941.0269 L44.5,968.0269 M31.5,949.0269 L57.5,949.0269 M44.5,968.0269 L31.5,983.0269 M44.5,968.0269 L57.5,983.0269 " fill="none" style="stroke:#454545;stroke-width:0.5;"/><rect fill="#E9F7EF" height="56.4478" rx="4" ry="4" style="stroke:#27AE60;stroke-width:2.0;" width="121" x="169" y="95.0493"/><text fill="#000000" font-family="Arial" font-size="10" font-weight="bold" lengthAdjust="spacing" textLength="55" x="202" y="119.4292">&#171;Frontend&#187;</text><text fill="#000000" font-family="Arial" font-size="13" font-weight="bold" lengthAdjust="spacing" textLength="91" x="184" y="133.7422">Atlas Frontend</text><rect fill="#E9F7EF" height="56.4478" rx="4" ry="4" style="stroke:#27AE60;stroke-width:2.0;" width="121" x="169" y="892.4282"/><text fill="#000000" font-family="Arial" font-size="10" font-weight="bold" lengthAdjust="spacing" textLength="55" x="202" y="916.8081">&#171;Frontend&#187;</text><text fill="#000000" font-family="Arial" font-size="13" font-weight="bold" lengthAdjust="spacing" textLength="91" x="184" y="931.1211">Atlas Frontend</text><rect fill="#F9EBEA" height="56.4478" rx="4" ry="4" style="stroke:#E74C3C;stroke-width:2.0;" width="90" x="376.5" y="95.0493"/><text fill="#000000" font-family="Arial" font-size="10" font-weight="bold" lengthAdjust="spacing" textLength="34" x="404.5" y="119.4292">&#171;Auth&#187;</text><text fill="#000000" font-family="Arial" font-size="13" font-weight="bold" lengthAdjust="spacing" textLength="60" x="391.5" y="133.7422">Next Auth</text><rect fill="#F9EBEA" height="56.4478" rx="4" ry="4" style="stroke:#E74C3C;stroke-width:2.0;" width="90" x="376.5" y="892.4282"/><text fill="#000000" font-family="Arial" font-size="10" font-weight="bold" lengthAdjust="spacing" textLength="34" x="404.5" y="916.8081">&#171;Auth&#187;</text><text fill="#000000" font-family="Arial" font-size="13" font-weight="bold" lengthAdjust="spacing" textLength="60" x="391.5" y="931.1211">Next Auth</text><rect fill="#EBF5FB" height="56.4478" rx="4" ry="4" style="stroke:#3498DB;stroke-width:2.0;" width="87" x="506.5" y="95.0493"/><text fill="#000000" font-family="Arial" font-size="10" font-weight="bold" lengthAdjust="spacing" textLength="29" x="535.5" y="119.4292">&#171;API&#187;</text><text fill="#000000" font-family="Arial" font-size="13" font-weight="bold" lengthAdjust="spacing" textLength="57" x="521.5" y="133.7422">Atlas API</text><rect fill="#EBF5FB" height="56.4478" rx="4" ry="4" style="stroke:#3498DB;stroke-width:2.0;" width="87" x="506.5" y="892.4282"/><text fill="#000000" font-family="Arial" font-size="10" font-weight="bold" lengthAdjust="spacing" textLength="29" x="535.5" y="916.8081">&#171;API&#187;</text><text fill="#000000" font-family="Arial" font-size="13" font-weight="bold" lengthAdjust="spacing" textLength="57" x="521.5" y="931.1211">Atlas API</text><rect fill="#FEF9E7" height="56.4478" rx="4" ry="4" style="stroke:#F1C40F;stroke-width:2.0;" width="113" x="709.5" y="95.0493"/><text fill="#000000" font-family="Arial" font-size="10" font-weight="bold" lengthAdjust="spacing" textLength="53" x="739.5" y="119.4292">&#171;External&#187;</text><text fill="#000000" font-family="Arial" font-size="13" font-weight="bold" lengthAdjust="spacing" textLength="83" x="724.5" y="133.7422">AWS Cognito</text><rect fill="#FEF9E7" height="56.4478" rx="4" ry="4" style="stroke:#F1C40F;stroke-width:2.0;" width="113" x="709.5" y="892.4282"/><text fill="#000000" font-family="Arial" font-size="10" font-weight="bold" lengthAdjust="spacing" textLength="53" x="739.5" y="916.8081">&#171;External&#187;</text><text fill="#000000" font-family="Arial" font-size="13" font-weight="bold" lengthAdjust="spacing" textLength="83" x="724.5" y="931.1211">AWS Cognito</text><rect fill="#F4ECF7" height="56.4478" rx="4" ry="4" style="stroke:#8E44AD;stroke-width:2.0;" width="88" x="862.5" y="95.0493"/><text fill="#000000" font-family="Arial" font-size="10" font-weight="bold" lengthAdjust="spacing" textLength="58" x="877.5" y="119.4292">&#171;Database&#187;</text><text fill="#000000" font-family="Arial" font-size="13" font-weight="bold" lengthAdjust="spacing" textLength="56" x="878.5" y="133.7422">Database</text><rect fill="#F4ECF7" height="56.4478" rx="4" ry="4" style="stroke:#8E44AD;stroke-width:2.0;" width="88" x="862.5" y="892.4282"/><text fill="#000000" font-family="Arial" font-size="10" font-weight="bold" lengthAdjust="spacing" textLength="58" x="877.5" y="916.8081">&#171;Database&#187;</text><text fill="#000000" font-family="Arial" font-size="13" font-weight="bold" lengthAdjust="spacing" textLength="56" x="878.5" y="931.1211">Database</text><rect fill="#F8F8F8" height="218.9941" style="stroke:#000000;stroke-width:1.0;" width="10" x="224.5" y="249.2446"/><rect fill="#F8F8F8" height="363.3906" style="stroke:#000000;stroke-width:1.0;" width="10" x="224.5" y="512.0376"/><rect fill="#F8F8F8" height="275.793" style="stroke:#000000;stroke-width:1.0;" width="10" x="545" y="555.8364"/><rect fill="#F8F8F8" height="43.7988" style="stroke:#000000;stroke-width:1.0;" width="10" x="761" y="336.8423"/><path d="M5,171.4971 L5,203.4971 A4,4 0 0 0 9,207.4971 L943,207.4971 A4,4 0 0 0 947,203.4971 L947,177.4971 L937,167.4971 L9,167.4971 A4,4 0 0 0 5,171.4971 " fill="#FFFFDD" style="stroke:#999999;stroke-width:1.0;"/><path d="M937,167.4971 L937,175.4971 A2,2 0 0 0 939,177.4971 L947,177.4971 L937,167.4971 " fill="#FFFFDD" style="stroke:#999999;stroke-width:1.0;"/><text fill="#000000" font-family="Arial" font-size="13" lengthAdjust="spacing" textLength="166" x="393.25" y="192.6909">User Authentication Process</text><polygon fill="#000000" points="212.5,245.2446,222.5,249.2446,212.5,253.2446,216.5,249.2446" style="stroke:#000000;stroke-width:1.0;"/><line style="stroke:#000000;stroke-width:1.5;" x1="44.5" x2="218.5" y1="249.2446" y2="249.2446"/><text fill="#000000" font-family="Arial" font-size="12" lengthAdjust="spacing" textLength="31" x="62" y="236.7017">Login</text><text fill="#000000" font-family="Arial" font-size="12" lengthAdjust="spacing" textLength="3" x="93" y="236.7017">&#160;</text><text fill="#000000" font-family="Arial" font-size="12" lengthAdjust="spacing" textLength="22" x="96" y="236.7017">with</text><text fill="#000000" font-family="Arial" font-size="12" lengthAdjust="spacing" textLength="3" x="118" y="236.7017">&#160;</text><text fill="#000000" font-family="Arial" font-size="12" lengthAdjust="spacing" textLength="86" x="121" y="236.7017">email/password</text><polygon fill="#000000" points="409.5,289.0435,419.5,293.0435,409.5,297.0435,413.5,293.0435" style="stroke:#000000;stroke-width:1.0;"/><line style="stroke:#000000;stroke-width:1.5;" x1="234.5" x2="415.5" y1="293.0435" y2="293.0435"/><text fill="#000000" font-family="Arial" font-size="12" lengthAdjust="spacing" textLength="38" x="277.5" y="280.5005">Submit</text><text fill="#000000" font-family="Arial" font-size="12" lengthAdjust="spacing" textLength="3" x="315.5" y="280.5005">&#160;</text><text fill="#000000" font-family="Arial" font-size="12" lengthAdjust="spacing" textLength="60" x="318.5" y="280.5005">credentials</text><polygon fill="#000000" points="749,332.8423,759,336.8423,749,340.8423,753,336.8423" style="stroke:#000000;stroke-width:1.0;"/><line style="stroke:#000000;stroke-width:1.5;" x1="421.5" x2="755" y1="336.8423" y2="336.8423"/><text fill="#000000" font-family="Arial" font-size="12" lengthAdjust="spacing" textLength="68" x="543.75" y="324.2993">Authenticate</text><text fill="#000000" font-family="Arial" font-size="12" lengthAdjust="spacing" textLength="3" x="611.75" y="324.2993">&#160;</text><text fill="#000000" font-family="Arial" font-size="12" lengthAdjust="spacing" textLength="24" x="614.75" y="324.2993">user</text><polygon fill="#000000" points="432.5,376.6411,422.5,380.6411,432.5,384.6411,428.5,380.6411" style="stroke:#000000;stroke-width:1.0;"/><line style="stroke:#000000;stroke-width:1.5;stroke-dasharray:2.0,2.0;" x1="426.5" x2="765" y1="380.6411" y2="380.6411"/><text fill="#000000" font-family="Arial" font-size="12" lengthAdjust="spacing" textLength="37" x="545.25" y="368.0981">Return</text><text fill="#000000" font-family="Arial" font-size="12" lengthAdjust="spacing" textLength="3" x="582.25" y="368.0981">&#160;</text><text fill="#000000" font-family="Arial" font-size="12" lengthAdjust="spacing" textLength="24" x="585.25" y="368.0981">JWT</text><text fill="#000000" font-family="Arial" font-size="12" lengthAdjust="spacing" textLength="3" x="609.25" y="368.0981">&#160;</text><text fill="#000000" font-family="Arial" font-size="12" lengthAdjust="spacing" textLength="30" x="612.25" y="368.0981">token</text><polygon fill="#000000" points="245.5,420.4399,235.5,424.4399,245.5,428.4399,241.5,424.4399" style="stroke:#000000;stroke-width:1.0;"/><line style="stroke:#000000;stroke-width:1.5;stroke-dasharray:2.0,2.0;" x1="239.5" x2="420.5" y1="424.4399" y2="424.4399"/><text fill="#000000" font-family="Arial" font-size="12" lengthAdjust="spacing" textLength="29" x="254.5" y="411.897">Store</text><text fill="#000000" font-family="Arial" font-size="12" lengthAdjust="spacing" textLength="3" x="283.5" y="411.897">&#160;</text><text fill="#000000" font-family="Arial" font-size="12" lengthAdjust="spacing" textLength="24" x="286.5" y="411.897">auth</text><text fill="#000000" font-family="Arial" font-size="12" lengthAdjust="spacing" textLength="3" x="310.5" y="411.897">&#160;</text><text fill="#000000" font-family="Arial" font-size="12" lengthAdjust="spacing" textLength="30" x="313.5" y="411.897">token</text><text fill="#000000" font-family="Arial" font-size="12" lengthAdjust="spacing" textLength="3" x="343.5" y="411.897">&#160;</text><text fill="#000000" font-family="Arial" font-size="12" lengthAdjust="spacing" textLength="10" x="346.5" y="411.897">in</text><text fill="#000000" font-family="Arial" font-size="12" lengthAdjust="spacing" textLength="3" x="356.5" y="411.897">&#160;</text><text fill="#000000" font-family="Arial" font-size="12" lengthAdjust="spacing" textLength="42" x="359.5" y="411.897">session</text><polygon fill="#000000" points="55.5,464.2388,45.5,468.2388,55.5,472.2388,51.5,468.2388" style="stroke:#000000;stroke-width:1.0;"/><line style="stroke:#000000;stroke-width:1.5;stroke-dasharray:2.0,2.0;" x1="49.5" x2="228.5" y1="468.2388" y2="468.2388"/><text fill="#000000" font-family="Arial" font-size="12" lengthAdjust="spacing" textLength="46" x="76.5" y="455.6958">Redirect</text><text fill="#000000" font-family="Arial" font-size="12" lengthAdjust="spacing" textLength="3" x="122.5" y="455.6958">&#160;</text><text fill="#000000" font-family="Arial" font-size="12" lengthAdjust="spacing" textLength="10" x="125.5" y="455.6958">to</text><text fill="#000000" font-family="Arial" font-size="12" lengthAdjust="spacing" textLength="3" x="135.5" y="455.6958">&#160;</text><text fill="#000000" font-family="Arial" font-size="12" lengthAdjust="spacing" textLength="59" x="138.5" y="455.6958">dashboard</text><polygon fill="#000000" points="212.5,508.0376,222.5,512.0376,212.5,516.0376,216.5,512.0376" style="stroke:#000000;stroke-width:1.0;"/><line style="stroke:#000000;stroke-width:1.5;" x1="44.5" x2="218.5" y1="512.0376" y2="512.0376"/><text fill="#000000" font-family="Arial" font-size="12" lengthAdjust="spacing" textLength="39" x="72.5" y="499.4946">Access</text><text fill="#000000" font-family="Arial" font-size="12" lengthAdjust="spacing" textLength="3" x="111.5" y="499.4946">&#160;</text><text fill="#000000" font-family="Arial" font-size="12" lengthAdjust="spacing" textLength="51" x="114.5" y="499.4946">protected</text><text fill="#000000" font-family="Arial" font-size="12" lengthAdjust="spacing" textLength="3" x="165.5" y="499.4946">&#160;</text><text fill="#000000" font-family="Arial" font-size="12" lengthAdjust="spacing" textLength="28" x="168.5" y="499.4946">route</text><polygon fill="#000000" points="533,551.8364,543,555.8364,533,559.8364,537,555.8364" style="stroke:#000000;stroke-width:1.0;"/><line style="stroke:#000000;stroke-width:1.5;" x1="234.5" x2="539" y1="555.8364" y2="555.8364"/><text fill="#000000" font-family="Arial" font-size="12" lengthAdjust="spacing" textLength="46" x="310.75" y="543.2935">Request</text><text fill="#000000" font-family="Arial" font-size="12" lengthAdjust="spacing" textLength="3" x="356.75" y="543.2935">&#160;</text><text fill="#000000" font-family="Arial" font-size="12" lengthAdjust="spacing" textLength="24" x="359.75" y="543.2935">data</text><text fill="#000000" font-family="Arial" font-size="12" lengthAdjust="spacing" textLength="3" x="383.75" y="543.2935">&#160;</text><text fill="#000000" font-family="Arial" font-size="12" lengthAdjust="spacing" textLength="22" x="386.75" y="543.2935">with</text><text fill="#000000" font-family="Arial" font-size="12" lengthAdjust="spacing" textLength="3" x="408.75" y="543.2935">&#160;</text><text fill="#000000" font-family="Arial" font-size="12" lengthAdjust="spacing" textLength="24" x="411.75" y="543.2935">auth</text><text fill="#000000" font-family="Arial" font-size="12" lengthAdjust="spacing" textLength="3" x="435.75" y="543.2935">&#160;</text><text fill="#000000" font-family="Arial" font-size="12" lengthAdjust="spacing" textLength="30" x="438.75" y="543.2935">token</text><line style="stroke:#000000;stroke-width:1.5;" x1="555" x2="597" y1="599.6353" y2="599.6353"/><line style="stroke:#000000;stroke-width:1.5;" x1="597" x2="597" y1="599.6353" y2="612.6353"/><line style="stroke:#000000;stroke-width:1.5;" x1="556" x2="597" y1="612.6353" y2="612.6353"/><polygon fill="#000000" points="566,608.6353,556,612.6353,566,616.6353,562,612.6353" style="stroke:#000000;stroke-width:1.0;"/><text fill="#000000" font-family="Arial" font-size="12" lengthAdjust="spacing" textLength="24" x="570" y="587.0923">JWT</text><text fill="#000000" font-family="Arial" font-size="12" lengthAdjust="spacing" textLength="3" x="594" y="587.0923">&#160;</text><text fill="#000000" font-family="Arial" font-size="12" lengthAdjust="spacing" textLength="64" x="597" y="587.0923">middleware</text><text fill="#000000" font-family="Arial" font-size="12" lengthAdjust="spacing" textLength="3" x="661" y="587.0923">&#160;</text><text fill="#000000" font-family="Arial" font-size="12" lengthAdjust="spacing" textLength="49" x="664" y="587.0923">validates</text><text fill="#000000" font-family="Arial" font-size="12" lengthAdjust="spacing" textLength="3" x="713" y="587.0923">&#160;</text><text fill="#000000" font-family="Arial" font-size="12" lengthAdjust="spacing" textLength="30" x="716" y="587.0923">token</text><polygon fill="#000000" points="754,652.4341,764,656.4341,754,660.4341,758,656.4341" style="stroke:#000000;stroke-width:1.0;"/><line style="stroke:#000000;stroke-width:1.5;" x1="555" x2="760" y1="656.4341" y2="656.4341"/><text fill="#000000" font-family="Arial" font-size="12" lengthAdjust="spacing" textLength="31" x="597.5" y="643.8911">Verify</text><text fill="#000000" font-family="Arial" font-size="12" lengthAdjust="spacing" textLength="3" x="628.5" y="643.8911">&#160;</text><text fill="#000000" font-family="Arial" font-size="12" lengthAdjust="spacing" textLength="30" x="631.5" y="643.8911">token</text><text fill="#000000" font-family="Arial" font-size="12" lengthAdjust="spacing" textLength="3" x="661.5" y="643.8911">&#160;</text><text fill="#000000" font-family="Arial" font-size="12" lengthAdjust="spacing" textLength="10" x="664.5" y="643.8911">(if</text><text fill="#000000" font-family="Arial" font-size="12" lengthAdjust="spacing" textLength="3" x="674.5" y="643.8911">&#160;</text><text fill="#000000" font-family="Arial" font-size="12" lengthAdjust="spacing" textLength="46" x="677.5" y="643.8911">needed)</text><polygon fill="#000000" points="566,696.2329,556,700.2329,566,704.2329,562,700.2329" style="stroke:#000000;stroke-width:1.0;"/><line style="stroke:#000000;stroke-width:1.5;stroke-dasharray:2.0,2.0;" x1="560" x2="765" y1="700.2329" y2="700.2329"/><text fill="#000000" font-family="Arial" font-size="12" lengthAdjust="spacing" textLength="34" x="612.5" y="687.6899">Token</text><text fill="#000000" font-family="Arial" font-size="12" lengthAdjust="spacing" textLength="3" x="646.5" y="687.6899">&#160;</text><text fill="#000000" font-family="Arial" font-size="12" lengthAdjust="spacing" textLength="59" x="649.5" y="687.6899">verification</text><polygon fill="#000000" points="894.5,740.0317,904.5,744.0317,894.5,748.0317,898.5,744.0317" style="stroke:#000000;stroke-width:1.0;"/><line style="stroke:#000000;stroke-width:1.5;" x1="555" x2="900.5" y1="744.0317" y2="744.0317"/><text fill="#000000" font-family="Arial" font-size="12" lengthAdjust="spacing" textLength="30" x="671.75" y="731.4888">Fetch</text><text fill="#000000" font-family="Arial" font-size="12" lengthAdjust="spacing" textLength="3" x="701.75" y="731.4888">&#160;</text><text fill="#000000" font-family="Arial" font-size="12" lengthAdjust="spacing" textLength="58" x="704.75" y="731.4888">authorized</text><text fill="#000000" font-family="Arial" font-size="12" lengthAdjust="spacing" textLength="3" x="762.75" y="731.4888">&#160;</text><text fill="#000000" font-family="Arial" font-size="12" lengthAdjust="spacing" textLength="24" x="765.75" y="731.4888">data</text><polygon fill="#000000" points="566,783.8306,556,787.8306,566,791.8306,562,787.8306" style="stroke:#000000;stroke-width:1.0;"/><line style="stroke:#000000;stroke-width:1.5;stroke-dasharray:2.0,2.0;" x1="560" x2="905.5" y1="787.8306" y2="787.8306"/><text fill="#000000" font-family="Arial" font-size="12" lengthAdjust="spacing" textLength="37" x="698.75" y="775.2876">Return</text><text fill="#000000" font-family="Arial" font-size="12" lengthAdjust="spacing" textLength="3" x="735.75" y="775.2876">&#160;</text><text fill="#000000" font-family="Arial" font-size="12" lengthAdjust="spacing" textLength="24" x="738.75" y="775.2876">data</text><polygon fill="#000000" points="245.5,827.6294,235.5,831.6294,245.5,835.6294,241.5,831.6294" style="stroke:#000000;stroke-width:1.0;"/><line style="stroke:#000000;stroke-width:1.5;stroke-dasharray:2.0,2.0;" x1="239.5" x2="549" y1="831.6294" y2="831.6294"/><text fill="#000000" font-family="Arial" font-size="12" lengthAdjust="spacing" textLength="37" x="329.75" y="819.0864">Return</text><text fill="#000000" font-family="Arial" font-size="12" lengthAdjust="spacing" textLength="3" x="366.75" y="819.0864">&#160;</text><text fill="#000000" font-family="Arial" font-size="12" lengthAdjust="spacing" textLength="58" x="369.75" y="819.0864">authorized</text><text fill="#000000" font-family="Arial" font-size="12" lengthAdjust="spacing" textLength="3" x="427.75" y="819.0864">&#160;</text><text fill="#000000" font-family="Arial" font-size="12" lengthAdjust="spacing" textLength="24" x="430.75" y="819.0864">data</text><polygon fill="#000000" points="55.5,871.4282,45.5,875.4282,55.5,879.4282,51.5,875.4282" style="stroke:#000000;stroke-width:1.0;"/><line style="stroke:#000000;stroke-width:1.5;stroke-dasharray:2.0,2.0;" x1="49.5" x2="228.5" y1="875.4282" y2="875.4282"/><text fill="#000000" font-family="Arial" font-size="12" lengthAdjust="spacing" textLength="41" x="95" y="862.8853">Display</text><text fill="#000000" font-family="Arial" font-size="12" lengthAdjust="spacing" textLength="3" x="136" y="862.8853">&#160;</text><text fill="#000000" font-family="Arial" font-size="12" lengthAdjust="spacing" textLength="40" x="139" y="862.8853">content</text><rect fill="none" height="383.085" id="_legend" rx="4" ry="4" style="stroke:#000000;stroke-width:1.0;" width="355" x="602.5" y="997.5269"/><text fill="#000000" font-family="Arial" font-size="14" font-weight="bold" lengthAdjust="spacing" textLength="78" x="627.5" y="1033.6587">Entity Type</text><text fill="#000000" font-family="Arial" font-size="14" font-weight="bold" lengthAdjust="spacing" textLength="79" x="729.5" y="1033.6587">Description</text><rect fill="#E9F7EF" height="32.0986" style="stroke:none;stroke-width:1.0;" width="102" x="615.5" y="1044.6255"/><text fill="#000000" font-family="Arial" font-size="14" lengthAdjust="spacing" textLength="4" x="623.5" y="1065.7573">&#160;</text><text fill="#000000" font-family="Arial" font-size="14" lengthAdjust="spacing" textLength="203" x="729.5" y="1065.7573">Frontend - Web/UI Components</text><rect fill="#EBF5FB" height="32.0986" style="stroke:none;stroke-width:1.0;" width="102" x="615.5" y="1076.7241"/><text fill="#000000" font-family="Arial" font-size="14" lengthAdjust="spacing" textLength="4" x="623.5" y="1097.856">&#160;</text><text fill="#000000" font-family="Arial" font-size="14" lengthAdjust="spacing" textLength="148" x="729.5" y="1097.856">API - Backend Services</text><rect fill="#F9EBEA" height="32.0986" style="stroke:none;stroke-width:1.0;" width="102" x="615.5" y="1108.8228"/><text fill="#000000" font-family="Arial" font-size="14" lengthAdjust="spacing" textLength="4" x="623.5" y="1129.9546">&#160;</text><text fill="#000000" font-family="Arial" font-size="14" lengthAdjust="spacing" textLength="190" x="729.5" y="1129.9546">Auth - Authentication Services</text><rect fill="#F4ECF7" height="32.0986" style="stroke:none;stroke-width:1.0;" width="102" x="615.5" y="1140.9214"/><text fill="#000000" font-family="Arial" font-size="14" lengthAdjust="spacing" textLength="4" x="623.5" y="1162.0532">&#160;</text><text fill="#000000" font-family="Arial" font-size="14" lengthAdjust="spacing" textLength="158" x="729.5" y="1162.0532">Database - Data Storage</text><rect fill="#FEF9E7" height="32.0986" style="stroke:none;stroke-width:1.0;" width="102" x="615.5" y="1173.02"/><text fill="#000000" font-family="Arial" font-size="14" lengthAdjust="spacing" textLength="4" x="623.5" y="1194.1519">&#160;</text><text fill="#000000" font-family="Arial" font-size="14" lengthAdjust="spacing" textLength="181" x="729.5" y="1194.1519">External - 3rd Party Services</text><rect fill="#FADBD8" height="32.0986" style="stroke:none;stroke-width:1.0;" width="102" x="615.5" y="1205.1187"/><text fill="#000000" font-family="Arial" font-size="14" lengthAdjust="spacing" textLength="4" x="623.5" y="1226.2505">&#160;</text><text fill="#000000" font-family="Arial" font-size="14" lengthAdjust="spacing" textLength="170" x="729.5" y="1226.2505">Contract - Smart Contracts</text><rect fill="#FCF3CF" height="32.0986" style="stroke:none;stroke-width:1.0;" width="102" x="615.5" y="1237.2173"/><text fill="#000000" font-family="Arial" font-size="14" lengthAdjust="spacing" textLength="4" x="623.5" y="1258.3491">&#160;</text><text fill="#000000" font-family="Arial" font-size="14" lengthAdjust="spacing" textLength="168" x="729.5" y="1258.3491">Queue - Message Queues</text><rect fill="#D6EAF8" height="32.0986" style="stroke:none;stroke-width:1.0;" width="102" x="615.5" y="1269.3159"/><text fill="#000000" font-family="Arial" font-size="14" lengthAdjust="spacing" textLength="4" x="623.5" y="1290.4478">&#160;</text><text fill="#000000" font-family="Arial" font-size="14" lengthAdjust="spacing" textLength="171" x="729.5" y="1290.4478">Operator - Validator Nodes</text><rect fill="#D4EFDF" height="32.0986" style="stroke:none;stroke-width:1.0;" width="102" x="615.5" y="1301.4146"/><text fill="#000000" font-family="Arial" font-size="14" lengthAdjust="spacing" textLength="4" x="623.5" y="1322.5464">&#160;</text><text fill="#000000" font-family="Arial" font-size="14" lengthAdjust="spacing" textLength="197" x="729.5" y="1322.5464">Evaluator - Evaluation Services</text><rect fill="#F5EEF8" height="32.0986" style="stroke:none;stroke-width:1.0;" width="102" x="615.5" y="1333.5132"/><text fill="#000000" font-family="Arial" font-size="14" lengthAdjust="spacing" textLength="4" x="623.5" y="1354.645">&#160;</text><text fill="#000000" font-family="Arial" font-size="14" lengthAdjust="spacing" textLength="171" x="729.5" y="1354.645">Storage - Storage Services</text><line style="stroke:#000000;stroke-width:1.0;" x1="615.5" x2="944.5" y1="1012.5269" y2="1012.5269"/><line style="stroke:#000000;stroke-width:1.0;" x1="615.5" x2="944.5" y1="1044.6255" y2="1044.6255"/><line style="stroke:#000000;stroke-width:1.0;" x1="615.5" x2="944.5" y1="1076.7241" y2="1076.7241"/><line style="stroke:#000000;stroke-width:1.0;" x1="615.5" x2="944.5" y1="1108.8228" y2="1108.8228"/><line style="stroke:#000000;stroke-width:1.0;" x1="615.5" x2="944.5" y1="1140.9214" y2="1140.9214"/><line style="stroke:#000000;stroke-width:1.0;" x1="615.5" x2="944.5" y1="1173.02" y2="1173.02"/><line style="stroke:#000000;stroke-width:1.0;" x1="615.5" x2="944.5" y1="1205.1187" y2="1205.1187"/><line style="stroke:#000000;stroke-width:1.0;" x1="615.5" x2="944.5" y1="1237.2173" y2="1237.2173"/><line style="stroke:#000000;stroke-width:1.0;" x1="615.5" x2="944.5" y1="1269.3159" y2="1269.3159"/><line style="stroke:#000000;stroke-width:1.0;" x1="615.5" x2="944.5" y1="1301.4146" y2="1301.4146"/><line style="stroke:#000000;stroke-width:1.0;" x1="615.5" x2="944.5" y1="1333.5132" y2="1333.5132"/><line style="stroke:#000000;stroke-width:1.0;" x1="615.5" x2="944.5" y1="1365.6118" y2="1365.6118"/><line style="stroke:#000000;stroke-width:1.0;" x1="615.5" x2="615.5" y1="1012.5269" y2="1365.6118"/><line style="stroke:#000000;stroke-width:1.0;" x1="717.5" x2="717.5" y1="1012.5269" y2="1365.6118"/><line style="stroke:#000000;stroke-width:1.0;" x1="944.5" x2="944.5" y1="1012.5269" y2="1365.6118"/><!--SRC=[XLJ1Rjim3BthAxYUDc3Pxa4H85iMeCCm14ktdXcBRON9aYVHIREl7wdOZfq6sCcM-HwVtYFXDovKlhK4LQph66QPZvu-D6tjZM77dk1dfWJBbfyfiAkGNGomzl5W35OSKwcR1fCKNOE1uMR97ZEiKmnCmTx0w02tj_thOZ5bVQSNBZg5e2Sz244Vb-2Jn79pLy3oLDpcxXNiOGkVurDm70kmUnVmbnUc5D1VCbR8kCDC1Rxw9CZ-Yo1DY4mGztHo_Lu0ywlvR5AiA6TZId6s6FpFuLjySW4EJgnHZSv_R33dGqnMutHx584UR8RKf4CVo1osxQvs35KYgvBeindI4c3dSJw-4q6hKneKEepfyvXD17uGjod0ruTxuFYRWh7qYdbMdBZRoaOGe1OA5SHhbYGab94ReMWmgcHTeee531RpyowY136I6wAuakIoqeoXIJAKYib2YYtJVsAK9L7PForb5ad6qoZEDpxp1MfqitgMvb4xQpqTK4pkqJjfGBdZTT0X_b-KtEEnY-6jUuH0CZ3xRX9wQNnV87l5TmlKDzFzMXDNfml6vFwAJRsraTMSdUsKUPNlXJY9gQjUDXY5h4Ql36VbSkFnA7y6hV2riVm3]--></g></svg>