<?xml version="1.0" encoding="us-ascii" standalone="no"?><svg xmlns="http://www.w3.org/2000/svg" xmlns:xlink="http://www.w3.org/1999/xlink" contentStyleType="text/css" height="1349px" preserveAspectRatio="none" style="width:964px;height:1349px;background:#FFFFFF;" version="1.1" viewBox="0 0 964 1349" width="964px" zoomAndPan="magnify"><defs/><g><text fill="#303030" font-family="Arial" font-size="16" font-weight="bold" lengthAdjust="spacing" textLength="192" x="382.25" y="38.0078">User Authentication Flow</text><rect fill="#F8F8F8" height="218.9941" style="stroke:#000000;stroke-width:1.0;" width="10" x="211.5" y="198.2959"/><rect fill="#F8F8F8" height="363.3906" style="stroke:#000000;stroke-width:1.0;" width="10" x="211.5" y="461.0889"/><rect fill="#F8F8F8" height="275.793" style="stroke:#000000;stroke-width:1.0;" width="10" x="532" y="504.8877"/><rect fill="#F8F8F8" height="43.7988" style="stroke:#000000;stroke-width:1.0;" width="10" x="748" y="285.8936"/><line style="stroke:#000000;stroke-width:0.5;stroke-dasharray:5.0,5.0;" x1="31" x2="31" y1="152.4971" y2="842.4795"/><line style="stroke:#000000;stroke-width:0.5;stroke-dasharray:5.0,5.0;" x1="216" x2="216" y1="152.4971" y2="842.4795"/><line style="stroke:#000000;stroke-width:0.5;stroke-dasharray:5.0,5.0;" x1="408.5" x2="408.5" y1="152.4971" y2="842.4795"/><line style="stroke:#000000;stroke-width:0.5;stroke-dasharray:5.0,5.0;" x1="536.5" x2="536.5" y1="152.4971" y2="842.4795"/><line style="stroke:#000000;stroke-width:0.5;stroke-dasharray:5.0,5.0;" x1="752.5" x2="752.5" y1="152.4971" y2="842.4795"/><line style="stroke:#000000;stroke-width:0.5;stroke-dasharray:5.0,5.0;" x1="893.5" x2="893.5" y1="152.4971" y2="842.4795"/><text fill="#000000" font-family="Arial" font-size="14" font-weight="bold" lengthAdjust="spacing" textLength="31" x="13" y="141.5303">User</text><ellipse cx="31.5" cy="68.8984" fill="#FFFFFF" rx="8" ry="8" style="stroke:#454545;stroke-width:0.5;"/><path d="M31.5,76.8984 L31.5,103.8984 M18.5,84.8984 L44.5,84.8984 M31.5,103.8984 L18.5,118.8984 M31.5,103.8984 L44.5,118.8984 " fill="none" style="stroke:#454545;stroke-width:0.5;"/><text fill="#000000" font-family="Arial" font-size="14" font-weight="bold" lengthAdjust="spacing" textLength="31" x="13" y="862.6113">User</text><ellipse cx="31.5" cy="882.0781" fill="#FFFFFF" rx="8" ry="8" style="stroke:#454545;stroke-width:0.5;"/><path d="M31.5,890.0781 L31.5,917.0781 M18.5,898.0781 L44.5,898.0781 M31.5,917.0781 L18.5,932.0781 M31.5,917.0781 L44.5,932.0781 " fill="none" style="stroke:#454545;stroke-width:0.5;"/><rect fill="#E9F7EF" height="56.4478" rx="4" ry="4" style="stroke:#27AE60;stroke-width:2.0;" width="121" x="156" y="95.0493"/><text fill="#000000" font-family="Arial" font-size="10" font-weight="bold" lengthAdjust="spacing" textLength="55" x="189" y="119.4292">&#171;Frontend&#187;</text><text fill="#000000" font-family="Arial" font-size="13" font-weight="bold" lengthAdjust="spacing" textLength="91" x="171" y="133.7422">Atlas Frontend</text><rect fill="#E9F7EF" height="56.4478" rx="4" ry="4" style="stroke:#27AE60;stroke-width:2.0;" width="121" x="156" y="841.4795"/><text fill="#000000" font-family="Arial" font-size="10" font-weight="bold" lengthAdjust="spacing" textLength="55" x="189" y="865.8594">&#171;Frontend&#187;</text><text fill="#000000" font-family="Arial" font-size="13" font-weight="bold" lengthAdjust="spacing" textLength="91" x="171" y="880.1724">Atlas Frontend</text><rect fill="#F9EBEA" height="56.4478" rx="4" ry="4" style="stroke:#E74C3C;stroke-width:2.0;" width="90" x="363.5" y="95.0493"/><text fill="#000000" font-family="Arial" font-size="10" font-weight="bold" lengthAdjust="spacing" textLength="34" x="391.5" y="119.4292">&#171;Auth&#187;</text><text fill="#000000" font-family="Arial" font-size="13" font-weight="bold" lengthAdjust="spacing" textLength="60" x="378.5" y="133.7422">Next Auth</text><rect fill="#F9EBEA" height="56.4478" rx="4" ry="4" style="stroke:#E74C3C;stroke-width:2.0;" width="90" x="363.5" y="841.4795"/><text fill="#000000" font-family="Arial" font-size="10" font-weight="bold" lengthAdjust="spacing" textLength="34" x="391.5" y="865.8594">&#171;Auth&#187;</text><text fill="#000000" font-family="Arial" font-size="13" font-weight="bold" lengthAdjust="spacing" textLength="60" x="378.5" y="880.1724">Next Auth</text><rect fill="#EBF5FB" height="56.4478" rx="4" ry="4" style="stroke:#3498DB;stroke-width:2.0;" width="87" x="493.5" y="95.0493"/><text fill="#000000" font-family="Arial" font-size="10" font-weight="bold" lengthAdjust="spacing" textLength="29" x="522.5" y="119.4292">&#171;API&#187;</text><text fill="#000000" font-family="Arial" font-size="13" font-weight="bold" lengthAdjust="spacing" textLength="57" x="508.5" y="133.7422">Atlas API</text><rect fill="#EBF5FB" height="56.4478" rx="4" ry="4" style="stroke:#3498DB;stroke-width:2.0;" width="87" x="493.5" y="841.4795"/><text fill="#000000" font-family="Arial" font-size="10" font-weight="bold" lengthAdjust="spacing" textLength="29" x="522.5" y="865.8594">&#171;API&#187;</text><text fill="#000000" font-family="Arial" font-size="13" font-weight="bold" lengthAdjust="spacing" textLength="57" x="508.5" y="880.1724">Atlas API</text><rect fill="#FEF9E7" height="56.4478" rx="4" ry="4" style="stroke:#F1C40F;stroke-width:2.0;" width="113" x="696.5" y="95.0493"/><text fill="#000000" font-family="Arial" font-size="10" font-weight="bold" lengthAdjust="spacing" textLength="53" x="726.5" y="119.4292">&#171;External&#187;</text><text fill="#000000" font-family="Arial" font-size="13" font-weight="bold" lengthAdjust="spacing" textLength="83" x="711.5" y="133.7422">AWS Cognito</text><rect fill="#FEF9E7" height="56.4478" rx="4" ry="4" style="stroke:#F1C40F;stroke-width:2.0;" width="113" x="696.5" y="841.4795"/><text fill="#000000" font-family="Arial" font-size="10" font-weight="bold" lengthAdjust="spacing" textLength="53" x="726.5" y="865.8594">&#171;External&#187;</text><text fill="#000000" font-family="Arial" font-size="13" font-weight="bold" lengthAdjust="spacing" textLength="83" x="711.5" y="880.1724">AWS Cognito</text><rect fill="#F4ECF7" height="56.4478" rx="4" ry="4" style="stroke:#8E44AD;stroke-width:2.0;" width="88" x="849.5" y="95.0493"/><text fill="#000000" font-family="Arial" font-size="10" font-weight="bold" lengthAdjust="spacing" textLength="58" x="864.5" y="119.4292">&#171;Database&#187;</text><text fill="#000000" font-family="Arial" font-size="13" font-weight="bold" lengthAdjust="spacing" textLength="56" x="865.5" y="133.7422">Database</text><rect fill="#F4ECF7" height="56.4478" rx="4" ry="4" style="stroke:#8E44AD;stroke-width:2.0;" width="88" x="849.5" y="841.4795"/><text fill="#000000" font-family="Arial" font-size="10" font-weight="bold" lengthAdjust="spacing" textLength="58" x="864.5" y="865.8594">&#171;Database&#187;</text><text fill="#000000" font-family="Arial" font-size="13" font-weight="bold" lengthAdjust="spacing" textLength="56" x="865.5" y="880.1724">Database</text><rect fill="#F8F8F8" height="218.9941" style="stroke:#000000;stroke-width:1.0;" width="10" x="211.5" y="198.2959"/><rect fill="#F8F8F8" height="363.3906" style="stroke:#000000;stroke-width:1.0;" width="10" x="211.5" y="461.0889"/><rect fill="#F8F8F8" height="275.793" style="stroke:#000000;stroke-width:1.0;" width="10" x="532" y="504.8877"/><rect fill="#F8F8F8" height="43.7988" style="stroke:#000000;stroke-width:1.0;" width="10" x="748" y="285.8936"/><polygon fill="#000000" points="199.5,194.2959,209.5,198.2959,199.5,202.2959,203.5,198.2959" style="stroke:#000000;stroke-width:1.0;"/><line style="stroke:#000000;stroke-width:1.5;" x1="31.5" x2="205.5" y1="198.2959" y2="198.2959"/><text fill="#000000" font-family="Arial" font-size="12" lengthAdjust="spacing" textLength="31" x="49" y="185.7529">Login</text><text fill="#000000" font-family="Arial" font-size="12" lengthAdjust="spacing" textLength="3" x="80" y="185.7529">&#160;</text><text fill="#000000" font-family="Arial" font-size="12" lengthAdjust="spacing" textLength="22" x="83" y="185.7529">with</text><text fill="#000000" font-family="Arial" font-size="12" lengthAdjust="spacing" textLength="3" x="105" y="185.7529">&#160;</text><text fill="#000000" font-family="Arial" font-size="12" lengthAdjust="spacing" textLength="86" x="108" y="185.7529">email/password</text><polygon fill="#000000" points="396.5,238.0947,406.5,242.0947,396.5,246.0947,400.5,242.0947" style="stroke:#000000;stroke-width:1.0;"/><line style="stroke:#000000;stroke-width:1.5;" x1="221.5" x2="402.5" y1="242.0947" y2="242.0947"/><text fill="#000000" font-family="Arial" font-size="12" lengthAdjust="spacing" textLength="38" x="264.5" y="229.5518">Submit</text><text fill="#000000" font-family="Arial" font-size="12" lengthAdjust="spacing" textLength="3" x="302.5" y="229.5518">&#160;</text><text fill="#000000" font-family="Arial" font-size="12" lengthAdjust="spacing" textLength="60" x="305.5" y="229.5518">credentials</text><polygon fill="#000000" points="736,281.8936,746,285.8936,736,289.8936,740,285.8936" style="stroke:#000000;stroke-width:1.0;"/><line style="stroke:#000000;stroke-width:1.5;" x1="408.5" x2="742" y1="285.8936" y2="285.8936"/><text fill="#000000" font-family="Arial" font-size="12" lengthAdjust="spacing" textLength="68" x="530.75" y="273.3506">Authenticate</text><text fill="#000000" font-family="Arial" font-size="12" lengthAdjust="spacing" textLength="3" x="598.75" y="273.3506">&#160;</text><text fill="#000000" font-family="Arial" font-size="12" lengthAdjust="spacing" textLength="24" x="601.75" y="273.3506">user</text><polygon fill="#000000" points="419.5,325.6924,409.5,329.6924,419.5,333.6924,415.5,329.6924" style="stroke:#000000;stroke-width:1.0;"/><line style="stroke:#000000;stroke-width:1.5;stroke-dasharray:2.0,2.0;" x1="413.5" x2="752" y1="329.6924" y2="329.6924"/><text fill="#000000" font-family="Arial" font-size="12" lengthAdjust="spacing" textLength="37" x="532.25" y="317.1494">Return</text><text fill="#000000" font-family="Arial" font-size="12" lengthAdjust="spacing" textLength="3" x="569.25" y="317.1494">&#160;</text><text fill="#000000" font-family="Arial" font-size="12" lengthAdjust="spacing" textLength="24" x="572.25" y="317.1494">JWT</text><text fill="#000000" font-family="Arial" font-size="12" lengthAdjust="spacing" textLength="3" x="596.25" y="317.1494">&#160;</text><text fill="#000000" font-family="Arial" font-size="12" lengthAdjust="spacing" textLength="30" x="599.25" y="317.1494">token</text><polygon fill="#000000" points="232.5,369.4912,222.5,373.4912,232.5,377.4912,228.5,373.4912" style="stroke:#000000;stroke-width:1.0;"/><line style="stroke:#000000;stroke-width:1.5;stroke-dasharray:2.0,2.0;" x1="226.5" x2="407.5" y1="373.4912" y2="373.4912"/><text fill="#000000" font-family="Arial" font-size="12" lengthAdjust="spacing" textLength="29" x="241.5" y="360.9482">Store</text><text fill="#000000" font-family="Arial" font-size="12" lengthAdjust="spacing" textLength="3" x="270.5" y="360.9482">&#160;</text><text fill="#000000" font-family="Arial" font-size="12" lengthAdjust="spacing" textLength="24" x="273.5" y="360.9482">auth</text><text fill="#000000" font-family="Arial" font-size="12" lengthAdjust="spacing" textLength="3" x="297.5" y="360.9482">&#160;</text><text fill="#000000" font-family="Arial" font-size="12" lengthAdjust="spacing" textLength="30" x="300.5" y="360.9482">token</text><text fill="#000000" font-family="Arial" font-size="12" lengthAdjust="spacing" textLength="3" x="330.5" y="360.9482">&#160;</text><text fill="#000000" font-family="Arial" font-size="12" lengthAdjust="spacing" textLength="10" x="333.5" y="360.9482">in</text><text fill="#000000" font-family="Arial" font-size="12" lengthAdjust="spacing" textLength="3" x="343.5" y="360.9482">&#160;</text><text fill="#000000" font-family="Arial" font-size="12" lengthAdjust="spacing" textLength="42" x="346.5" y="360.9482">session</text><polygon fill="#000000" points="42.5,413.29,32.5,417.29,42.5,421.29,38.5,417.29" style="stroke:#000000;stroke-width:1.0;"/><line style="stroke:#000000;stroke-width:1.5;stroke-dasharray:2.0,2.0;" x1="36.5" x2="215.5" y1="417.29" y2="417.29"/><text fill="#000000" font-family="Arial" font-size="12" lengthAdjust="spacing" textLength="46" x="63.5" y="404.7471">Redirect</text><text fill="#000000" font-family="Arial" font-size="12" lengthAdjust="spacing" textLength="3" x="109.5" y="404.7471">&#160;</text><text fill="#000000" font-family="Arial" font-size="12" lengthAdjust="spacing" textLength="10" x="112.5" y="404.7471">to</text><text fill="#000000" font-family="Arial" font-size="12" lengthAdjust="spacing" textLength="3" x="122.5" y="404.7471">&#160;</text><text fill="#000000" font-family="Arial" font-size="12" lengthAdjust="spacing" textLength="59" x="125.5" y="404.7471">dashboard</text><polygon fill="#000000" points="199.5,457.0889,209.5,461.0889,199.5,465.0889,203.5,461.0889" style="stroke:#000000;stroke-width:1.0;"/><line style="stroke:#000000;stroke-width:1.5;" x1="31.5" x2="205.5" y1="461.0889" y2="461.0889"/><text fill="#000000" font-family="Arial" font-size="12" lengthAdjust="spacing" textLength="39" x="59.5" y="448.5459">Access</text><text fill="#000000" font-family="Arial" font-size="12" lengthAdjust="spacing" textLength="3" x="98.5" y="448.5459">&#160;</text><text fill="#000000" font-family="Arial" font-size="12" lengthAdjust="spacing" textLength="51" x="101.5" y="448.5459">protected</text><text fill="#000000" font-family="Arial" font-size="12" lengthAdjust="spacing" textLength="3" x="152.5" y="448.5459">&#160;</text><text fill="#000000" font-family="Arial" font-size="12" lengthAdjust="spacing" textLength="28" x="155.5" y="448.5459">route</text><polygon fill="#000000" points="520,500.8877,530,504.8877,520,508.8877,524,504.8877" style="stroke:#000000;stroke-width:1.0;"/><line style="stroke:#000000;stroke-width:1.5;" x1="221.5" x2="526" y1="504.8877" y2="504.8877"/><text fill="#000000" font-family="Arial" font-size="12" lengthAdjust="spacing" textLength="46" x="297.75" y="492.3447">Request</text><text fill="#000000" font-family="Arial" font-size="12" lengthAdjust="spacing" textLength="3" x="343.75" y="492.3447">&#160;</text><text fill="#000000" font-family="Arial" font-size="12" lengthAdjust="spacing" textLength="24" x="346.75" y="492.3447">data</text><text fill="#000000" font-family="Arial" font-size="12" lengthAdjust="spacing" textLength="3" x="370.75" y="492.3447">&#160;</text><text fill="#000000" font-family="Arial" font-size="12" lengthAdjust="spacing" textLength="22" x="373.75" y="492.3447">with</text><text fill="#000000" font-family="Arial" font-size="12" lengthAdjust="spacing" textLength="3" x="395.75" y="492.3447">&#160;</text><text fill="#000000" font-family="Arial" font-size="12" lengthAdjust="spacing" textLength="24" x="398.75" y="492.3447">auth</text><text fill="#000000" font-family="Arial" font-size="12" lengthAdjust="spacing" textLength="3" x="422.75" y="492.3447">&#160;</text><text fill="#000000" font-family="Arial" font-size="12" lengthAdjust="spacing" textLength="30" x="425.75" y="492.3447">token</text><line style="stroke:#000000;stroke-width:1.5;" x1="542" x2="584" y1="548.6865" y2="548.6865"/><line style="stroke:#000000;stroke-width:1.5;" x1="584" x2="584" y1="548.6865" y2="561.6865"/><line style="stroke:#000000;stroke-width:1.5;" x1="543" x2="584" y1="561.6865" y2="561.6865"/><polygon fill="#000000" points="553,557.6865,543,561.6865,553,565.6865,549,561.6865" style="stroke:#000000;stroke-width:1.0;"/><text fill="#000000" font-family="Arial" font-size="12" lengthAdjust="spacing" textLength="24" x="557" y="536.1436">JWT</text><text fill="#000000" font-family="Arial" font-size="12" lengthAdjust="spacing" textLength="3" x="581" y="536.1436">&#160;</text><text fill="#000000" font-family="Arial" font-size="12" lengthAdjust="spacing" textLength="64" x="584" y="536.1436">middleware</text><text fill="#000000" font-family="Arial" font-size="12" lengthAdjust="spacing" textLength="3" x="648" y="536.1436">&#160;</text><text fill="#000000" font-family="Arial" font-size="12" lengthAdjust="spacing" textLength="49" x="651" y="536.1436">validates</text><text fill="#000000" font-family="Arial" font-size="12" lengthAdjust="spacing" textLength="3" x="700" y="536.1436">&#160;</text><text fill="#000000" font-family="Arial" font-size="12" lengthAdjust="spacing" textLength="30" x="703" y="536.1436">token</text><polygon fill="#000000" points="741,601.4854,751,605.4854,741,609.4854,745,605.4854" style="stroke:#000000;stroke-width:1.0;"/><line style="stroke:#000000;stroke-width:1.5;" x1="542" x2="747" y1="605.4854" y2="605.4854"/><text fill="#000000" font-family="Arial" font-size="12" lengthAdjust="spacing" textLength="31" x="584.5" y="592.9424">Verify</text><text fill="#000000" font-family="Arial" font-size="12" lengthAdjust="spacing" textLength="3" x="615.5" y="592.9424">&#160;</text><text fill="#000000" font-family="Arial" font-size="12" lengthAdjust="spacing" textLength="30" x="618.5" y="592.9424">token</text><text fill="#000000" font-family="Arial" font-size="12" lengthAdjust="spacing" textLength="3" x="648.5" y="592.9424">&#160;</text><text fill="#000000" font-family="Arial" font-size="12" lengthAdjust="spacing" textLength="10" x="651.5" y="592.9424">(if</text><text fill="#000000" font-family="Arial" font-size="12" lengthAdjust="spacing" textLength="3" x="661.5" y="592.9424">&#160;</text><text fill="#000000" font-family="Arial" font-size="12" lengthAdjust="spacing" textLength="46" x="664.5" y="592.9424">needed)</text><polygon fill="#000000" points="553,645.2842,543,649.2842,553,653.2842,549,649.2842" style="stroke:#000000;stroke-width:1.0;"/><line style="stroke:#000000;stroke-width:1.5;stroke-dasharray:2.0,2.0;" x1="547" x2="752" y1="649.2842" y2="649.2842"/><text fill="#000000" font-family="Arial" font-size="12" lengthAdjust="spacing" textLength="34" x="599.5" y="636.7412">Token</text><text fill="#000000" font-family="Arial" font-size="12" lengthAdjust="spacing" textLength="3" x="633.5" y="636.7412">&#160;</text><text fill="#000000" font-family="Arial" font-size="12" lengthAdjust="spacing" textLength="59" x="636.5" y="636.7412">verification</text><polygon fill="#000000" points="881.5,689.083,891.5,693.083,881.5,697.083,885.5,693.083" style="stroke:#000000;stroke-width:1.0;"/><line style="stroke:#000000;stroke-width:1.5;" x1="542" x2="887.5" y1="693.083" y2="693.083"/><text fill="#000000" font-family="Arial" font-size="12" lengthAdjust="spacing" textLength="30" x="658.75" y="680.54">Fetch</text><text fill="#000000" font-family="Arial" font-size="12" lengthAdjust="spacing" textLength="3" x="688.75" y="680.54">&#160;</text><text fill="#000000" font-family="Arial" font-size="12" lengthAdjust="spacing" textLength="58" x="691.75" y="680.54">authorized</text><text fill="#000000" font-family="Arial" font-size="12" lengthAdjust="spacing" textLength="3" x="749.75" y="680.54">&#160;</text><text fill="#000000" font-family="Arial" font-size="12" lengthAdjust="spacing" textLength="24" x="752.75" y="680.54">data</text><polygon fill="#000000" points="553,732.8818,543,736.8818,553,740.8818,549,736.8818" style="stroke:#000000;stroke-width:1.0;"/><line style="stroke:#000000;stroke-width:1.5;stroke-dasharray:2.0,2.0;" x1="547" x2="892.5" y1="736.8818" y2="736.8818"/><text fill="#000000" font-family="Arial" font-size="12" lengthAdjust="spacing" textLength="37" x="685.75" y="724.3389">Return</text><text fill="#000000" font-family="Arial" font-size="12" lengthAdjust="spacing" textLength="3" x="722.75" y="724.3389">&#160;</text><text fill="#000000" font-family="Arial" font-size="12" lengthAdjust="spacing" textLength="24" x="725.75" y="724.3389">data</text><polygon fill="#000000" points="232.5,776.6807,222.5,780.6807,232.5,784.6807,228.5,780.6807" style="stroke:#000000;stroke-width:1.0;"/><line style="stroke:#000000;stroke-width:1.5;stroke-dasharray:2.0,2.0;" x1="226.5" x2="536" y1="780.6807" y2="780.6807"/><text fill="#000000" font-family="Arial" font-size="12" lengthAdjust="spacing" textLength="37" x="316.75" y="768.1377">Return</text><text fill="#000000" font-family="Arial" font-size="12" lengthAdjust="spacing" textLength="3" x="353.75" y="768.1377">&#160;</text><text fill="#000000" font-family="Arial" font-size="12" lengthAdjust="spacing" textLength="58" x="356.75" y="768.1377">authorized</text><text fill="#000000" font-family="Arial" font-size="12" lengthAdjust="spacing" textLength="3" x="414.75" y="768.1377">&#160;</text><text fill="#000000" font-family="Arial" font-size="12" lengthAdjust="spacing" textLength="24" x="417.75" y="768.1377">data</text><polygon fill="#000000" points="42.5,820.4795,32.5,824.4795,42.5,828.4795,38.5,824.4795" style="stroke:#000000;stroke-width:1.0;"/><line style="stroke:#000000;stroke-width:1.5;stroke-dasharray:2.0,2.0;" x1="36.5" x2="215.5" y1="824.4795" y2="824.4795"/><text fill="#000000" font-family="Arial" font-size="12" lengthAdjust="spacing" textLength="41" x="82" y="811.9365">Display</text><text fill="#000000" font-family="Arial" font-size="12" lengthAdjust="spacing" textLength="3" x="123" y="811.9365">&#160;</text><text fill="#000000" font-family="Arial" font-size="12" lengthAdjust="spacing" textLength="40" x="126" y="811.9365">content</text><rect fill="none" height="383.085" id="_legend" rx="4" ry="4" style="stroke:#000000;stroke-width:1.0;" width="355" x="589.5" y="946.5781"/><text fill="#000000" font-family="Arial" font-size="14" font-weight="bold" lengthAdjust="spacing" textLength="78" x="614.5" y="982.71">Entity Type</text><text fill="#000000" font-family="Arial" font-size="14" font-weight="bold" lengthAdjust="spacing" textLength="79" x="716.5" y="982.71">Description</text><rect fill="#E9F7EF" height="32.0986" style="stroke:none;stroke-width:1.0;" width="102" x="602.5" y="993.6768"/><text fill="#000000" font-family="Arial" font-size="14" lengthAdjust="spacing" textLength="4" x="610.5" y="1014.8086">&#160;</text><text fill="#000000" font-family="Arial" font-size="14" lengthAdjust="spacing" textLength="203" x="716.5" y="1014.8086">Frontend - Web/UI Components</text><rect fill="#EBF5FB" height="32.0986" style="stroke:none;stroke-width:1.0;" width="102" x="602.5" y="1025.7754"/><text fill="#000000" font-family="Arial" font-size="14" lengthAdjust="spacing" textLength="4" x="610.5" y="1046.9072">&#160;</text><text fill="#000000" font-family="Arial" font-size="14" lengthAdjust="spacing" textLength="148" x="716.5" y="1046.9072">API - Backend Services</text><rect fill="#F9EBEA" height="32.0986" style="stroke:none;stroke-width:1.0;" width="102" x="602.5" y="1057.874"/><text fill="#000000" font-family="Arial" font-size="14" lengthAdjust="spacing" textLength="4" x="610.5" y="1079.0059">&#160;</text><text fill="#000000" font-family="Arial" font-size="14" lengthAdjust="spacing" textLength="190" x="716.5" y="1079.0059">Auth - Authentication Services</text><rect fill="#F4ECF7" height="32.0986" style="stroke:none;stroke-width:1.0;" width="102" x="602.5" y="1089.9727"/><text fill="#000000" font-family="Arial" font-size="14" lengthAdjust="spacing" textLength="4" x="610.5" y="1111.1045">&#160;</text><text fill="#000000" font-family="Arial" font-size="14" lengthAdjust="spacing" textLength="158" x="716.5" y="1111.1045">Database - Data Storage</text><rect fill="#FEF9E7" height="32.0986" style="stroke:none;stroke-width:1.0;" width="102" x="602.5" y="1122.0713"/><text fill="#000000" font-family="Arial" font-size="14" lengthAdjust="spacing" textLength="4" x="610.5" y="1143.2031">&#160;</text><text fill="#000000" font-family="Arial" font-size="14" lengthAdjust="spacing" textLength="181" x="716.5" y="1143.2031">External - 3rd Party Services</text><rect fill="#FADBD8" height="32.0986" style="stroke:none;stroke-width:1.0;" width="102" x="602.5" y="1154.1699"/><text fill="#000000" font-family="Arial" font-size="14" lengthAdjust="spacing" textLength="4" x="610.5" y="1175.3018">&#160;</text><text fill="#000000" font-family="Arial" font-size="14" lengthAdjust="spacing" textLength="170" x="716.5" y="1175.3018">Contract - Smart Contracts</text><rect fill="#FCF3CF" height="32.0986" style="stroke:none;stroke-width:1.0;" width="102" x="602.5" y="1186.2686"/><text fill="#000000" font-family="Arial" font-size="14" lengthAdjust="spacing" textLength="4" x="610.5" y="1207.4004">&#160;</text><text fill="#000000" font-family="Arial" font-size="14" lengthAdjust="spacing" textLength="168" x="716.5" y="1207.4004">Queue - Message Queues</text><rect fill="#D6EAF8" height="32.0986" style="stroke:none;stroke-width:1.0;" width="102" x="602.5" y="1218.3672"/><text fill="#000000" font-family="Arial" font-size="14" lengthAdjust="spacing" textLength="4" x="610.5" y="1239.499">&#160;</text><text fill="#000000" font-family="Arial" font-size="14" lengthAdjust="spacing" textLength="171" x="716.5" y="1239.499">Operator - Validator Nodes</text><rect fill="#D4EFDF" height="32.0986" style="stroke:none;stroke-width:1.0;" width="102" x="602.5" y="1250.4658"/><text fill="#000000" font-family="Arial" font-size="14" lengthAdjust="spacing" textLength="4" x="610.5" y="1271.5977">&#160;</text><text fill="#000000" font-family="Arial" font-size="14" lengthAdjust="spacing" textLength="197" x="716.5" y="1271.5977">Evaluator - Evaluation Services</text><rect fill="#F5EEF8" height="32.0986" style="stroke:none;stroke-width:1.0;" width="102" x="602.5" y="1282.5645"/><text fill="#000000" font-family="Arial" font-size="14" lengthAdjust="spacing" textLength="4" x="610.5" y="1303.6963">&#160;</text><text fill="#000000" font-family="Arial" font-size="14" lengthAdjust="spacing" textLength="171" x="716.5" y="1303.6963">Storage - Storage Services</text><line style="stroke:#000000;stroke-width:1.0;" x1="602.5" x2="931.5" y1="961.5781" y2="961.5781"/><line style="stroke:#000000;stroke-width:1.0;" x1="602.5" x2="931.5" y1="993.6768" y2="993.6768"/><line style="stroke:#000000;stroke-width:1.0;" x1="602.5" x2="931.5" y1="1025.7754" y2="1025.7754"/><line style="stroke:#000000;stroke-width:1.0;" x1="602.5" x2="931.5" y1="1057.874" y2="1057.874"/><line style="stroke:#000000;stroke-width:1.0;" x1="602.5" x2="931.5" y1="1089.9727" y2="1089.9727"/><line style="stroke:#000000;stroke-width:1.0;" x1="602.5" x2="931.5" y1="1122.0713" y2="1122.0713"/><line style="stroke:#000000;stroke-width:1.0;" x1="602.5" x2="931.5" y1="1154.1699" y2="1154.1699"/><line style="stroke:#000000;stroke-width:1.0;" x1="602.5" x2="931.5" y1="1186.2686" y2="1186.2686"/><line style="stroke:#000000;stroke-width:1.0;" x1="602.5" x2="931.5" y1="1218.3672" y2="1218.3672"/><line style="stroke:#000000;stroke-width:1.0;" x1="602.5" x2="931.5" y1="1250.4658" y2="1250.4658"/><line style="stroke:#000000;stroke-width:1.0;" x1="602.5" x2="931.5" y1="1282.5645" y2="1282.5645"/><line style="stroke:#000000;stroke-width:1.0;" x1="602.5" x2="931.5" y1="1314.6631" y2="1314.6631"/><line style="stroke:#000000;stroke-width:1.0;" x1="602.5" x2="602.5" y1="961.5781" y2="1314.6631"/><line style="stroke:#000000;stroke-width:1.0;" x1="704.5" x2="704.5" y1="961.5781" y2="1314.6631"/><line style="stroke:#000000;stroke-width:1.0;" x1="931.5" x2="931.5" y1="961.5781" y2="1314.6631"/><!--SRC=[XLF1Rjim3BthAxYUjaFMUr04I9S5Q34CnTAjPyPYMsAov4bqqkphHocsOwS1Th9bliV7zoX_O5-vrX9KeQw3doKvEFhSjBKpHbWSmSz44PQjl98Nhb0uU5Yxi3S6Amcnr4s3KOlSe1UuMeh31EiOl92tLp0wmCrD_xfOJ5dVwKsAJY7aKpue8J_EmKU9vSDT0Uipunxkti6UDl0bl7YMK83TkuA_lWb5Z-wSiKB1BIOgyDMj8lilYZIcX35R37xcy2syi8SzwwXK8xlh1bFQXsXpFBn3eG5iXXIqGszm3fjsMxD05SdcYD4bCxXNO3VpVBm3WZQdFYXq6DFxcqq4Vf2qqSFzqoD8-4tUM7h7F2bEt6rqmmIO2uKAwZLHIde9HcwKaeF9IfOZLQ9Wi9XUjm4rY97S4CM599TLfPsXYK6q1Lc8eHNwJuowz2pxfwKaAYbuNCLfuXDVeIRVb9wLywZPMaTxL9CxTAmDA7My3Zh4_uiYFn-w63xoCtZIXTbFaz1BuyS2sMLyzyFqpLQtSrYJLCS1G-I_QZDFRVIgpKvsohxAzqASnDHLpnkCGiv6BondnQbnUD0_FLVaqbh-0G00]--></g></svg>