<?xml version="1.0" encoding="us-ascii" standalone="no"?><svg xmlns="http://www.w3.org/2000/svg" xmlns:xlink="http://www.w3.org/1999/xlink" contentStyleType="text/css" height="1895px" preserveAspectRatio="none" style="width:1139px;height:1895px;background:#FFFFFF;" version="1.1" viewBox="0 0 1139 1895" width="1139px" zoomAndPan="magnify"><defs/><g><text fill="#303030" font-family="Arial" font-size="16" font-weight="bold" lengthAdjust="spacing" textLength="237" x="447" y="37.8516">Dataset Management Flow</text><rect fill="#F8F8F8" height="509.6563" style="stroke:#000000;stroke-width:1.0;" width="10" x="314.5" y="242.8594"/><rect fill="#F8F8F8" height="219.8438" style="stroke:#000000;stroke-width:1.0;" width="10" x="314.5" y="796.4844"/><rect fill="#F8F8F8" height="307.7813" style="stroke:#000000;stroke-width:1.0;" width="10" x="314.5" y="1060.2969"/><rect fill="#F8F8F8" height="364.75" style="stroke:#000000;stroke-width:1.0;" width="10" x="519.5" y="343.7969"/><rect fill="#F8F8F8" height="131.9063" style="stroke:#000000;stroke-width:1.0;" width="10" x="519.5" y="840.4531"/><rect fill="#F8F8F8" height="219.8438" style="stroke:#000000;stroke-width:1.0;" width="10" x="519.5" y="1104.2656"/><line style="stroke:#000000;stroke-width:0.5;stroke-dasharray:5.0,5.0;" x1="40" x2="40" y1="152.9219" y2="1386.0781"/><line style="stroke:#000000;stroke-width:0.5;stroke-dasharray:5.0,5.0;" x1="115" x2="115" y1="152.9219" y2="1386.0781"/><line style="stroke:#000000;stroke-width:0.5;stroke-dasharray:5.0,5.0;" x1="319" x2="319" y1="152.9219" y2="1386.0781"/><line style="stroke:#000000;stroke-width:0.5;stroke-dasharray:5.0,5.0;" x1="524.5" x2="524.5" y1="152.9219" y2="1386.0781"/><line style="stroke:#000000;stroke-width:0.5;stroke-dasharray:5.0,5.0;" x1="733" x2="733" y1="152.9219" y2="1386.0781"/><line style="stroke:#000000;stroke-width:0.5;stroke-dasharray:5.0,5.0;" x1="867" x2="867" y1="152.9219" y2="1386.0781"/><line style="stroke:#000000;stroke-width:0.5;stroke-dasharray:5.0,5.0;" x1="1035" x2="1035" y1="152.9219" y2="1386.0781"/><text fill="#000000" font-family="Arial" font-size="14" font-weight="bold" lengthAdjust="spacing" textLength="49" x="13" y="141.6201">Admin</text><ellipse cx="40.5" cy="69.125" fill="#FFFFFF" rx="8" ry="8" style="stroke:#454545;stroke-width:0.5;"/><path d="M40.5,77.125 L40.5,104.125 M27.5,85.125 L53.5,85.125 M40.5,104.125 L27.5,119.125 M40.5,104.125 L53.5,119.125 " fill="none" style="stroke:#454545;stroke-width:0.5;"/><text fill="#000000" font-family="Arial" font-size="14" font-weight="bold" lengthAdjust="spacing" textLength="49" x="13" y="1406.0732">Admin</text><ellipse cx="40.5" cy="1425.875" fill="#FFFFFF" rx="8" ry="8" style="stroke:#454545;stroke-width:0.5;"/><path d="M40.5,1433.875 L40.5,1460.875 M27.5,1441.875 L53.5,1441.875 M40.5,1460.875 L27.5,1475.875 M40.5,1460.875 L53.5,1475.875 " fill="none" style="stroke:#454545;stroke-width:0.5;"/><text fill="#000000" font-family="Arial" font-size="14" font-weight="bold" lengthAdjust="spacing" textLength="37" x="94" y="141.6201">User</text><ellipse cx="115.5" cy="69.125" fill="#FFFFFF" rx="8" ry="8" style="stroke:#454545;stroke-width:0.5;"/><path d="M115.5,77.125 L115.5,104.125 M102.5,85.125 L128.5,85.125 M115.5,104.125 L102.5,119.125 M115.5,104.125 L128.5,119.125 " fill="none" style="stroke:#454545;stroke-width:0.5;"/><text fill="#000000" font-family="Arial" font-size="14" font-weight="bold" lengthAdjust="spacing" textLength="37" x="94" y="1406.0732">User</text><ellipse cx="115.5" cy="1425.875" fill="#FFFFFF" rx="8" ry="8" style="stroke:#454545;stroke-width:0.5;"/><path d="M115.5,1433.875 L115.5,1460.875 M102.5,1441.875 L128.5,1441.875 M115.5,1460.875 L102.5,1475.875 M115.5,1460.875 L128.5,1475.875 " fill="none" style="stroke:#454545;stroke-width:0.5;"/><rect fill="#E9F7EF" height="56.7734" rx="4" ry="4" style="stroke:#27AE60;stroke-width:2.0;" width="139" x="250" y="95.1484"/><text fill="#000000" font-family="Arial" font-size="10" font-weight="bold" lengthAdjust="spacing" textLength="63" x="288" y="119.4307">&#171;Frontend&#187;</text><text fill="#000000" font-family="Arial" font-size="13" font-weight="bold" lengthAdjust="spacing" textLength="109" x="265" y="133.856">Atlas Frontend</text><rect fill="#E9F7EF" height="56.7734" rx="4" ry="4" style="stroke:#27AE60;stroke-width:2.0;" width="139" x="250" y="1385.0781"/><text fill="#000000" font-family="Arial" font-size="10" font-weight="bold" lengthAdjust="spacing" textLength="63" x="288" y="1409.3604">&#171;Frontend&#187;</text><text fill="#000000" font-family="Arial" font-size="13" font-weight="bold" lengthAdjust="spacing" textLength="109" x="265" y="1423.7856">Atlas Frontend</text><rect fill="#EBF5FB" height="56.7734" rx="4" ry="4" style="stroke:#3498DB;stroke-width:2.0;" width="96" x="476.5" y="95.1484"/><text fill="#000000" font-family="Arial" font-size="10" font-weight="bold" lengthAdjust="spacing" textLength="31" x="509" y="119.4307">&#171;API&#187;</text><text fill="#000000" font-family="Arial" font-size="13" font-weight="bold" lengthAdjust="spacing" textLength="66" x="491.5" y="133.856">Atlas API</text><rect fill="#EBF5FB" height="56.7734" rx="4" ry="4" style="stroke:#3498DB;stroke-width:2.0;" width="96" x="476.5" y="1385.0781"/><text fill="#000000" font-family="Arial" font-size="10" font-weight="bold" lengthAdjust="spacing" textLength="31" x="509" y="1409.3604">&#171;API&#187;</text><text fill="#000000" font-family="Arial" font-size="13" font-weight="bold" lengthAdjust="spacing" textLength="66" x="491.5" y="1423.7856">Atlas API</text><rect fill="#F5EEF8" height="56.7734" rx="4" ry="4" style="stroke:#76448A;stroke-width:2.0;" width="87" x="690" y="95.1484"/><text fill="#000000" font-family="Arial" font-size="10" font-weight="bold" lengthAdjust="spacing" textLength="57" x="705" y="119.4307">&#171;Storage&#187;</text><text fill="#000000" font-family="Arial" font-size="13" font-weight="bold" lengthAdjust="spacing" textLength="56" x="705.5" y="133.856">AWS S3</text><rect fill="#F5EEF8" height="56.7734" rx="4" ry="4" style="stroke:#76448A;stroke-width:2.0;" width="87" x="690" y="1385.0781"/><text fill="#000000" font-family="Arial" font-size="10" font-weight="bold" lengthAdjust="spacing" textLength="57" x="705" y="1409.3604">&#171;Storage&#187;</text><text fill="#000000" font-family="Arial" font-size="13" font-weight="bold" lengthAdjust="spacing" textLength="56" x="705.5" y="1423.7856">AWS S3</text><rect fill="#F4ECF7" height="56.7734" rx="4" ry="4" style="stroke:#8E44AD;stroke-width:2.0;" width="101" x="817" y="95.1484"/><text fill="#000000" font-family="Arial" font-size="10" font-weight="bold" lengthAdjust="spacing" textLength="66" x="834.5" y="119.4307">&#171;Database&#187;</text><text fill="#000000" font-family="Arial" font-size="13" font-weight="bold" lengthAdjust="spacing" textLength="71" x="832" y="133.856">MongoDB</text><rect fill="#F4ECF7" height="56.7734" rx="4" ry="4" style="stroke:#8E44AD;stroke-width:2.0;" width="101" x="817" y="1385.0781"/><text fill="#000000" font-family="Arial" font-size="10" font-weight="bold" lengthAdjust="spacing" textLength="66" x="834.5" y="1409.3604">&#171;Database&#187;</text><text fill="#000000" font-family="Arial" font-size="13" font-weight="bold" lengthAdjust="spacing" textLength="71" x="832" y="1423.7856">MongoDB</text><rect fill="#F5EEF8" height="56.7734" rx="4" ry="4" style="stroke:#76448A;stroke-width:2.0;" width="154" x="958" y="95.1484"/><text fill="#000000" font-family="Arial" font-size="10" font-weight="bold" lengthAdjust="spacing" textLength="57" x="1006.5" y="119.4307">&#171;Storage&#187;</text><text fill="#000000" font-family="Arial" font-size="13" font-weight="bold" lengthAdjust="spacing" textLength="124" x="973" y="133.856">Dataset Registry</text><rect fill="#F5EEF8" height="56.7734" rx="4" ry="4" style="stroke:#76448A;stroke-width:2.0;" width="154" x="958" y="1385.0781"/><text fill="#000000" font-family="Arial" font-size="10" font-weight="bold" lengthAdjust="spacing" textLength="57" x="1006.5" y="1409.3604">&#171;Storage&#187;</text><text fill="#000000" font-family="Arial" font-size="13" font-weight="bold" lengthAdjust="spacing" textLength="124" x="973" y="1423.7856">Dataset Registry</text><rect fill="#F8F8F8" height="509.6563" style="stroke:#000000;stroke-width:1.0;" width="10" x="314.5" y="242.8594"/><rect fill="#F8F8F8" height="219.8438" style="stroke:#000000;stroke-width:1.0;" width="10" x="314.5" y="796.4844"/><rect fill="#F8F8F8" height="307.7813" style="stroke:#000000;stroke-width:1.0;" width="10" x="314.5" y="1060.2969"/><rect fill="#F8F8F8" height="364.75" style="stroke:#000000;stroke-width:1.0;" width="10" x="519.5" y="343.7969"/><rect fill="#F8F8F8" height="131.9063" style="stroke:#000000;stroke-width:1.0;" width="10" x="519.5" y="840.4531"/><rect fill="#F8F8F8" height="219.8438" style="stroke:#000000;stroke-width:1.0;" width="10" x="519.5" y="1104.2656"/><polygon fill="#000000" points="307.5,194.8906,317.5,198.8906,307.5,202.8906,311.5,198.8906" style="stroke:#000000;stroke-width:1.0;"/><line style="stroke:#000000;stroke-width:1.5;" x1="40.5" x2="313.5" y1="198.8906" y2="198.8906"/><text fill="#000000" font-family="Arial" font-size="12" lengthAdjust="spacing" textLength="55" x="74" y="186.0605">Navigate</text><text fill="#000000" font-family="Arial" font-size="12" lengthAdjust="spacing" textLength="4" x="129" y="186.0605">&#160;</text><text fill="#000000" font-family="Arial" font-size="12" lengthAdjust="spacing" textLength="13" x="133" y="186.0605">to</text><text fill="#000000" font-family="Arial" font-size="12" lengthAdjust="spacing" textLength="4" x="146" y="186.0605">&#160;</text><text fill="#000000" font-family="Arial" font-size="12" lengthAdjust="spacing" textLength="49" x="150" y="186.0605">dataset</text><text fill="#000000" font-family="Arial" font-size="12" lengthAdjust="spacing" textLength="4" x="199" y="186.0605">&#160;</text><text fill="#000000" font-family="Arial" font-size="12" lengthAdjust="spacing" textLength="83" x="203" y="186.0605">management</text><polygon fill="#000000" points="302.5,238.8594,312.5,242.8594,302.5,246.8594,306.5,242.8594" style="stroke:#000000;stroke-width:1.0;"/><line style="stroke:#000000;stroke-width:1.5;" x1="40.5" x2="308.5" y1="242.8594" y2="242.8594"/><text fill="#000000" font-family="Arial" font-size="12" lengthAdjust="spacing" textLength="44" x="114.5" y="230.0293">Upload</text><text fill="#000000" font-family="Arial" font-size="12" lengthAdjust="spacing" textLength="4" x="158.5" y="230.0293">&#160;</text><text fill="#000000" font-family="Arial" font-size="12" lengthAdjust="spacing" textLength="49" x="162.5" y="230.0293">dataset</text><text fill="#000000" font-family="Arial" font-size="12" lengthAdjust="spacing" textLength="4" x="211.5" y="230.0293">&#160;</text><text fill="#000000" font-family="Arial" font-size="12" lengthAdjust="spacing" textLength="25" x="215.5" y="230.0293">files</text><line style="stroke:#000000;stroke-width:1.5;" x1="324.5" x2="366.5" y1="286.8281" y2="286.8281"/><line style="stroke:#000000;stroke-width:1.5;" x1="366.5" x2="366.5" y1="286.8281" y2="299.8281"/><line style="stroke:#000000;stroke-width:1.5;" x1="325.5" x2="366.5" y1="299.8281" y2="299.8281"/><polygon fill="#000000" points="335.5,295.8281,325.5,299.8281,335.5,303.8281,331.5,299.8281" style="stroke:#000000;stroke-width:1.0;"/><text fill="#000000" font-family="Arial" font-size="12" lengthAdjust="spacing" textLength="51" x="339.5" y="273.998">Validate</text><text fill="#000000" font-family="Arial" font-size="12" lengthAdjust="spacing" textLength="4" x="390.5" y="273.998">&#160;</text><text fill="#000000" font-family="Arial" font-size="12" lengthAdjust="spacing" textLength="49" x="394.5" y="273.998">dataset</text><text fill="#000000" font-family="Arial" font-size="12" lengthAdjust="spacing" textLength="4" x="443.5" y="273.998">&#160;</text><text fill="#000000" font-family="Arial" font-size="12" lengthAdjust="spacing" textLength="41" x="447.5" y="273.998">format</text><polygon fill="#000000" points="507.5,339.7969,517.5,343.7969,507.5,347.7969,511.5,343.7969" style="stroke:#000000;stroke-width:1.0;"/><line style="stroke:#000000;stroke-width:1.5;" x1="324.5" x2="513.5" y1="343.7969" y2="343.7969"/><text fill="#000000" font-family="Arial" font-size="12" lengthAdjust="spacing" textLength="32" x="353.5" y="330.9668">POST</text><text fill="#000000" font-family="Arial" font-size="12" lengthAdjust="spacing" textLength="4" x="385.5" y="330.9668">&#160;</text><text fill="#000000" font-family="Arial" font-size="12" lengthAdjust="spacing" textLength="101" x="389.5" y="330.9668">/api/v1/datasets</text><line style="stroke:#000000;stroke-width:1.5;" x1="529.5" x2="571.5" y1="387.7656" y2="387.7656"/><line style="stroke:#000000;stroke-width:1.5;" x1="571.5" x2="571.5" y1="387.7656" y2="400.7656"/><line style="stroke:#000000;stroke-width:1.5;" x1="530.5" x2="571.5" y1="400.7656" y2="400.7656"/><polygon fill="#000000" points="540.5,396.7656,530.5,400.7656,540.5,404.7656,536.5,400.7656" style="stroke:#000000;stroke-width:1.0;"/><text fill="#000000" font-family="Arial" font-size="12" lengthAdjust="spacing" textLength="51" x="544.5" y="374.9355">Validate</text><text fill="#000000" font-family="Arial" font-size="12" lengthAdjust="spacing" textLength="4" x="595.5" y="374.9355">&#160;</text><text fill="#000000" font-family="Arial" font-size="12" lengthAdjust="spacing" textLength="49" x="599.5" y="374.9355">dataset</text><text fill="#000000" font-family="Arial" font-size="12" lengthAdjust="spacing" textLength="4" x="648.5" y="374.9355">&#160;</text><text fill="#000000" font-family="Arial" font-size="12" lengthAdjust="spacing" textLength="61" x="652.5" y="374.9355">metadata</text><polygon fill="#000000" points="721.5,440.7344,731.5,444.7344,721.5,448.7344,725.5,444.7344" style="stroke:#000000;stroke-width:1.0;"/><line style="stroke:#000000;stroke-width:1.5;" x1="529.5" x2="727.5" y1="444.7344" y2="444.7344"/><text fill="#000000" font-family="Arial" font-size="12" lengthAdjust="spacing" textLength="44" x="568.5" y="431.9043">Upload</text><text fill="#000000" font-family="Arial" font-size="12" lengthAdjust="spacing" textLength="4" x="612.5" y="431.9043">&#160;</text><text fill="#000000" font-family="Arial" font-size="12" lengthAdjust="spacing" textLength="49" x="616.5" y="431.9043">dataset</text><text fill="#000000" font-family="Arial" font-size="12" lengthAdjust="spacing" textLength="4" x="665.5" y="431.9043">&#160;</text><text fill="#000000" font-family="Arial" font-size="12" lengthAdjust="spacing" textLength="25" x="669.5" y="431.9043">files</text><polygon fill="#000000" points="540.5,484.7031,530.5,488.7031,540.5,492.7031,536.5,488.7031" style="stroke:#000000;stroke-width:1.0;"/><line style="stroke:#000000;stroke-width:1.5;stroke-dasharray:2.0,2.0;" x1="534.5" x2="732.5" y1="488.7031" y2="488.7031"/><text fill="#000000" font-family="Arial" font-size="12" lengthAdjust="spacing" textLength="47" x="584.5" y="475.873">Confirm</text><text fill="#000000" font-family="Arial" font-size="12" lengthAdjust="spacing" textLength="4" x="631.5" y="475.873">&#160;</text><text fill="#000000" font-family="Arial" font-size="12" lengthAdjust="spacing" textLength="43" x="635.5" y="475.873">upload</text><polygon fill="#000000" points="855.5,528.6719,865.5,532.6719,855.5,536.6719,859.5,532.6719" style="stroke:#000000;stroke-width:1.0;"/><line style="stroke:#000000;stroke-width:1.5;" x1="529.5" x2="861.5" y1="532.6719" y2="532.6719"/><text fill="#000000" font-family="Arial" font-size="12" lengthAdjust="spacing" textLength="34" x="622.5" y="519.8418">Store</text><text fill="#000000" font-family="Arial" font-size="12" lengthAdjust="spacing" textLength="4" x="656.5" y="519.8418">&#160;</text><text fill="#000000" font-family="Arial" font-size="12" lengthAdjust="spacing" textLength="49" x="660.5" y="519.8418">dataset</text><text fill="#000000" font-family="Arial" font-size="12" lengthAdjust="spacing" textLength="4" x="709.5" y="519.8418">&#160;</text><text fill="#000000" font-family="Arial" font-size="12" lengthAdjust="spacing" textLength="61" x="713.5" y="519.8418">metadata</text><polygon fill="#000000" points="540.5,572.6406,530.5,576.6406,540.5,580.6406,536.5,576.6406" style="stroke:#000000;stroke-width:1.0;"/><line style="stroke:#000000;stroke-width:1.5;stroke-dasharray:2.0,2.0;" x1="534.5" x2="866.5" y1="576.6406" y2="576.6406"/><text fill="#000000" font-family="Arial" font-size="12" lengthAdjust="spacing" textLength="47" x="648.5" y="563.8105">Confirm</text><text fill="#000000" font-family="Arial" font-size="12" lengthAdjust="spacing" textLength="4" x="695.5" y="563.8105">&#160;</text><text fill="#000000" font-family="Arial" font-size="12" lengthAdjust="spacing" textLength="49" x="699.5" y="563.8105">storage</text><polygon fill="#000000" points="1023,616.6094,1033,620.6094,1023,624.6094,1027,620.6094" style="stroke:#000000;stroke-width:1.0;"/><line style="stroke:#000000;stroke-width:1.5;" x1="529.5" x2="1029" y1="620.6094" y2="620.6094"/><text fill="#000000" font-family="Arial" font-size="12" lengthAdjust="spacing" textLength="52" x="696.75" y="607.7793">Register</text><text fill="#000000" font-family="Arial" font-size="12" lengthAdjust="spacing" textLength="4" x="748.75" y="607.7793">&#160;</text><text fill="#000000" font-family="Arial" font-size="12" lengthAdjust="spacing" textLength="49" x="752.75" y="607.7793">dataset</text><text fill="#000000" font-family="Arial" font-size="12" lengthAdjust="spacing" textLength="4" x="801.75" y="607.7793">&#160;</text><text fill="#000000" font-family="Arial" font-size="12" lengthAdjust="spacing" textLength="11" x="805.75" y="607.7793">in</text><text fill="#000000" font-family="Arial" font-size="12" lengthAdjust="spacing" textLength="4" x="816.75" y="607.7793">&#160;</text><text fill="#000000" font-family="Arial" font-size="12" lengthAdjust="spacing" textLength="47" x="820.75" y="607.7793">registry</text><polygon fill="#000000" points="540.5,660.5781,530.5,664.5781,540.5,668.5781,536.5,664.5781" style="stroke:#000000;stroke-width:1.0;"/><line style="stroke:#000000;stroke-width:1.5;stroke-dasharray:2.0,2.0;" x1="534.5" x2="1034" y1="664.5781" y2="664.5781"/><text fill="#000000" font-family="Arial" font-size="12" lengthAdjust="spacing" textLength="47" x="720.25" y="651.748">Confirm</text><text fill="#000000" font-family="Arial" font-size="12" lengthAdjust="spacing" textLength="4" x="767.25" y="651.748">&#160;</text><text fill="#000000" font-family="Arial" font-size="12" lengthAdjust="spacing" textLength="73" x="771.25" y="651.748">registration</text><polygon fill="#000000" points="335.5,704.5469,325.5,708.5469,335.5,712.5469,331.5,708.5469" style="stroke:#000000;stroke-width:1.0;"/><line style="stroke:#000000;stroke-width:1.5;stroke-dasharray:2.0,2.0;" x1="329.5" x2="523.5" y1="708.5469" y2="708.5469"/><text fill="#000000" font-family="Arial" font-size="12" lengthAdjust="spacing" textLength="42" x="376" y="695.7168">Return</text><text fill="#000000" font-family="Arial" font-size="12" lengthAdjust="spacing" textLength="4" x="418" y="695.7168">&#160;</text><text fill="#000000" font-family="Arial" font-size="12" lengthAdjust="spacing" textLength="51" x="422" y="695.7168">success</text><polygon fill="#000000" points="51.5,748.5156,41.5,752.5156,51.5,756.5156,47.5,752.5156" style="stroke:#000000;stroke-width:1.0;"/><line style="stroke:#000000;stroke-width:1.5;stroke-dasharray:2.0,2.0;" x1="45.5" x2="318.5" y1="752.5156" y2="752.5156"/><text fill="#000000" font-family="Arial" font-size="12" lengthAdjust="spacing" textLength="33" x="105.5" y="739.6855">Show</text><text fill="#000000" font-family="Arial" font-size="12" lengthAdjust="spacing" textLength="4" x="138.5" y="739.6855">&#160;</text><text fill="#000000" font-family="Arial" font-size="12" lengthAdjust="spacing" textLength="51" x="142.5" y="739.6855">success</text><text fill="#000000" font-family="Arial" font-size="12" lengthAdjust="spacing" textLength="4" x="193.5" y="739.6855">&#160;</text><text fill="#000000" font-family="Arial" font-size="12" lengthAdjust="spacing" textLength="57" x="197.5" y="739.6855">message</text><polygon fill="#000000" points="302.5,792.4844,312.5,796.4844,302.5,800.4844,306.5,796.4844" style="stroke:#000000;stroke-width:1.0;"/><line style="stroke:#000000;stroke-width:1.5;" x1="115.5" x2="308.5" y1="796.4844" y2="796.4844"/><text fill="#000000" font-family="Arial" font-size="12" lengthAdjust="spacing" textLength="45" x="133" y="783.6543">Browse</text><text fill="#000000" font-family="Arial" font-size="12" lengthAdjust="spacing" textLength="4" x="178" y="783.6543">&#160;</text><text fill="#000000" font-family="Arial" font-size="12" lengthAdjust="spacing" textLength="55" x="182" y="783.6543">available</text><text fill="#000000" font-family="Arial" font-size="12" lengthAdjust="spacing" textLength="4" x="237" y="783.6543">&#160;</text><text fill="#000000" font-family="Arial" font-size="12" lengthAdjust="spacing" textLength="56" x="241" y="783.6543">datasets</text><polygon fill="#000000" points="507.5,836.4531,517.5,840.4531,507.5,844.4531,511.5,840.4531" style="stroke:#000000;stroke-width:1.0;"/><line style="stroke:#000000;stroke-width:1.5;" x1="324.5" x2="513.5" y1="840.4531" y2="840.4531"/><text fill="#000000" font-family="Arial" font-size="12" lengthAdjust="spacing" textLength="24" x="357.5" y="827.623">GET</text><text fill="#000000" font-family="Arial" font-size="12" lengthAdjust="spacing" textLength="4" x="381.5" y="827.623">&#160;</text><text fill="#000000" font-family="Arial" font-size="12" lengthAdjust="spacing" textLength="101" x="385.5" y="827.623">/api/v1/datasets</text><polygon fill="#000000" points="855.5,880.4219,865.5,884.4219,855.5,888.4219,859.5,884.4219" style="stroke:#000000;stroke-width:1.0;"/><line style="stroke:#000000;stroke-width:1.5;" x1="529.5" x2="861.5" y1="884.4219" y2="884.4219"/><text fill="#000000" font-family="Arial" font-size="12" lengthAdjust="spacing" textLength="35" x="622" y="871.5918">Fetch</text><text fill="#000000" font-family="Arial" font-size="12" lengthAdjust="spacing" textLength="4" x="657" y="871.5918">&#160;</text><text fill="#000000" font-family="Arial" font-size="12" lengthAdjust="spacing" textLength="49" x="661" y="871.5918">dataset</text><text fill="#000000" font-family="Arial" font-size="12" lengthAdjust="spacing" textLength="4" x="710" y="871.5918">&#160;</text><text fill="#000000" font-family="Arial" font-size="12" lengthAdjust="spacing" textLength="61" x="714" y="871.5918">metadata</text><polygon fill="#000000" points="540.5,924.3906,530.5,928.3906,540.5,932.3906,536.5,928.3906" style="stroke:#000000;stroke-width:1.0;"/><line style="stroke:#000000;stroke-width:1.5;stroke-dasharray:2.0,2.0;" x1="534.5" x2="866.5" y1="928.3906" y2="928.3906"/><text fill="#000000" font-family="Arial" font-size="12" lengthAdjust="spacing" textLength="42" x="647.5" y="915.5605">Return</text><text fill="#000000" font-family="Arial" font-size="12" lengthAdjust="spacing" textLength="4" x="689.5" y="915.5605">&#160;</text><text fill="#000000" font-family="Arial" font-size="12" lengthAdjust="spacing" textLength="56" x="693.5" y="915.5605">datasets</text><polygon fill="#000000" points="335.5,968.3594,325.5,972.3594,335.5,976.3594,331.5,972.3594" style="stroke:#000000;stroke-width:1.0;"/><line style="stroke:#000000;stroke-width:1.5;stroke-dasharray:2.0,2.0;" x1="329.5" x2="523.5" y1="972.3594" y2="972.3594"/><text fill="#000000" font-family="Arial" font-size="12" lengthAdjust="spacing" textLength="42" x="366" y="959.5293">Return</text><text fill="#000000" font-family="Arial" font-size="12" lengthAdjust="spacing" textLength="4" x="408" y="959.5293">&#160;</text><text fill="#000000" font-family="Arial" font-size="12" lengthAdjust="spacing" textLength="49" x="412" y="959.5293">dataset</text><text fill="#000000" font-family="Arial" font-size="12" lengthAdjust="spacing" textLength="4" x="461" y="959.5293">&#160;</text><text fill="#000000" font-family="Arial" font-size="12" lengthAdjust="spacing" textLength="18" x="465" y="959.5293">list</text><polygon fill="#000000" points="126.5,1012.3281,116.5,1016.3281,126.5,1020.3281,122.5,1016.3281" style="stroke:#000000;stroke-width:1.0;"/><line style="stroke:#000000;stroke-width:1.5;stroke-dasharray:2.0,2.0;" x1="120.5" x2="318.5" y1="1016.3281" y2="1016.3281"/><text fill="#000000" font-family="Arial" font-size="12" lengthAdjust="spacing" textLength="44" x="146.5" y="1003.498">Display</text><text fill="#000000" font-family="Arial" font-size="12" lengthAdjust="spacing" textLength="4" x="190.5" y="1003.498">&#160;</text><text fill="#000000" font-family="Arial" font-size="12" lengthAdjust="spacing" textLength="49" x="194.5" y="1003.498">dataset</text><text fill="#000000" font-family="Arial" font-size="12" lengthAdjust="spacing" textLength="4" x="243.5" y="1003.498">&#160;</text><text fill="#000000" font-family="Arial" font-size="12" lengthAdjust="spacing" textLength="41" x="247.5" y="1003.498">gallery</text><polygon fill="#000000" points="302.5,1056.2969,312.5,1060.2969,302.5,1064.2969,306.5,1060.2969" style="stroke:#000000;stroke-width:1.0;"/><line style="stroke:#000000;stroke-width:1.5;" x1="115.5" x2="308.5" y1="1060.2969" y2="1060.2969"/><text fill="#000000" font-family="Arial" font-size="12" lengthAdjust="spacing" textLength="28" x="151.5" y="1047.4668">View</text><text fill="#000000" font-family="Arial" font-size="12" lengthAdjust="spacing" textLength="4" x="179.5" y="1047.4668">&#160;</text><text fill="#000000" font-family="Arial" font-size="12" lengthAdjust="spacing" textLength="49" x="183.5" y="1047.4668">dataset</text><text fill="#000000" font-family="Arial" font-size="12" lengthAdjust="spacing" textLength="4" x="232.5" y="1047.4668">&#160;</text><text fill="#000000" font-family="Arial" font-size="12" lengthAdjust="spacing" textLength="42" x="236.5" y="1047.4668">details</text><polygon fill="#000000" points="507.5,1100.2656,517.5,1104.2656,507.5,1108.2656,511.5,1104.2656" style="stroke:#000000;stroke-width:1.0;"/><line style="stroke:#000000;stroke-width:1.5;" x1="324.5" x2="513.5" y1="1104.2656" y2="1104.2656"/><text fill="#000000" font-family="Arial" font-size="12" lengthAdjust="spacing" textLength="24" x="342" y="1091.4355">GET</text><text fill="#000000" font-family="Arial" font-size="12" lengthAdjust="spacing" textLength="4" x="366" y="1091.4355">&#160;</text><text fill="#000000" font-family="Arial" font-size="12" lengthAdjust="spacing" textLength="132" x="370" y="1091.4355">/api/v1/datasets/{id}</text><polygon fill="#000000" points="855.5,1144.2344,865.5,1148.2344,855.5,1152.2344,859.5,1148.2344" style="stroke:#000000;stroke-width:1.0;"/><line style="stroke:#000000;stroke-width:1.5;" x1="529.5" x2="861.5" y1="1148.2344" y2="1148.2344"/><text fill="#000000" font-family="Arial" font-size="12" lengthAdjust="spacing" textLength="35" x="622" y="1135.4043">Fetch</text><text fill="#000000" font-family="Arial" font-size="12" lengthAdjust="spacing" textLength="4" x="657" y="1135.4043">&#160;</text><text fill="#000000" font-family="Arial" font-size="12" lengthAdjust="spacing" textLength="49" x="661" y="1135.4043">dataset</text><text fill="#000000" font-family="Arial" font-size="12" lengthAdjust="spacing" textLength="4" x="710" y="1135.4043">&#160;</text><text fill="#000000" font-family="Arial" font-size="12" lengthAdjust="spacing" textLength="61" x="714" y="1135.4043">metadata</text><polygon fill="#000000" points="540.5,1188.2031,530.5,1192.2031,540.5,1196.2031,536.5,1192.2031" style="stroke:#000000;stroke-width:1.0;"/><line style="stroke:#000000;stroke-width:1.5;stroke-dasharray:2.0,2.0;" x1="534.5" x2="866.5" y1="1192.2031" y2="1192.2031"/><text fill="#000000" font-family="Arial" font-size="12" lengthAdjust="spacing" textLength="42" x="651" y="1179.373">Return</text><text fill="#000000" font-family="Arial" font-size="12" lengthAdjust="spacing" textLength="4" x="693" y="1179.373">&#160;</text><text fill="#000000" font-family="Arial" font-size="12" lengthAdjust="spacing" textLength="49" x="697" y="1179.373">dataset</text><polygon fill="#000000" points="721.5,1232.1719,731.5,1236.1719,721.5,1240.1719,725.5,1236.1719" style="stroke:#000000;stroke-width:1.0;"/><line style="stroke:#000000;stroke-width:1.5;" x1="529.5" x2="727.5" y1="1236.1719" y2="1236.1719"/><text fill="#000000" font-family="Arial" font-size="12" lengthAdjust="spacing" textLength="22" x="569.5" y="1223.3418">Get</text><text fill="#000000" font-family="Arial" font-size="12" lengthAdjust="spacing" textLength="4" x="591.5" y="1223.3418">&#160;</text><text fill="#000000" font-family="Arial" font-size="12" lengthAdjust="spacing" textLength="49" x="595.5" y="1223.3418">dataset</text><text fill="#000000" font-family="Arial" font-size="12" lengthAdjust="spacing" textLength="4" x="644.5" y="1223.3418">&#160;</text><text fill="#000000" font-family="Arial" font-size="12" lengthAdjust="spacing" textLength="45" x="648.5" y="1223.3418">sample</text><polygon fill="#000000" points="540.5,1276.1406,530.5,1280.1406,540.5,1284.1406,536.5,1280.1406" style="stroke:#000000;stroke-width:1.0;"/><line style="stroke:#000000;stroke-width:1.5;stroke-dasharray:2.0,2.0;" x1="534.5" x2="732.5" y1="1280.1406" y2="1280.1406"/><text fill="#000000" font-family="Arial" font-size="12" lengthAdjust="spacing" textLength="42" x="569.5" y="1267.3105">Return</text><text fill="#000000" font-family="Arial" font-size="12" lengthAdjust="spacing" textLength="4" x="611.5" y="1267.3105">&#160;</text><text fill="#000000" font-family="Arial" font-size="12" lengthAdjust="spacing" textLength="45" x="615.5" y="1267.3105">sample</text><text fill="#000000" font-family="Arial" font-size="12" lengthAdjust="spacing" textLength="4" x="660.5" y="1267.3105">&#160;</text><text fill="#000000" font-family="Arial" font-size="12" lengthAdjust="spacing" textLength="29" x="664.5" y="1267.3105">data</text><polygon fill="#000000" points="335.5,1320.1094,325.5,1324.1094,335.5,1328.1094,331.5,1324.1094" style="stroke:#000000;stroke-width:1.0;"/><line style="stroke:#000000;stroke-width:1.5;stroke-dasharray:2.0,2.0;" x1="329.5" x2="523.5" y1="1324.1094" y2="1324.1094"/><text fill="#000000" font-family="Arial" font-size="12" lengthAdjust="spacing" textLength="42" x="354.5" y="1311.2793">Return</text><text fill="#000000" font-family="Arial" font-size="12" lengthAdjust="spacing" textLength="4" x="396.5" y="1311.2793">&#160;</text><text fill="#000000" font-family="Arial" font-size="12" lengthAdjust="spacing" textLength="61" x="400.5" y="1311.2793">combined</text><text fill="#000000" font-family="Arial" font-size="12" lengthAdjust="spacing" textLength="4" x="461.5" y="1311.2793">&#160;</text><text fill="#000000" font-family="Arial" font-size="12" lengthAdjust="spacing" textLength="29" x="465.5" y="1311.2793">data</text><polygon fill="#000000" points="126.5,1364.0781,116.5,1368.0781,126.5,1372.0781,122.5,1368.0781" style="stroke:#000000;stroke-width:1.0;"/><line style="stroke:#000000;stroke-width:1.5;stroke-dasharray:2.0,2.0;" x1="120.5" x2="318.5" y1="1368.0781" y2="1368.0781"/><text fill="#000000" font-family="Arial" font-size="12" lengthAdjust="spacing" textLength="44" x="146" y="1355.248">Display</text><text fill="#000000" font-family="Arial" font-size="12" lengthAdjust="spacing" textLength="4" x="190" y="1355.248">&#160;</text><text fill="#000000" font-family="Arial" font-size="12" lengthAdjust="spacing" textLength="49" x="194" y="1355.248">dataset</text><text fill="#000000" font-family="Arial" font-size="12" lengthAdjust="spacing" textLength="4" x="243" y="1355.248">&#160;</text><text fill="#000000" font-family="Arial" font-size="12" lengthAdjust="spacing" textLength="42" x="247" y="1355.248">details</text><rect fill="none" height="385.2656" id="_legend" rx="4" ry="4" style="stroke:#000000;stroke-width:1.0;" width="383" x="736" y="1490.375"/><text fill="#000000" font-family="Arial" font-size="14" font-weight="bold" lengthAdjust="spacing" textLength="88" x="762" y="1526.3701">Entity Type</text><text fill="#000000" font-family="Arial" font-size="14" font-weight="bold" lengthAdjust="spacing" textLength="90" x="876" y="1526.3701">Description</text><rect fill="#E9F7EF" height="32.2969" style="stroke:none;stroke-width:1.0;" width="114" x="749" y="1537.6719"/><text fill="#000000" font-family="Arial" font-size="14" lengthAdjust="spacing" textLength="4" x="757" y="1558.667">&#160;</text><text fill="#000000" font-family="Arial" font-size="14" lengthAdjust="spacing" textLength="219" x="875" y="1558.667">Frontend - Web/UI Components</text><rect fill="#EBF5FB" height="32.2969" style="stroke:none;stroke-width:1.0;" width="114" x="749" y="1569.9688"/><text fill="#000000" font-family="Arial" font-size="14" lengthAdjust="spacing" textLength="4" x="757" y="1590.9639">&#160;</text><text fill="#000000" font-family="Arial" font-size="14" lengthAdjust="spacing" textLength="157" x="875" y="1590.9639">API - Backend Services</text><rect fill="#F9EBEA" height="32.2969" style="stroke:none;stroke-width:1.0;" width="114" x="749" y="1602.2656"/><text fill="#000000" font-family="Arial" font-size="14" lengthAdjust="spacing" textLength="4" x="757" y="1623.2607">&#160;</text><text fill="#000000" font-family="Arial" font-size="14" lengthAdjust="spacing" textLength="207" x="875" y="1623.2607">Auth - Authentication Services</text><rect fill="#F4ECF7" height="32.2969" style="stroke:none;stroke-width:1.0;" width="114" x="749" y="1634.5625"/><text fill="#000000" font-family="Arial" font-size="14" lengthAdjust="spacing" textLength="4" x="757" y="1655.5576">&#160;</text><text fill="#000000" font-family="Arial" font-size="14" lengthAdjust="spacing" textLength="169" x="875" y="1655.5576">Database - Data Storage</text><rect fill="#FEF9E7" height="32.2969" style="stroke:none;stroke-width:1.0;" width="114" x="749" y="1666.8594"/><text fill="#000000" font-family="Arial" font-size="14" lengthAdjust="spacing" textLength="4" x="757" y="1687.8545">&#160;</text><text fill="#000000" font-family="Arial" font-size="14" lengthAdjust="spacing" textLength="191" x="875" y="1687.8545">External - 3rd Party Services</text><rect fill="#FADBD8" height="32.2969" style="stroke:none;stroke-width:1.0;" width="114" x="749" y="1699.1563"/><text fill="#000000" font-family="Arial" font-size="14" lengthAdjust="spacing" textLength="4" x="757" y="1720.1514">&#160;</text><text fill="#000000" font-family="Arial" font-size="14" lengthAdjust="spacing" textLength="183" x="875" y="1720.1514">Contract - Smart Contracts</text><rect fill="#FCF3CF" height="32.2969" style="stroke:none;stroke-width:1.0;" width="114" x="749" y="1731.4531"/><text fill="#000000" font-family="Arial" font-size="14" lengthAdjust="spacing" textLength="4" x="757" y="1752.4482">&#160;</text><text fill="#000000" font-family="Arial" font-size="14" lengthAdjust="spacing" textLength="182" x="875" y="1752.4482">Queue - Message Queues</text><rect fill="#D6EAF8" height="32.2969" style="stroke:none;stroke-width:1.0;" width="114" x="749" y="1763.75"/><text fill="#000000" font-family="Arial" font-size="14" lengthAdjust="spacing" textLength="4" x="757" y="1784.7451">&#160;</text><text fill="#000000" font-family="Arial" font-size="14" lengthAdjust="spacing" textLength="182" x="875" y="1784.7451">Operator - Validator Nodes</text><rect fill="#D4EFDF" height="32.2969" style="stroke:none;stroke-width:1.0;" width="114" x="749" y="1796.0469"/><text fill="#000000" font-family="Arial" font-size="14" lengthAdjust="spacing" textLength="4" x="757" y="1817.042">&#160;</text><text fill="#000000" font-family="Arial" font-size="14" lengthAdjust="spacing" textLength="208" x="875" y="1817.042">Evaluator - Evaluation Services</text><rect fill="#F5EEF8" height="32.2969" style="stroke:none;stroke-width:1.0;" width="114" x="749" y="1828.3438"/><text fill="#000000" font-family="Arial" font-size="14" lengthAdjust="spacing" textLength="4" x="757" y="1849.3389">&#160;</text><text fill="#000000" font-family="Arial" font-size="14" lengthAdjust="spacing" textLength="183" x="875" y="1849.3389">Storage - Storage Services</text><line style="stroke:#000000;stroke-width:1.0;" x1="749" x2="1106" y1="1505.375" y2="1505.375"/><line style="stroke:#000000;stroke-width:1.0;" x1="749" x2="1106" y1="1537.6719" y2="1537.6719"/><line style="stroke:#000000;stroke-width:1.0;" x1="749" x2="1106" y1="1569.9688" y2="1569.9688"/><line style="stroke:#000000;stroke-width:1.0;" x1="749" x2="1106" y1="1602.2656" y2="1602.2656"/><line style="stroke:#000000;stroke-width:1.0;" x1="749" x2="1106" y1="1634.5625" y2="1634.5625"/><line style="stroke:#000000;stroke-width:1.0;" x1="749" x2="1106" y1="1666.8594" y2="1666.8594"/><line style="stroke:#000000;stroke-width:1.0;" x1="749" x2="1106" y1="1699.1563" y2="1699.1563"/><line style="stroke:#000000;stroke-width:1.0;" x1="749" x2="1106" y1="1731.4531" y2="1731.4531"/><line style="stroke:#000000;stroke-width:1.0;" x1="749" x2="1106" y1="1763.75" y2="1763.75"/><line style="stroke:#000000;stroke-width:1.0;" x1="749" x2="1106" y1="1796.0469" y2="1796.0469"/><line style="stroke:#000000;stroke-width:1.0;" x1="749" x2="1106" y1="1828.3438" y2="1828.3438"/><line style="stroke:#000000;stroke-width:1.0;" x1="749" x2="1106" y1="1860.6406" y2="1860.6406"/><line style="stroke:#000000;stroke-width:1.0;" x1="749" x2="749" y1="1505.375" y2="1860.6406"/><line style="stroke:#000000;stroke-width:1.0;" x1="863" x2="863" y1="1505.375" y2="1860.6406"/><line style="stroke:#000000;stroke-width:1.0;" x1="1106" x2="1106" y1="1505.375" y2="1860.6406"/><!--SRC=[jPHFJ-Cm4CNl_XIptBlLghS8LIhRBUB0BYB0dgV942pvJsGxhIh4TyTERTFGi5iXSKaSvRtdcT_4-SPL9RgQeD9IQZMnRYVeUzj9mPZZJX0iqQ4b1zUei259oi5Aw2rZM3bjO55BhkBwtf9XBHh7AzwY5vujd40BAwEL8rMVmS43d9-dvNm-vbhSNFK6V_TQVpsI_IsXdFMQSkObfQ_1b_XUTgrLevSNlIwklJYqjVQDlLUdTc-fuTQPNMzB3uDD6EjxXyayzrJ0Rzpm1Xs1qr37A9d9ZJdkMw6npk97BiW6ddmJOfAEPMm3ymCANWTTjciZqGtKdbm1Dt_AEvXYowUR7zCeFjZ6QrZWdEH7kP8SXdLIbRCFAlUJcAIKdrezSYEXwuN96cTGG40viaEQqL6CtQDFEMaeHLoHoLcUiOblMPxTKLwKeEDQxKC7R6_9TKQ1xQgAh6Kr3MYz4GwnOQo-eIUzJNhVZxMXsWDV7YOB9sKuoGkZjvO0DyW5haNcyhzleU_eyjU9mytiL-IgfnFOHmWvz4DCAKfufFza5LelOCbjAt2NRGqAGNvQ9z9wuBJDtjfNpyMdGKsVUVto5RGEpyfbg3FwBSfMqE2af6-jVmDl1ssCjFzJhxcY_S7x1Eg4QmJrAm00]--></g></svg>