<?xml version="1.0" encoding="us-ascii" standalone="no"?><svg xmlns="http://www.w3.org/2000/svg" xmlns:xlink="http://www.w3.org/1999/xlink" contentStyleType="text/css" height="1720px" preserveAspectRatio="none" style="width:1180px;height:1720px;background:#FFFFFF;" version="1.1" viewBox="0 0 1180 1720" width="1180px" zoomAndPan="magnify"><defs/><g><text fill="#303030" font-family="Arial" font-size="16" font-weight="bold" lengthAdjust="spacing" textLength="293" x="439.5" y="38.0078">Results Viewing and Comparison Flow</text><rect fill="#FFFFFF" height="218.9941" style="stroke:#CCCCCC;stroke-width:1.0;" width="10" x="275.5" y="249.2446"/><rect fill="#FFFFFF" height="363.3906" style="stroke:#CCCCCC;stroke-width:1.0;" width="10" x="275.5" y="512.0376"/><rect fill="#FFFFFF" height="377.1895" style="stroke:#CCCCCC;stroke-width:1.0;" width="10" x="275.5" y="919.2271"/><rect fill="#FFFFFF" height="131.3965" style="stroke:#CCCCCC;stroke-width:1.0;" width="10" x="628.5" y="293.0435"/><rect fill="#FFFFFF" height="218.9941" style="stroke:#CCCCCC;stroke-width:1.0;" width="10" x="628.5" y="555.8364"/><rect fill="#FFFFFF" height="218.9941" style="stroke:#CCCCCC;stroke-width:1.0;" width="10" x="628.5" y="976.8247"/><line style="stroke:#CCCCCC;stroke-width:0.5;stroke-dasharray:5.0,5.0;" x1="45" x2="45" y1="152.4971" y2="1314.4165"/><line style="stroke:#CCCCCC;stroke-width:0.5;stroke-dasharray:5.0,5.0;" x1="280" x2="280" y1="152.4971" y2="1314.4165"/><line style="stroke:#CCCCCC;stroke-width:0.5;stroke-dasharray:5.0,5.0;" x1="633" x2="633" y1="152.4971" y2="1314.4165"/><line style="stroke:#CCCCCC;stroke-width:0.5;stroke-dasharray:5.0,5.0;" x1="834" x2="834" y1="152.4971" y2="1314.4165"/><line style="stroke:#CCCCCC;stroke-width:0.5;stroke-dasharray:5.0,5.0;" x1="974" x2="974" y1="152.4971" y2="1314.4165"/><line style="stroke:#CCCCCC;stroke-width:0.5;stroke-dasharray:5.0,5.0;" x1="1108" x2="1108" y1="152.4971" y2="1314.4165"/><text fill="#000000" font-family="Arial" font-size="14" font-weight="bold" lengthAdjust="spacing" textLength="31" x="27" y="141.5303">User</text><ellipse cx="45.5" cy="68.8984" fill="#FFFFFF" rx="8" ry="8" style="stroke:#454545;stroke-width:0.5;"/><path d="M45.5,76.8984 L45.5,103.8984 M32.5,84.8984 L58.5,84.8984 M45.5,103.8984 L32.5,118.8984 M45.5,103.8984 L58.5,118.8984 " fill="none" style="stroke:#454545;stroke-width:0.5;"/><rect fill="#E9F7EF" height="56.4478" rx="4" ry="4" style="stroke:#27AE60;stroke-width:2.0;" width="121" x="220" y="95.0493"/><text fill="#000000" font-family="Arial" font-size="10" font-weight="bold" lengthAdjust="spacing" textLength="55" x="253" y="119.4292">&#171;Frontend&#187;</text><text fill="#000000" font-family="Arial" font-size="13" font-weight="bold" lengthAdjust="spacing" textLength="91" x="235" y="133.7422">Atlas Frontend</text><rect fill="#EBF5FB" height="56.4478" rx="4" ry="4" style="stroke:#3498DB;stroke-width:2.0;" width="87" x="590" y="95.0493"/><text fill="#000000" font-family="Arial" font-size="10" font-weight="bold" lengthAdjust="spacing" textLength="29" x="619" y="119.4292">&#171;API&#187;</text><text fill="#000000" font-family="Arial" font-size="13" font-weight="bold" lengthAdjust="spacing" textLength="57" x="605" y="133.7422">Atlas API</text><rect fill="#F4ECF7" height="56.4478" rx="4" ry="4" style="stroke:#8E44AD;stroke-width:2.0;" width="91" x="789" y="95.0493"/><text fill="#000000" font-family="Arial" font-size="10" font-weight="bold" lengthAdjust="spacing" textLength="58" x="805.5" y="119.4292">&#171;Database&#187;</text><text fill="#000000" font-family="Arial" font-size="13" font-weight="bold" lengthAdjust="spacing" textLength="61" x="804" y="133.7422">MongoDB</text><rect fill="#F4ECF7" height="56.4478" rx="4" ry="4" style="stroke:#8E44AD;stroke-width:2.0;" width="88" x="930" y="95.0493"/><text fill="#000000" font-family="Arial" font-size="10" font-weight="bold" lengthAdjust="spacing" textLength="58" x="945" y="119.4292">&#171;Database&#187;</text><text fill="#000000" font-family="Arial" font-size="13" font-weight="bold" lengthAdjust="spacing" textLength="52" x="948" y="133.7422">MariaDB</text><rect fill="#F5EEF8" height="56.4478" rx="4" ry="4" style="stroke:#76448A;stroke-width:2.0;" width="80" x="1068" y="95.0493"/><text fill="#000000" font-family="Arial" font-size="10" font-weight="bold" lengthAdjust="spacing" textLength="50" x="1083" y="119.4292">&#171;Storage&#187;</text><text fill="#000000" font-family="Arial" font-size="13" font-weight="bold" lengthAdjust="spacing" textLength="50" x="1083" y="133.7422">AWS S3</text><rect fill="#FFFFFF" height="218.9941" style="stroke:#CCCCCC;stroke-width:1.0;" width="10" x="275.5" y="249.2446"/><rect fill="#FFFFFF" height="363.3906" style="stroke:#CCCCCC;stroke-width:1.0;" width="10" x="275.5" y="512.0376"/><rect fill="#FFFFFF" height="377.1895" style="stroke:#CCCCCC;stroke-width:1.0;" width="10" x="275.5" y="919.2271"/><rect fill="#FFFFFF" height="131.3965" style="stroke:#CCCCCC;stroke-width:1.0;" width="10" x="628.5" y="293.0435"/><rect fill="#FFFFFF" height="218.9941" style="stroke:#CCCCCC;stroke-width:1.0;" width="10" x="628.5" y="555.8364"/><rect fill="#FFFFFF" height="218.9941" style="stroke:#CCCCCC;stroke-width:1.0;" width="10" x="628.5" y="976.8247"/><path d="M5,171.4971 L5,203.4971 A4,4 0 0 0 9,207.4971 L1145,207.4971 A4,4 0 0 0 1149,203.4971 L1149,177.4971 L1139,167.4971 L9,167.4971 A4,4 0 0 0 5,171.4971 " fill="#FFFFDD" style="stroke:#999999;stroke-width:1.0;"/><path d="M1139,167.4971 L1139,175.4971 A2,2 0 0 0 1141,177.4971 L1149,177.4971 L1139,167.4971 " fill="#FFFFDD" style="stroke:#999999;stroke-width:1.0;"/><text fill="#000000" font-family="Arial" font-size="13" lengthAdjust="spacing" textLength="184" x="485" y="192.6909">Viewing and Comparing Results</text><polygon fill="#454545" points="263.5,245.2446,273.5,249.2446,263.5,253.2446,267.5,249.2446" style="stroke:#454545;stroke-width:1.0;"/><line style="stroke:#454545;stroke-width:1.5;" x1="45.5" x2="269.5" y1="249.2446" y2="249.2446"/><text fill="#000000" font-family="Arial" font-size="12" lengthAdjust="spacing" textLength="49" x="96.5" y="236.7017">Navigate</text><text fill="#000000" font-family="Arial" font-size="12" lengthAdjust="spacing" textLength="3" x="145.5" y="236.7017">&#160;</text><text fill="#000000" font-family="Arial" font-size="12" lengthAdjust="spacing" textLength="10" x="148.5" y="236.7017">to</text><text fill="#000000" font-family="Arial" font-size="12" lengthAdjust="spacing" textLength="3" x="158.5" y="236.7017">&#160;</text><text fill="#000000" font-family="Arial" font-size="12" lengthAdjust="spacing" textLength="63" x="161.5" y="236.7017">evaluations</text><polygon fill="#454545" points="616.5,289.0435,626.5,293.0435,616.5,297.0435,620.5,293.0435" style="stroke:#454545;stroke-width:1.0;"/><line style="stroke:#454545;stroke-width:1.5;" x1="285.5" x2="622.5" y1="293.0435" y2="293.0435"/><text fill="#000000" font-family="Arial" font-size="12" lengthAdjust="spacing" textLength="24" x="392.5" y="280.5005">GET</text><text fill="#000000" font-family="Arial" font-size="12" lengthAdjust="spacing" textLength="3" x="416.5" y="280.5005">&#160;</text><text fill="#000000" font-family="Arial" font-size="12" lengthAdjust="spacing" textLength="102" x="419.5" y="280.5005">/api/v1/evaluations</text><polygon fill="#454545" points="822.5,332.8423,832.5,336.8423,822.5,340.8423,826.5,336.8423" style="stroke:#454545;stroke-width:1.0;"/><line style="stroke:#454545;stroke-width:1.5;" x1="638.5" x2="828.5" y1="336.8423" y2="336.8423"/><text fill="#000000" font-family="Arial" font-size="12" lengthAdjust="spacing" textLength="30" x="671" y="324.2993">Fetch</text><text fill="#000000" font-family="Arial" font-size="12" lengthAdjust="spacing" textLength="3" x="701" y="324.2993">&#160;</text><text fill="#000000" font-family="Arial" font-size="12" lengthAdjust="spacing" textLength="32" x="704" y="324.2993">user's</text><text fill="#000000" font-family="Arial" font-size="12" lengthAdjust="spacing" textLength="3" x="736" y="324.2993">&#160;</text><text fill="#000000" font-family="Arial" font-size="12" lengthAdjust="spacing" textLength="63" x="739" y="324.2993">evaluations</text><polygon fill="#454545" points="649.5,376.6411,639.5,380.6411,649.5,384.6411,645.5,380.6411" style="stroke:#454545;stroke-width:1.0;"/><line style="stroke:#454545;stroke-width:1.5;stroke-dasharray:2.0,2.0;" x1="643.5" x2="833.5" y1="380.6411" y2="380.6411"/><text fill="#000000" font-family="Arial" font-size="12" lengthAdjust="spacing" textLength="37" x="685" y="368.0981">Return</text><text fill="#000000" font-family="Arial" font-size="12" lengthAdjust="spacing" textLength="3" x="722" y="368.0981">&#160;</text><text fill="#000000" font-family="Arial" font-size="12" lengthAdjust="spacing" textLength="63" x="725" y="368.0981">evaluations</text><polygon fill="#454545" points="296.5,420.4399,286.5,424.4399,296.5,428.4399,292.5,424.4399" style="stroke:#454545;stroke-width:1.0;"/><line style="stroke:#454545;stroke-width:1.5;stroke-dasharray:2.0,2.0;" x1="290.5" x2="632.5" y1="424.4399" y2="424.4399"/><text fill="#000000" font-family="Arial" font-size="12" lengthAdjust="spacing" textLength="37" x="402" y="411.897">Return</text><text fill="#000000" font-family="Arial" font-size="12" lengthAdjust="spacing" textLength="3" x="439" y="411.897">&#160;</text><text fill="#000000" font-family="Arial" font-size="12" lengthAdjust="spacing" textLength="57" x="442" y="411.897">evaluation</text><text fill="#000000" font-family="Arial" font-size="12" lengthAdjust="spacing" textLength="3" x="499" y="411.897">&#160;</text><text fill="#000000" font-family="Arial" font-size="12" lengthAdjust="spacing" textLength="15" x="502" y="411.897">list</text><polygon fill="#454545" points="56.5,464.2388,46.5,468.2388,56.5,472.2388,52.5,468.2388" style="stroke:#454545;stroke-width:1.0;"/><line style="stroke:#454545;stroke-width:1.5;stroke-dasharray:2.0,2.0;" x1="50.5" x2="279.5" y1="468.2388" y2="468.2388"/><text fill="#000000" font-family="Arial" font-size="12" lengthAdjust="spacing" textLength="41" x="109.5" y="455.6958">Display</text><text fill="#000000" font-family="Arial" font-size="12" lengthAdjust="spacing" textLength="3" x="150.5" y="455.6958">&#160;</text><text fill="#000000" font-family="Arial" font-size="12" lengthAdjust="spacing" textLength="63" x="153.5" y="455.6958">evaluations</text><polygon fill="#454545" points="263.5,508.0376,273.5,512.0376,263.5,516.0376,267.5,512.0376" style="stroke:#454545;stroke-width:1.0;"/><line style="stroke:#454545;stroke-width:1.5;" x1="45.5" x2="269.5" y1="512.0376" y2="512.0376"/><text fill="#000000" font-family="Arial" font-size="12" lengthAdjust="spacing" textLength="34" x="85.5" y="499.4946">Select</text><text fill="#000000" font-family="Arial" font-size="12" lengthAdjust="spacing" textLength="3" x="119.5" y="499.4946">&#160;</text><text fill="#000000" font-family="Arial" font-size="12" lengthAdjust="spacing" textLength="57" x="122.5" y="499.4946">evaluation</text><text fill="#000000" font-family="Arial" font-size="12" lengthAdjust="spacing" textLength="3" x="179.5" y="499.4946">&#160;</text><text fill="#000000" font-family="Arial" font-size="12" lengthAdjust="spacing" textLength="14" x="182.5" y="499.4946">for</text><text fill="#000000" font-family="Arial" font-size="12" lengthAdjust="spacing" textLength="3" x="196.5" y="499.4946">&#160;</text><text fill="#000000" font-family="Arial" font-size="12" lengthAdjust="spacing" textLength="36" x="199.5" y="499.4946">details</text><polygon fill="#454545" points="616.5,551.8364,626.5,555.8364,616.5,559.8364,620.5,555.8364" style="stroke:#454545;stroke-width:1.0;"/><line style="stroke:#454545;stroke-width:1.5;" x1="285.5" x2="622.5" y1="555.8364" y2="555.8364"/><text fill="#000000" font-family="Arial" font-size="12" lengthAdjust="spacing" textLength="24" x="382" y="543.2935">GET</text><text fill="#000000" font-family="Arial" font-size="12" lengthAdjust="spacing" textLength="3" x="406" y="543.2935">&#160;</text><text fill="#000000" font-family="Arial" font-size="12" lengthAdjust="spacing" textLength="123" x="409" y="543.2935">/api/v1/evaluations/{id}</text><polygon fill="#454545" points="822.5,595.6353,832.5,599.6353,822.5,603.6353,826.5,599.6353" style="stroke:#454545;stroke-width:1.0;"/><line style="stroke:#454545;stroke-width:1.5;" x1="638.5" x2="828.5" y1="599.6353" y2="599.6353"/><text fill="#000000" font-family="Arial" font-size="12" lengthAdjust="spacing" textLength="30" x="664.5" y="587.0923">Fetch</text><text fill="#000000" font-family="Arial" font-size="12" lengthAdjust="spacing" textLength="3" x="694.5" y="587.0923">&#160;</text><text fill="#000000" font-family="Arial" font-size="12" lengthAdjust="spacing" textLength="57" x="697.5" y="587.0923">evaluation</text><text fill="#000000" font-family="Arial" font-size="12" lengthAdjust="spacing" textLength="3" x="754.5" y="587.0923">&#160;</text><text fill="#000000" font-family="Arial" font-size="12" lengthAdjust="spacing" textLength="51" x="757.5" y="587.0923">metadata</text><polygon fill="#454545" points="649.5,639.4341,639.5,643.4341,649.5,647.4341,645.5,643.4341" style="stroke:#454545;stroke-width:1.0;"/><line style="stroke:#454545;stroke-width:1.5;stroke-dasharray:2.0,2.0;" x1="643.5" x2="833.5" y1="643.4341" y2="643.4341"/><text fill="#000000" font-family="Arial" font-size="12" lengthAdjust="spacing" textLength="37" x="691" y="630.8911">Return</text><text fill="#000000" font-family="Arial" font-size="12" lengthAdjust="spacing" textLength="3" x="728" y="630.8911">&#160;</text><text fill="#000000" font-family="Arial" font-size="12" lengthAdjust="spacing" textLength="51" x="731" y="630.8911">metadata</text><polygon fill="#454545" points="1096,683.2329,1106,687.2329,1096,691.2329,1100,687.2329" style="stroke:#454545;stroke-width:1.0;"/><line style="stroke:#454545;stroke-width:1.5;" x1="638.5" x2="1102" y1="687.2329" y2="687.2329"/><text fill="#000000" font-family="Arial" font-size="12" lengthAdjust="spacing" textLength="30" x="815.25" y="674.6899">Fetch</text><text fill="#000000" font-family="Arial" font-size="12" lengthAdjust="spacing" textLength="3" x="845.25" y="674.6899">&#160;</text><text fill="#000000" font-family="Arial" font-size="12" lengthAdjust="spacing" textLength="44" x="848.25" y="674.6899">detailed</text><text fill="#000000" font-family="Arial" font-size="12" lengthAdjust="spacing" textLength="3" x="892.25" y="674.6899">&#160;</text><text fill="#000000" font-family="Arial" font-size="12" lengthAdjust="spacing" textLength="36" x="895.25" y="674.6899">results</text><polygon fill="#454545" points="649.5,727.0317,639.5,731.0317,649.5,735.0317,645.5,731.0317" style="stroke:#454545;stroke-width:1.0;"/><line style="stroke:#454545;stroke-width:1.5;stroke-dasharray:2.0,2.0;" x1="643.5" x2="1107" y1="731.0317" y2="731.0317"/><text fill="#000000" font-family="Arial" font-size="12" lengthAdjust="spacing" textLength="37" x="824.75" y="718.4888">Return</text><text fill="#000000" font-family="Arial" font-size="12" lengthAdjust="spacing" textLength="3" x="861.75" y="718.4888">&#160;</text><text fill="#000000" font-family="Arial" font-size="12" lengthAdjust="spacing" textLength="30" x="864.75" y="718.4888">result</text><text fill="#000000" font-family="Arial" font-size="12" lengthAdjust="spacing" textLength="3" x="894.75" y="718.4888">&#160;</text><text fill="#000000" font-family="Arial" font-size="12" lengthAdjust="spacing" textLength="24" x="897.75" y="718.4888">data</text><polygon fill="#454545" points="296.5,770.8306,286.5,774.8306,296.5,778.8306,292.5,774.8306" style="stroke:#454545;stroke-width:1.0;"/><line style="stroke:#454545;stroke-width:1.5;stroke-dasharray:2.0,2.0;" x1="290.5" x2="632.5" y1="774.8306" y2="774.8306"/><text fill="#000000" font-family="Arial" font-size="12" lengthAdjust="spacing" textLength="37" x="399" y="762.2876">Return</text><text fill="#000000" font-family="Arial" font-size="12" lengthAdjust="spacing" textLength="3" x="436" y="762.2876">&#160;</text><text fill="#000000" font-family="Arial" font-size="12" lengthAdjust="spacing" textLength="54" x="439" y="762.2876">combined</text><text fill="#000000" font-family="Arial" font-size="12" lengthAdjust="spacing" textLength="3" x="493" y="762.2876">&#160;</text><text fill="#000000" font-family="Arial" font-size="12" lengthAdjust="spacing" textLength="24" x="496" y="762.2876">data</text><line style="stroke:#454545;stroke-width:1.5;" x1="285.5" x2="327.5" y1="818.6294" y2="818.6294"/><line style="stroke:#454545;stroke-width:1.5;" x1="327.5" x2="327.5" y1="818.6294" y2="831.6294"/><line style="stroke:#454545;stroke-width:1.5;" x1="286.5" x2="327.5" y1="831.6294" y2="831.6294"/><polygon fill="#454545" points="296.5,827.6294,286.5,831.6294,296.5,835.6294,292.5,831.6294" style="stroke:#454545;stroke-width:1.0;"/><text fill="#000000" font-family="Arial" font-size="12" lengthAdjust="spacing" textLength="44" x="300.5" y="806.0864">Process</text><text fill="#000000" font-family="Arial" font-size="12" lengthAdjust="spacing" textLength="3" x="344.5" y="806.0864">&#160;</text><text fill="#000000" font-family="Arial" font-size="12" lengthAdjust="spacing" textLength="21" x="347.5" y="806.0864">and</text><text fill="#000000" font-family="Arial" font-size="12" lengthAdjust="spacing" textLength="3" x="368.5" y="806.0864">&#160;</text><text fill="#000000" font-family="Arial" font-size="12" lengthAdjust="spacing" textLength="48" x="371.5" y="806.0864">visualize</text><text fill="#000000" font-family="Arial" font-size="12" lengthAdjust="spacing" textLength="3" x="419.5" y="806.0864">&#160;</text><text fill="#000000" font-family="Arial" font-size="12" lengthAdjust="spacing" textLength="36" x="422.5" y="806.0864">results</text><polygon fill="#454545" points="56.5,871.4282,46.5,875.4282,56.5,879.4282,52.5,875.4282" style="stroke:#454545;stroke-width:1.0;"/><line style="stroke:#454545;stroke-width:1.5;stroke-dasharray:2.0,2.0;" x1="50.5" x2="279.5" y1="875.4282" y2="875.4282"/><text fill="#000000" font-family="Arial" font-size="12" lengthAdjust="spacing" textLength="41" x="68" y="862.8853">Display</text><text fill="#000000" font-family="Arial" font-size="12" lengthAdjust="spacing" textLength="3" x="109" y="862.8853">&#160;</text><text fill="#000000" font-family="Arial" font-size="12" lengthAdjust="spacing" textLength="44" x="112" y="862.8853">detailed</text><text fill="#000000" font-family="Arial" font-size="12" lengthAdjust="spacing" textLength="3" x="156" y="862.8853">&#160;</text><text fill="#000000" font-family="Arial" font-size="12" lengthAdjust="spacing" textLength="39" x="159" y="862.8853">metrics</text><text fill="#000000" font-family="Arial" font-size="12" lengthAdjust="spacing" textLength="3" x="198" y="862.8853">&#160;</text><text fill="#000000" font-family="Arial" font-size="12" lengthAdjust="spacing" textLength="21" x="201" y="862.8853">and</text><text fill="#000000" font-family="Arial" font-size="12" lengthAdjust="spacing" textLength="3" x="222" y="862.8853">&#160;</text><text fill="#000000" font-family="Arial" font-size="12" lengthAdjust="spacing" textLength="33" x="225" y="862.8853">charts</text><polygon fill="#454545" points="263.5,915.2271,273.5,919.2271,263.5,923.2271,267.5,919.2271" style="stroke:#454545;stroke-width:1.0;"/><line style="stroke:#454545;stroke-width:1.5;" x1="45.5" x2="269.5" y1="919.2271" y2="919.2271"/><text fill="#000000" font-family="Arial" font-size="12" lengthAdjust="spacing" textLength="46" x="85.5" y="906.6841">Request</text><text fill="#000000" font-family="Arial" font-size="12" lengthAdjust="spacing" textLength="3" x="131.5" y="906.6841">&#160;</text><text fill="#000000" font-family="Arial" font-size="12" lengthAdjust="spacing" textLength="34" x="134.5" y="906.6841">model</text><text fill="#000000" font-family="Arial" font-size="12" lengthAdjust="spacing" textLength="3" x="168.5" y="906.6841">&#160;</text><text fill="#000000" font-family="Arial" font-size="12" lengthAdjust="spacing" textLength="64" x="171.5" y="906.6841">comparison</text><polygon fill="#454545" points="616.5,972.8247,626.5,976.8247,616.5,980.8247,620.5,976.8247" style="stroke:#454545;stroke-width:1.0;"/><line style="stroke:#454545;stroke-width:1.5;" x1="285.5" x2="622.5" y1="976.8247" y2="976.8247"/><text fill="#000000" font-family="Arial" font-size="12" lengthAdjust="spacing" textLength="24" x="445" y="950.4829">GET</text><text fill="#000000" font-family="Arial" font-size="12" lengthAdjust="spacing" textLength="308" x="303" y="964.2817">/api/v1/models/compare?ids=model1,model2&amp;dataset=X</text><polygon fill="#454545" points="962,1016.6235,972,1020.6235,962,1024.6235,966,1020.6235" style="stroke:#454545;stroke-width:1.0;"/><line style="stroke:#454545;stroke-width:1.5;" x1="638.5" x2="968" y1="1020.6235" y2="1020.6235"/><text fill="#000000" font-family="Arial" font-size="12" lengthAdjust="spacing" textLength="30" x="740.75" y="1008.0806">Fetch</text><text fill="#000000" font-family="Arial" font-size="12" lengthAdjust="spacing" textLength="3" x="770.75" y="1008.0806">&#160;</text><text fill="#000000" font-family="Arial" font-size="12" lengthAdjust="spacing" textLength="56" x="773.75" y="1008.0806">aggregate</text><text fill="#000000" font-family="Arial" font-size="12" lengthAdjust="spacing" textLength="3" x="829.75" y="1008.0806">&#160;</text><text fill="#000000" font-family="Arial" font-size="12" lengthAdjust="spacing" textLength="39" x="832.75" y="1008.0806">metrics</text><polygon fill="#454545" points="649.5,1060.4224,639.5,1064.4224,649.5,1068.4224,645.5,1064.4224" style="stroke:#454545;stroke-width:1.0;"/><line style="stroke:#454545;stroke-width:1.5;stroke-dasharray:2.0,2.0;" x1="643.5" x2="973" y1="1064.4224" y2="1064.4224"/><text fill="#000000" font-family="Arial" font-size="12" lengthAdjust="spacing" textLength="37" x="766.75" y="1051.8794">Return</text><text fill="#000000" font-family="Arial" font-size="12" lengthAdjust="spacing" textLength="3" x="803.75" y="1051.8794">&#160;</text><text fill="#000000" font-family="Arial" font-size="12" lengthAdjust="spacing" textLength="39" x="806.75" y="1051.8794">metrics</text><polygon fill="#454545" points="822.5,1104.2212,832.5,1108.2212,822.5,1112.2212,826.5,1108.2212" style="stroke:#454545;stroke-width:1.0;"/><line style="stroke:#454545;stroke-width:1.5;" x1="638.5" x2="828.5" y1="1108.2212" y2="1108.2212"/><text fill="#000000" font-family="Arial" font-size="12" lengthAdjust="spacing" textLength="30" x="658.5" y="1095.6782">Fetch</text><text fill="#000000" font-family="Arial" font-size="12" lengthAdjust="spacing" textLength="3" x="688.5" y="1095.6782">&#160;</text><text fill="#000000" font-family="Arial" font-size="12" lengthAdjust="spacing" textLength="63" x="691.5" y="1095.6782">evaluations</text><text fill="#000000" font-family="Arial" font-size="12" lengthAdjust="spacing" textLength="3" x="754.5" y="1095.6782">&#160;</text><text fill="#000000" font-family="Arial" font-size="12" lengthAdjust="spacing" textLength="14" x="757.5" y="1095.6782">for</text><text fill="#000000" font-family="Arial" font-size="12" lengthAdjust="spacing" textLength="3" x="771.5" y="1095.6782">&#160;</text><text fill="#000000" font-family="Arial" font-size="12" lengthAdjust="spacing" textLength="40" x="774.5" y="1095.6782">models</text><polygon fill="#454545" points="649.5,1148.02,639.5,1152.02,649.5,1156.02,645.5,1152.02" style="stroke:#454545;stroke-width:1.0;"/><line style="stroke:#454545;stroke-width:1.5;stroke-dasharray:2.0,2.0;" x1="643.5" x2="833.5" y1="1152.02" y2="1152.02"/><text fill="#000000" font-family="Arial" font-size="12" lengthAdjust="spacing" textLength="37" x="685" y="1139.4771">Return</text><text fill="#000000" font-family="Arial" font-size="12" lengthAdjust="spacing" textLength="3" x="722" y="1139.4771">&#160;</text><text fill="#000000" font-family="Arial" font-size="12" lengthAdjust="spacing" textLength="63" x="725" y="1139.4771">evaluations</text><polygon fill="#454545" points="296.5,1191.8188,286.5,1195.8188,296.5,1199.8188,292.5,1195.8188" style="stroke:#454545;stroke-width:1.0;"/><line style="stroke:#454545;stroke-width:1.5;stroke-dasharray:2.0,2.0;" x1="290.5" x2="632.5" y1="1195.8188" y2="1195.8188"/><text fill="#000000" font-family="Arial" font-size="12" lengthAdjust="spacing" textLength="37" x="394" y="1183.2759">Return</text><text fill="#000000" font-family="Arial" font-size="12" lengthAdjust="spacing" textLength="3" x="431" y="1183.2759">&#160;</text><text fill="#000000" font-family="Arial" font-size="12" lengthAdjust="spacing" textLength="64" x="434" y="1183.2759">comparison</text><text fill="#000000" font-family="Arial" font-size="12" lengthAdjust="spacing" textLength="3" x="498" y="1183.2759">&#160;</text><text fill="#000000" font-family="Arial" font-size="12" lengthAdjust="spacing" textLength="24" x="501" y="1183.2759">data</text><line style="stroke:#454545;stroke-width:1.5;" x1="285.5" x2="327.5" y1="1239.6177" y2="1239.6177"/><line style="stroke:#454545;stroke-width:1.5;" x1="327.5" x2="327.5" y1="1239.6177" y2="1252.6177"/><line style="stroke:#454545;stroke-width:1.5;" x1="286.5" x2="327.5" y1="1252.6177" y2="1252.6177"/><polygon fill="#454545" points="296.5,1248.6177,286.5,1252.6177,296.5,1256.6177,292.5,1252.6177" style="stroke:#454545;stroke-width:1.0;"/><text fill="#000000" font-family="Arial" font-size="12" lengthAdjust="spacing" textLength="51" x="300.5" y="1227.0747">Generate</text><text fill="#000000" font-family="Arial" font-size="12" lengthAdjust="spacing" textLength="3" x="351.5" y="1227.0747">&#160;</text><text fill="#000000" font-family="Arial" font-size="12" lengthAdjust="spacing" textLength="64" x="354.5" y="1227.0747">comparison</text><text fill="#000000" font-family="Arial" font-size="12" lengthAdjust="spacing" textLength="3" x="418.5" y="1227.0747">&#160;</text><text fill="#000000" font-family="Arial" font-size="12" lengthAdjust="spacing" textLength="74" x="421.5" y="1227.0747">visualizations</text><polygon fill="#454545" points="56.5,1292.4165,46.5,1296.4165,56.5,1300.4165,52.5,1296.4165" style="stroke:#454545;stroke-width:1.0;"/><line style="stroke:#454545;stroke-width:1.5;stroke-dasharray:2.0,2.0;" x1="50.5" x2="279.5" y1="1296.4165" y2="1296.4165"/><text fill="#000000" font-family="Arial" font-size="12" lengthAdjust="spacing" textLength="41" x="90.5" y="1283.8735">Display</text><text fill="#000000" font-family="Arial" font-size="12" lengthAdjust="spacing" textLength="3" x="131.5" y="1283.8735">&#160;</text><text fill="#000000" font-family="Arial" font-size="12" lengthAdjust="spacing" textLength="34" x="134.5" y="1283.8735">model</text><text fill="#000000" font-family="Arial" font-size="12" lengthAdjust="spacing" textLength="3" x="168.5" y="1283.8735">&#160;</text><text fill="#000000" font-family="Arial" font-size="12" lengthAdjust="spacing" textLength="64" x="171.5" y="1283.8735">comparison</text><rect fill="none" height="383.085" id="_legend" rx="4" ry="4" style="stroke:#000000;stroke-width:1.0;" width="355" x="805" y="1317.4165"/><text fill="#000000" font-family="Arial" font-size="14" font-weight="bold" lengthAdjust="spacing" textLength="78" x="830" y="1353.5483">Entity Type</text><text fill="#000000" font-family="Arial" font-size="14" font-weight="bold" lengthAdjust="spacing" textLength="79" x="932" y="1353.5483">Description</text><rect fill="#E9F7EF" height="32.0986" style="stroke:none;stroke-width:1.0;" width="102" x="818" y="1364.5151"/><text fill="#000000" font-family="Arial" font-size="14" lengthAdjust="spacing" textLength="4" x="826" y="1385.647">&#160;</text><text fill="#000000" font-family="Arial" font-size="14" lengthAdjust="spacing" textLength="203" x="932" y="1385.647">Frontend - Web/UI Components</text><rect fill="#EBF5FB" height="32.0986" style="stroke:none;stroke-width:1.0;" width="102" x="818" y="1396.6138"/><text fill="#000000" font-family="Arial" font-size="14" lengthAdjust="spacing" textLength="4" x="826" y="1417.7456">&#160;</text><text fill="#000000" font-family="Arial" font-size="14" lengthAdjust="spacing" textLength="148" x="932" y="1417.7456">API - Backend Services</text><rect fill="#F9EBEA" height="32.0986" style="stroke:none;stroke-width:1.0;" width="102" x="818" y="1428.7124"/><text fill="#000000" font-family="Arial" font-size="14" lengthAdjust="spacing" textLength="4" x="826" y="1449.8442">&#160;</text><text fill="#000000" font-family="Arial" font-size="14" lengthAdjust="spacing" textLength="190" x="932" y="1449.8442">Auth - Authentication Services</text><rect fill="#F4ECF7" height="32.0986" style="stroke:none;stroke-width:1.0;" width="102" x="818" y="1460.811"/><text fill="#000000" font-family="Arial" font-size="14" lengthAdjust="spacing" textLength="4" x="826" y="1481.9429">&#160;</text><text fill="#000000" font-family="Arial" font-size="14" lengthAdjust="spacing" textLength="158" x="932" y="1481.9429">Database - Data Storage</text><rect fill="#FEF9E7" height="32.0986" style="stroke:none;stroke-width:1.0;" width="102" x="818" y="1492.9097"/><text fill="#000000" font-family="Arial" font-size="14" lengthAdjust="spacing" textLength="4" x="826" y="1514.0415">&#160;</text><text fill="#000000" font-family="Arial" font-size="14" lengthAdjust="spacing" textLength="181" x="932" y="1514.0415">External - 3rd Party Services</text><rect fill="#FADBD8" height="32.0986" style="stroke:none;stroke-width:1.0;" width="102" x="818" y="1525.0083"/><text fill="#000000" font-family="Arial" font-size="14" lengthAdjust="spacing" textLength="4" x="826" y="1546.1401">&#160;</text><text fill="#000000" font-family="Arial" font-size="14" lengthAdjust="spacing" textLength="170" x="932" y="1546.1401">Contract - Smart Contracts</text><rect fill="#FCF3CF" height="32.0986" style="stroke:none;stroke-width:1.0;" width="102" x="818" y="1557.1069"/><text fill="#000000" font-family="Arial" font-size="14" lengthAdjust="spacing" textLength="4" x="826" y="1578.2388">&#160;</text><text fill="#000000" font-family="Arial" font-size="14" lengthAdjust="spacing" textLength="168" x="932" y="1578.2388">Queue - Message Queues</text><rect fill="#D6EAF8" height="32.0986" style="stroke:none;stroke-width:1.0;" width="102" x="818" y="1589.2056"/><text fill="#000000" font-family="Arial" font-size="14" lengthAdjust="spacing" textLength="4" x="826" y="1610.3374">&#160;</text><text fill="#000000" font-family="Arial" font-size="14" lengthAdjust="spacing" textLength="171" x="932" y="1610.3374">Operator - Validator Nodes</text><rect fill="#D4EFDF" height="32.0986" style="stroke:none;stroke-width:1.0;" width="102" x="818" y="1621.3042"/><text fill="#000000" font-family="Arial" font-size="14" lengthAdjust="spacing" textLength="4" x="826" y="1642.436">&#160;</text><text fill="#000000" font-family="Arial" font-size="14" lengthAdjust="spacing" textLength="197" x="932" y="1642.436">Evaluator - Evaluation Services</text><rect fill="#F5EEF8" height="32.0986" style="stroke:none;stroke-width:1.0;" width="102" x="818" y="1653.4028"/><text fill="#000000" font-family="Arial" font-size="14" lengthAdjust="spacing" textLength="4" x="826" y="1674.5347">&#160;</text><text fill="#000000" font-family="Arial" font-size="14" lengthAdjust="spacing" textLength="171" x="932" y="1674.5347">Storage - Storage Services</text><line style="stroke:#000000;stroke-width:1.0;" x1="818" x2="1147" y1="1332.4165" y2="1332.4165"/><line style="stroke:#000000;stroke-width:1.0;" x1="818" x2="1147" y1="1364.5151" y2="1364.5151"/><line style="stroke:#000000;stroke-width:1.0;" x1="818" x2="1147" y1="1396.6138" y2="1396.6138"/><line style="stroke:#000000;stroke-width:1.0;" x1="818" x2="1147" y1="1428.7124" y2="1428.7124"/><line style="stroke:#000000;stroke-width:1.0;" x1="818" x2="1147" y1="1460.811" y2="1460.811"/><line style="stroke:#000000;stroke-width:1.0;" x1="818" x2="1147" y1="1492.9097" y2="1492.9097"/><line style="stroke:#000000;stroke-width:1.0;" x1="818" x2="1147" y1="1525.0083" y2="1525.0083"/><line style="stroke:#000000;stroke-width:1.0;" x1="818" x2="1147" y1="1557.1069" y2="1557.1069"/><line style="stroke:#000000;stroke-width:1.0;" x1="818" x2="1147" y1="1589.2056" y2="1589.2056"/><line style="stroke:#000000;stroke-width:1.0;" x1="818" x2="1147" y1="1621.3042" y2="1621.3042"/><line style="stroke:#000000;stroke-width:1.0;" x1="818" x2="1147" y1="1653.4028" y2="1653.4028"/><line style="stroke:#000000;stroke-width:1.0;" x1="818" x2="1147" y1="1685.5015" y2="1685.5015"/><line style="stroke:#000000;stroke-width:1.0;" x1="818" x2="818" y1="1332.4165" y2="1685.5015"/><line style="stroke:#000000;stroke-width:1.0;" x1="920" x2="920" y1="1332.4165" y2="1685.5015"/><line style="stroke:#000000;stroke-width:1.0;" x1="1147" x2="1147" y1="1332.4165" y2="1685.5015"/><!--SRC=[fLHBKzim4BxhLsmvb0kG1gQN3D09JM5we9CXz74LqkBi84kk98S2q__UbH-90oQ5uP1OzdxVQlVRnpkoofGQGRayTtOtn3k3UqMP6o6suLoIZVo3u7A4KA2YQrAWoX1TJlSoahC1hfs7EAS0ccJcPIx23Tb2yWaCMOnt1OBpSUuwXgdqaHGLqiQfr9fi1liVElOP_YxHAZnnVrhxi6iVU-zkB-UaRYo60CEzZq94YWRX0aDfOe0VXBU99gs6povd6WLduTIuMo6aYXpqzu1U5Aj8O6iSZGnmwfsDQFKMT5xWyB0z7X_tiSRJhnM1dupb_yUmSsSpDpcfGCsPWHCPvPKC-0JD0SiMNPyteCS_Pp0xgC2p0yRDE3-P9PYmBhB-2wpptM7xg4ySVcka4o81OVTucVi8lia5PP8THGUuaAQiQv-4f4NwtaB5KY_cimWZEFjo2GDPq60n7FHI6IMIQ4neP1d1AKOrXvBZs0vh5xR2xRRkBp2MtgvXAcThuJy1SMU6A3Ik1R4AdSb9Wn5CA1H6tgsvxx2MMVT8DaE3AdRlJ8EYaGVAl4MumGFflozHhtDpphTgRfrdvLi26bUfIMelTS2emJVTmVtrc5sROEMWJtpUC5Uy3dGDUrRwBdFgdKhZdTfqGQ6KXkvn6SY6SYs3vhmygTg3clF4lBXy5sa3XGYvqsXIyCq6UMtbAduOr0xm4-bmL7qQxbIF_VT9Ze3nw5T_JUlHRwiXiynZDOXDPgBT3JqLhUp_wurwVzTHlcswLXgzeiHdQD4dI8VTbhgvS4ETdnIdfxZ_0000]--></g></svg>