<?xml version="1.0" encoding="us-ascii" standalone="no"?><svg xmlns="http://www.w3.org/2000/svg" xmlns:xlink="http://www.w3.org/1999/xlink" contentStyleType="text/css" height="1777px" preserveAspectRatio="none" style="width:1292px;height:1777px;background:#FFFFFF;" version="1.1" viewBox="0 0 1292 1777" width="1292px" zoomAndPan="magnify"><defs/><g><text fill="#303030" font-family="Arial" font-size="16" font-weight="bold" lengthAdjust="spacing" textLength="334" x="475" y="37.8516">Results Viewing and Comparison Flow</text><rect fill="#F8F8F8" height="219.8438" style="stroke:#000000;stroke-width:1.0;" width="10" x="295.5" y="198.8906"/><rect fill="#F8F8F8" height="364.75" style="stroke:#000000;stroke-width:1.0;" width="10" x="295.5" y="462.7031"/><rect fill="#F8F8F8" height="378.7188" style="stroke:#000000;stroke-width:1.0;" width="10" x="295.5" y="871.4219"/><rect fill="#F8F8F8" height="131.9063" style="stroke:#000000;stroke-width:1.0;" width="10" x="695.5" y="242.8594"/><rect fill="#F8F8F8" height="219.8438" style="stroke:#000000;stroke-width:1.0;" width="10" x="695.5" y="506.6719"/><rect fill="#F8F8F8" height="219.8438" style="stroke:#000000;stroke-width:1.0;" width="10" x="695.5" y="929.3594"/><line style="stroke:#000000;stroke-width:0.5;stroke-dasharray:5.0,5.0;" x1="34" x2="34" y1="152.9219" y2="1268.1406"/><line style="stroke:#000000;stroke-width:0.5;stroke-dasharray:5.0,5.0;" x1="300" x2="300" y1="152.9219" y2="1268.1406"/><line style="stroke:#000000;stroke-width:0.5;stroke-dasharray:5.0,5.0;" x1="700.5" x2="700.5" y1="152.9219" y2="1268.1406"/><line style="stroke:#000000;stroke-width:0.5;stroke-dasharray:5.0,5.0;" x1="926" x2="926" y1="152.9219" y2="1268.1406"/><line style="stroke:#000000;stroke-width:0.5;stroke-dasharray:5.0,5.0;" x1="1075" x2="1075" y1="152.9219" y2="1268.1406"/><line style="stroke:#000000;stroke-width:0.5;stroke-dasharray:5.0,5.0;" x1="1216" x2="1216" y1="152.9219" y2="1268.1406"/><text fill="#000000" font-family="Arial" font-size="14" font-weight="bold" lengthAdjust="spacing" textLength="37" x="13" y="141.6201">User</text><ellipse cx="34.5" cy="69.125" fill="#FFFFFF" rx="8" ry="8" style="stroke:#454545;stroke-width:0.5;"/><path d="M34.5,77.125 L34.5,104.125 M21.5,85.125 L47.5,85.125 M34.5,104.125 L21.5,119.125 M34.5,104.125 L47.5,119.125 " fill="none" style="stroke:#454545;stroke-width:0.5;"/><text fill="#000000" font-family="Arial" font-size="14" font-weight="bold" lengthAdjust="spacing" textLength="37" x="13" y="1288.1357">User</text><ellipse cx="34.5" cy="1307.9375" fill="#FFFFFF" rx="8" ry="8" style="stroke:#454545;stroke-width:0.5;"/><path d="M34.5,1315.9375 L34.5,1342.9375 M21.5,1323.9375 L47.5,1323.9375 M34.5,1342.9375 L21.5,1357.9375 M34.5,1342.9375 L47.5,1357.9375 " fill="none" style="stroke:#454545;stroke-width:0.5;"/><rect fill="#E9F7EF" height="56.7734" rx="4" ry="4" style="stroke:#27AE60;stroke-width:2.0;" width="139" x="231" y="95.1484"/><text fill="#000000" font-family="Arial" font-size="10" font-weight="bold" lengthAdjust="spacing" textLength="63" x="269" y="119.4307">&#171;Frontend&#187;</text><text fill="#000000" font-family="Arial" font-size="13" font-weight="bold" lengthAdjust="spacing" textLength="109" x="246" y="133.856">Atlas Frontend</text><rect fill="#E9F7EF" height="56.7734" rx="4" ry="4" style="stroke:#27AE60;stroke-width:2.0;" width="139" x="231" y="1267.1406"/><text fill="#000000" font-family="Arial" font-size="10" font-weight="bold" lengthAdjust="spacing" textLength="63" x="269" y="1291.4229">&#171;Frontend&#187;</text><text fill="#000000" font-family="Arial" font-size="13" font-weight="bold" lengthAdjust="spacing" textLength="109" x="246" y="1305.8481">Atlas Frontend</text><rect fill="#EBF5FB" height="56.7734" rx="4" ry="4" style="stroke:#3498DB;stroke-width:2.0;" width="96" x="652.5" y="95.1484"/><text fill="#000000" font-family="Arial" font-size="10" font-weight="bold" lengthAdjust="spacing" textLength="31" x="685" y="119.4307">&#171;API&#187;</text><text fill="#000000" font-family="Arial" font-size="13" font-weight="bold" lengthAdjust="spacing" textLength="66" x="667.5" y="133.856">Atlas API</text><rect fill="#EBF5FB" height="56.7734" rx="4" ry="4" style="stroke:#3498DB;stroke-width:2.0;" width="96" x="652.5" y="1267.1406"/><text fill="#000000" font-family="Arial" font-size="10" font-weight="bold" lengthAdjust="spacing" textLength="31" x="685" y="1291.4229">&#171;API&#187;</text><text fill="#000000" font-family="Arial" font-size="13" font-weight="bold" lengthAdjust="spacing" textLength="66" x="667.5" y="1305.8481">Atlas API</text><rect fill="#F4ECF7" height="56.7734" rx="4" ry="4" style="stroke:#8E44AD;stroke-width:2.0;" width="101" x="876" y="95.1484"/><text fill="#000000" font-family="Arial" font-size="10" font-weight="bold" lengthAdjust="spacing" textLength="66" x="893.5" y="119.4307">&#171;Database&#187;</text><text fill="#000000" font-family="Arial" font-size="13" font-weight="bold" lengthAdjust="spacing" textLength="71" x="891" y="133.856">MongoDB</text><rect fill="#F4ECF7" height="56.7734" rx="4" ry="4" style="stroke:#8E44AD;stroke-width:2.0;" width="101" x="876" y="1267.1406"/><text fill="#000000" font-family="Arial" font-size="10" font-weight="bold" lengthAdjust="spacing" textLength="66" x="893.5" y="1291.4229">&#171;Database&#187;</text><text fill="#000000" font-family="Arial" font-size="13" font-weight="bold" lengthAdjust="spacing" textLength="71" x="891" y="1305.8481">MongoDB</text><rect fill="#F4ECF7" height="56.7734" rx="4" ry="4" style="stroke:#8E44AD;stroke-width:2.0;" width="96" x="1027" y="95.1484"/><text fill="#000000" font-family="Arial" font-size="10" font-weight="bold" lengthAdjust="spacing" textLength="66" x="1042" y="119.4307">&#171;Database&#187;</text><text fill="#000000" font-family="Arial" font-size="13" font-weight="bold" lengthAdjust="spacing" textLength="62" x="1044" y="133.856">MariaDB</text><rect fill="#F4ECF7" height="56.7734" rx="4" ry="4" style="stroke:#8E44AD;stroke-width:2.0;" width="96" x="1027" y="1267.1406"/><text fill="#000000" font-family="Arial" font-size="10" font-weight="bold" lengthAdjust="spacing" textLength="66" x="1042" y="1291.4229">&#171;Database&#187;</text><text fill="#000000" font-family="Arial" font-size="13" font-weight="bold" lengthAdjust="spacing" textLength="62" x="1044" y="1305.8481">MariaDB</text><rect fill="#F5EEF8" height="56.7734" rx="4" ry="4" style="stroke:#76448A;stroke-width:2.0;" width="87" x="1173" y="95.1484"/><text fill="#000000" font-family="Arial" font-size="10" font-weight="bold" lengthAdjust="spacing" textLength="57" x="1188" y="119.4307">&#171;Storage&#187;</text><text fill="#000000" font-family="Arial" font-size="13" font-weight="bold" lengthAdjust="spacing" textLength="56" x="1188.5" y="133.856">AWS S3</text><rect fill="#F5EEF8" height="56.7734" rx="4" ry="4" style="stroke:#76448A;stroke-width:2.0;" width="87" x="1173" y="1267.1406"/><text fill="#000000" font-family="Arial" font-size="10" font-weight="bold" lengthAdjust="spacing" textLength="57" x="1188" y="1291.4229">&#171;Storage&#187;</text><text fill="#000000" font-family="Arial" font-size="13" font-weight="bold" lengthAdjust="spacing" textLength="56" x="1188.5" y="1305.8481">AWS S3</text><rect fill="#F8F8F8" height="219.8438" style="stroke:#000000;stroke-width:1.0;" width="10" x="295.5" y="198.8906"/><rect fill="#F8F8F8" height="364.75" style="stroke:#000000;stroke-width:1.0;" width="10" x="295.5" y="462.7031"/><rect fill="#F8F8F8" height="378.7188" style="stroke:#000000;stroke-width:1.0;" width="10" x="295.5" y="871.4219"/><rect fill="#F8F8F8" height="131.9063" style="stroke:#000000;stroke-width:1.0;" width="10" x="695.5" y="242.8594"/><rect fill="#F8F8F8" height="219.8438" style="stroke:#000000;stroke-width:1.0;" width="10" x="695.5" y="506.6719"/><rect fill="#F8F8F8" height="219.8438" style="stroke:#000000;stroke-width:1.0;" width="10" x="695.5" y="929.3594"/><polygon fill="#000000" points="283.5,194.8906,293.5,198.8906,283.5,202.8906,287.5,198.8906" style="stroke:#000000;stroke-width:1.0;"/><line style="stroke:#000000;stroke-width:1.5;" x1="34.5" x2="289.5" y1="198.8906" y2="198.8906"/><text fill="#000000" font-family="Arial" font-size="12" lengthAdjust="spacing" textLength="55" x="91" y="186.0605">Navigate</text><text fill="#000000" font-family="Arial" font-size="12" lengthAdjust="spacing" textLength="4" x="146" y="186.0605">&#160;</text><text fill="#000000" font-family="Arial" font-size="12" lengthAdjust="spacing" textLength="13" x="150" y="186.0605">to</text><text fill="#000000" font-family="Arial" font-size="12" lengthAdjust="spacing" textLength="4" x="163" y="186.0605">&#160;</text><text fill="#000000" font-family="Arial" font-size="12" lengthAdjust="spacing" textLength="72" x="167" y="186.0605">evaluations</text><polygon fill="#000000" points="683.5,238.8594,693.5,242.8594,683.5,246.8594,687.5,242.8594" style="stroke:#000000;stroke-width:1.0;"/><line style="stroke:#000000;stroke-width:1.5;" x1="305.5" x2="689.5" y1="242.8594" y2="242.8594"/><text fill="#000000" font-family="Arial" font-size="12" lengthAdjust="spacing" textLength="24" x="428" y="230.0293">GET</text><text fill="#000000" font-family="Arial" font-size="12" lengthAdjust="spacing" textLength="4" x="452" y="230.0293">&#160;</text><text fill="#000000" font-family="Arial" font-size="12" lengthAdjust="spacing" textLength="117" x="456" y="230.0293">/api/v1/evaluations</text><polygon fill="#000000" points="914.5,282.8281,924.5,286.8281,914.5,290.8281,918.5,286.8281" style="stroke:#000000;stroke-width:1.0;"/><line style="stroke:#000000;stroke-width:1.5;" x1="705.5" x2="920.5" y1="286.8281" y2="286.8281"/><text fill="#000000" font-family="Arial" font-size="12" lengthAdjust="spacing" textLength="35" x="739.5" y="273.998">Fetch</text><text fill="#000000" font-family="Arial" font-size="12" lengthAdjust="spacing" textLength="4" x="774.5" y="273.998">&#160;</text><text fill="#000000" font-family="Arial" font-size="12" lengthAdjust="spacing" textLength="38" x="778.5" y="273.998">user's</text><text fill="#000000" font-family="Arial" font-size="12" lengthAdjust="spacing" textLength="4" x="816.5" y="273.998">&#160;</text><text fill="#000000" font-family="Arial" font-size="12" lengthAdjust="spacing" textLength="72" x="820.5" y="273.998">evaluations</text><polygon fill="#000000" points="716.5,326.7969,706.5,330.7969,716.5,334.7969,712.5,330.7969" style="stroke:#000000;stroke-width:1.0;"/><line style="stroke:#000000;stroke-width:1.5;stroke-dasharray:2.0,2.0;" x1="710.5" x2="925.5" y1="330.7969" y2="330.7969"/><text fill="#000000" font-family="Arial" font-size="12" lengthAdjust="spacing" textLength="42" x="757" y="317.9668">Return</text><text fill="#000000" font-family="Arial" font-size="12" lengthAdjust="spacing" textLength="4" x="799" y="317.9668">&#160;</text><text fill="#000000" font-family="Arial" font-size="12" lengthAdjust="spacing" textLength="72" x="803" y="317.9668">evaluations</text><polygon fill="#000000" points="316.5,370.7656,306.5,374.7656,316.5,378.7656,312.5,374.7656" style="stroke:#000000;stroke-width:1.0;"/><line style="stroke:#000000;stroke-width:1.5;stroke-dasharray:2.0,2.0;" x1="310.5" x2="699.5" y1="374.7656" y2="374.7656"/><text fill="#000000" font-family="Arial" font-size="12" lengthAdjust="spacing" textLength="42" x="436.5" y="361.9355">Return</text><text fill="#000000" font-family="Arial" font-size="12" lengthAdjust="spacing" textLength="4" x="478.5" y="361.9355">&#160;</text><text fill="#000000" font-family="Arial" font-size="12" lengthAdjust="spacing" textLength="65" x="482.5" y="361.9355">evaluation</text><text fill="#000000" font-family="Arial" font-size="12" lengthAdjust="spacing" textLength="4" x="547.5" y="361.9355">&#160;</text><text fill="#000000" font-family="Arial" font-size="12" lengthAdjust="spacing" textLength="18" x="551.5" y="361.9355">list</text><polygon fill="#000000" points="45.5,414.7344,35.5,418.7344,45.5,422.7344,41.5,418.7344" style="stroke:#000000;stroke-width:1.0;"/><line style="stroke:#000000;stroke-width:1.5;stroke-dasharray:2.0,2.0;" x1="39.5" x2="299.5" y1="418.7344" y2="418.7344"/><text fill="#000000" font-family="Arial" font-size="12" lengthAdjust="spacing" textLength="44" x="107.5" y="405.9043">Display</text><text fill="#000000" font-family="Arial" font-size="12" lengthAdjust="spacing" textLength="4" x="151.5" y="405.9043">&#160;</text><text fill="#000000" font-family="Arial" font-size="12" lengthAdjust="spacing" textLength="72" x="155.5" y="405.9043">evaluations</text><polygon fill="#000000" points="283.5,458.7031,293.5,462.7031,283.5,466.7031,287.5,462.7031" style="stroke:#000000;stroke-width:1.0;"/><line style="stroke:#000000;stroke-width:1.5;" x1="34.5" x2="289.5" y1="462.7031" y2="462.7031"/><text fill="#000000" font-family="Arial" font-size="12" lengthAdjust="spacing" textLength="39" x="77.5" y="449.873">Select</text><text fill="#000000" font-family="Arial" font-size="12" lengthAdjust="spacing" textLength="4" x="116.5" y="449.873">&#160;</text><text fill="#000000" font-family="Arial" font-size="12" lengthAdjust="spacing" textLength="65" x="120.5" y="449.873">evaluation</text><text fill="#000000" font-family="Arial" font-size="12" lengthAdjust="spacing" textLength="4" x="185.5" y="449.873">&#160;</text><text fill="#000000" font-family="Arial" font-size="12" lengthAdjust="spacing" textLength="17" x="189.5" y="449.873">for</text><text fill="#000000" font-family="Arial" font-size="12" lengthAdjust="spacing" textLength="4" x="206.5" y="449.873">&#160;</text><text fill="#000000" font-family="Arial" font-size="12" lengthAdjust="spacing" textLength="42" x="210.5" y="449.873">details</text><polygon fill="#000000" points="683.5,502.6719,693.5,506.6719,683.5,510.6719,687.5,506.6719" style="stroke:#000000;stroke-width:1.0;"/><line style="stroke:#000000;stroke-width:1.5;" x1="305.5" x2="689.5" y1="506.6719" y2="506.6719"/><text fill="#000000" font-family="Arial" font-size="12" lengthAdjust="spacing" textLength="24" x="412.5" y="493.8418">GET</text><text fill="#000000" font-family="Arial" font-size="12" lengthAdjust="spacing" textLength="4" x="436.5" y="493.8418">&#160;</text><text fill="#000000" font-family="Arial" font-size="12" lengthAdjust="spacing" textLength="148" x="440.5" y="493.8418">/api/v1/evaluations/{id}</text><polygon fill="#000000" points="914.5,546.6406,924.5,550.6406,914.5,554.6406,918.5,550.6406" style="stroke:#000000;stroke-width:1.0;"/><line style="stroke:#000000;stroke-width:1.5;" x1="705.5" x2="920.5" y1="550.6406" y2="550.6406"/><text fill="#000000" font-family="Arial" font-size="12" lengthAdjust="spacing" textLength="35" x="731.5" y="537.8105">Fetch</text><text fill="#000000" font-family="Arial" font-size="12" lengthAdjust="spacing" textLength="4" x="766.5" y="537.8105">&#160;</text><text fill="#000000" font-family="Arial" font-size="12" lengthAdjust="spacing" textLength="65" x="770.5" y="537.8105">evaluation</text><text fill="#000000" font-family="Arial" font-size="12" lengthAdjust="spacing" textLength="4" x="835.5" y="537.8105">&#160;</text><text fill="#000000" font-family="Arial" font-size="12" lengthAdjust="spacing" textLength="61" x="839.5" y="537.8105">metadata</text><polygon fill="#000000" points="716.5,590.6094,706.5,594.6094,716.5,598.6094,712.5,594.6094" style="stroke:#000000;stroke-width:1.0;"/><line style="stroke:#000000;stroke-width:1.5;stroke-dasharray:2.0,2.0;" x1="710.5" x2="925.5" y1="594.6094" y2="594.6094"/><text fill="#000000" font-family="Arial" font-size="12" lengthAdjust="spacing" textLength="42" x="762.5" y="581.7793">Return</text><text fill="#000000" font-family="Arial" font-size="12" lengthAdjust="spacing" textLength="4" x="804.5" y="581.7793">&#160;</text><text fill="#000000" font-family="Arial" font-size="12" lengthAdjust="spacing" textLength="61" x="808.5" y="581.7793">metadata</text><polygon fill="#000000" points="1204.5,634.5781,1214.5,638.5781,1204.5,642.5781,1208.5,638.5781" style="stroke:#000000;stroke-width:1.0;"/><line style="stroke:#000000;stroke-width:1.5;" x1="705.5" x2="1210.5" y1="638.5781" y2="638.5781"/><text fill="#000000" font-family="Arial" font-size="12" lengthAdjust="spacing" textLength="35" x="892.5" y="625.748">Fetch</text><text fill="#000000" font-family="Arial" font-size="12" lengthAdjust="spacing" textLength="4" x="927.5" y="625.748">&#160;</text><text fill="#000000" font-family="Arial" font-size="12" lengthAdjust="spacing" textLength="51" x="931.5" y="625.748">detailed</text><text fill="#000000" font-family="Arial" font-size="12" lengthAdjust="spacing" textLength="4" x="982.5" y="625.748">&#160;</text><text fill="#000000" font-family="Arial" font-size="12" lengthAdjust="spacing" textLength="43" x="986.5" y="625.748">results</text><polygon fill="#000000" points="716.5,678.5469,706.5,682.5469,716.5,686.5469,712.5,682.5469" style="stroke:#000000;stroke-width:1.0;"/><line style="stroke:#000000;stroke-width:1.5;stroke-dasharray:2.0,2.0;" x1="710.5" x2="1215.5" y1="682.5469" y2="682.5469"/><text fill="#000000" font-family="Arial" font-size="12" lengthAdjust="spacing" textLength="42" x="903.5" y="669.7168">Return</text><text fill="#000000" font-family="Arial" font-size="12" lengthAdjust="spacing" textLength="4" x="945.5" y="669.7168">&#160;</text><text fill="#000000" font-family="Arial" font-size="12" lengthAdjust="spacing" textLength="36" x="949.5" y="669.7168">result</text><text fill="#000000" font-family="Arial" font-size="12" lengthAdjust="spacing" textLength="4" x="985.5" y="669.7168">&#160;</text><text fill="#000000" font-family="Arial" font-size="12" lengthAdjust="spacing" textLength="29" x="989.5" y="669.7168">data</text><polygon fill="#000000" points="316.5,722.5156,306.5,726.5156,316.5,730.5156,312.5,726.5156" style="stroke:#000000;stroke-width:1.0;"/><line style="stroke:#000000;stroke-width:1.5;stroke-dasharray:2.0,2.0;" x1="310.5" x2="699.5" y1="726.5156" y2="726.5156"/><text fill="#000000" font-family="Arial" font-size="12" lengthAdjust="spacing" textLength="42" x="433" y="713.6855">Return</text><text fill="#000000" font-family="Arial" font-size="12" lengthAdjust="spacing" textLength="4" x="475" y="713.6855">&#160;</text><text fill="#000000" font-family="Arial" font-size="12" lengthAdjust="spacing" textLength="61" x="479" y="713.6855">combined</text><text fill="#000000" font-family="Arial" font-size="12" lengthAdjust="spacing" textLength="4" x="540" y="713.6855">&#160;</text><text fill="#000000" font-family="Arial" font-size="12" lengthAdjust="spacing" textLength="29" x="544" y="713.6855">data</text><line style="stroke:#000000;stroke-width:1.5;" x1="305.5" x2="347.5" y1="770.4844" y2="770.4844"/><line style="stroke:#000000;stroke-width:1.5;" x1="347.5" x2="347.5" y1="770.4844" y2="783.4844"/><line style="stroke:#000000;stroke-width:1.5;" x1="306.5" x2="347.5" y1="783.4844" y2="783.4844"/><polygon fill="#000000" points="316.5,779.4844,306.5,783.4844,316.5,787.4844,312.5,783.4844" style="stroke:#000000;stroke-width:1.0;"/><text fill="#000000" font-family="Arial" font-size="12" lengthAdjust="spacing" textLength="50" x="320.5" y="757.6543">Process</text><text fill="#000000" font-family="Arial" font-size="12" lengthAdjust="spacing" textLength="4" x="370.5" y="757.6543">&#160;</text><text fill="#000000" font-family="Arial" font-size="12" lengthAdjust="spacing" textLength="24" x="374.5" y="757.6543">and</text><text fill="#000000" font-family="Arial" font-size="12" lengthAdjust="spacing" textLength="4" x="398.5" y="757.6543">&#160;</text><text fill="#000000" font-family="Arial" font-size="12" lengthAdjust="spacing" textLength="51" x="402.5" y="757.6543">visualize</text><text fill="#000000" font-family="Arial" font-size="12" lengthAdjust="spacing" textLength="4" x="453.5" y="757.6543">&#160;</text><text fill="#000000" font-family="Arial" font-size="12" lengthAdjust="spacing" textLength="43" x="457.5" y="757.6543">results</text><polygon fill="#000000" points="45.5,823.4531,35.5,827.4531,45.5,831.4531,41.5,827.4531" style="stroke:#000000;stroke-width:1.0;"/><line style="stroke:#000000;stroke-width:1.5;stroke-dasharray:2.0,2.0;" x1="39.5" x2="299.5" y1="827.4531" y2="827.4531"/><text fill="#000000" font-family="Arial" font-size="12" lengthAdjust="spacing" textLength="44" x="57" y="814.623">Display</text><text fill="#000000" font-family="Arial" font-size="12" lengthAdjust="spacing" textLength="4" x="101" y="814.623">&#160;</text><text fill="#000000" font-family="Arial" font-size="12" lengthAdjust="spacing" textLength="51" x="105" y="814.623">detailed</text><text fill="#000000" font-family="Arial" font-size="12" lengthAdjust="spacing" textLength="4" x="156" y="814.623">&#160;</text><text fill="#000000" font-family="Arial" font-size="12" lengthAdjust="spacing" textLength="46" x="160" y="814.623">metrics</text><text fill="#000000" font-family="Arial" font-size="12" lengthAdjust="spacing" textLength="4" x="206" y="814.623">&#160;</text><text fill="#000000" font-family="Arial" font-size="12" lengthAdjust="spacing" textLength="24" x="210" y="814.623">and</text><text fill="#000000" font-family="Arial" font-size="12" lengthAdjust="spacing" textLength="4" x="234" y="814.623">&#160;</text><text fill="#000000" font-family="Arial" font-size="12" lengthAdjust="spacing" textLength="40" x="238" y="814.623">charts</text><polygon fill="#000000" points="283.5,867.4219,293.5,871.4219,283.5,875.4219,287.5,871.4219" style="stroke:#000000;stroke-width:1.0;"/><line style="stroke:#000000;stroke-width:1.5;" x1="34.5" x2="289.5" y1="871.4219" y2="871.4219"/><text fill="#000000" font-family="Arial" font-size="12" lengthAdjust="spacing" textLength="52" x="79.5" y="858.5918">Request</text><text fill="#000000" font-family="Arial" font-size="12" lengthAdjust="spacing" textLength="4" x="131.5" y="858.5918">&#160;</text><text fill="#000000" font-family="Arial" font-size="12" lengthAdjust="spacing" textLength="38" x="135.5" y="858.5918">model</text><text fill="#000000" font-family="Arial" font-size="12" lengthAdjust="spacing" textLength="4" x="173.5" y="858.5918">&#160;</text><text fill="#000000" font-family="Arial" font-size="12" lengthAdjust="spacing" textLength="73" x="177.5" y="858.5918">comparison</text><polygon fill="#000000" points="683.5,925.3594,693.5,929.3594,683.5,933.3594,687.5,929.3594" style="stroke:#000000;stroke-width:1.0;"/><line style="stroke:#000000;stroke-width:1.5;" x1="305.5" x2="689.5" y1="929.3594" y2="929.3594"/><text fill="#000000" font-family="Arial" font-size="12" lengthAdjust="spacing" textLength="24" x="488.5" y="902.5605">GET</text><text fill="#000000" font-family="Arial" font-size="12" lengthAdjust="spacing" textLength="355" x="323" y="916.5293">/api/v1/models/compare?ids=model1,model2&amp;dataset=X</text><polygon fill="#000000" points="1063,969.3281,1073,973.3281,1063,977.3281,1067,973.3281" style="stroke:#000000;stroke-width:1.0;"/><line style="stroke:#000000;stroke-width:1.5;" x1="705.5" x2="1069" y1="973.3281" y2="973.3281"/><text fill="#000000" font-family="Arial" font-size="12" lengthAdjust="spacing" textLength="35" x="812.75" y="960.498">Fetch</text><text fill="#000000" font-family="Arial" font-size="12" lengthAdjust="spacing" textLength="4" x="847.75" y="960.498">&#160;</text><text fill="#000000" font-family="Arial" font-size="12" lengthAdjust="spacing" textLength="66" x="851.75" y="960.498">aggregate</text><text fill="#000000" font-family="Arial" font-size="12" lengthAdjust="spacing" textLength="4" x="917.75" y="960.498">&#160;</text><text fill="#000000" font-family="Arial" font-size="12" lengthAdjust="spacing" textLength="46" x="921.75" y="960.498">metrics</text><polygon fill="#000000" points="716.5,1013.2969,706.5,1017.2969,716.5,1021.2969,712.5,1017.2969" style="stroke:#000000;stroke-width:1.0;"/><line style="stroke:#000000;stroke-width:1.5;stroke-dasharray:2.0,2.0;" x1="710.5" x2="1074" y1="1017.2969" y2="1017.2969"/><text fill="#000000" font-family="Arial" font-size="12" lengthAdjust="spacing" textLength="42" x="844.25" y="1004.4668">Return</text><text fill="#000000" font-family="Arial" font-size="12" lengthAdjust="spacing" textLength="4" x="886.25" y="1004.4668">&#160;</text><text fill="#000000" font-family="Arial" font-size="12" lengthAdjust="spacing" textLength="46" x="890.25" y="1004.4668">metrics</text><polygon fill="#000000" points="914.5,1057.2656,924.5,1061.2656,914.5,1065.2656,918.5,1061.2656" style="stroke:#000000;stroke-width:1.0;"/><line style="stroke:#000000;stroke-width:1.5;" x1="705.5" x2="920.5" y1="1061.2656" y2="1061.2656"/><text fill="#000000" font-family="Arial" font-size="12" lengthAdjust="spacing" textLength="35" x="725.5" y="1048.4355">Fetch</text><text fill="#000000" font-family="Arial" font-size="12" lengthAdjust="spacing" textLength="4" x="760.5" y="1048.4355">&#160;</text><text fill="#000000" font-family="Arial" font-size="12" lengthAdjust="spacing" textLength="72" x="764.5" y="1048.4355">evaluations</text><text fill="#000000" font-family="Arial" font-size="12" lengthAdjust="spacing" textLength="4" x="836.5" y="1048.4355">&#160;</text><text fill="#000000" font-family="Arial" font-size="12" lengthAdjust="spacing" textLength="17" x="840.5" y="1048.4355">for</text><text fill="#000000" font-family="Arial" font-size="12" lengthAdjust="spacing" textLength="4" x="857.5" y="1048.4355">&#160;</text><text fill="#000000" font-family="Arial" font-size="12" lengthAdjust="spacing" textLength="45" x="861.5" y="1048.4355">models</text><polygon fill="#000000" points="716.5,1101.2344,706.5,1105.2344,716.5,1109.2344,712.5,1105.2344" style="stroke:#000000;stroke-width:1.0;"/><line style="stroke:#000000;stroke-width:1.5;stroke-dasharray:2.0,2.0;" x1="710.5" x2="925.5" y1="1105.2344" y2="1105.2344"/><text fill="#000000" font-family="Arial" font-size="12" lengthAdjust="spacing" textLength="42" x="757" y="1092.4043">Return</text><text fill="#000000" font-family="Arial" font-size="12" lengthAdjust="spacing" textLength="4" x="799" y="1092.4043">&#160;</text><text fill="#000000" font-family="Arial" font-size="12" lengthAdjust="spacing" textLength="72" x="803" y="1092.4043">evaluations</text><polygon fill="#000000" points="316.5,1145.2031,306.5,1149.2031,316.5,1153.2031,312.5,1149.2031" style="stroke:#000000;stroke-width:1.0;"/><line style="stroke:#000000;stroke-width:1.5;stroke-dasharray:2.0,2.0;" x1="310.5" x2="699.5" y1="1149.2031" y2="1149.2031"/><text fill="#000000" font-family="Arial" font-size="12" lengthAdjust="spacing" textLength="42" x="427" y="1136.373">Return</text><text fill="#000000" font-family="Arial" font-size="12" lengthAdjust="spacing" textLength="4" x="469" y="1136.373">&#160;</text><text fill="#000000" font-family="Arial" font-size="12" lengthAdjust="spacing" textLength="73" x="473" y="1136.373">comparison</text><text fill="#000000" font-family="Arial" font-size="12" lengthAdjust="spacing" textLength="4" x="546" y="1136.373">&#160;</text><text fill="#000000" font-family="Arial" font-size="12" lengthAdjust="spacing" textLength="29" x="550" y="1136.373">data</text><line style="stroke:#000000;stroke-width:1.5;" x1="305.5" x2="347.5" y1="1193.1719" y2="1193.1719"/><line style="stroke:#000000;stroke-width:1.5;" x1="347.5" x2="347.5" y1="1193.1719" y2="1206.1719"/><line style="stroke:#000000;stroke-width:1.5;" x1="306.5" x2="347.5" y1="1206.1719" y2="1206.1719"/><polygon fill="#000000" points="316.5,1202.1719,306.5,1206.1719,316.5,1210.1719,312.5,1206.1719" style="stroke:#000000;stroke-width:1.0;"/><text fill="#000000" font-family="Arial" font-size="12" lengthAdjust="spacing" textLength="59" x="320.5" y="1180.3418">Generate</text><text fill="#000000" font-family="Arial" font-size="12" lengthAdjust="spacing" textLength="4" x="379.5" y="1180.3418">&#160;</text><text fill="#000000" font-family="Arial" font-size="12" lengthAdjust="spacing" textLength="73" x="383.5" y="1180.3418">comparison</text><text fill="#000000" font-family="Arial" font-size="12" lengthAdjust="spacing" textLength="4" x="456.5" y="1180.3418">&#160;</text><text fill="#000000" font-family="Arial" font-size="12" lengthAdjust="spacing" textLength="82" x="460.5" y="1180.3418">visualizations</text><polygon fill="#000000" points="45.5,1246.1406,35.5,1250.1406,45.5,1254.1406,41.5,1250.1406" style="stroke:#000000;stroke-width:1.0;"/><line style="stroke:#000000;stroke-width:1.5;stroke-dasharray:2.0,2.0;" x1="39.5" x2="299.5" y1="1250.1406" y2="1250.1406"/><text fill="#000000" font-family="Arial" font-size="12" lengthAdjust="spacing" textLength="44" x="86" y="1237.3105">Display</text><text fill="#000000" font-family="Arial" font-size="12" lengthAdjust="spacing" textLength="4" x="130" y="1237.3105">&#160;</text><text fill="#000000" font-family="Arial" font-size="12" lengthAdjust="spacing" textLength="38" x="134" y="1237.3105">model</text><text fill="#000000" font-family="Arial" font-size="12" lengthAdjust="spacing" textLength="4" x="172" y="1237.3105">&#160;</text><text fill="#000000" font-family="Arial" font-size="12" lengthAdjust="spacing" textLength="73" x="176" y="1237.3105">comparison</text><rect fill="none" height="385.2656" id="_legend" rx="4" ry="4" style="stroke:#000000;stroke-width:1.0;" width="383" x="889" y="1372.4375"/><text fill="#000000" font-family="Arial" font-size="14" font-weight="bold" lengthAdjust="spacing" textLength="88" x="915" y="1408.4326">Entity Type</text><text fill="#000000" font-family="Arial" font-size="14" font-weight="bold" lengthAdjust="spacing" textLength="90" x="1029" y="1408.4326">Description</text><rect fill="#E9F7EF" height="32.2969" style="stroke:none;stroke-width:1.0;" width="114" x="902" y="1419.7344"/><text fill="#000000" font-family="Arial" font-size="14" lengthAdjust="spacing" textLength="4" x="910" y="1440.7295">&#160;</text><text fill="#000000" font-family="Arial" font-size="14" lengthAdjust="spacing" textLength="219" x="1028" y="1440.7295">Frontend - Web/UI Components</text><rect fill="#EBF5FB" height="32.2969" style="stroke:none;stroke-width:1.0;" width="114" x="902" y="1452.0313"/><text fill="#000000" font-family="Arial" font-size="14" lengthAdjust="spacing" textLength="4" x="910" y="1473.0264">&#160;</text><text fill="#000000" font-family="Arial" font-size="14" lengthAdjust="spacing" textLength="157" x="1028" y="1473.0264">API - Backend Services</text><rect fill="#F9EBEA" height="32.2969" style="stroke:none;stroke-width:1.0;" width="114" x="902" y="1484.3281"/><text fill="#000000" font-family="Arial" font-size="14" lengthAdjust="spacing" textLength="4" x="910" y="1505.3232">&#160;</text><text fill="#000000" font-family="Arial" font-size="14" lengthAdjust="spacing" textLength="207" x="1028" y="1505.3232">Auth - Authentication Services</text><rect fill="#F4ECF7" height="32.2969" style="stroke:none;stroke-width:1.0;" width="114" x="902" y="1516.625"/><text fill="#000000" font-family="Arial" font-size="14" lengthAdjust="spacing" textLength="4" x="910" y="1537.6201">&#160;</text><text fill="#000000" font-family="Arial" font-size="14" lengthAdjust="spacing" textLength="169" x="1028" y="1537.6201">Database - Data Storage</text><rect fill="#FEF9E7" height="32.2969" style="stroke:none;stroke-width:1.0;" width="114" x="902" y="1548.9219"/><text fill="#000000" font-family="Arial" font-size="14" lengthAdjust="spacing" textLength="4" x="910" y="1569.917">&#160;</text><text fill="#000000" font-family="Arial" font-size="14" lengthAdjust="spacing" textLength="191" x="1028" y="1569.917">External - 3rd Party Services</text><rect fill="#FADBD8" height="32.2969" style="stroke:none;stroke-width:1.0;" width="114" x="902" y="1581.2188"/><text fill="#000000" font-family="Arial" font-size="14" lengthAdjust="spacing" textLength="4" x="910" y="1602.2139">&#160;</text><text fill="#000000" font-family="Arial" font-size="14" lengthAdjust="spacing" textLength="183" x="1028" y="1602.2139">Contract - Smart Contracts</text><rect fill="#FCF3CF" height="32.2969" style="stroke:none;stroke-width:1.0;" width="114" x="902" y="1613.5156"/><text fill="#000000" font-family="Arial" font-size="14" lengthAdjust="spacing" textLength="4" x="910" y="1634.5107">&#160;</text><text fill="#000000" font-family="Arial" font-size="14" lengthAdjust="spacing" textLength="182" x="1028" y="1634.5107">Queue - Message Queues</text><rect fill="#D6EAF8" height="32.2969" style="stroke:none;stroke-width:1.0;" width="114" x="902" y="1645.8125"/><text fill="#000000" font-family="Arial" font-size="14" lengthAdjust="spacing" textLength="4" x="910" y="1666.8076">&#160;</text><text fill="#000000" font-family="Arial" font-size="14" lengthAdjust="spacing" textLength="182" x="1028" y="1666.8076">Operator - Validator Nodes</text><rect fill="#D4EFDF" height="32.2969" style="stroke:none;stroke-width:1.0;" width="114" x="902" y="1678.1094"/><text fill="#000000" font-family="Arial" font-size="14" lengthAdjust="spacing" textLength="4" x="910" y="1699.1045">&#160;</text><text fill="#000000" font-family="Arial" font-size="14" lengthAdjust="spacing" textLength="208" x="1028" y="1699.1045">Evaluator - Evaluation Services</text><rect fill="#F5EEF8" height="32.2969" style="stroke:none;stroke-width:1.0;" width="114" x="902" y="1710.4063"/><text fill="#000000" font-family="Arial" font-size="14" lengthAdjust="spacing" textLength="4" x="910" y="1731.4014">&#160;</text><text fill="#000000" font-family="Arial" font-size="14" lengthAdjust="spacing" textLength="183" x="1028" y="1731.4014">Storage - Storage Services</text><line style="stroke:#000000;stroke-width:1.0;" x1="902" x2="1259" y1="1387.4375" y2="1387.4375"/><line style="stroke:#000000;stroke-width:1.0;" x1="902" x2="1259" y1="1419.7344" y2="1419.7344"/><line style="stroke:#000000;stroke-width:1.0;" x1="902" x2="1259" y1="1452.0313" y2="1452.0313"/><line style="stroke:#000000;stroke-width:1.0;" x1="902" x2="1259" y1="1484.3281" y2="1484.3281"/><line style="stroke:#000000;stroke-width:1.0;" x1="902" x2="1259" y1="1516.625" y2="1516.625"/><line style="stroke:#000000;stroke-width:1.0;" x1="902" x2="1259" y1="1548.9219" y2="1548.9219"/><line style="stroke:#000000;stroke-width:1.0;" x1="902" x2="1259" y1="1581.2188" y2="1581.2188"/><line style="stroke:#000000;stroke-width:1.0;" x1="902" x2="1259" y1="1613.5156" y2="1613.5156"/><line style="stroke:#000000;stroke-width:1.0;" x1="902" x2="1259" y1="1645.8125" y2="1645.8125"/><line style="stroke:#000000;stroke-width:1.0;" x1="902" x2="1259" y1="1678.1094" y2="1678.1094"/><line style="stroke:#000000;stroke-width:1.0;" x1="902" x2="1259" y1="1710.4063" y2="1710.4063"/><line style="stroke:#000000;stroke-width:1.0;" x1="902" x2="1259" y1="1742.7031" y2="1742.7031"/><line style="stroke:#000000;stroke-width:1.0;" x1="902" x2="902" y1="1387.4375" y2="1742.7031"/><line style="stroke:#000000;stroke-width:1.0;" x1="1016" x2="1016" y1="1387.4375" y2="1742.7031"/><line style="stroke:#000000;stroke-width:1.0;" x1="1259" x2="1259" y1="1387.4375" y2="1742.7031"/><!--SRC=[fLHDKzim4BthLsmvb4iX3Kml6Q0JIc5we9E9wSTLI8kpWoovaXmAdVxthkmuSOX9OJWabgttLc_txUeDMMKgZQ1SKJYx5-AzmVsoAemGkt0foKR-GN05GYXHqGqfK5M8hg076SdP03VEGvnH04qozx8GuPPiANa5XYp6-nB1-JXpdOs9z94KbTB6YTIQR0u7xplx6Vwgq2eyTR_R_M5tV-ozkxkQaRgr608Czpy84IaQX2c6oiG0tmdl4arQ3PzSmJGApiAvSNT2I1LPzBU0NfGh9R0pZaO6EFVEHhHw1pelS7JKBazE-bZZoPUQm4_6ylzZsAMpkJixhK6BDGFFP9JNCk06cWNB5jsijw37FpB83cjmTiYuZFEJUO89aTA4lPDb9YFuAkUKouWG7U1ScgfnCfM5vkbx2nNBx9dFAOtWulCL36H9W_bmq4jbb4WbOC8YoH6SOrGpg5Z7RbWxi2t3NXj-Yh7oTWrJ1rkJlm7YFWjHQ5mJiPBEv5I34PnHA8syNmlVOIspxYbPXWPLx9wPsbuZZuTvJU46VqZ_VKxrEYSNVAhcHdYoV4l08bHss4Pf1AC6tuo9u6vvp6wsO1MWh_XyNrppSEi6zcJfkyo9ToeDQvh8EOLA6dh0fP0jTYr5SrwUL1D1pRZ_dstVDDqd8KBXD9eaVd4VlDIvcXy6JG3yI3eSrv-6x-h7mTjKZe3n-6U_fyqWjsx8FFTO3-8YCz5EUe-ZzVx_UgEvZHkLhvkkLOrUOF45MlG9qc6tLYyEtEBpXZazvlu3]--></g></svg>