<?xml version="1.0" encoding="us-ascii" standalone="no"?><svg xmlns="http://www.w3.org/2000/svg" xmlns:xlink="http://www.w3.org/1999/xlink" contentStyleType="text/css" height="981px" preserveAspectRatio="none" style="width:1274px;height:981px;background:#FFFFFF;" version="1.1" viewBox="0 0 1274 981" width="1274px" zoomAndPan="magnify"><defs><filter height="1" id="bivfoovloyig70" width="1" x="0" y="0"><feFlood flood-color="#E9F7EF" result="flood"/><feComposite in="SourceGraphic" in2="flood" operator="over"/></filter><filter height="1" id="bivfoovloyig71" width="1" x="0" y="0"><feFlood flood-color="#EBF5FB" result="flood"/><feComposite in="SourceGraphic" in2="flood" operator="over"/></filter><filter height="1" id="bivfoovloyig72" width="1" x="0" y="0"><feFlood flood-color="#F9EBEA" result="flood"/><feComposite in="SourceGraphic" in2="flood" operator="over"/></filter><filter height="1" id="bivfoovloyig73" width="1" x="0" y="0"><feFlood flood-color="#F4ECF7" result="flood"/><feComposite in="SourceGraphic" in2="flood" operator="over"/></filter><filter height="1" id="bivfoovloyig74" width="1" x="0" y="0"><feFlood flood-color="#FEF9E7" result="flood"/><feComposite in="SourceGraphic" in2="flood" operator="over"/></filter><filter height="1" id="bivfoovloyig75" width="1" x="0" y="0"><feFlood flood-color="#FADBD8" result="flood"/><feComposite in="SourceGraphic" in2="flood" operator="over"/></filter><filter height="1" id="bivfoovloyig76" width="1" x="0" y="0"><feFlood flood-color="#FCF3CF" result="flood"/><feComposite in="SourceGraphic" in2="flood" operator="over"/></filter><filter height="1" id="bivfoovloyig77" width="1" x="0" y="0"><feFlood flood-color="#D6EAF8" result="flood"/><feComposite in="SourceGraphic" in2="flood" operator="over"/></filter><filter height="1" id="bivfoovloyig78" width="1" x="0" y="0"><feFlood flood-color="#D4EFDF" result="flood"/><feComposite in="SourceGraphic" in2="flood" operator="over"/></filter><filter height="1" id="bivfoovloyig79" width="1" x="0" y="0"><feFlood flood-color="#F5EEF8" result="flood"/><feComposite in="SourceGraphic" in2="flood" operator="over"/></filter></defs><g><text fill="#000000" font-family="sans-serif" font-size="18" font-weight="bold" lengthAdjust="spacing" textLength="261" x="499" y="27.4023">Evaluation AVS Architecture</text><!--cluster Smart Contracts Layer--><g id="cluster_Smart Contracts Layer"><rect fill="none" height="324" rx="4" ry="4" style="stroke:#999999;stroke-width:1.0;" width="270" x="14" y="291.1992"/><text fill="#000000" font-family="sans-serif" font-size="14" font-weight="bold" lengthAdjust="spacing" textLength="159" x="69.5" y="306.7344">Smart Contracts Layer</text></g><!--cluster Operator Layer--><g id="cluster_Operator Layer"><rect fill="none" height="577" rx="4" ry="4" style="stroke:#999999;stroke-width:1.0;" width="658" x="338" y="46.1992"/><text fill="#000000" font-family="sans-serif" font-size="14" font-weight="bold" lengthAdjust="spacing" textLength="107" x="613.5" y="61.7344">Operator Layer</text></g><!--cluster Go Evaluator--><g id="cluster_Go Evaluator"><rect fill="none" height="324" rx="4" ry="4" style="stroke:#999999;stroke-width:1.0;" width="278" x="614" y="291.1992"/><text fill="#000000" font-family="sans-serif" font-size="14" font-weight="bold" lengthAdjust="spacing" textLength="91" x="707.5" y="306.7344">Go Evaluator</text></g><!--cluster Infrastructure Layer--><g id="cluster_Infrastructure Layer"><rect fill="none" height="210" rx="4" ry="4" style="stroke:#999999;stroke-width:1.0;" width="264" x="1004" y="46.1992"/><text fill="#000000" font-family="sans-serif" font-size="14" font-weight="bold" lengthAdjust="spacing" textLength="142" x="1065" y="61.7344">Infrastructure Layer</text></g><!--cluster External Services--><g id="cluster_External Services"><rect fill="none" height="96" rx="4" ry="4" style="stroke:#999999;stroke-width:1.0;" width="516" x="127" y="656.1992"/><text fill="#000000" font-family="sans-serif" font-size="14" font-weight="bold" lengthAdjust="spacing" textLength="121" x="324.5" y="671.7344">External Services</text></g><!--entity service_manager--><g id="elem_service_manager"><rect fill="#FADBD8" height="61.3965" rx="4" ry="4" style="stroke:#943126;stroke-width:2.0;" width="154" x="58" y="432.1992"/><text fill="#000000" font-family="Arial" font-size="12" font-style="italic" lengthAdjust="spacing" textLength="60" x="105" y="453.4551">&#171;Contract&#187;</text><text fill="#000000" font-family="Arial" font-size="12" lengthAdjust="spacing" textLength="134" x="68" y="467.2539">EvalAvsServiceManager</text><text fill="#000000" font-family="Arial" font-size="12" lengthAdjust="spacing" textLength="48" x="111" y="481.0527">(Solidity)</text></g><!--entity task_manager--><g id="elem_task_manager"><rect fill="#FADBD8" height="61.3965" rx="4" ry="4" style="stroke:#943126;stroke-width:2.0;" width="139" x="136.5" y="318.1992"/><text fill="#000000" font-family="Arial" font-size="12" font-style="italic" lengthAdjust="spacing" textLength="60" x="176" y="339.4551">&#171;Contract&#187;</text><text fill="#000000" font-family="Arial" font-size="12" lengthAdjust="spacing" textLength="119" x="146.5" y="353.2539">EvalAvsTaskManager</text><text fill="#000000" font-family="Arial" font-size="12" lengthAdjust="spacing" textLength="48" x="182" y="367.0527">(Solidity)</text></g><!--entity bls_registry--><g id="elem_bls_registry"><rect fill="#FADBD8" height="61.3965" rx="4" ry="4" style="stroke:#943126;stroke-width:2.0;" width="147" x="62.5" y="546.1992"/><text fill="#000000" font-family="Arial" font-size="12" font-style="italic" lengthAdjust="spacing" textLength="60" x="106" y="567.4551">&#171;Contract&#187;</text><text fill="#000000" font-family="Arial" font-size="12" lengthAdjust="spacing" textLength="127" x="72.5" y="581.2539">BlsRegistryCoordinator</text><text fill="#000000" font-family="Arial" font-size="12" lengthAdjust="spacing" textLength="48" x="112" y="595.0527">(Solidity)</text></g><!--entity stake_registry--><g id="elem_stake_registry"><rect fill="#FADBD8" height="61.3965" rx="4" ry="4" style="stroke:#943126;stroke-width:2.0;" width="96" x="22" y="318.1992"/><text fill="#000000" font-family="Arial" font-size="12" font-style="italic" lengthAdjust="spacing" textLength="60" x="40" y="339.4551">&#171;Contract&#187;</text><text fill="#000000" font-family="Arial" font-size="12" lengthAdjust="spacing" textLength="76" x="32" y="353.2539">StakeRegistry</text><text fill="#000000" font-family="Arial" font-size="12" lengthAdjust="spacing" textLength="48" x="46" y="367.0527">(Solidity)</text></g><!--entity op_service--><g id="elem_op_service"><rect fill="#D6EAF8" height="61.3965" rx="4" ry="4" style="stroke:#2E86C1;stroke-width:2.0;" width="112" x="499" y="187.1992"/><text fill="#000000" font-family="Arial" font-size="12" font-style="italic" lengthAdjust="spacing" textLength="62" x="524" y="208.4551">&#171;Operator&#187;</text><text fill="#000000" font-family="Arial" font-size="12" lengthAdjust="spacing" textLength="92" x="509" y="222.2539">Operator Service</text><text fill="#000000" font-family="Arial" font-size="12" lengthAdjust="spacing" textLength="24" x="543" y="236.0527">(Go)</text></g><!--entity op_cli--><g id="elem_op_cli"><rect fill="#EBF5FB" height="61.3965" rx="4" ry="4" style="stroke:#3498DB;stroke-width:2.0;" width="90" x="406" y="73.1992"/><text fill="#000000" font-family="Arial" font-size="12" font-style="italic" lengthAdjust="spacing" textLength="33" x="434.5" y="94.4551">&#171;API&#187;</text><text fill="#000000" font-family="Arial" font-size="12" lengthAdjust="spacing" textLength="70" x="416" y="108.2539">Operator CLI</text><text fill="#000000" font-family="Arial" font-size="12" lengthAdjust="spacing" textLength="24" x="439" y="122.0527">(Go)</text></g><!--entity task_queue--><g id="elem_task_queue"><rect fill="#FCF3CF" height="61.3965" rx="4" ry="4" style="stroke:#B7950B;stroke-width:2.0;" width="86" x="902" y="318.1992"/><text fill="#000000" font-family="Arial" font-size="12" font-style="italic" lengthAdjust="spacing" textLength="51" x="919.5" y="339.4551">&#171;Queue&#187;</text><text fill="#000000" font-family="Arial" font-size="12" lengthAdjust="spacing" textLength="66" x="912" y="353.2539">Task Queue</text><text fill="#000000" font-family="Arial" font-size="12" lengthAdjust="spacing" textLength="24" x="933" y="367.0527">(Go)</text></g><!--entity bls_signer--><g id="elem_bls_signer"><rect fill="#D6EAF8" height="61.3965" rx="4" ry="4" style="stroke:#2E86C1;stroke-width:2.0;" width="132" x="472" y="318.1992"/><text fill="#000000" font-family="Arial" font-size="12" font-style="italic" lengthAdjust="spacing" textLength="62" x="507" y="339.4551">&#171;Operator&#187;</text><text fill="#000000" font-family="Arial" font-size="12" lengthAdjust="spacing" textLength="112" x="482" y="353.2539">BLS Signing Module</text><text fill="#000000" font-family="Arial" font-size="12" lengthAdjust="spacing" textLength="24" x="526" y="367.0527">(Go)</text></g><!--entity config_mgr--><g id="elem_config_mgr"><rect fill="#D6EAF8" height="61.3965" rx="4" ry="4" style="stroke:#2E86C1;stroke-width:2.0;" width="108" x="346" y="318.1992"/><text fill="#000000" font-family="Arial" font-size="12" font-style="italic" lengthAdjust="spacing" textLength="62" x="369" y="339.4551">&#171;Operator&#187;</text><text fill="#000000" font-family="Arial" font-size="12" lengthAdjust="spacing" textLength="88" x="356" y="353.2539">Config Manager</text><text fill="#000000" font-family="Arial" font-size="12" lengthAdjust="spacing" textLength="24" x="388" y="367.0527">(Go)</text></g><!--entity model_factory--><g id="elem_model_factory"><rect fill="#D4EFDF" height="61.3965" rx="4" ry="4" style="stroke:#196F3D;stroke-width:2.0;" width="132" x="622" y="318.1992"/><text fill="#000000" font-family="Arial" font-size="12" font-style="italic" lengthAdjust="spacing" textLength="66" x="655" y="339.4551">&#171;Evaluator&#187;</text><text fill="#000000" font-family="Arial" font-size="12" lengthAdjust="spacing" textLength="112" x="632" y="353.2539">Model Client Factory</text><text fill="#000000" font-family="Arial" font-size="12" lengthAdjust="spacing" textLength="24" x="676" y="367.0527">(Go)</text></g><!--entity scorer--><g id="elem_scorer"><rect fill="#D4EFDF" height="61.3965" rx="4" ry="4" style="stroke:#196F3D;stroke-width:2.0;" width="115" x="622.5" y="546.1992"/><text fill="#000000" font-family="Arial" font-size="12" font-style="italic" lengthAdjust="spacing" textLength="66" x="647" y="567.4551">&#171;Evaluator&#187;</text><text fill="#000000" font-family="Arial" font-size="12" lengthAdjust="spacing" textLength="95" x="632.5" y="581.2539">Response Scorer</text><text fill="#000000" font-family="Arial" font-size="12" lengthAdjust="spacing" textLength="24" x="668" y="595.0527">(Go)</text></g><!--entity processor--><g id="elem_processor"><rect fill="#D4EFDF" height="61.3965" rx="4" ry="4" style="stroke:#196F3D;stroke-width:2.0;" width="113" x="723.5" y="432.1992"/><text fill="#000000" font-family="Arial" font-size="12" font-style="italic" lengthAdjust="spacing" textLength="66" x="747" y="453.4551">&#171;Evaluator&#187;</text><text fill="#000000" font-family="Arial" font-size="12" lengthAdjust="spacing" textLength="93" x="733.5" y="467.2539">Result Processor</text><text fill="#000000" font-family="Arial" font-size="12" lengthAdjust="spacing" textLength="24" x="768" y="481.0527">(Go)</text></g><!--entity metrics--><g id="elem_metrics"><rect fill="#D4EFDF" height="61.3965" rx="4" ry="4" style="stroke:#196F3D;stroke-width:2.0;" width="111" x="772.5" y="318.1992"/><text fill="#000000" font-family="Arial" font-size="12" font-style="italic" lengthAdjust="spacing" textLength="66" x="795" y="339.4551">&#171;Evaluator&#187;</text><text fill="#000000" font-family="Arial" font-size="12" lengthAdjust="spacing" textLength="91" x="782.5" y="353.2539">Metrics Collector</text><text fill="#000000" font-family="Arial" font-size="12" lengthAdjust="spacing" textLength="24" x="816" y="367.0527">(Go)</text></g><!--entity docker--><g id="elem_docker"><rect fill="#FEF9E7" height="61.3965" rx="4" ry="4" style="stroke:#F1C40F;stroke-width:2.0;" width="116" x="1012" y="73.1992"/><text fill="#000000" font-family="Arial" font-size="12" font-style="italic" lengthAdjust="spacing" textLength="59" x="1040.5" y="94.4551">&#171;External&#187;</text><text fill="#000000" font-family="Arial" font-size="12" lengthAdjust="spacing" textLength="96" x="1022" y="108.2539">Docker Container</text><text fill="#000000" font-family="Arial" font-size="12" lengthAdjust="spacing" textLength="47" x="1046.5" y="122.0527">(Docker)</text></g><!--entity monitor--><g id="elem_monitor"><rect fill="#EBF5FB" height="61.3965" rx="4" ry="4" style="stroke:#3498DB;stroke-width:2.0;" width="113" x="1146.5" y="73.1992"/><text fill="#000000" font-family="Arial" font-size="12" font-style="italic" lengthAdjust="spacing" textLength="33" x="1186.5" y="94.4551">&#171;API&#187;</text><text fill="#000000" font-family="Arial" font-size="12" lengthAdjust="spacing" textLength="93" x="1156.5" y="108.2539">Monitoring Agent</text><text fill="#000000" font-family="Arial" font-size="12" lengthAdjust="spacing" textLength="24" x="1191" y="122.0527">(Go)</text></g><!--entity health--><g id="elem_health"><rect fill="#EBF5FB" height="61.3965" rx="4" ry="4" style="stroke:#3498DB;stroke-width:2.0;" width="105" x="1019.5" y="187.1992"/><text fill="#000000" font-family="Arial" font-size="12" font-style="italic" lengthAdjust="spacing" textLength="33" x="1055.5" y="208.4551">&#171;API&#187;</text><text fill="#000000" font-family="Arial" font-size="12" lengthAdjust="spacing" textLength="85" x="1029.5" y="222.2539">Health Checker</text><text fill="#000000" font-family="Arial" font-size="12" lengthAdjust="spacing" textLength="24" x="1060" y="236.0527">(Go)</text></g><!--entity slashing--><g id="elem_slashing"><rect fill="#EBF5FB" height="61.3965" rx="4" ry="4" style="stroke:#3498DB;stroke-width:2.0;" width="117" x="1142.5" y="187.1992"/><text fill="#000000" font-family="Arial" font-size="12" font-style="italic" lengthAdjust="spacing" textLength="33" x="1184.5" y="208.4551">&#171;API&#187;</text><text fill="#000000" font-family="Arial" font-size="12" lengthAdjust="spacing" textLength="97" x="1152.5" y="222.2539">Slashing Detector</text><text fill="#000000" font-family="Arial" font-size="12" lengthAdjust="spacing" textLength="24" x="1189" y="236.0527">(Go)</text></g><!--entity eigenlayer--><g id="elem_eigenlayer"><rect fill="#FEF9E7" height="61.3965" rx="4" ry="4" style="stroke:#F1C40F;stroke-width:2.0;" width="113" x="135.5" y="683.1992"/><text fill="#000000" font-family="Arial" font-size="12" font-style="italic" lengthAdjust="spacing" textLength="59" x="162.5" y="704.4551">&#171;External&#187;</text><text fill="#000000" font-family="Arial" font-size="12" lengthAdjust="spacing" textLength="93" x="145.5" y="718.2539">EigenLayer Core</text><text fill="#000000" font-family="Arial" font-size="12" lengthAdjust="spacing" textLength="61" x="161.5" y="732.0527">(Ethereum)</text></g><!--entity s3--><g id="elem_s3"><rect fill="#F5EEF8" height="61.3965" rx="4" ry="4" style="stroke:#76448A;stroke-width:2.0;" width="110" x="267" y="683.1992"/><text fill="#000000" font-family="Arial" font-size="12" font-style="italic" lengthAdjust="spacing" textLength="57" x="293.5" y="704.4551">&#171;Storage&#187;</text><text fill="#000000" font-family="Arial" font-size="12" lengthAdjust="spacing" textLength="90" x="277" y="718.2539">Dataset Registry</text><text fill="#000000" font-family="Arial" font-size="12" lengthAdjust="spacing" textLength="23" x="310.5" y="732.0527">(S3)</text></g><!--entity llm--><g id="elem_llm"><rect fill="#FEF9E7" height="61.3965" rx="4" ry="4" style="stroke:#F1C40F;stroke-width:2.0;" width="121" x="513.5" y="683.1992"/><text fill="#000000" font-family="Arial" font-size="12" font-style="italic" lengthAdjust="spacing" textLength="59" x="544.5" y="704.4551">&#171;External&#187;</text><text fill="#000000" font-family="Arial" font-size="12" lengthAdjust="spacing" textLength="101" x="523.5" y="718.2539">LLM API Providers</text><text fill="#000000" font-family="Arial" font-size="12" lengthAdjust="spacing" textLength="27" x="560.5" y="732.0527">(API)</text></g><!--entity api--><g id="elem_api"><rect fill="#EBF5FB" height="61.3965" rx="4" ry="4" style="stroke:#3498DB;stroke-width:2.0;" width="100" x="395" y="683.1992"/><text fill="#000000" font-family="Arial" font-size="12" font-style="italic" lengthAdjust="spacing" textLength="33" x="428.5" y="704.4551">&#171;API&#187;</text><text fill="#000000" font-family="Arial" font-size="12" lengthAdjust="spacing" textLength="80" x="405" y="718.2539">LayerLens API</text><text fill="#000000" font-family="Arial" font-size="12" lengthAdjust="spacing" textLength="27" x="431.5" y="732.0527">(API)</text></g><polygon fill="#000000" points="135.7334,545.8404,139.6529,536.8051,135.6888,540.8406,131.6532,536.8765,135.7334,545.8404" style="stroke:#000000;stroke-width:1.0;"/><path d="M135.2654,493.4191 C135.41,509.6206 135.535,523.6176 135.6798,539.8407 " fill="none" style="stroke:#000000;stroke-width:1.3;"/><text fill="#000000" font-family="sans-serif" font-size="13" lengthAdjust="spacing" textLength="55" x="137" y="524.7676">Manages</text><polygon fill="#000000" points="158.5588,432.0397,167.1301,427.1886,161.5349,428.0219,160.7016,422.4268,158.5588,432.0397" style="stroke:#000000;stroke-width:1.0;"/><path d="M191.0602,379.4603 C185.1679,390.5765 178.1128,403.1716 171,414.1992 C167.1862,420.1121 166.4297,421.4139 162.1301,427.2184 " fill="none" style="stroke:#000000;stroke-width:1.3;"/><text fill="#000000" font-family="sans-serif" font-size="13" lengthAdjust="spacing" textLength="30" x="182" y="410.7676">Uses</text><polygon fill="#000000" points="84.7109,432.0665,80.9877,422.9485,81.1037,428.6042,75.448,428.7202,84.7109,432.0665" style="stroke:#000000;stroke-width:1.0;"/><path d="M65.0476,379.3023 C64.4798,390.7624 65.5824,403.6363 71,414.1992 C74.41,420.8477 74.9003,422.6501 80.3822,427.9117 " fill="none" style="stroke:#000000;stroke-width:1.3;"/><text fill="#000000" font-family="sans-serif" font-size="13" lengthAdjust="spacing" textLength="98" x="72" y="410.7676">Provides stakes</text><polygon fill="#000000" points="157.7862,683.0333,154.656,673.6951,154.4087,679.3465,148.7572,679.0992,157.7862,683.0333" style="stroke:#000000;stroke-width:1.0;"/><path d="M130.7996,607.3535 C129.7311,620.2805 130.1464,635.3774 135,648.1992 C139.8673,661.0572 144.5448,668.5796 153.7332,678.6092 " fill="none" style="stroke:#000000;stroke-width:1.3;"/><text fill="#000000" font-family="sans-serif" font-size="13" lengthAdjust="spacing" textLength="89" x="136" y="644.7676">Registers with</text><polygon fill="#000000" points="135.4475,689.987,129.1992,682.374,130.9791,687.7435,125.6096,689.5234,135.4475,689.987" style="stroke:#000000;stroke-width:1.0;"/><path d="M57.5114,379.3397 C37.0888,432.8984 3.5101,547.2758 53,623.1992 C72.5914,653.2549 100.8287,672.6055 130.0854,687.2948 " fill="none" style="stroke:#000000;stroke-width:1.3;"/><text fill="#000000" font-family="sans-serif" font-size="13" lengthAdjust="spacing" textLength="92" x="29" y="524.7676">Verifies stakes</text><polygon fill="#000000" points="925.2853,317.9707,922.7555,308.4523,922.1491,314.0766,916.5248,313.4702,925.2853,317.9707" style="stroke:#000000;stroke-width:1.0;"/><path d="M611.1592,219.8608 C682.1497,223.6363 805.9433,238.0784 896,291.1992 C907.2953,297.8618 913.5415,303.3888 921.5219,313.2978 " fill="none" style="stroke:#000000;stroke-width:1.3;"/><text fill="#000000" font-family="sans-serif" font-size="13" lengthAdjust="spacing" textLength="30" x="881" y="279.7676">Uses</text><polygon fill="#000000" points="541.9409,317.795,547.0825,309.3948,542.5941,312.8379,539.151,308.3495,541.9409,317.795" style="stroke:#000000;stroke-width:1.0;"/><path d="M551.0999,248.2944 C548.3551,269.1223 545.4785,290.9503 542.7248,311.8464 " fill="none" style="stroke:#000000;stroke-width:1.3;"/><text fill="#000000" font-family="sans-serif" font-size="13" lengthAdjust="spacing" textLength="65" x="550" y="279.7676">Signs with</text><polygon fill="#000000" points="405.7843,318.1309,412.0683,310.5473,407.1359,313.3171,404.3661,308.3847,405.7843,318.1309" style="stroke:#000000;stroke-width:1.0;"/><path d="M498.7544,246.7137 C490.8758,250.151 482.8043,253.424 475,256.1992 C457.7343,262.339 448.9556,254.3231 435,266.1992 C419.52,279.3726 412.3203,294.8526 407.4062,312.3543 " fill="none" style="stroke:#000000;stroke-width:1.3;"/><text fill="#000000" font-family="sans-serif" font-size="13" lengthAdjust="spacing" textLength="106" x="436" y="279.7676">Gets config from</text><polygon fill="#000000" points="666.0045,317.8944,663.6205,308.3384,662.9282,313.9528,657.3139,313.2605,666.0045,317.8944" style="stroke:#000000;stroke-width:1.0;"/><path d="M598.8326,248.452 C606.1499,254.0524 613.4749,260.0805 620,266.1992 C636.8026,281.9554 649.7174,297.0258 662.313,313.1644 " fill="none" style="stroke:#000000;stroke-width:1.3;"/><text fill="#000000" font-family="sans-serif" font-size="13" lengthAdjust="spacing" textLength="87" x="638" y="279.7676">Executes with</text><polygon fill="#000000" points="527.274,186.8404,524.0811,177.5235,523.8717,183.1765,518.2188,182.9671,527.274,186.8404" style="stroke:#000000;stroke-width:1.0;"/><path d="M478.597,134.4191 C493.6412,150.6206 508.127,166.2206 523.1913,182.4437 " fill="none" style="stroke:#000000;stroke-width:1.3;"/><text fill="#000000" font-family="sans-serif" font-size="13" lengthAdjust="spacing" textLength="55" x="511" y="165.7676">Manages</text><polygon fill="#000000" points="401.2744,318.0107,405.7956,309.2609,401.5678,313.0193,397.8094,308.7915,401.2744,318.0107" style="stroke:#000000;stroke-width:1.0;"/><path d="M437.4342,134.2806 C430.8838,149.7434 423.4894,169.1607 419,187.1992 C407.8525,231.9902 403.5381,279.4996 401.6265,312.021 " fill="none" style="stroke:#000000;stroke-width:1.3;"/><text fill="#000000" font-family="sans-serif" font-size="13" lengthAdjust="spacing" textLength="69" x="420" y="222.7676">Configures</text><polygon fill="#000000" points="572.1509,683.1839,575.7939,674.0336,571.9543,678.1878,567.8001,674.3482,572.1509,683.1839" style="stroke:#000000;stroke-width:1.0;"/><path d="M664.0137,379.4428 C640.5885,410.3451 606.1743,461.1073 590,511.1992 C571.0219,569.9745 570.3402,637.1786 571.915,677.1885 " fill="none" style="stroke:#000000;stroke-width:1.3;"/><text fill="#000000" font-family="sans-serif" font-size="13" lengthAdjust="spacing" textLength="76" x="591" y="524.7676">Connects to</text><polygon fill="#000000" points="671.6072,546.1765,674.3361,536.7133,670.922,541.2237,666.4116,537.8096,671.6072,546.1765" style="stroke:#000000;stroke-width:1.0;"/><path d="M723.4263,476.7481 C705.4741,483.8466 687.5625,494.6966 677,511.1992 C670.4734,521.3962 669.1654,528.5257 670.785,540.2331 " fill="none" style="stroke:#000000;stroke-width:1.3;"/><text fill="#000000" font-family="sans-serif" font-size="13" lengthAdjust="spacing" textLength="93" x="678" y="524.7676">Processes with</text><polygon fill="#000000" points="792.7966,431.8404,800.0185,425.1438,794.7662,427.2447,792.6653,421.9925,792.7966,431.8404" style="stroke:#000000;stroke-width:1.0;"/><path d="M815.2629,379.4191 C808.3194,395.6206 802.1129,410.1025 795.1601,426.3256 " fill="none" style="stroke:#000000;stroke-width:1.3;"/><text fill="#000000" font-family="sans-serif" font-size="13" lengthAdjust="spacing" textLength="102" x="808" y="410.7676">Collects metrics</text><polygon fill="#000000" points="468.9352,683.0817,478.0626,679.3815,472.4066,679.4832,472.3049,673.8273,468.9352,683.0817" style="stroke:#000000;stroke-width:1.0;"/><path d="M783.2314,493.2627 C785.3991,529.7806 782.7315,591.0098 746,623.1992 C664.3615,694.7426 601.7613,609.0183 504,656.1992 C490.8442,662.5484 482.8895,668.6165 473.1009,678.7635 " fill="none" style="stroke:#000000;stroke-width:1.3;"/><text fill="#000000" font-family="sans-serif" font-size="13" lengthAdjust="spacing" textLength="65" x="783" y="581.7676">Reports to</text><polygon fill="#000000" points="611.2055,199.7572,620.9621,201.1023,616.0091,198.3695,618.7418,193.4165,611.2055,199.7572" style="stroke:#000000;stroke-width:1.0;"/><path d="M1011.6295,130.8225 C1007.7358,132.0902 1003.8369,133.2342 1000,134.1992 C917.3103,154.9968 893.0168,137.6628 809,152.1992 C740.0727,164.1249 668.0846,183.326 616.9698,198.092 " fill="none" style="stroke:#000000;stroke-width:1.3;"/><text fill="#000000" font-family="sans-serif" font-size="13" lengthAdjust="spacing" textLength="37" x="810" y="165.7676">Hosts</text><polygon fill="#000000" points="611.3413,210.7423,620.7198,213.7497,616.3123,210.2038,619.8582,205.7962,611.3413,210.7423" style="stroke:#000000;stroke-width:1.0;"/><path d="M1146.4972,131.16 C1143.3151,132.2713 1140.1356,133.2956 1137,134.1992 C1038.6936,162.5286 743.3371,196.4425 617.3064,210.0961 " fill="none" style="stroke:#000000;stroke-width:1.3;"/><text fill="#000000" font-family="sans-serif" font-size="13" lengthAdjust="spacing" textLength="56" x="1043" y="165.7676">Monitors</text><polygon fill="#000000" points="1106.9241,186.8404,1116.3641,184.0322,1110.7245,183.5913,1111.1654,177.9516,1106.9241,186.8404" style="stroke:#000000;stroke-width:1.0;"/><path d="M1168.2383,134.4191 C1149.2884,150.6206 1130.4597,166.7184 1111.4846,182.9414 " fill="none" style="stroke:#000000;stroke-width:1.3;"/><text fill="#000000" font-family="sans-serif" font-size="13" lengthAdjust="spacing" textLength="46" x="1146" y="165.7676">Checks</text><polygon fill="#000000" points="1201.5332,186.8404,1205.6932,177.9133,1201.6225,181.8412,1197.6945,177.7705,1201.5332,186.8404" style="stroke:#000000;stroke-width:1.0;"/><path d="M1202.4693,134.4191 C1202.18,150.6206 1201.93,164.6183 1201.6403,180.8414 " fill="none" style="stroke:#000000;stroke-width:1.3;"/><text fill="#000000" font-family="sans-serif" font-size="13" lengthAdjust="spacing" textLength="48" x="1203" y="165.7676">Detects</text><polygon fill="#000000" points="218.4466,683.0459,227.7467,679.8044,222.0927,679.6246,222.2725,673.9706,218.4466,683.0459" style="stroke:#000000;stroke-width:1.0;"/><path d="M1164.653,248.34 C1139.6747,272.2258 1111,308.2395 1111,347.6992 C1111,347.6992 1111,347.6992 1111,577.6992 C1111,675.3711 992.8463,610.5265 896,623.1992 C755.2327,641.6191 389.8484,603.5617 258,656.1992 C243.2912,662.0714 233.9205,668.5257 222.8219,678.9403 " fill="none" style="stroke:#000000;stroke-width:1.3;"/><text fill="#000000" font-family="sans-serif" font-size="13" lengthAdjust="spacing" textLength="65" x="1112" y="467.7676">Reports to</text><polygon fill="#000000" points="201.0176,317.8251,204.4526,308.5946,200.708,312.8346,196.468,309.09,201.0176,317.8251" style="stroke:#000000;stroke-width:1.0;"/><path d="M499.2108,248.2429 C491.2614,251.443 483.0487,254.2427 475,256.1992 C447.0157,263.0019 237.1963,246.7028 216,266.1992 C202.1505,278.938 199.5531,294.2198 200.6461,311.8366 " fill="none" style="stroke:#000000;stroke-width:1.3;"/><text fill="#000000" font-family="sans-serif" font-size="13" lengthAdjust="spacing" textLength="86" x="217" y="279.7676">Interacts with</text><polygon fill="#000000" points="318.782,682.9813,321.8597,673.6257,318.2808,678.0065,313.9,674.4276,318.782,682.9813" style="stroke:#000000;stroke-width:1.0;"/><path d="M511.7926,248.2483 C505.9902,251.315 499.9749,254.0789 494,256.1992 C426.626,280.1087 380.4642,234.4385 337,291.1992 C290.2008,352.3152 309.5538,591.382 318.1806,677.0115 " fill="none" style="stroke:#000000;stroke-width:1.3;"/><text fill="#000000" font-family="sans-serif" font-size="13" lengthAdjust="spacing" textLength="122" x="309" y="467.7676">Retrieves data from</text><polygon fill="#000000" points="414.6012,683.1366,410.8742,674.0202,410.9925,679.6758,405.3369,679.7941,414.6012,683.1366" style="stroke:#000000;stroke-width:1.0;"/><path d="M213.0779,379.2985 C214.43,385.2167 215.7974,391.3972 217,397.1992 C229.0136,455.1585 211.8775,476.6678 241,528.1992 C283.2938,603.0368 322.7221,598.0155 386,656.1992 C395.3958,664.8386 401.1469,670.2337 410.2708,678.9836 " fill="none" style="stroke:#000000;stroke-width:1.3;"/><text fill="#000000" font-family="sans-serif" font-size="13" lengthAdjust="spacing" textLength="65" x="242" y="524.7676">Reports to</text><rect fill="#DDDDDD" height="195.3711" id="_legend" rx="4" ry="4" style="stroke:#000000;stroke-width:1.0;" width="311" x="936" y="766.1992"/><text fill="#000000" font-family="sans-serif" font-size="14" font-weight="bold" lengthAdjust="spacing" textLength="123" x="946" y="786.7344">Component Type</text><text fill="#000000" font-family="sans-serif" font-size="14" font-weight="bold" lengthAdjust="spacing" textLength="83" x="1079" y="786.7344">Description</text><text fill="#000000" filter="url(#bivfoovloyig70)" font-family="sans-serif" font-size="14" lengthAdjust="spacing" textLength="63" x="941" y="803.2227">Frontend</text><text fill="#000000" font-family="sans-serif" font-size="14" lengthAdjust="spacing" textLength="142" x="1078" y="803.2227">Web/UI Components</text><text fill="#000000" filter="url(#bivfoovloyig71)" font-family="sans-serif" font-size="14" lengthAdjust="spacing" textLength="22" x="941" y="819.7109">API</text><text fill="#000000" font-family="sans-serif" font-size="14" lengthAdjust="spacing" textLength="116" x="1078" y="819.7109">Backend Services</text><text fill="#000000" filter="url(#bivfoovloyig72)" font-family="sans-serif" font-size="14" lengthAdjust="spacing" textLength="33" x="941" y="836.1992">Auth</text><text fill="#000000" font-family="sans-serif" font-size="14" lengthAdjust="spacing" textLength="160" x="1078" y="836.1992">Authentication Services</text><text fill="#000000" filter="url(#bivfoovloyig73)" font-family="sans-serif" font-size="14" lengthAdjust="spacing" textLength="63" x="941" y="852.6875">Database</text><text fill="#000000" font-family="sans-serif" font-size="14" lengthAdjust="spacing" textLength="88" x="1078" y="852.6875">Data Storage</text><text fill="#000000" filter="url(#bivfoovloyig74)" font-family="sans-serif" font-size="14" lengthAdjust="spacing" textLength="57" x="941" y="869.1758">External</text><text fill="#000000" font-family="sans-serif" font-size="14" lengthAdjust="spacing" textLength="121" x="1078" y="869.1758">3rd Party Services</text><text fill="#000000" filter="url(#bivfoovloyig75)" font-family="sans-serif" font-size="14" lengthAdjust="spacing" textLength="59" x="941" y="885.6641">Contract</text><text fill="#000000" font-family="sans-serif" font-size="14" lengthAdjust="spacing" textLength="110" x="1078" y="885.6641">Smart Contracts</text><text fill="#000000" filter="url(#bivfoovloyig76)" font-family="sans-serif" font-size="14" lengthAdjust="spacing" textLength="45" x="941" y="902.1523">Queue</text><text fill="#000000" font-family="sans-serif" font-size="14" lengthAdjust="spacing" textLength="115" x="1078" y="902.1523">Message Queues</text><text fill="#000000" filter="url(#bivfoovloyig77)" font-family="sans-serif" font-size="14" lengthAdjust="spacing" textLength="62" x="941" y="918.6406">Operator</text><text fill="#000000" font-family="sans-serif" font-size="14" lengthAdjust="spacing" textLength="109" x="1078" y="918.6406">Validator Nodes</text><text fill="#000000" filter="url(#bivfoovloyig78)" font-family="sans-serif" font-size="14" lengthAdjust="spacing" textLength="64" x="941" y="935.1289">Evaluator</text><text fill="#000000" font-family="sans-serif" font-size="14" lengthAdjust="spacing" textLength="130" x="1078" y="935.1289">Evaluation Services</text><text fill="#000000" filter="url(#bivfoovloyig79)" font-family="sans-serif" font-size="14" lengthAdjust="spacing" textLength="53" x="941" y="951.6172">Storage</text><text fill="#000000" font-family="sans-serif" font-size="14" lengthAdjust="spacing" textLength="112" x="1078" y="951.6172">Storage Services</text><line style="stroke:#000000;stroke-width:1.0;" x1="941" x2="1242" y1="773.1992" y2="773.1992"/><line style="stroke:#000000;stroke-width:1.0;" x1="941" x2="1242" y1="789.6875" y2="789.6875"/><line style="stroke:#000000;stroke-width:1.0;" x1="941" x2="1242" y1="806.1758" y2="806.1758"/><line style="stroke:#000000;stroke-width:1.0;" x1="941" x2="1242" y1="822.6641" y2="822.6641"/><line style="stroke:#000000;stroke-width:1.0;" x1="941" x2="1242" y1="839.1523" y2="839.1523"/><line style="stroke:#000000;stroke-width:1.0;" x1="941" x2="1242" y1="855.6406" y2="855.6406"/><line style="stroke:#000000;stroke-width:1.0;" x1="941" x2="1242" y1="872.1289" y2="872.1289"/><line style="stroke:#000000;stroke-width:1.0;" x1="941" x2="1242" y1="888.6172" y2="888.6172"/><line style="stroke:#000000;stroke-width:1.0;" x1="941" x2="1242" y1="905.1055" y2="905.1055"/><line style="stroke:#000000;stroke-width:1.0;" x1="941" x2="1242" y1="921.5938" y2="921.5938"/><line style="stroke:#000000;stroke-width:1.0;" x1="941" x2="1242" y1="938.082" y2="938.082"/><line style="stroke:#000000;stroke-width:1.0;" x1="941" x2="1242" y1="954.5703" y2="954.5703"/><line style="stroke:#000000;stroke-width:1.0;" x1="941" x2="941" y1="773.1992" y2="954.5703"/><line style="stroke:#000000;stroke-width:1.0;" x1="1074" x2="1074" y1="773.1992" y2="954.5703"/><line style="stroke:#000000;stroke-width:1.0;" x1="1242" x2="1242" y1="773.1992" y2="954.5703"/><!--SRC=[jLXBSzis4BxpLw3f8Ut1YMN9Bush6OaY4y_OQHevwQ7jU60IaZ062GK0dQXr_diN3qe07vdH8Jau3dRtszqFYuz0Vje8l2emOdZBAuLaGHGkSHIzH7Eof2L1MIKLBr366HSIAOuAhB8rakHpHSgCe9pYbS25ZEGZBJSOVWNVOiDBKgghgrJmKf4odqpGVn52CvmzhWIloZpMUEZdv38zJr9juI8dmgsUd4-Ji-FTwjsQPeybaHATHD-YxaJJzzUzEMRfQJfhvXYEBY_ciyDoL6hTboIzJ6R9j9aaEH_5m_YW97Eiy0EMf3VHA8dJysQYYsGqciuFIfHyLKIKcFKcIg2dLg9q48-EquCInJ020cUgDz5qFfjVD1DTZeQ3axE34lrHaQgVjpWTngr9cvrVdXuVDWM_RuZ0Yek-HFEpP9gssZb9BixYmM4Rz8HPzTrCeoITjreQN9wbmyD6OG59yAgVkjCaQNTqVZOQNKpxyhn4iHKEgRQCbYilyLG8_iM179i_JUCUQ_1gw1bpiiGLKtVagveokYeBg1vby8C8p-k3BLsKHA0BRrrHnKWAmxYW_n8qw3P1jGGzS9PxrhXcobe5oK0ZLunqaTaaO_3gjCjjNyP9d_aTBWZGGJ7pFDx3ti1EzHUoiGxDFOG3M4hm0EmEv-3ScJy-wKwGVhGqVTQdzmSSOhEto1qcoaiq_RG0NhCrLS1V9KWKEHxGYqM1XKArO4bqWxT4l32r8FINnfW-oGKHJpGZj_2TN17nT_dBWZEQKxNzzH-49NmPZVc-i7Ra2s20SuVbOn-80jjt46PCVY0hAfNOnXoQfgNMYHRA0vFtmlbre2mKVYGrJhiFRUq9_-PnLkjXWwpTigCByDzmYymtzuuavCjf8ow-kGvZCaQH-z1RLqqWClFYEHhcp2oXtJ0vqcuMQ06g0Mg4RdbUCJzCKoN1QEXkrWITBoa4xJQhZigCuRvOTKIP7pkMtd2qq_EQ8uCDbH26OaQrbgL0BpTxKMSejFb-QTTHy57OOtmW4dH34hJ8k0WAb6RXEt4Wf-Yzu1aS5-u7RkgrljXReWJD91mMnaYcWk32sTgXtuBHkIwN0iDqLUOSDWPephD7A5rF7OQBgCQtIpP7Rit-FIPoX9OK4kfTdgw0r81COmgdw2t1JArHl2OQqFDUMqFWl61OhZNqdAXcrxAsrH5-gtMLzN6GUrMXKALf7NeLUYOJjIQ2L8M59ThEZBtTh9PaIHJoJ_7GbJD4tfVTkj_St2AeJU_u4mMfbE0F_xO1Z1KT6KnbDwIKEj1tnnlgT_fo9vk8wWyo_09Y2y-2XXmU7Kr2NHgxSoMZGFIqNpDsZ3vAy6ieKxUdQz7fc8o2d3h4utNi-0D2q1UgrbqP0lTFHD0btOD3zplTsdt4PUG9dORmfCbrqd3mH6XifCgLqt3pL6UCtX1Lwn1Q2buqdKC16QFaAyagHVR8MbQrenUttnBF7cIrYWY7LaPX0ksf1ycub4H_H1MFzcfYDikAqhWMdhgOMZQqppvYN4lCJbSQS7eGzGvkkB3PO3T2POcSMBJQVCkbqXrOMMYpO0sXXvE5iLMCqBQJWB4J21ZMUgbZvloATmAHMTxCuUaQeFs8NxjprZqbSFvr3c2CF073-Xfd1wHrpBe8dEQvVVCVPJpNvJC2fUUH_Gi9kbeh48Zdt_QtOtIttH2zCYSo4tHZBblFskdg0MHmx1xxaok3EtvWi3Yf_uFWwhLPdLozrhwJP_GdUNZzyNgFBaCeywOFeK2AMYZw1gdhhLKt0B5lzWO8lF5RA7eHIg2PlK1sWvdBRmXMNvXRWDg0d3Q7AERH7QBKaz526OeS7WH2RNigCk_g4AlMw1PMy-OR09bRTmXaRbOjb5iubRebOmr1xBCu1AariuNp2SDDrAZfEvutWSohjq5HVSre8Ndt_cwIpDisH7CRq-R8RPW71BFb3iR_]--></g></svg>