<?xml version="1.0" encoding="us-ascii" standalone="no"?><svg xmlns="http://www.w3.org/2000/svg" xmlns:xlink="http://www.w3.org/1999/xlink" contentStyleType="text/css" height="1297px" preserveAspectRatio="none" style="width:886px;height:1297px;background:#FFFFFF;" version="1.1" viewBox="0 0 886 1297" width="886px" zoomAndPan="magnify"><defs/><g><text fill="#303030" font-family="Arial" font-size="16" font-weight="bold" lengthAdjust="spacing" textLength="191" x="343.75" y="38.0078">Task Reassignment Flow</text><rect fill="#F8F8F8" height="220.1953" style="stroke:#000000;stroke-width:1.0;" width="10" x="203" y="249.2446"/><rect fill="#F8F8F8" height="100.5977" style="stroke:#000000;stroke-width:1.0;" width="10" x="584" y="620.8364"/><line style="stroke:#000000;stroke-width:0.5;stroke-dasharray:5.0,5.0;" x1="55" x2="55" y1="152.4971" y2="790.3828"/><line style="stroke:#000000;stroke-width:0.5;stroke-dasharray:5.0,5.0;" x1="208" x2="208" y1="152.4971" y2="790.3828"/><line style="stroke:#000000;stroke-width:0.5;stroke-dasharray:5.0,5.0;" x1="413" x2="413" y1="152.4971" y2="790.3828"/><line style="stroke:#000000;stroke-width:0.5;stroke-dasharray:5.0,5.0;" x1="589" x2="589" y1="152.4971" y2="790.3828"/><line style="stroke:#000000;stroke-width:0.5;stroke-dasharray:5.0,5.0;" x1="800.5" x2="800.5" y1="152.4971" y2="790.3828"/><text fill="#000000" font-family="Arial" font-size="14" font-weight="bold" lengthAdjust="spacing" textLength="44" x="30" y="141.5303">Admin</text><ellipse cx="55" cy="68.8984" fill="#FFFFFF" rx="8" ry="8" style="stroke:#454545;stroke-width:0.5;"/><path d="M55,76.8984 L55,103.8984 M42,84.8984 L68,84.8984 M55,103.8984 L42,118.8984 M55,103.8984 L68,118.8984 " fill="none" style="stroke:#454545;stroke-width:0.5;"/><text fill="#000000" font-family="Arial" font-size="14" font-weight="bold" lengthAdjust="spacing" textLength="44" x="30" y="810.5146">Admin</text><ellipse cx="55" cy="829.9814" fill="#FFFFFF" rx="8" ry="8" style="stroke:#454545;stroke-width:0.5;"/><path d="M55,837.9814 L55,864.9814 M42,845.9814 L68,845.9814 M55,864.9814 L42,879.9814 M55,864.9814 L68,879.9814 " fill="none" style="stroke:#454545;stroke-width:0.5;"/><rect fill="#FADBD8" height="56.4478" rx="4" ry="4" style="stroke:#943126;stroke-width:2.0;" width="162" x="127" y="95.0493"/><text fill="#000000" font-family="Arial" font-size="10" font-weight="bold" lengthAdjust="spacing" textLength="53" x="181.5" y="119.4292">&#171;Contract&#187;</text><text fill="#000000" font-family="Arial" font-size="13" font-weight="bold" lengthAdjust="spacing" textLength="132" x="142" y="133.7422">EvalAvsTaskManager</text><rect fill="#FADBD8" height="56.4478" rx="4" ry="4" style="stroke:#943126;stroke-width:2.0;" width="162" x="127" y="789.3828"/><text fill="#000000" font-family="Arial" font-size="10" font-weight="bold" lengthAdjust="spacing" textLength="53" x="181.5" y="813.7627">&#171;Contract&#187;</text><text fill="#000000" font-family="Arial" font-size="13" font-weight="bold" lengthAdjust="spacing" textLength="132" x="142" y="828.0757">EvalAvsTaskManager</text><rect fill="#D6EAF8" height="56.4478" rx="4" ry="4" style="stroke:#2E86C1;stroke-width:2.0;" width="138" x="344" y="95.0493"/><text fill="#000000" font-family="Arial" font-size="10" font-weight="bold" lengthAdjust="spacing" textLength="55" x="385.5" y="119.4292">&#171;Operator&#187;</text><text fill="#000000" font-family="Arial" font-size="13" font-weight="bold" lengthAdjust="spacing" textLength="108" x="359" y="133.7422">Original Operator</text><rect fill="#D6EAF8" height="56.4478" rx="4" ry="4" style="stroke:#2E86C1;stroke-width:2.0;" width="138" x="344" y="789.3828"/><text fill="#000000" font-family="Arial" font-size="10" font-weight="bold" lengthAdjust="spacing" textLength="55" x="385.5" y="813.7627">&#171;Operator&#187;</text><text fill="#000000" font-family="Arial" font-size="13" font-weight="bold" lengthAdjust="spacing" textLength="108" x="359" y="828.0757">Original Operator</text><rect fill="#D6EAF8" height="56.4478" rx="4" ry="4" style="stroke:#2E86C1;stroke-width:2.0;" width="114" x="532" y="95.0493"/><text fill="#000000" font-family="Arial" font-size="10" font-weight="bold" lengthAdjust="spacing" textLength="55" x="561.5" y="119.4292">&#171;Operator&#187;</text><text fill="#000000" font-family="Arial" font-size="13" font-weight="bold" lengthAdjust="spacing" textLength="84" x="547" y="133.7422">New Operator</text><rect fill="#D6EAF8" height="56.4478" rx="4" ry="4" style="stroke:#2E86C1;stroke-width:2.0;" width="114" x="532" y="789.3828"/><text fill="#000000" font-family="Arial" font-size="10" font-weight="bold" lengthAdjust="spacing" textLength="55" x="561.5" y="813.7627">&#171;Operator&#187;</text><text fill="#000000" font-family="Arial" font-size="13" font-weight="bold" lengthAdjust="spacing" textLength="84" x="547" y="828.0757">New Operator</text><rect fill="#D4EFDF" height="56.4478" rx="4" ry="4" style="stroke:#196F3D;stroke-width:2.0;" width="107" x="747.5" y="95.0493"/><text fill="#000000" font-family="Arial" font-size="10" font-weight="bold" lengthAdjust="spacing" textLength="59" x="771.5" y="119.4292">&#171;Evaluator&#187;</text><text fill="#000000" font-family="Arial" font-size="13" font-weight="bold" lengthAdjust="spacing" textLength="77" x="762.5" y="133.7422">GoEvaluator</text><rect fill="#D4EFDF" height="56.4478" rx="4" ry="4" style="stroke:#196F3D;stroke-width:2.0;" width="107" x="747.5" y="789.3828"/><text fill="#000000" font-family="Arial" font-size="10" font-weight="bold" lengthAdjust="spacing" textLength="59" x="771.5" y="813.7627">&#171;Evaluator&#187;</text><text fill="#000000" font-family="Arial" font-size="13" font-weight="bold" lengthAdjust="spacing" textLength="77" x="762.5" y="828.0757">GoEvaluator</text><rect fill="#F8F8F8" height="220.1953" style="stroke:#000000;stroke-width:1.0;" width="10" x="203" y="249.2446"/><rect fill="#F8F8F8" height="100.5977" style="stroke:#000000;stroke-width:1.0;" width="10" x="584" y="620.8364"/><path d="M5,171.4971 L5,203.4971 A4,4 0 0 0 9,207.4971 L848,207.4971 A4,4 0 0 0 852,203.4971 L852,177.4971 L842,167.4971 L9,167.4971 A4,4 0 0 0 5,171.4971 " fill="#FFFFDD" style="stroke:#999999;stroke-width:1.0;"/><path d="M842,167.4971 L842,175.4971 A2,2 0 0 0 844,177.4971 L852,177.4971 L842,167.4971 " fill="#FFFFDD" style="stroke:#999999;stroke-width:1.0;"/><text fill="#000000" font-family="Arial" font-size="13" lengthAdjust="spacing" textLength="168" x="344.75" y="192.6909">Task Reassignment Process</text><polygon fill="#000000" points="191,245.2446,201,249.2446,191,253.2446,195,249.2446" style="stroke:#000000;stroke-width:1.0;"/><line style="stroke:#000000;stroke-width:1.5;" x1="55" x2="197" y1="249.2446" y2="249.2446"/><text fill="#000000" font-family="Arial" font-size="12" lengthAdjust="spacing" textLength="113" x="72.5" y="236.7017">reassignTask(taskId)</text><line style="stroke:#000000;stroke-width:1.5;" x1="213" x2="255" y1="293.0435" y2="293.0435"/><line style="stroke:#000000;stroke-width:1.5;" x1="255" x2="255" y1="293.0435" y2="306.0435"/><line style="stroke:#000000;stroke-width:1.5;" x1="214" x2="255" y1="306.0435" y2="306.0435"/><polygon fill="#000000" points="224,302.0435,214,306.0435,224,310.0435,220,306.0435" style="stroke:#000000;stroke-width:1.0;"/><text fill="#000000" font-family="Arial" font-size="12" lengthAdjust="spacing" textLength="35" x="228" y="280.5005">Check</text><text fill="#000000" font-family="Arial" font-size="12" lengthAdjust="spacing" textLength="3" x="263" y="280.5005">&#160;</text><text fill="#000000" font-family="Arial" font-size="12" lengthAdjust="spacing" textLength="6" x="266" y="280.5005">if</text><text fill="#000000" font-family="Arial" font-size="12" lengthAdjust="spacing" textLength="3" x="272" y="280.5005">&#160;</text><text fill="#000000" font-family="Arial" font-size="12" lengthAdjust="spacing" textLength="22" x="275" y="280.5005">task</text><text fill="#000000" font-family="Arial" font-size="12" lengthAdjust="spacing" textLength="3" x="297" y="280.5005">&#160;</text><text fill="#000000" font-family="Arial" font-size="12" lengthAdjust="spacing" textLength="9" x="300" y="280.5005">is</text><text fill="#000000" font-family="Arial" font-size="12" lengthAdjust="spacing" textLength="3" x="309" y="280.5005">&#160;</text><text fill="#000000" font-family="Arial" font-size="12" lengthAdjust="spacing" textLength="41" x="312" y="280.5005">expired</text><line style="stroke:#000000;stroke-width:1.5;" x1="213" x2="255" y1="349.8423" y2="349.8423"/><line style="stroke:#000000;stroke-width:1.5;" x1="255" x2="255" y1="349.8423" y2="362.8423"/><line style="stroke:#000000;stroke-width:1.5;" x1="214" x2="255" y1="362.8423" y2="362.8423"/><polygon fill="#000000" points="224,358.8423,214,362.8423,224,366.8423,220,362.8423" style="stroke:#000000;stroke-width:1.0;"/><text fill="#000000" font-family="Arial" font-size="12" lengthAdjust="spacing" textLength="19" x="228" y="337.2993">Get</text><text fill="#000000" font-family="Arial" font-size="12" lengthAdjust="spacing" textLength="3" x="247" y="337.2993">&#160;</text><text fill="#000000" font-family="Arial" font-size="12" lengthAdjust="spacing" textLength="23" x="250" y="337.2993">next</text><text fill="#000000" font-family="Arial" font-size="12" lengthAdjust="spacing" textLength="3" x="273" y="337.2993">&#160;</text><text fill="#000000" font-family="Arial" font-size="12" lengthAdjust="spacing" textLength="46" x="276" y="337.2993">operator</text><text fill="#000000" font-family="Arial" font-size="12" lengthAdjust="spacing" textLength="3" x="322" y="337.2993">&#160;</text><text fill="#000000" font-family="Arial" font-size="12" lengthAdjust="spacing" textLength="24" x="325" y="337.2993">from</text><text fill="#000000" font-family="Arial" font-size="12" lengthAdjust="spacing" textLength="3" x="349" y="337.2993">&#160;</text><text fill="#000000" font-family="Arial" font-size="12" lengthAdjust="spacing" textLength="35" x="352" y="337.2993">queue</text><line style="stroke:#000000;stroke-width:1.5;" x1="213" x2="255" y1="406.6411" y2="406.6411"/><line style="stroke:#000000;stroke-width:1.5;" x1="255" x2="255" y1="406.6411" y2="419.6411"/><line style="stroke:#000000;stroke-width:1.5;" x1="214" x2="255" y1="419.6411" y2="419.6411"/><polygon fill="#000000" points="224,415.6411,214,419.6411,224,423.6411,220,419.6411" style="stroke:#000000;stroke-width:1.0;"/><text fill="#000000" font-family="Arial" font-size="12" lengthAdjust="spacing" textLength="40" x="228" y="394.0981">Update</text><text fill="#000000" font-family="Arial" font-size="12" lengthAdjust="spacing" textLength="3" x="268" y="394.0981">&#160;</text><text fill="#000000" font-family="Arial" font-size="12" lengthAdjust="spacing" textLength="22" x="271" y="394.0981">task</text><text fill="#000000" font-family="Arial" font-size="12" lengthAdjust="spacing" textLength="3" x="293" y="394.0981">&#160;</text><text fill="#000000" font-family="Arial" font-size="12" lengthAdjust="spacing" textLength="22" x="296" y="394.0981">with</text><text fill="#000000" font-family="Arial" font-size="12" lengthAdjust="spacing" textLength="3" x="318" y="394.0981">&#160;</text><text fill="#000000" font-family="Arial" font-size="12" lengthAdjust="spacing" textLength="23" x="321" y="394.0981">new</text><text fill="#000000" font-family="Arial" font-size="12" lengthAdjust="spacing" textLength="3" x="344" y="394.0981">&#160;</text><text fill="#000000" font-family="Arial" font-size="12" lengthAdjust="spacing" textLength="46" x="347" y="394.0981">operator</text><line style="stroke:#000000;stroke-width:1.5;" x1="213" x2="255" y1="468.4399" y2="468.4399"/><line style="stroke:#000000;stroke-width:1.5;" x1="255" x2="255" y1="468.4399" y2="481.4399"/><line style="stroke:#000000;stroke-width:1.5;" x1="208" x2="255" y1="481.4399" y2="481.4399"/><polygon fill="#000000" points="218,477.4399,208,481.4399,218,485.4399,214,481.4399" style="stroke:#000000;stroke-width:1.0;"/><text fill="#000000" font-family="Arial" font-size="12" lengthAdjust="spacing" textLength="24" x="228" y="455.897">Emit</text><text fill="#000000" font-family="Arial" font-size="12" lengthAdjust="spacing" textLength="3" x="252" y="455.897">&#160;</text><text fill="#000000" font-family="Arial" font-size="12" lengthAdjust="spacing" textLength="90" x="255" y="455.897">EvalReassigned</text><text fill="#000000" font-family="Arial" font-size="12" lengthAdjust="spacing" textLength="3" x="345" y="455.897">&#160;</text><text fill="#000000" font-family="Arial" font-size="12" lengthAdjust="spacing" textLength="31" x="348" y="455.897">Event</text><polygon fill="#000000" points="401,516.2388,411,520.2388,401,524.2388,405,520.2388" style="stroke:#000000;stroke-width:1.0;"/><line style="stroke:#000000;stroke-width:1.5;stroke-dasharray:2.0,2.0;" x1="208" x2="407" y1="520.2388" y2="520.2388"/><text fill="#000000" font-family="Arial" font-size="12" lengthAdjust="spacing" textLength="90" x="248.5" y="507.6958">EvalReassigned</text><text fill="#000000" font-family="Arial" font-size="12" lengthAdjust="spacing" textLength="3" x="338.5" y="507.6958">&#160;</text><text fill="#000000" font-family="Arial" font-size="12" lengthAdjust="spacing" textLength="31" x="341.5" y="507.6958">Event</text><line style="stroke:#000000;stroke-width:1.5;" x1="413" x2="455" y1="564.0376" y2="564.0376"/><line style="stroke:#000000;stroke-width:1.5;" x1="455" x2="455" y1="564.0376" y2="577.0376"/><line style="stroke:#000000;stroke-width:1.5;" x1="414" x2="455" y1="577.0376" y2="577.0376"/><polygon fill="#000000" points="424,573.0376,414,577.0376,424,581.0376,420,577.0376" style="stroke:#000000;stroke-width:1.0;"/><text fill="#000000" font-family="Arial" font-size="12" lengthAdjust="spacing" textLength="39" x="428" y="551.4946">Cancel</text><text fill="#000000" font-family="Arial" font-size="12" lengthAdjust="spacing" textLength="3" x="467" y="551.4946">&#160;</text><text fill="#000000" font-family="Arial" font-size="12" lengthAdjust="spacing" textLength="22" x="470" y="551.4946">task</text><text fill="#000000" font-family="Arial" font-size="12" lengthAdjust="spacing" textLength="3" x="492" y="551.4946">&#160;</text><text fill="#000000" font-family="Arial" font-size="12" lengthAdjust="spacing" textLength="60" x="495" y="551.4946">processing</text><polygon fill="#000000" points="572,616.8364,582,620.8364,572,624.8364,576,620.8364" style="stroke:#000000;stroke-width:1.0;"/><line style="stroke:#000000;stroke-width:1.5;stroke-dasharray:2.0,2.0;" x1="208" x2="578" y1="620.8364" y2="620.8364"/><text fill="#000000" font-family="Arial" font-size="12" lengthAdjust="spacing" textLength="90" x="334" y="608.2935">EvalReassigned</text><text fill="#000000" font-family="Arial" font-size="12" lengthAdjust="spacing" textLength="3" x="424" y="608.2935">&#160;</text><text fill="#000000" font-family="Arial" font-size="12" lengthAdjust="spacing" textLength="31" x="427" y="608.2935">Event</text><line style="stroke:#000000;stroke-width:1.5;" x1="594" x2="636" y1="664.6353" y2="664.6353"/><line style="stroke:#000000;stroke-width:1.5;" x1="636" x2="636" y1="664.6353" y2="677.6353"/><line style="stroke:#000000;stroke-width:1.5;" x1="595" x2="636" y1="677.6353" y2="677.6353"/><polygon fill="#000000" points="605,673.6353,595,677.6353,605,681.6353,601,677.6353" style="stroke:#000000;stroke-width:1.0;"/><text fill="#000000" font-family="Arial" font-size="12" lengthAdjust="spacing" textLength="35" x="609" y="652.0923">Check</text><text fill="#000000" font-family="Arial" font-size="12" lengthAdjust="spacing" textLength="3" x="644" y="652.0923">&#160;</text><text fill="#000000" font-family="Arial" font-size="12" lengthAdjust="spacing" textLength="6" x="647" y="652.0923">if</text><text fill="#000000" font-family="Arial" font-size="12" lengthAdjust="spacing" textLength="3" x="653" y="652.0923">&#160;</text><text fill="#000000" font-family="Arial" font-size="12" lengthAdjust="spacing" textLength="23" x="656" y="652.0923">new</text><text fill="#000000" font-family="Arial" font-size="12" lengthAdjust="spacing" textLength="3" x="679" y="652.0923">&#160;</text><text fill="#000000" font-family="Arial" font-size="12" lengthAdjust="spacing" textLength="50" x="682" y="652.0923">assigned</text><text fill="#000000" font-family="Arial" font-size="12" lengthAdjust="spacing" textLength="3" x="732" y="652.0923">&#160;</text><text fill="#000000" font-family="Arial" font-size="12" lengthAdjust="spacing" textLength="46" x="735" y="652.0923">operator</text><polygon fill="#000000" points="789,717.4341,799,721.4341,789,725.4341,793,721.4341" style="stroke:#000000;stroke-width:1.0;"/><line style="stroke:#000000;stroke-width:1.5;" x1="589" x2="795" y1="721.4341" y2="721.4341"/><text fill="#000000" font-family="Arial" font-size="12" lengthAdjust="spacing" textLength="25" x="629.5" y="708.8911">Start</text><text fill="#000000" font-family="Arial" font-size="12" lengthAdjust="spacing" textLength="3" x="654.5" y="708.8911">&#160;</text><text fill="#000000" font-family="Arial" font-size="12" lengthAdjust="spacing" textLength="57" x="657.5" y="708.8911">evaluation</text><text fill="#000000" font-family="Arial" font-size="12" lengthAdjust="spacing" textLength="3" x="714.5" y="708.8911">&#160;</text><text fill="#000000" font-family="Arial" font-size="12" lengthAdjust="spacing" textLength="43" x="717.5" y="708.8911">process</text><path d="M594,738.4341 L594,770.4341 A4,4 0 0 0 598,774.4341 L861,774.4341 A4,4 0 0 0 865,770.4341 L865,744.4341 L855,734.4341 L598,734.4341 A4,4 0 0 0 594,738.4341 " fill="#FFFFDD" style="stroke:#999999;stroke-width:1.0;"/><path d="M855,734.4341 L855,742.4341 A2,2 0 0 0 857,744.4341 L865,744.4341 L855,734.4341 " fill="#FFFFDD" style="stroke:#999999;stroke-width:1.0;"/><text fill="#000000" font-family="Arial" font-size="13" lengthAdjust="spacing" textLength="225" x="617" y="759.6279">Process follows normal evaluation flow</text><rect fill="none" height="383.085" id="_legend" rx="4" ry="4" style="stroke:#000000;stroke-width:1.0;" width="355" x="511.5" y="894.4814"/><text fill="#000000" font-family="Arial" font-size="14" font-weight="bold" lengthAdjust="spacing" textLength="78" x="536.5" y="930.6133">Entity Type</text><text fill="#000000" font-family="Arial" font-size="14" font-weight="bold" lengthAdjust="spacing" textLength="79" x="638.5" y="930.6133">Description</text><rect fill="#E9F7EF" height="32.0986" style="stroke:none;stroke-width:1.0;" width="102" x="524.5" y="941.5801"/><text fill="#000000" font-family="Arial" font-size="14" lengthAdjust="spacing" textLength="4" x="532.5" y="962.7119">&#160;</text><text fill="#000000" font-family="Arial" font-size="14" lengthAdjust="spacing" textLength="203" x="638.5" y="962.7119">Frontend - Web/UI Components</text><rect fill="#EBF5FB" height="32.0986" style="stroke:none;stroke-width:1.0;" width="102" x="524.5" y="973.6787"/><text fill="#000000" font-family="Arial" font-size="14" lengthAdjust="spacing" textLength="4" x="532.5" y="994.8105">&#160;</text><text fill="#000000" font-family="Arial" font-size="14" lengthAdjust="spacing" textLength="148" x="638.5" y="994.8105">API - Backend Services</text><rect fill="#F9EBEA" height="32.0986" style="stroke:none;stroke-width:1.0;" width="102" x="524.5" y="1005.7773"/><text fill="#000000" font-family="Arial" font-size="14" lengthAdjust="spacing" textLength="4" x="532.5" y="1026.9092">&#160;</text><text fill="#000000" font-family="Arial" font-size="14" lengthAdjust="spacing" textLength="190" x="638.5" y="1026.9092">Auth - Authentication Services</text><rect fill="#F4ECF7" height="32.0986" style="stroke:none;stroke-width:1.0;" width="102" x="524.5" y="1037.876"/><text fill="#000000" font-family="Arial" font-size="14" lengthAdjust="spacing" textLength="4" x="532.5" y="1059.0078">&#160;</text><text fill="#000000" font-family="Arial" font-size="14" lengthAdjust="spacing" textLength="158" x="638.5" y="1059.0078">Database - Data Storage</text><rect fill="#FEF9E7" height="32.0986" style="stroke:none;stroke-width:1.0;" width="102" x="524.5" y="1069.9746"/><text fill="#000000" font-family="Arial" font-size="14" lengthAdjust="spacing" textLength="4" x="532.5" y="1091.1064">&#160;</text><text fill="#000000" font-family="Arial" font-size="14" lengthAdjust="spacing" textLength="181" x="638.5" y="1091.1064">External - 3rd Party Services</text><rect fill="#FADBD8" height="32.0986" style="stroke:none;stroke-width:1.0;" width="102" x="524.5" y="1102.0732"/><text fill="#000000" font-family="Arial" font-size="14" lengthAdjust="spacing" textLength="4" x="532.5" y="1123.2051">&#160;</text><text fill="#000000" font-family="Arial" font-size="14" lengthAdjust="spacing" textLength="170" x="638.5" y="1123.2051">Contract - Smart Contracts</text><rect fill="#FCF3CF" height="32.0986" style="stroke:none;stroke-width:1.0;" width="102" x="524.5" y="1134.1719"/><text fill="#000000" font-family="Arial" font-size="14" lengthAdjust="spacing" textLength="4" x="532.5" y="1155.3037">&#160;</text><text fill="#000000" font-family="Arial" font-size="14" lengthAdjust="spacing" textLength="168" x="638.5" y="1155.3037">Queue - Message Queues</text><rect fill="#D6EAF8" height="32.0986" style="stroke:none;stroke-width:1.0;" width="102" x="524.5" y="1166.2705"/><text fill="#000000" font-family="Arial" font-size="14" lengthAdjust="spacing" textLength="4" x="532.5" y="1187.4023">&#160;</text><text fill="#000000" font-family="Arial" font-size="14" lengthAdjust="spacing" textLength="171" x="638.5" y="1187.4023">Operator - Validator Nodes</text><rect fill="#D4EFDF" height="32.0986" style="stroke:none;stroke-width:1.0;" width="102" x="524.5" y="1198.3691"/><text fill="#000000" font-family="Arial" font-size="14" lengthAdjust="spacing" textLength="4" x="532.5" y="1219.501">&#160;</text><text fill="#000000" font-family="Arial" font-size="14" lengthAdjust="spacing" textLength="197" x="638.5" y="1219.501">Evaluator - Evaluation Services</text><rect fill="#F5EEF8" height="32.0986" style="stroke:none;stroke-width:1.0;" width="102" x="524.5" y="1230.4678"/><text fill="#000000" font-family="Arial" font-size="14" lengthAdjust="spacing" textLength="4" x="532.5" y="1251.5996">&#160;</text><text fill="#000000" font-family="Arial" font-size="14" lengthAdjust="spacing" textLength="171" x="638.5" y="1251.5996">Storage - Storage Services</text><line style="stroke:#000000;stroke-width:1.0;" x1="524.5" x2="853.5" y1="909.4814" y2="909.4814"/><line style="stroke:#000000;stroke-width:1.0;" x1="524.5" x2="853.5" y1="941.5801" y2="941.5801"/><line style="stroke:#000000;stroke-width:1.0;" x1="524.5" x2="853.5" y1="973.6787" y2="973.6787"/><line style="stroke:#000000;stroke-width:1.0;" x1="524.5" x2="853.5" y1="1005.7773" y2="1005.7773"/><line style="stroke:#000000;stroke-width:1.0;" x1="524.5" x2="853.5" y1="1037.876" y2="1037.876"/><line style="stroke:#000000;stroke-width:1.0;" x1="524.5" x2="853.5" y1="1069.9746" y2="1069.9746"/><line style="stroke:#000000;stroke-width:1.0;" x1="524.5" x2="853.5" y1="1102.0732" y2="1102.0732"/><line style="stroke:#000000;stroke-width:1.0;" x1="524.5" x2="853.5" y1="1134.1719" y2="1134.1719"/><line style="stroke:#000000;stroke-width:1.0;" x1="524.5" x2="853.5" y1="1166.2705" y2="1166.2705"/><line style="stroke:#000000;stroke-width:1.0;" x1="524.5" x2="853.5" y1="1198.3691" y2="1198.3691"/><line style="stroke:#000000;stroke-width:1.0;" x1="524.5" x2="853.5" y1="1230.4678" y2="1230.4678"/><line style="stroke:#000000;stroke-width:1.0;" x1="524.5" x2="853.5" y1="1262.5664" y2="1262.5664"/><line style="stroke:#000000;stroke-width:1.0;" x1="524.5" x2="524.5" y1="909.4814" y2="1262.5664"/><line style="stroke:#000000;stroke-width:1.0;" x1="626.5" x2="626.5" y1="909.4814" y2="1262.5664"/><line style="stroke:#000000;stroke-width:1.0;" x1="853.5" x2="853.5" y1="909.4814" y2="1262.5664"/><!--SRC=[ZLHDRzim3BthLt2zR0FMOXsmIr04o8AksA5hi7O_G91fcuZrCOcEq_twqKdiocaQx910elWUgQT7loDdchP0CDvQxouJFpTu5LhRAFKUxZKvbXyaRn5IG4Cb6J1jOc_fhsRoBa7f8t1D2GhILTHMfJMve6K53Jdavu3W8zS-ErZfo6GeQCShNHJaAlZoEJj_n3yjEeFV_7OulyxF5p7wxgacitQO4bnVVLMAYHk49vtMy0jrIbGvYuxXU-CxfRHXwNDHM78gl5I7YzkDRXQRrEFkjTCLnWlG2R8ztDmilUCe5FFv5FmGgIAd6tW86BLKs667w10KWc5vJF0JkobM0ly1k_Dzs-s8olQ26jS2KywpwB_1m-K_vRcp4tAjeZUYgLAxTBYSvrBC81vo- -07bhyVnSTUNDfenZnLvGeUionhD6kW4de64E_WDb34uYpe3XaSRXdy850PlGLnIejdWRz3qJUtgzKHryBIZIHdaRUM67gv1ecmaAt8f0eyUUafcz0TUs5sckwLPKv2brfcejbV9EpVIKRZTT7CH6_K6vlFKbNklMEMySLwxKOo_mPquh575ki2xWFooHXQtrjJBbdBavRJSWSNoiUbaV5Du7oqCcOPITcFTVOA6VmV]--></g></svg>