<?xml version="1.0" encoding="us-ascii" standalone="no"?><svg xmlns="http://www.w3.org/2000/svg" xmlns:xlink="http://www.w3.org/1999/xlink" contentStyleType="text/css" height="939px" preserveAspectRatio="none" style="width:1274px;height:939px;background:#FFFFFF;" version="1.1" viewBox="0 0 1274 939" width="1274px" zoomAndPan="magnify"><defs><filter height="1" id="bue6i6re0dj1m0" width="1" x="0" y="0"><feFlood flood-color="#E9F7EF" result="flood"/><feComposite in="SourceGraphic" in2="flood" operator="over"/></filter><filter height="1" id="bue6i6re0dj1m1" width="1" x="0" y="0"><feFlood flood-color="#EBF5FB" result="flood"/><feComposite in="SourceGraphic" in2="flood" operator="over"/></filter><filter height="1" id="bue6i6re0dj1m2" width="1" x="0" y="0"><feFlood flood-color="#F9EBEA" result="flood"/><feComposite in="SourceGraphic" in2="flood" operator="over"/></filter><filter height="1" id="bue6i6re0dj1m3" width="1" x="0" y="0"><feFlood flood-color="#F4ECF7" result="flood"/><feComposite in="SourceGraphic" in2="flood" operator="over"/></filter><filter height="1" id="bue6i6re0dj1m4" width="1" x="0" y="0"><feFlood flood-color="#FEF9E7" result="flood"/><feComposite in="SourceGraphic" in2="flood" operator="over"/></filter><filter height="1" id="bue6i6re0dj1m5" width="1" x="0" y="0"><feFlood flood-color="#FADBD8" result="flood"/><feComposite in="SourceGraphic" in2="flood" operator="over"/></filter><filter height="1" id="bue6i6re0dj1m6" width="1" x="0" y="0"><feFlood flood-color="#FCF3CF" result="flood"/><feComposite in="SourceGraphic" in2="flood" operator="over"/></filter><filter height="1" id="bue6i6re0dj1m7" width="1" x="0" y="0"><feFlood flood-color="#D6EAF8" result="flood"/><feComposite in="SourceGraphic" in2="flood" operator="over"/></filter><filter height="1" id="bue6i6re0dj1m8" width="1" x="0" y="0"><feFlood flood-color="#D4EFDF" result="flood"/><feComposite in="SourceGraphic" in2="flood" operator="over"/></filter><filter height="1" id="bue6i6re0dj1m9" width="1" x="0" y="0"><feFlood flood-color="#F5EEF8" result="flood"/><feComposite in="SourceGraphic" in2="flood" operator="over"/></filter></defs><g><!--cluster Smart Contracts Layer--><g id="cluster_Smart Contracts Layer"><rect fill="none" height="324" rx="4" ry="4" style="stroke:#999999;stroke-width:1.0;" width="270" x="14" y="249"/><text fill="#000000" font-family="sans-serif" font-size="14" font-weight="bold" lengthAdjust="spacing" textLength="159" x="69.5" y="264.5352">Smart Contracts Layer</text></g><!--cluster Operator Layer--><g id="cluster_Operator Layer"><rect fill="none" height="577" rx="4" ry="4" style="stroke:#999999;stroke-width:1.0;" width="658" x="338" y="4"/><text fill="#000000" font-family="sans-serif" font-size="14" font-weight="bold" lengthAdjust="spacing" textLength="107" x="613.5" y="19.5352">Operator Layer</text></g><!--cluster Go Evaluator--><g id="cluster_Go Evaluator"><rect fill="none" height="324" rx="4" ry="4" style="stroke:#999999;stroke-width:1.0;" width="278" x="614" y="249"/><text fill="#000000" font-family="sans-serif" font-size="14" font-weight="bold" lengthAdjust="spacing" textLength="91" x="707.5" y="264.5352">Go Evaluator</text></g><!--cluster Infrastructure Layer--><g id="cluster_Infrastructure Layer"><rect fill="none" height="210" rx="4" ry="4" style="stroke:#999999;stroke-width:1.0;" width="264" x="1004" y="4"/><text fill="#000000" font-family="sans-serif" font-size="14" font-weight="bold" lengthAdjust="spacing" textLength="142" x="1065" y="19.5352">Infrastructure Layer</text></g><!--cluster External Services--><g id="cluster_External Services"><rect fill="none" height="96" rx="4" ry="4" style="stroke:#999999;stroke-width:1.0;" width="516" x="127" y="614"/><text fill="#000000" font-family="sans-serif" font-size="14" font-weight="bold" lengthAdjust="spacing" textLength="121" x="324.5" y="629.5352">External Services</text></g><!--entity service_manager--><g id="elem_service_manager"><rect fill="#FADBD8" height="61.3965" rx="4" ry="4" style="stroke:#943126;stroke-width:2.0;" width="154" x="58" y="390"/><text fill="#000000" font-family="Arial" font-size="12" font-style="italic" lengthAdjust="spacing" textLength="60" x="105" y="411.2559">&#171;Contract&#187;</text><text fill="#000000" font-family="Arial" font-size="12" lengthAdjust="spacing" textLength="134" x="68" y="425.0547">EvalAvsServiceManager</text><text fill="#000000" font-family="Arial" font-size="12" lengthAdjust="spacing" textLength="48" x="111" y="438.8535">(Solidity)</text></g><!--entity task_manager--><g id="elem_task_manager"><rect fill="#FADBD8" height="61.3965" rx="4" ry="4" style="stroke:#943126;stroke-width:2.0;" width="139" x="136.5" y="276"/><text fill="#000000" font-family="Arial" font-size="12" font-style="italic" lengthAdjust="spacing" textLength="60" x="176" y="297.2559">&#171;Contract&#187;</text><text fill="#000000" font-family="Arial" font-size="12" lengthAdjust="spacing" textLength="119" x="146.5" y="311.0547">EvalAvsTaskManager</text><text fill="#000000" font-family="Arial" font-size="12" lengthAdjust="spacing" textLength="48" x="182" y="324.8535">(Solidity)</text></g><!--entity bls_registry--><g id="elem_bls_registry"><rect fill="#FADBD8" height="61.3965" rx="4" ry="4" style="stroke:#943126;stroke-width:2.0;" width="147" x="62.5" y="504"/><text fill="#000000" font-family="Arial" font-size="12" font-style="italic" lengthAdjust="spacing" textLength="60" x="106" y="525.2559">&#171;Contract&#187;</text><text fill="#000000" font-family="Arial" font-size="12" lengthAdjust="spacing" textLength="127" x="72.5" y="539.0547">BlsRegistryCoordinator</text><text fill="#000000" font-family="Arial" font-size="12" lengthAdjust="spacing" textLength="48" x="112" y="552.8535">(Solidity)</text></g><!--entity stake_registry--><g id="elem_stake_registry"><rect fill="#FADBD8" height="61.3965" rx="4" ry="4" style="stroke:#943126;stroke-width:2.0;" width="96" x="22" y="276"/><text fill="#000000" font-family="Arial" font-size="12" font-style="italic" lengthAdjust="spacing" textLength="60" x="40" y="297.2559">&#171;Contract&#187;</text><text fill="#000000" font-family="Arial" font-size="12" lengthAdjust="spacing" textLength="76" x="32" y="311.0547">StakeRegistry</text><text fill="#000000" font-family="Arial" font-size="12" lengthAdjust="spacing" textLength="48" x="46" y="324.8535">(Solidity)</text></g><!--entity op_service--><g id="elem_op_service"><rect fill="#D6EAF8" height="61.3965" rx="4" ry="4" style="stroke:#2E86C1;stroke-width:2.0;" width="112" x="499" y="145"/><text fill="#000000" font-family="Arial" font-size="12" font-style="italic" lengthAdjust="spacing" textLength="62" x="524" y="166.2559">&#171;Operator&#187;</text><text fill="#000000" font-family="Arial" font-size="12" lengthAdjust="spacing" textLength="92" x="509" y="180.0547">Operator Service</text><text fill="#000000" font-family="Arial" font-size="12" lengthAdjust="spacing" textLength="24" x="543" y="193.8535">(Go)</text></g><!--entity op_cli--><g id="elem_op_cli"><rect fill="#EBF5FB" height="61.3965" rx="4" ry="4" style="stroke:#3498DB;stroke-width:2.0;" width="90" x="406" y="31"/><text fill="#000000" font-family="Arial" font-size="12" font-style="italic" lengthAdjust="spacing" textLength="33" x="434.5" y="52.2559">&#171;API&#187;</text><text fill="#000000" font-family="Arial" font-size="12" lengthAdjust="spacing" textLength="70" x="416" y="66.0547">Operator CLI</text><text fill="#000000" font-family="Arial" font-size="12" lengthAdjust="spacing" textLength="24" x="439" y="79.8535">(Go)</text></g><!--entity task_queue--><g id="elem_task_queue"><rect fill="#FCF3CF" height="61.3965" rx="4" ry="4" style="stroke:#B7950B;stroke-width:2.0;" width="86" x="902" y="276"/><text fill="#000000" font-family="Arial" font-size="12" font-style="italic" lengthAdjust="spacing" textLength="51" x="919.5" y="297.2559">&#171;Queue&#187;</text><text fill="#000000" font-family="Arial" font-size="12" lengthAdjust="spacing" textLength="66" x="912" y="311.0547">Task Queue</text><text fill="#000000" font-family="Arial" font-size="12" lengthAdjust="spacing" textLength="24" x="933" y="324.8535">(Go)</text></g><!--entity bls_signer--><g id="elem_bls_signer"><rect fill="#D6EAF8" height="61.3965" rx="4" ry="4" style="stroke:#2E86C1;stroke-width:2.0;" width="132" x="472" y="276"/><text fill="#000000" font-family="Arial" font-size="12" font-style="italic" lengthAdjust="spacing" textLength="62" x="507" y="297.2559">&#171;Operator&#187;</text><text fill="#000000" font-family="Arial" font-size="12" lengthAdjust="spacing" textLength="112" x="482" y="311.0547">BLS Signing Module</text><text fill="#000000" font-family="Arial" font-size="12" lengthAdjust="spacing" textLength="24" x="526" y="324.8535">(Go)</text></g><!--entity config_mgr--><g id="elem_config_mgr"><rect fill="#D6EAF8" height="61.3965" rx="4" ry="4" style="stroke:#2E86C1;stroke-width:2.0;" width="108" x="346" y="276"/><text fill="#000000" font-family="Arial" font-size="12" font-style="italic" lengthAdjust="spacing" textLength="62" x="369" y="297.2559">&#171;Operator&#187;</text><text fill="#000000" font-family="Arial" font-size="12" lengthAdjust="spacing" textLength="88" x="356" y="311.0547">Config Manager</text><text fill="#000000" font-family="Arial" font-size="12" lengthAdjust="spacing" textLength="24" x="388" y="324.8535">(Go)</text></g><!--entity model_factory--><g id="elem_model_factory"><rect fill="#D4EFDF" height="61.3965" rx="4" ry="4" style="stroke:#196F3D;stroke-width:2.0;" width="132" x="622" y="276"/><text fill="#000000" font-family="Arial" font-size="12" font-style="italic" lengthAdjust="spacing" textLength="66" x="655" y="297.2559">&#171;Evaluator&#187;</text><text fill="#000000" font-family="Arial" font-size="12" lengthAdjust="spacing" textLength="112" x="632" y="311.0547">Model Client Factory</text><text fill="#000000" font-family="Arial" font-size="12" lengthAdjust="spacing" textLength="24" x="676" y="324.8535">(Go)</text></g><!--entity scorer--><g id="elem_scorer"><rect fill="#D4EFDF" height="61.3965" rx="4" ry="4" style="stroke:#196F3D;stroke-width:2.0;" width="115" x="622.5" y="504"/><text fill="#000000" font-family="Arial" font-size="12" font-style="italic" lengthAdjust="spacing" textLength="66" x="647" y="525.2559">&#171;Evaluator&#187;</text><text fill="#000000" font-family="Arial" font-size="12" lengthAdjust="spacing" textLength="95" x="632.5" y="539.0547">Response Scorer</text><text fill="#000000" font-family="Arial" font-size="12" lengthAdjust="spacing" textLength="24" x="668" y="552.8535">(Go)</text></g><!--entity processor--><g id="elem_processor"><rect fill="#D4EFDF" height="61.3965" rx="4" ry="4" style="stroke:#196F3D;stroke-width:2.0;" width="113" x="723.5" y="390"/><text fill="#000000" font-family="Arial" font-size="12" font-style="italic" lengthAdjust="spacing" textLength="66" x="747" y="411.2559">&#171;Evaluator&#187;</text><text fill="#000000" font-family="Arial" font-size="12" lengthAdjust="spacing" textLength="93" x="733.5" y="425.0547">Result Processor</text><text fill="#000000" font-family="Arial" font-size="12" lengthAdjust="spacing" textLength="24" x="768" y="438.8535">(Go)</text></g><!--entity metrics--><g id="elem_metrics"><rect fill="#D4EFDF" height="61.3965" rx="4" ry="4" style="stroke:#196F3D;stroke-width:2.0;" width="111" x="772.5" y="276"/><text fill="#000000" font-family="Arial" font-size="12" font-style="italic" lengthAdjust="spacing" textLength="66" x="795" y="297.2559">&#171;Evaluator&#187;</text><text fill="#000000" font-family="Arial" font-size="12" lengthAdjust="spacing" textLength="91" x="782.5" y="311.0547">Metrics Collector</text><text fill="#000000" font-family="Arial" font-size="12" lengthAdjust="spacing" textLength="24" x="816" y="324.8535">(Go)</text></g><!--entity docker--><g id="elem_docker"><rect fill="#FEF9E7" height="61.3965" rx="4" ry="4" style="stroke:#F1C40F;stroke-width:2.0;" width="116" x="1012" y="31"/><text fill="#000000" font-family="Arial" font-size="12" font-style="italic" lengthAdjust="spacing" textLength="59" x="1040.5" y="52.2559">&#171;External&#187;</text><text fill="#000000" font-family="Arial" font-size="12" lengthAdjust="spacing" textLength="96" x="1022" y="66.0547">Docker Container</text><text fill="#000000" font-family="Arial" font-size="12" lengthAdjust="spacing" textLength="47" x="1046.5" y="79.8535">(Docker)</text></g><!--entity monitor--><g id="elem_monitor"><rect fill="#EBF5FB" height="61.3965" rx="4" ry="4" style="stroke:#3498DB;stroke-width:2.0;" width="113" x="1146.5" y="31"/><text fill="#000000" font-family="Arial" font-size="12" font-style="italic" lengthAdjust="spacing" textLength="33" x="1186.5" y="52.2559">&#171;API&#187;</text><text fill="#000000" font-family="Arial" font-size="12" lengthAdjust="spacing" textLength="93" x="1156.5" y="66.0547">Monitoring Agent</text><text fill="#000000" font-family="Arial" font-size="12" lengthAdjust="spacing" textLength="24" x="1191" y="79.8535">(Go)</text></g><!--entity health--><g id="elem_health"><rect fill="#EBF5FB" height="61.3965" rx="4" ry="4" style="stroke:#3498DB;stroke-width:2.0;" width="105" x="1019.5" y="145"/><text fill="#000000" font-family="Arial" font-size="12" font-style="italic" lengthAdjust="spacing" textLength="33" x="1055.5" y="166.2559">&#171;API&#187;</text><text fill="#000000" font-family="Arial" font-size="12" lengthAdjust="spacing" textLength="85" x="1029.5" y="180.0547">Health Checker</text><text fill="#000000" font-family="Arial" font-size="12" lengthAdjust="spacing" textLength="24" x="1060" y="193.8535">(Go)</text></g><!--entity slashing--><g id="elem_slashing"><rect fill="#EBF5FB" height="61.3965" rx="4" ry="4" style="stroke:#3498DB;stroke-width:2.0;" width="117" x="1142.5" y="145"/><text fill="#000000" font-family="Arial" font-size="12" font-style="italic" lengthAdjust="spacing" textLength="33" x="1184.5" y="166.2559">&#171;API&#187;</text><text fill="#000000" font-family="Arial" font-size="12" lengthAdjust="spacing" textLength="97" x="1152.5" y="180.0547">Slashing Detector</text><text fill="#000000" font-family="Arial" font-size="12" lengthAdjust="spacing" textLength="24" x="1189" y="193.8535">(Go)</text></g><!--entity eigenlayer--><g id="elem_eigenlayer"><rect fill="#FEF9E7" height="61.3965" rx="4" ry="4" style="stroke:#F1C40F;stroke-width:2.0;" width="113" x="135.5" y="641"/><text fill="#000000" font-family="Arial" font-size="12" font-style="italic" lengthAdjust="spacing" textLength="59" x="162.5" y="662.2559">&#171;External&#187;</text><text fill="#000000" font-family="Arial" font-size="12" lengthAdjust="spacing" textLength="93" x="145.5" y="676.0547">EigenLayer Core</text><text fill="#000000" font-family="Arial" font-size="12" lengthAdjust="spacing" textLength="61" x="161.5" y="689.8535">(Ethereum)</text></g><!--entity s3--><g id="elem_s3"><rect fill="#F5EEF8" height="61.3965" rx="4" ry="4" style="stroke:#76448A;stroke-width:2.0;" width="110" x="267" y="641"/><text fill="#000000" font-family="Arial" font-size="12" font-style="italic" lengthAdjust="spacing" textLength="57" x="293.5" y="662.2559">&#171;Storage&#187;</text><text fill="#000000" font-family="Arial" font-size="12" lengthAdjust="spacing" textLength="90" x="277" y="676.0547">Dataset Registry</text><text fill="#000000" font-family="Arial" font-size="12" lengthAdjust="spacing" textLength="23" x="310.5" y="689.8535">(S3)</text></g><!--entity llm--><g id="elem_llm"><rect fill="#FEF9E7" height="61.3965" rx="4" ry="4" style="stroke:#F1C40F;stroke-width:2.0;" width="121" x="513.5" y="641"/><text fill="#000000" font-family="Arial" font-size="12" font-style="italic" lengthAdjust="spacing" textLength="59" x="544.5" y="662.2559">&#171;External&#187;</text><text fill="#000000" font-family="Arial" font-size="12" lengthAdjust="spacing" textLength="101" x="523.5" y="676.0547">LLM API Providers</text><text fill="#000000" font-family="Arial" font-size="12" lengthAdjust="spacing" textLength="27" x="560.5" y="689.8535">(API)</text></g><!--entity api--><g id="elem_api"><rect fill="#EBF5FB" height="61.3965" rx="4" ry="4" style="stroke:#3498DB;stroke-width:2.0;" width="100" x="395" y="641"/><text fill="#000000" font-family="Arial" font-size="12" font-style="italic" lengthAdjust="spacing" textLength="33" x="428.5" y="662.2559">&#171;API&#187;</text><text fill="#000000" font-family="Arial" font-size="12" lengthAdjust="spacing" textLength="80" x="405" y="676.0547">LayerLens API</text><text fill="#000000" font-family="Arial" font-size="12" lengthAdjust="spacing" textLength="27" x="431.5" y="689.8535">(API)</text></g><polygon fill="#000000" points="135.7334,503.6412,139.6529,494.6059,135.6888,498.6414,131.6532,494.6773,135.7334,503.6412" style="stroke:#000000;stroke-width:1.0;"/><path d="M135.2654,451.2199 C135.41,467.4213 135.535,481.4184 135.6798,497.6415 " fill="none" style="stroke:#000000;stroke-width:1.3;"/><text fill="#000000" font-family="sans-serif" font-size="13" lengthAdjust="spacing" textLength="55" x="137" y="482.5684">Manages</text><polygon fill="#000000" points="158.5588,389.8405,167.1301,384.9894,161.5349,385.8227,160.7016,380.2276,158.5588,389.8405" style="stroke:#000000;stroke-width:1.0;"/><path d="M191.0602,337.2611 C185.1679,348.3773 178.1128,360.9724 171,372 C167.1862,377.9129 166.4297,379.2147 162.1301,385.0192 " fill="none" style="stroke:#000000;stroke-width:1.3;"/><text fill="#000000" font-family="sans-serif" font-size="13" lengthAdjust="spacing" textLength="30" x="182" y="368.5684">Uses</text><polygon fill="#000000" points="84.7109,389.8673,80.9877,380.7493,81.1037,386.405,75.448,386.521,84.7109,389.8673" style="stroke:#000000;stroke-width:1.0;"/><path d="M65.0476,337.1031 C64.4798,348.5632 65.5824,361.4371 71,372 C74.41,378.6485 74.9003,380.4509 80.3822,385.7125 " fill="none" style="stroke:#000000;stroke-width:1.3;"/><text fill="#000000" font-family="sans-serif" font-size="13" lengthAdjust="spacing" textLength="98" x="72" y="368.5684">Provides stakes</text><polygon fill="#000000" points="157.7862,640.834,154.656,631.4959,154.4087,637.1473,148.7572,636.8999,157.7862,640.834" style="stroke:#000000;stroke-width:1.0;"/><path d="M130.7996,565.1543 C129.7311,578.0813 130.1464,593.1782 135,606 C139.8673,618.858 144.5448,626.3804 153.7332,636.4099 " fill="none" style="stroke:#000000;stroke-width:1.3;"/><text fill="#000000" font-family="sans-serif" font-size="13" lengthAdjust="spacing" textLength="89" x="136" y="602.5684">Registers with</text><polygon fill="#000000" points="135.4475,647.7878,129.1992,640.1748,130.9791,645.5443,125.6096,647.3242,135.4475,647.7878" style="stroke:#000000;stroke-width:1.0;"/><path d="M57.5114,337.1404 C37.0888,390.6992 3.5101,505.0766 53,581 C72.5914,611.0556 100.8287,630.4063 130.0854,645.0956 " fill="none" style="stroke:#000000;stroke-width:1.3;"/><text fill="#000000" font-family="sans-serif" font-size="13" lengthAdjust="spacing" textLength="92" x="29" y="482.5684">Verifies stakes</text><polygon fill="#000000" points="925.2853,275.7715,922.7555,266.2531,922.1491,271.8774,916.5248,271.271,925.2853,275.7715" style="stroke:#000000;stroke-width:1.0;"/><path d="M611.1592,177.6616 C682.1497,181.437 805.9433,195.8792 896,249 C907.2953,255.6626 913.5415,261.1896 921.5219,271.0985 " fill="none" style="stroke:#000000;stroke-width:1.3;"/><text fill="#000000" font-family="sans-serif" font-size="13" lengthAdjust="spacing" textLength="30" x="881" y="237.5684">Uses</text><polygon fill="#000000" points="541.9409,275.5958,547.0825,267.1955,542.5941,270.6386,539.151,266.1503,541.9409,275.5958" style="stroke:#000000;stroke-width:1.0;"/><path d="M551.0999,206.0952 C548.3551,226.9231 545.4785,248.7511 542.7248,269.6472 " fill="none" style="stroke:#000000;stroke-width:1.3;"/><text fill="#000000" font-family="sans-serif" font-size="13" lengthAdjust="spacing" textLength="65" x="550" y="237.5684">Signs with</text><polygon fill="#000000" points="405.7843,275.9317,412.0683,268.3481,407.1359,271.1179,404.3661,266.1855,405.7843,275.9317" style="stroke:#000000;stroke-width:1.0;"/><path d="M498.7544,204.5145 C490.8758,207.9518 482.8043,211.2248 475,214 C457.7343,220.1398 448.9556,212.1238 435,224 C419.52,237.1734 412.3203,252.6534 407.4062,270.1551 " fill="none" style="stroke:#000000;stroke-width:1.3;"/><text fill="#000000" font-family="sans-serif" font-size="13" lengthAdjust="spacing" textLength="106" x="436" y="237.5684">Gets config from</text><polygon fill="#000000" points="666.0045,275.6952,663.6205,266.1392,662.9282,271.7535,657.3139,271.0613,666.0045,275.6952" style="stroke:#000000;stroke-width:1.0;"/><path d="M598.8326,206.2528 C606.1499,211.8532 613.4749,217.8813 620,224 C636.8026,239.7561 649.7174,254.8266 662.313,270.9652 " fill="none" style="stroke:#000000;stroke-width:1.3;"/><text fill="#000000" font-family="sans-serif" font-size="13" lengthAdjust="spacing" textLength="87" x="638" y="237.5684">Executes with</text><polygon fill="#000000" points="527.274,144.6412,524.0811,135.3243,523.8717,140.9773,518.2188,140.7679,527.274,144.6412" style="stroke:#000000;stroke-width:1.0;"/><path d="M478.597,92.2199 C493.6412,108.4213 508.127,124.0214 523.1913,140.2445 " fill="none" style="stroke:#000000;stroke-width:1.3;"/><text fill="#000000" font-family="sans-serif" font-size="13" lengthAdjust="spacing" textLength="55" x="511" y="123.5684">Manages</text><polygon fill="#000000" points="401.2744,275.8115,405.7956,267.0617,401.5678,270.8201,397.8094,266.5923,401.2744,275.8115" style="stroke:#000000;stroke-width:1.0;"/><path d="M437.4342,92.0814 C430.8838,107.5442 423.4894,126.9615 419,145 C407.8525,189.791 403.5381,237.3004 401.6265,269.8218 " fill="none" style="stroke:#000000;stroke-width:1.3;"/><text fill="#000000" font-family="sans-serif" font-size="13" lengthAdjust="spacing" textLength="69" x="420" y="180.5684">Configures</text><polygon fill="#000000" points="572.1509,640.9847,575.7939,631.8343,571.9543,635.9886,567.8001,632.149,572.1509,640.9847" style="stroke:#000000;stroke-width:1.0;"/><path d="M664.0137,337.2435 C640.5885,368.1459 606.1743,418.9081 590,469 C571.0219,527.7752 570.3402,594.9794 571.915,634.9893 " fill="none" style="stroke:#000000;stroke-width:1.3;"/><text fill="#000000" font-family="sans-serif" font-size="13" lengthAdjust="spacing" textLength="76" x="591" y="482.5684">Connects to</text><polygon fill="#000000" points="671.6072,503.9773,674.3361,494.5141,670.922,499.0245,666.4116,495.6104,671.6072,503.9773" style="stroke:#000000;stroke-width:1.0;"/><path d="M723.4263,434.5489 C705.4741,441.6474 687.5625,452.4974 677,469 C670.4734,479.197 669.1654,486.3265 670.785,498.0339 " fill="none" style="stroke:#000000;stroke-width:1.3;"/><text fill="#000000" font-family="sans-serif" font-size="13" lengthAdjust="spacing" textLength="93" x="678" y="482.5684">Processes with</text><polygon fill="#000000" points="792.7966,389.6412,800.0185,382.9446,794.7662,385.0455,792.6653,379.7932,792.7966,389.6412" style="stroke:#000000;stroke-width:1.0;"/><path d="M815.2629,337.2199 C808.3194,353.4213 802.1129,367.9033 795.1601,384.1264 " fill="none" style="stroke:#000000;stroke-width:1.3;"/><text fill="#000000" font-family="sans-serif" font-size="13" lengthAdjust="spacing" textLength="102" x="808" y="368.5684">Collects metrics</text><polygon fill="#000000" points="468.9352,640.8825,478.0626,637.1823,472.4066,637.284,472.3049,631.628,468.9352,640.8825" style="stroke:#000000;stroke-width:1.0;"/><path d="M783.2314,451.0634 C785.3991,487.5814 782.7315,548.8106 746,581 C664.3615,652.5434 601.7613,566.8191 504,614 C490.8442,620.3492 482.8895,626.4173 473.1009,636.5643 " fill="none" style="stroke:#000000;stroke-width:1.3;"/><text fill="#000000" font-family="sans-serif" font-size="13" lengthAdjust="spacing" textLength="65" x="783" y="539.5684">Reports to</text><polygon fill="#000000" points="611.2055,157.558,620.9621,158.903,616.0091,156.1703,618.7418,151.2173,611.2055,157.558" style="stroke:#000000;stroke-width:1.0;"/><path d="M1011.6295,88.6233 C1007.7358,89.891 1003.8369,91.035 1000,92 C917.3103,112.7976 893.0168,95.4636 809,110 C740.0727,121.9257 668.0846,141.1267 616.9698,155.8928 " fill="none" style="stroke:#000000;stroke-width:1.3;"/><text fill="#000000" font-family="sans-serif" font-size="13" lengthAdjust="spacing" textLength="37" x="810" y="123.5684">Hosts</text><polygon fill="#000000" points="611.3413,168.5431,620.7198,171.5505,616.3123,168.0046,619.8582,163.597,611.3413,168.5431" style="stroke:#000000;stroke-width:1.0;"/><path d="M1146.4972,88.9608 C1143.3151,90.072 1140.1356,91.0964 1137,92 C1038.6936,120.3294 743.3371,154.2433 617.3064,167.8969 " fill="none" style="stroke:#000000;stroke-width:1.3;"/><text fill="#000000" font-family="sans-serif" font-size="13" lengthAdjust="spacing" textLength="56" x="1043" y="123.5684">Monitors</text><polygon fill="#000000" points="1106.9241,144.6412,1116.3641,141.833,1110.7245,141.392,1111.1654,135.7524,1106.9241,144.6412" style="stroke:#000000;stroke-width:1.0;"/><path d="M1168.2383,92.2199 C1149.2884,108.4213 1130.4597,124.5192 1111.4846,140.7422 " fill="none" style="stroke:#000000;stroke-width:1.3;"/><text fill="#000000" font-family="sans-serif" font-size="13" lengthAdjust="spacing" textLength="46" x="1146" y="123.5684">Checks</text><polygon fill="#000000" points="1201.5332,144.6412,1205.6932,135.7141,1201.6225,139.642,1197.6945,135.5712,1201.5332,144.6412" style="stroke:#000000;stroke-width:1.0;"/><path d="M1202.4693,92.2199 C1202.18,108.4213 1201.93,122.4191 1201.6403,138.6422 " fill="none" style="stroke:#000000;stroke-width:1.3;"/><text fill="#000000" font-family="sans-serif" font-size="13" lengthAdjust="spacing" textLength="48" x="1203" y="123.5684">Detects</text><polygon fill="#000000" points="218.4466,640.8467,227.7467,637.6051,222.0927,637.4253,222.2725,631.7713,218.4466,640.8467" style="stroke:#000000;stroke-width:1.0;"/><path d="M1164.653,206.1407 C1139.6747,230.0265 1111,266.0403 1111,305.5 C1111,305.5 1111,305.5 1111,535.5 C1111,633.1719 992.8463,568.3273 896,581 C755.2327,599.4199 389.8484,561.3625 258,614 C243.2912,619.8721 233.9205,626.3265 222.8219,636.7411 " fill="none" style="stroke:#000000;stroke-width:1.3;"/><text fill="#000000" font-family="sans-serif" font-size="13" lengthAdjust="spacing" textLength="65" x="1112" y="425.5684">Reports to</text><polygon fill="#000000" points="201.0176,275.6258,204.4526,266.3954,200.708,270.6354,196.468,266.8908,201.0176,275.6258" style="stroke:#000000;stroke-width:1.0;"/><path d="M499.2108,206.0437 C491.2614,209.2438 483.0487,212.0434 475,214 C447.0157,220.8027 237.1963,204.5036 216,224 C202.1505,236.7388 199.5531,252.0206 200.6461,269.6373 " fill="none" style="stroke:#000000;stroke-width:1.3;"/><text fill="#000000" font-family="sans-serif" font-size="13" lengthAdjust="spacing" textLength="86" x="217" y="237.5684">Interacts with</text><polygon fill="#000000" points="318.782,640.7821,321.8597,631.4265,318.2808,635.8073,313.9,632.2284,318.782,640.7821" style="stroke:#000000;stroke-width:1.0;"/><path d="M511.7926,206.049 C505.9902,209.1158 499.9749,211.8796 494,214 C426.626,237.9094 380.4642,192.2393 337,249 C290.2008,310.116 309.5538,549.1828 318.1806,634.8123 " fill="none" style="stroke:#000000;stroke-width:1.3;"/><text fill="#000000" font-family="sans-serif" font-size="13" lengthAdjust="spacing" textLength="122" x="309" y="425.5684">Retrieves data from</text><polygon fill="#000000" points="414.6012,640.9374,410.8742,631.8209,410.9925,637.4766,405.3369,637.5949,414.6012,640.9374" style="stroke:#000000;stroke-width:1.0;"/><path d="M213.0779,337.0992 C214.43,343.0175 215.7974,349.198 217,355 C229.0136,412.9593 211.8775,434.4686 241,486 C283.2938,560.8376 322.7221,555.8163 386,614 C395.3958,622.6394 401.1469,628.0344 410.2708,636.7844 " fill="none" style="stroke:#000000;stroke-width:1.3;"/><text fill="#000000" font-family="sans-serif" font-size="13" lengthAdjust="spacing" textLength="65" x="242" y="482.5684">Reports to</text><rect fill="none" height="195.3711" id="_legend" rx="4" ry="4" style="stroke:#CCCCCC;stroke-width:1.0;" width="311" x="936" y="724"/><text fill="#000000" font-family="sans-serif" font-size="14" font-weight="bold" lengthAdjust="spacing" textLength="123" x="946" y="744.5352">Component Type</text><text fill="#000000" font-family="sans-serif" font-size="14" font-weight="bold" lengthAdjust="spacing" textLength="83" x="1079" y="744.5352">Description</text><text fill="#000000" filter="url(#bue6i6re0dj1m0)" font-family="sans-serif" font-size="14" lengthAdjust="spacing" textLength="63" x="941" y="761.0234">Frontend</text><text fill="#000000" font-family="sans-serif" font-size="14" lengthAdjust="spacing" textLength="142" x="1078" y="761.0234">Web/UI Components</text><text fill="#000000" filter="url(#bue6i6re0dj1m1)" font-family="sans-serif" font-size="14" lengthAdjust="spacing" textLength="22" x="941" y="777.5117">API</text><text fill="#000000" font-family="sans-serif" font-size="14" lengthAdjust="spacing" textLength="116" x="1078" y="777.5117">Backend Services</text><text fill="#000000" filter="url(#bue6i6re0dj1m2)" font-family="sans-serif" font-size="14" lengthAdjust="spacing" textLength="33" x="941" y="794">Auth</text><text fill="#000000" font-family="sans-serif" font-size="14" lengthAdjust="spacing" textLength="160" x="1078" y="794">Authentication Services</text><text fill="#000000" filter="url(#bue6i6re0dj1m3)" font-family="sans-serif" font-size="14" lengthAdjust="spacing" textLength="63" x="941" y="810.4883">Database</text><text fill="#000000" font-family="sans-serif" font-size="14" lengthAdjust="spacing" textLength="88" x="1078" y="810.4883">Data Storage</text><text fill="#000000" filter="url(#bue6i6re0dj1m4)" font-family="sans-serif" font-size="14" lengthAdjust="spacing" textLength="57" x="941" y="826.9766">External</text><text fill="#000000" font-family="sans-serif" font-size="14" lengthAdjust="spacing" textLength="121" x="1078" y="826.9766">3rd Party Services</text><text fill="#000000" filter="url(#bue6i6re0dj1m5)" font-family="sans-serif" font-size="14" lengthAdjust="spacing" textLength="59" x="941" y="843.4648">Contract</text><text fill="#000000" font-family="sans-serif" font-size="14" lengthAdjust="spacing" textLength="110" x="1078" y="843.4648">Smart Contracts</text><text fill="#000000" filter="url(#bue6i6re0dj1m6)" font-family="sans-serif" font-size="14" lengthAdjust="spacing" textLength="45" x="941" y="859.9531">Queue</text><text fill="#000000" font-family="sans-serif" font-size="14" lengthAdjust="spacing" textLength="115" x="1078" y="859.9531">Message Queues</text><text fill="#000000" filter="url(#bue6i6re0dj1m7)" font-family="sans-serif" font-size="14" lengthAdjust="spacing" textLength="62" x="941" y="876.4414">Operator</text><text fill="#000000" font-family="sans-serif" font-size="14" lengthAdjust="spacing" textLength="109" x="1078" y="876.4414">Validator Nodes</text><text fill="#000000" filter="url(#bue6i6re0dj1m8)" font-family="sans-serif" font-size="14" lengthAdjust="spacing" textLength="64" x="941" y="892.9297">Evaluator</text><text fill="#000000" font-family="sans-serif" font-size="14" lengthAdjust="spacing" textLength="130" x="1078" y="892.9297">Evaluation Services</text><text fill="#000000" filter="url(#bue6i6re0dj1m9)" font-family="sans-serif" font-size="14" lengthAdjust="spacing" textLength="53" x="941" y="909.418">Storage</text><text fill="#000000" font-family="sans-serif" font-size="14" lengthAdjust="spacing" textLength="112" x="1078" y="909.418">Storage Services</text><line style="stroke:#000000;stroke-width:1.0;" x1="941" x2="1242" y1="731" y2="731"/><line style="stroke:#000000;stroke-width:1.0;" x1="941" x2="1242" y1="747.4883" y2="747.4883"/><line style="stroke:#000000;stroke-width:1.0;" x1="941" x2="1242" y1="763.9766" y2="763.9766"/><line style="stroke:#000000;stroke-width:1.0;" x1="941" x2="1242" y1="780.4648" y2="780.4648"/><line style="stroke:#000000;stroke-width:1.0;" x1="941" x2="1242" y1="796.9531" y2="796.9531"/><line style="stroke:#000000;stroke-width:1.0;" x1="941" x2="1242" y1="813.4414" y2="813.4414"/><line style="stroke:#000000;stroke-width:1.0;" x1="941" x2="1242" y1="829.9297" y2="829.9297"/><line style="stroke:#000000;stroke-width:1.0;" x1="941" x2="1242" y1="846.418" y2="846.418"/><line style="stroke:#000000;stroke-width:1.0;" x1="941" x2="1242" y1="862.9063" y2="862.9063"/><line style="stroke:#000000;stroke-width:1.0;" x1="941" x2="1242" y1="879.3945" y2="879.3945"/><line style="stroke:#000000;stroke-width:1.0;" x1="941" x2="1242" y1="895.8828" y2="895.8828"/><line style="stroke:#000000;stroke-width:1.0;" x1="941" x2="1242" y1="912.3711" y2="912.3711"/><line style="stroke:#000000;stroke-width:1.0;" x1="941" x2="941" y1="731" y2="912.3711"/><line style="stroke:#000000;stroke-width:1.0;" x1="1074" x2="1074" y1="731" y2="912.3711"/><line style="stroke:#000000;stroke-width:1.0;" x1="1242" x2="1242" y1="731" y2="912.3711"/><!--SRC=[jLXBSzis4BxpLw3f8Ut1YMN9Bush6OaY4y_OQHevwQ7jU60IaZ062GK0dQXr_diN3qe07vdH8Jp8CdRtsoS-0lff8_2gm8ZXBQyKaWLHkCHHz1BDoPAM16MLLBn06MTSIAGuAh3AraYIpnKfCu9oYbS25pAIZxJSOFWAkiM6bwHKLrUfuAKYPJwPeFyYX6OuUrm9NfLvhF7GpybbUfwaMi95JeHRFJcV9cV7kzMxDSqUIo8bEec-HTsEfk-lUttCqjDqrlGn75rUp6U7-QZKkiz9UfdCacdJIN8-YeVnGKxcME47B4cler4If-TDHnV9Q3IT7-Ge-Qg8A37hTPH0JYr7wI0U7QS7EOfX10JELA-ZwNmslsWwkXmD1oTd1pdweo9LVztYT1Yt9crsVdbwVDWK_BuX0Yik-XpDpv9fsahd9BauYmU7DUW9i-gxdaP9Ec-bDBWyIuU7ZS82dE1LV-bEawITqVdPQ7GnxVFp4iMMEAJQCbgkFCTJ8VWN1t9idgPmZpLuDVI4ELdYYgaxybLD6LsL1KIFClWWmjFwO4CN9H7embjNL36ImZ0kwBy43Rf542r13vpbdZIkAsMbWcJ0aIj6kehPBCRWrMcNsZwCapxnErmGA0V5pDDu3xs1JlK7ih4ApHx21YmbQ01sXtAmxypZAJ6o0W9l3uLvsde-LcmUlu6Et7uqpNtMJF032C4L3BrO55WeL3ERH3TuIyGBumYXl_JEdJx91H5FD2Ety49T4V5t-Sk2CvfJjVtr7uGbl4AD-BwmSkGpPO1pX-LZ7uW2sNSGPan-82igbTZ673AYfIQK5ie3a_V2wNMWB1H-93LEEmyjxJ7tQrOJPwDOksLNBi1_moqotzox8Y6VTnjsySrrQ9CnYjo9mAhg0Y8p39wYgPmP5BIR55UqcmLQ0Bq0RQ5RdbVCDzEbaY0qvMx619alAHZjcbLRPKPmNwmwhCp7haflEDeHVrqZWmsH48PYHZNffL1URdfHUoYq-7vfrr7mzjXZV20I24OIjCYu20AKPk4xTi2xwBtW6Um5xXjkwhK-srkY1CqaR1R6IAO2uyB9sgRVWj6vBfS2mtHLcQe4QGpGd6UF4BgUEWmdLerlbwoFt8hz0q_a2bfISAYxF0NgKa4nZIYSehS4CxL6yPfeG4zxRGM1ye9XkTRGSwAQMSjQLblugTPHrjj1xbc5GfGcTSXLw9bCr9e8KXKMbcWvC_9siffl9L78tyL35yuGUKS0gtvpSuiWDjtn9meyA44V_hS6Z1KT7anaDwIKsj1NnnlgP_foHvk8wZStVA4mar6J3e-E9Y4lZTs-ab50UbglQJj67oNeDPYfMzEbw7XCHe5FRUBLTUpg1mL1NwXQTta8r3yHGPTq3mxPxtXhzxQNaKTq6iAZ9fT9Gy4ZeR6XAXTEGyrZdJ5wGrJDGsWfUD5K3WbaZ9Al9AiKsIDhMjMAdjs-9Puyy6eP4JQjZ487MbCFab4fYNw9AXxjsSGqovBIk2QUEfYQDhJEtc9SKyoELnfmUX1r1pTSM6_GZP1P8aSMhJJVSgbq1fOMsbMmWb33qSBOCaOesr70s14436kzr35pViGxWiXitSpcwHgW_OXVkttMFIMm_xKFg1XvWWhhCveTaDOswohWDC_jZmD76Szr-FOS6Da_ID3LMW51FF-sFqQZk-s6w9KvaPcW6vq2UjPALmz0WsFtgy3aok2E7nWiJkfV4gvUczN9rMkjEtb6VvA7rn-lz-WoX3AN_n0AgAY5ee-7EjwQTGCGUxblW5HgtKBHYn02pR39gHlCd6n3iFeqt0BK0kIuEKGnj_CGfPwC5ifGv71p46hR4v6vW8TODKUti9edtm387Ab387EoQg7SmgxKAHbf26Blpo58pPajd4yOJgA6JT_nl0bahiUD4jN7Z1QIa_ItpLo2GpJNc7QDNCCy89Wjjp7-1m00]--></g></svg>