<?xml version="1.0" encoding="us-ascii" standalone="no"?><svg xmlns="http://www.w3.org/2000/svg" xmlns:xlink="http://www.w3.org/1999/xlink" contentStyleType="text/css" height="998px" preserveAspectRatio="none" style="width:1278px;height:998px;background:#FFFFFF;" version="1.1" viewBox="0 0 1278 998" width="1278px" zoomAndPan="magnify"><defs><filter height="1" id="b71b5qolym2550" width="1" x="0" y="0"><feFlood flood-color="#FFFFFF" result="flood"/><feComposite in="SourceGraphic" in2="flood" operator="over"/></filter></defs><g><text fill="#000000" font-family="sans-serif" font-size="18" font-weight="bold" lengthAdjust="spacing" textLength="261" x="501" y="27.4023">Evaluation AVS Architecture</text><!--cluster Smart Contracts Layer--><g id="cluster_Smart Contracts Layer"><rect fill="none" height="324" rx="4" ry="4" style="stroke:#999999;stroke-width:1.0;" width="270" x="14" y="291.1992"/><text fill="#000000" font-family="sans-serif" font-size="14" font-weight="bold" lengthAdjust="spacing" textLength="159" x="69.5" y="306.7344">Smart Contracts Layer</text></g><!--cluster Operator Layer--><g id="cluster_Operator Layer"><rect fill="none" height="577" rx="4" ry="4" style="stroke:#999999;stroke-width:1.0;" width="658" x="342" y="46.1992"/><text fill="#000000" font-family="sans-serif" font-size="14" font-weight="bold" lengthAdjust="spacing" textLength="107" x="617.5" y="61.7344">Operator Layer</text></g><!--cluster Go Evaluator--><g id="cluster_Go Evaluator"><rect fill="none" height="324" rx="4" ry="4" style="stroke:#999999;stroke-width:1.0;" width="278" x="618" y="291.1992"/><text fill="#000000" font-family="sans-serif" font-size="14" font-weight="bold" lengthAdjust="spacing" textLength="91" x="711.5" y="306.7344">Go Evaluator</text></g><!--cluster Infrastructure Layer--><g id="cluster_Infrastructure Layer"><rect fill="none" height="210" rx="4" ry="4" style="stroke:#999999;stroke-width:1.0;" width="264" x="1008" y="46.1992"/><text fill="#000000" font-family="sans-serif" font-size="14" font-weight="bold" lengthAdjust="spacing" textLength="142" x="1069" y="61.7344">Infrastructure Layer</text></g><!--cluster External Services--><g id="cluster_External Services"><rect fill="none" height="113" rx="4" ry="4" style="stroke:#999999;stroke-width:1.0;" width="536" x="116" y="656.1992"/><text fill="#000000" font-family="sans-serif" font-size="14" font-weight="bold" lengthAdjust="spacing" textLength="121" x="323.5" y="671.7344">External Services</text></g><!--entity service_manager--><g id="elem_service_manager"><rect fill="#FADBD8" height="61.3965" rx="4" ry="4" style="stroke:#943126;stroke-width:2.0;" width="154" x="58" y="432.1992"/><text fill="#000000" font-family="Arial" font-size="12" font-style="italic" lengthAdjust="spacing" textLength="60" x="105" y="453.4551">&#171;Contract&#187;</text><text fill="#000000" font-family="Arial" font-size="12" lengthAdjust="spacing" textLength="134" x="68" y="467.2539">EvalAvsServiceManager</text><text fill="#000000" font-family="Arial" font-size="12" lengthAdjust="spacing" textLength="48" x="111" y="481.0527">(Solidity)</text></g><!--entity task_manager--><g id="elem_task_manager"><rect fill="#FADBD8" height="61.3965" rx="4" ry="4" style="stroke:#943126;stroke-width:2.0;" width="139" x="136.5" y="318.1992"/><text fill="#000000" font-family="Arial" font-size="12" font-style="italic" lengthAdjust="spacing" textLength="60" x="176" y="339.4551">&#171;Contract&#187;</text><text fill="#000000" font-family="Arial" font-size="12" lengthAdjust="spacing" textLength="119" x="146.5" y="353.2539">EvalAvsTaskManager</text><text fill="#000000" font-family="Arial" font-size="12" lengthAdjust="spacing" textLength="48" x="182" y="367.0527">(Solidity)</text></g><!--entity bls_registry--><g id="elem_bls_registry"><rect fill="#FADBD8" height="61.3965" rx="4" ry="4" style="stroke:#943126;stroke-width:2.0;" width="147" x="62.5" y="546.1992"/><text fill="#000000" font-family="Arial" font-size="12" font-style="italic" lengthAdjust="spacing" textLength="60" x="106" y="567.4551">&#171;Contract&#187;</text><text fill="#000000" font-family="Arial" font-size="12" lengthAdjust="spacing" textLength="127" x="72.5" y="581.2539">BlsRegistryCoordinator</text><text fill="#000000" font-family="Arial" font-size="12" lengthAdjust="spacing" textLength="48" x="112" y="595.0527">(Solidity)</text></g><!--entity stake_registry--><g id="elem_stake_registry"><rect fill="#FADBD8" height="61.3965" rx="4" ry="4" style="stroke:#943126;stroke-width:2.0;" width="96" x="22" y="318.1992"/><text fill="#000000" font-family="Arial" font-size="12" font-style="italic" lengthAdjust="spacing" textLength="60" x="40" y="339.4551">&#171;Contract&#187;</text><text fill="#000000" font-family="Arial" font-size="12" lengthAdjust="spacing" textLength="76" x="32" y="353.2539">StakeRegistry</text><text fill="#000000" font-family="Arial" font-size="12" lengthAdjust="spacing" textLength="48" x="46" y="367.0527">(Solidity)</text></g><!--entity op_service--><g id="elem_op_service"><rect fill="#D6EAF8" height="61.3965" rx="4" ry="4" style="stroke:#2E86C1;stroke-width:2.0;" width="112" x="503" y="187.1992"/><text fill="#000000" font-family="Arial" font-size="12" font-style="italic" lengthAdjust="spacing" textLength="62" x="528" y="208.4551">&#171;Operator&#187;</text><text fill="#000000" font-family="Arial" font-size="12" lengthAdjust="spacing" textLength="92" x="513" y="222.2539">Operator Service</text><text fill="#000000" font-family="Arial" font-size="12" lengthAdjust="spacing" textLength="24" x="547" y="236.0527">(Go)</text></g><!--entity op_cli--><g id="elem_op_cli"><rect fill="#EBF5FB" height="61.3965" rx="4" ry="4" style="stroke:#3498DB;stroke-width:2.0;" width="90" x="410" y="73.1992"/><text fill="#000000" font-family="Arial" font-size="12" font-style="italic" lengthAdjust="spacing" textLength="33" x="438.5" y="94.4551">&#171;API&#187;</text><text fill="#000000" font-family="Arial" font-size="12" lengthAdjust="spacing" textLength="70" x="420" y="108.2539">Operator CLI</text><text fill="#000000" font-family="Arial" font-size="12" lengthAdjust="spacing" textLength="24" x="443" y="122.0527">(Go)</text></g><!--entity task_queue--><g id="elem_task_queue"><rect fill="#FCF3CF" height="61.3965" rx="4" ry="4" style="stroke:#B7950B;stroke-width:2.0;" width="86" x="906" y="318.1992"/><text fill="#000000" font-family="Arial" font-size="12" font-style="italic" lengthAdjust="spacing" textLength="51" x="923.5" y="339.4551">&#171;Queue&#187;</text><text fill="#000000" font-family="Arial" font-size="12" lengthAdjust="spacing" textLength="66" x="916" y="353.2539">Task Queue</text><text fill="#000000" font-family="Arial" font-size="12" lengthAdjust="spacing" textLength="24" x="937" y="367.0527">(Go)</text></g><!--entity bls_signer--><g id="elem_bls_signer"><rect fill="#D6EAF8" height="61.3965" rx="4" ry="4" style="stroke:#2E86C1;stroke-width:2.0;" width="132" x="476" y="318.1992"/><text fill="#000000" font-family="Arial" font-size="12" font-style="italic" lengthAdjust="spacing" textLength="62" x="511" y="339.4551">&#171;Operator&#187;</text><text fill="#000000" font-family="Arial" font-size="12" lengthAdjust="spacing" textLength="112" x="486" y="353.2539">BLS Signing Module</text><text fill="#000000" font-family="Arial" font-size="12" lengthAdjust="spacing" textLength="24" x="530" y="367.0527">(Go)</text></g><!--entity config_mgr--><g id="elem_config_mgr"><rect fill="#D6EAF8" height="61.3965" rx="4" ry="4" style="stroke:#2E86C1;stroke-width:2.0;" width="108" x="350" y="318.1992"/><text fill="#000000" font-family="Arial" font-size="12" font-style="italic" lengthAdjust="spacing" textLength="62" x="373" y="339.4551">&#171;Operator&#187;</text><text fill="#000000" font-family="Arial" font-size="12" lengthAdjust="spacing" textLength="88" x="360" y="353.2539">Config Manager</text><text fill="#000000" font-family="Arial" font-size="12" lengthAdjust="spacing" textLength="24" x="392" y="367.0527">(Go)</text></g><!--entity model_factory--><g id="elem_model_factory"><rect fill="#D4EFDF" height="61.3965" rx="4" ry="4" style="stroke:#196F3D;stroke-width:2.0;" width="132" x="626" y="318.1992"/><text fill="#000000" font-family="Arial" font-size="12" font-style="italic" lengthAdjust="spacing" textLength="66" x="659" y="339.4551">&#171;Evaluator&#187;</text><text fill="#000000" font-family="Arial" font-size="12" lengthAdjust="spacing" textLength="112" x="636" y="353.2539">Model Client Factory</text><text fill="#000000" font-family="Arial" font-size="12" lengthAdjust="spacing" textLength="24" x="680" y="367.0527">(Go)</text></g><!--entity scorer--><g id="elem_scorer"><rect fill="#D4EFDF" height="61.3965" rx="4" ry="4" style="stroke:#196F3D;stroke-width:2.0;" width="115" x="626.5" y="546.1992"/><text fill="#000000" font-family="Arial" font-size="12" font-style="italic" lengthAdjust="spacing" textLength="66" x="651" y="567.4551">&#171;Evaluator&#187;</text><text fill="#000000" font-family="Arial" font-size="12" lengthAdjust="spacing" textLength="95" x="636.5" y="581.2539">Response Scorer</text><text fill="#000000" font-family="Arial" font-size="12" lengthAdjust="spacing" textLength="24" x="672" y="595.0527">(Go)</text></g><!--entity processor--><g id="elem_processor"><rect fill="#D4EFDF" height="61.3965" rx="4" ry="4" style="stroke:#196F3D;stroke-width:2.0;" width="113" x="727.5" y="432.1992"/><text fill="#000000" font-family="Arial" font-size="12" font-style="italic" lengthAdjust="spacing" textLength="66" x="751" y="453.4551">&#171;Evaluator&#187;</text><text fill="#000000" font-family="Arial" font-size="12" lengthAdjust="spacing" textLength="93" x="737.5" y="467.2539">Result Processor</text><text fill="#000000" font-family="Arial" font-size="12" lengthAdjust="spacing" textLength="24" x="772" y="481.0527">(Go)</text></g><!--entity metrics--><g id="elem_metrics"><rect fill="#D4EFDF" height="61.3965" rx="4" ry="4" style="stroke:#196F3D;stroke-width:2.0;" width="111" x="776.5" y="318.1992"/><text fill="#000000" font-family="Arial" font-size="12" font-style="italic" lengthAdjust="spacing" textLength="66" x="799" y="339.4551">&#171;Evaluator&#187;</text><text fill="#000000" font-family="Arial" font-size="12" lengthAdjust="spacing" textLength="91" x="786.5" y="353.2539">Metrics Collector</text><text fill="#000000" font-family="Arial" font-size="12" lengthAdjust="spacing" textLength="24" x="820" y="367.0527">(Go)</text></g><!--entity docker--><g id="elem_docker"><rect fill="#FEF9E7" height="61.3965" rx="4" ry="4" style="stroke:#F1C40F;stroke-width:2.0;" width="116" x="1016" y="73.1992"/><text fill="#000000" font-family="Arial" font-size="12" font-style="italic" lengthAdjust="spacing" textLength="59" x="1044.5" y="94.4551">&#171;External&#187;</text><text fill="#000000" font-family="Arial" font-size="12" lengthAdjust="spacing" textLength="96" x="1026" y="108.2539">Docker Container</text><text fill="#000000" font-family="Arial" font-size="12" lengthAdjust="spacing" textLength="47" x="1050.5" y="122.0527">(Docker)</text></g><!--entity monitor--><g id="elem_monitor"><rect fill="#EBF5FB" height="61.3965" rx="4" ry="4" style="stroke:#3498DB;stroke-width:2.0;" width="113" x="1150.5" y="73.1992"/><text fill="#000000" font-family="Arial" font-size="12" font-style="italic" lengthAdjust="spacing" textLength="33" x="1190.5" y="94.4551">&#171;API&#187;</text><text fill="#000000" font-family="Arial" font-size="12" lengthAdjust="spacing" textLength="93" x="1160.5" y="108.2539">Monitoring Agent</text><text fill="#000000" font-family="Arial" font-size="12" lengthAdjust="spacing" textLength="24" x="1195" y="122.0527">(Go)</text></g><!--entity health--><g id="elem_health"><rect fill="#EBF5FB" height="61.3965" rx="4" ry="4" style="stroke:#3498DB;stroke-width:2.0;" width="105" x="1023.5" y="187.1992"/><text fill="#000000" font-family="Arial" font-size="12" font-style="italic" lengthAdjust="spacing" textLength="33" x="1059.5" y="208.4551">&#171;API&#187;</text><text fill="#000000" font-family="Arial" font-size="12" lengthAdjust="spacing" textLength="85" x="1033.5" y="222.2539">Health Checker</text><text fill="#000000" font-family="Arial" font-size="12" lengthAdjust="spacing" textLength="24" x="1064" y="236.0527">(Go)</text></g><!--entity slashing--><g id="elem_slashing"><rect fill="#EBF5FB" height="61.3965" rx="4" ry="4" style="stroke:#3498DB;stroke-width:2.0;" width="117" x="1146.5" y="187.1992"/><text fill="#000000" font-family="Arial" font-size="12" font-style="italic" lengthAdjust="spacing" textLength="33" x="1188.5" y="208.4551">&#171;API&#187;</text><text fill="#000000" font-family="Arial" font-size="12" lengthAdjust="spacing" textLength="97" x="1156.5" y="222.2539">Slashing Detector</text><text fill="#000000" font-family="Arial" font-size="12" lengthAdjust="spacing" textLength="24" x="1193" y="236.0527">(Go)</text></g><!--entity eigenlayer--><g id="elem_eigenlayer"><rect fill="#FEF9E7" height="61.3965" rx="4" ry="4" style="stroke:#F1C40F;stroke-width:2.0;" width="113" x="124.5" y="691.6992"/><text fill="#000000" font-family="Arial" font-size="12" font-style="italic" lengthAdjust="spacing" textLength="59" x="151.5" y="712.9551">&#171;External&#187;</text><text fill="#000000" font-family="Arial" font-size="12" lengthAdjust="spacing" textLength="93" x="134.5" y="726.7539">EigenLayer Core</text><text fill="#000000" font-family="Arial" font-size="12" lengthAdjust="spacing" textLength="61" x="150.5" y="740.5527">(Ethereum)</text></g><!--entity s3--><g id="elem_s3"><path d="M256,693.1992 C256,683.1992 321,683.1992 321,683.1992 C321,683.1992 386,683.1992 386,693.1992 L386,751.6641 C386,761.6641 321,761.6641 321,761.6641 C321,761.6641 256,761.6641 256,751.6641 L256,693.1992 " fill="#FFFFFF" style="stroke:#FFFFFF;stroke-width:0.5;"/><path d="M256,693.1992 C256,703.1992 321,703.1992 321,703.1992 C321,703.1992 386,703.1992 386,693.1992 " fill="none" style="stroke:#FFFFFF;stroke-width:0.5;"/><text fill="#000000" font-family="sans-serif" font-size="14" font-style="italic" lengthAdjust="spacing" textLength="67" x="287.5" y="720.7344">&#171;Storage&#187;</text><text fill="#000000" font-family="sans-serif" font-size="14" lengthAdjust="spacing" textLength="110" x="266" y="737.2227">Dataset Registry</text><text fill="#000000" font-family="sans-serif" font-size="14" lengthAdjust="spacing" textLength="27" x="307.5" y="753.7109">(S3)</text></g><!--entity llm--><g id="elem_llm"><rect fill="#FEF9E7" height="61.3965" rx="4" ry="4" style="stroke:#F1C40F;stroke-width:2.0;" width="121" x="522.5" y="691.6992"/><text fill="#000000" font-family="Arial" font-size="12" font-style="italic" lengthAdjust="spacing" textLength="59" x="553.5" y="712.9551">&#171;External&#187;</text><text fill="#000000" font-family="Arial" font-size="12" lengthAdjust="spacing" textLength="101" x="532.5" y="726.7539">LLM API Providers</text><text fill="#000000" font-family="Arial" font-size="12" lengthAdjust="spacing" textLength="27" x="569.5" y="740.5527">(API)</text></g><!--entity api--><g id="elem_api"><rect fill="#EBF5FB" height="61.3965" rx="4" ry="4" style="stroke:#3498DB;stroke-width:2.0;" width="100" x="404" y="691.6992"/><text fill="#000000" font-family="Arial" font-size="12" font-style="italic" lengthAdjust="spacing" textLength="33" x="437.5" y="712.9551">&#171;API&#187;</text><text fill="#000000" font-family="Arial" font-size="12" lengthAdjust="spacing" textLength="80" x="414" y="726.7539">LayerLens API</text><text fill="#000000" font-family="Arial" font-size="12" lengthAdjust="spacing" textLength="27" x="440.5" y="740.5527">(API)</text></g><polygon fill="#000000" points="135.7334,545.8404,139.6529,536.8051,135.6888,540.8406,131.6532,536.8765,135.7334,545.8404" style="stroke:#000000;stroke-width:1.0;"/><path d="M135.2654,493.4191 C135.41,509.6206 135.535,523.6176 135.6798,539.8407 " fill="none" style="stroke:#000000;stroke-width:1.3;"/><text fill="#000000" font-family="sans-serif" font-size="13" lengthAdjust="spacing" textLength="55" x="137" y="524.7676">Manages</text><polygon fill="#000000" points="158.5588,432.0397,167.1301,427.1886,161.5349,428.0219,160.7016,422.4268,158.5588,432.0397" style="stroke:#000000;stroke-width:1.0;"/><path d="M191.0602,379.4603 C185.1679,390.5765 178.1128,403.1716 171,414.1992 C167.1862,420.1121 166.4297,421.4139 162.1301,427.2184 " fill="none" style="stroke:#000000;stroke-width:1.3;"/><text fill="#000000" font-family="sans-serif" font-size="13" lengthAdjust="spacing" textLength="30" x="182" y="410.7676">Uses</text><polygon fill="#000000" points="84.7109,432.0665,80.9877,422.9485,81.1037,428.6042,75.448,428.7202,84.7109,432.0665" style="stroke:#000000;stroke-width:1.0;"/><path d="M65.0476,379.3023 C64.4798,390.7624 65.5824,403.6363 71,414.1992 C74.41,420.8477 74.9003,422.6501 80.3822,427.9117 " fill="none" style="stroke:#000000;stroke-width:1.3;"/><text fill="#000000" font-family="sans-serif" font-size="13" lengthAdjust="spacing" textLength="98" x="72" y="410.7676">Provides stakes</text><polygon fill="#000000" points="156.9102,691.4473,155.0785,681.7703,154.0652,687.3357,148.4998,686.3223,156.9102,691.4473" style="stroke:#000000;stroke-width:1.0;"/><path d="M131.7727,607.3667 C130.9175,620.1574 131.2302,635.1454 135,648.1992 C139.4472,663.5985 144.7989,673.9438 153.4962,686.5133 " fill="none" style="stroke:#000000;stroke-width:1.3;"/><text fill="#000000" font-family="sans-serif" font-size="13" lengthAdjust="spacing" textLength="89" x="136" y="644.7676">Registers with</text><polygon fill="#000000" points="124.8991,691.6273,119.4701,683.4099,120.6862,688.9345,115.1616,690.1505,124.8991,691.6273" style="stroke:#000000;stroke-width:1.0;"/><path d="M57.9726,379.3748 C38.5221,432.4958 6.7606,545.5302 53,623.1992 C70.0372,651.8168 93.8378,671.7734 119.8436,688.3959 " fill="none" style="stroke:#000000;stroke-width:1.3;"/><text fill="#000000" font-family="sans-serif" font-size="13" lengthAdjust="spacing" textLength="92" x="31" y="524.7676">Verifies stakes</text><polygon fill="#000000" points="929.2853,317.9707,926.7555,308.4523,926.1491,314.0766,920.5248,313.4702,929.2853,317.9707" style="stroke:#000000;stroke-width:1.0;"/><path d="M615.1592,219.8608 C686.1497,223.6363 809.9433,238.0784 900,291.1992 C911.2953,297.8618 917.5415,303.3888 925.5219,313.2978 " fill="none" style="stroke:#000000;stroke-width:1.3;"/><text fill="#000000" font-family="sans-serif" font-size="13" lengthAdjust="spacing" textLength="30" x="885" y="279.7676">Uses</text><polygon fill="#000000" points="545.9409,317.795,551.0825,309.3948,546.5941,312.8379,543.151,308.3495,545.9409,317.795" style="stroke:#000000;stroke-width:1.0;"/><path d="M555.0999,248.2944 C552.3551,269.1223 549.4785,290.9503 546.7248,311.8464 " fill="none" style="stroke:#000000;stroke-width:1.3;"/><text fill="#000000" font-family="sans-serif" font-size="13" lengthAdjust="spacing" textLength="65" x="554" y="279.7676">Signs with</text><polygon fill="#000000" points="409.7843,318.1309,416.0683,310.5473,411.1359,313.3171,408.3661,308.3847,409.7843,318.1309" style="stroke:#000000;stroke-width:1.0;"/><path d="M502.7544,246.7137 C494.8758,250.151 486.8043,253.424 479,256.1992 C461.7343,262.339 452.9556,254.3231 439,266.1992 C423.52,279.3726 416.3203,294.8526 411.4062,312.3543 " fill="none" style="stroke:#000000;stroke-width:1.3;"/><text fill="#000000" font-family="sans-serif" font-size="13" lengthAdjust="spacing" textLength="106" x="440" y="279.7676">Gets config from</text><polygon fill="#000000" points="670.0045,317.8944,667.6205,308.3384,666.9282,313.9528,661.3139,313.2605,670.0045,317.8944" style="stroke:#000000;stroke-width:1.0;"/><path d="M602.8326,248.452 C610.1499,254.0524 617.4749,260.0805 624,266.1992 C640.8026,281.9554 653.7174,297.0258 666.313,313.1644 " fill="none" style="stroke:#000000;stroke-width:1.3;"/><text fill="#000000" font-family="sans-serif" font-size="13" lengthAdjust="spacing" textLength="87" x="642" y="279.7676">Executes with</text><polygon fill="#000000" points="531.274,186.8404,528.0811,177.5235,527.8717,183.1765,522.2188,182.9671,531.274,186.8404" style="stroke:#000000;stroke-width:1.0;"/><path d="M482.597,134.4191 C497.6412,150.6206 512.127,166.2206 527.1913,182.4437 " fill="none" style="stroke:#000000;stroke-width:1.3;"/><text fill="#000000" font-family="sans-serif" font-size="13" lengthAdjust="spacing" textLength="55" x="515" y="165.7676">Manages</text><polygon fill="#000000" points="405.2744,318.0107,409.7956,309.2609,405.5678,313.0193,401.8094,308.7915,405.2744,318.0107" style="stroke:#000000;stroke-width:1.0;"/><path d="M441.4342,134.2806 C434.8838,149.7434 427.4894,169.1607 423,187.1992 C411.8525,231.9902 407.5381,279.4996 405.6265,312.021 " fill="none" style="stroke:#000000;stroke-width:1.3;"/><text fill="#000000" font-family="sans-serif" font-size="13" lengthAdjust="spacing" textLength="69" x="424" y="222.7676">Configures</text><polygon fill="#000000" points="580.7502,691.5539,584.2662,682.354,580.4845,686.5609,576.2775,682.7792,580.7502,691.5539" style="stroke:#000000;stroke-width:1.0;"/><path d="M668.8386,379.2378 C646.0299,410.1784 612.4344,461.1528 597,511.1992 C577.8863,573.176 578.2286,644.1738 580.4313,685.5623 " fill="none" style="stroke:#000000;stroke-width:1.3;"/><text fill="#000000" font-family="sans-serif" font-size="13" lengthAdjust="spacing" textLength="76" x="598" y="524.7676">Connects to</text><polygon fill="#000000" points="678.0771,546.1659,681.4577,536.9154,677.7381,541.1774,673.4762,537.4578,678.0771,546.1659" style="stroke:#000000;stroke-width:1.0;"/><path d="M727.3682,478.3325 C710.9157,485.4735 694.7648,495.947 685,511.1992 C678.4784,521.3856 676.8747,528.4707 677.6703,540.1797 " fill="none" style="stroke:#000000;stroke-width:1.3;"/><text fill="#000000" font-family="sans-serif" font-size="13" lengthAdjust="spacing" textLength="93" x="686" y="524.7676">Processes with</text><polygon fill="#000000" points="796.7966,431.8404,804.0185,425.1438,798.7662,427.2447,796.6653,421.9925,796.7966,431.8404" style="stroke:#000000;stroke-width:1.0;"/><path d="M819.2629,379.4191 C812.3194,395.6206 806.1129,410.1025 799.1601,426.3256 " fill="none" style="stroke:#000000;stroke-width:1.3;"/><text fill="#000000" font-family="sans-serif" font-size="13" lengthAdjust="spacing" textLength="102" x="812" y="410.7676">Collects metrics</text><polygon fill="#000000" points="473.6117,691.5518,482.3138,686.9395,476.6977,687.6178,476.0194,682.0018,473.6117,691.5518" style="stroke:#000000;stroke-width:1.0;"/><path d="M787.414,493.4748 C789.7722,530.2142 787.3035,591.6745 750,623.1992 C668.7715,691.8443 607.0327,606.5195 513,656.1992 C497.3688,664.4576 487.4926,673.857 477.3149,686.831 " fill="none" style="stroke:#000000;stroke-width:1.3;"/><text fill="#000000" font-family="sans-serif" font-size="13" lengthAdjust="spacing" textLength="65" x="787" y="581.7676">Reports to</text><polygon fill="#000000" points="615.2055,199.7572,624.9621,201.1023,620.0091,198.3695,622.7418,193.4165,615.2055,199.7572" style="stroke:#000000;stroke-width:1.0;"/><path d="M1015.6295,130.8225 C1011.7358,132.0902 1007.8369,133.2342 1004,134.1992 C921.3103,154.9968 897.0168,137.6628 813,152.1992 C744.0727,164.1249 672.0846,183.326 620.9698,198.092 " fill="none" style="stroke:#000000;stroke-width:1.3;"/><text fill="#000000" font-family="sans-serif" font-size="13" lengthAdjust="spacing" textLength="37" x="814" y="165.7676">Hosts</text><polygon fill="#000000" points="615.3413,210.7423,624.7198,213.7497,620.3123,210.2038,623.8582,205.7962,615.3413,210.7423" style="stroke:#000000;stroke-width:1.0;"/><path d="M1150.4972,131.16 C1147.3151,132.2713 1144.1356,133.2956 1141,134.1992 C1042.6936,162.5286 747.3371,196.4425 621.3064,210.0961 " fill="none" style="stroke:#000000;stroke-width:1.3;"/><text fill="#000000" font-family="sans-serif" font-size="13" lengthAdjust="spacing" textLength="56" x="1047" y="165.7676">Monitors</text><polygon fill="#000000" points="1110.9241,186.8404,1120.3641,184.0322,1114.7245,183.5913,1115.1654,177.9516,1110.9241,186.8404" style="stroke:#000000;stroke-width:1.0;"/><path d="M1172.2383,134.4191 C1153.2884,150.6206 1134.4597,166.7184 1115.4846,182.9414 " fill="none" style="stroke:#000000;stroke-width:1.3;"/><text fill="#000000" font-family="sans-serif" font-size="13" lengthAdjust="spacing" textLength="46" x="1150" y="165.7676">Checks</text><polygon fill="#000000" points="1205.5332,186.8404,1209.6932,177.9133,1205.6225,181.8412,1201.6945,177.7705,1205.5332,186.8404" style="stroke:#000000;stroke-width:1.0;"/><path d="M1206.4693,134.4191 C1206.18,150.6206 1205.93,164.6183 1205.6403,180.8414 " fill="none" style="stroke:#000000;stroke-width:1.3;"/><text fill="#000000" font-family="sans-serif" font-size="13" lengthAdjust="spacing" textLength="48" x="1207" y="165.7676">Detects</text><polygon fill="#000000" points="202.7143,691.5554,211.6305,687.3719,205.9881,687.7762,205.5838,682.1338,202.7143,691.5554" style="stroke:#000000;stroke-width:1.0;"/><path d="M1168.653,248.34 C1143.6747,272.2258 1115,308.2395 1115,347.6992 C1115,347.6992 1115,347.6992 1115,577.6992 C1115,675.3711 996.8538,610.5839 900,623.1992 C755.9207,641.9657 380.014,597.7331 247,656.1992 C229.6271,663.8354 218.1759,673.7071 206.6429,687.0204 " fill="none" style="stroke:#000000;stroke-width:1.3;"/><text fill="#000000" font-family="sans-serif" font-size="13" lengthAdjust="spacing" textLength="65" x="1116" y="467.7676">Reports to</text><polygon fill="#000000" points="202.6452,318.0516,206.532,309.0021,202.5825,313.052,198.5326,309.1025,202.6452,318.0516" style="stroke:#000000;stroke-width:1.0;"/><path d="M503.2108,248.2429 C495.2614,251.443 487.0487,254.2427 479,256.1992 C451.0157,263.0019 241.6584,247.2174 220,266.1992 C205.6403,278.7844 202.3472,294.2911 202.5699,312.052 " fill="none" style="stroke:#000000;stroke-width:1.3;"/><text fill="#000000" font-family="sans-serif" font-size="13" lengthAdjust="spacing" textLength="86" x="221" y="279.7676">Interacts with</text><polygon fill="#000000" points="321.4096,683.131,325.4954,674.1696,321.4574,678.1312,317.4957,674.0932,321.4096,683.131" style="stroke:#000000;stroke-width:1.0;"/><path d="M515.7926,248.2483 C509.9902,251.315 503.9749,254.0789 498,256.1992 C430.626,280.1087 392.1804,241.2845 341,291.1992 C322.0336,309.6966 322,321.2063 322,347.6992 C322,347.6992 322,347.6992 322,577.6992 C322,613.4505 321.7431,648.2111 321.4669,677.1313 " fill="none" style="stroke:#000000;stroke-width:1.3;"/><text fill="#000000" font-family="sans-serif" font-size="13" lengthAdjust="spacing" textLength="122" x="323" y="467.7676">Retrieves data from</text><polygon fill="#000000" points="428.6993,691.5839,425.7058,682.2009,425.3759,687.8482,419.7287,687.5183,428.6993,691.5839" style="stroke:#000000;stroke-width:1.0;"/><path d="M213.0779,379.2985 C214.43,385.2167 215.7974,391.3972 217,397.1992 C229.0136,455.1585 211.1143,477.1067 241,528.1992 C285.9361,605.022 330.711,594.6532 395,656.1992 C406.5592,667.2652 414.5737,675.7057 424.7113,687.101 " fill="none" style="stroke:#000000;stroke-width:1.3;"/><text fill="#000000" font-family="sans-serif" font-size="13" lengthAdjust="spacing" textLength="65" x="242" y="524.7676">Reports to</text><rect fill="#DDDDDD" height="195.3711" id="_legend" rx="4" ry="4" style="stroke:#000000;stroke-width:1.0;" width="372" x="879" y="783.1992"/><text fill="#000000" font-family="sans-serif" font-size="14" font-weight="bold" lengthAdjust="spacing" textLength="123" x="889" y="803.7344">Component Type</text><text fill="#000000" font-family="sans-serif" font-size="14" font-weight="bold" lengthAdjust="spacing" textLength="83" x="1022" y="803.7344">Description</text><text fill="#000000" filter="url(#b71b5qolym2550)" font-family="sans-serif" font-size="14" lengthAdjust="spacing" textLength="64" x="884" y="820.2227">&#160;&#160;&#160;&#160;&#160;&#160;&#160;&#160;&#160;&#160;&#160;&#160;&#160;&#160;&#160;&#160;</text><text fill="#000000" font-family="sans-serif" font-size="14" lengthAdjust="spacing" textLength="221" x="1021" y="820.2227">Frontend - Web/UI Components</text><text fill="#000000" filter="url(#b71b5qolym2550)" font-family="sans-serif" font-size="14" lengthAdjust="spacing" textLength="64" x="884" y="836.7109">&#160;&#160;&#160;&#160;&#160;&#160;&#160;&#160;&#160;&#160;&#160;&#160;&#160;&#160;&#160;&#160;</text><text fill="#000000" font-family="sans-serif" font-size="14" lengthAdjust="spacing" textLength="154" x="1021" y="836.7109">API - Backend Services</text><text fill="#000000" filter="url(#b71b5qolym2550)" font-family="sans-serif" font-size="14" lengthAdjust="spacing" textLength="64" x="884" y="853.1992">&#160;&#160;&#160;&#160;&#160;&#160;&#160;&#160;&#160;&#160;&#160;&#160;&#160;&#160;&#160;&#160;</text><text fill="#000000" font-family="sans-serif" font-size="14" lengthAdjust="spacing" textLength="209" x="1021" y="853.1992">Auth - Authentication Services</text><text fill="#000000" filter="url(#b71b5qolym2550)" font-family="sans-serif" font-size="14" lengthAdjust="spacing" textLength="64" x="884" y="869.6875">&#160;&#160;&#160;&#160;&#160;&#160;&#160;&#160;&#160;&#160;&#160;&#160;&#160;&#160;&#160;&#160;</text><text fill="#000000" font-family="sans-serif" font-size="14" lengthAdjust="spacing" textLength="167" x="1021" y="869.6875">Database - Data Storage</text><text fill="#000000" filter="url(#b71b5qolym2550)" font-family="sans-serif" font-size="14" lengthAdjust="spacing" textLength="64" x="884" y="886.1758">&#160;&#160;&#160;&#160;&#160;&#160;&#160;&#160;&#160;&#160;&#160;&#160;&#160;&#160;&#160;&#160;</text><text fill="#000000" font-family="sans-serif" font-size="14" lengthAdjust="spacing" textLength="194" x="1021" y="886.1758">External - 3rd Party Services</text><text fill="#000000" filter="url(#b71b5qolym2550)" font-family="sans-serif" font-size="14" lengthAdjust="spacing" textLength="64" x="884" y="902.6641">&#160;&#160;&#160;&#160;&#160;&#160;&#160;&#160;&#160;&#160;&#160;&#160;&#160;&#160;&#160;&#160;</text><text fill="#000000" font-family="sans-serif" font-size="14" lengthAdjust="spacing" textLength="185" x="1021" y="902.6641">Contract - Smart Contracts</text><text fill="#000000" filter="url(#b71b5qolym2550)" font-family="sans-serif" font-size="14" lengthAdjust="spacing" textLength="64" x="884" y="919.1523">&#160;&#160;&#160;&#160;&#160;&#160;&#160;&#160;&#160;&#160;&#160;&#160;&#160;&#160;&#160;&#160;</text><text fill="#000000" font-family="sans-serif" font-size="14" lengthAdjust="spacing" textLength="176" x="1021" y="919.1523">Queue - Message Queues</text><text fill="#000000" filter="url(#b71b5qolym2550)" font-family="sans-serif" font-size="14" lengthAdjust="spacing" textLength="64" x="884" y="935.6406">&#160;&#160;&#160;&#160;&#160;&#160;&#160;&#160;&#160;&#160;&#160;&#160;&#160;&#160;&#160;&#160;</text><text fill="#000000" font-family="sans-serif" font-size="14" lengthAdjust="spacing" textLength="187" x="1021" y="935.6406">Operator - Validator Nodes</text><text fill="#000000" filter="url(#b71b5qolym2550)" font-family="sans-serif" font-size="14" lengthAdjust="spacing" textLength="64" x="884" y="952.1289">&#160;&#160;&#160;&#160;&#160;&#160;&#160;&#160;&#160;&#160;&#160;&#160;&#160;&#160;&#160;&#160;</text><text fill="#000000" font-family="sans-serif" font-size="14" lengthAdjust="spacing" textLength="210" x="1021" y="952.1289">Evaluator - Evaluation Services</text><text fill="#000000" filter="url(#b71b5qolym2550)" font-family="sans-serif" font-size="14" lengthAdjust="spacing" textLength="64" x="884" y="968.6172">&#160;&#160;&#160;&#160;&#160;&#160;&#160;&#160;&#160;&#160;&#160;&#160;&#160;&#160;&#160;&#160;</text><text fill="#000000" font-family="sans-serif" font-size="14" lengthAdjust="spacing" textLength="181" x="1021" y="968.6172">Storage - Storage Services</text><line style="stroke:#000000;stroke-width:1.0;" x1="884" x2="1246" y1="790.1992" y2="790.1992"/><line style="stroke:#000000;stroke-width:1.0;" x1="884" x2="1246" y1="806.6875" y2="806.6875"/><line style="stroke:#000000;stroke-width:1.0;" x1="884" x2="1246" y1="823.1758" y2="823.1758"/><line style="stroke:#000000;stroke-width:1.0;" x1="884" x2="1246" y1="839.6641" y2="839.6641"/><line style="stroke:#000000;stroke-width:1.0;" x1="884" x2="1246" y1="856.1523" y2="856.1523"/><line style="stroke:#000000;stroke-width:1.0;" x1="884" x2="1246" y1="872.6406" y2="872.6406"/><line style="stroke:#000000;stroke-width:1.0;" x1="884" x2="1246" y1="889.1289" y2="889.1289"/><line style="stroke:#000000;stroke-width:1.0;" x1="884" x2="1246" y1="905.6172" y2="905.6172"/><line style="stroke:#000000;stroke-width:1.0;" x1="884" x2="1246" y1="922.1055" y2="922.1055"/><line style="stroke:#000000;stroke-width:1.0;" x1="884" x2="1246" y1="938.5938" y2="938.5938"/><line style="stroke:#000000;stroke-width:1.0;" x1="884" x2="1246" y1="955.082" y2="955.082"/><line style="stroke:#000000;stroke-width:1.0;" x1="884" x2="1246" y1="971.5703" y2="971.5703"/><line style="stroke:#000000;stroke-width:1.0;" x1="884" x2="884" y1="790.1992" y2="971.5703"/><line style="stroke:#000000;stroke-width:1.0;" x1="1017" x2="1017" y1="790.1992" y2="971.5703"/><line style="stroke:#000000;stroke-width:1.0;" x1="1246" x2="1246" y1="790.1992" y2="971.5703"/><!--SRC=[bLZRSjis47tdLspTXpGFIYnBlcbSpr0KwNX6laIItSwq7GzCmXB69A40a1EboRzt0Lu4KgGwqeCjOtVFxXui3a7_iXHadX28oPgl5CY4Af8Inta78_h2KWhXIYgUGCXZBYGe3WbHuG8a_RAYQKWXOcGkI28T-ShI9S6lw9iiUKfJTN4H29ugcaQNb_2l0p0auUjSy5KQUHeFVlNFWrC_q1Ok8YhorQDJrpyvB5Td2nQ-fbHAE79-Eis9tFlhrXp3u3WOrdFq-kTde-5-ELPgqPOaEFU7lbjFuf_slPwtLv8HKUIPIDgQgEzxmMazqPdVxxkZlHBvtnGLAObR4_dOqrQYeElr3uEz4dau0eA4gZMHEngEpkg9plkzxj79Nea-h-YgdJSlw7bRapOyFJy-t6yAxfPK4CL5MwBHYUy6M-qS-MSdNdU_3NeZyMfdfhuVZBPQwfwV1BtzHc6AISYydRfZtz_kwFIatpzps_Ay0oyJ3gdMCKldLc9N2Fur1paqdxfnWzNzqBEC4NqXgrZDw3VbncoU9bWzXFY32ijhafKkKYhWp5fNJCKqm66SikyKkiqch9R2CuyZo-eLJ6LMGKFKo7bCcyYiaz7zSDpajYdZgCryInAAT30IMnxtk3UuK-s5B3E7-XxY0KmbUY1sWtFbt9cFJNekI7N8aJjpX-xKVnfUDNbRc1lFkyd8drZUN_I9hGD_Vl0VQgYPdmMP-sHuZja-oCyBuocuZrEaBbmmXHIj17MSl5Kuc2P4A2WqISAOhAauC8CFy9V6SD_ab8et5j8RV1JEgVWx_MtAOnOnjNx_3n293pzZVaeoEzWQLy6P4VdQ1gBGjWDX6Ci9dJEfnDhZs3bBjHHieJp7yadaVWqeKqLUQO6ptOUsjeJ_j3Wh9Az6LhcSquNuLpn3vikdd2Im5RCMvuslgp5Xp21_bcUkca0mkcuv6kRCI40f-ZbfuobCKHXGSE26HwlO3jDKIJGQkkirOUSl38FApIgYGcDuIkODKUP7oT8LXrAo2uuCDbP2O_1YfkKgG7gvsOiYGwBDJo_PEbHqVuCneHAbGLAOXbnK2fHcOKSSAYRS2nwY774xS5cijSNUK2LOAF6mn34DLIKuoMtReJyhetETlWY2qxKovx0sG2CUlcBfUke8tZKrVhQKvOWoitrLSN92KuO9zIwxSoIrGgOnLQVe4oMnMe2te1hGybvaXehpD2PoeQ57LDMxbeMjYB1RBQeiZeFSg0h3AathsAlGC-ch1HLqbMImLDjZOzzgjX1KED0tGqaLsCUvz_x0rDK3wocU9HsFRm2Br5l_nb0u9VhZtrd6E4uQU3KbZcagTQ3jJfRCRlbTgP_0zCCNlw3guYj0JHSxdSkgG0to0oQTYlfflthi01ua-jKagjapRp4NDEbKSkeGY-11pXyI0b-PMZHbgBW_Ki5Us0OSkoy5h7nWIyTIF0rXQLJUISt1KgE1qQoyd9gR9Jy3kAAg42Hu4JofErULP03-Dngk5DqWQttLZbRSPaiiUoLh9eruUgLJJQ0zzI0PbvJgfwdYpaPMp6PbwZGe5AWefj0FxRE961HQKmfC3KuFejx19HTPDjoDgiGukMfijVc9IwKxoFHXcuNCKFN8zM6GIKVLLch185SA7DPYgM7cx8fBfGWptipXQHgWpOXVv-UiUKhm_EiSo1XzGuQrPcG3idNCcWXqeoXxl- -4FDBbnnHBZvpi5mWsNoWKY1-_Rsx2C5ilgLuPKHaAjZIthX_QwU8PzN0GJEvkP_xj2Aznbr3xN7pKBfS_eFZd07JW3_hyyU5wWozjCDITdJXQvJhcjKM35UfRGNYOVTeDWQ_sYA5_ONOMPjV89YZhsjiELxp48wJ-2haqspZ-dpD_SkkET-AKWzA1deZmzY_Kkh4g3-cUkDvi9refsXsetu8jgEBwtOvZhbm8SeFdKdTb_gvWtDtx4tTsDza9Kwfe1nu9NalDzriULQ7yHtVyyBzOvIK4mQptW2QgfeZbNktkiDYlJldDGi8Xom_8Vm00]--></g></svg>