<?xml version="1.0" encoding="us-ascii" standalone="no"?><svg xmlns="http://www.w3.org/2000/svg" xmlns:xlink="http://www.w3.org/1999/xlink" contentStyleType="text/css" height="874px" preserveAspectRatio="none" style="width:810px;height:874px;background:#FFFFFF;" version="1.1" viewBox="0 0 810 874" width="810px" zoomAndPan="magnify"><defs/><g><text fill="#000000" font-family="Arial" font-size="14" font-weight="bold" lengthAdjust="spacing" textLength="172" x="328" y="28.1318">Task Reassignment Flow</text><rect fill="#FFFFFF" height="160.7949" style="stroke:#181818;stroke-width:1.0;" width="10" x="188" y="184.0947"/><rect fill="#FFFFFF" height="70.8975" style="stroke:#181818;stroke-width:1.0;" width="10" x="546.5" y="451.7358"/><line style="stroke:#181818;stroke-width:0.5;stroke-dasharray:5.0,5.0;" x1="47" x2="47" y1="118.1973" y2="575.582"/><line style="stroke:#181818;stroke-width:0.5;stroke-dasharray:5.0,5.0;" x1="193" x2="193" y1="118.1973" y2="575.582"/><line style="stroke:#181818;stroke-width:0.5;stroke-dasharray:5.0,5.0;" x1="392" x2="392" y1="118.1973" y2="575.582"/><line style="stroke:#181818;stroke-width:0.5;stroke-dasharray:5.0,5.0;" x1="551" x2="551" y1="118.1973" y2="575.582"/><line style="stroke:#181818;stroke-width:0.5;stroke-dasharray:5.0,5.0;" x1="757" x2="757" y1="118.1973" y2="575.582"/><text fill="#000000" font-family="Arial" font-size="14" lengthAdjust="spacing" textLength="40" x="24" y="115.2305">Admin</text><ellipse cx="47" cy="50.5986" fill="#E2E2F0" rx="8" ry="8" style="stroke:#181818;stroke-width:0.5;"/><path d="M47,58.5986 L47,85.5986 M34,66.5986 L60,66.5986 M47,85.5986 L34,100.5986 M47,85.5986 L60,100.5986 " fill="none" style="stroke:#181818;stroke-width:0.5;"/><text fill="#000000" font-family="Arial" font-size="14" lengthAdjust="spacing" textLength="40" x="24" y="587.7139">Admin</text><ellipse cx="47" cy="599.1807" fill="#E2E2F0" rx="8" ry="8" style="stroke:#181818;stroke-width:0.5;"/><path d="M47,607.1807 L47,634.1807 M34,615.1807 L60,615.1807 M47,634.1807 L34,649.1807 M47,634.1807 L60,649.1807 " fill="none" style="stroke:#181818;stroke-width:0.5;"/><rect fill="#FADBD8" height="46.1973" rx="2.5" ry="2.5" style="stroke:#943126;stroke-width:0.5;" width="152" x="117" y="71"/><text fill="#000000" font-family="Arial" font-size="14" font-style="italic" lengthAdjust="spacing" textLength="70" x="158" y="91.1318">&#171;Contract&#187;</text><text fill="#000000" font-family="Arial" font-size="14" lengthAdjust="spacing" textLength="138" x="124" y="107.2305">EvalAvsTaskManager</text><rect fill="#FADBD8" height="46.1973" rx="2.5" ry="2.5" style="stroke:#943126;stroke-width:0.5;" width="152" x="117" y="574.582"/><text fill="#000000" font-family="Arial" font-size="14" font-style="italic" lengthAdjust="spacing" textLength="70" x="158" y="594.7139">&#171;Contract&#187;</text><text fill="#000000" font-family="Arial" font-size="14" lengthAdjust="spacing" textLength="138" x="124" y="610.8125">EvalAvsTaskManager</text><rect fill="#D6EAF8" height="46.1973" rx="2.5" ry="2.5" style="stroke:#2E86C1;stroke-width:0.5;" width="120" x="332" y="71"/><text fill="#000000" font-family="Arial" font-size="14" font-style="italic" lengthAdjust="spacing" textLength="73" x="355.5" y="91.1318">&#171;Operator&#187;</text><text fill="#000000" font-family="Arial" font-size="14" lengthAdjust="spacing" textLength="106" x="339" y="107.2305">OriginalOperator</text><rect fill="#D6EAF8" height="46.1973" rx="2.5" ry="2.5" style="stroke:#2E86C1;stroke-width:0.5;" width="120" x="332" y="574.582"/><text fill="#000000" font-family="Arial" font-size="14" font-style="italic" lengthAdjust="spacing" textLength="73" x="355.5" y="594.7139">&#171;Operator&#187;</text><text fill="#000000" font-family="Arial" font-size="14" lengthAdjust="spacing" textLength="106" x="339" y="610.8125">OriginalOperator</text><rect fill="#D6EAF8" height="46.1973" rx="2.5" ry="2.5" style="stroke:#2E86C1;stroke-width:0.5;" width="99" x="502" y="71"/><text fill="#000000" font-family="Arial" font-size="14" font-style="italic" lengthAdjust="spacing" textLength="73" x="515" y="91.1318">&#171;Operator&#187;</text><text fill="#000000" font-family="Arial" font-size="14" lengthAdjust="spacing" textLength="85" x="509" y="107.2305">NewOperator</text><rect fill="#D6EAF8" height="46.1973" rx="2.5" ry="2.5" style="stroke:#2E86C1;stroke-width:0.5;" width="99" x="502" y="574.582"/><text fill="#000000" font-family="Arial" font-size="14" font-style="italic" lengthAdjust="spacing" textLength="73" x="515" y="594.7139">&#171;Operator&#187;</text><text fill="#000000" font-family="Arial" font-size="14" lengthAdjust="spacing" textLength="85" x="509" y="610.8125">NewOperator</text><rect fill="#D4EFDF" height="46.1973" rx="2.5" ry="2.5" style="stroke:#196F3D;stroke-width:0.5;" width="93" x="711" y="71"/><text fill="#000000" font-family="Arial" font-size="14" font-style="italic" lengthAdjust="spacing" textLength="76" x="719.5" y="91.1318">&#171;Evaluator&#187;</text><text fill="#000000" font-family="Arial" font-size="14" lengthAdjust="spacing" textLength="79" x="718" y="107.2305">GoEvaluator</text><rect fill="#D4EFDF" height="46.1973" rx="2.5" ry="2.5" style="stroke:#196F3D;stroke-width:0.5;" width="93" x="711" y="574.582"/><text fill="#000000" font-family="Arial" font-size="14" font-style="italic" lengthAdjust="spacing" textLength="76" x="719.5" y="594.7139">&#171;Evaluator&#187;</text><text fill="#000000" font-family="Arial" font-size="14" lengthAdjust="spacing" textLength="79" x="718" y="610.8125">GoEvaluator</text><rect fill="#FFFFFF" height="160.7949" style="stroke:#181818;stroke-width:1.0;" width="10" x="188" y="184.0947"/><rect fill="#FFFFFF" height="70.8975" style="stroke:#181818;stroke-width:1.0;" width="10" x="546.5" y="451.7358"/><path d="M5,133.1973 L5,157.1973 L800,157.1973 L800,143.1973 L790,133.1973 L5,133.1973 " fill="#FEFFDD" style="stroke:#181818;stroke-width:0.5;"/><path d="M790,133.1973 L790,143.1973 L800,143.1973 L790,133.1973 " fill="#FEFFDD" style="stroke:#181818;stroke-width:0.5;"/><text fill="#000000" font-family="Arial" font-size="13" lengthAdjust="spacing" textLength="168" x="314" y="150.3911">Task Reassignment Process</text><polygon fill="#181818" points="176,180.0947,186,184.0947,176,188.0947,180,184.0947" style="stroke:#181818;stroke-width:1.0;"/><line style="stroke:#181818;stroke-width:1.5;" x1="47" x2="182" y1="184.0947" y2="184.0947"/><text fill="#000000" font-family="Arial" font-size="13" lengthAdjust="spacing" textLength="122" x="56.5" y="179.3398">reassignTask(taskId)</text><line style="stroke:#181818;stroke-width:1.5;" x1="198" x2="240" y1="213.0435" y2="213.0435"/><line style="stroke:#181818;stroke-width:1.5;" x1="240" x2="240" y1="213.0435" y2="226.0435"/><line style="stroke:#181818;stroke-width:1.5;" x1="199" x2="240" y1="226.0435" y2="226.0435"/><polygon fill="#181818" points="209,222.0435,199,226.0435,209,230.0435,205,226.0435" style="stroke:#181818;stroke-width:1.0;"/><text fill="#000000" font-family="Arial" font-size="13" lengthAdjust="spacing" textLength="137" x="205" y="208.2886">Check if task is expired</text><line style="stroke:#181818;stroke-width:1.5;" x1="198" x2="240" y1="254.9922" y2="254.9922"/><line style="stroke:#181818;stroke-width:1.5;" x1="240" x2="240" y1="254.9922" y2="267.9922"/><line style="stroke:#181818;stroke-width:1.5;" x1="199" x2="240" y1="267.9922" y2="267.9922"/><polygon fill="#181818" points="209,263.9922,199,267.9922,209,271.9922,205,267.9922" style="stroke:#181818;stroke-width:1.0;"/><text fill="#000000" font-family="Arial" font-size="13" lengthAdjust="spacing" textLength="170" x="205" y="250.2373">Get next operator from queue</text><line style="stroke:#181818;stroke-width:1.5;" x1="198" x2="240" y1="296.9409" y2="296.9409"/><line style="stroke:#181818;stroke-width:1.5;" x1="240" x2="240" y1="296.9409" y2="309.9409"/><line style="stroke:#181818;stroke-width:1.5;" x1="199" x2="240" y1="309.9409" y2="309.9409"/><polygon fill="#181818" points="209,305.9409,199,309.9409,209,313.9409,205,309.9409" style="stroke:#181818;stroke-width:1.0;"/><text fill="#000000" font-family="Arial" font-size="13" lengthAdjust="spacing" textLength="175" x="205" y="292.186">Update task with new operator</text><line style="stroke:#181818;stroke-width:1.5;" x1="198" x2="240" y1="343.8896" y2="343.8896"/><line style="stroke:#181818;stroke-width:1.5;" x1="240" x2="240" y1="343.8896" y2="356.8896"/><line style="stroke:#181818;stroke-width:1.5;" x1="193" x2="240" y1="356.8896" y2="356.8896"/><polygon fill="#181818" points="203,352.8896,193,356.8896,203,360.8896,199,356.8896" style="stroke:#181818;stroke-width:1.0;"/><text fill="#000000" font-family="Arial" font-size="13" lengthAdjust="spacing" textLength="163" x="205" y="339.1348">Emit EvalReassigned Event</text><polygon fill="#181818" points="380,376.8384,390,380.8384,380,384.8384,384,380.8384" style="stroke:#181818;stroke-width:1.0;"/><line style="stroke:#181818;stroke-width:1.5;stroke-dasharray:2.0,2.0;" x1="193" x2="386" y1="380.8384" y2="380.8384"/><text fill="#000000" font-family="Arial" font-size="13" lengthAdjust="spacing" textLength="132" x="226.5" y="376.0835">EvalReassigned Event</text><line style="stroke:#181818;stroke-width:1.5;" x1="392" x2="434" y1="409.7871" y2="409.7871"/><line style="stroke:#181818;stroke-width:1.5;" x1="434" x2="434" y1="409.7871" y2="422.7871"/><line style="stroke:#181818;stroke-width:1.5;" x1="393" x2="434" y1="422.7871" y2="422.7871"/><polygon fill="#181818" points="403,418.7871,393,422.7871,403,426.7871,399,422.7871" style="stroke:#181818;stroke-width:1.0;"/><text fill="#000000" font-family="Arial" font-size="13" lengthAdjust="spacing" textLength="136" x="399" y="405.0322">Cancel task processing</text><polygon fill="#181818" points="534.5,447.7358,544.5,451.7358,534.5,455.7358,538.5,451.7358" style="stroke:#181818;stroke-width:1.0;"/><line style="stroke:#181818;stroke-width:1.5;stroke-dasharray:2.0,2.0;" x1="193" x2="540.5" y1="451.7358" y2="451.7358"/><text fill="#000000" font-family="Arial" font-size="13" lengthAdjust="spacing" textLength="132" x="303.75" y="446.981">EvalReassigned Event</text><line style="stroke:#181818;stroke-width:1.5;" x1="556.5" x2="598.5" y1="480.6846" y2="480.6846"/><line style="stroke:#181818;stroke-width:1.5;" x1="598.5" x2="598.5" y1="480.6846" y2="493.6846"/><line style="stroke:#181818;stroke-width:1.5;" x1="557.5" x2="598.5" y1="493.6846" y2="493.6846"/><polygon fill="#181818" points="567.5,489.6846,557.5,493.6846,567.5,497.6846,563.5,493.6846" style="stroke:#181818;stroke-width:1.0;"/><text fill="#000000" font-family="Arial" font-size="13" lengthAdjust="spacing" textLength="182" x="563.5" y="475.9297">Check if new assigned operator</text><polygon fill="#181818" points="745.5,518.6333,755.5,522.6333,745.5,526.6333,749.5,522.6333" style="stroke:#181818;stroke-width:1.0;"/><line style="stroke:#181818;stroke-width:1.5;" x1="551.5" x2="751.5" y1="522.6333" y2="522.6333"/><text fill="#000000" font-family="Arial" font-size="13" lengthAdjust="spacing" textLength="141" x="584" y="517.8784">Start evaluation process</text><path d="M556,535.6333 L556,559.6333 L802,559.6333 L802,545.6333 L792,535.6333 L556,535.6333 " fill="#FEFFDD" style="stroke:#181818;stroke-width:0.5;"/><path d="M792,535.6333 L792,545.6333 L802,545.6333 L792,535.6333 " fill="#FEFFDD" style="stroke:#181818;stroke-width:0.5;"/><text fill="#000000" font-family="Arial" font-size="13" lengthAdjust="spacing" textLength="225" x="562" y="552.8271">Process follows normal evaluation flow</text><rect fill="#DDDDDD" height="191.085" id="_legend" rx="7.5" ry="7.5" style="stroke:#000000;stroke-width:1.0;" width="183" x="322.5" y="663.6807"/><text fill="#000000" font-family="Arial" font-size="14" font-weight="bold" lengthAdjust="spacing" textLength="78" x="331.5" y="683.8125">Entity Type</text><text fill="#000000" font-family="Arial" font-size="14" font-weight="bold" lengthAdjust="spacing" textLength="79" x="417.5" y="683.8125">Description</text><rect fill="#E9F7EF" height="16.0986" style="stroke:none;stroke-width:1.0;" width="86" x="327.5" y="686.7793"/><text fill="#000000" font-family="Arial" font-size="14" lengthAdjust="spacing" textLength="4" x="327.5" y="699.9111">&#160;</text><text fill="#000000" font-family="Arial" font-size="14" lengthAdjust="spacing" textLength="58" x="417.5" y="699.9111">Frontend</text><rect fill="#EBF5FB" height="16.0986" style="stroke:none;stroke-width:1.0;" width="86" x="327.5" y="702.8779"/><text fill="#000000" font-family="Arial" font-size="14" lengthAdjust="spacing" textLength="4" x="327.5" y="716.0098">&#160;</text><text fill="#000000" font-family="Arial" font-size="14" lengthAdjust="spacing" textLength="22" x="417.5" y="716.0098">API</text><rect fill="#F9EBEA" height="16.0986" style="stroke:none;stroke-width:1.0;" width="86" x="327.5" y="718.9766"/><text fill="#000000" font-family="Arial" font-size="14" lengthAdjust="spacing" textLength="4" x="327.5" y="732.1084">&#160;</text><text fill="#000000" font-family="Arial" font-size="14" lengthAdjust="spacing" textLength="29" x="417.5" y="732.1084">Auth</text><rect fill="#F4ECF7" height="16.0986" style="stroke:none;stroke-width:1.0;" width="86" x="327.5" y="735.0752"/><text fill="#000000" font-family="Arial" font-size="14" lengthAdjust="spacing" textLength="4" x="327.5" y="748.207">&#160;</text><text fill="#000000" font-family="Arial" font-size="14" lengthAdjust="spacing" textLength="61" x="417.5" y="748.207">Database</text><rect fill="#FEF9E7" height="16.0986" style="stroke:none;stroke-width:1.0;" width="86" x="327.5" y="751.1738"/><text fill="#000000" font-family="Arial" font-size="14" lengthAdjust="spacing" textLength="4" x="327.5" y="764.3057">&#160;</text><text fill="#000000" font-family="Arial" font-size="14" lengthAdjust="spacing" textLength="52" x="417.5" y="764.3057">External</text><rect fill="#FADBD8" height="16.0986" style="stroke:none;stroke-width:1.0;" width="86" x="327.5" y="767.2725"/><text fill="#000000" font-family="Arial" font-size="14" lengthAdjust="spacing" textLength="4" x="327.5" y="780.4043">&#160;</text><text fill="#000000" font-family="Arial" font-size="14" lengthAdjust="spacing" textLength="54" x="417.5" y="780.4043">Contract</text><rect fill="#FCF3CF" height="16.0986" style="stroke:none;stroke-width:1.0;" width="86" x="327.5" y="783.3711"/><text fill="#000000" font-family="Arial" font-size="14" lengthAdjust="spacing" textLength="4" x="327.5" y="796.5029">&#160;</text><text fill="#000000" font-family="Arial" font-size="14" lengthAdjust="spacing" textLength="43" x="417.5" y="796.5029">Queue</text><rect fill="#D6EAF8" height="16.0986" style="stroke:none;stroke-width:1.0;" width="86" x="327.5" y="799.4697"/><text fill="#000000" font-family="Arial" font-size="14" lengthAdjust="spacing" textLength="4" x="327.5" y="812.6016">&#160;</text><text fill="#000000" font-family="Arial" font-size="14" lengthAdjust="spacing" textLength="57" x="417.5" y="812.6016">Operator</text><rect fill="#D4EFDF" height="16.0986" style="stroke:none;stroke-width:1.0;" width="86" x="327.5" y="815.5684"/><text fill="#000000" font-family="Arial" font-size="14" lengthAdjust="spacing" textLength="4" x="327.5" y="828.7002">&#160;</text><text fill="#000000" font-family="Arial" font-size="14" lengthAdjust="spacing" textLength="60" x="417.5" y="828.7002">Evaluator</text><rect fill="#F5EEF8" height="16.0986" style="stroke:none;stroke-width:1.0;" width="86" x="327.5" y="831.667"/><text fill="#000000" font-family="Arial" font-size="14" lengthAdjust="spacing" textLength="4" x="327.5" y="844.7988">&#160;</text><text fill="#000000" font-family="Arial" font-size="14" lengthAdjust="spacing" textLength="50" x="417.5" y="844.7988">Storage</text><line style="stroke:#000000;stroke-width:1.0;" x1="327.5" x2="500.5" y1="670.6807" y2="670.6807"/><line style="stroke:#000000;stroke-width:1.0;" x1="327.5" x2="500.5" y1="686.7793" y2="686.7793"/><line style="stroke:#000000;stroke-width:1.0;" x1="327.5" x2="500.5" y1="702.8779" y2="702.8779"/><line style="stroke:#000000;stroke-width:1.0;" x1="327.5" x2="500.5" y1="718.9766" y2="718.9766"/><line style="stroke:#000000;stroke-width:1.0;" x1="327.5" x2="500.5" y1="735.0752" y2="735.0752"/><line style="stroke:#000000;stroke-width:1.0;" x1="327.5" x2="500.5" y1="751.1738" y2="751.1738"/><line style="stroke:#000000;stroke-width:1.0;" x1="327.5" x2="500.5" y1="767.2725" y2="767.2725"/><line style="stroke:#000000;stroke-width:1.0;" x1="327.5" x2="500.5" y1="783.3711" y2="783.3711"/><line style="stroke:#000000;stroke-width:1.0;" x1="327.5" x2="500.5" y1="799.4697" y2="799.4697"/><line style="stroke:#000000;stroke-width:1.0;" x1="327.5" x2="500.5" y1="815.5684" y2="815.5684"/><line style="stroke:#000000;stroke-width:1.0;" x1="327.5" x2="500.5" y1="831.667" y2="831.667"/><line style="stroke:#000000;stroke-width:1.0;" x1="327.5" x2="500.5" y1="847.7656" y2="847.7656"/><line style="stroke:#000000;stroke-width:1.0;" x1="327.5" x2="327.5" y1="670.6807" y2="847.7656"/><line style="stroke:#000000;stroke-width:1.0;" x1="413.5" x2="413.5" y1="670.6807" y2="847.7656"/><line style="stroke:#000000;stroke-width:1.0;" x1="500.5" x2="500.5" y1="670.6807" y2="847.7656"/><!--SRC=[VLJBRjim4BppAxQvj0MQe2dGYn4OS8qaw26DqQGVG50hQM4-579bEVtwhlnGASNnGG8VExFBuIm_a3UsBH1CS2xuoyIl5g-QrbcbFiA39i_oGGeE8JLeg2G3faqS7FtLJC4dA4C4hYb1GRgAsgcq9jze6O4bZ_pQ88J8TSWsLZeo6MgqvvKk2l8LVFkQxJ_XIulUu8-mFUvVv_kB64FtN9DPUqm9hg- -AyN45k5PfpNyHfqILTwXPxYpeLDA6vOw5uKZhvh_sU7YTgFjOfDwt8Fski9u0Jf1DeURcsNm78LYFX-37oDLvBLzR31gIR23JXS5VnnEyR-m6q6p-HdKVUYBRWTKDXVKC1QOye55_GqUZlubZvsT46iLWn55bTg5m-Ky5s86yH3RBtvY-VqiFlVIqaOpvg4grs_AigpHh85Aw1b0d8FRXY8MPq7toE1non2E0fKnE12Vj7WM-ASf-k9skJhYMbYwWUGiyjOHGo_NKI8iP2eogG9F7dhC9dHJAynEqxrnp4deKaj7sFr1clqzIMEyJPgPw9ryG_5PgCgzDsKPRgpNRY0Bxq177djYiIxWVa4UZ6FfUslA8MkvqdASxk12ULgiD6y27wBJDYSf-wRERY63_mC0]--></g></svg>