<?xml version="1.0" encoding="us-ascii" standalone="no"?><svg xmlns="http://www.w3.org/2000/svg" xmlns:xlink="http://www.w3.org/1999/xlink" contentStyleType="text/css" height="2115px" preserveAspectRatio="none" style="width:1677px;height:2115px;background:#FFFFFF;" version="1.1" viewBox="0 0 1677 2115" width="1677px" zoomAndPan="magnify"><defs/><g><text fill="#303030" font-family="Arial" font-size="16" font-weight="bold" lengthAdjust="spacing" textLength="317" x="676.25" y="37.8516">Task Creation and Assignment Flow</text><rect fill="#F8F8F8" height="194.875" style="stroke:#000000;stroke-width:1.0;" width="10" x="325.5" y="212.8594"/><rect fill="#F8F8F8" height="207.875" style="stroke:#000000;stroke-width:1.0;" width="10" x="325.5" y="1373.0469"/><rect fill="#F8F8F8" height="1013.2813" style="stroke:#000000;stroke-width:1.0;" width="10" x="752" y="567.6406"/><rect fill="#F8F8F8" height="363.75" style="stroke:#000000;stroke-width:1.0;" width="10" x="983" y="806.4531"/><rect fill="none" height="248.8125" rx="4" ry="4" style="stroke:#CCCCCC;stroke-width:1.0;" width="594" x="898.5" y="821.4531"/><line style="stroke:#000000;stroke-width:0.5;stroke-dasharray:5.0,5.0;" x1="40" x2="40" y1="152.9219" y2="1605.9219"/><line style="stroke:#000000;stroke-width:0.5;stroke-dasharray:5.0,5.0;" x1="330" x2="330" y1="152.9219" y2="1605.9219"/><line style="stroke:#000000;stroke-width:0.5;stroke-dasharray:5.0,5.0;" x1="574" x2="574" y1="152.9219" y2="1605.9219"/><line style="stroke:#000000;stroke-width:0.5;stroke-dasharray:5.0,5.0;" x1="757" x2="757" y1="152.9219" y2="1605.9219"/><line style="stroke:#000000;stroke-width:0.5;stroke-dasharray:5.0,5.0;" x1="987.5" x2="987.5" y1="152.9219" y2="1605.9219"/><line style="stroke:#000000;stroke-width:0.5;stroke-dasharray:5.0,5.0;" x1="1191.5" x2="1191.5" y1="152.9219" y2="1605.9219"/><line style="stroke:#000000;stroke-width:0.5;stroke-dasharray:5.0,5.0;" x1="1399.5" x2="1399.5" y1="152.9219" y2="1605.9219"/><line style="stroke:#000000;stroke-width:0.5;stroke-dasharray:5.0,5.0;" x1="1578.5" x2="1578.5" y1="152.9219" y2="1605.9219"/><text fill="#000000" font-family="Arial" font-size="14" font-weight="bold" lengthAdjust="spacing" textLength="49" x="13" y="141.6201">Admin</text><ellipse cx="40.5" cy="69.125" fill="#FFFFFF" rx="8" ry="8" style="stroke:#454545;stroke-width:0.5;"/><path d="M40.5,77.125 L40.5,104.125 M27.5,85.125 L53.5,85.125 M40.5,104.125 L27.5,119.125 M40.5,104.125 L53.5,119.125 " fill="none" style="stroke:#454545;stroke-width:0.5;"/><text fill="#000000" font-family="Arial" font-size="14" font-weight="bold" lengthAdjust="spacing" textLength="49" x="13" y="1625.917">Admin</text><ellipse cx="40.5" cy="1645.7188" fill="#FFFFFF" rx="8" ry="8" style="stroke:#454545;stroke-width:0.5;"/><path d="M40.5,1653.7188 L40.5,1680.7188 M27.5,1661.7188 L53.5,1661.7188 M40.5,1680.7188 L27.5,1695.7188 M40.5,1680.7188 L53.5,1695.7188 " fill="none" style="stroke:#454545;stroke-width:0.5;"/><rect fill="#FADBD8" height="56.7734" rx="4" ry="4" style="stroke:#943126;stroke-width:2.0;" width="185" x="238" y="95.1484"/><text fill="#000000" font-family="Arial" font-size="10" font-weight="bold" lengthAdjust="spacing" textLength="61" x="300" y="119.4307">&#171;Contract&#187;</text><text fill="#000000" font-family="Arial" font-size="13" font-weight="bold" lengthAdjust="spacing" textLength="155" x="253" y="133.856">EvalAvsTaskManager</text><rect fill="#FADBD8" height="56.7734" rx="4" ry="4" style="stroke:#943126;stroke-width:2.0;" width="185" x="238" y="1604.9219"/><text fill="#000000" font-family="Arial" font-size="10" font-weight="bold" lengthAdjust="spacing" textLength="61" x="300" y="1629.2041">&#171;Contract&#187;</text><text fill="#000000" font-family="Arial" font-size="13" font-weight="bold" lengthAdjust="spacing" textLength="155" x="253" y="1643.6294">EvalAvsTaskManager</text><rect fill="#FCF3CF" height="56.7734" rx="4" ry="4" style="stroke:#B7950B;stroke-width:2.0;" width="169" x="490" y="95.1484"/><text fill="#000000" font-family="Arial" font-size="10" font-weight="bold" lengthAdjust="spacing" textLength="48" x="550.5" y="119.4307">&#171;Queue&#187;</text><text fill="#000000" font-family="Arial" font-size="13" font-weight="bold" lengthAdjust="spacing" textLength="139" x="505" y="133.856">Assignment Queue</text><rect fill="#FCF3CF" height="56.7734" rx="4" ry="4" style="stroke:#B7950B;stroke-width:2.0;" width="169" x="490" y="1604.9219"/><text fill="#000000" font-family="Arial" font-size="10" font-weight="bold" lengthAdjust="spacing" textLength="48" x="550.5" y="1629.2041">&#171;Queue&#187;</text><text fill="#000000" font-family="Arial" font-size="13" font-weight="bold" lengthAdjust="spacing" textLength="139" x="505" y="1643.6294">Assignment Queue</text><rect fill="#D6EAF8" height="56.7734" rx="4" ry="4" style="stroke:#2E86C1;stroke-width:2.0;" width="96" x="709" y="95.1484"/><text fill="#000000" font-family="Arial" font-size="10" font-weight="bold" lengthAdjust="spacing" textLength="63" x="725.5" y="119.4307">&#171;Operator&#187;</text><text fill="#000000" font-family="Arial" font-size="13" font-weight="bold" lengthAdjust="spacing" textLength="66" x="724" y="133.856">Operator</text><rect fill="#D6EAF8" height="56.7734" rx="4" ry="4" style="stroke:#2E86C1;stroke-width:2.0;" width="96" x="709" y="1604.9219"/><text fill="#000000" font-family="Arial" font-size="10" font-weight="bold" lengthAdjust="spacing" textLength="63" x="725.5" y="1629.2041">&#171;Operator&#187;</text><text fill="#000000" font-family="Arial" font-size="13" font-weight="bold" lengthAdjust="spacing" textLength="66" x="724" y="1643.6294">Operator</text><rect fill="#D4EFDF" height="56.7734" rx="4" ry="4" style="stroke:#196F3D;stroke-width:2.0;" width="119" x="928.5" y="95.1484"/><text fill="#000000" font-family="Arial" font-size="10" font-weight="bold" lengthAdjust="spacing" textLength="66" x="955" y="119.4307">&#171;Evaluator&#187;</text><text fill="#000000" font-family="Arial" font-size="13" font-weight="bold" lengthAdjust="spacing" textLength="89" x="943.5" y="133.856">GoEvaluator</text><rect fill="#D4EFDF" height="56.7734" rx="4" ry="4" style="stroke:#196F3D;stroke-width:2.0;" width="119" x="928.5" y="1604.9219"/><text fill="#000000" font-family="Arial" font-size="10" font-weight="bold" lengthAdjust="spacing" textLength="66" x="955" y="1629.2041">&#171;Evaluator&#187;</text><text fill="#000000" font-family="Arial" font-size="13" font-weight="bold" lengthAdjust="spacing" textLength="89" x="943.5" y="1643.6294">GoEvaluator</text><rect fill="#F5EEF8" height="56.7734" rx="4" ry="4" style="stroke:#76448A;stroke-width:2.0;" width="189" x="1097.5" y="95.1484"/><text fill="#000000" font-family="Arial" font-size="10" font-weight="bold" lengthAdjust="spacing" textLength="57" x="1163.5" y="119.4307">&#171;Storage&#187;</text><text fill="#000000" font-family="Arial" font-size="13" font-weight="bold" lengthAdjust="spacing" textLength="159" x="1112.5" y="133.856">Dataset Registry (S3)</text><rect fill="#F5EEF8" height="56.7734" rx="4" ry="4" style="stroke:#76448A;stroke-width:2.0;" width="189" x="1097.5" y="1604.9219"/><text fill="#000000" font-family="Arial" font-size="10" font-weight="bold" lengthAdjust="spacing" textLength="57" x="1163.5" y="1629.2041">&#171;Storage&#187;</text><text fill="#000000" font-family="Arial" font-size="13" font-weight="bold" lengthAdjust="spacing" textLength="159" x="1112.5" y="1643.6294">Dataset Registry (S3)</text><rect fill="#FEF9E7" height="56.7734" rx="4" ry="4" style="stroke:#F1C40F;stroke-width:2.0;" width="126" x="1336.5" y="95.1484"/><text fill="#000000" font-family="Arial" font-size="10" font-weight="bold" lengthAdjust="spacing" textLength="59" x="1370" y="119.4307">&#171;External&#187;</text><text fill="#000000" font-family="Arial" font-size="13" font-weight="bold" lengthAdjust="spacing" textLength="96" x="1351.5" y="133.856">LLM Provider</text><rect fill="#FEF9E7" height="56.7734" rx="4" ry="4" style="stroke:#F1C40F;stroke-width:2.0;" width="126" x="1336.5" y="1604.9219"/><text fill="#000000" font-family="Arial" font-size="10" font-weight="bold" lengthAdjust="spacing" textLength="59" x="1370" y="1629.2041">&#171;External&#187;</text><text fill="#000000" font-family="Arial" font-size="13" font-weight="bold" lengthAdjust="spacing" textLength="96" x="1351.5" y="1643.6294">LLM Provider</text><rect fill="#EBF5FB" height="56.7734" rx="4" ry="4" style="stroke:#3498DB;stroke-width:2.0;" width="133" x="1512.5" y="95.1484"/><text fill="#000000" font-family="Arial" font-size="10" font-weight="bold" lengthAdjust="spacing" textLength="31" x="1563.5" y="119.4307">&#171;API&#187;</text><text fill="#000000" font-family="Arial" font-size="13" font-weight="bold" lengthAdjust="spacing" textLength="103" x="1527.5" y="133.856">LayerLens API</text><rect fill="#EBF5FB" height="56.7734" rx="4" ry="4" style="stroke:#3498DB;stroke-width:2.0;" width="133" x="1512.5" y="1604.9219"/><text fill="#000000" font-family="Arial" font-size="10" font-weight="bold" lengthAdjust="spacing" textLength="31" x="1563.5" y="1629.2041">&#171;API&#187;</text><text fill="#000000" font-family="Arial" font-size="13" font-weight="bold" lengthAdjust="spacing" textLength="103" x="1527.5" y="1643.6294">LayerLens API</text><rect fill="#F8F8F8" height="194.875" style="stroke:#000000;stroke-width:1.0;" width="10" x="325.5" y="212.8594"/><rect fill="#F8F8F8" height="207.875" style="stroke:#000000;stroke-width:1.0;" width="10" x="325.5" y="1373.0469"/><rect fill="#F8F8F8" height="1013.2813" style="stroke:#000000;stroke-width:1.0;" width="10" x="752" y="567.6406"/><rect fill="#F8F8F8" height="363.75" style="stroke:#000000;stroke-width:1.0;" width="10" x="983" y="806.4531"/><polygon fill="#000000" points="313.5,208.8594,323.5,212.8594,313.5,216.8594,317.5,212.8594" style="stroke:#000000;stroke-width:1.0;"/><line style="stroke:#000000;stroke-width:1.5;" x1="40.5" x2="319.5" y1="212.8594" y2="212.8594"/><text fill="#000000" font-family="Arial" font-size="12" lengthAdjust="spacing" textLength="157" x="58" y="186.0605">requestEval(modelName,</text><text fill="#000000" font-family="Arial" font-size="12" lengthAdjust="spacing" textLength="4" x="215" y="186.0605">&#160;</text><text fill="#000000" font-family="Arial" font-size="12" lengthAdjust="spacing" textLength="89" x="219" y="186.0605">datasetName,</text><text fill="#000000" font-family="Arial" font-size="12" lengthAdjust="spacing" textLength="55" x="155.5" y="200.0293">subsets)</text><polygon fill="#000000" points="562.5,252.8281,572.5,256.8281,562.5,260.8281,566.5,256.8281" style="stroke:#000000;stroke-width:1.0;"/><line style="stroke:#000000;stroke-width:1.5;" x1="335.5" x2="568.5" y1="256.8281" y2="256.8281"/><text fill="#000000" font-family="Arial" font-size="12" lengthAdjust="spacing" textLength="175" x="367.5" y="243.998">popNextAssignedOperator()</text><polygon fill="#000000" points="346.5,296.7969,336.5,300.7969,346.5,304.7969,342.5,300.7969" style="stroke:#000000;stroke-width:1.0;"/><line style="stroke:#000000;stroke-width:1.5;stroke-dasharray:2.0,2.0;" x1="340.5" x2="573.5" y1="300.7969" y2="300.7969"/><text fill="#000000" font-family="Arial" font-size="12" lengthAdjust="spacing" textLength="113" x="398.5" y="287.9668">assignedOperator</text><line style="stroke:#000000;stroke-width:1.5;" x1="335.5" x2="377.5" y1="344.7656" y2="344.7656"/><line style="stroke:#000000;stroke-width:1.5;" x1="377.5" x2="377.5" y1="344.7656" y2="357.7656"/><line style="stroke:#000000;stroke-width:1.5;" x1="336.5" x2="377.5" y1="357.7656" y2="357.7656"/><polygon fill="#000000" points="346.5,353.7656,336.5,357.7656,346.5,361.7656,342.5,357.7656" style="stroke:#000000;stroke-width:1.0;"/><text fill="#000000" font-family="Arial" font-size="12" lengthAdjust="spacing" textLength="42" x="350.5" y="331.9355">Create</text><text fill="#000000" font-family="Arial" font-size="12" lengthAdjust="spacing" textLength="4" x="392.5" y="331.9355">&#160;</text><text fill="#000000" font-family="Arial" font-size="12" lengthAdjust="spacing" textLength="75" x="396.5" y="331.9355">EvalAvsTask</text><line style="stroke:#000000;stroke-width:1.5;" x1="335.5" x2="377.5" y1="406.7344" y2="406.7344"/><line style="stroke:#000000;stroke-width:1.5;" x1="377.5" x2="377.5" y1="406.7344" y2="419.7344"/><line style="stroke:#000000;stroke-width:1.5;" x1="330.5" x2="377.5" y1="419.7344" y2="419.7344"/><polygon fill="#000000" points="340.5,415.7344,330.5,419.7344,340.5,423.7344,336.5,419.7344" style="stroke:#000000;stroke-width:1.0;"/><text fill="#000000" font-family="Arial" font-size="12" lengthAdjust="spacing" textLength="27" x="350.5" y="393.9043">Emit</text><text fill="#000000" font-family="Arial" font-size="12" lengthAdjust="spacing" textLength="4" x="377.5" y="393.9043">&#160;</text><text fill="#000000" font-family="Arial" font-size="12" lengthAdjust="spacing" textLength="93" x="381.5" y="393.9043">EvalRequested</text><text fill="#000000" font-family="Arial" font-size="12" lengthAdjust="spacing" textLength="4" x="474.5" y="393.9043">&#160;</text><text fill="#000000" font-family="Arial" font-size="12" lengthAdjust="spacing" textLength="35" x="478.5" y="393.9043">Event</text><line style="stroke:#000000;stroke-width:1.5;" x1="757" x2="799" y1="458.7031" y2="458.7031"/><line style="stroke:#000000;stroke-width:1.5;" x1="799" x2="799" y1="458.7031" y2="471.7031"/><line style="stroke:#000000;stroke-width:1.5;" x1="758" x2="799" y1="471.7031" y2="471.7031"/><polygon fill="#000000" points="768,467.7031,758,471.7031,768,475.7031,764,471.7031" style="stroke:#000000;stroke-width:1.0;"/><text fill="#000000" font-family="Arial" font-size="12" lengthAdjust="spacing" textLength="37" x="772" y="445.873">Listen</text><text fill="#000000" font-family="Arial" font-size="12" lengthAdjust="spacing" textLength="4" x="809" y="445.873">&#160;</text><text fill="#000000" font-family="Arial" font-size="12" lengthAdjust="spacing" textLength="17" x="813" y="445.873">for</text><text fill="#000000" font-family="Arial" font-size="12" lengthAdjust="spacing" textLength="4" x="830" y="445.873">&#160;</text><text fill="#000000" font-family="Arial" font-size="12" lengthAdjust="spacing" textLength="93" x="834" y="445.873">EvalRequested</text><text fill="#000000" font-family="Arial" font-size="12" lengthAdjust="spacing" textLength="4" x="927" y="445.873">&#160;</text><text fill="#000000" font-family="Arial" font-size="12" lengthAdjust="spacing" textLength="42" x="931" y="445.873">events</text><polygon fill="#000000" points="745,511.6719,755,515.6719,745,519.6719,749,515.6719" style="stroke:#000000;stroke-width:1.0;"/><line style="stroke:#000000;stroke-width:1.5;" x1="330.5" x2="751" y1="515.6719" y2="515.6719"/><text fill="#000000" font-family="Arial" font-size="12" lengthAdjust="spacing" textLength="140" x="420.75" y="502.8418">EvalRequested(taskId,</text><text fill="#000000" font-family="Arial" font-size="12" lengthAdjust="spacing" textLength="4" x="560.75" y="502.8418">&#160;</text><text fill="#000000" font-family="Arial" font-size="12" lengthAdjust="spacing" textLength="31" x="564.75" y="502.8418">task,</text><text fill="#000000" font-family="Arial" font-size="12" lengthAdjust="spacing" textLength="4" x="595.75" y="502.8418">&#160;</text><text fill="#000000" font-family="Arial" font-size="12" lengthAdjust="spacing" textLength="67" x="599.75" y="502.8418">externalId)</text><line style="stroke:#000000;stroke-width:1.5;" x1="757" x2="804" y1="554.6406" y2="554.6406"/><line style="stroke:#000000;stroke-width:1.5;" x1="804" x2="804" y1="554.6406" y2="567.6406"/><line style="stroke:#000000;stroke-width:1.5;" x1="763" x2="804" y1="567.6406" y2="567.6406"/><polygon fill="#000000" points="773,563.6406,763,567.6406,773,571.6406,769,567.6406" style="stroke:#000000;stroke-width:1.0;"/><text fill="#000000" font-family="Arial" font-size="12" lengthAdjust="spacing" textLength="38" x="777" y="541.8105">Check</text><text fill="#000000" font-family="Arial" font-size="12" lengthAdjust="spacing" textLength="4" x="815" y="541.8105">&#160;</text><text fill="#000000" font-family="Arial" font-size="12" lengthAdjust="spacing" textLength="7" x="819" y="541.8105">if</text><text fill="#000000" font-family="Arial" font-size="12" lengthAdjust="spacing" textLength="4" x="826" y="541.8105">&#160;</text><text fill="#000000" font-family="Arial" font-size="12" lengthAdjust="spacing" textLength="57" x="830" y="541.8105">assigned</text><text fill="#000000" font-family="Arial" font-size="12" lengthAdjust="spacing" textLength="4" x="887" y="541.8105">&#160;</text><text fill="#000000" font-family="Arial" font-size="12" lengthAdjust="spacing" textLength="13" x="891" y="541.8105">to</text><text fill="#000000" font-family="Arial" font-size="12" lengthAdjust="spacing" textLength="4" x="904" y="541.8105">&#160;</text><text fill="#000000" font-family="Arial" font-size="12" lengthAdjust="spacing" textLength="27" x="908" y="541.8105">task</text><polygon fill="#000000" points="1180,626.5781,1190,630.5781,1180,634.5781,1184,630.5781" style="stroke:#000000;stroke-width:1.0;"/><line style="stroke:#000000;stroke-width:1.5;" x1="762" x2="1186" y1="630.5781" y2="630.5781"/><text fill="#000000" font-family="Arial" font-size="12" lengthAdjust="spacing" textLength="35" x="859.5" y="603.7793">Fetch</text><text fill="#000000" font-family="Arial" font-size="12" lengthAdjust="spacing" textLength="4" x="894.5" y="603.7793">&#160;</text><text fill="#000000" font-family="Arial" font-size="12" lengthAdjust="spacing" textLength="49" x="898.5" y="603.7793">dataset</text><text fill="#000000" font-family="Arial" font-size="12" lengthAdjust="spacing" textLength="4" x="947.5" y="603.7793">&#160;</text><text fill="#000000" font-family="Arial" font-size="12" lengthAdjust="spacing" textLength="25" x="951.5" y="603.7793">files</text><text fill="#000000" font-family="Arial" font-size="12" lengthAdjust="spacing" textLength="4" x="976.5" y="603.7793">&#160;</text><text fill="#000000" font-family="Arial" font-size="12" lengthAdjust="spacing" textLength="100" x="980.5" y="603.7793">(formatted.jsonl</text><text fill="#000000" font-family="Arial" font-size="12" lengthAdjust="spacing" textLength="4" x="1080.5" y="603.7793">&#160;</text><text fill="#000000" font-family="Arial" font-size="12" lengthAdjust="spacing" textLength="10" x="1084.5" y="603.7793">+</text><text fill="#000000" font-family="Arial" font-size="12" lengthAdjust="spacing" textLength="43" x="955.5" y="617.748">config)</text><polygon fill="#000000" points="773,670.5469,763,674.5469,773,678.5469,769,674.5469" style="stroke:#000000;stroke-width:1.0;"/><line style="stroke:#000000;stroke-width:1.5;stroke-dasharray:2.0,2.0;" x1="767" x2="1191" y1="674.5469" y2="674.5469"/><text fill="#000000" font-family="Arial" font-size="12" lengthAdjust="spacing" textLength="42" x="915" y="661.7168">Return</text><text fill="#000000" font-family="Arial" font-size="12" lengthAdjust="spacing" textLength="4" x="957" y="661.7168">&#160;</text><text fill="#000000" font-family="Arial" font-size="12" lengthAdjust="spacing" textLength="49" x="961" y="661.7168">dataset</text><text fill="#000000" font-family="Arial" font-size="12" lengthAdjust="spacing" textLength="4" x="1010" y="661.7168">&#160;</text><text fill="#000000" font-family="Arial" font-size="12" lengthAdjust="spacing" textLength="25" x="1014" y="661.7168">files</text><polygon fill="#000000" points="1567,714.5156,1577,718.5156,1567,722.5156,1571,718.5156" style="stroke:#000000;stroke-width:1.0;"/><line style="stroke:#000000;stroke-width:1.5;" x1="762" x2="1573" y1="718.5156" y2="718.5156"/><text fill="#000000" font-family="Arial" font-size="12" lengthAdjust="spacing" textLength="52" x="1061.5" y="705.6855">Request</text><text fill="#000000" font-family="Arial" font-size="12" lengthAdjust="spacing" textLength="4" x="1113.5" y="705.6855">&#160;</text><text fill="#000000" font-family="Arial" font-size="12" lengthAdjust="spacing" textLength="19" x="1117.5" y="705.6855">API</text><text fill="#000000" font-family="Arial" font-size="12" lengthAdjust="spacing" textLength="4" x="1136.5" y="705.6855">&#160;</text><text fill="#000000" font-family="Arial" font-size="12" lengthAdjust="spacing" textLength="21" x="1140.5" y="705.6855">Key</text><text fill="#000000" font-family="Arial" font-size="12" lengthAdjust="spacing" textLength="4" x="1161.5" y="705.6855">&#160;</text><text fill="#000000" font-family="Arial" font-size="12" lengthAdjust="spacing" textLength="17" x="1165.5" y="705.6855">for</text><text fill="#000000" font-family="Arial" font-size="12" lengthAdjust="spacing" textLength="4" x="1182.5" y="705.6855">&#160;</text><text fill="#000000" font-family="Arial" font-size="12" lengthAdjust="spacing" textLength="38" x="1186.5" y="705.6855">model</text><text fill="#000000" font-family="Arial" font-size="12" lengthAdjust="spacing" textLength="4" x="1224.5" y="705.6855">&#160;</text><text fill="#000000" font-family="Arial" font-size="12" lengthAdjust="spacing" textLength="51" x="1228.5" y="705.6855">provider</text><polygon fill="#000000" points="773,758.4844,763,762.4844,773,766.4844,769,762.4844" style="stroke:#000000;stroke-width:1.0;"/><line style="stroke:#000000;stroke-width:1.5;stroke-dasharray:2.0,2.0;" x1="767" x2="1578" y1="762.4844" y2="762.4844"/><text fill="#000000" font-family="Arial" font-size="12" lengthAdjust="spacing" textLength="42" x="1125.5" y="749.6543">Return</text><text fill="#000000" font-family="Arial" font-size="12" lengthAdjust="spacing" textLength="4" x="1167.5" y="749.6543">&#160;</text><text fill="#000000" font-family="Arial" font-size="12" lengthAdjust="spacing" textLength="19" x="1171.5" y="749.6543">API</text><text fill="#000000" font-family="Arial" font-size="12" lengthAdjust="spacing" textLength="4" x="1190.5" y="749.6543">&#160;</text><text fill="#000000" font-family="Arial" font-size="12" lengthAdjust="spacing" textLength="21" x="1194.5" y="749.6543">Key</text><polygon fill="#000000" points="971,802.4531,981,806.4531,971,810.4531,975,806.4531" style="stroke:#000000;stroke-width:1.0;"/><line style="stroke:#000000;stroke-width:1.5;" x1="762" x2="977" y1="806.4531" y2="806.4531"/><text fill="#000000" font-family="Arial" font-size="12" lengthAdjust="spacing" textLength="50" x="813" y="793.623">Execute</text><text fill="#000000" font-family="Arial" font-size="12" lengthAdjust="spacing" textLength="4" x="863" y="793.623">&#160;</text><text fill="#000000" font-family="Arial" font-size="12" lengthAdjust="spacing" textLength="65" x="867" y="793.623">evaluation</text><path d="M902.5,821.4531 L991.5,821.4531 L991.5,844.5859 L981.5,854.5859 L898.5,854.5859 L898.5,825.4531 A4,4 0 0 1 902.5,821.4531 " fill="#EEEEEE" style="stroke:#CCCCCC;stroke-width:1.5;"/><rect fill="none" height="248.8125" rx="4" ry="4" style="stroke:#CCCCCC;stroke-width:1.0;" width="594" x="898.5" y="821.4531"/><text fill="#000000" font-family="Arial" font-size="13" font-weight="bold" lengthAdjust="spacing" textLength="32" x="921.5" y="842.52">loop</text><text fill="#000000" font-family="Arial" font-size="11" font-weight="bold" lengthAdjust="spacing" textLength="184" x="1014.5" y="841.6636">[For each prompt in dataset]</text><polygon fill="#000000" points="1387.5,900.3594,1397.5,904.3594,1387.5,908.3594,1391.5,904.3594" style="stroke:#000000;stroke-width:1.0;"/><line style="stroke:#000000;stroke-width:1.5;" x1="993" x2="1393.5" y1="904.3594" y2="904.3594"/><text fill="#000000" font-family="Arial" font-size="12" lengthAdjust="spacing" textLength="32" x="1155.75" y="891.5293">Send</text><text fill="#000000" font-family="Arial" font-size="12" lengthAdjust="spacing" textLength="4" x="1187.75" y="891.5293">&#160;</text><text fill="#000000" font-family="Arial" font-size="12" lengthAdjust="spacing" textLength="45" x="1191.75" y="891.5293">prompt</text><polygon fill="#000000" points="1004,944.3281,994,948.3281,1004,952.3281,1000,948.3281" style="stroke:#000000;stroke-width:1.0;"/><line style="stroke:#000000;stroke-width:1.5;stroke-dasharray:2.0,2.0;" x1="998" x2="1398.5" y1="948.3281" y2="948.3281"/><text fill="#000000" font-family="Arial" font-size="12" lengthAdjust="spacing" textLength="42" x="1143.75" y="935.498">Return</text><text fill="#000000" font-family="Arial" font-size="12" lengthAdjust="spacing" textLength="4" x="1185.75" y="935.498">&#160;</text><text fill="#000000" font-family="Arial" font-size="12" lengthAdjust="spacing" textLength="59" x="1189.75" y="935.498">response</text><line style="stroke:#000000;stroke-width:1.5;" x1="993" x2="1035" y1="992.2969" y2="992.2969"/><line style="stroke:#000000;stroke-width:1.5;" x1="1035" x2="1035" y1="992.2969" y2="1005.2969"/><line style="stroke:#000000;stroke-width:1.5;" x1="994" x2="1035" y1="1005.2969" y2="1005.2969"/><polygon fill="#000000" points="1004,1001.2969,994,1005.2969,1004,1009.2969,1000,1005.2969" style="stroke:#000000;stroke-width:1.0;"/><text fill="#000000" font-family="Arial" font-size="12" lengthAdjust="spacing" textLength="36" x="1008" y="979.4668">Score</text><text fill="#000000" font-family="Arial" font-size="12" lengthAdjust="spacing" textLength="4" x="1044" y="979.4668">&#160;</text><text fill="#000000" font-family="Arial" font-size="12" lengthAdjust="spacing" textLength="59" x="1048" y="979.4668">response</text><line style="stroke:#000000;stroke-width:1.5;" x1="993" x2="1035" y1="1049.2656" y2="1049.2656"/><line style="stroke:#000000;stroke-width:1.5;" x1="1035" x2="1035" y1="1049.2656" y2="1062.2656"/><line style="stroke:#000000;stroke-width:1.5;" x1="994" x2="1035" y1="1062.2656" y2="1062.2656"/><polygon fill="#000000" points="1004,1058.2656,994,1062.2656,1004,1066.2656,1000,1062.2656" style="stroke:#000000;stroke-width:1.0;"/><text fill="#000000" font-family="Arial" font-size="12" lengthAdjust="spacing" textLength="32" x="1008" y="1036.4355">Hash</text><text fill="#000000" font-family="Arial" font-size="12" lengthAdjust="spacing" textLength="4" x="1040" y="1036.4355">&#160;</text><text fill="#000000" font-family="Arial" font-size="12" lengthAdjust="spacing" textLength="59" x="1044" y="1036.4355">response</text><text fill="#000000" font-family="Arial" font-size="12" lengthAdjust="spacing" textLength="4" x="1103" y="1036.4355">&#160;</text><text fill="#000000" font-family="Arial" font-size="12" lengthAdjust="spacing" textLength="37" x="1107" y="1036.4355">(MD5)</text><line style="stroke:#000000;stroke-width:1.5;" x1="993" x2="1035" y1="1113.2344" y2="1113.2344"/><line style="stroke:#000000;stroke-width:1.5;" x1="1035" x2="1035" y1="1113.2344" y2="1126.2344"/><line style="stroke:#000000;stroke-width:1.5;" x1="994" x2="1035" y1="1126.2344" y2="1126.2344"/><polygon fill="#000000" points="1004,1122.2344,994,1126.2344,1004,1130.2344,1000,1126.2344" style="stroke:#000000;stroke-width:1.0;"/><text fill="#000000" font-family="Arial" font-size="12" lengthAdjust="spacing" textLength="59" x="1008" y="1100.4043">Generate</text><text fill="#000000" font-family="Arial" font-size="12" lengthAdjust="spacing" textLength="4" x="1067" y="1100.4043">&#160;</text><text fill="#000000" font-family="Arial" font-size="12" lengthAdjust="spacing" textLength="61" x="1071" y="1100.4043">combined</text><text fill="#000000" font-family="Arial" font-size="12" lengthAdjust="spacing" textLength="4" x="1132" y="1100.4043">&#160;</text><text fill="#000000" font-family="Arial" font-size="12" lengthAdjust="spacing" textLength="31" x="1136" y="1100.4043">hash</text><polygon fill="#000000" points="773,1166.2031,763,1170.2031,773,1174.2031,769,1170.2031" style="stroke:#000000;stroke-width:1.0;"/><line style="stroke:#000000;stroke-width:1.5;stroke-dasharray:2.0,2.0;" x1="767" x2="987" y1="1170.2031" y2="1170.2031"/><text fill="#000000" font-family="Arial" font-size="12" lengthAdjust="spacing" textLength="42" x="799" y="1157.373">Return</text><text fill="#000000" font-family="Arial" font-size="12" lengthAdjust="spacing" textLength="4" x="841" y="1157.373">&#160;</text><text fill="#000000" font-family="Arial" font-size="12" lengthAdjust="spacing" textLength="43" x="845" y="1157.373">results</text><text fill="#000000" font-family="Arial" font-size="12" lengthAdjust="spacing" textLength="4" x="888" y="1157.373">&#160;</text><text fill="#000000" font-family="Arial" font-size="12" lengthAdjust="spacing" textLength="24" x="892" y="1157.373">and</text><text fill="#000000" font-family="Arial" font-size="12" lengthAdjust="spacing" textLength="4" x="916" y="1157.373">&#160;</text><text fill="#000000" font-family="Arial" font-size="12" lengthAdjust="spacing" textLength="31" x="920" y="1157.373">hash</text><polygon fill="#000000" points="1567,1210.1719,1577,1214.1719,1567,1218.1719,1571,1214.1719" style="stroke:#000000;stroke-width:1.0;"/><line style="stroke:#000000;stroke-width:1.5;" x1="762" x2="1573" y1="1214.1719" y2="1214.1719"/><text fill="#000000" font-family="Arial" font-size="12" lengthAdjust="spacing" textLength="30" x="1104.5" y="1201.3418">Save</text><text fill="#000000" font-family="Arial" font-size="12" lengthAdjust="spacing" textLength="4" x="1134.5" y="1201.3418">&#160;</text><text fill="#000000" font-family="Arial" font-size="12" lengthAdjust="spacing" textLength="51" x="1138.5" y="1201.3418">detailed</text><text fill="#000000" font-family="Arial" font-size="12" lengthAdjust="spacing" textLength="4" x="1189.5" y="1201.3418">&#160;</text><text fill="#000000" font-family="Arial" font-size="12" lengthAdjust="spacing" textLength="43" x="1193.5" y="1201.3418">results</text><polygon fill="#000000" points="773,1254.1406,763,1258.1406,773,1262.1406,769,1258.1406" style="stroke:#000000;stroke-width:1.0;"/><line style="stroke:#000000;stroke-width:1.5;stroke-dasharray:2.0,2.0;" x1="767" x2="1578" y1="1258.1406" y2="1258.1406"/><text fill="#000000" font-family="Arial" font-size="12" lengthAdjust="spacing" textLength="47" x="1130.5" y="1245.3105">Confirm</text><text fill="#000000" font-family="Arial" font-size="12" lengthAdjust="spacing" textLength="4" x="1177.5" y="1245.3105">&#160;</text><text fill="#000000" font-family="Arial" font-size="12" lengthAdjust="spacing" textLength="29" x="1181.5" y="1245.3105">save</text><line style="stroke:#000000;stroke-width:1.5;" x1="762" x2="804" y1="1302.1094" y2="1302.1094"/><line style="stroke:#000000;stroke-width:1.5;" x1="804" x2="804" y1="1302.1094" y2="1315.1094"/><line style="stroke:#000000;stroke-width:1.5;" x1="763" x2="804" y1="1315.1094" y2="1315.1094"/><polygon fill="#000000" points="773,1311.1094,763,1315.1094,773,1319.1094,769,1315.1094" style="stroke:#000000;stroke-width:1.0;"/><text fill="#000000" font-family="Arial" font-size="12" lengthAdjust="spacing" textLength="59" x="777" y="1289.2793">Generate</text><text fill="#000000" font-family="Arial" font-size="12" lengthAdjust="spacing" textLength="4" x="836" y="1289.2793">&#160;</text><text fill="#000000" font-family="Arial" font-size="12" lengthAdjust="spacing" textLength="22" x="840" y="1289.2793">BLS</text><text fill="#000000" font-family="Arial" font-size="12" lengthAdjust="spacing" textLength="4" x="862" y="1289.2793">&#160;</text><text fill="#000000" font-family="Arial" font-size="12" lengthAdjust="spacing" textLength="60" x="866" y="1289.2793">signature</text><polygon fill="#000000" points="346.5,1369.0469,336.5,1373.0469,346.5,1377.0469,342.5,1373.0469" style="stroke:#000000;stroke-width:1.0;"/><line style="stroke:#000000;stroke-width:1.5;" x1="340.5" x2="751" y1="1373.0469" y2="1373.0469"/><text fill="#000000" font-family="Arial" font-size="12" lengthAdjust="spacing" textLength="191" x="428.75" y="1346.248">respondToEvalRequest(taskId,</text><text fill="#000000" font-family="Arial" font-size="12" lengthAdjust="spacing" textLength="4" x="619.75" y="1346.248">&#160;</text><text fill="#000000" font-family="Arial" font-size="12" lengthAdjust="spacing" textLength="35" x="623.75" y="1346.248">hash,</text><text fill="#000000" font-family="Arial" font-size="12" lengthAdjust="spacing" textLength="65" x="511.25" y="1360.2168">signature)</text><line style="stroke:#000000;stroke-width:1.5;" x1="335.5" x2="377.5" y1="1417.0156" y2="1417.0156"/><line style="stroke:#000000;stroke-width:1.5;" x1="377.5" x2="377.5" y1="1417.0156" y2="1430.0156"/><line style="stroke:#000000;stroke-width:1.5;" x1="336.5" x2="377.5" y1="1430.0156" y2="1430.0156"/><polygon fill="#000000" points="346.5,1426.0156,336.5,1430.0156,346.5,1434.0156,342.5,1430.0156" style="stroke:#000000;stroke-width:1.0;"/><text fill="#000000" font-family="Arial" font-size="12" lengthAdjust="spacing" textLength="34" x="350.5" y="1404.1855">Verify</text><text fill="#000000" font-family="Arial" font-size="12" lengthAdjust="spacing" textLength="4" x="384.5" y="1404.1855">&#160;</text><text fill="#000000" font-family="Arial" font-size="12" lengthAdjust="spacing" textLength="60" x="388.5" y="1404.1855">signature</text><line style="stroke:#000000;stroke-width:1.5;" x1="335.5" x2="377.5" y1="1473.9844" y2="1473.9844"/><line style="stroke:#000000;stroke-width:1.5;" x1="377.5" x2="377.5" y1="1473.9844" y2="1486.9844"/><line style="stroke:#000000;stroke-width:1.5;" x1="336.5" x2="377.5" y1="1486.9844" y2="1486.9844"/><polygon fill="#000000" points="346.5,1482.9844,336.5,1486.9844,346.5,1490.9844,342.5,1486.9844" style="stroke:#000000;stroke-width:1.0;"/><text fill="#000000" font-family="Arial" font-size="12" lengthAdjust="spacing" textLength="46" x="350.5" y="1461.1543">Update</text><text fill="#000000" font-family="Arial" font-size="12" lengthAdjust="spacing" textLength="4" x="396.5" y="1461.1543">&#160;</text><text fill="#000000" font-family="Arial" font-size="12" lengthAdjust="spacing" textLength="27" x="400.5" y="1461.1543">task</text><text fill="#000000" font-family="Arial" font-size="12" lengthAdjust="spacing" textLength="4" x="427.5" y="1461.1543">&#160;</text><text fill="#000000" font-family="Arial" font-size="12" lengthAdjust="spacing" textLength="33" x="431.5" y="1461.1543">state</text><text fill="#000000" font-family="Arial" font-size="12" lengthAdjust="spacing" textLength="4" x="464.5" y="1461.1543">&#160;</text><text fill="#000000" font-family="Arial" font-size="12" lengthAdjust="spacing" textLength="13" x="468.5" y="1461.1543">to</text><text fill="#000000" font-family="Arial" font-size="12" lengthAdjust="spacing" textLength="4" x="481.5" y="1461.1543">&#160;</text><text fill="#000000" font-family="Arial" font-size="12" lengthAdjust="spacing" textLength="69" x="485.5" y="1461.1543">SUBMITTED</text><polygon fill="#000000" points="562.5,1526.9531,572.5,1530.9531,562.5,1534.9531,566.5,1530.9531" style="stroke:#000000;stroke-width:1.0;"/><line style="stroke:#000000;stroke-width:1.5;" x1="335.5" x2="568.5" y1="1530.9531" y2="1530.9531"/><text fill="#000000" font-family="Arial" font-size="12" lengthAdjust="spacing" textLength="24" x="366" y="1518.123">Add</text><text fill="#000000" font-family="Arial" font-size="12" lengthAdjust="spacing" textLength="4" x="390" y="1518.123">&#160;</text><text fill="#000000" font-family="Arial" font-size="12" lengthAdjust="spacing" textLength="55" x="394" y="1518.123">operator</text><text fill="#000000" font-family="Arial" font-size="12" lengthAdjust="spacing" textLength="4" x="449" y="1518.123">&#160;</text><text fill="#000000" font-family="Arial" font-size="12" lengthAdjust="spacing" textLength="30" x="453" y="1518.123">back</text><text fill="#000000" font-family="Arial" font-size="12" lengthAdjust="spacing" textLength="4" x="483" y="1518.123">&#160;</text><text fill="#000000" font-family="Arial" font-size="12" lengthAdjust="spacing" textLength="13" x="487" y="1518.123">to</text><text fill="#000000" font-family="Arial" font-size="12" lengthAdjust="spacing" textLength="4" x="500" y="1518.123">&#160;</text><text fill="#000000" font-family="Arial" font-size="12" lengthAdjust="spacing" textLength="40" x="504" y="1518.123">queue</text><line style="stroke:#000000;stroke-width:1.5;" x1="335.5" x2="377.5" y1="1579.9219" y2="1579.9219"/><line style="stroke:#000000;stroke-width:1.5;" x1="377.5" x2="377.5" y1="1579.9219" y2="1592.9219"/><line style="stroke:#000000;stroke-width:1.5;" x1="330.5" x2="377.5" y1="1592.9219" y2="1592.9219"/><polygon fill="#000000" points="340.5,1588.9219,330.5,1592.9219,340.5,1596.9219,336.5,1592.9219" style="stroke:#000000;stroke-width:1.0;"/><text fill="#000000" font-family="Arial" font-size="12" lengthAdjust="spacing" textLength="27" x="350.5" y="1567.0918">Emit</text><text fill="#000000" font-family="Arial" font-size="12" lengthAdjust="spacing" textLength="4" x="377.5" y="1567.0918">&#160;</text><text fill="#000000" font-family="Arial" font-size="12" lengthAdjust="spacing" textLength="92" x="381.5" y="1567.0918">EvalCompleted</text><text fill="#000000" font-family="Arial" font-size="12" lengthAdjust="spacing" textLength="4" x="473.5" y="1567.0918">&#160;</text><text fill="#000000" font-family="Arial" font-size="12" lengthAdjust="spacing" textLength="35" x="477.5" y="1567.0918">Event</text><rect fill="none" height="385.2656" id="_legend" rx="4" ry="4" style="stroke:#000000;stroke-width:1.0;" width="383" x="1274.5" y="1710.2188"/><text fill="#000000" font-family="Arial" font-size="14" font-weight="bold" lengthAdjust="spacing" textLength="88" x="1300.5" y="1746.2139">Entity Type</text><text fill="#000000" font-family="Arial" font-size="14" font-weight="bold" lengthAdjust="spacing" textLength="90" x="1414.5" y="1746.2139">Description</text><rect fill="#E9F7EF" height="32.2969" style="stroke:none;stroke-width:1.0;" width="114" x="1287.5" y="1757.5156"/><text fill="#000000" font-family="Arial" font-size="14" lengthAdjust="spacing" textLength="4" x="1295.5" y="1778.5107">&#160;</text><text fill="#000000" font-family="Arial" font-size="14" lengthAdjust="spacing" textLength="219" x="1413.5" y="1778.5107">Frontend - Web/UI Components</text><rect fill="#EBF5FB" height="32.2969" style="stroke:none;stroke-width:1.0;" width="114" x="1287.5" y="1789.8125"/><text fill="#000000" font-family="Arial" font-size="14" lengthAdjust="spacing" textLength="4" x="1295.5" y="1810.8076">&#160;</text><text fill="#000000" font-family="Arial" font-size="14" lengthAdjust="spacing" textLength="157" x="1413.5" y="1810.8076">API - Backend Services</text><rect fill="#F9EBEA" height="32.2969" style="stroke:none;stroke-width:1.0;" width="114" x="1287.5" y="1822.1094"/><text fill="#000000" font-family="Arial" font-size="14" lengthAdjust="spacing" textLength="4" x="1295.5" y="1843.1045">&#160;</text><text fill="#000000" font-family="Arial" font-size="14" lengthAdjust="spacing" textLength="207" x="1413.5" y="1843.1045">Auth - Authentication Services</text><rect fill="#F4ECF7" height="32.2969" style="stroke:none;stroke-width:1.0;" width="114" x="1287.5" y="1854.4063"/><text fill="#000000" font-family="Arial" font-size="14" lengthAdjust="spacing" textLength="4" x="1295.5" y="1875.4014">&#160;</text><text fill="#000000" font-family="Arial" font-size="14" lengthAdjust="spacing" textLength="169" x="1413.5" y="1875.4014">Database - Data Storage</text><rect fill="#FEF9E7" height="32.2969" style="stroke:none;stroke-width:1.0;" width="114" x="1287.5" y="1886.7031"/><text fill="#000000" font-family="Arial" font-size="14" lengthAdjust="spacing" textLength="4" x="1295.5" y="1907.6982">&#160;</text><text fill="#000000" font-family="Arial" font-size="14" lengthAdjust="spacing" textLength="191" x="1413.5" y="1907.6982">External - 3rd Party Services</text><rect fill="#FADBD8" height="32.2969" style="stroke:none;stroke-width:1.0;" width="114" x="1287.5" y="1919"/><text fill="#000000" font-family="Arial" font-size="14" lengthAdjust="spacing" textLength="4" x="1295.5" y="1939.9951">&#160;</text><text fill="#000000" font-family="Arial" font-size="14" lengthAdjust="spacing" textLength="183" x="1413.5" y="1939.9951">Contract - Smart Contracts</text><rect fill="#FCF3CF" height="32.2969" style="stroke:none;stroke-width:1.0;" width="114" x="1287.5" y="1951.2969"/><text fill="#000000" font-family="Arial" font-size="14" lengthAdjust="spacing" textLength="4" x="1295.5" y="1972.292">&#160;</text><text fill="#000000" font-family="Arial" font-size="14" lengthAdjust="spacing" textLength="182" x="1413.5" y="1972.292">Queue - Message Queues</text><rect fill="#D6EAF8" height="32.2969" style="stroke:none;stroke-width:1.0;" width="114" x="1287.5" y="1983.5938"/><text fill="#000000" font-family="Arial" font-size="14" lengthAdjust="spacing" textLength="4" x="1295.5" y="2004.5889">&#160;</text><text fill="#000000" font-family="Arial" font-size="14" lengthAdjust="spacing" textLength="182" x="1413.5" y="2004.5889">Operator - Validator Nodes</text><rect fill="#D4EFDF" height="32.2969" style="stroke:none;stroke-width:1.0;" width="114" x="1287.5" y="2015.8906"/><text fill="#000000" font-family="Arial" font-size="14" lengthAdjust="spacing" textLength="4" x="1295.5" y="2036.8857">&#160;</text><text fill="#000000" font-family="Arial" font-size="14" lengthAdjust="spacing" textLength="208" x="1413.5" y="2036.8857">Evaluator - Evaluation Services</text><rect fill="#F5EEF8" height="32.2969" style="stroke:none;stroke-width:1.0;" width="114" x="1287.5" y="2048.1875"/><text fill="#000000" font-family="Arial" font-size="14" lengthAdjust="spacing" textLength="4" x="1295.5" y="2069.1826">&#160;</text><text fill="#000000" font-family="Arial" font-size="14" lengthAdjust="spacing" textLength="183" x="1413.5" y="2069.1826">Storage - Storage Services</text><line style="stroke:#000000;stroke-width:1.0;" x1="1287.5" x2="1644.5" y1="1725.2188" y2="1725.2188"/><line style="stroke:#000000;stroke-width:1.0;" x1="1287.5" x2="1644.5" y1="1757.5156" y2="1757.5156"/><line style="stroke:#000000;stroke-width:1.0;" x1="1287.5" x2="1644.5" y1="1789.8125" y2="1789.8125"/><line style="stroke:#000000;stroke-width:1.0;" x1="1287.5" x2="1644.5" y1="1822.1094" y2="1822.1094"/><line style="stroke:#000000;stroke-width:1.0;" x1="1287.5" x2="1644.5" y1="1854.4063" y2="1854.4063"/><line style="stroke:#000000;stroke-width:1.0;" x1="1287.5" x2="1644.5" y1="1886.7031" y2="1886.7031"/><line style="stroke:#000000;stroke-width:1.0;" x1="1287.5" x2="1644.5" y1="1919" y2="1919"/><line style="stroke:#000000;stroke-width:1.0;" x1="1287.5" x2="1644.5" y1="1951.2969" y2="1951.2969"/><line style="stroke:#000000;stroke-width:1.0;" x1="1287.5" x2="1644.5" y1="1983.5938" y2="1983.5938"/><line style="stroke:#000000;stroke-width:1.0;" x1="1287.5" x2="1644.5" y1="2015.8906" y2="2015.8906"/><line style="stroke:#000000;stroke-width:1.0;" x1="1287.5" x2="1644.5" y1="2048.1875" y2="2048.1875"/><line style="stroke:#000000;stroke-width:1.0;" x1="1287.5" x2="1644.5" y1="2080.4844" y2="2080.4844"/><line style="stroke:#000000;stroke-width:1.0;" x1="1287.5" x2="1287.5" y1="1725.2188" y2="2080.4844"/><line style="stroke:#000000;stroke-width:1.0;" x1="1401.5" x2="1401.5" y1="1725.2188" y2="2080.4844"/><line style="stroke:#000000;stroke-width:1.0;" x1="1644.5" x2="1644.5" y1="1725.2188" y2="2080.4844"/><!--SRC=[ZLNRSjem47tNLsppKfX2fcacBqmcCuHScYcaD2PzLwm5L6p9aMG2_Vgk11ZP8McO0KlMEMTNU-EJL6bM2eHKvxbMNUlM6HuNPPunzXb6N2f7Nx0wHx05fd8gKqXBwtGk_t8djR8mrGRSN5eGaiyCpvbTI5LmMa4c5RfrWQ2Dc-leOCoDawaik79ZBeHKC_ZsDJfFyBb4bUAbNktEJ-BplZ7wPJANwKAXjN1oVCQOaov3c72xW871u1nm9Q1lhPof79M3cqo_CCPJHoxtHIuLA_QEmD7racVzfVKI8wxu3CqHS0lH7ixF1revGn8N5tLoPEPNYIK6QbWHAJoRZ9y56awk1EHkG-3Tiec_rTx1ig94Us9LwoRjYZjkqS43pgHrPWsjvBGT199JuYL4eQirMSFX2CP6BwNOHi6_82ihXqRnx1MShz4CaSgXFxuBU7eIddu9obY8DdGluc3smFWqM-TTR-LQO7RFS-o0s7YysTZoYTQsxTCcbznXBC7Yt91wY7CF2btSuyfjKe9Y5z1McsqIqcqwmXl8fcuD7AeB8QgMT-7NkNG1_B2vBGhQKPamWGUlnAfI8ANTkWT3IXwgq6rrCVHYjkd2dbX3joYoYplH0V_i06xJUIVQx2t3Wpcc2v3JAaZWTA3lCrA5BLP8JdjmWowTx_89KvcXXHPT8UUEd3d-OxNAu0jD7pMLipQZWkpMR3-WAusg2zICK7rvLBXTABaVk0un2kK4nRQ2cJywABtbr4IZngBmhJ0jwOwuUKLJXUql7Y5PfdK1DwH0QPrxotdXG5RECw1FtB9aY7ggHxEEXjG67Z2-qRfDBxRU6hG5pLmy95R39was-77uTsxd5HfQewkpDYEts7kSMrG-PE6_uqdwkfYJIfroAE9afioS3RCvCA8-YEFvEiy9No88fB-aZAnjTGwaTk3BoUHW2VzcMLVkNmuJy8NDoJkiWHkpoaT7J7JKJrKt-NjqzYeV6rOr-Tzev7GTEV8U-B4GNjjR1-l2KaFoU3cwcqokhzuOYdqXGEzkzyIffudqxCy-Dhu6LA4P_dTyHQztiVm7]--></g></svg>