<?xml version="1.0" encoding="us-ascii" standalone="no"?><svg xmlns="http://www.w3.org/2000/svg" xmlns:xlink="http://www.w3.org/1999/xlink" contentStyleType="text/css" height="1051px" preserveAspectRatio="none" style="width:1177px;height:1051px;background:#FFFFFF;" version="1.1" viewBox="0 0 1177 1051" width="1177px" zoomAndPan="magnify"><defs/><g><text fill="#000000" font-family="Arial" font-size="14" font-weight="bold" lengthAdjust="spacing" textLength="185" x="505" y="28.1318">Operator Registration Flow</text><rect fill="#FFFFFF" height="278.5386" style="stroke:#181818;stroke-width:1.0;" width="10" x="63.5" y="420.7358"/><rect fill="#FFFFFF" height="99.8462" style="stroke:#181818;stroke-width:1.0;" width="10" x="226.5" y="184.0947"/><rect fill="#FFFFFF" height="70.8975" style="stroke:#181818;stroke-width:1.0;" width="10" x="226.5" y="312.8896"/><line style="stroke:#181818;stroke-width:0.5;stroke-dasharray:5.0,5.0;" x1="68" x2="68" y1="118.1973" y2="752.2231"/><line style="stroke:#181818;stroke-width:0.5;stroke-dasharray:5.0,5.0;" x1="231" x2="231" y1="118.1973" y2="752.2231"/><line style="stroke:#181818;stroke-width:0.5;stroke-dasharray:5.0,5.0;" x1="471" x2="471" y1="118.1973" y2="752.2231"/><line style="stroke:#181818;stroke-width:0.5;stroke-dasharray:5.0,5.0;" x1="659" x2="659" y1="118.1973" y2="752.2231"/><line style="stroke:#181818;stroke-width:0.5;stroke-dasharray:5.0,5.0;" x1="878" x2="878" y1="118.1973" y2="752.2231"/><line style="stroke:#181818;stroke-width:0.5;stroke-dasharray:5.0,5.0;" x1="1090" x2="1090" y1="118.1973" y2="752.2231"/><text fill="#000000" font-family="Arial" font-size="14" lengthAdjust="spacing" textLength="57" x="37" y="115.2305">Operator</text><ellipse cx="68.5" cy="50.5986" fill="#E2E2F0" rx="8" ry="8" style="stroke:#181818;stroke-width:0.5;"/><path d="M68.5,58.5986 L68.5,85.5986 M55.5,66.5986 L81.5,66.5986 M68.5,85.5986 L55.5,100.5986 M68.5,85.5986 L81.5,100.5986 " fill="none" style="stroke:#181818;stroke-width:0.5;"/><text fill="#000000" font-family="Arial" font-size="14" lengthAdjust="spacing" textLength="57" x="37" y="764.355">Operator</text><ellipse cx="68.5" cy="775.8218" fill="#E2E2F0" rx="8" ry="8" style="stroke:#181818;stroke-width:0.5;"/><path d="M68.5,783.8218 L68.5,810.8218 M55.5,791.8218 L81.5,791.8218 M68.5,810.8218 L55.5,825.8218 M68.5,810.8218 L81.5,825.8218 " fill="none" style="stroke:#181818;stroke-width:0.5;"/><rect fill="#EBF5FB" height="46.1973" rx="2.5" ry="2.5" style="stroke:#3498DB;stroke-width:2.0;" width="101" x="181" y="71"/><text fill="#000000" font-family="Arial" font-size="14" font-weight="bold" lengthAdjust="spacing" textLength="39" x="212" y="91.1318">&#171;API&#187;</text><text fill="#000000" font-family="Arial" font-size="14" font-weight="bold" lengthAdjust="spacing" textLength="87" x="188" y="107.2305">Operator CLI</text><rect fill="#EBF5FB" height="46.1973" rx="2.5" ry="2.5" style="stroke:#3498DB;stroke-width:2.0;" width="101" x="181" y="751.2231"/><text fill="#000000" font-family="Arial" font-size="14" font-weight="bold" lengthAdjust="spacing" textLength="39" x="212" y="771.355">&#171;API&#187;</text><text fill="#000000" font-family="Arial" font-size="14" font-weight="bold" lengthAdjust="spacing" textLength="87" x="188" y="787.4536">Operator CLI</text><rect fill="#F5EEF8" height="46.1973" rx="2.5" ry="2.5" style="stroke:#76448A;stroke-width:2.0;" width="97" x="423" y="71"/><text fill="#000000" font-family="Arial" font-size="14" font-weight="bold" lengthAdjust="spacing" textLength="69" x="437" y="91.1318">&#171;Storage&#187;</text><text fill="#000000" font-family="Arial" font-size="14" font-weight="bold" lengthAdjust="spacing" textLength="83" x="430" y="107.2305">Config Files</text><rect fill="#F5EEF8" height="46.1973" rx="2.5" ry="2.5" style="stroke:#76448A;stroke-width:2.0;" width="97" x="423" y="751.2231"/><text fill="#000000" font-family="Arial" font-size="14" font-weight="bold" lengthAdjust="spacing" textLength="69" x="437" y="771.355">&#171;Storage&#187;</text><text fill="#000000" font-family="Arial" font-size="14" font-weight="bold" lengthAdjust="spacing" textLength="83" x="430" y="787.4536">Config Files</text><rect fill="#FADBD8" height="46.1973" rx="2.5" ry="2.5" style="stroke:#943126;stroke-width:2.0;" width="178" x="570" y="71"/><text fill="#000000" font-family="Arial" font-size="14" font-weight="bold" lengthAdjust="spacing" textLength="75" x="621.5" y="91.1318">&#171;Contract&#187;</text><text fill="#000000" font-family="Arial" font-size="14" font-weight="bold" lengthAdjust="spacing" textLength="164" x="577" y="107.2305">EvalAvsServiceManager</text><rect fill="#FADBD8" height="46.1973" rx="2.5" ry="2.5" style="stroke:#943126;stroke-width:2.0;" width="178" x="570" y="751.2231"/><text fill="#000000" font-family="Arial" font-size="14" font-weight="bold" lengthAdjust="spacing" textLength="75" x="621.5" y="771.355">&#171;Contract&#187;</text><text fill="#000000" font-family="Arial" font-size="14" font-weight="bold" lengthAdjust="spacing" textLength="164" x="577" y="787.4536">EvalAvsServiceManager</text><rect fill="#FADBD8" height="46.1973" rx="2.5" ry="2.5" style="stroke:#943126;stroke-width:2.0;" width="161" x="798" y="71"/><text fill="#000000" font-family="Arial" font-size="14" font-weight="bold" lengthAdjust="spacing" textLength="75" x="841" y="91.1318">&#171;Contract&#187;</text><text fill="#000000" font-family="Arial" font-size="14" font-weight="bold" lengthAdjust="spacing" textLength="147" x="805" y="107.2305">EvalAvsTaskManager</text><rect fill="#FADBD8" height="46.1973" rx="2.5" ry="2.5" style="stroke:#943126;stroke-width:2.0;" width="161" x="798" y="751.2231"/><text fill="#000000" font-family="Arial" font-size="14" font-weight="bold" lengthAdjust="spacing" textLength="75" x="841" y="771.355">&#171;Contract&#187;</text><text fill="#000000" font-family="Arial" font-size="14" font-weight="bold" lengthAdjust="spacing" textLength="147" x="805" y="787.4536">EvalAvsTaskManager</text><rect fill="#FADBD8" height="46.1973" rx="2.5" ry="2.5" style="stroke:#943126;stroke-width:2.0;" width="162" x="1009" y="71"/><text fill="#000000" font-family="Arial" font-size="14" font-weight="bold" lengthAdjust="spacing" textLength="75" x="1052.5" y="91.1318">&#171;Contract&#187;</text><text fill="#000000" font-family="Arial" font-size="14" font-weight="bold" lengthAdjust="spacing" textLength="148" x="1016" y="107.2305">EigenLayer Contracts</text><rect fill="#FADBD8" height="46.1973" rx="2.5" ry="2.5" style="stroke:#943126;stroke-width:2.0;" width="162" x="1009" y="751.2231"/><text fill="#000000" font-family="Arial" font-size="14" font-weight="bold" lengthAdjust="spacing" textLength="75" x="1052.5" y="771.355">&#171;Contract&#187;</text><text fill="#000000" font-family="Arial" font-size="14" font-weight="bold" lengthAdjust="spacing" textLength="148" x="1016" y="787.4536">EigenLayer Contracts</text><rect fill="#FFFFFF" height="278.5386" style="stroke:#181818;stroke-width:1.0;" width="10" x="63.5" y="420.7358"/><rect fill="#FFFFFF" height="99.8462" style="stroke:#181818;stroke-width:1.0;" width="10" x="226.5" y="184.0947"/><rect fill="#FFFFFF" height="70.8975" style="stroke:#181818;stroke-width:1.0;" width="10" x="226.5" y="312.8896"/><path d="M5,133.1973 L5,157.1973 L1154,157.1973 L1154,143.1973 L1144,133.1973 L5,133.1973 " fill="#FEFFDD" style="stroke:#181818;stroke-width:0.5;"/><path d="M1144,133.1973 L1144,143.1973 L1154,143.1973 L1144,133.1973 " fill="#FEFFDD" style="stroke:#181818;stroke-width:0.5;"/><text fill="#000000" font-family="Arial" font-size="13" lengthAdjust="spacing" textLength="186" x="482" y="150.3911">Operator Setup and Registration</text><polygon fill="#181818" points="214.5,180.0947,224.5,184.0947,214.5,188.0947,218.5,184.0947" style="stroke:#181818;stroke-width:1.0;"/><line style="stroke:#181818;stroke-width:1.5;" x1="68.5" x2="220.5" y1="184.0947" y2="184.0947"/><text fill="#000000" font-family="Arial" font-size="13" lengthAdjust="spacing" textLength="100" x="97.5" y="179.3398">run init command</text><line style="stroke:#181818;stroke-width:1.5;" x1="236.5" x2="278.5" y1="213.0435" y2="213.0435"/><line style="stroke:#181818;stroke-width:1.5;" x1="278.5" x2="278.5" y1="213.0435" y2="226.0435"/><line style="stroke:#181818;stroke-width:1.5;" x1="237.5" x2="278.5" y1="226.0435" y2="226.0435"/><polygon fill="#181818" points="247.5,222.0435,237.5,226.0435,247.5,230.0435,243.5,226.0435" style="stroke:#181818;stroke-width:1.0;"/><text fill="#000000" font-family="Arial" font-size="13" lengthAdjust="spacing" textLength="216" x="243.5" y="208.2886">Generate/load ECDSA and BLS keys</text><polygon fill="#181818" points="459.5,250.9922,469.5,254.9922,459.5,258.9922,463.5,254.9922" style="stroke:#181818;stroke-width:1.0;"/><line style="stroke:#181818;stroke-width:1.5;" x1="236.5" x2="465.5" y1="254.9922" y2="254.9922"/><text fill="#000000" font-family="Arial" font-size="13" lengthAdjust="spacing" textLength="105" x="301.5" y="250.2373">Create config files</text><polygon fill="#181818" points="79.5,279.9409,69.5,283.9409,79.5,287.9409,75.5,283.9409" style="stroke:#181818;stroke-width:1.0;"/><line style="stroke:#181818;stroke-width:1.5;stroke-dasharray:2.0,2.0;" x1="73.5" x2="230.5" y1="283.9409" y2="283.9409"/><text fill="#000000" font-family="Arial" font-size="13" lengthAdjust="spacing" textLength="133" x="83.5" y="279.186">Configuration complete</text><polygon fill="#181818" points="214.5,308.8896,224.5,312.8896,214.5,316.8896,218.5,312.8896" style="stroke:#181818;stroke-width:1.0;"/><line style="stroke:#181818;stroke-width:1.5;" x1="68.5" x2="220.5" y1="312.8896" y2="312.8896"/><text fill="#000000" font-family="Arial" font-size="13" lengthAdjust="spacing" textLength="97" x="99" y="308.1348">run docker setup</text><line style="stroke:#181818;stroke-width:1.5;" x1="236.5" x2="278.5" y1="341.8384" y2="341.8384"/><line style="stroke:#181818;stroke-width:1.5;" x1="278.5" x2="278.5" y1="341.8384" y2="354.8384"/><line style="stroke:#181818;stroke-width:1.5;" x1="237.5" x2="278.5" y1="354.8384" y2="354.8384"/><polygon fill="#181818" points="247.5,350.8384,237.5,354.8384,247.5,358.8384,243.5,354.8384" style="stroke:#181818;stroke-width:1.0;"/><text fill="#000000" font-family="Arial" font-size="13" lengthAdjust="spacing" textLength="181" x="243.5" y="337.0835">Generate docker-compose files</text><polygon fill="#181818" points="79.5,379.7871,69.5,383.7871,79.5,387.7871,75.5,383.7871" style="stroke:#181818;stroke-width:1.0;"/><line style="stroke:#181818;stroke-width:1.5;stroke-dasharray:2.0,2.0;" x1="73.5" x2="230.5" y1="383.7871" y2="383.7871"/><text fill="#000000" font-family="Arial" font-size="13" lengthAdjust="spacing" textLength="134" x="83" y="379.0322">Docker setup complete</text><line style="stroke:#181818;stroke-width:1.5;" x1="68.5" x2="115.5" y1="407.7358" y2="407.7358"/><line style="stroke:#181818;stroke-width:1.5;" x1="115.5" x2="115.5" y1="407.7358" y2="420.7358"/><line style="stroke:#181818;stroke-width:1.5;" x1="74.5" x2="115.5" y1="420.7358" y2="420.7358"/><polygon fill="#181818" points="84.5,416.7358,74.5,420.7358,84.5,424.7358,80.5,420.7358" style="stroke:#181818;stroke-width:1.0;"/><text fill="#000000" font-family="Arial" font-size="13" lengthAdjust="spacing" textLength="111" x="80.5" y="402.981">Start operator node</text><polygon fill="#181818" points="1078,450.6846,1088,454.6846,1078,458.6846,1082,454.6846" style="stroke:#181818;stroke-width:1.0;"/><line style="stroke:#181818;stroke-width:1.5;" x1="73.5" x2="1084" y1="454.6846" y2="454.6846"/><text fill="#000000" font-family="Arial" font-size="13" lengthAdjust="spacing" textLength="266" x="448.75" y="449.9297">Register with EigenLayer (ECDSA+BLS keys)</text><polygon fill="#181818" points="84.5,479.6333,74.5,483.6333,84.5,487.6333,80.5,483.6333" style="stroke:#181818;stroke-width:1.0;"/><line style="stroke:#181818;stroke-width:1.5;stroke-dasharray:2.0,2.0;" x1="78.5" x2="1089" y1="483.6333" y2="483.6333"/><text fill="#000000" font-family="Arial" font-size="13" lengthAdjust="spacing" textLength="130" x="516.75" y="478.8784">Registration confirmed</text><polygon fill="#181818" points="647,508.582,657,512.582,647,516.582,651,512.582" style="stroke:#181818;stroke-width:1.0;"/><line style="stroke:#181818;stroke-width:1.5;" x1="73.5" x2="653" y1="512.582" y2="512.582"/><text fill="#000000" font-family="Arial" font-size="13" lengthAdjust="spacing" textLength="222" x="255.25" y="507.8271">Register with EvalAvsServiceManager</text><polygon fill="#181818" points="1078,537.5308,1088,541.5308,1078,545.5308,1082,541.5308" style="stroke:#181818;stroke-width:1.0;"/><line style="stroke:#181818;stroke-width:1.5;" x1="659" x2="1084" y1="541.5308" y2="541.5308"/><text fill="#000000" font-family="Arial" font-size="13" lengthAdjust="spacing" textLength="102" x="823.5" y="536.7759">Verify registration</text><polygon fill="#181818" points="670,566.4795,660,570.4795,670,574.4795,666,570.4795" style="stroke:#181818;stroke-width:1.0;"/><line style="stroke:#181818;stroke-width:1.5;stroke-dasharray:2.0,2.0;" x1="664" x2="1089" y1="570.4795" y2="570.4795"/><text fill="#000000" font-family="Arial" font-size="13" lengthAdjust="spacing" textLength="113" x="818" y="565.7246">Confirm registration</text><polygon fill="#181818" points="84.5,595.4282,74.5,599.4282,84.5,603.4282,80.5,599.4282" style="stroke:#181818;stroke-width:1.0;"/><line style="stroke:#181818;stroke-width:1.5;stroke-dasharray:2.0,2.0;" x1="78.5" x2="658" y1="599.4282" y2="599.4282"/><text fill="#000000" font-family="Arial" font-size="13" lengthAdjust="spacing" textLength="156" x="288.25" y="594.6733">AVS registration confirmed</text><polygon fill="#181818" points="866.5,624.377,876.5,628.377,866.5,632.377,870.5,628.377" style="stroke:#181818;stroke-width:1.0;"/><line style="stroke:#181818;stroke-width:1.5;" x1="73.5" x2="872.5" y1="628.377" y2="628.377"/><text fill="#000000" font-family="Arial" font-size="13" lengthAdjust="spacing" textLength="135" x="408.5" y="623.6221">joinAssignmentQueue()</text><line style="stroke:#181818;stroke-width:1.5;" x1="878.5" x2="920.5" y1="657.3257" y2="657.3257"/><line style="stroke:#181818;stroke-width:1.5;" x1="920.5" x2="920.5" y1="657.3257" y2="670.3257"/><line style="stroke:#181818;stroke-width:1.5;" x1="879.5" x2="920.5" y1="670.3257" y2="670.3257"/><polygon fill="#181818" points="889.5,666.3257,879.5,670.3257,889.5,674.3257,885.5,670.3257" style="stroke:#181818;stroke-width:1.0;"/><text fill="#000000" font-family="Arial" font-size="13" lengthAdjust="spacing" textLength="128" x="885.5" y="652.5708">Add operator to queue</text><polygon fill="#181818" points="79.5,695.2744,69.5,699.2744,79.5,703.2744,75.5,699.2744" style="stroke:#181818;stroke-width:1.0;"/><line style="stroke:#181818;stroke-width:1.5;stroke-dasharray:2.0,2.0;" x1="73.5" x2="877.5" y1="699.2744" y2="699.2744"/><text fill="#000000" font-family="Arial" font-size="13" lengthAdjust="spacing" textLength="152" x="397.5" y="694.5195">Successfully joined queue</text><path d="M5,712.2744 L5,736.2744 L1154,736.2744 L1154,722.2744 L1144,712.2744 L5,712.2744 " fill="#FEFFDD" style="stroke:#181818;stroke-width:0.5;"/><path d="M1144,712.2744 L1144,722.2744 L1154,722.2744 L1144,712.2744 " fill="#FEFFDD" style="stroke:#181818;stroke-width:0.5;"/><text fill="#000000" font-family="Arial" font-size="13" lengthAdjust="spacing" textLength="228" x="461" y="729.4683">Operator is now ready to execute tasks</text><rect fill="#DDDDDD" height="191.085" id="_legend" rx="7.5" ry="7.5" style="stroke:#000000;stroke-width:1.0;" width="307" x="444" y="840.3218"/><text fill="#000000" font-family="Arial" font-size="14" font-weight="bold" lengthAdjust="spacing" textLength="78" x="453" y="860.4536">Entity Type</text><text fill="#000000" font-family="Arial" font-size="14" font-weight="bold" lengthAdjust="spacing" textLength="79" x="539" y="860.4536">Description</text><rect fill="#E9F7EF" height="16.0986" style="stroke:none;stroke-width:1.0;" width="86" x="449" y="863.4204"/><text fill="#000000" font-family="Arial" font-size="14" lengthAdjust="spacing" textLength="4" x="449" y="876.5522">&#160;</text><text fill="#000000" font-family="Arial" font-size="14" lengthAdjust="spacing" textLength="203" x="539" y="876.5522">Frontend - Web/UI Components</text><rect fill="#EBF5FB" height="16.0986" style="stroke:none;stroke-width:1.0;" width="86" x="449" y="879.519"/><text fill="#000000" font-family="Arial" font-size="14" lengthAdjust="spacing" textLength="4" x="449" y="892.6509">&#160;</text><text fill="#000000" font-family="Arial" font-size="14" lengthAdjust="spacing" textLength="148" x="539" y="892.6509">API - Backend Services</text><rect fill="#F9EBEA" height="16.0986" style="stroke:none;stroke-width:1.0;" width="86" x="449" y="895.6177"/><text fill="#000000" font-family="Arial" font-size="14" lengthAdjust="spacing" textLength="4" x="449" y="908.7495">&#160;</text><text fill="#000000" font-family="Arial" font-size="14" lengthAdjust="spacing" textLength="190" x="539" y="908.7495">Auth - Authentication Services</text><rect fill="#F4ECF7" height="16.0986" style="stroke:none;stroke-width:1.0;" width="86" x="449" y="911.7163"/><text fill="#000000" font-family="Arial" font-size="14" lengthAdjust="spacing" textLength="4" x="449" y="924.8481">&#160;</text><text fill="#000000" font-family="Arial" font-size="14" lengthAdjust="spacing" textLength="158" x="539" y="924.8481">Database - Data Storage</text><rect fill="#FEF9E7" height="16.0986" style="stroke:none;stroke-width:1.0;" width="86" x="449" y="927.8149"/><text fill="#000000" font-family="Arial" font-size="14" lengthAdjust="spacing" textLength="4" x="449" y="940.9468">&#160;</text><text fill="#000000" font-family="Arial" font-size="14" lengthAdjust="spacing" textLength="181" x="539" y="940.9468">External - 3rd Party Services</text><rect fill="#FADBD8" height="16.0986" style="stroke:none;stroke-width:1.0;" width="86" x="449" y="943.9136"/><text fill="#000000" font-family="Arial" font-size="14" lengthAdjust="spacing" textLength="4" x="449" y="957.0454">&#160;</text><text fill="#000000" font-family="Arial" font-size="14" lengthAdjust="spacing" textLength="170" x="539" y="957.0454">Contract - Smart Contracts</text><rect fill="#FCF3CF" height="16.0986" style="stroke:none;stroke-width:1.0;" width="86" x="449" y="960.0122"/><text fill="#000000" font-family="Arial" font-size="14" lengthAdjust="spacing" textLength="4" x="449" y="973.144">&#160;</text><text fill="#000000" font-family="Arial" font-size="14" lengthAdjust="spacing" textLength="168" x="539" y="973.144">Queue - Message Queues</text><rect fill="#D6EAF8" height="16.0986" style="stroke:none;stroke-width:1.0;" width="86" x="449" y="976.1108"/><text fill="#000000" font-family="Arial" font-size="14" lengthAdjust="spacing" textLength="4" x="449" y="989.2427">&#160;</text><text fill="#000000" font-family="Arial" font-size="14" lengthAdjust="spacing" textLength="171" x="539" y="989.2427">Operator - Validator Nodes</text><rect fill="#D4EFDF" height="16.0986" style="stroke:none;stroke-width:1.0;" width="86" x="449" y="992.2095"/><text fill="#000000" font-family="Arial" font-size="14" lengthAdjust="spacing" textLength="4" x="449" y="1005.3413">&#160;</text><text fill="#000000" font-family="Arial" font-size="14" lengthAdjust="spacing" textLength="197" x="539" y="1005.3413">Evaluator - Evaluation Services</text><rect fill="#F5EEF8" height="16.0986" style="stroke:none;stroke-width:1.0;" width="86" x="449" y="1008.3081"/><text fill="#000000" font-family="Arial" font-size="14" lengthAdjust="spacing" textLength="4" x="449" y="1021.4399">&#160;</text><text fill="#000000" font-family="Arial" font-size="14" lengthAdjust="spacing" textLength="171" x="539" y="1021.4399">Storage - Storage Services</text><line style="stroke:#000000;stroke-width:1.0;" x1="449" x2="746" y1="847.3218" y2="847.3218"/><line style="stroke:#000000;stroke-width:1.0;" x1="449" x2="746" y1="863.4204" y2="863.4204"/><line style="stroke:#000000;stroke-width:1.0;" x1="449" x2="746" y1="879.519" y2="879.519"/><line style="stroke:#000000;stroke-width:1.0;" x1="449" x2="746" y1="895.6177" y2="895.6177"/><line style="stroke:#000000;stroke-width:1.0;" x1="449" x2="746" y1="911.7163" y2="911.7163"/><line style="stroke:#000000;stroke-width:1.0;" x1="449" x2="746" y1="927.8149" y2="927.8149"/><line style="stroke:#000000;stroke-width:1.0;" x1="449" x2="746" y1="943.9136" y2="943.9136"/><line style="stroke:#000000;stroke-width:1.0;" x1="449" x2="746" y1="960.0122" y2="960.0122"/><line style="stroke:#000000;stroke-width:1.0;" x1="449" x2="746" y1="976.1108" y2="976.1108"/><line style="stroke:#000000;stroke-width:1.0;" x1="449" x2="746" y1="992.2095" y2="992.2095"/><line style="stroke:#000000;stroke-width:1.0;" x1="449" x2="746" y1="1008.3081" y2="1008.3081"/><line style="stroke:#000000;stroke-width:1.0;" x1="449" x2="746" y1="1024.4067" y2="1024.4067"/><line style="stroke:#000000;stroke-width:1.0;" x1="449" x2="449" y1="847.3218" y2="1024.4067"/><line style="stroke:#000000;stroke-width:1.0;" x1="535" x2="535" y1="847.3218" y2="1024.4067"/><line style="stroke:#000000;stroke-width:1.0;" x1="746" x2="746" y1="847.3218" y2="1024.4067"/><!--SRC=[ZLH1Rjim4Bpp5TjScg1rsXJenJ0CA4vI171Gjmfo9yYrlBL4AYHbHtrzAScoI3LkSp1iQsUumvbTlICbyaeY25qKMasigtEyBAiYP-mzF71Ipd_0wWB1bYXeJG94PPqkw3Ttf9M5jJRWDcH14iyCBvZTaYgv_mKvANHrYQ2Ds-YWiEB6aQ2IAxVYKfBAuClde9xYSuLAuBL-wUjNOJqnHkyVDoIs2gs5gyklZ3boESBt4WrtNj9FpCWwqug4krpl6UEYAVG8LWuYuEp8Moplpu3RvXjcisHrFv_7o8LMQyhWZdAq7R9xC9kbdiyp71DkTpnFTZP5ioE13rnvZ6cPyID_WZ_AInRkn16Ft6v3Vl3_NsJAK2rvxK4zf1CU528sKzhvp7OucFKn04y7arDqLGbSoSXknew0oRmnSWgcKa2AN3je7jzaGJlks_WoQxpkaTzGDLpyb6ikuNPnaoPjW-jb2bkixH7SkZw5XS7c6D65i6vIwI0UqykO7j3LOHoyY397XqnYfEDrtLABhRV2DdVzl-u3VDBqq1PFAhe9JdsRe86REfylwBwcjCH1s76-GswONXULxxqdjmc7uBnr-qFlz0KBQh7uQBbQwqs1CfOR3_TVRLzR2ZPQY97m9pIqhi64epQIE6wwwBJ5d76Nw6h9KngXJrqlsBqf_DAa4cifKmKgzwF22iylMBYUOqOYvH2Wq_3SS69677abX7_LhQiyhzjsA0-SO6IEqRzzW_rxM-czlp6NTQC3Nr1Kdkky4li7]--></g></svg>