<?xml version="1.0" encoding="us-ascii" standalone="no"?><svg xmlns="http://www.w3.org/2000/svg" xmlns:xlink="http://www.w3.org/1999/xlink" contentStyleType="text/css" height="2246px" preserveAspectRatio="none" style="width:1536px;height:2246px;background:#FFFFFF;" version="1.1" viewBox="0 0 1536 2246" width="1536px" zoomAndPan="magnify"><defs/><g><text fill="#303030" font-family="Arial" font-size="16" font-weight="bold" lengthAdjust="spacing" textLength="275" x="626.5" y="38.0078">Task Creation and Assignment Flow</text><rect fill="#F8F8F8" height="194.1953" style="stroke:#000000;stroke-width:1.0;" width="10" x="312" y="263.0435"/><rect fill="#F8F8F8" height="207.1953" style="stroke:#000000;stroke-width:1.0;" width="10" x="312" y="1506.9116"/><rect fill="#F8F8F8" height="1046.5229" style="stroke:#000000;stroke-width:1.0;" width="10" x="697.5" y="667.584"/><rect fill="#F8F8F8" height="362.3906" style="stroke:#000000;stroke-width:1.0;" width="10" x="903.5" y="891.5781"/><rect fill="none" height="247.793" rx="4" ry="4" style="stroke:#CCCCCC;stroke-width:1.0;" width="539" x="825" y="906.5781"/><line style="stroke:#000000;stroke-width:0.5;stroke-dasharray:5.0,5.0;" x1="59" x2="59" y1="152.4971" y2="1739.1069"/><line style="stroke:#000000;stroke-width:0.5;stroke-dasharray:5.0,5.0;" x1="317" x2="317" y1="152.4971" y2="1739.1069"/><line style="stroke:#000000;stroke-width:0.5;stroke-dasharray:5.0,5.0;" x1="536" x2="536" y1="152.4971" y2="1739.1069"/><line style="stroke:#000000;stroke-width:0.5;stroke-dasharray:5.0,5.0;" x1="702" x2="702" y1="152.4971" y2="1739.1069"/><line style="stroke:#000000;stroke-width:0.5;stroke-dasharray:5.0,5.0;" x1="908" x2="908" y1="152.4971" y2="1739.1069"/><line style="stroke:#000000;stroke-width:0.5;stroke-dasharray:5.0,5.0;" x1="1091" x2="1091" y1="152.4971" y2="1739.1069"/><line style="stroke:#000000;stroke-width:0.5;stroke-dasharray:5.0,5.0;" x1="1277" x2="1277" y1="152.4971" y2="1739.1069"/><line style="stroke:#000000;stroke-width:0.5;stroke-dasharray:5.0,5.0;" x1="1444" x2="1444" y1="152.4971" y2="1739.1069"/><text fill="#000000" font-family="Arial" font-size="14" font-weight="bold" lengthAdjust="spacing" textLength="44" x="34" y="141.5303">Admin</text><ellipse cx="59" cy="68.8984" fill="#FFFFFF" rx="8" ry="8" style="stroke:#454545;stroke-width:0.5;"/><path d="M59,76.8984 L59,103.8984 M46,84.8984 L72,84.8984 M59,103.8984 L46,118.8984 M59,103.8984 L72,118.8984 " fill="none" style="stroke:#454545;stroke-width:0.5;"/><text fill="#000000" font-family="Arial" font-size="14" font-weight="bold" lengthAdjust="spacing" textLength="44" x="34" y="1759.2388">Admin</text><ellipse cx="59" cy="1778.7056" fill="#FFFFFF" rx="8" ry="8" style="stroke:#454545;stroke-width:0.5;"/><path d="M59,1786.7056 L59,1813.7056 M46,1794.7056 L72,1794.7056 M59,1813.7056 L46,1828.7056 M59,1813.7056 L72,1828.7056 " fill="none" style="stroke:#454545;stroke-width:0.5;"/><rect fill="#FADBD8" height="56.4478" rx="4" ry="4" style="stroke:#943126;stroke-width:2.0;" width="162" x="236" y="95.0493"/><text fill="#000000" font-family="Arial" font-size="10" font-weight="bold" lengthAdjust="spacing" textLength="53" x="290.5" y="119.4292">&#171;Contract&#187;</text><text fill="#000000" font-family="Arial" font-size="13" font-weight="bold" lengthAdjust="spacing" textLength="132" x="251" y="133.7422">EvalAvsTaskManager</text><rect fill="#FADBD8" height="56.4478" rx="4" ry="4" style="stroke:#943126;stroke-width:2.0;" width="162" x="236" y="1738.1069"/><text fill="#000000" font-family="Arial" font-size="10" font-weight="bold" lengthAdjust="spacing" textLength="53" x="290.5" y="1762.4868">&#171;Contract&#187;</text><text fill="#000000" font-family="Arial" font-size="13" font-weight="bold" lengthAdjust="spacing" textLength="132" x="251" y="1776.7998">EvalAvsTaskManager</text><rect fill="#FCF3CF" height="56.4478" rx="4" ry="4" style="stroke:#B7950B;stroke-width:2.0;" width="148" x="462" y="95.0493"/><text fill="#000000" font-family="Arial" font-size="10" font-weight="bold" lengthAdjust="spacing" textLength="44" x="514" y="119.4292">&#171;Queue&#187;</text><text fill="#000000" font-family="Arial" font-size="13" font-weight="bold" lengthAdjust="spacing" textLength="118" x="477" y="133.7422">Assignment Queue</text><rect fill="#FCF3CF" height="56.4478" rx="4" ry="4" style="stroke:#B7950B;stroke-width:2.0;" width="148" x="462" y="1738.1069"/><text fill="#000000" font-family="Arial" font-size="10" font-weight="bold" lengthAdjust="spacing" textLength="44" x="514" y="1762.4868">&#171;Queue&#187;</text><text fill="#000000" font-family="Arial" font-size="13" font-weight="bold" lengthAdjust="spacing" textLength="118" x="477" y="1776.7998">Assignment Queue</text><rect fill="#D6EAF8" height="56.4478" rx="4" ry="4" style="stroke:#2E86C1;stroke-width:2.0;" width="85" x="660" y="95.0493"/><text fill="#000000" font-family="Arial" font-size="10" font-weight="bold" lengthAdjust="spacing" textLength="55" x="675" y="119.4292">&#171;Operator&#187;</text><text fill="#000000" font-family="Arial" font-size="13" font-weight="bold" lengthAdjust="spacing" textLength="54" x="675.5" y="133.7422">Operator</text><rect fill="#D6EAF8" height="56.4478" rx="4" ry="4" style="stroke:#2E86C1;stroke-width:2.0;" width="85" x="660" y="1738.1069"/><text fill="#000000" font-family="Arial" font-size="10" font-weight="bold" lengthAdjust="spacing" textLength="55" x="675" y="1762.4868">&#171;Operator&#187;</text><text fill="#000000" font-family="Arial" font-size="13" font-weight="bold" lengthAdjust="spacing" textLength="54" x="675.5" y="1776.7998">Operator</text><rect fill="#D4EFDF" height="56.4478" rx="4" ry="4" style="stroke:#196F3D;stroke-width:2.0;" width="107" x="855" y="95.0493"/><text fill="#000000" font-family="Arial" font-size="10" font-weight="bold" lengthAdjust="spacing" textLength="59" x="879" y="119.4292">&#171;Evaluator&#187;</text><text fill="#000000" font-family="Arial" font-size="13" font-weight="bold" lengthAdjust="spacing" textLength="77" x="870" y="133.7422">GoEvaluator</text><rect fill="#D4EFDF" height="56.4478" rx="4" ry="4" style="stroke:#196F3D;stroke-width:2.0;" width="107" x="855" y="1738.1069"/><text fill="#000000" font-family="Arial" font-size="10" font-weight="bold" lengthAdjust="spacing" textLength="59" x="879" y="1762.4868">&#171;Evaluator&#187;</text><text fill="#000000" font-family="Arial" font-size="13" font-weight="bold" lengthAdjust="spacing" textLength="77" x="870" y="1776.7998">GoEvaluator</text><rect fill="#F5EEF8" height="56.4478" rx="4" ry="4" style="stroke:#76448A;stroke-width:2.0;" width="158" x="1012" y="95.0493"/><text fill="#000000" font-family="Arial" font-size="10" font-weight="bold" lengthAdjust="spacing" textLength="50" x="1066" y="119.4292">&#171;Storage&#187;</text><text fill="#000000" font-family="Arial" font-size="13" font-weight="bold" lengthAdjust="spacing" textLength="128" x="1027" y="133.7422">Dataset Registry (S3)</text><rect fill="#F5EEF8" height="56.4478" rx="4" ry="4" style="stroke:#76448A;stroke-width:2.0;" width="158" x="1012" y="1738.1069"/><text fill="#000000" font-family="Arial" font-size="10" font-weight="bold" lengthAdjust="spacing" textLength="50" x="1066" y="1762.4868">&#171;Storage&#187;</text><text fill="#000000" font-family="Arial" font-size="13" font-weight="bold" lengthAdjust="spacing" textLength="128" x="1027" y="1776.7998">Dataset Registry (S3)</text><rect fill="#FEF9E7" height="56.4478" rx="4" ry="4" style="stroke:#F1C40F;stroke-width:2.0;" width="114" x="1220" y="95.0493"/><text fill="#000000" font-family="Arial" font-size="10" font-weight="bold" lengthAdjust="spacing" textLength="53" x="1250.5" y="119.4292">&#171;External&#187;</text><text fill="#000000" font-family="Arial" font-size="13" font-weight="bold" lengthAdjust="spacing" textLength="84" x="1235" y="133.7422">LLM Provider</text><rect fill="#FEF9E7" height="56.4478" rx="4" ry="4" style="stroke:#F1C40F;stroke-width:2.0;" width="114" x="1220" y="1738.1069"/><text fill="#000000" font-family="Arial" font-size="10" font-weight="bold" lengthAdjust="spacing" textLength="53" x="1250.5" y="1762.4868">&#171;External&#187;</text><text fill="#000000" font-family="Arial" font-size="13" font-weight="bold" lengthAdjust="spacing" textLength="84" x="1235" y="1776.7998">LLM Provider</text><rect fill="#EBF5FB" height="56.4478" rx="4" ry="4" style="stroke:#3498DB;stroke-width:2.0;" width="120" x="1384" y="95.0493"/><text fill="#000000" font-family="Arial" font-size="10" font-weight="bold" lengthAdjust="spacing" textLength="29" x="1429.5" y="119.4292">&#171;API&#187;</text><text fill="#000000" font-family="Arial" font-size="13" font-weight="bold" lengthAdjust="spacing" textLength="90" x="1399" y="133.7422">LayerLens API</text><rect fill="#EBF5FB" height="56.4478" rx="4" ry="4" style="stroke:#3498DB;stroke-width:2.0;" width="120" x="1384" y="1738.1069"/><text fill="#000000" font-family="Arial" font-size="10" font-weight="bold" lengthAdjust="spacing" textLength="29" x="1429.5" y="1762.4868">&#171;API&#187;</text><text fill="#000000" font-family="Arial" font-size="13" font-weight="bold" lengthAdjust="spacing" textLength="90" x="1399" y="1776.7998">LayerLens API</text><rect fill="#F8F8F8" height="194.1953" style="stroke:#000000;stroke-width:1.0;" width="10" x="312" y="263.0435"/><rect fill="#F8F8F8" height="207.1953" style="stroke:#000000;stroke-width:1.0;" width="10" x="312" y="1506.9116"/><rect fill="#F8F8F8" height="1046.5229" style="stroke:#000000;stroke-width:1.0;" width="10" x="697.5" y="667.584"/><rect fill="#F8F8F8" height="362.3906" style="stroke:#000000;stroke-width:1.0;" width="10" x="903.5" y="891.5781"/><path d="M5,171.4971 L5,203.4971 A4,4 0 0 0 9,207.4971 L1494,207.4971 A4,4 0 0 0 1498,203.4971 L1498,177.4971 L1488,167.4971 L9,167.4971 A4,4 0 0 0 5,171.4971 " fill="#FFFFDD" style="stroke:#999999;stroke-width:1.0;"/><path d="M1488,167.4971 L1488,175.4971 A2,2 0 0 0 1490,177.4971 L1498,177.4971 L1488,167.4971 " fill="#FFFFDD" style="stroke:#999999;stroke-width:1.0;"/><text fill="#000000" font-family="Arial" font-size="13" lengthAdjust="spacing" textLength="179" x="662" y="192.6909">Task Creation and Assignment</text><polygon fill="#000000" points="300,259.0435,310,263.0435,300,267.0435,304,263.0435" style="stroke:#000000;stroke-width:1.0;"/><line style="stroke:#000000;stroke-width:1.5;" x1="59" x2="306" y1="263.0435" y2="263.0435"/><text fill="#000000" font-family="Arial" font-size="12" lengthAdjust="spacing" textLength="139" x="76.5" y="236.7017">requestEval(modelName,</text><text fill="#000000" font-family="Arial" font-size="12" lengthAdjust="spacing" textLength="3" x="215.5" y="236.7017">&#160;</text><text fill="#000000" font-family="Arial" font-size="12" lengthAdjust="spacing" textLength="76" x="218.5" y="236.7017">datasetName,</text><text fill="#000000" font-family="Arial" font-size="12" lengthAdjust="spacing" textLength="46" x="162.5" y="250.5005">subsets)</text><polygon fill="#000000" points="524,302.8423,534,306.8423,524,310.8423,528,306.8423" style="stroke:#000000;stroke-width:1.0;"/><line style="stroke:#000000;stroke-width:1.5;" x1="322" x2="530" y1="306.8423" y2="306.8423"/><text fill="#000000" font-family="Arial" font-size="12" lengthAdjust="spacing" textLength="153" x="352.5" y="294.2993">popNextAssignedOperator()</text><polygon fill="#000000" points="333,346.6411,323,350.6411,333,354.6411,329,350.6411" style="stroke:#000000;stroke-width:1.0;"/><line style="stroke:#000000;stroke-width:1.5;stroke-dasharray:2.0,2.0;" x1="327" x2="535" y1="350.6411" y2="350.6411"/><text fill="#000000" font-family="Arial" font-size="12" lengthAdjust="spacing" textLength="98" x="380" y="338.0981">assignedOperator</text><line style="stroke:#000000;stroke-width:1.5;" x1="322" x2="364" y1="394.4399" y2="394.4399"/><line style="stroke:#000000;stroke-width:1.5;" x1="364" x2="364" y1="394.4399" y2="407.4399"/><line style="stroke:#000000;stroke-width:1.5;" x1="323" x2="364" y1="407.4399" y2="407.4399"/><polygon fill="#000000" points="333,403.4399,323,407.4399,333,411.4399,329,407.4399" style="stroke:#000000;stroke-width:1.0;"/><text fill="#000000" font-family="Arial" font-size="12" lengthAdjust="spacing" textLength="37" x="337" y="381.897">Create</text><text fill="#000000" font-family="Arial" font-size="12" lengthAdjust="spacing" textLength="3" x="374" y="381.897">&#160;</text><text fill="#000000" font-family="Arial" font-size="12" lengthAdjust="spacing" textLength="70" x="377" y="381.897">EvalAvsTask</text><line style="stroke:#000000;stroke-width:1.5;" x1="322" x2="364" y1="456.2388" y2="456.2388"/><line style="stroke:#000000;stroke-width:1.5;" x1="364" x2="364" y1="456.2388" y2="469.2388"/><line style="stroke:#000000;stroke-width:1.5;" x1="317" x2="364" y1="469.2388" y2="469.2388"/><polygon fill="#000000" points="327,465.2388,317,469.2388,327,473.2388,323,469.2388" style="stroke:#000000;stroke-width:1.0;"/><text fill="#000000" font-family="Arial" font-size="12" lengthAdjust="spacing" textLength="24" x="337" y="443.6958">Emit</text><text fill="#000000" font-family="Arial" font-size="12" lengthAdjust="spacing" textLength="3" x="361" y="443.6958">&#160;</text><text fill="#000000" font-family="Arial" font-size="12" lengthAdjust="spacing" textLength="84" x="364" y="443.6958">EvalRequested</text><text fill="#000000" font-family="Arial" font-size="12" lengthAdjust="spacing" textLength="3" x="448" y="443.6958">&#160;</text><text fill="#000000" font-family="Arial" font-size="12" lengthAdjust="spacing" textLength="31" x="451" y="443.6958">Event</text><line style="stroke:#000000;stroke-width:1.5;" x1="702.5" x2="744.5" y1="508.0376" y2="508.0376"/><line style="stroke:#000000;stroke-width:1.5;" x1="744.5" x2="744.5" y1="508.0376" y2="521.0376"/><line style="stroke:#000000;stroke-width:1.5;" x1="703.5" x2="744.5" y1="521.0376" y2="521.0376"/><polygon fill="#000000" points="713.5,517.0376,703.5,521.0376,713.5,525.0376,709.5,521.0376" style="stroke:#000000;stroke-width:1.0;"/><text fill="#000000" font-family="Arial" font-size="12" lengthAdjust="spacing" textLength="33" x="717.5" y="495.4946">Listen</text><text fill="#000000" font-family="Arial" font-size="12" lengthAdjust="spacing" textLength="3" x="750.5" y="495.4946">&#160;</text><text fill="#000000" font-family="Arial" font-size="12" lengthAdjust="spacing" textLength="14" x="753.5" y="495.4946">for</text><text fill="#000000" font-family="Arial" font-size="12" lengthAdjust="spacing" textLength="3" x="767.5" y="495.4946">&#160;</text><text fill="#000000" font-family="Arial" font-size="12" lengthAdjust="spacing" textLength="84" x="770.5" y="495.4946">EvalRequested</text><text fill="#000000" font-family="Arial" font-size="12" lengthAdjust="spacing" textLength="3" x="854.5" y="495.4946">&#160;</text><text fill="#000000" font-family="Arial" font-size="12" lengthAdjust="spacing" textLength="36" x="857.5" y="495.4946">events</text><polygon fill="#000000" points="690.5,560.8364,700.5,564.8364,690.5,568.8364,694.5,564.8364" style="stroke:#000000;stroke-width:1.0;"/><line style="stroke:#000000;stroke-width:1.5;" x1="317" x2="696.5" y1="564.8364" y2="564.8364"/><text fill="#000000" font-family="Arial" font-size="12" lengthAdjust="spacing" textLength="123" x="403.75" y="552.2935">EvalRequested(taskId,</text><text fill="#000000" font-family="Arial" font-size="12" lengthAdjust="spacing" textLength="3" x="526.75" y="552.2935">&#160;</text><text fill="#000000" font-family="Arial" font-size="12" lengthAdjust="spacing" textLength="25" x="529.75" y="552.2935">task,</text><text fill="#000000" font-family="Arial" font-size="12" lengthAdjust="spacing" textLength="3" x="554.75" y="552.2935">&#160;</text><text fill="#000000" font-family="Arial" font-size="12" lengthAdjust="spacing" textLength="58" x="557.75" y="552.2935">externalId)</text><path d="M633,581.8364 L633,613.8364 A4,4 0 0 0 637,617.8364 L1508,617.8364 A4,4 0 0 0 1512,613.8364 L1512,587.8364 L1502,577.8364 L637,577.8364 A4,4 0 0 0 633,581.8364 " fill="#FFFFDD" style="stroke:#999999;stroke-width:1.0;"/><path d="M1502,577.8364 L1502,585.8364 A2,2 0 0 0 1504,587.8364 L1512,587.8364 L1502,577.8364 " fill="#FFFFDD" style="stroke:#999999;stroke-width:1.0;"/><text fill="#000000" font-family="Arial" font-size="13" lengthAdjust="spacing" textLength="91" x="1027" y="603.0303">Task Execution</text><line style="stroke:#000000;stroke-width:1.5;" x1="702.5" x2="749.5" y1="654.584" y2="654.584"/><line style="stroke:#000000;stroke-width:1.5;" x1="749.5" x2="749.5" y1="654.584" y2="667.584"/><line style="stroke:#000000;stroke-width:1.5;" x1="708.5" x2="749.5" y1="667.584" y2="667.584"/><polygon fill="#000000" points="718.5,663.584,708.5,667.584,718.5,671.584,714.5,667.584" style="stroke:#000000;stroke-width:1.0;"/><text fill="#000000" font-family="Arial" font-size="12" lengthAdjust="spacing" textLength="35" x="722.5" y="642.041">Check</text><text fill="#000000" font-family="Arial" font-size="12" lengthAdjust="spacing" textLength="3" x="757.5" y="642.041">&#160;</text><text fill="#000000" font-family="Arial" font-size="12" lengthAdjust="spacing" textLength="6" x="760.5" y="642.041">if</text><text fill="#000000" font-family="Arial" font-size="12" lengthAdjust="spacing" textLength="3" x="766.5" y="642.041">&#160;</text><text fill="#000000" font-family="Arial" font-size="12" lengthAdjust="spacing" textLength="50" x="769.5" y="642.041">assigned</text><text fill="#000000" font-family="Arial" font-size="12" lengthAdjust="spacing" textLength="3" x="819.5" y="642.041">&#160;</text><text fill="#000000" font-family="Arial" font-size="12" lengthAdjust="spacing" textLength="10" x="822.5" y="642.041">to</text><text fill="#000000" font-family="Arial" font-size="12" lengthAdjust="spacing" textLength="3" x="832.5" y="642.041">&#160;</text><text fill="#000000" font-family="Arial" font-size="12" lengthAdjust="spacing" textLength="22" x="835.5" y="642.041">task</text><polygon fill="#000000" points="1079,712.3828,1089,716.3828,1079,720.3828,1083,716.3828" style="stroke:#000000;stroke-width:1.0;"/><line style="stroke:#000000;stroke-width:1.5;" x1="707.5" x2="1085" y1="716.3828" y2="716.3828"/><text fill="#000000" font-family="Arial" font-size="12" lengthAdjust="spacing" textLength="30" x="781.75" y="703.8398">Fetch</text><text fill="#000000" font-family="Arial" font-size="12" lengthAdjust="spacing" textLength="3" x="811.75" y="703.8398">&#160;</text><text fill="#000000" font-family="Arial" font-size="12" lengthAdjust="spacing" textLength="40" x="814.75" y="703.8398">dataset</text><text fill="#000000" font-family="Arial" font-size="12" lengthAdjust="spacing" textLength="3" x="854.75" y="703.8398">&#160;</text><text fill="#000000" font-family="Arial" font-size="12" lengthAdjust="spacing" textLength="22" x="857.75" y="703.8398">files</text><text fill="#000000" font-family="Arial" font-size="12" lengthAdjust="spacing" textLength="3" x="879.75" y="703.8398">&#160;</text><text fill="#000000" font-family="Arial" font-size="12" lengthAdjust="spacing" textLength="84" x="882.75" y="703.8398">(formatted.jsonl</text><text fill="#000000" font-family="Arial" font-size="12" lengthAdjust="spacing" textLength="3" x="966.75" y="703.8398">&#160;</text><text fill="#000000" font-family="Arial" font-size="12" lengthAdjust="spacing" textLength="7" x="969.75" y="703.8398">+</text><text fill="#000000" font-family="Arial" font-size="12" lengthAdjust="spacing" textLength="3" x="976.75" y="703.8398">&#160;</text><text fill="#000000" font-family="Arial" font-size="12" lengthAdjust="spacing" textLength="37" x="979.75" y="703.8398">config)</text><polygon fill="#000000" points="718.5,756.1816,708.5,760.1816,718.5,764.1816,714.5,760.1816" style="stroke:#000000;stroke-width:1.0;"/><line style="stroke:#000000;stroke-width:1.5;stroke-dasharray:2.0,2.0;" x1="712.5" x2="1090" y1="760.1816" y2="760.1816"/><text fill="#000000" font-family="Arial" font-size="12" lengthAdjust="spacing" textLength="37" x="846.75" y="747.6387">Return</text><text fill="#000000" font-family="Arial" font-size="12" lengthAdjust="spacing" textLength="3" x="883.75" y="747.6387">&#160;</text><text fill="#000000" font-family="Arial" font-size="12" lengthAdjust="spacing" textLength="40" x="886.75" y="747.6387">dataset</text><text fill="#000000" font-family="Arial" font-size="12" lengthAdjust="spacing" textLength="3" x="926.75" y="747.6387">&#160;</text><text fill="#000000" font-family="Arial" font-size="12" lengthAdjust="spacing" textLength="22" x="929.75" y="747.6387">files</text><polygon fill="#000000" points="1432,799.9805,1442,803.9805,1432,807.9805,1436,803.9805" style="stroke:#000000;stroke-width:1.0;"/><line style="stroke:#000000;stroke-width:1.5;" x1="707.5" x2="1438" y1="803.9805" y2="803.9805"/><text fill="#000000" font-family="Arial" font-size="12" lengthAdjust="spacing" textLength="46" x="978.75" y="791.4375">Request</text><text fill="#000000" font-family="Arial" font-size="12" lengthAdjust="spacing" textLength="3" x="1024.75" y="791.4375">&#160;</text><text fill="#000000" font-family="Arial" font-size="12" lengthAdjust="spacing" textLength="19" x="1027.75" y="791.4375">API</text><text fill="#000000" font-family="Arial" font-size="12" lengthAdjust="spacing" textLength="3" x="1046.75" y="791.4375">&#160;</text><text fill="#000000" font-family="Arial" font-size="12" lengthAdjust="spacing" textLength="21" x="1049.75" y="791.4375">Key</text><text fill="#000000" font-family="Arial" font-size="12" lengthAdjust="spacing" textLength="3" x="1070.75" y="791.4375">&#160;</text><text fill="#000000" font-family="Arial" font-size="12" lengthAdjust="spacing" textLength="14" x="1073.75" y="791.4375">for</text><text fill="#000000" font-family="Arial" font-size="12" lengthAdjust="spacing" textLength="3" x="1087.75" y="791.4375">&#160;</text><text fill="#000000" font-family="Arial" font-size="12" lengthAdjust="spacing" textLength="34" x="1090.75" y="791.4375">model</text><text fill="#000000" font-family="Arial" font-size="12" lengthAdjust="spacing" textLength="3" x="1124.75" y="791.4375">&#160;</text><text fill="#000000" font-family="Arial" font-size="12" lengthAdjust="spacing" textLength="45" x="1127.75" y="791.4375">provider</text><polygon fill="#000000" points="718.5,843.7793,708.5,847.7793,718.5,851.7793,714.5,847.7793" style="stroke:#000000;stroke-width:1.0;"/><line style="stroke:#000000;stroke-width:1.5;stroke-dasharray:2.0,2.0;" x1="712.5" x2="1443" y1="847.7793" y2="847.7793"/><text fill="#000000" font-family="Arial" font-size="12" lengthAdjust="spacing" textLength="37" x="1034.25" y="835.2363">Return</text><text fill="#000000" font-family="Arial" font-size="12" lengthAdjust="spacing" textLength="3" x="1071.25" y="835.2363">&#160;</text><text fill="#000000" font-family="Arial" font-size="12" lengthAdjust="spacing" textLength="19" x="1074.25" y="835.2363">API</text><text fill="#000000" font-family="Arial" font-size="12" lengthAdjust="spacing" textLength="3" x="1093.25" y="835.2363">&#160;</text><text fill="#000000" font-family="Arial" font-size="12" lengthAdjust="spacing" textLength="21" x="1096.25" y="835.2363">Key</text><polygon fill="#000000" points="891.5,887.5781,901.5,891.5781,891.5,895.5781,895.5,891.5781" style="stroke:#000000;stroke-width:1.0;"/><line style="stroke:#000000;stroke-width:1.5;" x1="707.5" x2="897.5" y1="891.5781" y2="891.5781"/><text fill="#000000" font-family="Arial" font-size="12" lengthAdjust="spacing" textLength="44" x="753.5" y="879.0352">Execute</text><text fill="#000000" font-family="Arial" font-size="12" lengthAdjust="spacing" textLength="3" x="797.5" y="879.0352">&#160;</text><text fill="#000000" font-family="Arial" font-size="12" lengthAdjust="spacing" textLength="57" x="800.5" y="879.0352">evaluation</text><path d="M829,906.5781 L914,906.5781 L914,929.5269 L904,939.5269 L825,939.5269 L825,910.5781 A4,4 0 0 1 829,906.5781 " fill="#EEEEEE" style="stroke:#CCCCCC;stroke-width:1.5;"/><rect fill="none" height="247.793" rx="4" ry="4" style="stroke:#CCCCCC;stroke-width:1.0;" width="539" x="825" y="906.5781"/><text fill="#000000" font-family="Arial" font-size="13" font-weight="bold" lengthAdjust="spacing" textLength="28" x="848" y="927.772">loop</text><text fill="#000000" font-family="Arial" font-size="11" font-weight="bold" lengthAdjust="spacing" textLength="151" x="937" y="926.896">[For each prompt in dataset]</text><polygon fill="#000000" points="1265,984.9746,1275,988.9746,1265,992.9746,1269,988.9746" style="stroke:#000000;stroke-width:1.0;"/><line style="stroke:#000000;stroke-width:1.5;" x1="913.5" x2="1271" y1="988.9746" y2="988.9746"/><text fill="#000000" font-family="Arial" font-size="12" lengthAdjust="spacing" textLength="29" x="1060.25" y="976.4316">Send</text><text fill="#000000" font-family="Arial" font-size="12" lengthAdjust="spacing" textLength="3" x="1089.25" y="976.4316">&#160;</text><text fill="#000000" font-family="Arial" font-size="12" lengthAdjust="spacing" textLength="38" x="1092.25" y="976.4316">prompt</text><polygon fill="#000000" points="924.5,1028.7734,914.5,1032.7734,924.5,1036.7734,920.5,1032.7734" style="stroke:#000000;stroke-width:1.0;"/><line style="stroke:#000000;stroke-width:1.5;stroke-dasharray:2.0,2.0;" x1="918.5" x2="1276" y1="1032.7734" y2="1032.7734"/><text fill="#000000" font-family="Arial" font-size="12" lengthAdjust="spacing" textLength="37" x="1049.75" y="1020.2305">Return</text><text fill="#000000" font-family="Arial" font-size="12" lengthAdjust="spacing" textLength="3" x="1086.75" y="1020.2305">&#160;</text><text fill="#000000" font-family="Arial" font-size="12" lengthAdjust="spacing" textLength="51" x="1089.75" y="1020.2305">response</text><line style="stroke:#000000;stroke-width:1.5;" x1="913.5" x2="955.5" y1="1076.5723" y2="1076.5723"/><line style="stroke:#000000;stroke-width:1.5;" x1="955.5" x2="955.5" y1="1076.5723" y2="1089.5723"/><line style="stroke:#000000;stroke-width:1.5;" x1="914.5" x2="955.5" y1="1089.5723" y2="1089.5723"/><polygon fill="#000000" points="924.5,1085.5723,914.5,1089.5723,924.5,1093.5723,920.5,1089.5723" style="stroke:#000000;stroke-width:1.0;"/><text fill="#000000" font-family="Arial" font-size="12" lengthAdjust="spacing" textLength="32" x="928.5" y="1064.0293">Score</text><text fill="#000000" font-family="Arial" font-size="12" lengthAdjust="spacing" textLength="3" x="960.5" y="1064.0293">&#160;</text><text fill="#000000" font-family="Arial" font-size="12" lengthAdjust="spacing" textLength="51" x="963.5" y="1064.0293">response</text><line style="stroke:#000000;stroke-width:1.5;" x1="913.5" x2="955.5" y1="1133.3711" y2="1133.3711"/><line style="stroke:#000000;stroke-width:1.5;" x1="955.5" x2="955.5" y1="1133.3711" y2="1146.3711"/><line style="stroke:#000000;stroke-width:1.5;" x1="914.5" x2="955.5" y1="1146.3711" y2="1146.3711"/><polygon fill="#000000" points="924.5,1142.3711,914.5,1146.3711,924.5,1150.3711,920.5,1146.3711" style="stroke:#000000;stroke-width:1.0;"/><text fill="#000000" font-family="Arial" font-size="12" lengthAdjust="spacing" textLength="29" x="928.5" y="1120.8281">Hash</text><text fill="#000000" font-family="Arial" font-size="12" lengthAdjust="spacing" textLength="3" x="957.5" y="1120.8281">&#160;</text><text fill="#000000" font-family="Arial" font-size="12" lengthAdjust="spacing" textLength="51" x="960.5" y="1120.8281">response</text><text fill="#000000" font-family="Arial" font-size="12" lengthAdjust="spacing" textLength="3" x="1011.5" y="1120.8281">&#160;</text><text fill="#000000" font-family="Arial" font-size="12" lengthAdjust="spacing" textLength="34" x="1014.5" y="1120.8281">(MD5)</text><line style="stroke:#000000;stroke-width:1.5;" x1="913.5" x2="955.5" y1="1197.1699" y2="1197.1699"/><line style="stroke:#000000;stroke-width:1.5;" x1="955.5" x2="955.5" y1="1197.1699" y2="1210.1699"/><line style="stroke:#000000;stroke-width:1.5;" x1="914.5" x2="955.5" y1="1210.1699" y2="1210.1699"/><polygon fill="#000000" points="924.5,1206.1699,914.5,1210.1699,924.5,1214.1699,920.5,1210.1699" style="stroke:#000000;stroke-width:1.0;"/><text fill="#000000" font-family="Arial" font-size="12" lengthAdjust="spacing" textLength="51" x="928.5" y="1184.627">Generate</text><text fill="#000000" font-family="Arial" font-size="12" lengthAdjust="spacing" textLength="3" x="979.5" y="1184.627">&#160;</text><text fill="#000000" font-family="Arial" font-size="12" lengthAdjust="spacing" textLength="54" x="982.5" y="1184.627">combined</text><text fill="#000000" font-family="Arial" font-size="12" lengthAdjust="spacing" textLength="3" x="1036.5" y="1184.627">&#160;</text><text fill="#000000" font-family="Arial" font-size="12" lengthAdjust="spacing" textLength="27" x="1039.5" y="1184.627">hash</text><polygon fill="#000000" points="718.5,1249.9688,708.5,1253.9688,718.5,1257.9688,714.5,1253.9688" style="stroke:#000000;stroke-width:1.0;"/><line style="stroke:#000000;stroke-width:1.5;stroke-dasharray:2.0,2.0;" x1="712.5" x2="907.5" y1="1253.9688" y2="1253.9688"/><text fill="#000000" font-family="Arial" font-size="12" lengthAdjust="spacing" textLength="37" x="743" y="1241.4258">Return</text><text fill="#000000" font-family="Arial" font-size="12" lengthAdjust="spacing" textLength="3" x="780" y="1241.4258">&#160;</text><text fill="#000000" font-family="Arial" font-size="12" lengthAdjust="spacing" textLength="36" x="783" y="1241.4258">results</text><text fill="#000000" font-family="Arial" font-size="12" lengthAdjust="spacing" textLength="3" x="819" y="1241.4258">&#160;</text><text fill="#000000" font-family="Arial" font-size="12" lengthAdjust="spacing" textLength="21" x="822" y="1241.4258">and</text><text fill="#000000" font-family="Arial" font-size="12" lengthAdjust="spacing" textLength="3" x="843" y="1241.4258">&#160;</text><text fill="#000000" font-family="Arial" font-size="12" lengthAdjust="spacing" textLength="27" x="846" y="1241.4258">hash</text><polygon fill="#000000" points="1432,1293.7676,1442,1297.7676,1432,1301.7676,1436,1297.7676" style="stroke:#000000;stroke-width:1.0;"/><line style="stroke:#000000;stroke-width:1.5;" x1="707.5" x2="1438" y1="1297.7676" y2="1297.7676"/><text fill="#000000" font-family="Arial" font-size="12" lengthAdjust="spacing" textLength="28" x="1018.75" y="1285.2246">Save</text><text fill="#000000" font-family="Arial" font-size="12" lengthAdjust="spacing" textLength="3" x="1046.75" y="1285.2246">&#160;</text><text fill="#000000" font-family="Arial" font-size="12" lengthAdjust="spacing" textLength="44" x="1049.75" y="1285.2246">detailed</text><text fill="#000000" font-family="Arial" font-size="12" lengthAdjust="spacing" textLength="3" x="1093.75" y="1285.2246">&#160;</text><text fill="#000000" font-family="Arial" font-size="12" lengthAdjust="spacing" textLength="36" x="1096.75" y="1285.2246">results</text><polygon fill="#000000" points="718.5,1337.5664,708.5,1341.5664,718.5,1345.5664,714.5,1341.5664" style="stroke:#000000;stroke-width:1.0;"/><line style="stroke:#000000;stroke-width:1.5;stroke-dasharray:2.0,2.0;" x1="712.5" x2="1443" y1="1341.5664" y2="1341.5664"/><text fill="#000000" font-family="Arial" font-size="12" lengthAdjust="spacing" textLength="43" x="1039.75" y="1329.0234">Confirm</text><text fill="#000000" font-family="Arial" font-size="12" lengthAdjust="spacing" textLength="3" x="1082.75" y="1329.0234">&#160;</text><text fill="#000000" font-family="Arial" font-size="12" lengthAdjust="spacing" textLength="26" x="1085.75" y="1329.0234">save</text><path d="M633,1358.5664 L633,1390.5664 A4,4 0 0 0 637,1394.5664 L1508,1394.5664 A4,4 0 0 0 1512,1390.5664 L1512,1364.5664 L1502,1354.5664 L637,1354.5664 A4,4 0 0 0 633,1358.5664 " fill="#FFFFDD" style="stroke:#999999;stroke-width:1.0;"/><path d="M1502,1354.5664 L1502,1362.5664 A2,2 0 0 0 1504,1364.5664 L1512,1364.5664 L1502,1354.5664 " fill="#FFFFDD" style="stroke:#999999;stroke-width:1.0;"/><text fill="#000000" font-family="Arial" font-size="13" lengthAdjust="spacing" textLength="109" x="1018" y="1379.7603">Result Submission</text><line style="stroke:#000000;stroke-width:1.5;" x1="707.5" x2="749.5" y1="1436.314" y2="1436.314"/><line style="stroke:#000000;stroke-width:1.5;" x1="749.5" x2="749.5" y1="1436.314" y2="1449.314"/><line style="stroke:#000000;stroke-width:1.5;" x1="708.5" x2="749.5" y1="1449.314" y2="1449.314"/><polygon fill="#000000" points="718.5,1445.314,708.5,1449.314,718.5,1453.314,714.5,1449.314" style="stroke:#000000;stroke-width:1.0;"/><text fill="#000000" font-family="Arial" font-size="12" lengthAdjust="spacing" textLength="51" x="722.5" y="1423.771">Generate</text><text fill="#000000" font-family="Arial" font-size="12" lengthAdjust="spacing" textLength="3" x="773.5" y="1423.771">&#160;</text><text fill="#000000" font-family="Arial" font-size="12" lengthAdjust="spacing" textLength="23" x="776.5" y="1423.771">BLS</text><text fill="#000000" font-family="Arial" font-size="12" lengthAdjust="spacing" textLength="3" x="799.5" y="1423.771">&#160;</text><text fill="#000000" font-family="Arial" font-size="12" lengthAdjust="spacing" textLength="51" x="802.5" y="1423.771">signature</text><polygon fill="#000000" points="333,1502.9116,323,1506.9116,333,1510.9116,329,1506.9116" style="stroke:#000000;stroke-width:1.0;"/><line style="stroke:#000000;stroke-width:1.5;" x1="327" x2="696.5" y1="1506.9116" y2="1506.9116"/><text fill="#000000" font-family="Arial" font-size="12" lengthAdjust="spacing" textLength="168" x="409.25" y="1480.5698">respondToEvalRequest(taskId,</text><text fill="#000000" font-family="Arial" font-size="12" lengthAdjust="spacing" textLength="3" x="577.25" y="1480.5698">&#160;</text><text fill="#000000" font-family="Arial" font-size="12" lengthAdjust="spacing" textLength="30" x="580.25" y="1480.5698">hash,</text><text fill="#000000" font-family="Arial" font-size="12" lengthAdjust="spacing" textLength="55" x="482.25" y="1494.3687">signature)</text><line style="stroke:#000000;stroke-width:1.5;" x1="322" x2="364" y1="1550.7104" y2="1550.7104"/><line style="stroke:#000000;stroke-width:1.5;" x1="364" x2="364" y1="1550.7104" y2="1563.7104"/><line style="stroke:#000000;stroke-width:1.5;" x1="323" x2="364" y1="1563.7104" y2="1563.7104"/><polygon fill="#000000" points="333,1559.7104,323,1563.7104,333,1567.7104,329,1563.7104" style="stroke:#000000;stroke-width:1.0;"/><text fill="#000000" font-family="Arial" font-size="12" lengthAdjust="spacing" textLength="31" x="337" y="1538.1675">Verify</text><text fill="#000000" font-family="Arial" font-size="12" lengthAdjust="spacing" textLength="3" x="368" y="1538.1675">&#160;</text><text fill="#000000" font-family="Arial" font-size="12" lengthAdjust="spacing" textLength="51" x="371" y="1538.1675">signature</text><line style="stroke:#000000;stroke-width:1.5;" x1="322" x2="364" y1="1607.5093" y2="1607.5093"/><line style="stroke:#000000;stroke-width:1.5;" x1="364" x2="364" y1="1607.5093" y2="1620.5093"/><line style="stroke:#000000;stroke-width:1.5;" x1="323" x2="364" y1="1620.5093" y2="1620.5093"/><polygon fill="#000000" points="333,1616.5093,323,1620.5093,333,1624.5093,329,1620.5093" style="stroke:#000000;stroke-width:1.0;"/><text fill="#000000" font-family="Arial" font-size="12" lengthAdjust="spacing" textLength="40" x="337" y="1594.9663">Update</text><text fill="#000000" font-family="Arial" font-size="12" lengthAdjust="spacing" textLength="3" x="377" y="1594.9663">&#160;</text><text fill="#000000" font-family="Arial" font-size="12" lengthAdjust="spacing" textLength="22" x="380" y="1594.9663">task</text><text fill="#000000" font-family="Arial" font-size="12" lengthAdjust="spacing" textLength="3" x="402" y="1594.9663">&#160;</text><text fill="#000000" font-family="Arial" font-size="12" lengthAdjust="spacing" textLength="26" x="405" y="1594.9663">state</text><text fill="#000000" font-family="Arial" font-size="12" lengthAdjust="spacing" textLength="3" x="431" y="1594.9663">&#160;</text><text fill="#000000" font-family="Arial" font-size="12" lengthAdjust="spacing" textLength="10" x="434" y="1594.9663">to</text><text fill="#000000" font-family="Arial" font-size="12" lengthAdjust="spacing" textLength="3" x="444" y="1594.9663">&#160;</text><text fill="#000000" font-family="Arial" font-size="12" lengthAdjust="spacing" textLength="69" x="447" y="1594.9663">SUBMITTED</text><polygon fill="#000000" points="524,1660.3081,534,1664.3081,524,1668.3081,528,1664.3081" style="stroke:#000000;stroke-width:1.0;"/><line style="stroke:#000000;stroke-width:1.5;" x1="322" x2="530" y1="1664.3081" y2="1664.3081"/><text fill="#000000" font-family="Arial" font-size="12" lengthAdjust="spacing" textLength="22" x="353.5" y="1651.7651">Add</text><text fill="#000000" font-family="Arial" font-size="12" lengthAdjust="spacing" textLength="3" x="375.5" y="1651.7651">&#160;</text><text fill="#000000" font-family="Arial" font-size="12" lengthAdjust="spacing" textLength="46" x="378.5" y="1651.7651">operator</text><text fill="#000000" font-family="Arial" font-size="12" lengthAdjust="spacing" textLength="3" x="424.5" y="1651.7651">&#160;</text><text fill="#000000" font-family="Arial" font-size="12" lengthAdjust="spacing" textLength="26" x="427.5" y="1651.7651">back</text><text fill="#000000" font-family="Arial" font-size="12" lengthAdjust="spacing" textLength="3" x="453.5" y="1651.7651">&#160;</text><text fill="#000000" font-family="Arial" font-size="12" lengthAdjust="spacing" textLength="10" x="456.5" y="1651.7651">to</text><text fill="#000000" font-family="Arial" font-size="12" lengthAdjust="spacing" textLength="3" x="466.5" y="1651.7651">&#160;</text><text fill="#000000" font-family="Arial" font-size="12" lengthAdjust="spacing" textLength="35" x="469.5" y="1651.7651">queue</text><line style="stroke:#000000;stroke-width:1.5;" x1="322" x2="364" y1="1713.1069" y2="1713.1069"/><line style="stroke:#000000;stroke-width:1.5;" x1="364" x2="364" y1="1713.1069" y2="1726.1069"/><line style="stroke:#000000;stroke-width:1.5;" x1="317" x2="364" y1="1726.1069" y2="1726.1069"/><polygon fill="#000000" points="327,1722.1069,317,1726.1069,327,1730.1069,323,1726.1069" style="stroke:#000000;stroke-width:1.0;"/><text fill="#000000" font-family="Arial" font-size="12" lengthAdjust="spacing" textLength="24" x="337" y="1700.564">Emit</text><text fill="#000000" font-family="Arial" font-size="12" lengthAdjust="spacing" textLength="3" x="361" y="1700.564">&#160;</text><text fill="#000000" font-family="Arial" font-size="12" lengthAdjust="spacing" textLength="84" x="364" y="1700.564">EvalCompleted</text><text fill="#000000" font-family="Arial" font-size="12" lengthAdjust="spacing" textLength="3" x="448" y="1700.564">&#160;</text><text fill="#000000" font-family="Arial" font-size="12" lengthAdjust="spacing" textLength="31" x="451" y="1700.564">Event</text><rect fill="none" height="383.085" id="_legend" rx="4" ry="4" style="stroke:#000000;stroke-width:1.0;" width="355" x="1161" y="1843.2056"/><text fill="#000000" font-family="Arial" font-size="14" font-weight="bold" lengthAdjust="spacing" textLength="78" x="1186" y="1879.3374">Entity Type</text><text fill="#000000" font-family="Arial" font-size="14" font-weight="bold" lengthAdjust="spacing" textLength="79" x="1288" y="1879.3374">Description</text><rect fill="#E9F7EF" height="32.0986" style="stroke:none;stroke-width:1.0;" width="102" x="1174" y="1890.3042"/><text fill="#000000" font-family="Arial" font-size="14" lengthAdjust="spacing" textLength="4" x="1182" y="1911.436">&#160;</text><text fill="#000000" font-family="Arial" font-size="14" lengthAdjust="spacing" textLength="203" x="1288" y="1911.436">Frontend - Web/UI Components</text><rect fill="#EBF5FB" height="32.0986" style="stroke:none;stroke-width:1.0;" width="102" x="1174" y="1922.4028"/><text fill="#000000" font-family="Arial" font-size="14" lengthAdjust="spacing" textLength="4" x="1182" y="1943.5347">&#160;</text><text fill="#000000" font-family="Arial" font-size="14" lengthAdjust="spacing" textLength="148" x="1288" y="1943.5347">API - Backend Services</text><rect fill="#F9EBEA" height="32.0986" style="stroke:none;stroke-width:1.0;" width="102" x="1174" y="1954.5015"/><text fill="#000000" font-family="Arial" font-size="14" lengthAdjust="spacing" textLength="4" x="1182" y="1975.6333">&#160;</text><text fill="#000000" font-family="Arial" font-size="14" lengthAdjust="spacing" textLength="190" x="1288" y="1975.6333">Auth - Authentication Services</text><rect fill="#F4ECF7" height="32.0986" style="stroke:none;stroke-width:1.0;" width="102" x="1174" y="1986.6001"/><text fill="#000000" font-family="Arial" font-size="14" lengthAdjust="spacing" textLength="4" x="1182" y="2007.7319">&#160;</text><text fill="#000000" font-family="Arial" font-size="14" lengthAdjust="spacing" textLength="158" x="1288" y="2007.7319">Database - Data Storage</text><rect fill="#FEF9E7" height="32.0986" style="stroke:none;stroke-width:1.0;" width="102" x="1174" y="2018.6987"/><text fill="#000000" font-family="Arial" font-size="14" lengthAdjust="spacing" textLength="4" x="1182" y="2039.8306">&#160;</text><text fill="#000000" font-family="Arial" font-size="14" lengthAdjust="spacing" textLength="181" x="1288" y="2039.8306">External - 3rd Party Services</text><rect fill="#FADBD8" height="32.0986" style="stroke:none;stroke-width:1.0;" width="102" x="1174" y="2050.7974"/><text fill="#000000" font-family="Arial" font-size="14" lengthAdjust="spacing" textLength="4" x="1182" y="2071.9292">&#160;</text><text fill="#000000" font-family="Arial" font-size="14" lengthAdjust="spacing" textLength="170" x="1288" y="2071.9292">Contract - Smart Contracts</text><rect fill="#FCF3CF" height="32.0986" style="stroke:none;stroke-width:1.0;" width="102" x="1174" y="2082.896"/><text fill="#000000" font-family="Arial" font-size="14" lengthAdjust="spacing" textLength="4" x="1182" y="2104.0278">&#160;</text><text fill="#000000" font-family="Arial" font-size="14" lengthAdjust="spacing" textLength="168" x="1288" y="2104.0278">Queue - Message Queues</text><rect fill="#D6EAF8" height="32.0986" style="stroke:none;stroke-width:1.0;" width="102" x="1174" y="2114.9946"/><text fill="#000000" font-family="Arial" font-size="14" lengthAdjust="spacing" textLength="4" x="1182" y="2136.1265">&#160;</text><text fill="#000000" font-family="Arial" font-size="14" lengthAdjust="spacing" textLength="171" x="1288" y="2136.1265">Operator - Validator Nodes</text><rect fill="#D4EFDF" height="32.0986" style="stroke:none;stroke-width:1.0;" width="102" x="1174" y="2147.0933"/><text fill="#000000" font-family="Arial" font-size="14" lengthAdjust="spacing" textLength="4" x="1182" y="2168.2251">&#160;</text><text fill="#000000" font-family="Arial" font-size="14" lengthAdjust="spacing" textLength="197" x="1288" y="2168.2251">Evaluator - Evaluation Services</text><rect fill="#F5EEF8" height="32.0986" style="stroke:none;stroke-width:1.0;" width="102" x="1174" y="2179.1919"/><text fill="#000000" font-family="Arial" font-size="14" lengthAdjust="spacing" textLength="4" x="1182" y="2200.3237">&#160;</text><text fill="#000000" font-family="Arial" font-size="14" lengthAdjust="spacing" textLength="171" x="1288" y="2200.3237">Storage - Storage Services</text><line style="stroke:#000000;stroke-width:1.0;" x1="1174" x2="1503" y1="1858.2056" y2="1858.2056"/><line style="stroke:#000000;stroke-width:1.0;" x1="1174" x2="1503" y1="1890.3042" y2="1890.3042"/><line style="stroke:#000000;stroke-width:1.0;" x1="1174" x2="1503" y1="1922.4028" y2="1922.4028"/><line style="stroke:#000000;stroke-width:1.0;" x1="1174" x2="1503" y1="1954.5015" y2="1954.5015"/><line style="stroke:#000000;stroke-width:1.0;" x1="1174" x2="1503" y1="1986.6001" y2="1986.6001"/><line style="stroke:#000000;stroke-width:1.0;" x1="1174" x2="1503" y1="2018.6987" y2="2018.6987"/><line style="stroke:#000000;stroke-width:1.0;" x1="1174" x2="1503" y1="2050.7974" y2="2050.7974"/><line style="stroke:#000000;stroke-width:1.0;" x1="1174" x2="1503" y1="2082.896" y2="2082.896"/><line style="stroke:#000000;stroke-width:1.0;" x1="1174" x2="1503" y1="2114.9946" y2="2114.9946"/><line style="stroke:#000000;stroke-width:1.0;" x1="1174" x2="1503" y1="2147.0933" y2="2147.0933"/><line style="stroke:#000000;stroke-width:1.0;" x1="1174" x2="1503" y1="2179.1919" y2="2179.1919"/><line style="stroke:#000000;stroke-width:1.0;" x1="1174" x2="1503" y1="2211.2905" y2="2211.2905"/><line style="stroke:#000000;stroke-width:1.0;" x1="1174" x2="1174" y1="1858.2056" y2="2211.2905"/><line style="stroke:#000000;stroke-width:1.0;" x1="1276" x2="1276" y1="1858.2056" y2="2211.2905"/><line style="stroke:#000000;stroke-width:1.0;" x1="1503" x2="1503" y1="1858.2056" y2="2211.2905"/><!--SRC=[ZLNVRzem47xtNt7Roq23QblL5pHLehJTga7NDNJlRdo0HsAdjaFB_lgTJP8wAML5WjYvxxxxVRoJAirAWP3gFDTgQDqsmwEYp3F6Fi2CI-Ne2rRd2BR0L2va2cbfdSxbN-waLXOMse1RIGj2ygNXERDhgGfE9yYaGhSj4BHnAnq9RhXnCfK5L-w62o7L4hvyYkG9FfIeKZpJJxNySomV6wCVvokPhXLQ2v-FJXXpqcK8SsxNC34Od0Ek18ojbKkLet9mcUb7ndZgoEMnoALYnRCZyFvYmxFnndgA6LTyYUOzS0lH7Rv-dMZb356SdhQL8pE_IYmng8OJAOLdL-DdWOQJAm5PNmXS7xluRzexM3OgqPsqcdDNxPmxRj71BIwbTMOBlUIu7mYIOz9BI8L2wsfDfpEuCNeZHPK5_uAiF3aqYcSlu7oBPehK3kERgu2d9-7fbw1CQKTDiC4gxGCl7Hsi5MC12SFJEFyZCBuphFFHzd8jCBlcEGv0x8BSNMnvJsVRzvMM6-umfc1nEOazb6O4XIwkySdj741Hrw3NPxiQ3hkEy0woozi2Xo0HeWOx2B_8fGlWsrsqAEZcao9mRqYiwHvYgiyZc5AzKOK1RPEX9xDT5vuLM-WUPNPz9GRWdmF0gWEkH3-kQwqSb_RY2TFIr_Or1oShJDSW5qqomUbWvhboJNfZXkHu19VeqbLTTrZ832tqADISEtBww8_LAeEFjDZKGYxxZ7fzsB9zYwuqgatGCXBYgB8Gkla7RaCkGzj1KGq7ywAzr9LEYpIQsL6L7wHoX5SXKKtW4P9bMXTmIGnK_fMtd1SEPECy0_h4su0CqRYEQ8tIJEtW0UDdUDZrelBMe2redUC-iXO-IRN1jyE_SxjgqD2RdP_q6Rd53kbyG-LJ5lwMxgNlYnMnj5NsPPpCb9cpOPK4ZMXUudo-h7F2DmW2wTyk8siLpvxIJdmxcHmiuG-q_sqWWAIypoMrzkiJq4HwDat0pm2dGB05xgm_dqWnrz68DWFgGnuyixnj_xNeVwEHYstao27mNI4yjxSEreMZXkJkR7Ordr-Slx9dnqA0hgExvpJ-fFJWPM_RY1DgvWp_kn6ZrtKk_m40]--></g></svg>