<?xml version="1.0" encoding="us-ascii" standalone="no"?><svg xmlns="http://www.w3.org/2000/svg" xmlns:xlink="http://www.w3.org/1999/xlink" contentStyleType="text/css" height="943px" preserveAspectRatio="none" style="width:1362px;height:943px;background:#FFFFFF;" version="1.1" viewBox="0 0 1362 943" width="1362px" zoomAndPan="magnify"><defs><filter height="1" id="byjyfpxkwdqh0" width="1" x="0" y="0"><feFlood flood-color="#E9F7EF" result="flood"/><feComposite in="SourceGraphic" in2="flood" operator="over"/></filter><filter height="1" id="byjyfpxkwdqh1" width="1" x="0" y="0"><feFlood flood-color="#EBF5FB" result="flood"/><feComposite in="SourceGraphic" in2="flood" operator="over"/></filter><filter height="1" id="byjyfpxkwdqh2" width="1" x="0" y="0"><feFlood flood-color="#F9EBEA" result="flood"/><feComposite in="SourceGraphic" in2="flood" operator="over"/></filter><filter height="1" id="byjyfpxkwdqh3" width="1" x="0" y="0"><feFlood flood-color="#F4ECF7" result="flood"/><feComposite in="SourceGraphic" in2="flood" operator="over"/></filter><filter height="1" id="byjyfpxkwdqh4" width="1" x="0" y="0"><feFlood flood-color="#FEF9E7" result="flood"/><feComposite in="SourceGraphic" in2="flood" operator="over"/></filter><filter height="1" id="byjyfpxkwdqh5" width="1" x="0" y="0"><feFlood flood-color="#FADBD8" result="flood"/><feComposite in="SourceGraphic" in2="flood" operator="over"/></filter><filter height="1" id="byjyfpxkwdqh6" width="1" x="0" y="0"><feFlood flood-color="#FCF3CF" result="flood"/><feComposite in="SourceGraphic" in2="flood" operator="over"/></filter><filter height="1" id="byjyfpxkwdqh7" width="1" x="0" y="0"><feFlood flood-color="#D6EAF8" result="flood"/><feComposite in="SourceGraphic" in2="flood" operator="over"/></filter><filter height="1" id="byjyfpxkwdqh8" width="1" x="0" y="0"><feFlood flood-color="#D4EFDF" result="flood"/><feComposite in="SourceGraphic" in2="flood" operator="over"/></filter><filter height="1" id="byjyfpxkwdqh9" width="1" x="0" y="0"><feFlood flood-color="#F5EEF8" result="flood"/><feComposite in="SourceGraphic" in2="flood" operator="over"/></filter></defs><g><!--cluster Smart Contracts--><g id="cluster_Smart Contracts"><rect fill="none" height="327" rx="4" ry="4" style="stroke:#999999;stroke-width:1.0;" width="290" x="14" y="251"/><text fill="#000000" font-family="sans-serif" font-size="14" font-weight="bold" lengthAdjust="spacing" textLength="128" x="95" y="265.9951">Smart Contracts</text></g><!--cluster Operator--><g id="cluster_Operator"><rect fill="none" height="582" rx="4" ry="4" style="stroke:#999999;stroke-width:1.0;" width="712" x="345" y="4"/><text fill="#000000" font-family="sans-serif" font-size="14" font-weight="bold" lengthAdjust="spacing" textLength="71" x="665.5" y="18.9951">Operator</text></g><!--cluster Evaluator--><g id="cluster_Evaluator"><rect fill="none" height="327" rx="4" ry="4" style="stroke:#999999;stroke-width:1.0;" width="304" x="641" y="251"/><text fill="#000000" font-family="sans-serif" font-size="14" font-weight="bold" lengthAdjust="spacing" textLength="73" x="756.5" y="265.9951">Evaluator</text></g><!--cluster Infrastructure--><g id="cluster_Infrastructure"><rect fill="none" height="212" rx="4" ry="4" style="stroke:#999999;stroke-width:1.0;" width="291" x="1065" y="4"/><text fill="#000000" font-family="sans-serif" font-size="14" font-weight="bold" lengthAdjust="spacing" textLength="110" x="1155.5" y="18.9951">Infrastructure</text></g><!--cluster External--><g id="cluster_External"><rect fill="none" height="97" rx="4" ry="4" style="stroke:#999999;stroke-width:1.0;" width="549" x="122" y="619"/><text fill="#000000" font-family="sans-serif" font-size="14" font-weight="bold" lengthAdjust="spacing" textLength="64" x="364.5" y="633.9951">External</text></g><!--entity service_manager--><g id="elem_service_manager"><rect fill="#FADBD8" height="61.9063" rx="4" ry="4" style="stroke:#943126;stroke-width:2.0;" width="166" x="55" y="393"/><text fill="#000000" font-family="Arial" font-size="12" font-style="italic" lengthAdjust="spacing" textLength="68" x="104" y="414.1387">&#171;Contract&#187;</text><text fill="#000000" font-family="Arial" font-size="12" lengthAdjust="spacing" textLength="146" x="65" y="428.1074">EvalAvsServiceManager</text><text fill="#000000" font-family="Arial" font-size="12" lengthAdjust="spacing" textLength="54" x="111" y="442.0762">(Solidity)</text></g><!--entity task_manager--><g id="elem_task_manager"><rect fill="#FADBD8" height="61.9063" rx="4" ry="4" style="stroke:#943126;stroke-width:2.0;" width="150" x="146" y="278"/><text fill="#000000" font-family="Arial" font-size="12" font-style="italic" lengthAdjust="spacing" textLength="68" x="187" y="299.1387">&#171;Contract&#187;</text><text fill="#000000" font-family="Arial" font-size="12" lengthAdjust="spacing" textLength="130" x="156" y="313.1074">EvalAvsTaskManager</text><text fill="#000000" font-family="Arial" font-size="12" lengthAdjust="spacing" textLength="54" x="194" y="327.0762">(Solidity)</text></g><!--entity bls_registry--><g id="elem_bls_registry"><rect fill="#FADBD8" height="61.9063" rx="4" ry="4" style="stroke:#943126;stroke-width:2.0;" width="162" x="59" y="508"/><text fill="#000000" font-family="Arial" font-size="12" font-style="italic" lengthAdjust="spacing" textLength="68" x="106" y="529.1387">&#171;Contract&#187;</text><text fill="#000000" font-family="Arial" font-size="12" lengthAdjust="spacing" textLength="142" x="69" y="543.1074">BlsRegistryCoordinator</text><text fill="#000000" font-family="Arial" font-size="12" lengthAdjust="spacing" textLength="54" x="113" y="557.0762">(Solidity)</text></g><!--entity stake_registry--><g id="elem_stake_registry"><rect fill="#FADBD8" height="61.9063" rx="4" ry="4" style="stroke:#943126;stroke-width:2.0;" width="106" x="22" y="278"/><text fill="#000000" font-family="Arial" font-size="12" font-style="italic" lengthAdjust="spacing" textLength="68" x="41" y="299.1387">&#171;Contract&#187;</text><text fill="#000000" font-family="Arial" font-size="12" lengthAdjust="spacing" textLength="86" x="32" y="313.1074">StakeRegistry</text><text fill="#000000" font-family="Arial" font-size="12" lengthAdjust="spacing" textLength="54" x="48" y="327.0762">(Solidity)</text></g><!--entity op_service--><g id="elem_op_service"><rect fill="#D6EAF8" height="61.9063" rx="4" ry="4" style="stroke:#2E86C1;stroke-width:2.0;" width="125" x="504.5" y="146"/><text fill="#000000" font-family="Arial" font-size="12" font-style="italic" lengthAdjust="spacing" textLength="69" x="532.5" y="167.1387">&#171;Operator&#187;</text><text fill="#000000" font-family="Arial" font-size="12" lengthAdjust="spacing" textLength="105" x="514.5" y="181.1074">Operator Service</text><text fill="#000000" font-family="Arial" font-size="12" lengthAdjust="spacing" textLength="27" x="553.5" y="195.0762">(Go)</text></g><!--entity op_cli--><g id="elem_op_cli"><rect fill="#EBF5FB" height="61.9063" rx="4" ry="4" style="stroke:#3498DB;stroke-width:2.0;" width="97" x="414.5" y="31"/><text fill="#000000" font-family="Arial" font-size="12" font-style="italic" lengthAdjust="spacing" textLength="33" x="446.5" y="52.1387">&#171;API&#187;</text><text fill="#000000" font-family="Arial" font-size="12" lengthAdjust="spacing" textLength="77" x="424.5" y="66.1074">Operator CLI</text><text fill="#000000" font-family="Arial" font-size="12" lengthAdjust="spacing" textLength="27" x="449.5" y="80.0762">(Go)</text></g><!--entity task_queue--><g id="elem_task_queue"><rect fill="#FCF3CF" height="61.9063" rx="4" ry="4" style="stroke:#B7950B;stroke-width:2.0;" width="94" x="955" y="278"/><text fill="#000000" font-family="Arial" font-size="12" font-style="italic" lengthAdjust="spacing" textLength="54" x="975" y="299.1387">&#171;Queue&#187;</text><text fill="#000000" font-family="Arial" font-size="12" lengthAdjust="spacing" textLength="74" x="965" y="313.1074">Task Queue</text><text fill="#000000" font-family="Arial" font-size="12" lengthAdjust="spacing" textLength="27" x="988.5" y="327.0762">(Go)</text></g><!--entity bls_signer--><g id="elem_bls_signer"><rect fill="#D6EAF8" height="61.9063" rx="4" ry="4" style="stroke:#2E86C1;stroke-width:2.0;" width="141" x="489.5" y="278"/><text fill="#000000" font-family="Arial" font-size="12" font-style="italic" lengthAdjust="spacing" textLength="69" x="525.5" y="299.1387">&#171;Operator&#187;</text><text fill="#000000" font-family="Arial" font-size="12" lengthAdjust="spacing" textLength="121" x="499.5" y="313.1074">BLS Signing Module</text><text fill="#000000" font-family="Arial" font-size="12" lengthAdjust="spacing" textLength="27" x="546.5" y="327.0762">(Go)</text></g><!--entity config_mgr--><g id="elem_config_mgr"><rect fill="#D6EAF8" height="61.9063" rx="4" ry="4" style="stroke:#2E86C1;stroke-width:2.0;" width="118" x="353" y="278"/><text fill="#000000" font-family="Arial" font-size="12" font-style="italic" lengthAdjust="spacing" textLength="69" x="377.5" y="299.1387">&#171;Operator&#187;</text><text fill="#000000" font-family="Arial" font-size="12" lengthAdjust="spacing" textLength="98" x="363" y="313.1074">Config Manager</text><text fill="#000000" font-family="Arial" font-size="12" lengthAdjust="spacing" textLength="27" x="398.5" y="327.0762">(Go)</text></g><!--entity model_factory--><g id="elem_model_factory"><rect fill="#D4EFDF" height="61.9063" rx="4" ry="4" style="stroke:#196F3D;stroke-width:2.0;" width="146" x="649" y="278"/><text fill="#000000" font-family="Arial" font-size="12" font-style="italic" lengthAdjust="spacing" textLength="73" x="685.5" y="299.1387">&#171;Evaluator&#187;</text><text fill="#000000" font-family="Arial" font-size="12" lengthAdjust="spacing" textLength="126" x="659" y="313.1074">Model Client Factory</text><text fill="#000000" font-family="Arial" font-size="12" lengthAdjust="spacing" textLength="27" x="708.5" y="327.0762">(Go)</text></g><!--entity scorer--><g id="elem_scorer"><rect fill="#D4EFDF" height="61.9063" rx="4" ry="4" style="stroke:#196F3D;stroke-width:2.0;" width="127" x="651.5" y="508"/><text fill="#000000" font-family="Arial" font-size="12" font-style="italic" lengthAdjust="spacing" textLength="73" x="678.5" y="529.1387">&#171;Evaluator&#187;</text><text fill="#000000" font-family="Arial" font-size="12" lengthAdjust="spacing" textLength="107" x="661.5" y="543.1074">Response Scorer</text><text fill="#000000" font-family="Arial" font-size="12" lengthAdjust="spacing" textLength="27" x="701.5" y="557.0762">(Go)</text></g><!--entity processor--><g id="elem_processor"><rect fill="#D4EFDF" height="61.9063" rx="4" ry="4" style="stroke:#196F3D;stroke-width:2.0;" width="126" x="763" y="393"/><text fill="#000000" font-family="Arial" font-size="12" font-style="italic" lengthAdjust="spacing" textLength="73" x="789.5" y="414.1387">&#171;Evaluator&#187;</text><text fill="#000000" font-family="Arial" font-size="12" lengthAdjust="spacing" textLength="106" x="773" y="428.1074">Result Processor</text><text fill="#000000" font-family="Arial" font-size="12" lengthAdjust="spacing" textLength="27" x="812.5" y="442.0762">(Go)</text></g><!--entity metrics--><g id="elem_metrics"><rect fill="#D4EFDF" height="61.9063" rx="4" ry="4" style="stroke:#196F3D;stroke-width:2.0;" width="124" x="813" y="278"/><text fill="#000000" font-family="Arial" font-size="12" font-style="italic" lengthAdjust="spacing" textLength="73" x="838.5" y="299.1387">&#171;Evaluator&#187;</text><text fill="#000000" font-family="Arial" font-size="12" lengthAdjust="spacing" textLength="104" x="823" y="313.1074">Metrics Collector</text><text fill="#000000" font-family="Arial" font-size="12" lengthAdjust="spacing" textLength="27" x="861.5" y="327.0762">(Go)</text></g><!--entity docker--><g id="elem_docker"><rect fill="#FEF9E7" height="61.9063" rx="4" ry="4" style="stroke:#F1C40F;stroke-width:2.0;" width="129" x="1073.5" y="31"/><text fill="#000000" font-family="Arial" font-size="12" font-style="italic" lengthAdjust="spacing" textLength="66" x="1105" y="52.1387">&#171;External&#187;</text><text fill="#000000" font-family="Arial" font-size="12" lengthAdjust="spacing" textLength="109" x="1083.5" y="66.1074">Docker Container</text><text fill="#000000" font-family="Arial" font-size="12" lengthAdjust="spacing" textLength="54" x="1111" y="80.0762">(Docker)</text></g><!--entity monitor--><g id="elem_monitor"><rect fill="#EBF5FB" height="61.9063" rx="4" ry="4" style="stroke:#3498DB;stroke-width:2.0;" width="127" x="1220.5" y="31"/><text fill="#000000" font-family="Arial" font-size="12" font-style="italic" lengthAdjust="spacing" textLength="33" x="1267.5" y="52.1387">&#171;API&#187;</text><text fill="#000000" font-family="Arial" font-size="12" lengthAdjust="spacing" textLength="107" x="1230.5" y="66.1074">Monitoring Agent</text><text fill="#000000" font-family="Arial" font-size="12" lengthAdjust="spacing" textLength="27" x="1270.5" y="80.0762">(Go)</text></g><!--entity health--><g id="elem_health"><rect fill="#EBF5FB" height="61.9063" rx="4" ry="4" style="stroke:#3498DB;stroke-width:2.0;" width="116" x="1082" y="146"/><text fill="#000000" font-family="Arial" font-size="12" font-style="italic" lengthAdjust="spacing" textLength="33" x="1123.5" y="167.1387">&#171;API&#187;</text><text fill="#000000" font-family="Arial" font-size="12" lengthAdjust="spacing" textLength="96" x="1092" y="181.1074">Health Checker</text><text fill="#000000" font-family="Arial" font-size="12" lengthAdjust="spacing" textLength="27" x="1126.5" y="195.0762">(Go)</text></g><!--entity slashing--><g id="elem_slashing"><rect fill="#EBF5FB" height="61.9063" rx="4" ry="4" style="stroke:#3498DB;stroke-width:2.0;" width="132" x="1216" y="146"/><text fill="#000000" font-family="Arial" font-size="12" font-style="italic" lengthAdjust="spacing" textLength="33" x="1265.5" y="167.1387">&#171;API&#187;</text><text fill="#000000" font-family="Arial" font-size="12" lengthAdjust="spacing" textLength="112" x="1226" y="181.1074">Slashing Detector</text><text fill="#000000" font-family="Arial" font-size="12" lengthAdjust="spacing" textLength="27" x="1268.5" y="195.0762">(Go)</text></g><!--entity eigenlayer--><g id="elem_eigenlayer"><rect fill="#FEF9E7" height="61.9063" rx="4" ry="4" style="stroke:#F1C40F;stroke-width:2.0;" width="121" x="130.5" y="646"/><text fill="#000000" font-family="Arial" font-size="12" font-style="italic" lengthAdjust="spacing" textLength="66" x="158" y="667.1387">&#171;External&#187;</text><text fill="#000000" font-family="Arial" font-size="12" lengthAdjust="spacing" textLength="101" x="140.5" y="681.1074">EigenLayer Core</text><text fill="#000000" font-family="Arial" font-size="12" lengthAdjust="spacing" textLength="71" x="155.5" y="695.0762">(Ethereum)</text></g><!--entity s3--><g id="elem_s3"><rect fill="#F5EEF8" height="61.9063" rx="4" ry="4" style="stroke:#76448A;stroke-width:2.0;" width="124" x="270" y="646"/><text fill="#000000" font-family="Arial" font-size="12" font-style="italic" lengthAdjust="spacing" textLength="64" x="300" y="667.1387">&#171;Storage&#187;</text><text fill="#000000" font-family="Arial" font-size="12" lengthAdjust="spacing" textLength="104" x="280" y="681.1074">Dataset Registry</text><text fill="#000000" font-family="Arial" font-size="12" lengthAdjust="spacing" textLength="26" x="319" y="695.0762">(S3)</text></g><!--entity llm--><g id="elem_llm"><rect fill="#FEF9E7" height="61.9063" rx="4" ry="4" style="stroke:#F1C40F;stroke-width:2.0;" width="127" x="535.5" y="646"/><text fill="#000000" font-family="Arial" font-size="12" font-style="italic" lengthAdjust="spacing" textLength="66" x="566" y="667.1387">&#171;External&#187;</text><text fill="#000000" font-family="Arial" font-size="12" lengthAdjust="spacing" textLength="107" x="545.5" y="681.1074">LLM API Providers</text><text fill="#000000" font-family="Arial" font-size="12" lengthAdjust="spacing" textLength="29" x="584.5" y="695.0762">(API)</text></g><!--entity api--><g id="elem_api"><rect fill="#EBF5FB" height="61.9063" rx="4" ry="4" style="stroke:#3498DB;stroke-width:2.0;" width="105" x="412.5" y="646"/><text fill="#000000" font-family="Arial" font-size="12" font-style="italic" lengthAdjust="spacing" textLength="33" x="448.5" y="667.1387">&#171;API&#187;</text><text fill="#000000" font-family="Arial" font-size="12" lengthAdjust="spacing" textLength="85" x="422.5" y="681.1074">LayerLens API</text><text fill="#000000" font-family="Arial" font-size="12" lengthAdjust="spacing" textLength="29" x="450.5" y="695.0762">(API)</text></g><polygon fill="#000000" points="139.4626,507.6345,143.3027,498.5651,139.3741,502.6353,135.3039,498.7067,139.4626,507.6345" style="stroke:#000000;stroke-width:1.0;"/><path d="M138.536,455.2819 C138.8229,471.4949 139.0692,485.4097 139.3564,501.6354 " fill="none" style="stroke:#000000;stroke-width:1.3;"/><text fill="#000000" font-family="sans-serif" font-size="13" lengthAdjust="spacing" textLength="58" x="141" y="486.0669">Manages</text><polygon fill="#000000" points="163.9093,392.9364,172.7087,388.5125,167.0794,389.0697,166.5221,383.4404,163.9093,392.9364" style="stroke:#000000;stroke-width:1.0;"/><path d="M201.9822,340.2447 C194.737,351.3586 186.2375,363.9268 178,375 C173.5973,380.9183 172.5153,382.4393 167.7134,388.2964 " fill="none" style="stroke:#000000;stroke-width:1.3;"/><text fill="#000000" font-family="sans-serif" font-size="13" lengthAdjust="spacing" textLength="32" x="191" y="371.0669">Uses</text><polygon fill="#000000" points="89.2531,392.7868,85.6909,383.6047,85.7073,389.2615,80.0505,389.2779,89.2531,392.7868" style="stroke:#000000;stroke-width:1.0;"/><path d="M70.1014,340.1027 C69.5794,351.5616 70.6999,364.4009 76,375 C79.2877,381.5747 79.6921,383.2811 84.9981,388.5565 " fill="none" style="stroke:#000000;stroke-width:1.3;"/><text fill="#000000" font-family="sans-serif" font-size="13" lengthAdjust="spacing" textLength="100" x="77" y="371.0669">Provides stakes</text><polygon fill="#000000" points="164.5449,645.8857,162.4225,636.2682,161.5773,641.8616,155.9839,641.0163,164.5449,645.8857" style="stroke:#000000;stroke-width:1.0;"/><path d="M138.5543,570.0989 C138.8331,583.0194 140.3859,598.0832 145,611 C149.4181,623.3681 153.3307,630.679 160.9838,641.0567 " fill="none" style="stroke:#000000;stroke-width:1.3;"/><text fill="#000000" font-family="sans-serif" font-size="13" lengthAdjust="spacing" textLength="88" x="146" y="607.0669">Registers with</text><polygon fill="#000000" points="130.4878,652.4358,124.2257,644.8341,126.0153,650.2004,120.649,651.99,130.4878,652.4358" style="stroke:#000000;stroke-width:1.0;"/><path d="M61.2938,340.0668 C39.0038,393.8634 1.9665,508.2223 50,586 C68.5402,616.0211 95.8756,635.1359 125.1208,649.7533 " fill="none" style="stroke:#000000;stroke-width:1.3;"/><text fill="#000000" font-family="sans-serif" font-size="13" lengthAdjust="spacing" textLength="93" x="29" y="486.0669">Verifies stakes</text><polygon fill="#000000" points="980.3735,277.8816,977.5086,268.4587,977.1016,274.1009,971.4594,273.6938,980.3735,277.8816" style="stroke:#000000;stroke-width:1.0;"/><path d="M629.5373,178.2264 C708.6703,181.0374 846.9357,194.5397 949,251 C960.9424,257.6063 967.7848,263.3352 976.4472,273.3447 " fill="none" style="stroke:#000000;stroke-width:1.3;"/><text fill="#000000" font-family="sans-serif" font-size="13" lengthAdjust="spacing" textLength="32" x="932" y="239.0669">Uses</text><polygon fill="#000000" points="561.639,277.5618,566.1171,268.7899,561.9078,272.5691,558.1287,268.3598,561.639,277.5618" style="stroke:#000000;stroke-width:1.0;"/><path d="M565.3765,208.1514 C564.2537,229.0032 563.0877,250.6568 561.9616,271.5705 " fill="none" style="stroke:#000000;stroke-width:1.3;"/><text fill="#000000" font-family="sans-serif" font-size="13" lengthAdjust="spacing" textLength="64" x="566" y="239.0669">Signs with</text><polygon fill="#000000" points="420.1001,277.6186,426.854,270.4502,421.7553,272.9005,419.3051,267.8019,420.1001,277.6186" style="stroke:#000000;stroke-width:1.0;"/><path d="M505.5041,208.0338 C498.9775,210.8649 492.3908,213.5773 486,216 C471.2716,221.5834 464.0319,215.8347 452,226 C436.2707,239.289 428.1878,254.5653 422.0864,271.9569 " fill="none" style="stroke:#000000;stroke-width:1.3;"/><text fill="#000000" font-family="sans-serif" font-size="13" lengthAdjust="spacing" textLength="106" x="453" y="239.0669">Gets config from</text><polygon fill="#000000" points="691.9583,277.6816,688.3173,268.5304,688.3824,274.1869,682.7259,274.252,691.9583,277.6816" style="stroke:#000000;stroke-width:1.0;"/><path d="M611.5683,208.0995 C619.519,213.8502 627.6156,219.9642 635,226 C654.7667,242.1567 671.3317,257.524 687.6672,273.488 " fill="none" style="stroke:#000000;stroke-width:1.3;"/><text fill="#000000" font-family="sans-serif" font-size="13" lengthAdjust="spacing" textLength="87" x="654" y="239.0669">Executes with</text><polygon fill="#000000" points="539.053,145.6345,535.9014,136.3035,535.667,141.9555,530.015,141.7211,539.053,145.6345" style="stroke:#000000;stroke-width:1.0;"/><path d="M490.8701,93.2819 C505.7918,109.4949 520.0564,124.994 534.9898,141.2197 " fill="none" style="stroke:#000000;stroke-width:1.3;"/><text fill="#000000" font-family="sans-serif" font-size="13" lengthAdjust="spacing" textLength="58" x="523" y="124.0669">Manages</text><polygon fill="#000000" points="411.313,277.9218,415.3019,268.9169,411.3068,272.9218,407.3019,268.9268,411.313,277.9218" style="stroke:#000000;stroke-width:1.0;"/><path d="M446.0821,93.1891 C438.297,108.5313 429.7519,127.7492 425,146 C413.3052,190.9168 411.2648,238.9994 411.3056,271.9218 " fill="none" style="stroke:#000000;stroke-width:1.3;"/><text fill="#000000" font-family="sans-serif" font-size="13" lengthAdjust="spacing" textLength="68" x="426" y="181.5669">Configures</text><polygon fill="#000000" points="599.5213,645.9133,603.8541,637.0687,599.7077,640.9168,595.8596,636.7704,599.5213,645.9133" style="stroke:#000000;stroke-width:1.0;"/><path d="M699.5708,340.087 C677.3454,371.5332 644.2068,423.1521 627,473 C606.6272,532.0199 601.2518,599.527 599.745,639.9175 " fill="none" style="stroke:#000000;stroke-width:1.3;"/><text fill="#000000" font-family="sans-serif" font-size="13" lengthAdjust="spacing" textLength="77" x="628" y="486.0669">Connects to</text><polygon fill="#000000" points="708.8208,507.7896,712.2106,498.5424,708.4868,502.8007,704.2285,499.0769,708.8208,507.7896" style="stroke:#000000;stroke-width:1.0;"/><path d="M762.9292,438.6376 C744.7566,445.7794 726.9117,456.6097 716,473 C709.3078,483.0522 707.6343,490.0702 708.42,501.803 " fill="none" style="stroke:#000000;stroke-width:1.3;"/><text fill="#000000" font-family="sans-serif" font-size="13" lengthAdjust="spacing" textLength="94" x="717" y="486.0669">Processes with</text><polygon fill="#000000" points="839.1673,392.6345,846.4177,385.9687,841.1565,388.0472,839.078,382.786,839.1673,392.6345" style="stroke:#000000;stroke-width:1.0;"/><path d="M861.8689,340.2819 C854.8385,356.4949 848.5903,370.9041 841.5544,387.1297 " fill="none" style="stroke:#000000;stroke-width:1.3;"/><text fill="#000000" font-family="sans-serif" font-size="13" lengthAdjust="spacing" textLength="102" x="855" y="371.0669">Collects metrics</text><polygon fill="#000000" points="490.1346,645.7525,499.3145,642.1847,493.6577,642.2046,493.6379,636.5477,490.1346,645.7525" style="stroke:#000000;stroke-width:1.0;"/><path d="M828.1612,455.0808 C828.9914,491.8946 824.1599,553.3488 787,586 C699.1659,663.177 631.8543,569.3415 526,619 C512.6155,625.2789 504.4407,631.3458 494.3623,641.495 " fill="none" style="stroke:#000000;stroke-width:1.3;"/><text fill="#000000" font-family="sans-serif" font-size="13" lengthAdjust="spacing" textLength="66" x="826" y="543.5669">Reports to</text><polygon fill="#000000" points="629.5134,159.2574,639.226,160.8902,634.3559,158.0123,637.2338,153.1422,629.5134,159.2574" style="stroke:#000000;stroke-width:1.0;"/><path d="M1073.298,89.7032 C1069.1738,90.9391 1065.0518,92.055 1061,93 C971.0663,113.9747 945.2439,96.768 854,111 C775.8854,123.1841 693.1482,142.8954 635.3244,157.7633 " fill="none" style="stroke:#000000;stroke-width:1.3;"/><text fill="#000000" font-family="sans-serif" font-size="13" lengthAdjust="spacing" textLength="37" x="855" y="124.0669">Hosts</text><polygon fill="#000000" points="629.8824,173.4656,639.0735,177.0046,634.876,173.2123,638.6682,169.0148,629.8824,173.4656" style="stroke:#000000;stroke-width:1.0;"/><path d="M1220.3188,90.5697 C1217.5281,91.4489 1214.7472,92.2651 1212,93 C1003.4083,148.7993 752.4907,167.2461 635.8747,173.1617 " fill="none" style="stroke:#000000;stroke-width:1.3;"/><text fill="#000000" font-family="sans-serif" font-size="13" lengthAdjust="spacing" textLength="55" x="1128" y="124.0669">Monitors</text><polygon fill="#000000" points="1178.6959,145.6345,1188.2455,143.2252,1182.6294,142.5478,1183.3068,136.9316,1178.6959,145.6345" style="stroke:#000000;stroke-width:1.0;"/><path d="M1245.4106,93.2819 C1224.7499,109.4949 1204.093,125.7048 1183.4161,141.9305 " fill="none" style="stroke:#000000;stroke-width:1.3;"/><text fill="#000000" font-family="sans-serif" font-size="13" lengthAdjust="spacing" textLength="46" x="1221" y="124.0669">Checks</text><polygon fill="#000000" points="1282.5374,145.6345,1286.6961,136.7067,1282.6259,140.6353,1278.6973,136.5651,1282.5374,145.6345" style="stroke:#000000;stroke-width:1.0;"/><path d="M1283.464,93.2819 C1283.1771,109.4949 1282.9308,123.4097 1282.6436,139.6354 " fill="none" style="stroke:#000000;stroke-width:1.3;"/><text fill="#000000" font-family="sans-serif" font-size="13" lengthAdjust="spacing" textLength="50" x="1284" y="124.0669">Detects</text><polygon fill="#000000" points="219.6299,645.7421,229.0173,642.7628,223.3706,642.4244,223.7089,636.7777,219.6299,645.7421" style="stroke:#000000;stroke-width:1.0;"/><path d="M1240.4598,208.0746 C1212.9849,231.7402 1182,267.4241 1182,308 C1182,308 1182,308 1182,540 C1182,645.5544 1053.7772,573.2147 949,586 C797.0623,604.54 403.9453,564.2693 261,619 C245.7785,624.828 235.8606,631.3467 224.1187,641.7608 " fill="none" style="stroke:#000000;stroke-width:1.3;"/><text fill="#000000" font-family="sans-serif" font-size="13" lengthAdjust="spacing" textLength="66" x="1183" y="428.5669">Reports to</text><polygon fill="#000000" points="213.0163,277.887,215.6102,268.3859,212.2607,272.9445,207.7021,269.5949,213.0163,277.887" style="stroke:#000000;stroke-width:1.0;"/><path d="M510.0685,208.1208 C502.1588,211.288 493.9997,214.0559 486,216 C471.8458,219.4398 234.2917,215.692 224,226 C210.8146,239.2063 209.4312,254.4379 212.1095,271.9559 " fill="none" style="stroke:#000000;stroke-width:1.3;"/><text fill="#000000" font-family="sans-serif" font-size="13" lengthAdjust="spacing" textLength="85" x="225" y="239.0669">Interacts with</text><polygon fill="#000000" points="328.4307,645.986,331.4113,636.599,327.878,641.0166,323.4603,637.4833,328.4307,645.986" style="stroke:#000000;stroke-width:1.0;"/><path d="M517.8121,208.1307 C511.6257,211.1238 505.2667,213.8456 499,216 C432.213,238.9599 387.5253,195.3834 344,251 C296.1767,312.1085 318.1495,553.5475 327.7674,640.0228 " fill="none" style="stroke:#000000;stroke-width:1.3;"/><text fill="#000000" font-family="sans-serif" font-size="13" lengthAdjust="spacing" textLength="126" x="316" y="428.5669">Retrieves data from</text><polygon fill="#000000" points="432.7391,645.8566,428.8262,636.8184,429.0603,642.4704,423.4083,642.7044,432.7391,645.8566" style="stroke:#000000;stroke-width:1.0;"/><path d="M225.6022,340.2662 C233.3082,390.6963 248.1632,486.7546 250,490 C293.8097,567.4068 336.2456,560.221 403,619 C412.7666,627.5997 418.8214,633.0458 428.3245,641.7931 " fill="none" style="stroke:#000000;stroke-width:1.3;"/><text fill="#000000" font-family="sans-serif" font-size="13" lengthAdjust="spacing" textLength="66" x="251" y="486.0669">Reports to</text><rect fill="none" height="193.2656" id="_legend" rx="4" ry="4" style="stroke:#CCCCCC;stroke-width:1.0;" width="325" x="1010" y="730"/><text fill="#000000" font-family="sans-serif" font-size="14" font-weight="bold" lengthAdjust="spacing" textLength="135" x="1020" y="749.9951">Component Type</text><text fill="#000000" font-family="sans-serif" font-size="14" font-weight="bold" lengthAdjust="spacing" textLength="90" x="1165" y="749.9951">Description</text><text fill="#000000" filter="url(#byjyfpxkwdqh0)" font-family="sans-serif" font-size="14" lengthAdjust="spacing" textLength="63" x="1015" y="766.292">Frontend</text><text fill="#000000" font-family="sans-serif" font-size="14" lengthAdjust="spacing" textLength="143" x="1164" y="766.292">Web/UI Components</text><text fill="#000000" filter="url(#byjyfpxkwdqh1)" font-family="sans-serif" font-size="14" lengthAdjust="spacing" textLength="21" x="1015" y="782.5889">API</text><text fill="#000000" font-family="sans-serif" font-size="14" lengthAdjust="spacing" textLength="123" x="1164" y="782.5889">Backend Services</text><text fill="#000000" filter="url(#byjyfpxkwdqh2)" font-family="sans-serif" font-size="14" lengthAdjust="spacing" textLength="32" x="1015" y="798.8857">Auth</text><text fill="#000000" font-family="sans-serif" font-size="14" lengthAdjust="spacing" textLength="162" x="1164" y="798.8857">Authentication Services</text><text fill="#000000" filter="url(#byjyfpxkwdqh3)" font-family="sans-serif" font-size="14" lengthAdjust="spacing" textLength="66" x="1015" y="815.1826">Database</text><text fill="#000000" font-family="sans-serif" font-size="14" lengthAdjust="spacing" textLength="90" x="1164" y="815.1826">Data Storage</text><text fill="#000000" filter="url(#byjyfpxkwdqh4)" font-family="sans-serif" font-size="14" lengthAdjust="spacing" textLength="55" x="1015" y="831.4795">External</text><text fill="#000000" font-family="sans-serif" font-size="14" lengthAdjust="spacing" textLength="123" x="1164" y="831.4795">3rd Party Services</text><text fill="#000000" filter="url(#byjyfpxkwdqh5)" font-family="sans-serif" font-size="14" lengthAdjust="spacing" textLength="59" x="1015" y="847.7764">Contract</text><text fill="#000000" font-family="sans-serif" font-size="14" lengthAdjust="spacing" textLength="111" x="1164" y="847.7764">Smart Contracts</text><text fill="#000000" filter="url(#byjyfpxkwdqh6)" font-family="sans-serif" font-size="14" lengthAdjust="spacing" textLength="47" x="1015" y="864.0732">Queue</text><text fill="#000000" font-family="sans-serif" font-size="14" lengthAdjust="spacing" textLength="122" x="1164" y="864.0732">Message Queues</text><text fill="#000000" filter="url(#byjyfpxkwdqh7)" font-family="sans-serif" font-size="14" lengthAdjust="spacing" textLength="61" x="1015" y="880.3701">Operator</text><text fill="#000000" font-family="sans-serif" font-size="14" lengthAdjust="spacing" textLength="108" x="1164" y="880.3701">Validator Nodes</text><text fill="#000000" filter="url(#byjyfpxkwdqh8)" font-family="sans-serif" font-size="14" lengthAdjust="spacing" textLength="63" x="1015" y="896.667">Evaluator</text><text fill="#000000" font-family="sans-serif" font-size="14" lengthAdjust="spacing" textLength="132" x="1164" y="896.667">Evaluation Services</text><text fill="#000000" filter="url(#byjyfpxkwdqh9)" font-family="sans-serif" font-size="14" lengthAdjust="spacing" textLength="54" x="1015" y="912.9639">Storage</text><text fill="#000000" font-family="sans-serif" font-size="14" lengthAdjust="spacing" textLength="116" x="1164" y="912.9639">Storage Services</text><line style="stroke:#000000;stroke-width:1.0;" x1="1015" x2="1330" y1="737" y2="737"/><line style="stroke:#000000;stroke-width:1.0;" x1="1015" x2="1330" y1="753.2969" y2="753.2969"/><line style="stroke:#000000;stroke-width:1.0;" x1="1015" x2="1330" y1="769.5938" y2="769.5938"/><line style="stroke:#000000;stroke-width:1.0;" x1="1015" x2="1330" y1="785.8906" y2="785.8906"/><line style="stroke:#000000;stroke-width:1.0;" x1="1015" x2="1330" y1="802.1875" y2="802.1875"/><line style="stroke:#000000;stroke-width:1.0;" x1="1015" x2="1330" y1="818.4844" y2="818.4844"/><line style="stroke:#000000;stroke-width:1.0;" x1="1015" x2="1330" y1="834.7813" y2="834.7813"/><line style="stroke:#000000;stroke-width:1.0;" x1="1015" x2="1330" y1="851.0781" y2="851.0781"/><line style="stroke:#000000;stroke-width:1.0;" x1="1015" x2="1330" y1="867.375" y2="867.375"/><line style="stroke:#000000;stroke-width:1.0;" x1="1015" x2="1330" y1="883.6719" y2="883.6719"/><line style="stroke:#000000;stroke-width:1.0;" x1="1015" x2="1330" y1="899.9688" y2="899.9688"/><line style="stroke:#000000;stroke-width:1.0;" x1="1015" x2="1330" y1="916.2656" y2="916.2656"/><line style="stroke:#000000;stroke-width:1.0;" x1="1015" x2="1015" y1="737" y2="916.2656"/><line style="stroke:#000000;stroke-width:1.0;" x1="1160" x2="1160" y1="737" y2="916.2656"/><line style="stroke:#000000;stroke-width:1.0;" x1="1330" x2="1330" y1="737" y2="916.2656"/><!--SRC=[jLXBSzis4BxpLw3f8UqXYMN9Bush6OaY4y_OgHivwQ7jU60IaZ062GK0dQXr_diN3qe07vdH8Jp8CdRtsmTsFmBwQIFmgi28uIsl5985KRZ4KVGIpScIbWHbbLIyG1bdN4YaE2gmojP8aiyLAJE2SefN0XSoae-qt63u2hh5XfUaL9UNgU2b8cK-cQ3_8eHcE7jS2LwLUQpnqC_9HNgMf5h2HKw4Mpq-coQdHxlLkpND7aiY9JgElaNTZgQtLxq-Pkb9Eclw68ukpkUpmtnKQjtd9Br8PicqwIGv6yN3-20dSwpm0vQarz4eYTEpfgFpP3IQpWzob7nLH9IOzJfA8AUMetGGZuxIWnp5q082PwhNqNG-cvyt7LsCXeFZquCS_L6HghzkSJgCMvqsExiuEJgi2txV484L5tsEvgV9D6sbSvoSdyQ3mpRe2RFgkvv6IJflfJIuE4s7XxN20fpWLN_fJfAadT7PwMXqFktpynB5bZYasZ9QhZp7Ko7u5mToP9wcS8yrU3tqX3bPuegfE_9LJHbTbGL4ZpBu8CBJ-c135oKHwDnRLrGnaa8pBkY_10swHH0jGG-SvPuqhYjbfO9am94hHhgAsIp6uFL9bze-ZEC-yNjS42W7nSpJk8MzWPtg3sHZ5Pfx20DOIj00x0xbOExCuoaniW82RpU5UTfwFbPi7dy37RdzQ9hxh9dW1n22AnXwiIYmKAXcDld2k43eBpspqoUv8EA9PkG6NgKh8lukVrbmHdEgjh_-Wx24bwSHtnTMZdoE373ki7pi0r4W-mx2ZCaFP4Mb4jkOGowqr5JIGdbWybuulGwKXSAFfCPfvw6bFUP-jMhAt9MfNa2kK83ybbjClhbtvK4-rpRiukkhq2PZ5BbJW5NLfKEc0Jn5KpFJ76ZN7QvSrmkq04e1ga8tFA-ORwQB945e2jsC2N9UKZ3QRLDjbHd1VR7gi38Vk_hicBuka066C0X3CQEQvLAeAZTRKCCNMdo_jEieU5tiCJuG2OmY2LfaN0JHIRFm7JiWMdGhU0RDptt3JRtMPtj3bA2PXEbWZ6GgC2wSh6twBUYOgt8fC3HLbQbAa5tVp7ds247hDiDmEDN8TicYvrRidsqYLygIWYkzkLDWAHMKqOZ2vdb7C5Dh5A-91lIqrrOGA2yObciDFIUgcQ-iPRM5dsGTvPuzA0HtZRScHQ4xC55h8aXLM3IYvSp8spbgHfL48NzQXowA8V9UybRz-le6GKXwYvyeC9q4VVZV6Z1MT7WmaLsJKcf3Nnrlg9_Wonqn8ghVpV25GXD6JTfxzMeIyi_OJP6C0dBJUatRCVeeGQ_1GDsQBaN7Lp8AV6eJhwvZLpye2Ff2rRhBGw3-YGYwf7jmo7x7KhltkOmyMjCG7X6vJ1eA7kMC3J6vS1fg7iUCqLkYQjP1Iy6BfdB866EKV2LPfSWUMPEeLlJizblYoGElblzWIcKKEj2Qkf6CIWcJeQ-FqPu-p6PP5XhNJ5C7K_E4rjbRZ6jEsH590qutejx13HVM6-n6I2MHuuXMck-uL3e3omRjAbX1gE7OO6o98fJj9d_iU06QjLxgw3a_udhkT9rrtSpmT3NGliMlt9nrTmdCl_O15IDFK65z2hCDqXgphW9EyznU_rzbFDVXsvDUPFyWGLTh1GJn_Dl-e8pkjXkYL-P4Pe9kT0heMIjTFW3xZTszVt9fSCSF31OdzMy5bs_CwkJoZTQTFAC_oSERZrTxT1b2cUjz20LKr4BH1q0ThpjoX23s-ju0WUj-2qKlGWWqmoQdRZ1pTWt1wlDk2r0BaEFc4CNSlqEKkZDQA4EHmzr0g6rFHEQA7MBL7Dt2QfnjGo1pQ0w1p3cgXN83KwbJCj8GnDwGGv2QCriudp2SE0sRlkTv4yXSW1ibgiyLBIGdwTysSyqDqTp6j6laDim3WjvoW_4_]--></g></svg>