<?xml version="1.0" encoding="us-ascii" standalone="no"?><svg xmlns="http://www.w3.org/2000/svg" xmlns:xlink="http://www.w3.org/1999/xlink" contentStyleType="text/css" height="1509px" preserveAspectRatio="none" style="width:1343px;height:1509px;background:#FFFFFF;" version="1.1" viewBox="0 0 1343 1509" width="1343px" zoomAndPan="magnify"><defs/><g><text fill="#303030" font-family="Arial" font-size="16" font-weight="bold" lengthAdjust="spacing" textLength="241" x="547" y="37.8516">Operator Registration Flow</text><rect fill="#F8F8F8" height="441.6563" style="stroke:#000000;stroke-width:1.0;" width="10" x="46.5" y="540.6719"/><rect fill="#F8F8F8" height="144.9063" style="stroke:#000000;stroke-width:1.0;" width="10" x="237.5" y="198.8906"/><rect fill="#F8F8F8" height="100.9375" style="stroke:#000000;stroke-width:1.0;" width="10" x="237.5" y="387.7656"/><line style="stroke:#000000;stroke-width:0.5;stroke-dasharray:5.0,5.0;" x1="51" x2="51" y1="152.9219" y2="1000.3281"/><line style="stroke:#000000;stroke-width:0.5;stroke-dasharray:5.0,5.0;" x1="242" x2="242" y1="152.9219" y2="1000.3281"/><line style="stroke:#000000;stroke-width:0.5;stroke-dasharray:5.0,5.0;" x1="503" x2="503" y1="152.9219" y2="1000.3281"/><line style="stroke:#000000;stroke-width:0.5;stroke-dasharray:5.0,5.0;" x1="714" x2="714" y1="152.9219" y2="1000.3281"/><line style="stroke:#000000;stroke-width:0.5;stroke-dasharray:5.0,5.0;" x1="958" x2="958" y1="152.9219" y2="1000.3281"/><line style="stroke:#000000;stroke-width:0.5;stroke-dasharray:5.0,5.0;" x1="1217" x2="1217" y1="152.9219" y2="1000.3281"/><text fill="#000000" font-family="Arial" font-size="14" font-weight="bold" lengthAdjust="spacing" textLength="71" x="13" y="141.6201">Operator</text><ellipse cx="51.5" cy="69.125" fill="#FFFFFF" rx="8" ry="8" style="stroke:#454545;stroke-width:0.5;"/><path d="M51.5,77.125 L51.5,104.125 M38.5,85.125 L64.5,85.125 M51.5,104.125 L38.5,119.125 M51.5,104.125 L64.5,119.125 " fill="none" style="stroke:#454545;stroke-width:0.5;"/><text fill="#000000" font-family="Arial" font-size="14" font-weight="bold" lengthAdjust="spacing" textLength="71" x="13" y="1020.3232">Operator</text><ellipse cx="51.5" cy="1040.125" fill="#FFFFFF" rx="8" ry="8" style="stroke:#454545;stroke-width:0.5;"/><path d="M51.5,1048.125 L51.5,1075.125 M38.5,1056.125 L64.5,1056.125 M51.5,1075.125 L38.5,1090.125 M51.5,1075.125 L64.5,1090.125 " fill="none" style="stroke:#454545;stroke-width:0.5;"/><rect fill="#EBF5FB" height="56.7734" rx="4" ry="4" style="stroke:#3498DB;stroke-width:2.0;" width="123" x="181" y="95.1484"/><text fill="#000000" font-family="Arial" font-size="10" font-weight="bold" lengthAdjust="spacing" textLength="31" x="227" y="119.4307">&#171;API&#187;</text><text fill="#000000" font-family="Arial" font-size="13" font-weight="bold" lengthAdjust="spacing" textLength="93" x="196" y="133.856">Operator CLI</text><rect fill="#EBF5FB" height="56.7734" rx="4" ry="4" style="stroke:#3498DB;stroke-width:2.0;" width="123" x="181" y="999.3281"/><text fill="#000000" font-family="Arial" font-size="10" font-weight="bold" lengthAdjust="spacing" textLength="31" x="227" y="1023.6104">&#171;API&#187;</text><text fill="#000000" font-family="Arial" font-size="13" font-weight="bold" lengthAdjust="spacing" textLength="93" x="196" y="1038.0356">Operator CLI</text><rect fill="#F5EEF8" height="56.7734" rx="4" ry="4" style="stroke:#76448A;stroke-width:2.0;" width="117" x="445" y="95.1484"/><text fill="#000000" font-family="Arial" font-size="10" font-weight="bold" lengthAdjust="spacing" textLength="57" x="475" y="119.4307">&#171;Storage&#187;</text><text fill="#000000" font-family="Arial" font-size="13" font-weight="bold" lengthAdjust="spacing" textLength="87" x="460" y="133.856">Config Files</text><rect fill="#F5EEF8" height="56.7734" rx="4" ry="4" style="stroke:#76448A;stroke-width:2.0;" width="117" x="445" y="999.3281"/><text fill="#000000" font-family="Arial" font-size="10" font-weight="bold" lengthAdjust="spacing" textLength="57" x="475" y="1023.6104">&#171;Storage&#187;</text><text fill="#000000" font-family="Arial" font-size="13" font-weight="bold" lengthAdjust="spacing" textLength="87" x="460" y="1038.0356">Config Files</text><rect fill="#FADBD8" height="56.7734" rx="4" ry="4" style="stroke:#943126;stroke-width:2.0;" width="204" x="612" y="95.1484"/><text fill="#000000" font-family="Arial" font-size="10" font-weight="bold" lengthAdjust="spacing" textLength="61" x="683.5" y="119.4307">&#171;Contract&#187;</text><text fill="#000000" font-family="Arial" font-size="13" font-weight="bold" lengthAdjust="spacing" textLength="174" x="627" y="133.856">EvalAvsServiceManager</text><rect fill="#FADBD8" height="56.7734" rx="4" ry="4" style="stroke:#943126;stroke-width:2.0;" width="204" x="612" y="999.3281"/><text fill="#000000" font-family="Arial" font-size="10" font-weight="bold" lengthAdjust="spacing" textLength="61" x="683.5" y="1023.6104">&#171;Contract&#187;</text><text fill="#000000" font-family="Arial" font-size="13" font-weight="bold" lengthAdjust="spacing" textLength="174" x="627" y="1038.0356">EvalAvsServiceManager</text><rect fill="#FADBD8" height="56.7734" rx="4" ry="4" style="stroke:#943126;stroke-width:2.0;" width="185" x="866" y="95.1484"/><text fill="#000000" font-family="Arial" font-size="10" font-weight="bold" lengthAdjust="spacing" textLength="61" x="928" y="119.4307">&#171;Contract&#187;</text><text fill="#000000" font-family="Arial" font-size="13" font-weight="bold" lengthAdjust="spacing" textLength="155" x="881" y="133.856">EvalAvsTaskManager</text><rect fill="#FADBD8" height="56.7734" rx="4" ry="4" style="stroke:#943126;stroke-width:2.0;" width="185" x="866" y="999.3281"/><text fill="#000000" font-family="Arial" font-size="10" font-weight="bold" lengthAdjust="spacing" textLength="61" x="928" y="1023.6104">&#171;Contract&#187;</text><text fill="#000000" font-family="Arial" font-size="13" font-weight="bold" lengthAdjust="spacing" textLength="155" x="881" y="1038.0356">EvalAvsTaskManager</text><rect fill="#FADBD8" height="56.7734" rx="4" ry="4" style="stroke:#943126;stroke-width:2.0;" width="187" x="1124" y="95.1484"/><text fill="#000000" font-family="Arial" font-size="10" font-weight="bold" lengthAdjust="spacing" textLength="61" x="1187" y="119.4307">&#171;Contract&#187;</text><text fill="#000000" font-family="Arial" font-size="13" font-weight="bold" lengthAdjust="spacing" textLength="157" x="1139" y="133.856">EigenLayer Contracts</text><rect fill="#FADBD8" height="56.7734" rx="4" ry="4" style="stroke:#943126;stroke-width:2.0;" width="187" x="1124" y="999.3281"/><text fill="#000000" font-family="Arial" font-size="10" font-weight="bold" lengthAdjust="spacing" textLength="61" x="1187" y="1023.6104">&#171;Contract&#187;</text><text fill="#000000" font-family="Arial" font-size="13" font-weight="bold" lengthAdjust="spacing" textLength="157" x="1139" y="1038.0356">EigenLayer Contracts</text><rect fill="#F8F8F8" height="441.6563" style="stroke:#000000;stroke-width:1.0;" width="10" x="46.5" y="540.6719"/><rect fill="#F8F8F8" height="144.9063" style="stroke:#000000;stroke-width:1.0;" width="10" x="237.5" y="198.8906"/><rect fill="#F8F8F8" height="100.9375" style="stroke:#000000;stroke-width:1.0;" width="10" x="237.5" y="387.7656"/><polygon fill="#000000" points="225.5,194.8906,235.5,198.8906,225.5,202.8906,229.5,198.8906" style="stroke:#000000;stroke-width:1.0;"/><line style="stroke:#000000;stroke-width:1.5;" x1="51.5" x2="231.5" y1="198.8906" y2="198.8906"/><text fill="#000000" font-family="Arial" font-size="12" lengthAdjust="spacing" textLength="21" x="90" y="186.0605">run</text><text fill="#000000" font-family="Arial" font-size="12" lengthAdjust="spacing" textLength="4" x="111" y="186.0605">&#160;</text><text fill="#000000" font-family="Arial" font-size="12" lengthAdjust="spacing" textLength="19" x="115" y="186.0605">init</text><text fill="#000000" font-family="Arial" font-size="12" lengthAdjust="spacing" textLength="4" x="134" y="186.0605">&#160;</text><text fill="#000000" font-family="Arial" font-size="12" lengthAdjust="spacing" textLength="61" x="138" y="186.0605">command</text><line style="stroke:#000000;stroke-width:1.5;" x1="247.5" x2="289.5" y1="242.8594" y2="242.8594"/><line style="stroke:#000000;stroke-width:1.5;" x1="289.5" x2="289.5" y1="242.8594" y2="255.8594"/><line style="stroke:#000000;stroke-width:1.5;" x1="248.5" x2="289.5" y1="255.8594" y2="255.8594"/><polygon fill="#000000" points="258.5,251.8594,248.5,255.8594,258.5,259.8594,254.5,255.8594" style="stroke:#000000;stroke-width:1.0;"/><text fill="#000000" font-family="Arial" font-size="12" lengthAdjust="spacing" textLength="90" x="262.5" y="230.0293">Generate/load</text><text fill="#000000" font-family="Arial" font-size="12" lengthAdjust="spacing" textLength="4" x="352.5" y="230.0293">&#160;</text><text fill="#000000" font-family="Arial" font-size="12" lengthAdjust="spacing" textLength="41" x="356.5" y="230.0293">ECDSA</text><text fill="#000000" font-family="Arial" font-size="12" lengthAdjust="spacing" textLength="4" x="397.5" y="230.0293">&#160;</text><text fill="#000000" font-family="Arial" font-size="12" lengthAdjust="spacing" textLength="24" x="401.5" y="230.0293">and</text><text fill="#000000" font-family="Arial" font-size="12" lengthAdjust="spacing" textLength="4" x="425.5" y="230.0293">&#160;</text><text fill="#000000" font-family="Arial" font-size="12" lengthAdjust="spacing" textLength="22" x="429.5" y="230.0293">BLS</text><text fill="#000000" font-family="Arial" font-size="12" lengthAdjust="spacing" textLength="4" x="451.5" y="230.0293">&#160;</text><text fill="#000000" font-family="Arial" font-size="12" lengthAdjust="spacing" textLength="28" x="455.5" y="230.0293">keys</text><polygon fill="#000000" points="491.5,295.8281,501.5,299.8281,491.5,303.8281,495.5,299.8281" style="stroke:#000000;stroke-width:1.0;"/><line style="stroke:#000000;stroke-width:1.5;" x1="247.5" x2="497.5" y1="299.8281" y2="299.8281"/><text fill="#000000" font-family="Arial" font-size="12" lengthAdjust="spacing" textLength="42" x="319" y="286.998">Create</text><text fill="#000000" font-family="Arial" font-size="12" lengthAdjust="spacing" textLength="4" x="361" y="286.998">&#160;</text><text fill="#000000" font-family="Arial" font-size="12" lengthAdjust="spacing" textLength="38" x="365" y="286.998">config</text><text fill="#000000" font-family="Arial" font-size="12" lengthAdjust="spacing" textLength="4" x="403" y="286.998">&#160;</text><text fill="#000000" font-family="Arial" font-size="12" lengthAdjust="spacing" textLength="25" x="407" y="286.998">files</text><polygon fill="#000000" points="62.5,339.7969,52.5,343.7969,62.5,347.7969,58.5,343.7969" style="stroke:#000000;stroke-width:1.0;"/><line style="stroke:#000000;stroke-width:1.5;stroke-dasharray:2.0,2.0;" x1="56.5" x2="241.5" y1="343.7969" y2="343.7969"/><text fill="#000000" font-family="Arial" font-size="12" lengthAdjust="spacing" textLength="84" x="74" y="330.9668">Configuration</text><text fill="#000000" font-family="Arial" font-size="12" lengthAdjust="spacing" textLength="4" x="158" y="330.9668">&#160;</text><text fill="#000000" font-family="Arial" font-size="12" lengthAdjust="spacing" textLength="58" x="162" y="330.9668">complete</text><polygon fill="#000000" points="225.5,383.7656,235.5,387.7656,225.5,391.7656,229.5,387.7656" style="stroke:#000000;stroke-width:1.0;"/><line style="stroke:#000000;stroke-width:1.5;" x1="51.5" x2="231.5" y1="387.7656" y2="387.7656"/><text fill="#000000" font-family="Arial" font-size="12" lengthAdjust="spacing" textLength="21" x="90.5" y="374.9355">run</text><text fill="#000000" font-family="Arial" font-size="12" lengthAdjust="spacing" textLength="4" x="111.5" y="374.9355">&#160;</text><text fill="#000000" font-family="Arial" font-size="12" lengthAdjust="spacing" textLength="43" x="115.5" y="374.9355">docker</text><text fill="#000000" font-family="Arial" font-size="12" lengthAdjust="spacing" textLength="4" x="158.5" y="374.9355">&#160;</text><text fill="#000000" font-family="Arial" font-size="12" lengthAdjust="spacing" textLength="36" x="162.5" y="374.9355">setup</text><line style="stroke:#000000;stroke-width:1.5;" x1="247.5" x2="289.5" y1="431.7344" y2="431.7344"/><line style="stroke:#000000;stroke-width:1.5;" x1="289.5" x2="289.5" y1="431.7344" y2="444.7344"/><line style="stroke:#000000;stroke-width:1.5;" x1="248.5" x2="289.5" y1="444.7344" y2="444.7344"/><polygon fill="#000000" points="258.5,440.7344,248.5,444.7344,258.5,448.7344,254.5,444.7344" style="stroke:#000000;stroke-width:1.0;"/><text fill="#000000" font-family="Arial" font-size="12" lengthAdjust="spacing" textLength="59" x="262.5" y="418.9043">Generate</text><text fill="#000000" font-family="Arial" font-size="12" lengthAdjust="spacing" textLength="4" x="321.5" y="418.9043">&#160;</text><text fill="#000000" font-family="Arial" font-size="12" lengthAdjust="spacing" textLength="104" x="325.5" y="418.9043">docker-compose</text><text fill="#000000" font-family="Arial" font-size="12" lengthAdjust="spacing" textLength="4" x="429.5" y="418.9043">&#160;</text><text fill="#000000" font-family="Arial" font-size="12" lengthAdjust="spacing" textLength="25" x="433.5" y="418.9043">files</text><polygon fill="#000000" points="62.5,484.7031,52.5,488.7031,62.5,492.7031,58.5,488.7031" style="stroke:#000000;stroke-width:1.0;"/><line style="stroke:#000000;stroke-width:1.5;stroke-dasharray:2.0,2.0;" x1="56.5" x2="241.5" y1="488.7031" y2="488.7031"/><text fill="#000000" font-family="Arial" font-size="12" lengthAdjust="spacing" textLength="44" x="74" y="475.873">Docker</text><text fill="#000000" font-family="Arial" font-size="12" lengthAdjust="spacing" textLength="4" x="118" y="475.873">&#160;</text><text fill="#000000" font-family="Arial" font-size="12" lengthAdjust="spacing" textLength="36" x="122" y="475.873">setup</text><text fill="#000000" font-family="Arial" font-size="12" lengthAdjust="spacing" textLength="4" x="158" y="475.873">&#160;</text><text fill="#000000" font-family="Arial" font-size="12" lengthAdjust="spacing" textLength="58" x="162" y="475.873">complete</text><line style="stroke:#000000;stroke-width:1.5;" x1="51.5" x2="98.5" y1="527.6719" y2="527.6719"/><line style="stroke:#000000;stroke-width:1.5;" x1="98.5" x2="98.5" y1="527.6719" y2="540.6719"/><line style="stroke:#000000;stroke-width:1.5;" x1="57.5" x2="98.5" y1="540.6719" y2="540.6719"/><polygon fill="#000000" points="67.5,536.6719,57.5,540.6719,67.5,544.6719,63.5,540.6719" style="stroke:#000000;stroke-width:1.0;"/><text fill="#000000" font-family="Arial" font-size="12" lengthAdjust="spacing" textLength="31" x="71.5" y="514.8418">Start</text><text fill="#000000" font-family="Arial" font-size="12" lengthAdjust="spacing" textLength="4" x="102.5" y="514.8418">&#160;</text><text fill="#000000" font-family="Arial" font-size="12" lengthAdjust="spacing" textLength="55" x="106.5" y="514.8418">operator</text><text fill="#000000" font-family="Arial" font-size="12" lengthAdjust="spacing" textLength="4" x="161.5" y="514.8418">&#160;</text><text fill="#000000" font-family="Arial" font-size="12" lengthAdjust="spacing" textLength="32" x="165.5" y="514.8418">node</text><polygon fill="#000000" points="1205.5,599.6094,1215.5,603.6094,1205.5,607.6094,1209.5,603.6094" style="stroke:#000000;stroke-width:1.0;"/><line style="stroke:#000000;stroke-width:1.5;" x1="56.5" x2="1211.5" y1="603.6094" y2="603.6094"/><text fill="#000000" font-family="Arial" font-size="12" lengthAdjust="spacing" textLength="52" x="519.5" y="576.8105">Register</text><text fill="#000000" font-family="Arial" font-size="12" lengthAdjust="spacing" textLength="4" x="571.5" y="576.8105">&#160;</text><text fill="#000000" font-family="Arial" font-size="12" lengthAdjust="spacing" textLength="25" x="575.5" y="576.8105">with</text><text fill="#000000" font-family="Arial" font-size="12" lengthAdjust="spacing" textLength="4" x="600.5" y="576.8105">&#160;</text><text fill="#000000" font-family="Arial" font-size="12" lengthAdjust="spacing" textLength="68" x="604.5" y="576.8105">EigenLayer</text><text fill="#000000" font-family="Arial" font-size="12" lengthAdjust="spacing" textLength="4" x="672.5" y="576.8105">&#160;</text><text fill="#000000" font-family="Arial" font-size="12" lengthAdjust="spacing" textLength="78" x="676.5" y="576.8105">(ECDSA+BLS</text><text fill="#000000" font-family="Arial" font-size="12" lengthAdjust="spacing" textLength="33" x="620.5" y="590.7793">keys)</text><polygon fill="#000000" points="67.5,643.5781,57.5,647.5781,67.5,651.5781,63.5,647.5781" style="stroke:#000000;stroke-width:1.0;"/><line style="stroke:#000000;stroke-width:1.5;stroke-dasharray:2.0,2.0;" x1="61.5" x2="1216.5" y1="647.5781" y2="647.5781"/><text fill="#000000" font-family="Arial" font-size="12" lengthAdjust="spacing" textLength="76" x="566" y="634.748">Registration</text><text fill="#000000" font-family="Arial" font-size="12" lengthAdjust="spacing" textLength="4" x="642" y="634.748">&#160;</text><text fill="#000000" font-family="Arial" font-size="12" lengthAdjust="spacing" textLength="62" x="646" y="634.748">confirmed</text><polygon fill="#000000" points="702,687.5469,712,691.5469,702,695.5469,706,691.5469" style="stroke:#000000;stroke-width:1.0;"/><line style="stroke:#000000;stroke-width:1.5;" x1="56.5" x2="708" y1="691.5469" y2="691.5469"/><text fill="#000000" font-family="Arial" font-size="12" lengthAdjust="spacing" textLength="52" x="269.75" y="678.7168">Register</text><text fill="#000000" font-family="Arial" font-size="12" lengthAdjust="spacing" textLength="4" x="321.75" y="678.7168">&#160;</text><text fill="#000000" font-family="Arial" font-size="12" lengthAdjust="spacing" textLength="25" x="325.75" y="678.7168">with</text><text fill="#000000" font-family="Arial" font-size="12" lengthAdjust="spacing" textLength="4" x="350.75" y="678.7168">&#160;</text><text fill="#000000" font-family="Arial" font-size="12" lengthAdjust="spacing" textLength="146" x="354.75" y="678.7168">EvalAvsServiceManager</text><polygon fill="#000000" points="1205.5,731.5156,1215.5,735.5156,1205.5,739.5156,1209.5,735.5156" style="stroke:#000000;stroke-width:1.0;"/><line style="stroke:#000000;stroke-width:1.5;" x1="714" x2="1211.5" y1="735.5156" y2="735.5156"/><text fill="#000000" font-family="Arial" font-size="12" lengthAdjust="spacing" textLength="34" x="910.25" y="722.6855">Verify</text><text fill="#000000" font-family="Arial" font-size="12" lengthAdjust="spacing" textLength="4" x="944.25" y="722.6855">&#160;</text><text fill="#000000" font-family="Arial" font-size="12" lengthAdjust="spacing" textLength="73" x="948.25" y="722.6855">registration</text><polygon fill="#000000" points="725,775.4844,715,779.4844,725,783.4844,721,779.4844" style="stroke:#000000;stroke-width:1.0;"/><line style="stroke:#000000;stroke-width:1.5;stroke-dasharray:2.0,2.0;" x1="719" x2="1216.5" y1="779.4844" y2="779.4844"/><text fill="#000000" font-family="Arial" font-size="12" lengthAdjust="spacing" textLength="47" x="903.75" y="766.6543">Confirm</text><text fill="#000000" font-family="Arial" font-size="12" lengthAdjust="spacing" textLength="4" x="950.75" y="766.6543">&#160;</text><text fill="#000000" font-family="Arial" font-size="12" lengthAdjust="spacing" textLength="73" x="954.75" y="766.6543">registration</text><polygon fill="#000000" points="67.5,819.4531,57.5,823.4531,67.5,827.4531,63.5,823.4531" style="stroke:#000000;stroke-width:1.0;"/><line style="stroke:#000000;stroke-width:1.5;stroke-dasharray:2.0,2.0;" x1="61.5" x2="713" y1="823.4531" y2="823.4531"/><text fill="#000000" font-family="Arial" font-size="12" lengthAdjust="spacing" textLength="24" x="301.75" y="810.623">AVS</text><text fill="#000000" font-family="Arial" font-size="12" lengthAdjust="spacing" textLength="4" x="325.75" y="810.623">&#160;</text><text fill="#000000" font-family="Arial" font-size="12" lengthAdjust="spacing" textLength="73" x="329.75" y="810.623">registration</text><text fill="#000000" font-family="Arial" font-size="12" lengthAdjust="spacing" textLength="4" x="402.75" y="810.623">&#160;</text><text fill="#000000" font-family="Arial" font-size="12" lengthAdjust="spacing" textLength="62" x="406.75" y="810.623">confirmed</text><polygon fill="#000000" points="946.5,863.4219,956.5,867.4219,946.5,871.4219,950.5,867.4219" style="stroke:#000000;stroke-width:1.0;"/><line style="stroke:#000000;stroke-width:1.5;" x1="56.5" x2="952.5" y1="867.4219" y2="867.4219"/><text fill="#000000" font-family="Arial" font-size="12" lengthAdjust="spacing" textLength="146" x="434.5" y="854.5918">joinAssignmentQueue()</text><line style="stroke:#000000;stroke-width:1.5;" x1="958.5" x2="1000.5" y1="925.3594" y2="925.3594"/><line style="stroke:#000000;stroke-width:1.5;" x1="1000.5" x2="1000.5" y1="925.3594" y2="938.3594"/><line style="stroke:#000000;stroke-width:1.5;" x1="959.5" x2="1000.5" y1="938.3594" y2="938.3594"/><polygon fill="#000000" points="969.5,934.3594,959.5,938.3594,969.5,942.3594,965.5,938.3594" style="stroke:#000000;stroke-width:1.0;"/><text fill="#000000" font-family="Arial" font-size="12" lengthAdjust="spacing" textLength="24" x="973.5" y="898.5605">Add</text><text fill="#000000" font-family="Arial" font-size="12" lengthAdjust="spacing" textLength="4" x="997.5" y="898.5605">&#160;</text><text fill="#000000" font-family="Arial" font-size="12" lengthAdjust="spacing" textLength="55" x="1001.5" y="898.5605">operator</text><text fill="#000000" font-family="Arial" font-size="12" lengthAdjust="spacing" textLength="4" x="1056.5" y="898.5605">&#160;</text><text fill="#000000" font-family="Arial" font-size="12" lengthAdjust="spacing" textLength="13" x="1060.5" y="898.5605">to</text><text fill="#000000" font-family="Arial" font-size="12" lengthAdjust="spacing" textLength="4" x="1073.5" y="898.5605">&#160;</text><text fill="#000000" font-family="Arial" font-size="12" lengthAdjust="spacing" textLength="48" x="1077.5" y="898.5605">internal</text><text fill="#000000" font-family="Arial" font-size="12" lengthAdjust="spacing" textLength="4" x="1125.5" y="898.5605">&#160;</text><text fill="#000000" font-family="Arial" font-size="12" lengthAdjust="spacing" textLength="73" x="1129.5" y="898.5605">assignment</text><text fill="#000000" font-family="Arial" font-size="12" lengthAdjust="spacing" textLength="40" x="1068" y="912.5293">queue</text><polygon fill="#000000" points="62.5,978.3281,52.5,982.3281,62.5,986.3281,58.5,982.3281" style="stroke:#000000;stroke-width:1.0;"/><line style="stroke:#000000;stroke-width:1.5;stroke-dasharray:2.0,2.0;" x1="56.5" x2="957.5" y1="982.3281" y2="982.3281"/><text fill="#000000" font-family="Arial" font-size="12" lengthAdjust="spacing" textLength="76" x="424" y="969.498">Successfully</text><text fill="#000000" font-family="Arial" font-size="12" lengthAdjust="spacing" textLength="4" x="500" y="969.498">&#160;</text><text fill="#000000" font-family="Arial" font-size="12" lengthAdjust="spacing" textLength="38" x="504" y="969.498">joined</text><text fill="#000000" font-family="Arial" font-size="12" lengthAdjust="spacing" textLength="4" x="542" y="969.498">&#160;</text><text fill="#000000" font-family="Arial" font-size="12" lengthAdjust="spacing" textLength="40" x="546" y="969.498">queue</text><rect fill="none" height="385.2656" id="_legend" rx="4" ry="4" style="stroke:#000000;stroke-width:1.0;" width="383" x="940" y="1104.625"/><text fill="#000000" font-family="Arial" font-size="14" font-weight="bold" lengthAdjust="spacing" textLength="88" x="966" y="1140.6201">Entity Type</text><text fill="#000000" font-family="Arial" font-size="14" font-weight="bold" lengthAdjust="spacing" textLength="90" x="1080" y="1140.6201">Description</text><rect fill="#E9F7EF" height="32.2969" style="stroke:none;stroke-width:1.0;" width="114" x="953" y="1151.9219"/><text fill="#000000" font-family="Arial" font-size="14" lengthAdjust="spacing" textLength="4" x="961" y="1172.917">&#160;</text><text fill="#000000" font-family="Arial" font-size="14" lengthAdjust="spacing" textLength="219" x="1079" y="1172.917">Frontend - Web/UI Components</text><rect fill="#EBF5FB" height="32.2969" style="stroke:none;stroke-width:1.0;" width="114" x="953" y="1184.2188"/><text fill="#000000" font-family="Arial" font-size="14" lengthAdjust="spacing" textLength="4" x="961" y="1205.2139">&#160;</text><text fill="#000000" font-family="Arial" font-size="14" lengthAdjust="spacing" textLength="157" x="1079" y="1205.2139">API - Backend Services</text><rect fill="#F9EBEA" height="32.2969" style="stroke:none;stroke-width:1.0;" width="114" x="953" y="1216.5156"/><text fill="#000000" font-family="Arial" font-size="14" lengthAdjust="spacing" textLength="4" x="961" y="1237.5107">&#160;</text><text fill="#000000" font-family="Arial" font-size="14" lengthAdjust="spacing" textLength="207" x="1079" y="1237.5107">Auth - Authentication Services</text><rect fill="#F4ECF7" height="32.2969" style="stroke:none;stroke-width:1.0;" width="114" x="953" y="1248.8125"/><text fill="#000000" font-family="Arial" font-size="14" lengthAdjust="spacing" textLength="4" x="961" y="1269.8076">&#160;</text><text fill="#000000" font-family="Arial" font-size="14" lengthAdjust="spacing" textLength="169" x="1079" y="1269.8076">Database - Data Storage</text><rect fill="#FEF9E7" height="32.2969" style="stroke:none;stroke-width:1.0;" width="114" x="953" y="1281.1094"/><text fill="#000000" font-family="Arial" font-size="14" lengthAdjust="spacing" textLength="4" x="961" y="1302.1045">&#160;</text><text fill="#000000" font-family="Arial" font-size="14" lengthAdjust="spacing" textLength="191" x="1079" y="1302.1045">External - 3rd Party Services</text><rect fill="#FADBD8" height="32.2969" style="stroke:none;stroke-width:1.0;" width="114" x="953" y="1313.4063"/><text fill="#000000" font-family="Arial" font-size="14" lengthAdjust="spacing" textLength="4" x="961" y="1334.4014">&#160;</text><text fill="#000000" font-family="Arial" font-size="14" lengthAdjust="spacing" textLength="183" x="1079" y="1334.4014">Contract - Smart Contracts</text><rect fill="#FCF3CF" height="32.2969" style="stroke:none;stroke-width:1.0;" width="114" x="953" y="1345.7031"/><text fill="#000000" font-family="Arial" font-size="14" lengthAdjust="spacing" textLength="4" x="961" y="1366.6982">&#160;</text><text fill="#000000" font-family="Arial" font-size="14" lengthAdjust="spacing" textLength="182" x="1079" y="1366.6982">Queue - Message Queues</text><rect fill="#D6EAF8" height="32.2969" style="stroke:none;stroke-width:1.0;" width="114" x="953" y="1378"/><text fill="#000000" font-family="Arial" font-size="14" lengthAdjust="spacing" textLength="4" x="961" y="1398.9951">&#160;</text><text fill="#000000" font-family="Arial" font-size="14" lengthAdjust="spacing" textLength="182" x="1079" y="1398.9951">Operator - Validator Nodes</text><rect fill="#D4EFDF" height="32.2969" style="stroke:none;stroke-width:1.0;" width="114" x="953" y="1410.2969"/><text fill="#000000" font-family="Arial" font-size="14" lengthAdjust="spacing" textLength="4" x="961" y="1431.292">&#160;</text><text fill="#000000" font-family="Arial" font-size="14" lengthAdjust="spacing" textLength="208" x="1079" y="1431.292">Evaluator - Evaluation Services</text><rect fill="#F5EEF8" height="32.2969" style="stroke:none;stroke-width:1.0;" width="114" x="953" y="1442.5938"/><text fill="#000000" font-family="Arial" font-size="14" lengthAdjust="spacing" textLength="4" x="961" y="1463.5889">&#160;</text><text fill="#000000" font-family="Arial" font-size="14" lengthAdjust="spacing" textLength="183" x="1079" y="1463.5889">Storage - Storage Services</text><line style="stroke:#000000;stroke-width:1.0;" x1="953" x2="1310" y1="1119.625" y2="1119.625"/><line style="stroke:#000000;stroke-width:1.0;" x1="953" x2="1310" y1="1151.9219" y2="1151.9219"/><line style="stroke:#000000;stroke-width:1.0;" x1="953" x2="1310" y1="1184.2188" y2="1184.2188"/><line style="stroke:#000000;stroke-width:1.0;" x1="953" x2="1310" y1="1216.5156" y2="1216.5156"/><line style="stroke:#000000;stroke-width:1.0;" x1="953" x2="1310" y1="1248.8125" y2="1248.8125"/><line style="stroke:#000000;stroke-width:1.0;" x1="953" x2="1310" y1="1281.1094" y2="1281.1094"/><line style="stroke:#000000;stroke-width:1.0;" x1="953" x2="1310" y1="1313.4063" y2="1313.4063"/><line style="stroke:#000000;stroke-width:1.0;" x1="953" x2="1310" y1="1345.7031" y2="1345.7031"/><line style="stroke:#000000;stroke-width:1.0;" x1="953" x2="1310" y1="1378" y2="1378"/><line style="stroke:#000000;stroke-width:1.0;" x1="953" x2="1310" y1="1410.2969" y2="1410.2969"/><line style="stroke:#000000;stroke-width:1.0;" x1="953" x2="1310" y1="1442.5938" y2="1442.5938"/><line style="stroke:#000000;stroke-width:1.0;" x1="953" x2="1310" y1="1474.8906" y2="1474.8906"/><line style="stroke:#000000;stroke-width:1.0;" x1="953" x2="953" y1="1119.625" y2="1474.8906"/><line style="stroke:#000000;stroke-width:1.0;" x1="1067" x2="1067" y1="1119.625" y2="1474.8906"/><line style="stroke:#000000;stroke-width:1.0;" x1="1310" x2="1310" y1="1119.625" y2="1474.8906"/><!--SRC=[ZLHDRzim3BthLt2zhCMGRXsmIn04SDDsA91YNLtqBaYqmqMMN4bEbltwoNQSI5wpxM3uW- -HJu-atv4Mgf48mbILqHFdTmelwwPIZBs71qxQXmkSgH1SZO8A4Y0Qvqr5lxWdenqKne9VaGD9lBIyOcvDkkRX2HHfzBiQmLY_Cb7WaLjFWcgk_IENadG9dpz5yHnV6zG2hytF8NuLnpDhpVPvHMAjqJcuklp2c2Ul4BxLQBaFafwm9ETj9nBkbDaonaKR612iFeg0imDliRm_0-xQEyncsUFzV9uY5qONLC8TANGzilymc-M1pqiS4sutN6KRbwFTaC07hWF6TipqKyWGKWN9mfz8ySpTEkP7xtyZKubwoNS1D41wuL4WOJDsS6CoRusOWcqqa2RV3GhNilMIDjnZ6sQjLmFoA-gMYn-LuH9k5pTv1e40ryiSrhXp1t3dsXGM5jiqeZUnQ5tj8G4po9ZkqSs-dK54hT0ZavZeU5ktD68TZkZGD_M_TU_XaxQ6SNXIqKsKzVy47Rcv3_q1CyIqaNWKTfZFc7jirNG_sQ7sblmgRk9vv_Q7mUaB5iLIySboTDRR2cKgDntEFyg-DTHiDD0ZuIzegTY1ZOgF9OwBBdfjAMTS9JbQzf8dw5F7YtPd2ZyCwSmvAdM5sdzliC7p2nQlrvYHINbie3TXEO8rcgkmLqCQU6tpf5dICMY42B-leb5grqb0kUT4OtGOXzy0]--></g></svg>