<?xml version="1.0" encoding="us-ascii" standalone="no"?><svg xmlns="http://www.w3.org/2000/svg" xmlns:xlink="http://www.w3.org/1999/xlink" contentStyleType="text/css" height="1483px" preserveAspectRatio="none" style="width:1674px;height:1483px;background:#FFFFFF;" version="1.1" viewBox="0 0 1674 1483" width="1674px" zoomAndPan="magnify"><defs/><g><text fill="#000000" font-family="Verdana" font-size="22" font-weight="bold" lengthAdjust="spacing" textLength="447" x="612" y="37.1182">Task Creation and Assignment Flow</text><rect fill="#FFFFFF" height="138.1973" style="stroke:#000000;stroke-width:1.0;" width="10" x="405" y="198.3506"/><rect fill="#FFFFFF" height="151.1973" style="stroke:#000000;stroke-width:1.0;" width="10" x="405" y="1061.3335"/><rect fill="#FFFFFF" height="722.7856" style="stroke:#000000;stroke-width:1.0;" width="10" x="818.5" y="489.7451"/><rect fill="#FFFFFF" height="249.5952" style="stroke:#000000;stroke-width:1.0;" width="10" x="1046.5" y="643.7417"/><rect fill="#FFFFFF" height="162.9966" style="stroke:#000000;stroke-width:1.0;" width="537" x="972" y="658.7417"/><line style="stroke:#000000;stroke-width:1.0;" x1="58" x2="58" y1="130.752" y2="1237.5308"/><line style="stroke:#000000;stroke-width:1.0;" x1="410" x2="410" y1="130.752" y2="1237.5308"/><line style="stroke:#000000;stroke-width:1.0;" x1="652.5" x2="652.5" y1="130.752" y2="1237.5308"/><line style="stroke:#000000;stroke-width:1.0;" x1="823.5" x2="823.5" y1="130.752" y2="1237.5308"/><line style="stroke:#000000;stroke-width:1.0;" x1="1051" x2="1051" y1="130.752" y2="1237.5308"/><line style="stroke:#000000;stroke-width:1.0;" x1="1241" x2="1241" y1="130.752" y2="1237.5308"/><line style="stroke:#000000;stroke-width:1.0;" x1="1427" x2="1427" y1="130.752" y2="1237.5308"/><line style="stroke:#000000;stroke-width:1.0;" x1="1585" x2="1585" y1="130.752" y2="1237.5308"/><text fill="#000000" font-family="Verdana" font-size="14" lengthAdjust="spacing" textLength="46" x="32" y="127.8125">Admin</text><ellipse cx="58" cy="61.7373" fill="#FFFFFF" rx="8" ry="8" style="stroke:#000000;stroke-width:1.0;"/><path d="M58,69.7373 L58,96.7373 M45,77.7373 L71,77.7373 M58,96.7373 L45,111.7373 M58,96.7373 L71,111.7373 " fill="none" style="stroke:#000000;stroke-width:1.0;"/><text fill="#000000" font-family="Verdana" font-size="14" lengthAdjust="spacing" textLength="46" x="32" y="1250.606">Admin</text><ellipse cx="58" cy="1262.5454" fill="#FFFFFF" rx="8" ry="8" style="stroke:#000000;stroke-width:1.0;"/><path d="M58,1270.5454 L58,1297.5454 M45,1278.5454 L71,1278.5454 M58,1297.5454 L45,1312.5454 M58,1297.5454 L71,1312.5454 " fill="none" style="stroke:#000000;stroke-width:1.0;"/><rect fill="#FADBD8" height="48.0293" style="stroke:#943126;stroke-width:1.0;" width="160" x="330" y="81.7227"/><text fill="#000000" font-family="Verdana" font-size="14" font-style="italic" lengthAdjust="spacing" textLength="78" x="371" y="102.7979">&#171;Contract&#187;</text><text fill="#000000" font-family="Verdana" font-size="14" lengthAdjust="spacing" textLength="146" x="337" y="119.8125">EvalAvsTaskManager</text><rect fill="#FADBD8" height="48.0293" style="stroke:#943126;stroke-width:1.0;" width="160" x="330" y="1236.5308"/><text fill="#000000" font-family="Verdana" font-size="14" font-style="italic" lengthAdjust="spacing" textLength="78" x="371" y="1257.606">&#171;Contract&#187;</text><text fill="#000000" font-family="Verdana" font-size="14" lengthAdjust="spacing" textLength="146" x="337" y="1274.6206">EvalAvsTaskManager</text><rect fill="#FCF3CF" height="48.0293" style="stroke:#B7950B;stroke-width:1.0;" width="147" x="579.5" y="81.7227"/><text fill="#000000" font-family="Verdana" font-size="14" font-style="italic" lengthAdjust="spacing" textLength="63" x="621.5" y="102.7979">&#171;Queue&#187;</text><text fill="#000000" font-family="Verdana" font-size="14" lengthAdjust="spacing" textLength="133" x="586.5" y="119.8125">Assignment Queue</text><rect fill="#FCF3CF" height="48.0293" style="stroke:#B7950B;stroke-width:1.0;" width="147" x="579.5" y="1236.5308"/><text fill="#000000" font-family="Verdana" font-size="14" font-style="italic" lengthAdjust="spacing" textLength="63" x="621.5" y="1257.606">&#171;Queue&#187;</text><text fill="#000000" font-family="Verdana" font-size="14" lengthAdjust="spacing" textLength="133" x="586.5" y="1274.6206">Assignment Queue</text><rect fill="#D6EAF8" height="48.0293" style="stroke:#2E86C1;stroke-width:1.0;" width="94" x="776.5" y="81.7227"/><text fill="#000000" font-family="Verdana" font-size="14" font-style="italic" lengthAdjust="spacing" textLength="80" x="783.5" y="102.7979">&#171;Operator&#187;</text><text fill="#000000" font-family="Verdana" font-size="14" lengthAdjust="spacing" textLength="62" x="792.5" y="119.8125">Operator</text><rect fill="#D6EAF8" height="48.0293" style="stroke:#2E86C1;stroke-width:1.0;" width="94" x="776.5" y="1236.5308"/><text fill="#000000" font-family="Verdana" font-size="14" font-style="italic" lengthAdjust="spacing" textLength="80" x="783.5" y="1257.606">&#171;Operator&#187;</text><text fill="#000000" font-family="Verdana" font-size="14" lengthAdjust="spacing" textLength="62" x="792.5" y="1274.6206">Operator</text><rect fill="#D4EFDF" height="48.0293" style="stroke:#196F3D;stroke-width:1.0;" width="99" x="1002" y="81.7227"/><text fill="#000000" font-family="Verdana" font-size="14" font-style="italic" lengthAdjust="spacing" textLength="84" x="1009.5" y="102.7979">&#171;Evaluator&#187;</text><text fill="#000000" font-family="Verdana" font-size="14" lengthAdjust="spacing" textLength="85" x="1009" y="119.8125">GoEvaluator</text><rect fill="#D4EFDF" height="48.0293" style="stroke:#196F3D;stroke-width:1.0;" width="99" x="1002" y="1236.5308"/><text fill="#000000" font-family="Verdana" font-size="14" font-style="italic" lengthAdjust="spacing" textLength="84" x="1009.5" y="1257.606">&#171;Evaluator&#187;</text><text fill="#000000" font-family="Verdana" font-size="14" lengthAdjust="spacing" textLength="85" x="1009" y="1274.6206">GoEvaluator</text><rect fill="#F5EEF8" height="48.0293" style="stroke:#76448A;stroke-width:1.0;" width="167" x="1158" y="81.7227"/><text fill="#000000" font-family="Verdana" font-size="14" font-style="italic" lengthAdjust="spacing" textLength="73" x="1205" y="102.7979">&#171;Storage&#187;</text><text fill="#000000" font-family="Verdana" font-size="14" lengthAdjust="spacing" textLength="153" x="1165" y="119.8125">Dataset Registry (S3)</text><rect fill="#F5EEF8" height="48.0293" style="stroke:#76448A;stroke-width:1.0;" width="167" x="1158" y="1236.5308"/><text fill="#000000" font-family="Verdana" font-size="14" font-style="italic" lengthAdjust="spacing" textLength="73" x="1205" y="1257.606">&#171;Storage&#187;</text><text fill="#000000" font-family="Verdana" font-size="14" lengthAdjust="spacing" textLength="153" x="1165" y="1274.6206">Dataset Registry (S3)</text><rect fill="#EDEDED" height="48.0293" style="stroke:#616A6B;stroke-width:1.0;" width="104" x="1375" y="81.7227"/><text fill="#000000" font-family="Verdana" font-size="14" font-style="italic" lengthAdjust="spacing" textLength="76" x="1389" y="102.7979">&#171;External&#187;</text><text fill="#000000" font-family="Verdana" font-size="14" lengthAdjust="spacing" textLength="90" x="1382" y="119.8125">LLM Provider</text><rect fill="#EDEDED" height="48.0293" style="stroke:#616A6B;stroke-width:1.0;" width="104" x="1375" y="1236.5308"/><text fill="#000000" font-family="Verdana" font-size="14" font-style="italic" lengthAdjust="spacing" textLength="76" x="1389" y="1257.606">&#171;External&#187;</text><text fill="#000000" font-family="Verdana" font-size="14" lengthAdjust="spacing" textLength="90" x="1382" y="1274.6206">LLM Provider</text><rect fill="#EBF5FB" height="48.0293" style="stroke:#3498DB;stroke-width:1.0;" width="113" x="1529" y="81.7227"/><text fill="#000000" font-family="Verdana" font-size="14" font-style="italic" lengthAdjust="spacing" textLength="42" x="1564.5" y="102.7979">&#171;API&#187;</text><text fill="#000000" font-family="Verdana" font-size="14" lengthAdjust="spacing" textLength="99" x="1536" y="119.8125">LayerLens API</text><rect fill="#EBF5FB" height="48.0293" style="stroke:#3498DB;stroke-width:1.0;" width="113" x="1529" y="1236.5308"/><text fill="#000000" font-family="Verdana" font-size="14" font-style="italic" lengthAdjust="spacing" textLength="42" x="1564.5" y="1257.606">&#171;API&#187;</text><text fill="#000000" font-family="Verdana" font-size="14" lengthAdjust="spacing" textLength="99" x="1536" y="1274.6206">LayerLens API</text><rect fill="#FFFFFF" height="138.1973" style="stroke:#000000;stroke-width:1.0;" width="10" x="405" y="198.3506"/><rect fill="#FFFFFF" height="151.1973" style="stroke:#000000;stroke-width:1.0;" width="10" x="405" y="1061.3335"/><rect fill="#FFFFFF" height="722.7856" style="stroke:#000000;stroke-width:1.0;" width="10" x="818.5" y="489.7451"/><rect fill="#FFFFFF" height="249.5952" style="stroke:#000000;stroke-width:1.0;" width="10" x="1046.5" y="643.7417"/><path d="M10,145.752 L10,170.752 L1635,170.752 L1635,155.752 L1625,145.752 L10,145.752 " fill="#FFFFFF" style="stroke:#000000;stroke-width:1.0;"/><path d="M1625,145.752 L1625,155.752 L1635,155.752 L1625,145.752 " fill="#FFFFFF" style="stroke:#000000;stroke-width:1.0;"/><text fill="#000000" font-family="Verdana" font-size="13" lengthAdjust="spacing" textLength="203" x="721" y="163.8218">Task Creation and Assignment</text><polygon fill="#000000" points="393,194.3506,403,198.3506,393,202.3506,397,198.3506" style="stroke:#000000;stroke-width:1.0;"/><line style="stroke:#000000;stroke-width:1.5;" x1="58" x2="399" y1="198.3506" y2="198.3506"/><text fill="#000000" font-family="Verdana" font-size="13" lengthAdjust="spacing" textLength="328" x="67.5" y="193.6211">requestEval(modelName, datasetName, subsets)</text><polygon fill="#000000" points="641,224.1499,651,228.1499,641,232.1499,645,228.1499" style="stroke:#000000;stroke-width:1.0;"/><line style="stroke:#000000;stroke-width:1.5;" x1="415" x2="647" y1="228.1499" y2="228.1499"/><text fill="#000000" font-family="Verdana" font-size="13" lengthAdjust="spacing" textLength="185" x="441.5" y="223.4204">popNextAssignedOperator()</text><polygon fill="#000000" points="426,253.9492,416,257.9492,426,261.9492,422,257.9492" style="stroke:#000000;stroke-width:1.0;"/><line style="stroke:#000000;stroke-width:1.5;stroke-dasharray:2.0,2.0;" x1="420" x2="652" y1="257.9492" y2="257.9492"/><text fill="#000000" font-family="Verdana" font-size="13" lengthAdjust="spacing" textLength="117" x="475.5" y="253.2197">assignedOperator</text><line style="stroke:#000000;stroke-width:1.5;" x1="415" x2="457" y1="287.7485" y2="287.7485"/><line style="stroke:#000000;stroke-width:1.5;" x1="457" x2="457" y1="287.7485" y2="300.7485"/><line style="stroke:#000000;stroke-width:1.5;" x1="416" x2="457" y1="300.7485" y2="300.7485"/><polygon fill="#000000" points="426,296.7485,416,300.7485,426,304.7485,422,300.7485" style="stroke:#000000;stroke-width:1.0;"/><text fill="#000000" font-family="Verdana" font-size="13" lengthAdjust="spacing" textLength="132" x="422" y="283.019">Create EvalAvsTask</text><line style="stroke:#000000;stroke-width:1.5;" x1="415" x2="457" y1="335.5479" y2="335.5479"/><line style="stroke:#000000;stroke-width:1.5;" x1="457" x2="457" y1="335.5479" y2="348.5479"/><line style="stroke:#000000;stroke-width:1.5;" x1="410" x2="457" y1="348.5479" y2="348.5479"/><polygon fill="#000000" points="420,344.5479,410,348.5479,420,352.5479,416,348.5479" style="stroke:#000000;stroke-width:1.0;"/><text fill="#000000" font-family="Verdana" font-size="13" lengthAdjust="spacing" textLength="174" x="422" y="330.8184">Emit EvalRequested Event</text><line style="stroke:#000000;stroke-width:1.5;" x1="823.5" x2="865.5" y1="373.3472" y2="373.3472"/><line style="stroke:#000000;stroke-width:1.5;" x1="865.5" x2="865.5" y1="373.3472" y2="386.3472"/><line style="stroke:#000000;stroke-width:1.5;" x1="824.5" x2="865.5" y1="386.3472" y2="386.3472"/><polygon fill="#000000" points="834.5,382.3472,824.5,386.3472,834.5,390.3472,830.5,386.3472" style="stroke:#000000;stroke-width:1.0;"/><text fill="#000000" font-family="Verdana" font-size="13" lengthAdjust="spacing" textLength="214" x="830.5" y="368.6177">Listen for EvalRequested events</text><polygon fill="#000000" points="811.5,412.1465,821.5,416.1465,811.5,420.1465,815.5,416.1465" style="stroke:#000000;stroke-width:1.0;"/><line style="stroke:#000000;stroke-width:1.5;" x1="410" x2="817.5" y1="416.1465" y2="416.1465"/><text fill="#000000" font-family="Verdana" font-size="13" lengthAdjust="spacing" textLength="266" x="483.75" y="411.417">EvalRequested(taskId, task, externalId)</text><path d="M754,429.1465 L754,454.1465 L1654,454.1465 L1654,439.1465 L1644,429.1465 L754,429.1465 " fill="#FFFFFF" style="stroke:#000000;stroke-width:1.0;"/><path d="M1644,429.1465 L1644,439.1465 L1654,439.1465 L1644,429.1465 " fill="#FFFFFF" style="stroke:#000000;stroke-width:1.0;"/><text fill="#000000" font-family="Verdana" font-size="13" lengthAdjust="spacing" textLength="100" x="1154.25" y="447.2163">Task Execution</text><line style="stroke:#000000;stroke-width:1.5;" x1="823.5" x2="870.5" y1="476.7451" y2="476.7451"/><line style="stroke:#000000;stroke-width:1.5;" x1="870.5" x2="870.5" y1="476.7451" y2="489.7451"/><line style="stroke:#000000;stroke-width:1.5;" x1="829.5" x2="870.5" y1="489.7451" y2="489.7451"/><polygon fill="#000000" points="839.5,485.7451,829.5,489.7451,839.5,493.7451,835.5,489.7451" style="stroke:#000000;stroke-width:1.0;"/><text fill="#000000" font-family="Verdana" font-size="13" lengthAdjust="spacing" textLength="168" x="835.5" y="472.0156">Check if assigned to task</text><polygon fill="#000000" points="1229.5,520.5444,1239.5,524.5444,1229.5,528.5444,1233.5,524.5444" style="stroke:#000000;stroke-width:1.0;"/><line style="stroke:#000000;stroke-width:1.5;" x1="828.5" x2="1235.5" y1="524.5444" y2="524.5444"/><text fill="#000000" font-family="Verdana" font-size="13" lengthAdjust="spacing" textLength="302" x="884" y="519.8149">Fetch dataset files (formatted.jsonl + config)</text><polygon fill="#000000" points="839.5,550.3438,829.5,554.3438,839.5,558.3438,835.5,554.3438" style="stroke:#000000;stroke-width:1.0;"/><line style="stroke:#000000;stroke-width:1.5;stroke-dasharray:2.0,2.0;" x1="833.5" x2="1240.5" y1="554.3438" y2="554.3438"/><text fill="#000000" font-family="Verdana" font-size="13" lengthAdjust="spacing" textLength="131" x="969.5" y="549.6143">Return dataset files</text><polygon fill="#000000" points="1573.5,580.1431,1583.5,584.1431,1573.5,588.1431,1577.5,584.1431" style="stroke:#000000;stroke-width:1.0;"/><line style="stroke:#000000;stroke-width:1.5;" x1="828.5" x2="1579.5" y1="584.1431" y2="584.1431"/><text fill="#000000" font-family="Verdana" font-size="13" lengthAdjust="spacing" textLength="241" x="1086.5" y="579.4136">Request API Key for model provider</text><polygon fill="#000000" points="839.5,609.9424,829.5,613.9424,839.5,617.9424,835.5,613.9424" style="stroke:#000000;stroke-width:1.0;"/><line style="stroke:#000000;stroke-width:1.5;stroke-dasharray:2.0,2.0;" x1="833.5" x2="1584.5" y1="613.9424" y2="613.9424"/><text fill="#000000" font-family="Verdana" font-size="13" lengthAdjust="spacing" textLength="101" x="1156.5" y="609.2129">Return API Key</text><polygon fill="#000000" points="1034.5,639.7417,1044.5,643.7417,1034.5,647.7417,1038.5,643.7417" style="stroke:#000000;stroke-width:1.0;"/><line style="stroke:#000000;stroke-width:1.5;" x1="828.5" x2="1040.5" y1="643.7417" y2="643.7417"/><text fill="#000000" font-family="Verdana" font-size="13" lengthAdjust="spacing" textLength="126" x="874.5" y="639.0122">Execute evaluation</text><path d="M972,658.7417 L1048,658.7417 L1048,666.541 L1038,676.541 L972,676.541 L972,658.7417 " fill="#FFFFFF" style="stroke:#000000;stroke-width:1.0;"/><rect fill="none" height="162.9966" style="stroke:#000000;stroke-width:1.0;" width="537" x="972" y="658.7417"/><text fill="#000000" font-family="Verdana" font-size="13" font-weight="bold" lengthAdjust="spacing" textLength="31" x="987" y="672.8115">loop</text><text fill="#000000" font-family="Verdana" font-size="11" font-weight="bold" lengthAdjust="spacing" textLength="180" x="1063" y="671.8008">[For each prompt in dataset]</text><polygon fill="#000000" points="1415,694.3403,1425,698.3403,1415,702.3403,1419,698.3403" style="stroke:#000000;stroke-width:1.0;"/><line style="stroke:#000000;stroke-width:1.5;" x1="1056.5" x2="1421" y1="698.3403" y2="698.3403"/><text fill="#000000" font-family="Verdana" font-size="13" lengthAdjust="spacing" textLength="86" x="1198.75" y="693.6108">Send prompt</text><polygon fill="#000000" points="1067.5,724.1396,1057.5,728.1396,1067.5,732.1396,1063.5,728.1396" style="stroke:#000000;stroke-width:1.0;"/><line style="stroke:#000000;stroke-width:1.5;stroke-dasharray:2.0,2.0;" x1="1061.5" x2="1426" y1="728.1396" y2="728.1396"/><text fill="#000000" font-family="Verdana" font-size="13" lengthAdjust="spacing" textLength="109" x="1187.25" y="723.4102">Return response</text><line style="stroke:#000000;stroke-width:1.5;" x1="1056.5" x2="1098.5" y1="757.939" y2="757.939"/><line style="stroke:#000000;stroke-width:1.5;" x1="1098.5" x2="1098.5" y1="757.939" y2="770.939"/><line style="stroke:#000000;stroke-width:1.5;" x1="1057.5" x2="1098.5" y1="770.939" y2="770.939"/><polygon fill="#000000" points="1067.5,766.939,1057.5,770.939,1067.5,774.939,1063.5,770.939" style="stroke:#000000;stroke-width:1.0;"/><text fill="#000000" font-family="Verdana" font-size="13" lengthAdjust="spacing" textLength="103" x="1063.5" y="753.2095">Score response</text><line style="stroke:#000000;stroke-width:1.5;" x1="1056.5" x2="1098.5" y1="800.7383" y2="800.7383"/><line style="stroke:#000000;stroke-width:1.5;" x1="1098.5" x2="1098.5" y1="800.7383" y2="813.7383"/><line style="stroke:#000000;stroke-width:1.5;" x1="1057.5" x2="1098.5" y1="813.7383" y2="813.7383"/><polygon fill="#000000" points="1067.5,809.7383,1057.5,813.7383,1067.5,817.7383,1063.5,813.7383" style="stroke:#000000;stroke-width:1.0;"/><text fill="#000000" font-family="Verdana" font-size="13" lengthAdjust="spacing" textLength="144" x="1063.5" y="796.0088">Hash response (MD5)</text><line style="stroke:#000000;stroke-width:1.5;" x1="1056.5" x2="1098.5" y1="850.5376" y2="850.5376"/><line style="stroke:#000000;stroke-width:1.5;" x1="1098.5" x2="1098.5" y1="850.5376" y2="863.5376"/><line style="stroke:#000000;stroke-width:1.5;" x1="1057.5" x2="1098.5" y1="863.5376" y2="863.5376"/><polygon fill="#000000" points="1067.5,859.5376,1057.5,863.5376,1067.5,867.5376,1063.5,863.5376" style="stroke:#000000;stroke-width:1.0;"/><text fill="#000000" font-family="Verdana" font-size="13" lengthAdjust="spacing" textLength="166" x="1063.5" y="845.8081">Generate combined hash</text><polygon fill="#000000" points="839.5,889.3369,829.5,893.3369,839.5,897.3369,835.5,893.3369" style="stroke:#000000;stroke-width:1.0;"/><line style="stroke:#000000;stroke-width:1.5;stroke-dasharray:2.0,2.0;" x1="833.5" x2="1050.5" y1="893.3369" y2="893.3369"/><text fill="#000000" font-family="Verdana" font-size="13" lengthAdjust="spacing" textLength="159" x="860.5" y="888.6074">Return results and hash</text><polygon fill="#000000" points="1573.5,919.1362,1583.5,923.1362,1573.5,927.1362,1577.5,923.1362" style="stroke:#000000;stroke-width:1.0;"/><line style="stroke:#000000;stroke-width:1.5;" x1="828.5" x2="1579.5" y1="923.1362" y2="923.1362"/><text fill="#000000" font-family="Verdana" font-size="13" lengthAdjust="spacing" textLength="141" x="1136.5" y="918.4067">Save detailed results</text><polygon fill="#000000" points="839.5,948.9355,829.5,952.9355,839.5,956.9355,835.5,952.9355" style="stroke:#000000;stroke-width:1.0;"/><line style="stroke:#000000;stroke-width:1.5;stroke-dasharray:2.0,2.0;" x1="833.5" x2="1584.5" y1="952.9355" y2="952.9355"/><text fill="#000000" font-family="Verdana" font-size="13" lengthAdjust="spacing" textLength="89" x="1162.5" y="948.2061">Confirm save</text><path d="M754,965.9355 L754,990.9355 L1654,990.9355 L1654,975.9355 L1644,965.9355 L754,965.9355 " fill="#FFFFFF" style="stroke:#000000;stroke-width:1.0;"/><path d="M1644,965.9355 L1644,975.9355 L1654,975.9355 L1644,965.9355 " fill="#FFFFFF" style="stroke:#000000;stroke-width:1.0;"/><text fill="#000000" font-family="Verdana" font-size="13" lengthAdjust="spacing" textLength="122" x="1143.25" y="984.0054">Result Submission</text><line style="stroke:#000000;stroke-width:1.5;" x1="828.5" x2="870.5" y1="1018.5342" y2="1018.5342"/><line style="stroke:#000000;stroke-width:1.5;" x1="870.5" x2="870.5" y1="1018.5342" y2="1031.5342"/><line style="stroke:#000000;stroke-width:1.5;" x1="829.5" x2="870.5" y1="1031.5342" y2="1031.5342"/><polygon fill="#000000" points="839.5,1027.5342,829.5,1031.5342,839.5,1035.5342,835.5,1031.5342" style="stroke:#000000;stroke-width:1.0;"/><text fill="#000000" font-family="Verdana" font-size="13" lengthAdjust="spacing" textLength="158" x="835.5" y="1013.8047">Generate BLS signature</text><polygon fill="#000000" points="426,1057.3335,416,1061.3335,426,1065.3335,422,1061.3335" style="stroke:#000000;stroke-width:1.0;"/><line style="stroke:#000000;stroke-width:1.5;" x1="420" x2="817.5" y1="1061.3335" y2="1061.3335"/><text fill="#000000" font-family="Verdana" font-size="13" lengthAdjust="spacing" textLength="316" x="458.75" y="1056.604">respondToEvalRequest(taskId, hash, signature)</text><line style="stroke:#000000;stroke-width:1.5;" x1="415" x2="457" y1="1091.1328" y2="1091.1328"/><line style="stroke:#000000;stroke-width:1.5;" x1="457" x2="457" y1="1091.1328" y2="1104.1328"/><line style="stroke:#000000;stroke-width:1.5;" x1="416" x2="457" y1="1104.1328" y2="1104.1328"/><polygon fill="#000000" points="426,1100.1328,416,1104.1328,426,1108.1328,422,1104.1328" style="stroke:#000000;stroke-width:1.0;"/><text fill="#000000" font-family="Verdana" font-size="13" lengthAdjust="spacing" textLength="107" x="422" y="1086.4033">Verify signature</text><line style="stroke:#000000;stroke-width:1.5;" x1="415" x2="457" y1="1133.9321" y2="1133.9321"/><line style="stroke:#000000;stroke-width:1.5;" x1="457" x2="457" y1="1133.9321" y2="1146.9321"/><line style="stroke:#000000;stroke-width:1.5;" x1="416" x2="457" y1="1146.9321" y2="1146.9321"/><polygon fill="#000000" points="426,1142.9321,416,1146.9321,426,1150.9321,422,1146.9321" style="stroke:#000000;stroke-width:1.0;"/><text fill="#000000" font-family="Verdana" font-size="13" lengthAdjust="spacing" textLength="219" x="422" y="1129.2026">Update task state to SUBMITTED</text><polygon fill="#000000" points="641,1172.7314,651,1176.7314,641,1180.7314,645,1176.7314" style="stroke:#000000;stroke-width:1.0;"/><line style="stroke:#000000;stroke-width:1.5;" x1="415" x2="647" y1="1176.7314" y2="1176.7314"/><text fill="#000000" font-family="Verdana" font-size="13" lengthAdjust="spacing" textLength="186" x="441" y="1172.002">Add operator back to queue</text><line style="stroke:#000000;stroke-width:1.5;" x1="415" x2="457" y1="1211.5308" y2="1211.5308"/><line style="stroke:#000000;stroke-width:1.5;" x1="457" x2="457" y1="1211.5308" y2="1224.5308"/><line style="stroke:#000000;stroke-width:1.5;" x1="410" x2="457" y1="1224.5308" y2="1224.5308"/><polygon fill="#000000" points="420,1220.5308,410,1224.5308,420,1228.5308,416,1224.5308" style="stroke:#000000;stroke-width:1.0;"/><text fill="#000000" font-family="Verdana" font-size="13" lengthAdjust="spacing" textLength="176" x="422" y="1206.8013">Emit EvalCompleted Event</text><rect fill="none" height="150.1172" id="_legend" style="stroke:#000000;stroke-width:1.0;" width="209" x="1452" y="1320.5454"/><text fill="#000000" font-family="Verdana" font-size="14" font-weight="bold" lengthAdjust="spacing" textLength="89" x="1462" y="1341.6206">Entity Type</text><text fill="#000000" font-family="Verdana" font-size="14" font-weight="bold" lengthAdjust="spacing" textLength="90" x="1561" y="1341.6206">Description</text><rect fill="#FADBD8" height="17.0146" style="stroke:none;stroke-width:1.0;" width="99" x="1457" y="1344.5601"/><text fill="#000000" font-family="Verdana" font-size="14" lengthAdjust="spacing" textLength="5" x="1457" y="1358.6353">&#160;</text><text fill="#000000" font-family="Verdana" font-size="14" lengthAdjust="spacing" textLength="60" x="1561" y="1358.6353">Contract</text><rect fill="#FCF3CF" height="17.0146" style="stroke:none;stroke-width:1.0;" width="99" x="1457" y="1361.5747"/><text fill="#000000" font-family="Verdana" font-size="14" lengthAdjust="spacing" textLength="5" x="1457" y="1375.6499">&#160;</text><text fill="#000000" font-family="Verdana" font-size="14" lengthAdjust="spacing" textLength="45" x="1561" y="1375.6499">Queue</text><rect fill="#D6EAF8" height="17.0146" style="stroke:none;stroke-width:1.0;" width="99" x="1457" y="1378.5894"/><text fill="#000000" font-family="Verdana" font-size="14" lengthAdjust="spacing" textLength="5" x="1457" y="1392.6646">&#160;</text><text fill="#000000" font-family="Verdana" font-size="14" lengthAdjust="spacing" textLength="62" x="1561" y="1392.6646">Operator</text><rect fill="#D4EFDF" height="17.0146" style="stroke:none;stroke-width:1.0;" width="99" x="1457" y="1395.604"/><text fill="#000000" font-family="Verdana" font-size="14" lengthAdjust="spacing" textLength="5" x="1457" y="1409.6792">&#160;</text><text fill="#000000" font-family="Verdana" font-size="14" lengthAdjust="spacing" textLength="66" x="1561" y="1409.6792">Evaluator</text><rect fill="#F5EEF8" height="17.0146" style="stroke:none;stroke-width:1.0;" width="99" x="1457" y="1412.6187"/><text fill="#000000" font-family="Verdana" font-size="14" lengthAdjust="spacing" textLength="5" x="1457" y="1426.6938">&#160;</text><text fill="#000000" font-family="Verdana" font-size="14" lengthAdjust="spacing" textLength="55" x="1561" y="1426.6938">Storage</text><rect fill="#EDEDED" height="17.0146" style="stroke:none;stroke-width:1.0;" width="99" x="1457" y="1429.6333"/><text fill="#000000" font-family="Verdana" font-size="14" lengthAdjust="spacing" textLength="5" x="1457" y="1443.7085">&#160;</text><text fill="#000000" font-family="Verdana" font-size="14" lengthAdjust="spacing" textLength="58" x="1561" y="1443.7085">External</text><rect fill="#EBF5FB" height="17.0146" style="stroke:none;stroke-width:1.0;" width="99" x="1457" y="1446.6479"/><text fill="#000000" font-family="Verdana" font-size="14" lengthAdjust="spacing" textLength="5" x="1457" y="1460.7231">&#160;</text><text fill="#000000" font-family="Verdana" font-size="14" lengthAdjust="spacing" textLength="24" x="1561" y="1460.7231">API</text><line style="stroke:#000000;stroke-width:1.0;" x1="1457" x2="1656" y1="1327.5454" y2="1327.5454"/><line style="stroke:#000000;stroke-width:1.0;" x1="1457" x2="1656" y1="1344.5601" y2="1344.5601"/><line style="stroke:#000000;stroke-width:1.0;" x1="1457" x2="1656" y1="1361.5747" y2="1361.5747"/><line style="stroke:#000000;stroke-width:1.0;" x1="1457" x2="1656" y1="1378.5894" y2="1378.5894"/><line style="stroke:#000000;stroke-width:1.0;" x1="1457" x2="1656" y1="1395.604" y2="1395.604"/><line style="stroke:#000000;stroke-width:1.0;" x1="1457" x2="1656" y1="1412.6187" y2="1412.6187"/><line style="stroke:#000000;stroke-width:1.0;" x1="1457" x2="1656" y1="1429.6333" y2="1429.6333"/><line style="stroke:#000000;stroke-width:1.0;" x1="1457" x2="1656" y1="1446.6479" y2="1446.6479"/><line style="stroke:#000000;stroke-width:1.0;" x1="1457" x2="1656" y1="1463.6626" y2="1463.6626"/><line style="stroke:#000000;stroke-width:1.0;" x1="1457" x2="1457" y1="1327.5454" y2="1463.6626"/><line style="stroke:#000000;stroke-width:1.0;" x1="1556" x2="1556" y1="1327.5454" y2="1463.6626"/><line style="stroke:#000000;stroke-width:1.0;" x1="1656" x2="1656" y1="1327.5454" y2="1463.6626"/><!--SRC=[ZLTRK-Cs57xthpZTFYnCOGSsa8KCPIRNNQP0ASdkkx1E4ZMEvPMKGARfV-yvikF88L0FCqIoldFxpiNoH-W8gsAmRfMeT1BzugOuHyWIeTB8pbIQ2IFcy2JYsSJeHIgxEj46dgVAON0kSImMYHlXYsidQfBECNKGqpyqKVGH-YzPecBbaXL8PSLJWZ0LgNmsoZbCOQvbg2my6el4XcTsAgH-9azVdHJUcHGDdB3HWJOnKc16gCdK0OM7Di3ptgqo16tSL0S73y8uSZOJgNiGKhAjpoV1-H1_BZ2DiQDVDkUdtk2Tc96zXS7S5b0OCDQfenKzYusoMQ2cROn-pjbyIeZUtQFHLCKpKcFXzDCvg-_XcDG2aQhSoYUCR8n9NAhn68rdNCypdT8g33JRnWF_H409tvTBUgwDH1Dwz6zWrb8gKJDXUM0nutRj5xvvr7uFTenVNNM982DYTtqDlmxQlKxluWt1hNTLeSkpnkddPbJJt5yBNA2trHqqkeCQjag9pfVByvDENKD_PcY4quObUyr-Ur0dhb3eS_-YsJsjQww_5CcYj7VM7_Jgn5QHEhri3XgzkWQ792KcEPNd_Nwjy0APByspiujsxUXUgFfIaR1alyT_TO8BX9gdpNQpTkxQ3pVUKcTmFkZKi5JW6sUN5pqoGZr00suax0ow1eLJElKjqxPsCne7YNwE8gfWQf-sdDEi3Rlq0-UblRIiuawaH9dv0C92i8Um2Qh2WHbVkrxKhw2ivgh4fkmyShE1i1oh-A-wB1ml4koXKbHLiPvmmgA3Hvme6iihE1Ws3hs2OGE2wgXAtTxUmOFHIoKB5lX1cDqTk5YXkSNK0cN5u-aNYXpnF6jB2GbEC9LH_WE6tmyq0DU_GpyVO2D-Bz2sXvR6TkOpk6R4LJ6ZhjUmeH_MC9oJ1-K3MqBzY25eJluQxcYQKuJvleJbqu5W9VDh-24I9VtwdjwDMwXlR89k-IxNxECGpLB5MtpUcOGlk2Kq9w7SxkBptcBz1Riaq33Iln9Nhz6-FmZD3A_zUuNff1r3Q5dG7ANQqMjsYKMj7p6azMw3H957ml5rMFGjCFpkjOv3Fk1RGt8lvdW4Cg-iV6CNJxIsXznUQYaSXYgYi8T8kqz52pATtVFTnJk0SfE9WyCepztnhYDY1xchjmBsGI84NVqkl3zNpeCVysXHqev9aRWtfAWi7DAqMRVWbfgCRr3qlAeCb_w6iEF2Lh22FY1cPpVo2FZt2B0eZ1jv6EPr8nocjl-2yO9p-vQ3tId6Cr3ZaanmsflPPgwaDzGmRBHWW2wURl8EOyLteGCATIxesYW__Mrrci1lT4j9nsfo6D60EQxOVaItC6bLGSM8ZwDWmHVu7xZoNFgoWwoOI14VxLLTo5IK1eEoLV135xgoVwDju04oIhJE-3OBbFufMvvd3bJfF3KZL4Om6Q8PsQ9-fPxAuHx3W_Durul2MuEMReuMzochu8UnfijiRVWtOQSb6WxkUkU7F1cYzsI-OigK8LzddnJNnPIqL4NsCKvcw1ialvvwYQ1VGZvVvtaebaZVC4vG6SYDdZsfxN8v6VeA8VmxvV_e5S1myJHNLDflTq0PQUTs2Dm3WWB12dXd_36HSgI35YqRb4C-scgfD_ygwd-WKUDLuCXxuE-PPDridJuE_5B3y7ldxcOqellP_ZdBBr-zYOu_Abde9v_LcuXTAkO4_tSY1eytNFu7]--></g></svg>