<?xml version="1.0" encoding="us-ascii" standalone="no"?><svg xmlns="http://www.w3.org/2000/svg" xmlns:xlink="http://www.w3.org/1999/xlink" contentStyleType="text/css" height="874px" preserveAspectRatio="none" style="width:824px;height:874px;background:#FFFFFF;" version="1.1" viewBox="0 0 824 874" width="824px" zoomAndPan="magnify"><defs/><g><text fill="#000000" font-family="Arial" font-size="14" font-weight="bold" lengthAdjust="spacing" textLength="172" x="335" y="28.1318">Task Reassignment Flow</text><rect fill="#FFFFFF" height="160.7949" style="stroke:#181818;stroke-width:1.0;" width="10" x="189" y="184.0947"/><rect fill="#FFFFFF" height="70.8975" style="stroke:#181818;stroke-width:1.0;" width="10" x="557.5" y="451.7358"/><line style="stroke:#181818;stroke-width:0.5;stroke-dasharray:5.0,5.0;" x1="48" x2="48" y1="118.1973" y2="575.582"/><line style="stroke:#181818;stroke-width:0.5;stroke-dasharray:5.0,5.0;" x1="193.5" x2="193.5" y1="118.1973" y2="575.582"/><line style="stroke:#181818;stroke-width:0.5;stroke-dasharray:5.0,5.0;" x1="393" x2="393" y1="118.1973" y2="575.582"/><line style="stroke:#181818;stroke-width:0.5;stroke-dasharray:5.0,5.0;" x1="562" x2="562" y1="118.1973" y2="575.582"/><line style="stroke:#181818;stroke-width:0.5;stroke-dasharray:5.0,5.0;" x1="768" x2="768" y1="118.1973" y2="575.582"/><text fill="#000000" font-family="Arial" font-size="14" lengthAdjust="spacing" textLength="40" x="25" y="115.2305">Admin</text><ellipse cx="48" cy="50.5986" fill="#E2E2F0" rx="8" ry="8" style="stroke:#181818;stroke-width:0.5;"/><path d="M48,58.5986 L48,85.5986 M35,66.5986 L61,66.5986 M48,85.5986 L35,100.5986 M48,85.5986 L61,100.5986 " fill="none" style="stroke:#181818;stroke-width:0.5;"/><text fill="#000000" font-family="Arial" font-size="14" lengthAdjust="spacing" textLength="40" x="25" y="587.7139">Admin</text><ellipse cx="48" cy="599.1807" fill="#E2E2F0" rx="8" ry="8" style="stroke:#181818;stroke-width:0.5;"/><path d="M48,607.1807 L48,634.1807 M35,615.1807 L61,615.1807 M48,634.1807 L35,649.1807 M48,634.1807 L61,649.1807 " fill="none" style="stroke:#181818;stroke-width:0.5;"/><rect fill="#FADBD8" height="46.1973" rx="2.5" ry="2.5" style="stroke:#943126;stroke-width:2.0;" width="161" x="113.5" y="71"/><text fill="#000000" font-family="Arial" font-size="14" font-weight="bold" lengthAdjust="spacing" textLength="75" x="156.5" y="91.1318">&#171;Contract&#187;</text><text fill="#000000" font-family="Arial" font-size="14" font-weight="bold" lengthAdjust="spacing" textLength="147" x="120.5" y="107.2305">EvalAvsTaskManager</text><rect fill="#FADBD8" height="46.1973" rx="2.5" ry="2.5" style="stroke:#943126;stroke-width:2.0;" width="161" x="113.5" y="574.582"/><text fill="#000000" font-family="Arial" font-size="14" font-weight="bold" lengthAdjust="spacing" textLength="75" x="156.5" y="594.7139">&#171;Contract&#187;</text><text fill="#000000" font-family="Arial" font-size="14" font-weight="bold" lengthAdjust="spacing" textLength="147" x="120.5" y="610.8125">EvalAvsTaskManager</text><rect fill="#D6EAF8" height="46.1973" rx="2.5" ry="2.5" style="stroke:#2E86C1;stroke-width:2.0;" width="132" x="327" y="71"/><text fill="#000000" font-family="Arial" font-size="14" font-weight="bold" lengthAdjust="spacing" textLength="76" x="355" y="91.1318">&#171;Operator&#187;</text><text fill="#000000" font-family="Arial" font-size="14" font-weight="bold" lengthAdjust="spacing" textLength="118" x="334" y="107.2305">Original Operator</text><rect fill="#D6EAF8" height="46.1973" rx="2.5" ry="2.5" style="stroke:#2E86C1;stroke-width:2.0;" width="132" x="327" y="574.582"/><text fill="#000000" font-family="Arial" font-size="14" font-weight="bold" lengthAdjust="spacing" textLength="76" x="355" y="594.7139">&#171;Operator&#187;</text><text fill="#000000" font-family="Arial" font-size="14" font-weight="bold" lengthAdjust="spacing" textLength="118" x="334" y="610.8125">Original Operator</text><rect fill="#D6EAF8" height="46.1973" rx="2.5" ry="2.5" style="stroke:#2E86C1;stroke-width:2.0;" width="107" x="509" y="71"/><text fill="#000000" font-family="Arial" font-size="14" font-weight="bold" lengthAdjust="spacing" textLength="76" x="524.5" y="91.1318">&#171;Operator&#187;</text><text fill="#000000" font-family="Arial" font-size="14" font-weight="bold" lengthAdjust="spacing" textLength="93" x="516" y="107.2305">New Operator</text><rect fill="#D6EAF8" height="46.1973" rx="2.5" ry="2.5" style="stroke:#2E86C1;stroke-width:2.0;" width="107" x="509" y="574.582"/><text fill="#000000" font-family="Arial" font-size="14" font-weight="bold" lengthAdjust="spacing" textLength="76" x="524.5" y="594.7139">&#171;Operator&#187;</text><text fill="#000000" font-family="Arial" font-size="14" font-weight="bold" lengthAdjust="spacing" textLength="93" x="516" y="610.8125">New Operator</text><rect fill="#D4EFDF" height="46.1973" rx="2.5" ry="2.5" style="stroke:#196F3D;stroke-width:2.0;" width="99" x="719" y="71"/><text fill="#000000" font-family="Arial" font-size="14" font-weight="bold" lengthAdjust="spacing" textLength="81" x="728" y="91.1318">&#171;Evaluator&#187;</text><text fill="#000000" font-family="Arial" font-size="14" font-weight="bold" lengthAdjust="spacing" textLength="85" x="726" y="107.2305">GoEvaluator</text><rect fill="#D4EFDF" height="46.1973" rx="2.5" ry="2.5" style="stroke:#196F3D;stroke-width:2.0;" width="99" x="719" y="574.582"/><text fill="#000000" font-family="Arial" font-size="14" font-weight="bold" lengthAdjust="spacing" textLength="81" x="728" y="594.7139">&#171;Evaluator&#187;</text><text fill="#000000" font-family="Arial" font-size="14" font-weight="bold" lengthAdjust="spacing" textLength="85" x="726" y="610.8125">GoEvaluator</text><rect fill="#FFFFFF" height="160.7949" style="stroke:#181818;stroke-width:1.0;" width="10" x="189" y="184.0947"/><rect fill="#FFFFFF" height="70.8975" style="stroke:#181818;stroke-width:1.0;" width="10" x="557.5" y="451.7358"/><path d="M5,133.1973 L5,157.1973 L813,157.1973 L813,143.1973 L803,133.1973 L5,133.1973 " fill="#FEFFDD" style="stroke:#181818;stroke-width:0.5;"/><path d="M803,133.1973 L803,143.1973 L813,143.1973 L803,133.1973 " fill="#FEFFDD" style="stroke:#181818;stroke-width:0.5;"/><text fill="#000000" font-family="Arial" font-size="13" lengthAdjust="spacing" textLength="168" x="320.5" y="150.3911">Task Reassignment Process</text><polygon fill="#181818" points="177,180.0947,187,184.0947,177,188.0947,181,184.0947" style="stroke:#181818;stroke-width:1.0;"/><line style="stroke:#181818;stroke-width:1.5;" x1="48" x2="183" y1="184.0947" y2="184.0947"/><text fill="#000000" font-family="Arial" font-size="13" lengthAdjust="spacing" textLength="122" x="57.5" y="179.3398">reassignTask(taskId)</text><line style="stroke:#181818;stroke-width:1.5;" x1="199" x2="241" y1="213.0435" y2="213.0435"/><line style="stroke:#181818;stroke-width:1.5;" x1="241" x2="241" y1="213.0435" y2="226.0435"/><line style="stroke:#181818;stroke-width:1.5;" x1="200" x2="241" y1="226.0435" y2="226.0435"/><polygon fill="#181818" points="210,222.0435,200,226.0435,210,230.0435,206,226.0435" style="stroke:#181818;stroke-width:1.0;"/><text fill="#000000" font-family="Arial" font-size="13" lengthAdjust="spacing" textLength="137" x="206" y="208.2886">Check if task is expired</text><line style="stroke:#181818;stroke-width:1.5;" x1="199" x2="241" y1="254.9922" y2="254.9922"/><line style="stroke:#181818;stroke-width:1.5;" x1="241" x2="241" y1="254.9922" y2="267.9922"/><line style="stroke:#181818;stroke-width:1.5;" x1="200" x2="241" y1="267.9922" y2="267.9922"/><polygon fill="#181818" points="210,263.9922,200,267.9922,210,271.9922,206,267.9922" style="stroke:#181818;stroke-width:1.0;"/><text fill="#000000" font-family="Arial" font-size="13" lengthAdjust="spacing" textLength="170" x="206" y="250.2373">Get next operator from queue</text><line style="stroke:#181818;stroke-width:1.5;" x1="199" x2="241" y1="296.9409" y2="296.9409"/><line style="stroke:#181818;stroke-width:1.5;" x1="241" x2="241" y1="296.9409" y2="309.9409"/><line style="stroke:#181818;stroke-width:1.5;" x1="200" x2="241" y1="309.9409" y2="309.9409"/><polygon fill="#181818" points="210,305.9409,200,309.9409,210,313.9409,206,309.9409" style="stroke:#181818;stroke-width:1.0;"/><text fill="#000000" font-family="Arial" font-size="13" lengthAdjust="spacing" textLength="175" x="206" y="292.186">Update task with new operator</text><line style="stroke:#181818;stroke-width:1.5;" x1="199" x2="241" y1="343.8896" y2="343.8896"/><line style="stroke:#181818;stroke-width:1.5;" x1="241" x2="241" y1="343.8896" y2="356.8896"/><line style="stroke:#181818;stroke-width:1.5;" x1="194" x2="241" y1="356.8896" y2="356.8896"/><polygon fill="#181818" points="204,352.8896,194,356.8896,204,360.8896,200,356.8896" style="stroke:#181818;stroke-width:1.0;"/><text fill="#000000" font-family="Arial" font-size="13" lengthAdjust="spacing" textLength="163" x="206" y="339.1348">Emit EvalReassigned Event</text><polygon fill="#181818" points="381,376.8384,391,380.8384,381,384.8384,385,380.8384" style="stroke:#181818;stroke-width:1.0;"/><line style="stroke:#181818;stroke-width:1.5;stroke-dasharray:2.0,2.0;" x1="194" x2="387" y1="380.8384" y2="380.8384"/><text fill="#000000" font-family="Arial" font-size="13" lengthAdjust="spacing" textLength="132" x="227.5" y="376.0835">EvalReassigned Event</text><line style="stroke:#181818;stroke-width:1.5;" x1="393" x2="435" y1="409.7871" y2="409.7871"/><line style="stroke:#181818;stroke-width:1.5;" x1="435" x2="435" y1="409.7871" y2="422.7871"/><line style="stroke:#181818;stroke-width:1.5;" x1="394" x2="435" y1="422.7871" y2="422.7871"/><polygon fill="#181818" points="404,418.7871,394,422.7871,404,426.7871,400,422.7871" style="stroke:#181818;stroke-width:1.0;"/><text fill="#000000" font-family="Arial" font-size="13" lengthAdjust="spacing" textLength="136" x="400" y="405.0322">Cancel task processing</text><polygon fill="#181818" points="545.5,447.7358,555.5,451.7358,545.5,455.7358,549.5,451.7358" style="stroke:#181818;stroke-width:1.0;"/><line style="stroke:#181818;stroke-width:1.5;stroke-dasharray:2.0,2.0;" x1="194" x2="551.5" y1="451.7358" y2="451.7358"/><text fill="#000000" font-family="Arial" font-size="13" lengthAdjust="spacing" textLength="132" x="309.75" y="446.981">EvalReassigned Event</text><line style="stroke:#181818;stroke-width:1.5;" x1="567.5" x2="609.5" y1="480.6846" y2="480.6846"/><line style="stroke:#181818;stroke-width:1.5;" x1="609.5" x2="609.5" y1="480.6846" y2="493.6846"/><line style="stroke:#181818;stroke-width:1.5;" x1="568.5" x2="609.5" y1="493.6846" y2="493.6846"/><polygon fill="#181818" points="578.5,489.6846,568.5,493.6846,578.5,497.6846,574.5,493.6846" style="stroke:#181818;stroke-width:1.0;"/><text fill="#000000" font-family="Arial" font-size="13" lengthAdjust="spacing" textLength="182" x="574.5" y="475.9297">Check if new assigned operator</text><polygon fill="#181818" points="756.5,518.6333,766.5,522.6333,756.5,526.6333,760.5,522.6333" style="stroke:#181818;stroke-width:1.0;"/><line style="stroke:#181818;stroke-width:1.5;" x1="562.5" x2="762.5" y1="522.6333" y2="522.6333"/><text fill="#000000" font-family="Arial" font-size="13" lengthAdjust="spacing" textLength="141" x="595" y="517.8784">Start evaluation process</text><path d="M567,535.6333 L567,559.6333 L813,559.6333 L813,545.6333 L803,535.6333 L567,535.6333 " fill="#FEFFDD" style="stroke:#181818;stroke-width:0.5;"/><path d="M803,535.6333 L803,545.6333 L813,545.6333 L803,535.6333 " fill="#FEFFDD" style="stroke:#181818;stroke-width:0.5;"/><text fill="#000000" font-family="Arial" font-size="13" lengthAdjust="spacing" textLength="225" x="573" y="552.8271">Process follows normal evaluation flow</text><rect fill="#DDDDDD" height="191.085" id="_legend" rx="7.5" ry="7.5" style="stroke:#000000;stroke-width:1.0;" width="307" x="267.5" y="663.6807"/><text fill="#000000" font-family="Arial" font-size="14" font-weight="bold" lengthAdjust="spacing" textLength="78" x="276.5" y="683.8125">Entity Type</text><text fill="#000000" font-family="Arial" font-size="14" font-weight="bold" lengthAdjust="spacing" textLength="79" x="362.5" y="683.8125">Description</text><rect fill="#E9F7EF" height="16.0986" style="stroke:none;stroke-width:1.0;" width="86" x="272.5" y="686.7793"/><text fill="#000000" font-family="Arial" font-size="14" lengthAdjust="spacing" textLength="4" x="272.5" y="699.9111">&#160;</text><text fill="#000000" font-family="Arial" font-size="14" lengthAdjust="spacing" textLength="203" x="362.5" y="699.9111">Frontend - Web/UI Components</text><rect fill="#EBF5FB" height="16.0986" style="stroke:none;stroke-width:1.0;" width="86" x="272.5" y="702.8779"/><text fill="#000000" font-family="Arial" font-size="14" lengthAdjust="spacing" textLength="4" x="272.5" y="716.0098">&#160;</text><text fill="#000000" font-family="Arial" font-size="14" lengthAdjust="spacing" textLength="148" x="362.5" y="716.0098">API - Backend Services</text><rect fill="#F9EBEA" height="16.0986" style="stroke:none;stroke-width:1.0;" width="86" x="272.5" y="718.9766"/><text fill="#000000" font-family="Arial" font-size="14" lengthAdjust="spacing" textLength="4" x="272.5" y="732.1084">&#160;</text><text fill="#000000" font-family="Arial" font-size="14" lengthAdjust="spacing" textLength="190" x="362.5" y="732.1084">Auth - Authentication Services</text><rect fill="#F4ECF7" height="16.0986" style="stroke:none;stroke-width:1.0;" width="86" x="272.5" y="735.0752"/><text fill="#000000" font-family="Arial" font-size="14" lengthAdjust="spacing" textLength="4" x="272.5" y="748.207">&#160;</text><text fill="#000000" font-family="Arial" font-size="14" lengthAdjust="spacing" textLength="158" x="362.5" y="748.207">Database - Data Storage</text><rect fill="#FEF9E7" height="16.0986" style="stroke:none;stroke-width:1.0;" width="86" x="272.5" y="751.1738"/><text fill="#000000" font-family="Arial" font-size="14" lengthAdjust="spacing" textLength="4" x="272.5" y="764.3057">&#160;</text><text fill="#000000" font-family="Arial" font-size="14" lengthAdjust="spacing" textLength="181" x="362.5" y="764.3057">External - 3rd Party Services</text><rect fill="#FADBD8" height="16.0986" style="stroke:none;stroke-width:1.0;" width="86" x="272.5" y="767.2725"/><text fill="#000000" font-family="Arial" font-size="14" lengthAdjust="spacing" textLength="4" x="272.5" y="780.4043">&#160;</text><text fill="#000000" font-family="Arial" font-size="14" lengthAdjust="spacing" textLength="170" x="362.5" y="780.4043">Contract - Smart Contracts</text><rect fill="#FCF3CF" height="16.0986" style="stroke:none;stroke-width:1.0;" width="86" x="272.5" y="783.3711"/><text fill="#000000" font-family="Arial" font-size="14" lengthAdjust="spacing" textLength="4" x="272.5" y="796.5029">&#160;</text><text fill="#000000" font-family="Arial" font-size="14" lengthAdjust="spacing" textLength="168" x="362.5" y="796.5029">Queue - Message Queues</text><rect fill="#D6EAF8" height="16.0986" style="stroke:none;stroke-width:1.0;" width="86" x="272.5" y="799.4697"/><text fill="#000000" font-family="Arial" font-size="14" lengthAdjust="spacing" textLength="4" x="272.5" y="812.6016">&#160;</text><text fill="#000000" font-family="Arial" font-size="14" lengthAdjust="spacing" textLength="171" x="362.5" y="812.6016">Operator - Validator Nodes</text><rect fill="#D4EFDF" height="16.0986" style="stroke:none;stroke-width:1.0;" width="86" x="272.5" y="815.5684"/><text fill="#000000" font-family="Arial" font-size="14" lengthAdjust="spacing" textLength="4" x="272.5" y="828.7002">&#160;</text><text fill="#000000" font-family="Arial" font-size="14" lengthAdjust="spacing" textLength="197" x="362.5" y="828.7002">Evaluator - Evaluation Services</text><rect fill="#F5EEF8" height="16.0986" style="stroke:none;stroke-width:1.0;" width="86" x="272.5" y="831.667"/><text fill="#000000" font-family="Arial" font-size="14" lengthAdjust="spacing" textLength="4" x="272.5" y="844.7988">&#160;</text><text fill="#000000" font-family="Arial" font-size="14" lengthAdjust="spacing" textLength="171" x="362.5" y="844.7988">Storage - Storage Services</text><line style="stroke:#000000;stroke-width:1.0;" x1="272.5" x2="569.5" y1="670.6807" y2="670.6807"/><line style="stroke:#000000;stroke-width:1.0;" x1="272.5" x2="569.5" y1="686.7793" y2="686.7793"/><line style="stroke:#000000;stroke-width:1.0;" x1="272.5" x2="569.5" y1="702.8779" y2="702.8779"/><line style="stroke:#000000;stroke-width:1.0;" x1="272.5" x2="569.5" y1="718.9766" y2="718.9766"/><line style="stroke:#000000;stroke-width:1.0;" x1="272.5" x2="569.5" y1="735.0752" y2="735.0752"/><line style="stroke:#000000;stroke-width:1.0;" x1="272.5" x2="569.5" y1="751.1738" y2="751.1738"/><line style="stroke:#000000;stroke-width:1.0;" x1="272.5" x2="569.5" y1="767.2725" y2="767.2725"/><line style="stroke:#000000;stroke-width:1.0;" x1="272.5" x2="569.5" y1="783.3711" y2="783.3711"/><line style="stroke:#000000;stroke-width:1.0;" x1="272.5" x2="569.5" y1="799.4697" y2="799.4697"/><line style="stroke:#000000;stroke-width:1.0;" x1="272.5" x2="569.5" y1="815.5684" y2="815.5684"/><line style="stroke:#000000;stroke-width:1.0;" x1="272.5" x2="569.5" y1="831.667" y2="831.667"/><line style="stroke:#000000;stroke-width:1.0;" x1="272.5" x2="569.5" y1="847.7656" y2="847.7656"/><line style="stroke:#000000;stroke-width:1.0;" x1="272.5" x2="272.5" y1="670.6807" y2="847.7656"/><line style="stroke:#000000;stroke-width:1.0;" x1="358.5" x2="358.5" y1="670.6807" y2="847.7656"/><line style="stroke:#000000;stroke-width:1.0;" x1="569.5" x2="569.5" y1="670.6807" y2="847.7656"/><!--SRC=[ZLHDRzim3BthLt2zR0FMOXsmIr04o8AksA5hi7O_G91fcuZrCOcEq_twqKdiocaQx910elWUgQT7loDdchP0CDvQxouJFpTu5LhRAFKUxZKvbXyaRn5IG4Cb6J1jOc_fhsRoBa7f8t1D2GhILTHMfJMve6K53Jdavu3W8zS-ErZfo6GeQCShNHJaAlZoEJj_n3yjEeFV_7OulyxF5p7wxgacitQO4bnVVLMAYHk49vtMy0jrIbGvYuxXU-CxfRHXwNDHM78gl5I7YzkDRXQRrEFkjTCLnWlG2R8ztDmilUCe5FFv5FmGgIAd6tW86BLKs667w10KWc5vJF0JkobM0ly1k_Dzs-s8olQ26jS2KywpwB_1m-K_vRcp4tAjeZUYgLAxTBYSvrBC81vo- -07bhyVnSTUNDfenZnLvGeUionhD6kW4de64E_WDb34uYpe3XaSRXdy850PlGLnIejdWRz3qJUtgzKHryBIZIHdaRUM67gv1ecmaAt8f0eyUUafcz0TUs5sckwLPKv2brfcejbV9EpVIKRZTT7CH6_K6vlFKbNklMEMySLwxKOo_mPquh575ki2xWFooHXQtrjJBbdBavRJSWSNoiUbaV5Du7oqCcOPITcFTVOA6VmV]--></g></svg>