<?xml version="1.0" encoding="us-ascii" standalone="no"?><svg xmlns="http://www.w3.org/2000/svg" xmlns:xlink="http://www.w3.org/1999/xlink" contentStyleType="text/css" height="1260px" preserveAspectRatio="none" style="width:935px;height:1260px;background:#FFFFFF;" version="1.1" viewBox="0 0 935 1260" width="935px" zoomAndPan="magnify"><defs/><g><text fill="#303030" font-family="Arial" font-size="16" font-weight="bold" lengthAdjust="spacing" textLength="191" x="368.25" y="38.0078">Task Reassignment Flow</text><rect fill="#F8F8F8" height="233.9941" style="stroke:#000000;stroke-width:1.0;" width="10" x="186" y="198.2959"/><rect fill="#F8F8F8" height="100.5977" style="stroke:#000000;stroke-width:1.0;" width="10" x="633" y="583.6865"/><line style="stroke:#000000;stroke-width:0.5;stroke-dasharray:5.0,5.0;" x1="38" x2="38" y1="152.4971" y2="753.2329"/><line style="stroke:#000000;stroke-width:0.5;stroke-dasharray:5.0,5.0;" x1="191" x2="191" y1="152.4971" y2="753.2329"/><line style="stroke:#000000;stroke-width:0.5;stroke-dasharray:5.0,5.0;" x1="462" x2="462" y1="152.4971" y2="753.2329"/><line style="stroke:#000000;stroke-width:0.5;stroke-dasharray:5.0,5.0;" x1="638" x2="638" y1="152.4971" y2="753.2329"/><line style="stroke:#000000;stroke-width:0.5;stroke-dasharray:5.0,5.0;" x1="849.5" x2="849.5" y1="152.4971" y2="753.2329"/><text fill="#000000" font-family="Arial" font-size="14" font-weight="bold" lengthAdjust="spacing" textLength="44" x="13" y="141.5303">Admin</text><ellipse cx="38" cy="68.8984" fill="#FFFFFF" rx="8" ry="8" style="stroke:#454545;stroke-width:0.5;"/><path d="M38,76.8984 L38,103.8984 M25,84.8984 L51,84.8984 M38,103.8984 L25,118.8984 M38,103.8984 L51,118.8984 " fill="none" style="stroke:#454545;stroke-width:0.5;"/><text fill="#000000" font-family="Arial" font-size="14" font-weight="bold" lengthAdjust="spacing" textLength="44" x="13" y="773.3647">Admin</text><ellipse cx="38" cy="792.8315" fill="#FFFFFF" rx="8" ry="8" style="stroke:#454545;stroke-width:0.5;"/><path d="M38,800.8315 L38,827.8315 M25,808.8315 L51,808.8315 M38,827.8315 L25,842.8315 M38,827.8315 L51,842.8315 " fill="none" style="stroke:#454545;stroke-width:0.5;"/><rect fill="#FADBD8" height="56.4478" rx="4" ry="4" style="stroke:#943126;stroke-width:2.0;" width="162" x="110" y="95.0493"/><text fill="#000000" font-family="Arial" font-size="10" font-weight="bold" lengthAdjust="spacing" textLength="53" x="164.5" y="119.4292">&#171;Contract&#187;</text><text fill="#000000" font-family="Arial" font-size="13" font-weight="bold" lengthAdjust="spacing" textLength="132" x="125" y="133.7422">EvalAvsTaskManager</text><rect fill="#FADBD8" height="56.4478" rx="4" ry="4" style="stroke:#943126;stroke-width:2.0;" width="162" x="110" y="752.2329"/><text fill="#000000" font-family="Arial" font-size="10" font-weight="bold" lengthAdjust="spacing" textLength="53" x="164.5" y="776.6128">&#171;Contract&#187;</text><text fill="#000000" font-family="Arial" font-size="13" font-weight="bold" lengthAdjust="spacing" textLength="132" x="125" y="790.9258">EvalAvsTaskManager</text><rect fill="#D6EAF8" height="56.4478" rx="4" ry="4" style="stroke:#2E86C1;stroke-width:2.0;" width="138" x="393" y="95.0493"/><text fill="#000000" font-family="Arial" font-size="10" font-weight="bold" lengthAdjust="spacing" textLength="55" x="434.5" y="119.4292">&#171;Operator&#187;</text><text fill="#000000" font-family="Arial" font-size="13" font-weight="bold" lengthAdjust="spacing" textLength="108" x="408" y="133.7422">Original Operator</text><rect fill="#D6EAF8" height="56.4478" rx="4" ry="4" style="stroke:#2E86C1;stroke-width:2.0;" width="138" x="393" y="752.2329"/><text fill="#000000" font-family="Arial" font-size="10" font-weight="bold" lengthAdjust="spacing" textLength="55" x="434.5" y="776.6128">&#171;Operator&#187;</text><text fill="#000000" font-family="Arial" font-size="13" font-weight="bold" lengthAdjust="spacing" textLength="108" x="408" y="790.9258">Original Operator</text><rect fill="#D6EAF8" height="56.4478" rx="4" ry="4" style="stroke:#2E86C1;stroke-width:2.0;" width="114" x="581" y="95.0493"/><text fill="#000000" font-family="Arial" font-size="10" font-weight="bold" lengthAdjust="spacing" textLength="55" x="610.5" y="119.4292">&#171;Operator&#187;</text><text fill="#000000" font-family="Arial" font-size="13" font-weight="bold" lengthAdjust="spacing" textLength="84" x="596" y="133.7422">New Operator</text><rect fill="#D6EAF8" height="56.4478" rx="4" ry="4" style="stroke:#2E86C1;stroke-width:2.0;" width="114" x="581" y="752.2329"/><text fill="#000000" font-family="Arial" font-size="10" font-weight="bold" lengthAdjust="spacing" textLength="55" x="610.5" y="776.6128">&#171;Operator&#187;</text><text fill="#000000" font-family="Arial" font-size="13" font-weight="bold" lengthAdjust="spacing" textLength="84" x="596" y="790.9258">New Operator</text><rect fill="#D4EFDF" height="56.4478" rx="4" ry="4" style="stroke:#196F3D;stroke-width:2.0;" width="107" x="796.5" y="95.0493"/><text fill="#000000" font-family="Arial" font-size="10" font-weight="bold" lengthAdjust="spacing" textLength="59" x="820.5" y="119.4292">&#171;Evaluator&#187;</text><text fill="#000000" font-family="Arial" font-size="13" font-weight="bold" lengthAdjust="spacing" textLength="77" x="811.5" y="133.7422">GoEvaluator</text><rect fill="#D4EFDF" height="56.4478" rx="4" ry="4" style="stroke:#196F3D;stroke-width:2.0;" width="107" x="796.5" y="752.2329"/><text fill="#000000" font-family="Arial" font-size="10" font-weight="bold" lengthAdjust="spacing" textLength="59" x="820.5" y="776.6128">&#171;Evaluator&#187;</text><text fill="#000000" font-family="Arial" font-size="13" font-weight="bold" lengthAdjust="spacing" textLength="77" x="811.5" y="790.9258">GoEvaluator</text><rect fill="#F8F8F8" height="233.9941" style="stroke:#000000;stroke-width:1.0;" width="10" x="186" y="198.2959"/><rect fill="#F8F8F8" height="100.5977" style="stroke:#000000;stroke-width:1.0;" width="10" x="633" y="583.6865"/><polygon fill="#000000" points="174,194.2959,184,198.2959,174,202.2959,178,198.2959" style="stroke:#000000;stroke-width:1.0;"/><line style="stroke:#000000;stroke-width:1.5;" x1="38" x2="180" y1="198.2959" y2="198.2959"/><text fill="#000000" font-family="Arial" font-size="12" lengthAdjust="spacing" textLength="113" x="55.5" y="185.7529">reassignTask(taskId)</text><line style="stroke:#000000;stroke-width:1.5;" x1="196" x2="238" y1="242.0947" y2="242.0947"/><line style="stroke:#000000;stroke-width:1.5;" x1="238" x2="238" y1="242.0947" y2="255.0947"/><line style="stroke:#000000;stroke-width:1.5;" x1="197" x2="238" y1="255.0947" y2="255.0947"/><polygon fill="#000000" points="207,251.0947,197,255.0947,207,259.0947,203,255.0947" style="stroke:#000000;stroke-width:1.0;"/><text fill="#000000" font-family="Arial" font-size="12" lengthAdjust="spacing" textLength="35" x="211" y="229.5518">Check</text><text fill="#000000" font-family="Arial" font-size="12" lengthAdjust="spacing" textLength="3" x="246" y="229.5518">&#160;</text><text fill="#000000" font-family="Arial" font-size="12" lengthAdjust="spacing" textLength="6" x="249" y="229.5518">if</text><text fill="#000000" font-family="Arial" font-size="12" lengthAdjust="spacing" textLength="3" x="255" y="229.5518">&#160;</text><text fill="#000000" font-family="Arial" font-size="12" lengthAdjust="spacing" textLength="22" x="258" y="229.5518">task</text><text fill="#000000" font-family="Arial" font-size="12" lengthAdjust="spacing" textLength="3" x="280" y="229.5518">&#160;</text><text fill="#000000" font-family="Arial" font-size="12" lengthAdjust="spacing" textLength="9" x="283" y="229.5518">is</text><text fill="#000000" font-family="Arial" font-size="12" lengthAdjust="spacing" textLength="3" x="292" y="229.5518">&#160;</text><text fill="#000000" font-family="Arial" font-size="12" lengthAdjust="spacing" textLength="41" x="295" y="229.5518">expired</text><line style="stroke:#000000;stroke-width:1.5;" x1="196" x2="238" y1="312.6924" y2="312.6924"/><line style="stroke:#000000;stroke-width:1.5;" x1="238" x2="238" y1="312.6924" y2="325.6924"/><line style="stroke:#000000;stroke-width:1.5;" x1="197" x2="238" y1="325.6924" y2="325.6924"/><polygon fill="#000000" points="207,321.6924,197,325.6924,207,329.6924,203,325.6924" style="stroke:#000000;stroke-width:1.0;"/><text fill="#000000" font-family="Arial" font-size="12" lengthAdjust="spacing" textLength="19" x="211" y="286.3506">Get</text><text fill="#000000" font-family="Arial" font-size="12" lengthAdjust="spacing" textLength="3" x="230" y="286.3506">&#160;</text><text fill="#000000" font-family="Arial" font-size="12" lengthAdjust="spacing" textLength="23" x="233" y="286.3506">next</text><text fill="#000000" font-family="Arial" font-size="12" lengthAdjust="spacing" textLength="3" x="256" y="286.3506">&#160;</text><text fill="#000000" font-family="Arial" font-size="12" lengthAdjust="spacing" textLength="46" x="259" y="286.3506">operator</text><text fill="#000000" font-family="Arial" font-size="12" lengthAdjust="spacing" textLength="3" x="305" y="286.3506">&#160;</text><text fill="#000000" font-family="Arial" font-size="12" lengthAdjust="spacing" textLength="24" x="308" y="286.3506">from</text><text fill="#000000" font-family="Arial" font-size="12" lengthAdjust="spacing" textLength="3" x="332" y="286.3506">&#160;</text><text fill="#000000" font-family="Arial" font-size="12" lengthAdjust="spacing" textLength="41" x="335" y="286.3506">internal</text><text fill="#000000" font-family="Arial" font-size="12" lengthAdjust="spacing" textLength="3" x="376" y="286.3506">&#160;</text><text fill="#000000" font-family="Arial" font-size="12" lengthAdjust="spacing" textLength="63" x="379" y="286.3506">assignment</text><text fill="#000000" font-family="Arial" font-size="12" lengthAdjust="spacing" textLength="35" x="309" y="300.1494">queue</text><line style="stroke:#000000;stroke-width:1.5;" x1="196" x2="238" y1="369.4912" y2="369.4912"/><line style="stroke:#000000;stroke-width:1.5;" x1="238" x2="238" y1="369.4912" y2="382.4912"/><line style="stroke:#000000;stroke-width:1.5;" x1="197" x2="238" y1="382.4912" y2="382.4912"/><polygon fill="#000000" points="207,378.4912,197,382.4912,207,386.4912,203,382.4912" style="stroke:#000000;stroke-width:1.0;"/><text fill="#000000" font-family="Arial" font-size="12" lengthAdjust="spacing" textLength="40" x="211" y="356.9482">Update</text><text fill="#000000" font-family="Arial" font-size="12" lengthAdjust="spacing" textLength="3" x="251" y="356.9482">&#160;</text><text fill="#000000" font-family="Arial" font-size="12" lengthAdjust="spacing" textLength="22" x="254" y="356.9482">task</text><text fill="#000000" font-family="Arial" font-size="12" lengthAdjust="spacing" textLength="3" x="276" y="356.9482">&#160;</text><text fill="#000000" font-family="Arial" font-size="12" lengthAdjust="spacing" textLength="22" x="279" y="356.9482">with</text><text fill="#000000" font-family="Arial" font-size="12" lengthAdjust="spacing" textLength="3" x="301" y="356.9482">&#160;</text><text fill="#000000" font-family="Arial" font-size="12" lengthAdjust="spacing" textLength="23" x="304" y="356.9482">new</text><text fill="#000000" font-family="Arial" font-size="12" lengthAdjust="spacing" textLength="3" x="327" y="356.9482">&#160;</text><text fill="#000000" font-family="Arial" font-size="12" lengthAdjust="spacing" textLength="46" x="330" y="356.9482">operator</text><line style="stroke:#000000;stroke-width:1.5;" x1="196" x2="238" y1="431.29" y2="431.29"/><line style="stroke:#000000;stroke-width:1.5;" x1="238" x2="238" y1="431.29" y2="444.29"/><line style="stroke:#000000;stroke-width:1.5;" x1="191" x2="238" y1="444.29" y2="444.29"/><polygon fill="#000000" points="201,440.29,191,444.29,201,448.29,197,444.29" style="stroke:#000000;stroke-width:1.0;"/><text fill="#000000" font-family="Arial" font-size="12" lengthAdjust="spacing" textLength="24" x="211" y="418.7471">Emit</text><text fill="#000000" font-family="Arial" font-size="12" lengthAdjust="spacing" textLength="3" x="235" y="418.7471">&#160;</text><text fill="#000000" font-family="Arial" font-size="12" lengthAdjust="spacing" textLength="90" x="238" y="418.7471">EvalReassigned</text><text fill="#000000" font-family="Arial" font-size="12" lengthAdjust="spacing" textLength="3" x="328" y="418.7471">&#160;</text><text fill="#000000" font-family="Arial" font-size="12" lengthAdjust="spacing" textLength="31" x="331" y="418.7471">Event</text><polygon fill="#000000" points="450,479.0889,460,483.0889,450,487.0889,454,483.0889" style="stroke:#000000;stroke-width:1.0;"/><line style="stroke:#000000;stroke-width:1.5;stroke-dasharray:2.0,2.0;" x1="191" x2="456" y1="483.0889" y2="483.0889"/><text fill="#000000" font-family="Arial" font-size="12" lengthAdjust="spacing" textLength="90" x="264.5" y="470.5459">EvalReassigned</text><text fill="#000000" font-family="Arial" font-size="12" lengthAdjust="spacing" textLength="3" x="354.5" y="470.5459">&#160;</text><text fill="#000000" font-family="Arial" font-size="12" lengthAdjust="spacing" textLength="31" x="357.5" y="470.5459">Event</text><line style="stroke:#000000;stroke-width:1.5;" x1="462" x2="504" y1="526.8877" y2="526.8877"/><line style="stroke:#000000;stroke-width:1.5;" x1="504" x2="504" y1="526.8877" y2="539.8877"/><line style="stroke:#000000;stroke-width:1.5;" x1="463" x2="504" y1="539.8877" y2="539.8877"/><polygon fill="#000000" points="473,535.8877,463,539.8877,473,543.8877,469,539.8877" style="stroke:#000000;stroke-width:1.0;"/><text fill="#000000" font-family="Arial" font-size="12" lengthAdjust="spacing" textLength="39" x="477" y="514.3447">Cancel</text><text fill="#000000" font-family="Arial" font-size="12" lengthAdjust="spacing" textLength="3" x="516" y="514.3447">&#160;</text><text fill="#000000" font-family="Arial" font-size="12" lengthAdjust="spacing" textLength="22" x="519" y="514.3447">task</text><text fill="#000000" font-family="Arial" font-size="12" lengthAdjust="spacing" textLength="3" x="541" y="514.3447">&#160;</text><text fill="#000000" font-family="Arial" font-size="12" lengthAdjust="spacing" textLength="60" x="544" y="514.3447">processing</text><polygon fill="#000000" points="621,579.6865,631,583.6865,621,587.6865,625,583.6865" style="stroke:#000000;stroke-width:1.0;"/><line style="stroke:#000000;stroke-width:1.5;stroke-dasharray:2.0,2.0;" x1="191" x2="627" y1="583.6865" y2="583.6865"/><text fill="#000000" font-family="Arial" font-size="12" lengthAdjust="spacing" textLength="90" x="350" y="571.1436">EvalReassigned</text><text fill="#000000" font-family="Arial" font-size="12" lengthAdjust="spacing" textLength="3" x="440" y="571.1436">&#160;</text><text fill="#000000" font-family="Arial" font-size="12" lengthAdjust="spacing" textLength="31" x="443" y="571.1436">Event</text><line style="stroke:#000000;stroke-width:1.5;" x1="643" x2="685" y1="627.4854" y2="627.4854"/><line style="stroke:#000000;stroke-width:1.5;" x1="685" x2="685" y1="627.4854" y2="640.4854"/><line style="stroke:#000000;stroke-width:1.5;" x1="644" x2="685" y1="640.4854" y2="640.4854"/><polygon fill="#000000" points="654,636.4854,644,640.4854,654,644.4854,650,640.4854" style="stroke:#000000;stroke-width:1.0;"/><text fill="#000000" font-family="Arial" font-size="12" lengthAdjust="spacing" textLength="35" x="658" y="614.9424">Check</text><text fill="#000000" font-family="Arial" font-size="12" lengthAdjust="spacing" textLength="3" x="693" y="614.9424">&#160;</text><text fill="#000000" font-family="Arial" font-size="12" lengthAdjust="spacing" textLength="6" x="696" y="614.9424">if</text><text fill="#000000" font-family="Arial" font-size="12" lengthAdjust="spacing" textLength="3" x="702" y="614.9424">&#160;</text><text fill="#000000" font-family="Arial" font-size="12" lengthAdjust="spacing" textLength="23" x="705" y="614.9424">new</text><text fill="#000000" font-family="Arial" font-size="12" lengthAdjust="spacing" textLength="3" x="728" y="614.9424">&#160;</text><text fill="#000000" font-family="Arial" font-size="12" lengthAdjust="spacing" textLength="50" x="731" y="614.9424">assigned</text><text fill="#000000" font-family="Arial" font-size="12" lengthAdjust="spacing" textLength="3" x="781" y="614.9424">&#160;</text><text fill="#000000" font-family="Arial" font-size="12" lengthAdjust="spacing" textLength="46" x="784" y="614.9424">operator</text><polygon fill="#000000" points="838,680.2842,848,684.2842,838,688.2842,842,684.2842" style="stroke:#000000;stroke-width:1.0;"/><line style="stroke:#000000;stroke-width:1.5;" x1="638" x2="844" y1="684.2842" y2="684.2842"/><text fill="#000000" font-family="Arial" font-size="12" lengthAdjust="spacing" textLength="25" x="678.5" y="671.7412">Start</text><text fill="#000000" font-family="Arial" font-size="12" lengthAdjust="spacing" textLength="3" x="703.5" y="671.7412">&#160;</text><text fill="#000000" font-family="Arial" font-size="12" lengthAdjust="spacing" textLength="57" x="706.5" y="671.7412">evaluation</text><text fill="#000000" font-family="Arial" font-size="12" lengthAdjust="spacing" textLength="3" x="763.5" y="671.7412">&#160;</text><text fill="#000000" font-family="Arial" font-size="12" lengthAdjust="spacing" textLength="43" x="766.5" y="671.7412">process</text><path d="M643,701.2842 L643,733.2842 A4,4 0 0 0 647,737.2842 L910,737.2842 A4,4 0 0 0 914,733.2842 L914,707.2842 L904,697.2842 L647,697.2842 A4,4 0 0 0 643,701.2842 " fill="#FFFFDD" style="stroke:#999999;stroke-width:1.0;"/><path d="M904,697.2842 L904,705.2842 A2,2 0 0 0 906,707.2842 L914,707.2842 L904,697.2842 " fill="#FFFFDD" style="stroke:#999999;stroke-width:1.0;"/><text fill="#000000" font-family="Arial" font-size="13" lengthAdjust="spacing" textLength="225" x="666" y="722.478">Process follows normal evaluation flow</text><rect fill="none" height="383.085" id="_legend" rx="4" ry="4" style="stroke:#000000;stroke-width:1.0;" width="355" x="560.5" y="857.3315"/><text fill="#000000" font-family="Arial" font-size="14" font-weight="bold" lengthAdjust="spacing" textLength="78" x="585.5" y="893.4634">Entity Type</text><text fill="#000000" font-family="Arial" font-size="14" font-weight="bold" lengthAdjust="spacing" textLength="79" x="687.5" y="893.4634">Description</text><rect fill="#E9F7EF" height="32.0986" style="stroke:none;stroke-width:1.0;" width="102" x="573.5" y="904.4302"/><text fill="#000000" font-family="Arial" font-size="14" lengthAdjust="spacing" textLength="4" x="581.5" y="925.562">&#160;</text><text fill="#000000" font-family="Arial" font-size="14" lengthAdjust="spacing" textLength="203" x="687.5" y="925.562">Frontend - Web/UI Components</text><rect fill="#EBF5FB" height="32.0986" style="stroke:none;stroke-width:1.0;" width="102" x="573.5" y="936.5288"/><text fill="#000000" font-family="Arial" font-size="14" lengthAdjust="spacing" textLength="4" x="581.5" y="957.6606">&#160;</text><text fill="#000000" font-family="Arial" font-size="14" lengthAdjust="spacing" textLength="148" x="687.5" y="957.6606">API - Backend Services</text><rect fill="#F9EBEA" height="32.0986" style="stroke:none;stroke-width:1.0;" width="102" x="573.5" y="968.6274"/><text fill="#000000" font-family="Arial" font-size="14" lengthAdjust="spacing" textLength="4" x="581.5" y="989.7593">&#160;</text><text fill="#000000" font-family="Arial" font-size="14" lengthAdjust="spacing" textLength="190" x="687.5" y="989.7593">Auth - Authentication Services</text><rect fill="#F4ECF7" height="32.0986" style="stroke:none;stroke-width:1.0;" width="102" x="573.5" y="1000.7261"/><text fill="#000000" font-family="Arial" font-size="14" lengthAdjust="spacing" textLength="4" x="581.5" y="1021.8579">&#160;</text><text fill="#000000" font-family="Arial" font-size="14" lengthAdjust="spacing" textLength="158" x="687.5" y="1021.8579">Database - Data Storage</text><rect fill="#FEF9E7" height="32.0986" style="stroke:none;stroke-width:1.0;" width="102" x="573.5" y="1032.8247"/><text fill="#000000" font-family="Arial" font-size="14" lengthAdjust="spacing" textLength="4" x="581.5" y="1053.9565">&#160;</text><text fill="#000000" font-family="Arial" font-size="14" lengthAdjust="spacing" textLength="181" x="687.5" y="1053.9565">External - 3rd Party Services</text><rect fill="#FADBD8" height="32.0986" style="stroke:none;stroke-width:1.0;" width="102" x="573.5" y="1064.9233"/><text fill="#000000" font-family="Arial" font-size="14" lengthAdjust="spacing" textLength="4" x="581.5" y="1086.0552">&#160;</text><text fill="#000000" font-family="Arial" font-size="14" lengthAdjust="spacing" textLength="170" x="687.5" y="1086.0552">Contract - Smart Contracts</text><rect fill="#FCF3CF" height="32.0986" style="stroke:none;stroke-width:1.0;" width="102" x="573.5" y="1097.022"/><text fill="#000000" font-family="Arial" font-size="14" lengthAdjust="spacing" textLength="4" x="581.5" y="1118.1538">&#160;</text><text fill="#000000" font-family="Arial" font-size="14" lengthAdjust="spacing" textLength="168" x="687.5" y="1118.1538">Queue - Message Queues</text><rect fill="#D6EAF8" height="32.0986" style="stroke:none;stroke-width:1.0;" width="102" x="573.5" y="1129.1206"/><text fill="#000000" font-family="Arial" font-size="14" lengthAdjust="spacing" textLength="4" x="581.5" y="1150.2524">&#160;</text><text fill="#000000" font-family="Arial" font-size="14" lengthAdjust="spacing" textLength="171" x="687.5" y="1150.2524">Operator - Validator Nodes</text><rect fill="#D4EFDF" height="32.0986" style="stroke:none;stroke-width:1.0;" width="102" x="573.5" y="1161.2192"/><text fill="#000000" font-family="Arial" font-size="14" lengthAdjust="spacing" textLength="4" x="581.5" y="1182.3511">&#160;</text><text fill="#000000" font-family="Arial" font-size="14" lengthAdjust="spacing" textLength="197" x="687.5" y="1182.3511">Evaluator - Evaluation Services</text><rect fill="#F5EEF8" height="32.0986" style="stroke:none;stroke-width:1.0;" width="102" x="573.5" y="1193.3179"/><text fill="#000000" font-family="Arial" font-size="14" lengthAdjust="spacing" textLength="4" x="581.5" y="1214.4497">&#160;</text><text fill="#000000" font-family="Arial" font-size="14" lengthAdjust="spacing" textLength="171" x="687.5" y="1214.4497">Storage - Storage Services</text><line style="stroke:#000000;stroke-width:1.0;" x1="573.5" x2="902.5" y1="872.3315" y2="872.3315"/><line style="stroke:#000000;stroke-width:1.0;" x1="573.5" x2="902.5" y1="904.4302" y2="904.4302"/><line style="stroke:#000000;stroke-width:1.0;" x1="573.5" x2="902.5" y1="936.5288" y2="936.5288"/><line style="stroke:#000000;stroke-width:1.0;" x1="573.5" x2="902.5" y1="968.6274" y2="968.6274"/><line style="stroke:#000000;stroke-width:1.0;" x1="573.5" x2="902.5" y1="1000.7261" y2="1000.7261"/><line style="stroke:#000000;stroke-width:1.0;" x1="573.5" x2="902.5" y1="1032.8247" y2="1032.8247"/><line style="stroke:#000000;stroke-width:1.0;" x1="573.5" x2="902.5" y1="1064.9233" y2="1064.9233"/><line style="stroke:#000000;stroke-width:1.0;" x1="573.5" x2="902.5" y1="1097.022" y2="1097.022"/><line style="stroke:#000000;stroke-width:1.0;" x1="573.5" x2="902.5" y1="1129.1206" y2="1129.1206"/><line style="stroke:#000000;stroke-width:1.0;" x1="573.5" x2="902.5" y1="1161.2192" y2="1161.2192"/><line style="stroke:#000000;stroke-width:1.0;" x1="573.5" x2="902.5" y1="1193.3179" y2="1193.3179"/><line style="stroke:#000000;stroke-width:1.0;" x1="573.5" x2="902.5" y1="1225.4165" y2="1225.4165"/><line style="stroke:#000000;stroke-width:1.0;" x1="573.5" x2="573.5" y1="872.3315" y2="1225.4165"/><line style="stroke:#000000;stroke-width:1.0;" x1="675.5" x2="675.5" y1="872.3315" y2="1225.4165"/><line style="stroke:#000000;stroke-width:1.0;" x1="902.5" x2="902.5" y1="872.3315" y2="1225.4165"/><!--SRC=[ZLJBRjim4BppAxQvj3qaQ0hqOWG6N2CDUaXZDEa74EHAMfWFbLnPJh- -AxjIQCSnUf10xd9cNqE-es1SPn5Cz3w6oypF3g_QpZkbtiEzfi3oGOuU8RTeg283fiiSFVtHJ35ag682RYY39LqdxLLUKsYrhC1HG7vk4MBY9XQEbKvCXbeTUAMjfL33vq-5_n5_TnWCVetRqNzT-XSfnVwf8RCEc3DSNtrHYeaTmfFEQ_Y9EcUgWyV0yCt5NYbjMF9SM4z1jI_HuU9sezrYamVSlGwwndG1EaEnXvkRPGoSX68-FmG_9AefQ0SFBIOj4NROqJeQXM1S7XFymFuGAuR_WDt58UrkGXLxGKrhWIcrgnakvsL9CqZ_MZGOFx3yljkFGvDeendBewhin37Bia6p1gfWO03H06vRIcZFWkwG8U2M8Ow5LYbw4ArX6dfPp4vKqE5Pib-j7HBUnU-96s7k9-Apo5jF34EhHhMWbQr4LHPFDkAGJUYEvpmxJVTA3YUXIorwT_j2sXIDw5fa_pfe8P0tuat95qTLgQjZbccAG-ycilW6jD3Q31vPP0cuDyXpCAQkGfG4fCX6nbmTXbljZyZ3uUHgPWWnUHbxGL8DLxQOGW7_2m00]--></g></svg>