<?xml version="1.0" encoding="us-ascii" standalone="no"?><svg xmlns="http://www.w3.org/2000/svg" xmlns:xlink="http://www.w3.org/1999/xlink" contentStyleType="text/css" height="862px" preserveAspectRatio="none" style="width:1228px;height:862px;background:#FFFFFF;" version="1.1" viewBox="0 0 1228 862" width="1228px" zoomAndPan="magnify"><defs/><g><text fill="#000000" font-family="Verdana" font-size="22" font-weight="bold" lengthAdjust="spacing" textLength="339" x="456.25" y="37.1182">Operator Registration Flow</text><rect fill="#FFFFFF" height="286.1938" style="stroke:#000000;stroke-width:1.0;" width="10" x="70" y="440.9458"/><rect fill="#FFFFFF" height="102.3979" style="stroke:#000000;stroke-width:1.0;" width="10" x="254" y="198.3506"/><rect fill="#FFFFFF" height="72.5986" style="stroke:#000000;stroke-width:1.0;" width="10" x="254" y="330.5479"/><line style="stroke:#000000;stroke-width:1.0;" x1="75" x2="75" y1="130.752" y2="780.939"/><line style="stroke:#000000;stroke-width:1.0;" x1="258.5" x2="258.5" y1="130.752" y2="780.939"/><line style="stroke:#000000;stroke-width:1.0;" x1="522.5" x2="522.5" y1="130.752" y2="780.939"/><line style="stroke:#000000;stroke-width:1.0;" x1="709.5" x2="709.5" y1="130.752" y2="780.939"/><line style="stroke:#000000;stroke-width:1.0;" x1="929.5" x2="929.5" y1="130.752" y2="780.939"/><line style="stroke:#000000;stroke-width:1.0;" x1="1140.5" x2="1140.5" y1="130.752" y2="780.939"/><text fill="#000000" font-family="Verdana" font-size="14" lengthAdjust="spacing" textLength="62" x="41" y="127.8125">Operator</text><ellipse cx="75" cy="61.7373" fill="#FFFFFF" rx="8" ry="8" style="stroke:#000000;stroke-width:1.0;"/><path d="M75,69.7373 L75,96.7373 M62,77.7373 L88,77.7373 M75,96.7373 L62,111.7373 M75,96.7373 L88,111.7373 " fill="none" style="stroke:#000000;stroke-width:1.0;"/><text fill="#000000" font-family="Verdana" font-size="14" lengthAdjust="spacing" textLength="62" x="41" y="794.0142">Operator</text><ellipse cx="75" cy="805.9536" fill="#FFFFFF" rx="8" ry="8" style="stroke:#000000;stroke-width:1.0;"/><path d="M75,813.9536 L75,840.9536 M62,821.9536 L88,821.9536 M75,840.9536 L62,855.9536 M75,840.9536 L88,855.9536 " fill="none" style="stroke:#000000;stroke-width:1.0;"/><rect fill="#FFFFFF" height="31.0146" style="stroke:#000000;stroke-width:1.0;" width="105" x="206.5" y="98.7373"/><text fill="#000000" font-family="Verdana" font-size="14" lengthAdjust="spacing" textLength="91" x="213.5" y="119.8125">Operator CLI</text><rect fill="#FFFFFF" height="31.0146" style="stroke:#000000;stroke-width:1.0;" width="105" x="206.5" y="779.939"/><text fill="#000000" font-family="Verdana" font-size="14" lengthAdjust="spacing" textLength="91" x="213.5" y="801.0142">Operator CLI</text><rect fill="#FFFFFF" height="31.0146" style="stroke:#000000;stroke-width:1.0;" width="95" x="475.5" y="98.7373"/><text fill="#000000" font-family="Verdana" font-size="14" lengthAdjust="spacing" textLength="81" x="482.5" y="119.8125">Config Files</text><rect fill="#FFFFFF" height="31.0146" style="stroke:#000000;stroke-width:1.0;" width="95" x="475.5" y="779.939"/><text fill="#000000" font-family="Verdana" font-size="14" lengthAdjust="spacing" textLength="81" x="482.5" y="801.0142">Config Files</text><rect fill="#FFFFFF" height="31.0146" style="stroke:#000000;stroke-width:1.0;" width="179" x="620.5" y="98.7373"/><text fill="#000000" font-family="Verdana" font-size="14" lengthAdjust="spacing" textLength="165" x="627.5" y="119.8125">EvalAvsServiceManager</text><rect fill="#FFFFFF" height="31.0146" style="stroke:#000000;stroke-width:1.0;" width="179" x="620.5" y="779.939"/><text fill="#000000" font-family="Verdana" font-size="14" lengthAdjust="spacing" textLength="165" x="627.5" y="801.0142">EvalAvsServiceManager</text><rect fill="#FFFFFF" height="31.0146" style="stroke:#000000;stroke-width:1.0;" width="160" x="849.5" y="98.7373"/><text fill="#000000" font-family="Verdana" font-size="14" lengthAdjust="spacing" textLength="146" x="856.5" y="119.8125">EvalAvsTaskManager</text><rect fill="#FFFFFF" height="31.0146" style="stroke:#000000;stroke-width:1.0;" width="160" x="849.5" y="779.939"/><text fill="#000000" font-family="Verdana" font-size="14" lengthAdjust="spacing" textLength="146" x="856.5" y="801.0142">EvalAvsTaskManager</text><rect fill="#FFFFFF" height="31.0146" style="stroke:#000000;stroke-width:1.0;" width="163" x="1059.5" y="98.7373"/><text fill="#000000" font-family="Verdana" font-size="14" lengthAdjust="spacing" textLength="149" x="1066.5" y="119.8125">EigenLayer Contracts</text><rect fill="#FFFFFF" height="31.0146" style="stroke:#000000;stroke-width:1.0;" width="163" x="1059.5" y="779.939"/><text fill="#000000" font-family="Verdana" font-size="14" lengthAdjust="spacing" textLength="149" x="1066.5" y="801.0142">EigenLayer Contracts</text><rect fill="#FFFFFF" height="286.1938" style="stroke:#000000;stroke-width:1.0;" width="10" x="70" y="440.9458"/><rect fill="#FFFFFF" height="102.3979" style="stroke:#000000;stroke-width:1.0;" width="10" x="254" y="198.3506"/><rect fill="#FFFFFF" height="72.5986" style="stroke:#000000;stroke-width:1.0;" width="10" x="254" y="330.5479"/><path d="M10,145.752 L10,170.752 L1206,170.752 L1206,155.752 L1196,145.752 L10,145.752 " fill="#FFFFFF" style="stroke:#000000;stroke-width:1.0;"/><path d="M1196,145.752 L1196,155.752 L1206,155.752 L1196,145.752 " fill="#FFFFFF" style="stroke:#000000;stroke-width:1.0;"/><text fill="#000000" font-family="Verdana" font-size="13" lengthAdjust="spacing" textLength="216" x="500.25" y="163.8218">Operator Setup and Registration</text><polygon fill="#000000" points="242,194.3506,252,198.3506,242,202.3506,246,198.3506" style="stroke:#000000;stroke-width:1.0;"/><line style="stroke:#000000;stroke-width:1.5;" x1="75" x2="248" y1="198.3506" y2="198.3506"/><text fill="#000000" font-family="Verdana" font-size="13" lengthAdjust="spacing" textLength="118" x="105.5" y="193.6211">run init command</text><line style="stroke:#000000;stroke-width:1.5;" x1="264" x2="306" y1="228.1499" y2="228.1499"/><line style="stroke:#000000;stroke-width:1.5;" x1="306" x2="306" y1="228.1499" y2="241.1499"/><line style="stroke:#000000;stroke-width:1.5;" x1="265" x2="306" y1="241.1499" y2="241.1499"/><polygon fill="#000000" points="275,237.1499,265,241.1499,275,245.1499,271,241.1499" style="stroke:#000000;stroke-width:1.0;"/><text fill="#000000" font-family="Verdana" font-size="13" lengthAdjust="spacing" textLength="240" x="271" y="223.4204">Generate/load ECDSA and BLS keys</text><polygon fill="#000000" points="511,266.9492,521,270.9492,511,274.9492,515,270.9492" style="stroke:#000000;stroke-width:1.0;"/><line style="stroke:#000000;stroke-width:1.5;" x1="264" x2="517" y1="270.9492" y2="270.9492"/><text fill="#000000" font-family="Verdana" font-size="13" lengthAdjust="spacing" textLength="122" x="332.5" y="266.2197">Create config files</text><polygon fill="#000000" points="86,296.7485,76,300.7485,86,304.7485,82,300.7485" style="stroke:#000000;stroke-width:1.0;"/><line style="stroke:#000000;stroke-width:1.5;stroke-dasharray:2.0,2.0;" x1="80" x2="258" y1="300.7485" y2="300.7485"/><text fill="#000000" font-family="Verdana" font-size="13" lengthAdjust="spacing" textLength="155" x="89.5" y="296.019">Configuration complete</text><polygon fill="#000000" points="242,326.5479,252,330.5479,242,334.5479,246,330.5479" style="stroke:#000000;stroke-width:1.0;"/><line style="stroke:#000000;stroke-width:1.5;" x1="75" x2="248" y1="330.5479" y2="330.5479"/><text fill="#000000" font-family="Verdana" font-size="13" lengthAdjust="spacing" textLength="113" x="108" y="325.8184">run docker setup</text><line style="stroke:#000000;stroke-width:1.5;" x1="264" x2="306" y1="360.3472" y2="360.3472"/><line style="stroke:#000000;stroke-width:1.5;" x1="306" x2="306" y1="360.3472" y2="373.3472"/><line style="stroke:#000000;stroke-width:1.5;" x1="265" x2="306" y1="373.3472" y2="373.3472"/><polygon fill="#000000" points="275,369.3472,265,373.3472,275,377.3472,271,373.3472" style="stroke:#000000;stroke-width:1.0;"/><text fill="#000000" font-family="Verdana" font-size="13" lengthAdjust="spacing" textLength="209" x="271" y="355.6177">Generate docker-compose files</text><polygon fill="#000000" points="86,399.1465,76,403.1465,86,407.1465,82,403.1465" style="stroke:#000000;stroke-width:1.0;"/><line style="stroke:#000000;stroke-width:1.5;stroke-dasharray:2.0,2.0;" x1="80" x2="258" y1="403.1465" y2="403.1465"/><text fill="#000000" font-family="Verdana" font-size="13" lengthAdjust="spacing" textLength="154" x="90" y="398.417">Docker setup complete</text><line style="stroke:#000000;stroke-width:1.5;" x1="75" x2="122" y1="427.9458" y2="427.9458"/><line style="stroke:#000000;stroke-width:1.5;" x1="122" x2="122" y1="427.9458" y2="440.9458"/><line style="stroke:#000000;stroke-width:1.5;" x1="81" x2="122" y1="440.9458" y2="440.9458"/><polygon fill="#000000" points="91,436.9458,81,440.9458,91,444.9458,87,440.9458" style="stroke:#000000;stroke-width:1.0;"/><text fill="#000000" font-family="Verdana" font-size="13" lengthAdjust="spacing" textLength="132" x="87" y="423.2163">Start operator node</text><polygon fill="#000000" points="1129,471.7451,1139,475.7451,1129,479.7451,1133,475.7451" style="stroke:#000000;stroke-width:1.0;"/><line style="stroke:#000000;stroke-width:1.5;" x1="80" x2="1135" y1="475.7451" y2="475.7451"/><text fill="#000000" font-family="Verdana" font-size="13" lengthAdjust="spacing" textLength="300" x="460.5" y="471.0156">Register with EigenLayer (ECDSA+BLS keys)</text><polygon fill="#000000" points="91,501.5444,81,505.5444,91,509.5444,87,505.5444" style="stroke:#000000;stroke-width:1.0;"/><line style="stroke:#000000;stroke-width:1.5;stroke-dasharray:2.0,2.0;" x1="85" x2="1140" y1="505.5444" y2="505.5444"/><text fill="#000000" font-family="Verdana" font-size="13" lengthAdjust="spacing" textLength="152" x="534.5" y="500.8149">Registration confirmed</text><polygon fill="#000000" points="698,531.3438,708,535.3438,698,539.3438,702,535.3438" style="stroke:#000000;stroke-width:1.0;"/><line style="stroke:#000000;stroke-width:1.5;" x1="80" x2="704" y1="535.3438" y2="535.3438"/><text fill="#000000" font-family="Verdana" font-size="13" lengthAdjust="spacing" textLength="252" x="269" y="530.6143">Register with EvalAvsServiceManager</text><polygon fill="#000000" points="1129,561.1431,1139,565.1431,1129,569.1431,1133,565.1431" style="stroke:#000000;stroke-width:1.0;"/><line style="stroke:#000000;stroke-width:1.5;" x1="710" x2="1135" y1="565.1431" y2="565.1431"/><text fill="#000000" font-family="Verdana" font-size="13" lengthAdjust="spacing" textLength="122" x="864.5" y="560.4136">Verify registration</text><polygon fill="#000000" points="721,590.9424,711,594.9424,721,598.9424,717,594.9424" style="stroke:#000000;stroke-width:1.0;"/><line style="stroke:#000000;stroke-width:1.5;stroke-dasharray:2.0,2.0;" x1="715" x2="1140" y1="594.9424" y2="594.9424"/><text fill="#000000" font-family="Verdana" font-size="13" lengthAdjust="spacing" textLength="135" x="858" y="590.2129">Confirm registration</text><polygon fill="#000000" points="91,620.7417,81,624.7417,91,628.7417,87,624.7417" style="stroke:#000000;stroke-width:1.0;"/><line style="stroke:#000000;stroke-width:1.5;stroke-dasharray:2.0,2.0;" x1="85" x2="709" y1="624.7417" y2="624.7417"/><text fill="#000000" font-family="Verdana" font-size="13" lengthAdjust="spacing" textLength="181" x="304.5" y="620.0122">AVS registration confirmed</text><polygon fill="#000000" points="917.5,650.541,927.5,654.541,917.5,658.541,921.5,654.541" style="stroke:#000000;stroke-width:1.0;"/><line style="stroke:#000000;stroke-width:1.5;" x1="80" x2="923.5" y1="654.541" y2="654.541"/><text fill="#000000" font-family="Verdana" font-size="13" lengthAdjust="spacing" textLength="155" x="427.25" y="649.8115">joinAssignmentQueue()</text><line style="stroke:#000000;stroke-width:1.5;" x1="929.5" x2="971.5" y1="684.3403" y2="684.3403"/><line style="stroke:#000000;stroke-width:1.5;" x1="971.5" x2="971.5" y1="684.3403" y2="697.3403"/><line style="stroke:#000000;stroke-width:1.5;" x1="930.5" x2="971.5" y1="697.3403" y2="697.3403"/><polygon fill="#000000" points="940.5,693.3403,930.5,697.3403,940.5,701.3403,936.5,697.3403" style="stroke:#000000;stroke-width:1.0;"/><text fill="#000000" font-family="Verdana" font-size="13" lengthAdjust="spacing" textLength="150" x="936.5" y="679.6108">Add operator to queue</text><polygon fill="#000000" points="86,723.1396,76,727.1396,86,731.1396,82,727.1396" style="stroke:#000000;stroke-width:1.0;"/><line style="stroke:#000000;stroke-width:1.5;stroke-dasharray:2.0,2.0;" x1="80" x2="928.5" y1="727.1396" y2="727.1396"/><text fill="#000000" font-family="Verdana" font-size="13" lengthAdjust="spacing" textLength="172" x="416.25" y="722.4102">Successfully joined queue</text><path d="M10,740.1396 L10,765.1396 L1206,765.1396 L1206,750.1396 L1196,740.1396 L10,740.1396 " fill="#FFFFFF" style="stroke:#000000;stroke-width:1.0;"/><path d="M1196,740.1396 L1196,750.1396 L1206,750.1396 L1196,740.1396 " fill="#FFFFFF" style="stroke:#000000;stroke-width:1.0;"/><text fill="#000000" font-family="Verdana" font-size="13" lengthAdjust="spacing" textLength="265" x="475.75" y="758.2095">Operator is now ready to execute tasks</text><!--SRC=[ZLHDJzmm4BtxLqov06ffeL8lUwYqB51L0fKsYBkn9uaRnmwsizdy-uwJtQopWCfXFvBtdkVD6zl7SCcz4k13hvKfs8TGOetGQAuCyvKo3NUyXYSkgiBPriYLrTP1Lwg02IunvwqE3xW9IwqAKwC98EWB7MF7SBrfj18gw1wayln98vJSoCwf4D10RMMwM0hbNFiKyoMNjYEdBv2jEsVGmNaiUcETG6hCSLMK0QWzz0a_FeU-GR0kb3O1xhaBPBRX9jnpAMEjh-S9dk5pYqRWfTtiy8kXu1slg5xhSAm5r0RarWJwH- -4Kxv9bbawPxinpITDyHv23wKI5ItZuUBpDyO2fOVmgq770qd-OA5YQq5P0pVQTenn4O4TWpNxDk1eqgrkVnu1z_5tpbXPawi2RfH6FpA65tFIzPhhvTfdwDPAu1qtl40tiEUlNbKzS5-bakJvWAyADBUyfq6I2MfIXD7I7c3Cs42ZM-E-uqy9ljWdbM5ecs4MQMQCJOIpxp6D1RZMW3AAzgsjQ-B7GDMQKvaO5dqcvWyqKOjVjEKIhbTNsN8eS7cRGOMzdyX3X0jOEOpBY37YF4OyKeYpix7OijljJCb4ev4EcSIPZzTzIoigYiB7Nl_lUqi_YpMinpSTNIMhli_GNfi56YdO7MRY4PzqqoPDjUdqnb5HxKw5Ca7WP4ZxuoxfKvPWS_Ep4p94xsgKSxlpNVkYx6kxdSqV3uq_ebDv3oxTQWSM3ukkHczppM6LMMlBnsp6Vgkzv8GjuAzLPkdzzdB-tMAB9wSieRnGBANS3p1OU8wQkM8-ybO8kg_oLjCz7ykXt6gIBJED_lqdM7dQFXrrp6KVVU06HKlQG4xyFm00]--></g></svg>