<?xml version="1.0" encoding="us-ascii" standalone="no"?><svg xmlns="http://www.w3.org/2000/svg" xmlns:xlink="http://www.w3.org/1999/xlink" contentStyleType="text/css" height="2093px" preserveAspectRatio="none" style="width:1515px;height:2093px;background:#FFFFFF;" version="1.1" viewBox="0 0 1515 2093" width="1515px" zoomAndPan="magnify"><defs/><g><text fill="#303030" font-family="Arial" font-size="16" font-weight="bold" lengthAdjust="spacing" textLength="275" x="616" y="38.0078">Task Creation and Assignment Flow</text><rect fill="#F8F8F8" height="194.1953" style="stroke:#000000;stroke-width:1.0;" width="10" x="291" y="212.0947"/><rect fill="#F8F8F8" height="207.1953" style="stroke:#000000;stroke-width:1.0;" width="10" x="291" y="1354.0654"/><rect fill="#F8F8F8" height="995.5742" style="stroke:#000000;stroke-width:1.0;" width="10" x="676.5" y="565.6865"/><rect fill="#F8F8F8" height="362.3906" style="stroke:#000000;stroke-width:1.0;" width="10" x="882.5" y="789.6807"/><rect fill="none" height="247.793" rx="4" ry="4" style="stroke:#CCCCCC;stroke-width:1.0;" width="539" x="804" y="804.6807"/><line style="stroke:#000000;stroke-width:0.5;stroke-dasharray:5.0,5.0;" x1="38" x2="38" y1="152.4971" y2="1586.2607"/><line style="stroke:#000000;stroke-width:0.5;stroke-dasharray:5.0,5.0;" x1="296" x2="296" y1="152.4971" y2="1586.2607"/><line style="stroke:#000000;stroke-width:0.5;stroke-dasharray:5.0,5.0;" x1="515" x2="515" y1="152.4971" y2="1586.2607"/><line style="stroke:#000000;stroke-width:0.5;stroke-dasharray:5.0,5.0;" x1="681" x2="681" y1="152.4971" y2="1586.2607"/><line style="stroke:#000000;stroke-width:0.5;stroke-dasharray:5.0,5.0;" x1="887" x2="887" y1="152.4971" y2="1586.2607"/><line style="stroke:#000000;stroke-width:0.5;stroke-dasharray:5.0,5.0;" x1="1070" x2="1070" y1="152.4971" y2="1586.2607"/><line style="stroke:#000000;stroke-width:0.5;stroke-dasharray:5.0,5.0;" x1="1256" x2="1256" y1="152.4971" y2="1586.2607"/><line style="stroke:#000000;stroke-width:0.5;stroke-dasharray:5.0,5.0;" x1="1423" x2="1423" y1="152.4971" y2="1586.2607"/><text fill="#000000" font-family="Arial" font-size="14" font-weight="bold" lengthAdjust="spacing" textLength="44" x="13" y="141.5303">Admin</text><ellipse cx="38" cy="68.8984" fill="#FFFFFF" rx="8" ry="8" style="stroke:#454545;stroke-width:0.5;"/><path d="M38,76.8984 L38,103.8984 M25,84.8984 L51,84.8984 M38,103.8984 L25,118.8984 M38,103.8984 L51,118.8984 " fill="none" style="stroke:#454545;stroke-width:0.5;"/><text fill="#000000" font-family="Arial" font-size="14" font-weight="bold" lengthAdjust="spacing" textLength="44" x="13" y="1606.3926">Admin</text><ellipse cx="38" cy="1625.8594" fill="#FFFFFF" rx="8" ry="8" style="stroke:#454545;stroke-width:0.5;"/><path d="M38,1633.8594 L38,1660.8594 M25,1641.8594 L51,1641.8594 M38,1660.8594 L25,1675.8594 M38,1660.8594 L51,1675.8594 " fill="none" style="stroke:#454545;stroke-width:0.5;"/><rect fill="#FADBD8" height="56.4478" rx="4" ry="4" style="stroke:#943126;stroke-width:2.0;" width="162" x="215" y="95.0493"/><text fill="#000000" font-family="Arial" font-size="10" font-weight="bold" lengthAdjust="spacing" textLength="53" x="269.5" y="119.4292">&#171;Contract&#187;</text><text fill="#000000" font-family="Arial" font-size="13" font-weight="bold" lengthAdjust="spacing" textLength="132" x="230" y="133.7422">EvalAvsTaskManager</text><rect fill="#FADBD8" height="56.4478" rx="4" ry="4" style="stroke:#943126;stroke-width:2.0;" width="162" x="215" y="1585.2607"/><text fill="#000000" font-family="Arial" font-size="10" font-weight="bold" lengthAdjust="spacing" textLength="53" x="269.5" y="1609.6406">&#171;Contract&#187;</text><text fill="#000000" font-family="Arial" font-size="13" font-weight="bold" lengthAdjust="spacing" textLength="132" x="230" y="1623.9536">EvalAvsTaskManager</text><rect fill="#FCF3CF" height="56.4478" rx="4" ry="4" style="stroke:#B7950B;stroke-width:2.0;" width="148" x="441" y="95.0493"/><text fill="#000000" font-family="Arial" font-size="10" font-weight="bold" lengthAdjust="spacing" textLength="44" x="493" y="119.4292">&#171;Queue&#187;</text><text fill="#000000" font-family="Arial" font-size="13" font-weight="bold" lengthAdjust="spacing" textLength="118" x="456" y="133.7422">Assignment Queue</text><rect fill="#FCF3CF" height="56.4478" rx="4" ry="4" style="stroke:#B7950B;stroke-width:2.0;" width="148" x="441" y="1585.2607"/><text fill="#000000" font-family="Arial" font-size="10" font-weight="bold" lengthAdjust="spacing" textLength="44" x="493" y="1609.6406">&#171;Queue&#187;</text><text fill="#000000" font-family="Arial" font-size="13" font-weight="bold" lengthAdjust="spacing" textLength="118" x="456" y="1623.9536">Assignment Queue</text><rect fill="#D6EAF8" height="56.4478" rx="4" ry="4" style="stroke:#2E86C1;stroke-width:2.0;" width="85" x="639" y="95.0493"/><text fill="#000000" font-family="Arial" font-size="10" font-weight="bold" lengthAdjust="spacing" textLength="55" x="654" y="119.4292">&#171;Operator&#187;</text><text fill="#000000" font-family="Arial" font-size="13" font-weight="bold" lengthAdjust="spacing" textLength="54" x="654.5" y="133.7422">Operator</text><rect fill="#D6EAF8" height="56.4478" rx="4" ry="4" style="stroke:#2E86C1;stroke-width:2.0;" width="85" x="639" y="1585.2607"/><text fill="#000000" font-family="Arial" font-size="10" font-weight="bold" lengthAdjust="spacing" textLength="55" x="654" y="1609.6406">&#171;Operator&#187;</text><text fill="#000000" font-family="Arial" font-size="13" font-weight="bold" lengthAdjust="spacing" textLength="54" x="654.5" y="1623.9536">Operator</text><rect fill="#D4EFDF" height="56.4478" rx="4" ry="4" style="stroke:#196F3D;stroke-width:2.0;" width="107" x="834" y="95.0493"/><text fill="#000000" font-family="Arial" font-size="10" font-weight="bold" lengthAdjust="spacing" textLength="59" x="858" y="119.4292">&#171;Evaluator&#187;</text><text fill="#000000" font-family="Arial" font-size="13" font-weight="bold" lengthAdjust="spacing" textLength="77" x="849" y="133.7422">GoEvaluator</text><rect fill="#D4EFDF" height="56.4478" rx="4" ry="4" style="stroke:#196F3D;stroke-width:2.0;" width="107" x="834" y="1585.2607"/><text fill="#000000" font-family="Arial" font-size="10" font-weight="bold" lengthAdjust="spacing" textLength="59" x="858" y="1609.6406">&#171;Evaluator&#187;</text><text fill="#000000" font-family="Arial" font-size="13" font-weight="bold" lengthAdjust="spacing" textLength="77" x="849" y="1623.9536">GoEvaluator</text><rect fill="#F5EEF8" height="56.4478" rx="4" ry="4" style="stroke:#76448A;stroke-width:2.0;" width="158" x="991" y="95.0493"/><text fill="#000000" font-family="Arial" font-size="10" font-weight="bold" lengthAdjust="spacing" textLength="50" x="1045" y="119.4292">&#171;Storage&#187;</text><text fill="#000000" font-family="Arial" font-size="13" font-weight="bold" lengthAdjust="spacing" textLength="128" x="1006" y="133.7422">Dataset Registry (S3)</text><rect fill="#F5EEF8" height="56.4478" rx="4" ry="4" style="stroke:#76448A;stroke-width:2.0;" width="158" x="991" y="1585.2607"/><text fill="#000000" font-family="Arial" font-size="10" font-weight="bold" lengthAdjust="spacing" textLength="50" x="1045" y="1609.6406">&#171;Storage&#187;</text><text fill="#000000" font-family="Arial" font-size="13" font-weight="bold" lengthAdjust="spacing" textLength="128" x="1006" y="1623.9536">Dataset Registry (S3)</text><rect fill="#FEF9E7" height="56.4478" rx="4" ry="4" style="stroke:#F1C40F;stroke-width:2.0;" width="114" x="1199" y="95.0493"/><text fill="#000000" font-family="Arial" font-size="10" font-weight="bold" lengthAdjust="spacing" textLength="53" x="1229.5" y="119.4292">&#171;External&#187;</text><text fill="#000000" font-family="Arial" font-size="13" font-weight="bold" lengthAdjust="spacing" textLength="84" x="1214" y="133.7422">LLM Provider</text><rect fill="#FEF9E7" height="56.4478" rx="4" ry="4" style="stroke:#F1C40F;stroke-width:2.0;" width="114" x="1199" y="1585.2607"/><text fill="#000000" font-family="Arial" font-size="10" font-weight="bold" lengthAdjust="spacing" textLength="53" x="1229.5" y="1609.6406">&#171;External&#187;</text><text fill="#000000" font-family="Arial" font-size="13" font-weight="bold" lengthAdjust="spacing" textLength="84" x="1214" y="1623.9536">LLM Provider</text><rect fill="#EBF5FB" height="56.4478" rx="4" ry="4" style="stroke:#3498DB;stroke-width:2.0;" width="120" x="1363" y="95.0493"/><text fill="#000000" font-family="Arial" font-size="10" font-weight="bold" lengthAdjust="spacing" textLength="29" x="1408.5" y="119.4292">&#171;API&#187;</text><text fill="#000000" font-family="Arial" font-size="13" font-weight="bold" lengthAdjust="spacing" textLength="90" x="1378" y="133.7422">LayerLens API</text><rect fill="#EBF5FB" height="56.4478" rx="4" ry="4" style="stroke:#3498DB;stroke-width:2.0;" width="120" x="1363" y="1585.2607"/><text fill="#000000" font-family="Arial" font-size="10" font-weight="bold" lengthAdjust="spacing" textLength="29" x="1408.5" y="1609.6406">&#171;API&#187;</text><text fill="#000000" font-family="Arial" font-size="13" font-weight="bold" lengthAdjust="spacing" textLength="90" x="1378" y="1623.9536">LayerLens API</text><rect fill="#F8F8F8" height="194.1953" style="stroke:#000000;stroke-width:1.0;" width="10" x="291" y="212.0947"/><rect fill="#F8F8F8" height="207.1953" style="stroke:#000000;stroke-width:1.0;" width="10" x="291" y="1354.0654"/><rect fill="#F8F8F8" height="995.5742" style="stroke:#000000;stroke-width:1.0;" width="10" x="676.5" y="565.6865"/><rect fill="#F8F8F8" height="362.3906" style="stroke:#000000;stroke-width:1.0;" width="10" x="882.5" y="789.6807"/><polygon fill="#000000" points="279,208.0947,289,212.0947,279,216.0947,283,212.0947" style="stroke:#000000;stroke-width:1.0;"/><line style="stroke:#000000;stroke-width:1.5;" x1="38" x2="285" y1="212.0947" y2="212.0947"/><text fill="#000000" font-family="Arial" font-size="12" lengthAdjust="spacing" textLength="139" x="55.5" y="185.7529">requestEval(modelName,</text><text fill="#000000" font-family="Arial" font-size="12" lengthAdjust="spacing" textLength="3" x="194.5" y="185.7529">&#160;</text><text fill="#000000" font-family="Arial" font-size="12" lengthAdjust="spacing" textLength="76" x="197.5" y="185.7529">datasetName,</text><text fill="#000000" font-family="Arial" font-size="12" lengthAdjust="spacing" textLength="46" x="141.5" y="199.5518">subsets)</text><polygon fill="#000000" points="503,251.8936,513,255.8936,503,259.8936,507,255.8936" style="stroke:#000000;stroke-width:1.0;"/><line style="stroke:#000000;stroke-width:1.5;" x1="301" x2="509" y1="255.8936" y2="255.8936"/><text fill="#000000" font-family="Arial" font-size="12" lengthAdjust="spacing" textLength="153" x="331.5" y="243.3506">popNextAssignedOperator()</text><polygon fill="#000000" points="312,295.6924,302,299.6924,312,303.6924,308,299.6924" style="stroke:#000000;stroke-width:1.0;"/><line style="stroke:#000000;stroke-width:1.5;stroke-dasharray:2.0,2.0;" x1="306" x2="514" y1="299.6924" y2="299.6924"/><text fill="#000000" font-family="Arial" font-size="12" lengthAdjust="spacing" textLength="98" x="359" y="287.1494">assignedOperator</text><line style="stroke:#000000;stroke-width:1.5;" x1="301" x2="343" y1="343.4912" y2="343.4912"/><line style="stroke:#000000;stroke-width:1.5;" x1="343" x2="343" y1="343.4912" y2="356.4912"/><line style="stroke:#000000;stroke-width:1.5;" x1="302" x2="343" y1="356.4912" y2="356.4912"/><polygon fill="#000000" points="312,352.4912,302,356.4912,312,360.4912,308,356.4912" style="stroke:#000000;stroke-width:1.0;"/><text fill="#000000" font-family="Arial" font-size="12" lengthAdjust="spacing" textLength="37" x="316" y="330.9482">Create</text><text fill="#000000" font-family="Arial" font-size="12" lengthAdjust="spacing" textLength="3" x="353" y="330.9482">&#160;</text><text fill="#000000" font-family="Arial" font-size="12" lengthAdjust="spacing" textLength="70" x="356" y="330.9482">EvalAvsTask</text><line style="stroke:#000000;stroke-width:1.5;" x1="301" x2="343" y1="405.29" y2="405.29"/><line style="stroke:#000000;stroke-width:1.5;" x1="343" x2="343" y1="405.29" y2="418.29"/><line style="stroke:#000000;stroke-width:1.5;" x1="296" x2="343" y1="418.29" y2="418.29"/><polygon fill="#000000" points="306,414.29,296,418.29,306,422.29,302,418.29" style="stroke:#000000;stroke-width:1.0;"/><text fill="#000000" font-family="Arial" font-size="12" lengthAdjust="spacing" textLength="24" x="316" y="392.7471">Emit</text><text fill="#000000" font-family="Arial" font-size="12" lengthAdjust="spacing" textLength="3" x="340" y="392.7471">&#160;</text><text fill="#000000" font-family="Arial" font-size="12" lengthAdjust="spacing" textLength="84" x="343" y="392.7471">EvalRequested</text><text fill="#000000" font-family="Arial" font-size="12" lengthAdjust="spacing" textLength="3" x="427" y="392.7471">&#160;</text><text fill="#000000" font-family="Arial" font-size="12" lengthAdjust="spacing" textLength="31" x="430" y="392.7471">Event</text><line style="stroke:#000000;stroke-width:1.5;" x1="681.5" x2="723.5" y1="457.0889" y2="457.0889"/><line style="stroke:#000000;stroke-width:1.5;" x1="723.5" x2="723.5" y1="457.0889" y2="470.0889"/><line style="stroke:#000000;stroke-width:1.5;" x1="682.5" x2="723.5" y1="470.0889" y2="470.0889"/><polygon fill="#000000" points="692.5,466.0889,682.5,470.0889,692.5,474.0889,688.5,470.0889" style="stroke:#000000;stroke-width:1.0;"/><text fill="#000000" font-family="Arial" font-size="12" lengthAdjust="spacing" textLength="33" x="696.5" y="444.5459">Listen</text><text fill="#000000" font-family="Arial" font-size="12" lengthAdjust="spacing" textLength="3" x="729.5" y="444.5459">&#160;</text><text fill="#000000" font-family="Arial" font-size="12" lengthAdjust="spacing" textLength="14" x="732.5" y="444.5459">for</text><text fill="#000000" font-family="Arial" font-size="12" lengthAdjust="spacing" textLength="3" x="746.5" y="444.5459">&#160;</text><text fill="#000000" font-family="Arial" font-size="12" lengthAdjust="spacing" textLength="84" x="749.5" y="444.5459">EvalRequested</text><text fill="#000000" font-family="Arial" font-size="12" lengthAdjust="spacing" textLength="3" x="833.5" y="444.5459">&#160;</text><text fill="#000000" font-family="Arial" font-size="12" lengthAdjust="spacing" textLength="36" x="836.5" y="444.5459">events</text><polygon fill="#000000" points="669.5,509.8877,679.5,513.8877,669.5,517.8877,673.5,513.8877" style="stroke:#000000;stroke-width:1.0;"/><line style="stroke:#000000;stroke-width:1.5;" x1="296" x2="675.5" y1="513.8877" y2="513.8877"/><text fill="#000000" font-family="Arial" font-size="12" lengthAdjust="spacing" textLength="123" x="382.75" y="501.3447">EvalRequested(taskId,</text><text fill="#000000" font-family="Arial" font-size="12" lengthAdjust="spacing" textLength="3" x="505.75" y="501.3447">&#160;</text><text fill="#000000" font-family="Arial" font-size="12" lengthAdjust="spacing" textLength="25" x="508.75" y="501.3447">task,</text><text fill="#000000" font-family="Arial" font-size="12" lengthAdjust="spacing" textLength="3" x="533.75" y="501.3447">&#160;</text><text fill="#000000" font-family="Arial" font-size="12" lengthAdjust="spacing" textLength="58" x="536.75" y="501.3447">externalId)</text><line style="stroke:#000000;stroke-width:1.5;" x1="681.5" x2="728.5" y1="552.6865" y2="552.6865"/><line style="stroke:#000000;stroke-width:1.5;" x1="728.5" x2="728.5" y1="552.6865" y2="565.6865"/><line style="stroke:#000000;stroke-width:1.5;" x1="687.5" x2="728.5" y1="565.6865" y2="565.6865"/><polygon fill="#000000" points="697.5,561.6865,687.5,565.6865,697.5,569.6865,693.5,565.6865" style="stroke:#000000;stroke-width:1.0;"/><text fill="#000000" font-family="Arial" font-size="12" lengthAdjust="spacing" textLength="35" x="701.5" y="540.1436">Check</text><text fill="#000000" font-family="Arial" font-size="12" lengthAdjust="spacing" textLength="3" x="736.5" y="540.1436">&#160;</text><text fill="#000000" font-family="Arial" font-size="12" lengthAdjust="spacing" textLength="6" x="739.5" y="540.1436">if</text><text fill="#000000" font-family="Arial" font-size="12" lengthAdjust="spacing" textLength="3" x="745.5" y="540.1436">&#160;</text><text fill="#000000" font-family="Arial" font-size="12" lengthAdjust="spacing" textLength="50" x="748.5" y="540.1436">assigned</text><text fill="#000000" font-family="Arial" font-size="12" lengthAdjust="spacing" textLength="3" x="798.5" y="540.1436">&#160;</text><text fill="#000000" font-family="Arial" font-size="12" lengthAdjust="spacing" textLength="10" x="801.5" y="540.1436">to</text><text fill="#000000" font-family="Arial" font-size="12" lengthAdjust="spacing" textLength="3" x="811.5" y="540.1436">&#160;</text><text fill="#000000" font-family="Arial" font-size="12" lengthAdjust="spacing" textLength="22" x="814.5" y="540.1436">task</text><polygon fill="#000000" points="1058,610.4854,1068,614.4854,1058,618.4854,1062,614.4854" style="stroke:#000000;stroke-width:1.0;"/><line style="stroke:#000000;stroke-width:1.5;" x1="686.5" x2="1064" y1="614.4854" y2="614.4854"/><text fill="#000000" font-family="Arial" font-size="12" lengthAdjust="spacing" textLength="30" x="760.75" y="601.9424">Fetch</text><text fill="#000000" font-family="Arial" font-size="12" lengthAdjust="spacing" textLength="3" x="790.75" y="601.9424">&#160;</text><text fill="#000000" font-family="Arial" font-size="12" lengthAdjust="spacing" textLength="40" x="793.75" y="601.9424">dataset</text><text fill="#000000" font-family="Arial" font-size="12" lengthAdjust="spacing" textLength="3" x="833.75" y="601.9424">&#160;</text><text fill="#000000" font-family="Arial" font-size="12" lengthAdjust="spacing" textLength="22" x="836.75" y="601.9424">files</text><text fill="#000000" font-family="Arial" font-size="12" lengthAdjust="spacing" textLength="3" x="858.75" y="601.9424">&#160;</text><text fill="#000000" font-family="Arial" font-size="12" lengthAdjust="spacing" textLength="84" x="861.75" y="601.9424">(formatted.jsonl</text><text fill="#000000" font-family="Arial" font-size="12" lengthAdjust="spacing" textLength="3" x="945.75" y="601.9424">&#160;</text><text fill="#000000" font-family="Arial" font-size="12" lengthAdjust="spacing" textLength="7" x="948.75" y="601.9424">+</text><text fill="#000000" font-family="Arial" font-size="12" lengthAdjust="spacing" textLength="3" x="955.75" y="601.9424">&#160;</text><text fill="#000000" font-family="Arial" font-size="12" lengthAdjust="spacing" textLength="37" x="958.75" y="601.9424">config)</text><polygon fill="#000000" points="697.5,654.2842,687.5,658.2842,697.5,662.2842,693.5,658.2842" style="stroke:#000000;stroke-width:1.0;"/><line style="stroke:#000000;stroke-width:1.5;stroke-dasharray:2.0,2.0;" x1="691.5" x2="1069" y1="658.2842" y2="658.2842"/><text fill="#000000" font-family="Arial" font-size="12" lengthAdjust="spacing" textLength="37" x="825.75" y="645.7412">Return</text><text fill="#000000" font-family="Arial" font-size="12" lengthAdjust="spacing" textLength="3" x="862.75" y="645.7412">&#160;</text><text fill="#000000" font-family="Arial" font-size="12" lengthAdjust="spacing" textLength="40" x="865.75" y="645.7412">dataset</text><text fill="#000000" font-family="Arial" font-size="12" lengthAdjust="spacing" textLength="3" x="905.75" y="645.7412">&#160;</text><text fill="#000000" font-family="Arial" font-size="12" lengthAdjust="spacing" textLength="22" x="908.75" y="645.7412">files</text><polygon fill="#000000" points="1411,698.083,1421,702.083,1411,706.083,1415,702.083" style="stroke:#000000;stroke-width:1.0;"/><line style="stroke:#000000;stroke-width:1.5;" x1="686.5" x2="1417" y1="702.083" y2="702.083"/><text fill="#000000" font-family="Arial" font-size="12" lengthAdjust="spacing" textLength="46" x="957.75" y="689.54">Request</text><text fill="#000000" font-family="Arial" font-size="12" lengthAdjust="spacing" textLength="3" x="1003.75" y="689.54">&#160;</text><text fill="#000000" font-family="Arial" font-size="12" lengthAdjust="spacing" textLength="19" x="1006.75" y="689.54">API</text><text fill="#000000" font-family="Arial" font-size="12" lengthAdjust="spacing" textLength="3" x="1025.75" y="689.54">&#160;</text><text fill="#000000" font-family="Arial" font-size="12" lengthAdjust="spacing" textLength="21" x="1028.75" y="689.54">Key</text><text fill="#000000" font-family="Arial" font-size="12" lengthAdjust="spacing" textLength="3" x="1049.75" y="689.54">&#160;</text><text fill="#000000" font-family="Arial" font-size="12" lengthAdjust="spacing" textLength="14" x="1052.75" y="689.54">for</text><text fill="#000000" font-family="Arial" font-size="12" lengthAdjust="spacing" textLength="3" x="1066.75" y="689.54">&#160;</text><text fill="#000000" font-family="Arial" font-size="12" lengthAdjust="spacing" textLength="34" x="1069.75" y="689.54">model</text><text fill="#000000" font-family="Arial" font-size="12" lengthAdjust="spacing" textLength="3" x="1103.75" y="689.54">&#160;</text><text fill="#000000" font-family="Arial" font-size="12" lengthAdjust="spacing" textLength="45" x="1106.75" y="689.54">provider</text><polygon fill="#000000" points="697.5,741.8818,687.5,745.8818,697.5,749.8818,693.5,745.8818" style="stroke:#000000;stroke-width:1.0;"/><line style="stroke:#000000;stroke-width:1.5;stroke-dasharray:2.0,2.0;" x1="691.5" x2="1422" y1="745.8818" y2="745.8818"/><text fill="#000000" font-family="Arial" font-size="12" lengthAdjust="spacing" textLength="37" x="1013.25" y="733.3389">Return</text><text fill="#000000" font-family="Arial" font-size="12" lengthAdjust="spacing" textLength="3" x="1050.25" y="733.3389">&#160;</text><text fill="#000000" font-family="Arial" font-size="12" lengthAdjust="spacing" textLength="19" x="1053.25" y="733.3389">API</text><text fill="#000000" font-family="Arial" font-size="12" lengthAdjust="spacing" textLength="3" x="1072.25" y="733.3389">&#160;</text><text fill="#000000" font-family="Arial" font-size="12" lengthAdjust="spacing" textLength="21" x="1075.25" y="733.3389">Key</text><polygon fill="#000000" points="870.5,785.6807,880.5,789.6807,870.5,793.6807,874.5,789.6807" style="stroke:#000000;stroke-width:1.0;"/><line style="stroke:#000000;stroke-width:1.5;" x1="686.5" x2="876.5" y1="789.6807" y2="789.6807"/><text fill="#000000" font-family="Arial" font-size="12" lengthAdjust="spacing" textLength="44" x="732.5" y="777.1377">Execute</text><text fill="#000000" font-family="Arial" font-size="12" lengthAdjust="spacing" textLength="3" x="776.5" y="777.1377">&#160;</text><text fill="#000000" font-family="Arial" font-size="12" lengthAdjust="spacing" textLength="57" x="779.5" y="777.1377">evaluation</text><path d="M808,804.6807 L893,804.6807 L893,827.6294 L883,837.6294 L804,837.6294 L804,808.6807 A4,4 0 0 1 808,804.6807 " fill="#EEEEEE" style="stroke:#CCCCCC;stroke-width:1.5;"/><rect fill="none" height="247.793" rx="4" ry="4" style="stroke:#CCCCCC;stroke-width:1.0;" width="539" x="804" y="804.6807"/><text fill="#000000" font-family="Arial" font-size="13" font-weight="bold" lengthAdjust="spacing" textLength="28" x="827" y="825.8745">loop</text><text fill="#000000" font-family="Arial" font-size="11" font-weight="bold" lengthAdjust="spacing" textLength="151" x="916" y="824.9985">[For each prompt in dataset]</text><polygon fill="#000000" points="1244,883.0771,1254,887.0771,1244,891.0771,1248,887.0771" style="stroke:#000000;stroke-width:1.0;"/><line style="stroke:#000000;stroke-width:1.5;" x1="892.5" x2="1250" y1="887.0771" y2="887.0771"/><text fill="#000000" font-family="Arial" font-size="12" lengthAdjust="spacing" textLength="29" x="1039.25" y="874.5342">Send</text><text fill="#000000" font-family="Arial" font-size="12" lengthAdjust="spacing" textLength="3" x="1068.25" y="874.5342">&#160;</text><text fill="#000000" font-family="Arial" font-size="12" lengthAdjust="spacing" textLength="38" x="1071.25" y="874.5342">prompt</text><polygon fill="#000000" points="903.5,926.876,893.5,930.876,903.5,934.876,899.5,930.876" style="stroke:#000000;stroke-width:1.0;"/><line style="stroke:#000000;stroke-width:1.5;stroke-dasharray:2.0,2.0;" x1="897.5" x2="1255" y1="930.876" y2="930.876"/><text fill="#000000" font-family="Arial" font-size="12" lengthAdjust="spacing" textLength="37" x="1028.75" y="918.333">Return</text><text fill="#000000" font-family="Arial" font-size="12" lengthAdjust="spacing" textLength="3" x="1065.75" y="918.333">&#160;</text><text fill="#000000" font-family="Arial" font-size="12" lengthAdjust="spacing" textLength="51" x="1068.75" y="918.333">response</text><line style="stroke:#000000;stroke-width:1.5;" x1="892.5" x2="934.5" y1="974.6748" y2="974.6748"/><line style="stroke:#000000;stroke-width:1.5;" x1="934.5" x2="934.5" y1="974.6748" y2="987.6748"/><line style="stroke:#000000;stroke-width:1.5;" x1="893.5" x2="934.5" y1="987.6748" y2="987.6748"/><polygon fill="#000000" points="903.5,983.6748,893.5,987.6748,903.5,991.6748,899.5,987.6748" style="stroke:#000000;stroke-width:1.0;"/><text fill="#000000" font-family="Arial" font-size="12" lengthAdjust="spacing" textLength="32" x="907.5" y="962.1318">Score</text><text fill="#000000" font-family="Arial" font-size="12" lengthAdjust="spacing" textLength="3" x="939.5" y="962.1318">&#160;</text><text fill="#000000" font-family="Arial" font-size="12" lengthAdjust="spacing" textLength="51" x="942.5" y="962.1318">response</text><line style="stroke:#000000;stroke-width:1.5;" x1="892.5" x2="934.5" y1="1031.4736" y2="1031.4736"/><line style="stroke:#000000;stroke-width:1.5;" x1="934.5" x2="934.5" y1="1031.4736" y2="1044.4736"/><line style="stroke:#000000;stroke-width:1.5;" x1="893.5" x2="934.5" y1="1044.4736" y2="1044.4736"/><polygon fill="#000000" points="903.5,1040.4736,893.5,1044.4736,903.5,1048.4736,899.5,1044.4736" style="stroke:#000000;stroke-width:1.0;"/><text fill="#000000" font-family="Arial" font-size="12" lengthAdjust="spacing" textLength="29" x="907.5" y="1018.9307">Hash</text><text fill="#000000" font-family="Arial" font-size="12" lengthAdjust="spacing" textLength="3" x="936.5" y="1018.9307">&#160;</text><text fill="#000000" font-family="Arial" font-size="12" lengthAdjust="spacing" textLength="51" x="939.5" y="1018.9307">response</text><text fill="#000000" font-family="Arial" font-size="12" lengthAdjust="spacing" textLength="3" x="990.5" y="1018.9307">&#160;</text><text fill="#000000" font-family="Arial" font-size="12" lengthAdjust="spacing" textLength="34" x="993.5" y="1018.9307">(MD5)</text><line style="stroke:#000000;stroke-width:1.5;" x1="892.5" x2="934.5" y1="1095.2725" y2="1095.2725"/><line style="stroke:#000000;stroke-width:1.5;" x1="934.5" x2="934.5" y1="1095.2725" y2="1108.2725"/><line style="stroke:#000000;stroke-width:1.5;" x1="893.5" x2="934.5" y1="1108.2725" y2="1108.2725"/><polygon fill="#000000" points="903.5,1104.2725,893.5,1108.2725,903.5,1112.2725,899.5,1108.2725" style="stroke:#000000;stroke-width:1.0;"/><text fill="#000000" font-family="Arial" font-size="12" lengthAdjust="spacing" textLength="51" x="907.5" y="1082.7295">Generate</text><text fill="#000000" font-family="Arial" font-size="12" lengthAdjust="spacing" textLength="3" x="958.5" y="1082.7295">&#160;</text><text fill="#000000" font-family="Arial" font-size="12" lengthAdjust="spacing" textLength="54" x="961.5" y="1082.7295">combined</text><text fill="#000000" font-family="Arial" font-size="12" lengthAdjust="spacing" textLength="3" x="1015.5" y="1082.7295">&#160;</text><text fill="#000000" font-family="Arial" font-size="12" lengthAdjust="spacing" textLength="27" x="1018.5" y="1082.7295">hash</text><polygon fill="#000000" points="697.5,1148.0713,687.5,1152.0713,697.5,1156.0713,693.5,1152.0713" style="stroke:#000000;stroke-width:1.0;"/><line style="stroke:#000000;stroke-width:1.5;stroke-dasharray:2.0,2.0;" x1="691.5" x2="886.5" y1="1152.0713" y2="1152.0713"/><text fill="#000000" font-family="Arial" font-size="12" lengthAdjust="spacing" textLength="37" x="722" y="1139.5283">Return</text><text fill="#000000" font-family="Arial" font-size="12" lengthAdjust="spacing" textLength="3" x="759" y="1139.5283">&#160;</text><text fill="#000000" font-family="Arial" font-size="12" lengthAdjust="spacing" textLength="36" x="762" y="1139.5283">results</text><text fill="#000000" font-family="Arial" font-size="12" lengthAdjust="spacing" textLength="3" x="798" y="1139.5283">&#160;</text><text fill="#000000" font-family="Arial" font-size="12" lengthAdjust="spacing" textLength="21" x="801" y="1139.5283">and</text><text fill="#000000" font-family="Arial" font-size="12" lengthAdjust="spacing" textLength="3" x="822" y="1139.5283">&#160;</text><text fill="#000000" font-family="Arial" font-size="12" lengthAdjust="spacing" textLength="27" x="825" y="1139.5283">hash</text><polygon fill="#000000" points="1411,1191.8701,1421,1195.8701,1411,1199.8701,1415,1195.8701" style="stroke:#000000;stroke-width:1.0;"/><line style="stroke:#000000;stroke-width:1.5;" x1="686.5" x2="1417" y1="1195.8701" y2="1195.8701"/><text fill="#000000" font-family="Arial" font-size="12" lengthAdjust="spacing" textLength="28" x="997.75" y="1183.3271">Save</text><text fill="#000000" font-family="Arial" font-size="12" lengthAdjust="spacing" textLength="3" x="1025.75" y="1183.3271">&#160;</text><text fill="#000000" font-family="Arial" font-size="12" lengthAdjust="spacing" textLength="44" x="1028.75" y="1183.3271">detailed</text><text fill="#000000" font-family="Arial" font-size="12" lengthAdjust="spacing" textLength="3" x="1072.75" y="1183.3271">&#160;</text><text fill="#000000" font-family="Arial" font-size="12" lengthAdjust="spacing" textLength="36" x="1075.75" y="1183.3271">results</text><polygon fill="#000000" points="697.5,1235.6689,687.5,1239.6689,697.5,1243.6689,693.5,1239.6689" style="stroke:#000000;stroke-width:1.0;"/><line style="stroke:#000000;stroke-width:1.5;stroke-dasharray:2.0,2.0;" x1="691.5" x2="1422" y1="1239.6689" y2="1239.6689"/><text fill="#000000" font-family="Arial" font-size="12" lengthAdjust="spacing" textLength="43" x="1018.75" y="1227.126">Confirm</text><text fill="#000000" font-family="Arial" font-size="12" lengthAdjust="spacing" textLength="3" x="1061.75" y="1227.126">&#160;</text><text fill="#000000" font-family="Arial" font-size="12" lengthAdjust="spacing" textLength="26" x="1064.75" y="1227.126">save</text><line style="stroke:#000000;stroke-width:1.5;" x1="686.5" x2="728.5" y1="1283.4678" y2="1283.4678"/><line style="stroke:#000000;stroke-width:1.5;" x1="728.5" x2="728.5" y1="1283.4678" y2="1296.4678"/><line style="stroke:#000000;stroke-width:1.5;" x1="687.5" x2="728.5" y1="1296.4678" y2="1296.4678"/><polygon fill="#000000" points="697.5,1292.4678,687.5,1296.4678,697.5,1300.4678,693.5,1296.4678" style="stroke:#000000;stroke-width:1.0;"/><text fill="#000000" font-family="Arial" font-size="12" lengthAdjust="spacing" textLength="51" x="701.5" y="1270.9248">Generate</text><text fill="#000000" font-family="Arial" font-size="12" lengthAdjust="spacing" textLength="3" x="752.5" y="1270.9248">&#160;</text><text fill="#000000" font-family="Arial" font-size="12" lengthAdjust="spacing" textLength="23" x="755.5" y="1270.9248">BLS</text><text fill="#000000" font-family="Arial" font-size="12" lengthAdjust="spacing" textLength="3" x="778.5" y="1270.9248">&#160;</text><text fill="#000000" font-family="Arial" font-size="12" lengthAdjust="spacing" textLength="51" x="781.5" y="1270.9248">signature</text><polygon fill="#000000" points="312,1350.0654,302,1354.0654,312,1358.0654,308,1354.0654" style="stroke:#000000;stroke-width:1.0;"/><line style="stroke:#000000;stroke-width:1.5;" x1="306" x2="675.5" y1="1354.0654" y2="1354.0654"/><text fill="#000000" font-family="Arial" font-size="12" lengthAdjust="spacing" textLength="168" x="388.25" y="1327.7236">respondToEvalRequest(taskId,</text><text fill="#000000" font-family="Arial" font-size="12" lengthAdjust="spacing" textLength="3" x="556.25" y="1327.7236">&#160;</text><text fill="#000000" font-family="Arial" font-size="12" lengthAdjust="spacing" textLength="30" x="559.25" y="1327.7236">hash,</text><text fill="#000000" font-family="Arial" font-size="12" lengthAdjust="spacing" textLength="55" x="461.25" y="1341.5225">signature)</text><line style="stroke:#000000;stroke-width:1.5;" x1="301" x2="343" y1="1397.8643" y2="1397.8643"/><line style="stroke:#000000;stroke-width:1.5;" x1="343" x2="343" y1="1397.8643" y2="1410.8643"/><line style="stroke:#000000;stroke-width:1.5;" x1="302" x2="343" y1="1410.8643" y2="1410.8643"/><polygon fill="#000000" points="312,1406.8643,302,1410.8643,312,1414.8643,308,1410.8643" style="stroke:#000000;stroke-width:1.0;"/><text fill="#000000" font-family="Arial" font-size="12" lengthAdjust="spacing" textLength="31" x="316" y="1385.3213">Verify</text><text fill="#000000" font-family="Arial" font-size="12" lengthAdjust="spacing" textLength="3" x="347" y="1385.3213">&#160;</text><text fill="#000000" font-family="Arial" font-size="12" lengthAdjust="spacing" textLength="51" x="350" y="1385.3213">signature</text><line style="stroke:#000000;stroke-width:1.5;" x1="301" x2="343" y1="1454.6631" y2="1454.6631"/><line style="stroke:#000000;stroke-width:1.5;" x1="343" x2="343" y1="1454.6631" y2="1467.6631"/><line style="stroke:#000000;stroke-width:1.5;" x1="302" x2="343" y1="1467.6631" y2="1467.6631"/><polygon fill="#000000" points="312,1463.6631,302,1467.6631,312,1471.6631,308,1467.6631" style="stroke:#000000;stroke-width:1.0;"/><text fill="#000000" font-family="Arial" font-size="12" lengthAdjust="spacing" textLength="40" x="316" y="1442.1201">Update</text><text fill="#000000" font-family="Arial" font-size="12" lengthAdjust="spacing" textLength="3" x="356" y="1442.1201">&#160;</text><text fill="#000000" font-family="Arial" font-size="12" lengthAdjust="spacing" textLength="22" x="359" y="1442.1201">task</text><text fill="#000000" font-family="Arial" font-size="12" lengthAdjust="spacing" textLength="3" x="381" y="1442.1201">&#160;</text><text fill="#000000" font-family="Arial" font-size="12" lengthAdjust="spacing" textLength="26" x="384" y="1442.1201">state</text><text fill="#000000" font-family="Arial" font-size="12" lengthAdjust="spacing" textLength="3" x="410" y="1442.1201">&#160;</text><text fill="#000000" font-family="Arial" font-size="12" lengthAdjust="spacing" textLength="10" x="413" y="1442.1201">to</text><text fill="#000000" font-family="Arial" font-size="12" lengthAdjust="spacing" textLength="3" x="423" y="1442.1201">&#160;</text><text fill="#000000" font-family="Arial" font-size="12" lengthAdjust="spacing" textLength="69" x="426" y="1442.1201">SUBMITTED</text><polygon fill="#000000" points="503,1507.4619,513,1511.4619,503,1515.4619,507,1511.4619" style="stroke:#000000;stroke-width:1.0;"/><line style="stroke:#000000;stroke-width:1.5;" x1="301" x2="509" y1="1511.4619" y2="1511.4619"/><text fill="#000000" font-family="Arial" font-size="12" lengthAdjust="spacing" textLength="22" x="332.5" y="1498.9189">Add</text><text fill="#000000" font-family="Arial" font-size="12" lengthAdjust="spacing" textLength="3" x="354.5" y="1498.9189">&#160;</text><text fill="#000000" font-family="Arial" font-size="12" lengthAdjust="spacing" textLength="46" x="357.5" y="1498.9189">operator</text><text fill="#000000" font-family="Arial" font-size="12" lengthAdjust="spacing" textLength="3" x="403.5" y="1498.9189">&#160;</text><text fill="#000000" font-family="Arial" font-size="12" lengthAdjust="spacing" textLength="26" x="406.5" y="1498.9189">back</text><text fill="#000000" font-family="Arial" font-size="12" lengthAdjust="spacing" textLength="3" x="432.5" y="1498.9189">&#160;</text><text fill="#000000" font-family="Arial" font-size="12" lengthAdjust="spacing" textLength="10" x="435.5" y="1498.9189">to</text><text fill="#000000" font-family="Arial" font-size="12" lengthAdjust="spacing" textLength="3" x="445.5" y="1498.9189">&#160;</text><text fill="#000000" font-family="Arial" font-size="12" lengthAdjust="spacing" textLength="35" x="448.5" y="1498.9189">queue</text><line style="stroke:#000000;stroke-width:1.5;" x1="301" x2="343" y1="1560.2607" y2="1560.2607"/><line style="stroke:#000000;stroke-width:1.5;" x1="343" x2="343" y1="1560.2607" y2="1573.2607"/><line style="stroke:#000000;stroke-width:1.5;" x1="296" x2="343" y1="1573.2607" y2="1573.2607"/><polygon fill="#000000" points="306,1569.2607,296,1573.2607,306,1577.2607,302,1573.2607" style="stroke:#000000;stroke-width:1.0;"/><text fill="#000000" font-family="Arial" font-size="12" lengthAdjust="spacing" textLength="24" x="316" y="1547.7178">Emit</text><text fill="#000000" font-family="Arial" font-size="12" lengthAdjust="spacing" textLength="3" x="340" y="1547.7178">&#160;</text><text fill="#000000" font-family="Arial" font-size="12" lengthAdjust="spacing" textLength="84" x="343" y="1547.7178">EvalCompleted</text><text fill="#000000" font-family="Arial" font-size="12" lengthAdjust="spacing" textLength="3" x="427" y="1547.7178">&#160;</text><text fill="#000000" font-family="Arial" font-size="12" lengthAdjust="spacing" textLength="31" x="430" y="1547.7178">Event</text><rect fill="none" height="383.085" id="_legend" rx="4" ry="4" style="stroke:#000000;stroke-width:1.0;" width="355" x="1140" y="1690.3594"/><text fill="#000000" font-family="Arial" font-size="14" font-weight="bold" lengthAdjust="spacing" textLength="78" x="1165" y="1726.4912">Entity Type</text><text fill="#000000" font-family="Arial" font-size="14" font-weight="bold" lengthAdjust="spacing" textLength="79" x="1267" y="1726.4912">Description</text><rect fill="#E9F7EF" height="32.0986" style="stroke:none;stroke-width:1.0;" width="102" x="1153" y="1737.458"/><text fill="#000000" font-family="Arial" font-size="14" lengthAdjust="spacing" textLength="4" x="1161" y="1758.5898">&#160;</text><text fill="#000000" font-family="Arial" font-size="14" lengthAdjust="spacing" textLength="203" x="1267" y="1758.5898">Frontend - Web/UI Components</text><rect fill="#EBF5FB" height="32.0986" style="stroke:none;stroke-width:1.0;" width="102" x="1153" y="1769.5566"/><text fill="#000000" font-family="Arial" font-size="14" lengthAdjust="spacing" textLength="4" x="1161" y="1790.6885">&#160;</text><text fill="#000000" font-family="Arial" font-size="14" lengthAdjust="spacing" textLength="148" x="1267" y="1790.6885">API - Backend Services</text><rect fill="#F9EBEA" height="32.0986" style="stroke:none;stroke-width:1.0;" width="102" x="1153" y="1801.6553"/><text fill="#000000" font-family="Arial" font-size="14" lengthAdjust="spacing" textLength="4" x="1161" y="1822.7871">&#160;</text><text fill="#000000" font-family="Arial" font-size="14" lengthAdjust="spacing" textLength="190" x="1267" y="1822.7871">Auth - Authentication Services</text><rect fill="#F4ECF7" height="32.0986" style="stroke:none;stroke-width:1.0;" width="102" x="1153" y="1833.7539"/><text fill="#000000" font-family="Arial" font-size="14" lengthAdjust="spacing" textLength="4" x="1161" y="1854.8857">&#160;</text><text fill="#000000" font-family="Arial" font-size="14" lengthAdjust="spacing" textLength="158" x="1267" y="1854.8857">Database - Data Storage</text><rect fill="#FEF9E7" height="32.0986" style="stroke:none;stroke-width:1.0;" width="102" x="1153" y="1865.8525"/><text fill="#000000" font-family="Arial" font-size="14" lengthAdjust="spacing" textLength="4" x="1161" y="1886.9844">&#160;</text><text fill="#000000" font-family="Arial" font-size="14" lengthAdjust="spacing" textLength="181" x="1267" y="1886.9844">External - 3rd Party Services</text><rect fill="#FADBD8" height="32.0986" style="stroke:none;stroke-width:1.0;" width="102" x="1153" y="1897.9512"/><text fill="#000000" font-family="Arial" font-size="14" lengthAdjust="spacing" textLength="4" x="1161" y="1919.083">&#160;</text><text fill="#000000" font-family="Arial" font-size="14" lengthAdjust="spacing" textLength="170" x="1267" y="1919.083">Contract - Smart Contracts</text><rect fill="#FCF3CF" height="32.0986" style="stroke:none;stroke-width:1.0;" width="102" x="1153" y="1930.0498"/><text fill="#000000" font-family="Arial" font-size="14" lengthAdjust="spacing" textLength="4" x="1161" y="1951.1816">&#160;</text><text fill="#000000" font-family="Arial" font-size="14" lengthAdjust="spacing" textLength="168" x="1267" y="1951.1816">Queue - Message Queues</text><rect fill="#D6EAF8" height="32.0986" style="stroke:none;stroke-width:1.0;" width="102" x="1153" y="1962.1484"/><text fill="#000000" font-family="Arial" font-size="14" lengthAdjust="spacing" textLength="4" x="1161" y="1983.2803">&#160;</text><text fill="#000000" font-family="Arial" font-size="14" lengthAdjust="spacing" textLength="171" x="1267" y="1983.2803">Operator - Validator Nodes</text><rect fill="#D4EFDF" height="32.0986" style="stroke:none;stroke-width:1.0;" width="102" x="1153" y="1994.2471"/><text fill="#000000" font-family="Arial" font-size="14" lengthAdjust="spacing" textLength="4" x="1161" y="2015.3789">&#160;</text><text fill="#000000" font-family="Arial" font-size="14" lengthAdjust="spacing" textLength="197" x="1267" y="2015.3789">Evaluator - Evaluation Services</text><rect fill="#F5EEF8" height="32.0986" style="stroke:none;stroke-width:1.0;" width="102" x="1153" y="2026.3457"/><text fill="#000000" font-family="Arial" font-size="14" lengthAdjust="spacing" textLength="4" x="1161" y="2047.4775">&#160;</text><text fill="#000000" font-family="Arial" font-size="14" lengthAdjust="spacing" textLength="171" x="1267" y="2047.4775">Storage - Storage Services</text><line style="stroke:#000000;stroke-width:1.0;" x1="1153" x2="1482" y1="1705.3594" y2="1705.3594"/><line style="stroke:#000000;stroke-width:1.0;" x1="1153" x2="1482" y1="1737.458" y2="1737.458"/><line style="stroke:#000000;stroke-width:1.0;" x1="1153" x2="1482" y1="1769.5566" y2="1769.5566"/><line style="stroke:#000000;stroke-width:1.0;" x1="1153" x2="1482" y1="1801.6553" y2="1801.6553"/><line style="stroke:#000000;stroke-width:1.0;" x1="1153" x2="1482" y1="1833.7539" y2="1833.7539"/><line style="stroke:#000000;stroke-width:1.0;" x1="1153" x2="1482" y1="1865.8525" y2="1865.8525"/><line style="stroke:#000000;stroke-width:1.0;" x1="1153" x2="1482" y1="1897.9512" y2="1897.9512"/><line style="stroke:#000000;stroke-width:1.0;" x1="1153" x2="1482" y1="1930.0498" y2="1930.0498"/><line style="stroke:#000000;stroke-width:1.0;" x1="1153" x2="1482" y1="1962.1484" y2="1962.1484"/><line style="stroke:#000000;stroke-width:1.0;" x1="1153" x2="1482" y1="1994.2471" y2="1994.2471"/><line style="stroke:#000000;stroke-width:1.0;" x1="1153" x2="1482" y1="2026.3457" y2="2026.3457"/><line style="stroke:#000000;stroke-width:1.0;" x1="1153" x2="1482" y1="2058.4443" y2="2058.4443"/><line style="stroke:#000000;stroke-width:1.0;" x1="1153" x2="1153" y1="1705.3594" y2="2058.4443"/><line style="stroke:#000000;stroke-width:1.0;" x1="1255" x2="1255" y1="1705.3594" y2="2058.4443"/><line style="stroke:#000000;stroke-width:1.0;" x1="1482" x2="1482" y1="1705.3594" y2="2058.4443"/><!--SRC=[ZLNRSjem47tNLsppKfX2fcacBqmcCuHScYcaD2PzLwm5L6p9aMG2_Vgk11ZP8McO0KlMEMTNU-EJL6bM2eHKvxbMNUlM6HuNPPunzXb6N2f7Nx0wHx05fd8gKqXBwtGk_t8djR8mrGRSN5eGaiyCpvbTI5LmMa4c5RfrWQ2Dc-leOCoDawaik79ZBeHKC_ZsDJfFyBb4bUAbNktEJ-BplZ7wPJANwKAXjN1oVCQOaov3c72xW871u1nm9Q1lhPof79M3cqo_CCPJHoxtHIuLA_QEmD7racVzfVKI8wxu3CqHS0lH7ixF1revGn8N5tLoPEPNYIK6QbWHAJoRZ9y56awk1EHkG-3Tiec_rTx1ig94Us9LwoRjYZjkqS43pgHrPWsjvBGT199JuYL4eQirMSFX2CP6BwNOHi6_82ihXqRnx1MShz4CaSgXFxuBU7eIddu9obY8DdGluc3smFWqM-TTR-LQO7RFS-o0s7YysTZoYTQsxTCcbznXBC7Yt91wY7CF2btSuyfjKe9Y5z1McsqIqcqwmXl8fcuD7AeB8QgMT-7NkNG1_B2vBGhQKPamWGUlnAfI8ANTkWT3IXwgq6rrCVHYjkd2dbX3joYoYplH0V_i06xJUIVQx2t3Wpcc2v3JAaZWTA3lCrA5BLP8JdjmWowTx_89KvcXXHPT8UUEd3d-OxNAu0jD7pMLipQZWkpMR3-WAusg2zICK7rvLBXTABaVk0un2kK4nRQ2cJywABtbr4IZngBmhJ0jwOwuUKLJXUql7Y5PfdK1DwH0QPrxotdXG5RECw1FtB9aY7ggHxEEXjG67Z2-qRfDBxRU6hG5pLmy95R39was-77uTsxd5HfQewkpDYEts7kSMrG-PE6_uqdwkfYJIfroAE9afioS3RCvCA8-YEFvEiy9No88fB-aZAnjTGwaTk3BoUHW2VzcMLVkNmuJy8NDoJkiWHkpoaT7J7JKJrKt-NjqzYeV6rOr-Tzev7GTEV8U-B4GNjjR1-l2KaFoU3cwcqokhzuOYdqXGEzkzyIffudqxCy-Dhu6LA4P_dTyHQztiVm7]--></g></svg>