<?xml version="1.0" encoding="us-ascii" standalone="no"?><svg xmlns="http://www.w3.org/2000/svg" xmlns:xlink="http://www.w3.org/1999/xlink" contentStyleType="text/css" height="1497px" preserveAspectRatio="none" style="width:1547px;height:1497px;background:#FFFFFF;" version="1.1" viewBox="0 0 1547 1497" width="1547px" zoomAndPan="magnify"><defs/><g><text fill="#000000" font-family="Arial" font-size="14" font-weight="bold" lengthAdjust="spacing" textLength="248" x="652.5" y="28.1318">Task Creation and Assignment Flow</text><rect fill="#FFFFFF" height="134.7949" style="stroke:#181818;stroke-width:1.0;" width="10" x="356" y="184.0947"/><rect fill="#FFFFFF" height="147.7949" style="stroke:#181818;stroke-width:1.0;" width="10" x="356" y="1025.813"/><rect fill="#FFFFFF" height="704.9233" style="stroke:#181818;stroke-width:1.0;" width="10" x="745.5" y="468.6846"/><rect fill="#FFFFFF" height="243.6411" style="stroke:#181818;stroke-width:1.0;" width="10" x="948.5" y="618.4282"/><rect fill="none" height="158.7437" style="stroke:#000000;stroke-width:1.5;" width="522" x="874" y="633.4282"/><line style="stroke:#181818;stroke-width:0.5;stroke-dasharray:5.0,5.0;" x1="52" x2="52" y1="118.1973" y2="1198.6079"/><line style="stroke:#181818;stroke-width:0.5;stroke-dasharray:5.0,5.0;" x1="360.5" x2="360.5" y1="118.1973" y2="1198.6079"/><line style="stroke:#181818;stroke-width:0.5;stroke-dasharray:5.0,5.0;" x1="582.5" x2="582.5" y1="118.1973" y2="1198.6079"/><line style="stroke:#181818;stroke-width:0.5;stroke-dasharray:5.0,5.0;" x1="750.5" x2="750.5" y1="118.1973" y2="1198.6079"/><line style="stroke:#181818;stroke-width:0.5;stroke-dasharray:5.0,5.0;" x1="953" x2="953" y1="118.1973" y2="1198.6079"/><line style="stroke:#181818;stroke-width:0.5;stroke-dasharray:5.0,5.0;" x1="1132" x2="1132" y1="118.1973" y2="1198.6079"/><line style="stroke:#181818;stroke-width:0.5;stroke-dasharray:5.0,5.0;" x1="1313" x2="1313" y1="118.1973" y2="1198.6079"/><line style="stroke:#181818;stroke-width:0.5;stroke-dasharray:5.0,5.0;" x1="1472" x2="1472" y1="118.1973" y2="1198.6079"/><text fill="#000000" font-family="Arial" font-size="14" lengthAdjust="spacing" textLength="40" x="29" y="115.2305">Admin</text><ellipse cx="52" cy="50.5986" fill="#E2E2F0" rx="8" ry="8" style="stroke:#181818;stroke-width:0.5;"/><path d="M52,58.5986 L52,85.5986 M39,66.5986 L65,66.5986 M52,85.5986 L39,100.5986 M52,85.5986 L65,100.5986 " fill="none" style="stroke:#181818;stroke-width:0.5;"/><text fill="#000000" font-family="Arial" font-size="14" lengthAdjust="spacing" textLength="40" x="29" y="1210.7397">Admin</text><ellipse cx="52" cy="1222.2065" fill="#E2E2F0" rx="8" ry="8" style="stroke:#181818;stroke-width:0.5;"/><path d="M52,1230.2065 L52,1257.2065 M39,1238.2065 L65,1238.2065 M52,1257.2065 L39,1272.2065 M52,1257.2065 L65,1272.2065 " fill="none" style="stroke:#181818;stroke-width:0.5;"/><rect fill="#FADBD8" height="46.1973" rx="2.5" ry="2.5" style="stroke:#943126;stroke-width:2.0;" width="161" x="280.5" y="71"/><text fill="#000000" font-family="Arial" font-size="14" font-weight="bold" lengthAdjust="spacing" textLength="75" x="323.5" y="91.1318">&#171;Contract&#187;</text><text fill="#000000" font-family="Arial" font-size="14" font-weight="bold" lengthAdjust="spacing" textLength="147" x="287.5" y="107.2305">EvalAvsTaskManager</text><rect fill="#FADBD8" height="46.1973" rx="2.5" ry="2.5" style="stroke:#943126;stroke-width:2.0;" width="161" x="280.5" y="1197.6079"/><text fill="#000000" font-family="Arial" font-size="14" font-weight="bold" lengthAdjust="spacing" textLength="75" x="323.5" y="1217.7397">&#171;Contract&#187;</text><text fill="#000000" font-family="Arial" font-size="14" font-weight="bold" lengthAdjust="spacing" textLength="147" x="287.5" y="1233.8384">EvalAvsTaskManager</text><rect fill="#FCF3CF" height="46.1973" rx="2.5" ry="2.5" style="stroke:#B7950B;stroke-width:2.0;" width="145" x="510.5" y="71"/><text fill="#000000" font-family="Arial" font-size="14" font-weight="bold" lengthAdjust="spacing" textLength="61" x="552.5" y="91.1318">&#171;Queue&#187;</text><text fill="#000000" font-family="Arial" font-size="14" font-weight="bold" lengthAdjust="spacing" textLength="131" x="517.5" y="107.2305">Assignment Queue</text><rect fill="#FCF3CF" height="46.1973" rx="2.5" ry="2.5" style="stroke:#B7950B;stroke-width:2.0;" width="145" x="510.5" y="1197.6079"/><text fill="#000000" font-family="Arial" font-size="14" font-weight="bold" lengthAdjust="spacing" textLength="61" x="552.5" y="1217.7397">&#171;Queue&#187;</text><text fill="#000000" font-family="Arial" font-size="14" font-weight="bold" lengthAdjust="spacing" textLength="131" x="517.5" y="1233.8384">Assignment Queue</text><rect fill="#D6EAF8" height="46.1973" rx="2.5" ry="2.5" style="stroke:#2E86C1;stroke-width:2.0;" width="90" x="705.5" y="71"/><text fill="#000000" font-family="Arial" font-size="14" font-weight="bold" lengthAdjust="spacing" textLength="76" x="712.5" y="91.1318">&#171;Operator&#187;</text><text fill="#000000" font-family="Arial" font-size="14" font-weight="bold" lengthAdjust="spacing" textLength="60" x="720.5" y="107.2305">Operator</text><rect fill="#D6EAF8" height="46.1973" rx="2.5" ry="2.5" style="stroke:#2E86C1;stroke-width:2.0;" width="90" x="705.5" y="1197.6079"/><text fill="#000000" font-family="Arial" font-size="14" font-weight="bold" lengthAdjust="spacing" textLength="76" x="712.5" y="1217.7397">&#171;Operator&#187;</text><text fill="#000000" font-family="Arial" font-size="14" font-weight="bold" lengthAdjust="spacing" textLength="60" x="720.5" y="1233.8384">Operator</text><rect fill="#D4EFDF" height="46.1973" rx="2.5" ry="2.5" style="stroke:#196F3D;stroke-width:2.0;" width="99" x="904" y="71"/><text fill="#000000" font-family="Arial" font-size="14" font-weight="bold" lengthAdjust="spacing" textLength="81" x="913" y="91.1318">&#171;Evaluator&#187;</text><text fill="#000000" font-family="Arial" font-size="14" font-weight="bold" lengthAdjust="spacing" textLength="85" x="911" y="107.2305">GoEvaluator</text><rect fill="#D4EFDF" height="46.1973" rx="2.5" ry="2.5" style="stroke:#196F3D;stroke-width:2.0;" width="99" x="904" y="1197.6079"/><text fill="#000000" font-family="Arial" font-size="14" font-weight="bold" lengthAdjust="spacing" textLength="81" x="913" y="1217.7397">&#171;Evaluator&#187;</text><text fill="#000000" font-family="Arial" font-size="14" font-weight="bold" lengthAdjust="spacing" textLength="85" x="911" y="1233.8384">GoEvaluator</text><rect fill="#F5EEF8" height="46.1973" rx="2.5" ry="2.5" style="stroke:#76448A;stroke-width:2.0;" width="158" x="1053" y="71"/><text fill="#000000" font-family="Arial" font-size="14" font-weight="bold" lengthAdjust="spacing" textLength="69" x="1097.5" y="91.1318">&#171;Storage&#187;</text><text fill="#000000" font-family="Arial" font-size="14" font-weight="bold" lengthAdjust="spacing" textLength="144" x="1060" y="107.2305">Dataset Registry (S3)</text><rect fill="#F5EEF8" height="46.1973" rx="2.5" ry="2.5" style="stroke:#76448A;stroke-width:2.0;" width="158" x="1053" y="1197.6079"/><text fill="#000000" font-family="Arial" font-size="14" font-weight="bold" lengthAdjust="spacing" textLength="69" x="1097.5" y="1217.7397">&#171;Storage&#187;</text><text fill="#000000" font-family="Arial" font-size="14" font-weight="bold" lengthAdjust="spacing" textLength="144" x="1060" y="1233.8384">Dataset Registry (S3)</text><rect fill="#FEF9E7" height="46.1973" rx="2.5" ry="2.5" style="stroke:#F1C40F;stroke-width:2.0;" width="105" x="1261" y="71"/><text fill="#000000" font-family="Arial" font-size="14" font-weight="bold" lengthAdjust="spacing" textLength="72" x="1277.5" y="91.1318">&#171;External&#187;</text><text fill="#000000" font-family="Arial" font-size="14" font-weight="bold" lengthAdjust="spacing" textLength="91" x="1268" y="107.2305">LLM Provider</text><rect fill="#FEF9E7" height="46.1973" rx="2.5" ry="2.5" style="stroke:#F1C40F;stroke-width:2.0;" width="105" x="1261" y="1197.6079"/><text fill="#000000" font-family="Arial" font-size="14" font-weight="bold" lengthAdjust="spacing" textLength="72" x="1277.5" y="1217.7397">&#171;External&#187;</text><text fill="#000000" font-family="Arial" font-size="14" font-weight="bold" lengthAdjust="spacing" textLength="91" x="1268" y="1233.8384">LLM Provider</text><rect fill="#EBF5FB" height="46.1973" rx="2.5" ry="2.5" style="stroke:#3498DB;stroke-width:2.0;" width="113" x="1416" y="71"/><text fill="#000000" font-family="Arial" font-size="14" font-weight="bold" lengthAdjust="spacing" textLength="39" x="1453" y="91.1318">&#171;API&#187;</text><text fill="#000000" font-family="Arial" font-size="14" font-weight="bold" lengthAdjust="spacing" textLength="99" x="1423" y="107.2305">LayerLens API</text><rect fill="#EBF5FB" height="46.1973" rx="2.5" ry="2.5" style="stroke:#3498DB;stroke-width:2.0;" width="113" x="1416" y="1197.6079"/><text fill="#000000" font-family="Arial" font-size="14" font-weight="bold" lengthAdjust="spacing" textLength="39" x="1453" y="1217.7397">&#171;API&#187;</text><text fill="#000000" font-family="Arial" font-size="14" font-weight="bold" lengthAdjust="spacing" textLength="99" x="1423" y="1233.8384">LayerLens API</text><rect fill="#FFFFFF" height="134.7949" style="stroke:#181818;stroke-width:1.0;" width="10" x="356" y="184.0947"/><rect fill="#FFFFFF" height="147.7949" style="stroke:#181818;stroke-width:1.0;" width="10" x="356" y="1025.813"/><rect fill="#FFFFFF" height="704.9233" style="stroke:#181818;stroke-width:1.0;" width="10" x="745.5" y="468.6846"/><rect fill="#FFFFFF" height="243.6411" style="stroke:#181818;stroke-width:1.0;" width="10" x="948.5" y="618.4282"/><path d="M5,133.1973 L5,157.1973 L1520,157.1973 L1520,143.1973 L1510,133.1973 L5,133.1973 " fill="#FEFFDD" style="stroke:#181818;stroke-width:0.5;"/><path d="M1510,133.1973 L1510,143.1973 L1520,143.1973 L1510,133.1973 " fill="#FEFFDD" style="stroke:#181818;stroke-width:0.5;"/><text fill="#000000" font-family="Arial" font-size="13" lengthAdjust="spacing" textLength="179" x="668.5" y="150.3911">Task Creation and Assignment</text><polygon fill="#181818" points="344,180.0947,354,184.0947,344,188.0947,348,184.0947" style="stroke:#181818;stroke-width:1.0;"/><line style="stroke:#181818;stroke-width:1.5;" x1="52" x2="350" y1="184.0947" y2="184.0947"/><text fill="#000000" font-family="Arial" font-size="13" lengthAdjust="spacing" textLength="285" x="61.5" y="179.3398">requestEval(modelName, datasetName, subsets)</text><polygon fill="#181818" points="571,209.0435,581,213.0435,571,217.0435,575,213.0435" style="stroke:#181818;stroke-width:1.0;"/><line style="stroke:#181818;stroke-width:1.5;" x1="366" x2="577" y1="213.0435" y2="213.0435"/><text fill="#000000" font-family="Arial" font-size="13" lengthAdjust="spacing" textLength="160" x="394.5" y="208.2886">popNextAssignedOperator()</text><polygon fill="#181818" points="377,237.9922,367,241.9922,377,245.9922,373,241.9922" style="stroke:#181818;stroke-width:1.0;"/><line style="stroke:#181818;stroke-width:1.5;stroke-dasharray:2.0,2.0;" x1="371" x2="582" y1="241.9922" y2="241.9922"/><text fill="#000000" font-family="Arial" font-size="13" lengthAdjust="spacing" textLength="102" x="423.5" y="237.2373">assignedOperator</text><line style="stroke:#181818;stroke-width:1.5;" x1="366" x2="408" y1="270.9409" y2="270.9409"/><line style="stroke:#181818;stroke-width:1.5;" x1="408" x2="408" y1="270.9409" y2="283.9409"/><line style="stroke:#181818;stroke-width:1.5;" x1="367" x2="408" y1="283.9409" y2="283.9409"/><polygon fill="#181818" points="377,279.9409,367,283.9409,377,287.9409,373,283.9409" style="stroke:#181818;stroke-width:1.0;"/><text fill="#000000" font-family="Arial" font-size="13" lengthAdjust="spacing" textLength="120" x="373" y="266.186">Create EvalAvsTask</text><line style="stroke:#181818;stroke-width:1.5;" x1="366" x2="408" y1="317.8896" y2="317.8896"/><line style="stroke:#181818;stroke-width:1.5;" x1="408" x2="408" y1="317.8896" y2="330.8896"/><line style="stroke:#181818;stroke-width:1.5;" x1="361" x2="408" y1="330.8896" y2="330.8896"/><polygon fill="#181818" points="371,326.8896,361,330.8896,371,334.8896,367,330.8896" style="stroke:#181818;stroke-width:1.0;"/><text fill="#000000" font-family="Arial" font-size="13" lengthAdjust="spacing" textLength="157" x="373" y="313.1348">Emit EvalRequested Event</text><line style="stroke:#181818;stroke-width:1.5;" x1="750.5" x2="792.5" y1="354.8384" y2="354.8384"/><line style="stroke:#181818;stroke-width:1.5;" x1="792.5" x2="792.5" y1="354.8384" y2="367.8384"/><line style="stroke:#181818;stroke-width:1.5;" x1="751.5" x2="792.5" y1="367.8384" y2="367.8384"/><polygon fill="#181818" points="761.5,363.8384,751.5,367.8384,761.5,371.8384,757.5,367.8384" style="stroke:#181818;stroke-width:1.0;"/><text fill="#000000" font-family="Arial" font-size="13" lengthAdjust="spacing" textLength="189" x="757.5" y="350.0835">Listen for EvalRequested events</text><polygon fill="#181818" points="738.5,392.7871,748.5,396.7871,738.5,400.7871,742.5,396.7871" style="stroke:#181818;stroke-width:1.0;"/><line style="stroke:#181818;stroke-width:1.5;" x1="361" x2="744.5" y1="396.7871" y2="396.7871"/><text fill="#000000" font-family="Arial" font-size="13" lengthAdjust="spacing" textLength="230" x="440.75" y="392.0322">EvalRequested(taskId, task, externalId)</text><path d="M682,409.7871 L682,433.7871 L1540,433.7871 L1540,419.7871 L1530,409.7871 L682,409.7871 " fill="#FEFFDD" style="stroke:#181818;stroke-width:0.5;"/><path d="M1530,409.7871 L1530,419.7871 L1540,419.7871 L1530,409.7871 " fill="#FEFFDD" style="stroke:#181818;stroke-width:0.5;"/><text fill="#000000" font-family="Arial" font-size="13" lengthAdjust="spacing" textLength="91" x="1061.25" y="426.981">Task Execution</text><line style="stroke:#181818;stroke-width:1.5;" x1="750.5" x2="797.5" y1="455.6846" y2="455.6846"/><line style="stroke:#181818;stroke-width:1.5;" x1="797.5" x2="797.5" y1="455.6846" y2="468.6846"/><line style="stroke:#181818;stroke-width:1.5;" x1="756.5" x2="797.5" y1="468.6846" y2="468.6846"/><polygon fill="#181818" points="766.5,464.6846,756.5,468.6846,766.5,472.6846,762.5,468.6846" style="stroke:#181818;stroke-width:1.0;"/><text fill="#000000" font-family="Arial" font-size="13" lengthAdjust="spacing" textLength="148" x="762.5" y="450.9297">Check if assigned to task</text><polygon fill="#181818" points="1120,498.6333,1130,502.6333,1120,506.6333,1124,502.6333" style="stroke:#181818;stroke-width:1.0;"/><line style="stroke:#181818;stroke-width:1.5;" x1="755.5" x2="1126" y1="502.6333" y2="502.6333"/><text fill="#000000" font-family="Arial" font-size="13" lengthAdjust="spacing" textLength="257" x="815.25" y="497.8784">Fetch dataset files (formatted.jsonl + config)</text><polygon fill="#181818" points="766.5,527.582,756.5,531.582,766.5,535.582,762.5,531.582" style="stroke:#181818;stroke-width:1.0;"/><line style="stroke:#181818;stroke-width:1.5;stroke-dasharray:2.0,2.0;" x1="760.5" x2="1131" y1="531.582" y2="531.582"/><text fill="#000000" font-family="Arial" font-size="13" lengthAdjust="spacing" textLength="113" x="887.25" y="526.8271">Return dataset files</text><polygon fill="#181818" points="1460.5,556.5308,1470.5,560.5308,1460.5,564.5308,1464.5,560.5308" style="stroke:#181818;stroke-width:1.0;"/><line style="stroke:#181818;stroke-width:1.5;" x1="755.5" x2="1466.5" y1="560.5308" y2="560.5308"/><text fill="#000000" font-family="Arial" font-size="13" lengthAdjust="spacing" textLength="209" x="1009.5" y="555.7759">Request API Key for model provider</text><polygon fill="#181818" points="766.5,585.4795,756.5,589.4795,766.5,593.4795,762.5,589.4795" style="stroke:#181818;stroke-width:1.0;"/><line style="stroke:#181818;stroke-width:1.5;stroke-dasharray:2.0,2.0;" x1="760.5" x2="1471.5" y1="589.4795" y2="589.4795"/><text fill="#000000" font-family="Arial" font-size="13" lengthAdjust="spacing" textLength="91" x="1068.5" y="584.7246">Return API Key</text><polygon fill="#181818" points="936.5,614.4282,946.5,618.4282,936.5,622.4282,940.5,618.4282" style="stroke:#181818;stroke-width:1.0;"/><line style="stroke:#181818;stroke-width:1.5;" x1="755.5" x2="942.5" y1="618.4282" y2="618.4282"/><text fill="#000000" font-family="Arial" font-size="13" lengthAdjust="spacing" textLength="111" x="796.5" y="613.6733">Execute evaluation</text><path d="M874,633.4282 L947,633.4282 L947,640.377 L937,650.377 L874,650.377 L874,633.4282 " fill="#EEEEEE" style="stroke:#000000;stroke-width:1.5;"/><rect fill="none" height="158.7437" style="stroke:#000000;stroke-width:1.5;" width="522" x="874" y="633.4282"/><text fill="#000000" font-family="Arial" font-size="13" font-weight="bold" lengthAdjust="spacing" textLength="28" x="889" y="646.6221">loop</text><text fill="#000000" font-family="Arial" font-size="11" font-weight="bold" lengthAdjust="spacing" textLength="151" x="962" y="645.7461">[For each prompt in dataset]</text><polygon fill="#181818" points="1301.5,667.3257,1311.5,671.3257,1301.5,675.3257,1305.5,671.3257" style="stroke:#181818;stroke-width:1.0;"/><line style="stroke:#181818;stroke-width:1.5;" x1="958.5" x2="1307.5" y1="671.3257" y2="671.3257"/><text fill="#000000" font-family="Arial" font-size="13" lengthAdjust="spacing" textLength="74" x="1099" y="666.5708">Send prompt</text><polygon fill="#181818" points="969.5,696.2744,959.5,700.2744,969.5,704.2744,965.5,700.2744" style="stroke:#181818;stroke-width:1.0;"/><line style="stroke:#181818;stroke-width:1.5;stroke-dasharray:2.0,2.0;" x1="963.5" x2="1312.5" y1="700.2744" y2="700.2744"/><text fill="#000000" font-family="Arial" font-size="13" lengthAdjust="spacing" textLength="95" x="1088.5" y="695.5195">Return response</text><line style="stroke:#181818;stroke-width:1.5;" x1="958.5" x2="1000.5" y1="729.2231" y2="729.2231"/><line style="stroke:#181818;stroke-width:1.5;" x1="1000.5" x2="1000.5" y1="729.2231" y2="742.2231"/><line style="stroke:#181818;stroke-width:1.5;" x1="959.5" x2="1000.5" y1="742.2231" y2="742.2231"/><polygon fill="#181818" points="969.5,738.2231,959.5,742.2231,969.5,746.2231,965.5,742.2231" style="stroke:#181818;stroke-width:1.0;"/><text fill="#000000" font-family="Arial" font-size="13" lengthAdjust="spacing" textLength="91" x="965.5" y="724.4683">Score response</text><line style="stroke:#181818;stroke-width:1.5;" x1="958.5" x2="1000.5" y1="771.1719" y2="771.1719"/><line style="stroke:#181818;stroke-width:1.5;" x1="1000.5" x2="1000.5" y1="771.1719" y2="784.1719"/><line style="stroke:#181818;stroke-width:1.5;" x1="959.5" x2="1000.5" y1="784.1719" y2="784.1719"/><polygon fill="#181818" points="969.5,780.1719,959.5,784.1719,969.5,788.1719,965.5,784.1719" style="stroke:#181818;stroke-width:1.0;"/><text fill="#000000" font-family="Arial" font-size="13" lengthAdjust="spacing" textLength="126" x="965.5" y="766.417">Hash response (MD5)</text><line style="stroke:#181818;stroke-width:1.5;" x1="958.5" x2="1000.5" y1="820.1206" y2="820.1206"/><line style="stroke:#181818;stroke-width:1.5;" x1="1000.5" x2="1000.5" y1="820.1206" y2="833.1206"/><line style="stroke:#181818;stroke-width:1.5;" x1="959.5" x2="1000.5" y1="833.1206" y2="833.1206"/><polygon fill="#181818" points="969.5,829.1206,959.5,833.1206,969.5,837.1206,965.5,833.1206" style="stroke:#181818;stroke-width:1.0;"/><text fill="#000000" font-family="Arial" font-size="13" lengthAdjust="spacing" textLength="145" x="965.5" y="815.3657">Generate combined hash</text><polygon fill="#181818" points="766.5,858.0693,756.5,862.0693,766.5,866.0693,762.5,862.0693" style="stroke:#181818;stroke-width:1.0;"/><line style="stroke:#181818;stroke-width:1.5;stroke-dasharray:2.0,2.0;" x1="760.5" x2="952.5" y1="862.0693" y2="862.0693"/><text fill="#000000" font-family="Arial" font-size="13" lengthAdjust="spacing" textLength="138" x="785.5" y="857.3145">Return results and hash</text><polygon fill="#181818" points="1460.5,887.0181,1470.5,891.0181,1460.5,895.0181,1464.5,891.0181" style="stroke:#181818;stroke-width:1.0;"/><line style="stroke:#181818;stroke-width:1.5;" x1="755.5" x2="1466.5" y1="891.0181" y2="891.0181"/><text fill="#000000" font-family="Arial" font-size="13" lengthAdjust="spacing" textLength="122" x="1053" y="886.2632">Save detailed results</text><polygon fill="#181818" points="766.5,915.9668,756.5,919.9668,766.5,923.9668,762.5,919.9668" style="stroke:#181818;stroke-width:1.0;"/><line style="stroke:#181818;stroke-width:1.5;stroke-dasharray:2.0,2.0;" x1="760.5" x2="1471.5" y1="919.9668" y2="919.9668"/><text fill="#000000" font-family="Arial" font-size="13" lengthAdjust="spacing" textLength="77" x="1075.5" y="915.2119">Confirm save</text><path d="M682,932.9668 L682,956.9668 L1540,956.9668 L1540,942.9668 L1530,932.9668 L682,932.9668 " fill="#FEFFDD" style="stroke:#181818;stroke-width:0.5;"/><path d="M1530,932.9668 L1530,942.9668 L1540,942.9668 L1530,932.9668 " fill="#FEFFDD" style="stroke:#181818;stroke-width:0.5;"/><text fill="#000000" font-family="Arial" font-size="13" lengthAdjust="spacing" textLength="109" x="1052.25" y="950.1606">Result Submission</text><line style="stroke:#181818;stroke-width:1.5;" x1="755.5" x2="797.5" y1="983.8643" y2="983.8643"/><line style="stroke:#181818;stroke-width:1.5;" x1="797.5" x2="797.5" y1="983.8643" y2="996.8643"/><line style="stroke:#181818;stroke-width:1.5;" x1="756.5" x2="797.5" y1="996.8643" y2="996.8643"/><polygon fill="#181818" points="766.5,992.8643,756.5,996.8643,766.5,1000.8643,762.5,996.8643" style="stroke:#181818;stroke-width:1.0;"/><text fill="#000000" font-family="Arial" font-size="13" lengthAdjust="spacing" textLength="139" x="762.5" y="979.1094">Generate BLS signature</text><polygon fill="#181818" points="377,1021.813,367,1025.813,377,1029.813,373,1025.813" style="stroke:#181818;stroke-width:1.0;"/><line style="stroke:#181818;stroke-width:1.5;" x1="371" x2="744.5" y1="1025.813" y2="1025.813"/><text fill="#000000" font-family="Arial" font-size="13" lengthAdjust="spacing" textLength="276" x="417.75" y="1021.0581">respondToEvalRequest(taskId, hash, signature)</text><line style="stroke:#181818;stroke-width:1.5;" x1="366" x2="408" y1="1054.7617" y2="1054.7617"/><line style="stroke:#181818;stroke-width:1.5;" x1="408" x2="408" y1="1054.7617" y2="1067.7617"/><line style="stroke:#181818;stroke-width:1.5;" x1="367" x2="408" y1="1067.7617" y2="1067.7617"/><polygon fill="#181818" points="377,1063.7617,367,1067.7617,377,1071.7617,373,1067.7617" style="stroke:#181818;stroke-width:1.0;"/><text fill="#000000" font-family="Arial" font-size="13" lengthAdjust="spacing" textLength="91" x="373" y="1050.0068">Verify signature</text><line style="stroke:#181818;stroke-width:1.5;" x1="366" x2="408" y1="1096.7104" y2="1096.7104"/><line style="stroke:#181818;stroke-width:1.5;" x1="408" x2="408" y1="1096.7104" y2="1109.7104"/><line style="stroke:#181818;stroke-width:1.5;" x1="367" x2="408" y1="1109.7104" y2="1109.7104"/><polygon fill="#181818" points="377,1105.7104,367,1109.7104,377,1113.7104,373,1109.7104" style="stroke:#181818;stroke-width:1.0;"/><text fill="#000000" font-family="Arial" font-size="13" lengthAdjust="spacing" textLength="198" x="373" y="1091.9556">Update task state to SUBMITTED</text><polygon fill="#181818" points="571,1134.6592,581,1138.6592,571,1142.6592,575,1138.6592" style="stroke:#181818;stroke-width:1.0;"/><line style="stroke:#181818;stroke-width:1.5;" x1="366" x2="577" y1="1138.6592" y2="1138.6592"/><text fill="#000000" font-family="Arial" font-size="13" lengthAdjust="spacing" textLength="160" x="394.5" y="1133.9043">Add operator back to queue</text><line style="stroke:#181818;stroke-width:1.5;" x1="366" x2="408" y1="1172.6079" y2="1172.6079"/><line style="stroke:#181818;stroke-width:1.5;" x1="408" x2="408" y1="1172.6079" y2="1185.6079"/><line style="stroke:#181818;stroke-width:1.5;" x1="361" x2="408" y1="1185.6079" y2="1185.6079"/><polygon fill="#181818" points="371,1181.6079,361,1185.6079,371,1189.6079,367,1185.6079" style="stroke:#181818;stroke-width:1.0;"/><text fill="#000000" font-family="Arial" font-size="13" lengthAdjust="spacing" textLength="157" x="373" y="1167.853">Emit EvalCompleted Event</text><rect fill="#DDDDDD" height="191.085" id="_legend" rx="7.5" ry="7.5" style="stroke:#000000;stroke-width:1.0;" width="307" x="623" y="1286.7065"/><text fill="#000000" font-family="Arial" font-size="14" font-weight="bold" lengthAdjust="spacing" textLength="78" x="632" y="1306.8384">Entity Type</text><text fill="#000000" font-family="Arial" font-size="14" font-weight="bold" lengthAdjust="spacing" textLength="79" x="718" y="1306.8384">Description</text><rect fill="#E9F7EF" height="16.0986" style="stroke:none;stroke-width:1.0;" width="86" x="628" y="1309.8052"/><text fill="#000000" font-family="Arial" font-size="14" lengthAdjust="spacing" textLength="4" x="628" y="1322.937">&#160;</text><text fill="#000000" font-family="Arial" font-size="14" lengthAdjust="spacing" textLength="203" x="718" y="1322.937">Frontend - Web/UI Components</text><rect fill="#EBF5FB" height="16.0986" style="stroke:none;stroke-width:1.0;" width="86" x="628" y="1325.9038"/><text fill="#000000" font-family="Arial" font-size="14" lengthAdjust="spacing" textLength="4" x="628" y="1339.0356">&#160;</text><text fill="#000000" font-family="Arial" font-size="14" lengthAdjust="spacing" textLength="148" x="718" y="1339.0356">API - Backend Services</text><rect fill="#F9EBEA" height="16.0986" style="stroke:none;stroke-width:1.0;" width="86" x="628" y="1342.0024"/><text fill="#000000" font-family="Arial" font-size="14" lengthAdjust="spacing" textLength="4" x="628" y="1355.1343">&#160;</text><text fill="#000000" font-family="Arial" font-size="14" lengthAdjust="spacing" textLength="190" x="718" y="1355.1343">Auth - Authentication Services</text><rect fill="#F4ECF7" height="16.0986" style="stroke:none;stroke-width:1.0;" width="86" x="628" y="1358.1011"/><text fill="#000000" font-family="Arial" font-size="14" lengthAdjust="spacing" textLength="4" x="628" y="1371.2329">&#160;</text><text fill="#000000" font-family="Arial" font-size="14" lengthAdjust="spacing" textLength="158" x="718" y="1371.2329">Database - Data Storage</text><rect fill="#FEF9E7" height="16.0986" style="stroke:none;stroke-width:1.0;" width="86" x="628" y="1374.1997"/><text fill="#000000" font-family="Arial" font-size="14" lengthAdjust="spacing" textLength="4" x="628" y="1387.3315">&#160;</text><text fill="#000000" font-family="Arial" font-size="14" lengthAdjust="spacing" textLength="181" x="718" y="1387.3315">External - 3rd Party Services</text><rect fill="#FADBD8" height="16.0986" style="stroke:none;stroke-width:1.0;" width="86" x="628" y="1390.2983"/><text fill="#000000" font-family="Arial" font-size="14" lengthAdjust="spacing" textLength="4" x="628" y="1403.4302">&#160;</text><text fill="#000000" font-family="Arial" font-size="14" lengthAdjust="spacing" textLength="170" x="718" y="1403.4302">Contract - Smart Contracts</text><rect fill="#FCF3CF" height="16.0986" style="stroke:none;stroke-width:1.0;" width="86" x="628" y="1406.397"/><text fill="#000000" font-family="Arial" font-size="14" lengthAdjust="spacing" textLength="4" x="628" y="1419.5288">&#160;</text><text fill="#000000" font-family="Arial" font-size="14" lengthAdjust="spacing" textLength="168" x="718" y="1419.5288">Queue - Message Queues</text><rect fill="#D6EAF8" height="16.0986" style="stroke:none;stroke-width:1.0;" width="86" x="628" y="1422.4956"/><text fill="#000000" font-family="Arial" font-size="14" lengthAdjust="spacing" textLength="4" x="628" y="1435.6274">&#160;</text><text fill="#000000" font-family="Arial" font-size="14" lengthAdjust="spacing" textLength="171" x="718" y="1435.6274">Operator - Validator Nodes</text><rect fill="#D4EFDF" height="16.0986" style="stroke:none;stroke-width:1.0;" width="86" x="628" y="1438.5942"/><text fill="#000000" font-family="Arial" font-size="14" lengthAdjust="spacing" textLength="4" x="628" y="1451.7261">&#160;</text><text fill="#000000" font-family="Arial" font-size="14" lengthAdjust="spacing" textLength="197" x="718" y="1451.7261">Evaluator - Evaluation Services</text><rect fill="#F5EEF8" height="16.0986" style="stroke:none;stroke-width:1.0;" width="86" x="628" y="1454.6929"/><text fill="#000000" font-family="Arial" font-size="14" lengthAdjust="spacing" textLength="4" x="628" y="1467.8247">&#160;</text><text fill="#000000" font-family="Arial" font-size="14" lengthAdjust="spacing" textLength="171" x="718" y="1467.8247">Storage - Storage Services</text><line style="stroke:#000000;stroke-width:1.0;" x1="628" x2="925" y1="1293.7065" y2="1293.7065"/><line style="stroke:#000000;stroke-width:1.0;" x1="628" x2="925" y1="1309.8052" y2="1309.8052"/><line style="stroke:#000000;stroke-width:1.0;" x1="628" x2="925" y1="1325.9038" y2="1325.9038"/><line style="stroke:#000000;stroke-width:1.0;" x1="628" x2="925" y1="1342.0024" y2="1342.0024"/><line style="stroke:#000000;stroke-width:1.0;" x1="628" x2="925" y1="1358.1011" y2="1358.1011"/><line style="stroke:#000000;stroke-width:1.0;" x1="628" x2="925" y1="1374.1997" y2="1374.1997"/><line style="stroke:#000000;stroke-width:1.0;" x1="628" x2="925" y1="1390.2983" y2="1390.2983"/><line style="stroke:#000000;stroke-width:1.0;" x1="628" x2="925" y1="1406.397" y2="1406.397"/><line style="stroke:#000000;stroke-width:1.0;" x1="628" x2="925" y1="1422.4956" y2="1422.4956"/><line style="stroke:#000000;stroke-width:1.0;" x1="628" x2="925" y1="1438.5942" y2="1438.5942"/><line style="stroke:#000000;stroke-width:1.0;" x1="628" x2="925" y1="1454.6929" y2="1454.6929"/><line style="stroke:#000000;stroke-width:1.0;" x1="628" x2="925" y1="1470.7915" y2="1470.7915"/><line style="stroke:#000000;stroke-width:1.0;" x1="628" x2="628" y1="1293.7065" y2="1470.7915"/><line style="stroke:#000000;stroke-width:1.0;" x1="714" x2="714" y1="1293.7065" y2="1470.7915"/><line style="stroke:#000000;stroke-width:1.0;" x1="925" x2="925" y1="1293.7065" y2="1470.7915"/><!--SRC=[ZLNVRzem47xtNt7Roq23QblL5pHLehJTga7NDNJlRdo0HsAdjaFB_lgTJP8wAML5WjYvxxxxVRoJAirAWP3gFDTgQDqsmwEYp3F6Fi2CI-Ne2rRd2BR0L2va2cbfdSxbN-waLXOMse1RIGj2ygNXERDhgGfE9yYaGhSj4BHnAnq9RhXnCfK5L-w62o7L4hvyYkG9FfIeKZpJJxNySomV6wCVvokPhXLQ2v-FJXXpqcK8SsxNC34Od0Ek18ojbKkLet9mcUb7ndZgoEMnoALYnRCZyFvYmxFnndgA6LTyYUOzS0lH7Rv-dMZb356SdhQL8pE_IYmng8OJAOLdL-DdWOQJAm5PNmXS7xluRzexM3OgqPsqcdDNxPmxRj71BIwbTMOBlUIu7mYIOz9BI8L2wsfDfpEuCNeZHPK5_uAiF3aqYcSlu7oBPehK3kERgu2d9-7fbw1CQKTDiC4gxGCl7Hsi5MC12SFJEFyZCBuphFFHzd8jCBlcEGv0x8BSNMnvJsVRzvMM6-umfc1nEOazb6O4XIwkySdj741Hrw3NPxiQ3hkEy0woozi2Xo0HeWOx2B_8fGlWsrsqAEZcao9mRqYiwHvYgiyZc5AzKOK1RPEX9xDT5vuLM-WUPNPz9GRWdmF0gWEkH3-kQwqSb_RY2TFIr_Or1oShJDSW5qqomUbWvhboJNfZXkHu19VeqbLTTrZ832tqADISEtBww8_LAeEFjDZKGYxxZ7fzsB9zYwuqgatGCXBYgB8Gkla7RaCkGzj1KGq7ywAzr9LEYpIQsL6L7wHoX5SXKKtW4P9bMXTmIGnK_fMtd1SEPECy0_h4su0CqRYEQ8tIJEtW0UDdUDZrelBMe2redUC-iXO-IRN1jyE_SxjgqD2RdP_q6Rd53kbyG-LJ5lwMxgNlYnMnj5NsPPpCb9cpOPK4ZMXUudo-h7F2DmW2wTyk8siLpvxIJdmxcHmiuG-q_sqWWAIypoMrzkiJq4HwDat0pm2dGB05xgm_dqWnrz68DWFgGnuyixnj_xNeVwEHYstao27mNI4yjxSEreMZXkJkR7Ordr-Slx9dnqA0hgExvpJ-fFJWPM_RY1DgvWp_kn6ZrtKk_m40]--></g></svg>