<?xml version="1.0" encoding="us-ascii" standalone="no"?><svg xmlns="http://www.w3.org/2000/svg" xmlns:xlink="http://www.w3.org/1999/xlink" contentStyleType="text/css" height="1476px" preserveAspectRatio="none" style="width:1197px;height:1476px;background:#FFFFFF;" version="1.1" viewBox="0 0 1197 1476" width="1197px" zoomAndPan="magnify"><defs/><g><text fill="#303030" font-family="Arial" font-size="16" font-weight="bold" lengthAdjust="spacing" textLength="204" x="492.75" y="38.0078">Operator Registration Flow</text><rect fill="#F8F8F8" height="412.1895" style="stroke:#000000;stroke-width:1.0;" width="10" x="41" y="538.8877"/><rect fill="#F8F8F8" height="144.3965" style="stroke:#000000;stroke-width:1.0;" width="10" x="213" y="198.2959"/><rect fill="#F8F8F8" height="100.5977" style="stroke:#000000;stroke-width:1.0;" width="10" x="213" y="386.4912"/><line style="stroke:#000000;stroke-width:0.5;stroke-dasharray:5.0,5.0;" x1="46" x2="46" y1="152.4971" y2="969.0771"/><line style="stroke:#000000;stroke-width:0.5;stroke-dasharray:5.0,5.0;" x1="217.5" x2="217.5" y1="152.4971" y2="969.0771"/><line style="stroke:#000000;stroke-width:0.5;stroke-dasharray:5.0,5.0;" x1="458.5" x2="458.5" y1="152.4971" y2="969.0771"/><line style="stroke:#000000;stroke-width:0.5;stroke-dasharray:5.0,5.0;" x1="650.5" x2="650.5" y1="152.4971" y2="969.0771"/><line style="stroke:#000000;stroke-width:0.5;stroke-dasharray:5.0,5.0;" x1="871.5" x2="871.5" y1="152.4971" y2="969.0771"/><line style="stroke:#000000;stroke-width:0.5;stroke-dasharray:5.0,5.0;" x1="1083.5" x2="1083.5" y1="152.4971" y2="969.0771"/><text fill="#000000" font-family="Arial" font-size="14" font-weight="bold" lengthAdjust="spacing" textLength="60" x="13" y="141.5303">Operator</text><ellipse cx="46" cy="68.8984" fill="#FFFFFF" rx="8" ry="8" style="stroke:#454545;stroke-width:0.5;"/><path d="M46,76.8984 L46,103.8984 M33,84.8984 L59,84.8984 M46,103.8984 L33,118.8984 M46,103.8984 L59,118.8984 " fill="none" style="stroke:#454545;stroke-width:0.5;"/><text fill="#000000" font-family="Arial" font-size="14" font-weight="bold" lengthAdjust="spacing" textLength="60" x="13" y="989.209">Operator</text><ellipse cx="46" cy="1008.6758" fill="#FFFFFF" rx="8" ry="8" style="stroke:#454545;stroke-width:0.5;"/><path d="M46,1016.6758 L46,1043.6758 M33,1024.6758 L59,1024.6758 M46,1043.6758 L33,1058.6758 M46,1043.6758 L59,1058.6758 " fill="none" style="stroke:#454545;stroke-width:0.5;"/><rect fill="#EBF5FB" height="56.4478" rx="4" ry="4" style="stroke:#3498DB;stroke-width:2.0;" width="109" x="163.5" y="95.0493"/><text fill="#000000" font-family="Arial" font-size="10" font-weight="bold" lengthAdjust="spacing" textLength="29" x="203.5" y="119.4292">&#171;API&#187;</text><text fill="#000000" font-family="Arial" font-size="13" font-weight="bold" lengthAdjust="spacing" textLength="79" x="178.5" y="133.7422">Operator CLI</text><rect fill="#EBF5FB" height="56.4478" rx="4" ry="4" style="stroke:#3498DB;stroke-width:2.0;" width="109" x="163.5" y="968.0771"/><text fill="#000000" font-family="Arial" font-size="10" font-weight="bold" lengthAdjust="spacing" textLength="29" x="203.5" y="992.457">&#171;API&#187;</text><text fill="#000000" font-family="Arial" font-size="13" font-weight="bold" lengthAdjust="spacing" textLength="79" x="178.5" y="1006.77">Operator CLI</text><rect fill="#F5EEF8" height="56.4478" rx="4" ry="4" style="stroke:#76448A;stroke-width:2.0;" width="105" x="406.5" y="95.0493"/><text fill="#000000" font-family="Arial" font-size="10" font-weight="bold" lengthAdjust="spacing" textLength="50" x="434" y="119.4292">&#171;Storage&#187;</text><text fill="#000000" font-family="Arial" font-size="13" font-weight="bold" lengthAdjust="spacing" textLength="75" x="421.5" y="133.7422">Config Files</text><rect fill="#F5EEF8" height="56.4478" rx="4" ry="4" style="stroke:#76448A;stroke-width:2.0;" width="105" x="406.5" y="968.0771"/><text fill="#000000" font-family="Arial" font-size="10" font-weight="bold" lengthAdjust="spacing" textLength="50" x="434" y="992.457">&#171;Storage&#187;</text><text fill="#000000" font-family="Arial" font-size="13" font-weight="bold" lengthAdjust="spacing" textLength="75" x="421.5" y="1006.77">Config Files</text><rect fill="#FADBD8" height="56.4478" rx="4" ry="4" style="stroke:#943126;stroke-width:2.0;" width="179" x="561.5" y="95.0493"/><text fill="#000000" font-family="Arial" font-size="10" font-weight="bold" lengthAdjust="spacing" textLength="53" x="624.5" y="119.4292">&#171;Contract&#187;</text><text fill="#000000" font-family="Arial" font-size="13" font-weight="bold" lengthAdjust="spacing" textLength="149" x="576.5" y="133.7422">EvalAvsServiceManager</text><rect fill="#FADBD8" height="56.4478" rx="4" ry="4" style="stroke:#943126;stroke-width:2.0;" width="179" x="561.5" y="968.0771"/><text fill="#000000" font-family="Arial" font-size="10" font-weight="bold" lengthAdjust="spacing" textLength="53" x="624.5" y="992.457">&#171;Contract&#187;</text><text fill="#000000" font-family="Arial" font-size="13" font-weight="bold" lengthAdjust="spacing" textLength="149" x="576.5" y="1006.77">EvalAvsServiceManager</text><rect fill="#FADBD8" height="56.4478" rx="4" ry="4" style="stroke:#943126;stroke-width:2.0;" width="162" x="790.5" y="95.0493"/><text fill="#000000" font-family="Arial" font-size="10" font-weight="bold" lengthAdjust="spacing" textLength="53" x="845" y="119.4292">&#171;Contract&#187;</text><text fill="#000000" font-family="Arial" font-size="13" font-weight="bold" lengthAdjust="spacing" textLength="132" x="805.5" y="133.7422">EvalAvsTaskManager</text><rect fill="#FADBD8" height="56.4478" rx="4" ry="4" style="stroke:#943126;stroke-width:2.0;" width="162" x="790.5" y="968.0771"/><text fill="#000000" font-family="Arial" font-size="10" font-weight="bold" lengthAdjust="spacing" textLength="53" x="845" y="992.457">&#171;Contract&#187;</text><text fill="#000000" font-family="Arial" font-size="13" font-weight="bold" lengthAdjust="spacing" textLength="132" x="805.5" y="1006.77">EvalAvsTaskManager</text><rect fill="#FADBD8" height="56.4478" rx="4" ry="4" style="stroke:#943126;stroke-width:2.0;" width="163" x="1002.5" y="95.0493"/><text fill="#000000" font-family="Arial" font-size="10" font-weight="bold" lengthAdjust="spacing" textLength="53" x="1057.5" y="119.4292">&#171;Contract&#187;</text><text fill="#000000" font-family="Arial" font-size="13" font-weight="bold" lengthAdjust="spacing" textLength="133" x="1017.5" y="133.7422">EigenLayer Contracts</text><rect fill="#FADBD8" height="56.4478" rx="4" ry="4" style="stroke:#943126;stroke-width:2.0;" width="163" x="1002.5" y="968.0771"/><text fill="#000000" font-family="Arial" font-size="10" font-weight="bold" lengthAdjust="spacing" textLength="53" x="1057.5" y="992.457">&#171;Contract&#187;</text><text fill="#000000" font-family="Arial" font-size="13" font-weight="bold" lengthAdjust="spacing" textLength="133" x="1017.5" y="1006.77">EigenLayer Contracts</text><rect fill="#F8F8F8" height="412.1895" style="stroke:#000000;stroke-width:1.0;" width="10" x="41" y="538.8877"/><rect fill="#F8F8F8" height="144.3965" style="stroke:#000000;stroke-width:1.0;" width="10" x="213" y="198.2959"/><rect fill="#F8F8F8" height="100.5977" style="stroke:#000000;stroke-width:1.0;" width="10" x="213" y="386.4912"/><polygon fill="#000000" points="201,194.2959,211,198.2959,201,202.2959,205,198.2959" style="stroke:#000000;stroke-width:1.0;"/><line style="stroke:#000000;stroke-width:1.5;" x1="46" x2="207" y1="198.2959" y2="198.2959"/><text fill="#000000" font-family="Arial" font-size="12" lengthAdjust="spacing" textLength="18" x="82.5" y="185.7529">run</text><text fill="#000000" font-family="Arial" font-size="12" lengthAdjust="spacing" textLength="3" x="100.5" y="185.7529">&#160;</text><text fill="#000000" font-family="Arial" font-size="12" lengthAdjust="spacing" textLength="16" x="103.5" y="185.7529">init</text><text fill="#000000" font-family="Arial" font-size="12" lengthAdjust="spacing" textLength="3" x="119.5" y="185.7529">&#160;</text><text fill="#000000" font-family="Arial" font-size="12" lengthAdjust="spacing" textLength="54" x="122.5" y="185.7529">command</text><line style="stroke:#000000;stroke-width:1.5;" x1="223" x2="265" y1="242.0947" y2="242.0947"/><line style="stroke:#000000;stroke-width:1.5;" x1="265" x2="265" y1="242.0947" y2="255.0947"/><line style="stroke:#000000;stroke-width:1.5;" x1="224" x2="265" y1="255.0947" y2="255.0947"/><polygon fill="#000000" points="234,251.0947,224,255.0947,234,259.0947,230,255.0947" style="stroke:#000000;stroke-width:1.0;"/><text fill="#000000" font-family="Arial" font-size="12" lengthAdjust="spacing" textLength="78" x="238" y="229.5518">Generate/load</text><text fill="#000000" font-family="Arial" font-size="12" lengthAdjust="spacing" textLength="3" x="316" y="229.5518">&#160;</text><text fill="#000000" font-family="Arial" font-size="12" lengthAdjust="spacing" textLength="42" x="319" y="229.5518">ECDSA</text><text fill="#000000" font-family="Arial" font-size="12" lengthAdjust="spacing" textLength="3" x="361" y="229.5518">&#160;</text><text fill="#000000" font-family="Arial" font-size="12" lengthAdjust="spacing" textLength="21" x="364" y="229.5518">and</text><text fill="#000000" font-family="Arial" font-size="12" lengthAdjust="spacing" textLength="3" x="385" y="229.5518">&#160;</text><text fill="#000000" font-family="Arial" font-size="12" lengthAdjust="spacing" textLength="23" x="388" y="229.5518">BLS</text><text fill="#000000" font-family="Arial" font-size="12" lengthAdjust="spacing" textLength="3" x="411" y="229.5518">&#160;</text><text fill="#000000" font-family="Arial" font-size="12" lengthAdjust="spacing" textLength="25" x="414" y="229.5518">keys</text><polygon fill="#000000" points="447,294.8936,457,298.8936,447,302.8936,451,298.8936" style="stroke:#000000;stroke-width:1.0;"/><line style="stroke:#000000;stroke-width:1.5;" x1="223" x2="453" y1="298.8936" y2="298.8936"/><text fill="#000000" font-family="Arial" font-size="12" lengthAdjust="spacing" textLength="37" x="292" y="286.3506">Create</text><text fill="#000000" font-family="Arial" font-size="12" lengthAdjust="spacing" textLength="3" x="329" y="286.3506">&#160;</text><text fill="#000000" font-family="Arial" font-size="12" lengthAdjust="spacing" textLength="33" x="332" y="286.3506">config</text><text fill="#000000" font-family="Arial" font-size="12" lengthAdjust="spacing" textLength="3" x="365" y="286.3506">&#160;</text><text fill="#000000" font-family="Arial" font-size="12" lengthAdjust="spacing" textLength="22" x="368" y="286.3506">files</text><polygon fill="#000000" points="57,338.6924,47,342.6924,57,346.6924,53,342.6924" style="stroke:#000000;stroke-width:1.0;"/><line style="stroke:#000000;stroke-width:1.5;stroke-dasharray:2.0,2.0;" x1="51" x2="217" y1="342.6924" y2="342.6924"/><text fill="#000000" font-family="Arial" font-size="12" lengthAdjust="spacing" textLength="74" x="68.5" y="330.1494">Configuration</text><text fill="#000000" font-family="Arial" font-size="12" lengthAdjust="spacing" textLength="3" x="142.5" y="330.1494">&#160;</text><text fill="#000000" font-family="Arial" font-size="12" lengthAdjust="spacing" textLength="50" x="145.5" y="330.1494">complete</text><polygon fill="#000000" points="201,382.4912,211,386.4912,201,390.4912,205,386.4912" style="stroke:#000000;stroke-width:1.0;"/><line style="stroke:#000000;stroke-width:1.5;" x1="46" x2="207" y1="386.4912" y2="386.4912"/><text fill="#000000" font-family="Arial" font-size="12" lengthAdjust="spacing" textLength="18" x="84" y="373.9482">run</text><text fill="#000000" font-family="Arial" font-size="12" lengthAdjust="spacing" textLength="3" x="102" y="373.9482">&#160;</text><text fill="#000000" font-family="Arial" font-size="12" lengthAdjust="spacing" textLength="37" x="105" y="373.9482">docker</text><text fill="#000000" font-family="Arial" font-size="12" lengthAdjust="spacing" textLength="3" x="142" y="373.9482">&#160;</text><text fill="#000000" font-family="Arial" font-size="12" lengthAdjust="spacing" textLength="30" x="145" y="373.9482">setup</text><line style="stroke:#000000;stroke-width:1.5;" x1="223" x2="265" y1="430.29" y2="430.29"/><line style="stroke:#000000;stroke-width:1.5;" x1="265" x2="265" y1="430.29" y2="443.29"/><line style="stroke:#000000;stroke-width:1.5;" x1="224" x2="265" y1="443.29" y2="443.29"/><polygon fill="#000000" points="234,439.29,224,443.29,234,447.29,230,443.29" style="stroke:#000000;stroke-width:1.0;"/><text fill="#000000" font-family="Arial" font-size="12" lengthAdjust="spacing" textLength="51" x="238" y="417.7471">Generate</text><text fill="#000000" font-family="Arial" font-size="12" lengthAdjust="spacing" textLength="3" x="289" y="417.7471">&#160;</text><text fill="#000000" font-family="Arial" font-size="12" lengthAdjust="spacing" textLength="91" x="292" y="417.7471">docker-compose</text><text fill="#000000" font-family="Arial" font-size="12" lengthAdjust="spacing" textLength="3" x="383" y="417.7471">&#160;</text><text fill="#000000" font-family="Arial" font-size="12" lengthAdjust="spacing" textLength="22" x="386" y="417.7471">files</text><polygon fill="#000000" points="57,483.0889,47,487.0889,57,491.0889,53,487.0889" style="stroke:#000000;stroke-width:1.0;"/><line style="stroke:#000000;stroke-width:1.5;stroke-dasharray:2.0,2.0;" x1="51" x2="217" y1="487.0889" y2="487.0889"/><text fill="#000000" font-family="Arial" font-size="12" lengthAdjust="spacing" textLength="39" x="69.5" y="474.5459">Docker</text><text fill="#000000" font-family="Arial" font-size="12" lengthAdjust="spacing" textLength="3" x="108.5" y="474.5459">&#160;</text><text fill="#000000" font-family="Arial" font-size="12" lengthAdjust="spacing" textLength="30" x="111.5" y="474.5459">setup</text><text fill="#000000" font-family="Arial" font-size="12" lengthAdjust="spacing" textLength="3" x="141.5" y="474.5459">&#160;</text><text fill="#000000" font-family="Arial" font-size="12" lengthAdjust="spacing" textLength="50" x="144.5" y="474.5459">complete</text><line style="stroke:#000000;stroke-width:1.5;" x1="46" x2="93" y1="525.8877" y2="525.8877"/><line style="stroke:#000000;stroke-width:1.5;" x1="93" x2="93" y1="525.8877" y2="538.8877"/><line style="stroke:#000000;stroke-width:1.5;" x1="52" x2="93" y1="538.8877" y2="538.8877"/><polygon fill="#000000" points="62,534.8877,52,538.8877,62,542.8877,58,538.8877" style="stroke:#000000;stroke-width:1.0;"/><text fill="#000000" font-family="Arial" font-size="12" lengthAdjust="spacing" textLength="25" x="66" y="513.3447">Start</text><text fill="#000000" font-family="Arial" font-size="12" lengthAdjust="spacing" textLength="3" x="91" y="513.3447">&#160;</text><text fill="#000000" font-family="Arial" font-size="12" lengthAdjust="spacing" textLength="46" x="94" y="513.3447">operator</text><text fill="#000000" font-family="Arial" font-size="12" lengthAdjust="spacing" textLength="3" x="140" y="513.3447">&#160;</text><text fill="#000000" font-family="Arial" font-size="12" lengthAdjust="spacing" textLength="28" x="143" y="513.3447">node</text><polygon fill="#000000" points="1072,583.6865,1082,587.6865,1072,591.6865,1076,587.6865" style="stroke:#000000;stroke-width:1.0;"/><line style="stroke:#000000;stroke-width:1.5;" x1="51" x2="1078" y1="587.6865" y2="587.6865"/><text fill="#000000" font-family="Arial" font-size="12" lengthAdjust="spacing" textLength="46" x="443.5" y="575.1436">Register</text><text fill="#000000" font-family="Arial" font-size="12" lengthAdjust="spacing" textLength="3" x="489.5" y="575.1436">&#160;</text><text fill="#000000" font-family="Arial" font-size="12" lengthAdjust="spacing" textLength="22" x="492.5" y="575.1436">with</text><text fill="#000000" font-family="Arial" font-size="12" lengthAdjust="spacing" textLength="3" x="514.5" y="575.1436">&#160;</text><text fill="#000000" font-family="Arial" font-size="12" lengthAdjust="spacing" textLength="63" x="517.5" y="575.1436">EigenLayer</text><text fill="#000000" font-family="Arial" font-size="12" lengthAdjust="spacing" textLength="3" x="580.5" y="575.1436">&#160;</text><text fill="#000000" font-family="Arial" font-size="12" lengthAdjust="spacing" textLength="76" x="583.5" y="575.1436">(ECDSA+BLS</text><text fill="#000000" font-family="Arial" font-size="12" lengthAdjust="spacing" textLength="3" x="659.5" y="575.1436">&#160;</text><text fill="#000000" font-family="Arial" font-size="12" lengthAdjust="spacing" textLength="29" x="662.5" y="575.1436">keys)</text><polygon fill="#000000" points="62,627.4854,52,631.4854,62,635.4854,58,631.4854" style="stroke:#000000;stroke-width:1.0;"/><line style="stroke:#000000;stroke-width:1.5;stroke-dasharray:2.0,2.0;" x1="56" x2="1083" y1="631.4854" y2="631.4854"/><text fill="#000000" font-family="Arial" font-size="12" lengthAdjust="spacing" textLength="66" x="506" y="618.9424">Registration</text><text fill="#000000" font-family="Arial" font-size="12" lengthAdjust="spacing" textLength="3" x="572" y="618.9424">&#160;</text><text fill="#000000" font-family="Arial" font-size="12" lengthAdjust="spacing" textLength="54" x="575" y="618.9424">confirmed</text><polygon fill="#000000" points="639,671.2842,649,675.2842,639,679.2842,643,675.2842" style="stroke:#000000;stroke-width:1.0;"/><line style="stroke:#000000;stroke-width:1.5;" x1="51" x2="645" y1="675.2842" y2="675.2842"/><text fill="#000000" font-family="Arial" font-size="12" lengthAdjust="spacing" textLength="46" x="247" y="662.7412">Register</text><text fill="#000000" font-family="Arial" font-size="12" lengthAdjust="spacing" textLength="3" x="293" y="662.7412">&#160;</text><text fill="#000000" font-family="Arial" font-size="12" lengthAdjust="spacing" textLength="22" x="296" y="662.7412">with</text><text fill="#000000" font-family="Arial" font-size="12" lengthAdjust="spacing" textLength="3" x="318" y="662.7412">&#160;</text><text fill="#000000" font-family="Arial" font-size="12" lengthAdjust="spacing" textLength="134" x="321" y="662.7412">EvalAvsServiceManager</text><polygon fill="#000000" points="1072,715.083,1082,719.083,1072,723.083,1076,719.083" style="stroke:#000000;stroke-width:1.0;"/><line style="stroke:#000000;stroke-width:1.5;" x1="651" x2="1078" y1="719.083" y2="719.083"/><text fill="#000000" font-family="Arial" font-size="12" lengthAdjust="spacing" textLength="31" x="820" y="706.54">Verify</text><text fill="#000000" font-family="Arial" font-size="12" lengthAdjust="spacing" textLength="3" x="851" y="706.54">&#160;</text><text fill="#000000" font-family="Arial" font-size="12" lengthAdjust="spacing" textLength="61" x="854" y="706.54">registration</text><polygon fill="#000000" points="662,758.8818,652,762.8818,662,766.8818,658,762.8818" style="stroke:#000000;stroke-width:1.0;"/><line style="stroke:#000000;stroke-width:1.5;stroke-dasharray:2.0,2.0;" x1="656" x2="1083" y1="762.8818" y2="762.8818"/><text fill="#000000" font-family="Arial" font-size="12" lengthAdjust="spacing" textLength="43" x="814" y="750.3389">Confirm</text><text fill="#000000" font-family="Arial" font-size="12" lengthAdjust="spacing" textLength="3" x="857" y="750.3389">&#160;</text><text fill="#000000" font-family="Arial" font-size="12" lengthAdjust="spacing" textLength="61" x="860" y="750.3389">registration</text><polygon fill="#000000" points="62,802.6807,52,806.6807,62,810.6807,58,806.6807" style="stroke:#000000;stroke-width:1.0;"/><line style="stroke:#000000;stroke-width:1.5;stroke-dasharray:2.0,2.0;" x1="56" x2="650" y1="806.6807" y2="806.6807"/><text fill="#000000" font-family="Arial" font-size="12" lengthAdjust="spacing" textLength="24" x="278.5" y="794.1377">AVS</text><text fill="#000000" font-family="Arial" font-size="12" lengthAdjust="spacing" textLength="3" x="302.5" y="794.1377">&#160;</text><text fill="#000000" font-family="Arial" font-size="12" lengthAdjust="spacing" textLength="61" x="305.5" y="794.1377">registration</text><text fill="#000000" font-family="Arial" font-size="12" lengthAdjust="spacing" textLength="3" x="366.5" y="794.1377">&#160;</text><text fill="#000000" font-family="Arial" font-size="12" lengthAdjust="spacing" textLength="54" x="369.5" y="794.1377">confirmed</text><polygon fill="#000000" points="859.5,846.4795,869.5,850.4795,859.5,854.4795,863.5,850.4795" style="stroke:#000000;stroke-width:1.0;"/><line style="stroke:#000000;stroke-width:1.5;" x1="51" x2="865.5" y1="850.4795" y2="850.4795"/><text fill="#000000" font-family="Arial" font-size="12" lengthAdjust="spacing" textLength="129" x="396.75" y="837.9365">joinAssignmentQueue()</text><line style="stroke:#000000;stroke-width:1.5;" x1="871.5" x2="913.5" y1="894.2783" y2="894.2783"/><line style="stroke:#000000;stroke-width:1.5;" x1="913.5" x2="913.5" y1="894.2783" y2="907.2783"/><line style="stroke:#000000;stroke-width:1.5;" x1="872.5" x2="913.5" y1="907.2783" y2="907.2783"/><polygon fill="#000000" points="882.5,903.2783,872.5,907.2783,882.5,911.2783,878.5,907.2783" style="stroke:#000000;stroke-width:1.0;"/><text fill="#000000" font-family="Arial" font-size="12" lengthAdjust="spacing" textLength="22" x="886.5" y="881.7354">Add</text><text fill="#000000" font-family="Arial" font-size="12" lengthAdjust="spacing" textLength="3" x="908.5" y="881.7354">&#160;</text><text fill="#000000" font-family="Arial" font-size="12" lengthAdjust="spacing" textLength="46" x="911.5" y="881.7354">operator</text><text fill="#000000" font-family="Arial" font-size="12" lengthAdjust="spacing" textLength="3" x="957.5" y="881.7354">&#160;</text><text fill="#000000" font-family="Arial" font-size="12" lengthAdjust="spacing" textLength="10" x="960.5" y="881.7354">to</text><text fill="#000000" font-family="Arial" font-size="12" lengthAdjust="spacing" textLength="3" x="970.5" y="881.7354">&#160;</text><text fill="#000000" font-family="Arial" font-size="12" lengthAdjust="spacing" textLength="35" x="973.5" y="881.7354">queue</text><polygon fill="#000000" points="57,947.0771,47,951.0771,57,955.0771,53,951.0771" style="stroke:#000000;stroke-width:1.0;"/><line style="stroke:#000000;stroke-width:1.5;stroke-dasharray:2.0,2.0;" x1="51" x2="870.5" y1="951.0771" y2="951.0771"/><text fill="#000000" font-family="Arial" font-size="12" lengthAdjust="spacing" textLength="68" x="387.25" y="938.5342">Successfully</text><text fill="#000000" font-family="Arial" font-size="12" lengthAdjust="spacing" textLength="3" x="455.25" y="938.5342">&#160;</text><text fill="#000000" font-family="Arial" font-size="12" lengthAdjust="spacing" textLength="34" x="458.25" y="938.5342">joined</text><text fill="#000000" font-family="Arial" font-size="12" lengthAdjust="spacing" textLength="3" x="492.25" y="938.5342">&#160;</text><text fill="#000000" font-family="Arial" font-size="12" lengthAdjust="spacing" textLength="35" x="495.25" y="938.5342">queue</text><rect fill="none" height="383.085" id="_legend" rx="4" ry="4" style="stroke:#000000;stroke-width:1.0;" width="355" x="822.5" y="1073.1758"/><text fill="#000000" font-family="Arial" font-size="14" font-weight="bold" lengthAdjust="spacing" textLength="78" x="847.5" y="1109.3076">Entity Type</text><text fill="#000000" font-family="Arial" font-size="14" font-weight="bold" lengthAdjust="spacing" textLength="79" x="949.5" y="1109.3076">Description</text><rect fill="#E9F7EF" height="32.0986" style="stroke:none;stroke-width:1.0;" width="102" x="835.5" y="1120.2744"/><text fill="#000000" font-family="Arial" font-size="14" lengthAdjust="spacing" textLength="4" x="843.5" y="1141.4063">&#160;</text><text fill="#000000" font-family="Arial" font-size="14" lengthAdjust="spacing" textLength="203" x="949.5" y="1141.4063">Frontend - Web/UI Components</text><rect fill="#EBF5FB" height="32.0986" style="stroke:none;stroke-width:1.0;" width="102" x="835.5" y="1152.373"/><text fill="#000000" font-family="Arial" font-size="14" lengthAdjust="spacing" textLength="4" x="843.5" y="1173.5049">&#160;</text><text fill="#000000" font-family="Arial" font-size="14" lengthAdjust="spacing" textLength="148" x="949.5" y="1173.5049">API - Backend Services</text><rect fill="#F9EBEA" height="32.0986" style="stroke:none;stroke-width:1.0;" width="102" x="835.5" y="1184.4717"/><text fill="#000000" font-family="Arial" font-size="14" lengthAdjust="spacing" textLength="4" x="843.5" y="1205.6035">&#160;</text><text fill="#000000" font-family="Arial" font-size="14" lengthAdjust="spacing" textLength="190" x="949.5" y="1205.6035">Auth - Authentication Services</text><rect fill="#F4ECF7" height="32.0986" style="stroke:none;stroke-width:1.0;" width="102" x="835.5" y="1216.5703"/><text fill="#000000" font-family="Arial" font-size="14" lengthAdjust="spacing" textLength="4" x="843.5" y="1237.7021">&#160;</text><text fill="#000000" font-family="Arial" font-size="14" lengthAdjust="spacing" textLength="158" x="949.5" y="1237.7021">Database - Data Storage</text><rect fill="#FEF9E7" height="32.0986" style="stroke:none;stroke-width:1.0;" width="102" x="835.5" y="1248.6689"/><text fill="#000000" font-family="Arial" font-size="14" lengthAdjust="spacing" textLength="4" x="843.5" y="1269.8008">&#160;</text><text fill="#000000" font-family="Arial" font-size="14" lengthAdjust="spacing" textLength="181" x="949.5" y="1269.8008">External - 3rd Party Services</text><rect fill="#FADBD8" height="32.0986" style="stroke:none;stroke-width:1.0;" width="102" x="835.5" y="1280.7676"/><text fill="#000000" font-family="Arial" font-size="14" lengthAdjust="spacing" textLength="4" x="843.5" y="1301.8994">&#160;</text><text fill="#000000" font-family="Arial" font-size="14" lengthAdjust="spacing" textLength="170" x="949.5" y="1301.8994">Contract - Smart Contracts</text><rect fill="#FCF3CF" height="32.0986" style="stroke:none;stroke-width:1.0;" width="102" x="835.5" y="1312.8662"/><text fill="#000000" font-family="Arial" font-size="14" lengthAdjust="spacing" textLength="4" x="843.5" y="1333.998">&#160;</text><text fill="#000000" font-family="Arial" font-size="14" lengthAdjust="spacing" textLength="168" x="949.5" y="1333.998">Queue - Message Queues</text><rect fill="#D6EAF8" height="32.0986" style="stroke:none;stroke-width:1.0;" width="102" x="835.5" y="1344.9648"/><text fill="#000000" font-family="Arial" font-size="14" lengthAdjust="spacing" textLength="4" x="843.5" y="1366.0967">&#160;</text><text fill="#000000" font-family="Arial" font-size="14" lengthAdjust="spacing" textLength="171" x="949.5" y="1366.0967">Operator - Validator Nodes</text><rect fill="#D4EFDF" height="32.0986" style="stroke:none;stroke-width:1.0;" width="102" x="835.5" y="1377.0635"/><text fill="#000000" font-family="Arial" font-size="14" lengthAdjust="spacing" textLength="4" x="843.5" y="1398.1953">&#160;</text><text fill="#000000" font-family="Arial" font-size="14" lengthAdjust="spacing" textLength="197" x="949.5" y="1398.1953">Evaluator - Evaluation Services</text><rect fill="#F5EEF8" height="32.0986" style="stroke:none;stroke-width:1.0;" width="102" x="835.5" y="1409.1621"/><text fill="#000000" font-family="Arial" font-size="14" lengthAdjust="spacing" textLength="4" x="843.5" y="1430.2939">&#160;</text><text fill="#000000" font-family="Arial" font-size="14" lengthAdjust="spacing" textLength="171" x="949.5" y="1430.2939">Storage - Storage Services</text><line style="stroke:#000000;stroke-width:1.0;" x1="835.5" x2="1164.5" y1="1088.1758" y2="1088.1758"/><line style="stroke:#000000;stroke-width:1.0;" x1="835.5" x2="1164.5" y1="1120.2744" y2="1120.2744"/><line style="stroke:#000000;stroke-width:1.0;" x1="835.5" x2="1164.5" y1="1152.373" y2="1152.373"/><line style="stroke:#000000;stroke-width:1.0;" x1="835.5" x2="1164.5" y1="1184.4717" y2="1184.4717"/><line style="stroke:#000000;stroke-width:1.0;" x1="835.5" x2="1164.5" y1="1216.5703" y2="1216.5703"/><line style="stroke:#000000;stroke-width:1.0;" x1="835.5" x2="1164.5" y1="1248.6689" y2="1248.6689"/><line style="stroke:#000000;stroke-width:1.0;" x1="835.5" x2="1164.5" y1="1280.7676" y2="1280.7676"/><line style="stroke:#000000;stroke-width:1.0;" x1="835.5" x2="1164.5" y1="1312.8662" y2="1312.8662"/><line style="stroke:#000000;stroke-width:1.0;" x1="835.5" x2="1164.5" y1="1344.9648" y2="1344.9648"/><line style="stroke:#000000;stroke-width:1.0;" x1="835.5" x2="1164.5" y1="1377.0635" y2="1377.0635"/><line style="stroke:#000000;stroke-width:1.0;" x1="835.5" x2="1164.5" y1="1409.1621" y2="1409.1621"/><line style="stroke:#000000;stroke-width:1.0;" x1="835.5" x2="1164.5" y1="1441.2607" y2="1441.2607"/><line style="stroke:#000000;stroke-width:1.0;" x1="835.5" x2="835.5" y1="1088.1758" y2="1441.2607"/><line style="stroke:#000000;stroke-width:1.0;" x1="937.5" x2="937.5" y1="1088.1758" y2="1441.2607"/><line style="stroke:#000000;stroke-width:1.0;" x1="1164.5" x2="1164.5" y1="1088.1758" y2="1441.2607"/><!--SRC=[ZLH1Rjim4Bpp5TjScg1msXJenJ0CA4vI173GD0fo9yYLl3L5AYHbrtrzAScoIJLkUp1iQsPsXxDBlICjL2CHXAageoVExnHUrasb67iF3voq3nzmfa9mDGegI81ed3SL_UAUZ7PG60j-HGuayTBoYharwPg7Nw18ez_L2CRwbOc0Hsuz2QgvzezSIj8bVFuKuJc-DgW5NfkV0tuLuvcrPlky8h7Mw1nSNNvXp9DN2DzgjDm7IqzOalEsCmbtocmPuw851WQhZoRWxA1RBE_FWBls6sQpxF5-Fa-P2wCBAk6E5BgUsJ-OpVAWvoME1RSRhhADoz5kIE03ru5ZEsNwA5G8fO9buK-KUEPk7UkZ_tyJKubwoNU1D51wun6Gg1axf36Pjq5CmJOQI9Fl5eLhsMP96-wnXLcRrS3yYhhLuaTbk8JRnKsUGH30zJA7DUxSWTobDeM5nRQCw4CisbHxIk0CDgPxThCVPp1HA_J892O-tlOjZLY78phqJVrlttlwfErX79vqT1DL_Jz3Hstkmtp039Ws4e_63liPQu-ZckutE_JUab_5Gpplqlum97t18YmrdroEBdfReKpjfilvHzktbfgD5dfa_0Kj5JkmKVEnnN7JHUyjrOox94VBNlA4VUfuqTsPmWz3EdEEIbsXzjyRRF3yWiNNQwp8f3mEq1juRJMf8Xrv8qHuLHMDKhkk7Sgz9bgPm-X_0m00]--></g></svg>