<?xml version="1.0" encoding="us-ascii" standalone="no"?><svg xmlns="http://www.w3.org/2000/svg" xmlns:xlink="http://www.w3.org/1999/xlink" contentStyleType="text/css" height="1319px" preserveAspectRatio="none" style="width:1647px;height:1319px;background:#FFFFFF;" version="1.1" viewBox="0 0 1647 1319" width="1647px" zoomAndPan="magnify"><defs/><g><text fill="#000000" font-family="Verdana" font-size="22" font-weight="bold" lengthAdjust="spacing" textLength="447" x="607.5" y="37.1182">Task Creation and Assignment Flow</text><rect fill="#FFFFFF" height="138.1973" style="stroke:#000000;stroke-width:1.0;" width="10" x="405" y="198.3506"/><rect fill="#FFFFFF" height="151.1973" style="stroke:#000000;stroke-width:1.0;" width="10" x="405" y="1061.3335"/><rect fill="#FFFFFF" height="722.7856" style="stroke:#000000;stroke-width:1.0;" width="10" x="809.5" y="489.7451"/><rect fill="#FFFFFF" height="249.5952" style="stroke:#000000;stroke-width:1.0;" width="10" x="1037.5" y="643.7417"/><rect fill="#FFFFFF" height="162.9966" style="stroke:#000000;stroke-width:1.0;" width="537" x="963" y="658.7417"/><line style="stroke:#000000;stroke-width:1.0;" x1="58" x2="58" y1="130.752" y2="1237.5308"/><line style="stroke:#000000;stroke-width:1.0;" x1="410" x2="410" y1="130.752" y2="1237.5308"/><line style="stroke:#000000;stroke-width:1.0;" x1="652.5" x2="652.5" y1="130.752" y2="1237.5308"/><line style="stroke:#000000;stroke-width:1.0;" x1="814.5" x2="814.5" y1="130.752" y2="1237.5308"/><line style="stroke:#000000;stroke-width:1.0;" x1="1042" x2="1042" y1="130.752" y2="1237.5308"/><line style="stroke:#000000;stroke-width:1.0;" x1="1232" x2="1232" y1="130.752" y2="1237.5308"/><line style="stroke:#000000;stroke-width:1.0;" x1="1418" x2="1418" y1="130.752" y2="1237.5308"/><line style="stroke:#000000;stroke-width:1.0;" x1="1576" x2="1576" y1="130.752" y2="1237.5308"/><text fill="#000000" font-family="Verdana" font-size="14" lengthAdjust="spacing" textLength="46" x="32" y="127.8125">Admin</text><ellipse cx="58" cy="61.7373" fill="#FFFFFF" rx="8" ry="8" style="stroke:#000000;stroke-width:1.0;"/><path d="M58,69.7373 L58,96.7373 M45,77.7373 L71,77.7373 M58,96.7373 L45,111.7373 M58,96.7373 L71,111.7373 " fill="none" style="stroke:#000000;stroke-width:1.0;"/><text fill="#000000" font-family="Verdana" font-size="14" lengthAdjust="spacing" textLength="46" x="32" y="1250.606">Admin</text><ellipse cx="58" cy="1262.5454" fill="#FFFFFF" rx="8" ry="8" style="stroke:#000000;stroke-width:1.0;"/><path d="M58,1270.5454 L58,1297.5454 M45,1278.5454 L71,1278.5454 M58,1297.5454 L45,1312.5454 M58,1297.5454 L71,1312.5454 " fill="none" style="stroke:#000000;stroke-width:1.0;"/><rect fill="#FFFFFF" height="31.0146" style="stroke:#000000;stroke-width:1.0;" width="160" x="330" y="98.7373"/><text fill="#000000" font-family="Verdana" font-size="14" lengthAdjust="spacing" textLength="146" x="337" y="119.8125">EvalAvsTaskManager</text><rect fill="#FFFFFF" height="31.0146" style="stroke:#000000;stroke-width:1.0;" width="160" x="330" y="1236.5308"/><text fill="#000000" font-family="Verdana" font-size="14" lengthAdjust="spacing" textLength="146" x="337" y="1257.606">EvalAvsTaskManager</text><rect fill="#FFFFFF" height="31.0146" style="stroke:#000000;stroke-width:1.0;" width="147" x="579.5" y="98.7373"/><text fill="#000000" font-family="Verdana" font-size="14" lengthAdjust="spacing" textLength="133" x="586.5" y="119.8125">Assignment Queue</text><rect fill="#FFFFFF" height="31.0146" style="stroke:#000000;stroke-width:1.0;" width="147" x="579.5" y="1236.5308"/><text fill="#000000" font-family="Verdana" font-size="14" lengthAdjust="spacing" textLength="133" x="586.5" y="1257.606">Assignment Queue</text><rect fill="#FFFFFF" height="31.0146" style="stroke:#000000;stroke-width:1.0;" width="76" x="776.5" y="98.7373"/><text fill="#000000" font-family="Verdana" font-size="14" lengthAdjust="spacing" textLength="62" x="783.5" y="119.8125">Operator</text><rect fill="#FFFFFF" height="31.0146" style="stroke:#000000;stroke-width:1.0;" width="76" x="776.5" y="1236.5308"/><text fill="#000000" font-family="Verdana" font-size="14" lengthAdjust="spacing" textLength="62" x="783.5" y="1257.606">Operator</text><rect fill="#FFFFFF" height="31.0146" style="stroke:#000000;stroke-width:1.0;" width="99" x="993" y="98.7373"/><text fill="#000000" font-family="Verdana" font-size="14" lengthAdjust="spacing" textLength="85" x="1000" y="119.8125">GoEvaluator</text><rect fill="#FFFFFF" height="31.0146" style="stroke:#000000;stroke-width:1.0;" width="99" x="993" y="1236.5308"/><text fill="#000000" font-family="Verdana" font-size="14" lengthAdjust="spacing" textLength="85" x="1000" y="1257.606">GoEvaluator</text><rect fill="#FFFFFF" height="31.0146" style="stroke:#000000;stroke-width:1.0;" width="167" x="1149" y="98.7373"/><text fill="#000000" font-family="Verdana" font-size="14" lengthAdjust="spacing" textLength="153" x="1156" y="119.8125">Dataset Registry (S3)</text><rect fill="#FFFFFF" height="31.0146" style="stroke:#000000;stroke-width:1.0;" width="167" x="1149" y="1236.5308"/><text fill="#000000" font-family="Verdana" font-size="14" lengthAdjust="spacing" textLength="153" x="1156" y="1257.606">Dataset Registry (S3)</text><rect fill="#FFFFFF" height="31.0146" style="stroke:#000000;stroke-width:1.0;" width="104" x="1366" y="98.7373"/><text fill="#000000" font-family="Verdana" font-size="14" lengthAdjust="spacing" textLength="90" x="1373" y="119.8125">LLM Provider</text><rect fill="#FFFFFF" height="31.0146" style="stroke:#000000;stroke-width:1.0;" width="104" x="1366" y="1236.5308"/><text fill="#000000" font-family="Verdana" font-size="14" lengthAdjust="spacing" textLength="90" x="1373" y="1257.606">LLM Provider</text><rect fill="#FFFFFF" height="31.0146" style="stroke:#000000;stroke-width:1.0;" width="113" x="1520" y="98.7373"/><text fill="#000000" font-family="Verdana" font-size="14" lengthAdjust="spacing" textLength="99" x="1527" y="119.8125">LayerLens API</text><rect fill="#FFFFFF" height="31.0146" style="stroke:#000000;stroke-width:1.0;" width="113" x="1520" y="1236.5308"/><text fill="#000000" font-family="Verdana" font-size="14" lengthAdjust="spacing" textLength="99" x="1527" y="1257.606">LayerLens API</text><rect fill="#FFFFFF" height="138.1973" style="stroke:#000000;stroke-width:1.0;" width="10" x="405" y="198.3506"/><rect fill="#FFFFFF" height="151.1973" style="stroke:#000000;stroke-width:1.0;" width="10" x="405" y="1061.3335"/><rect fill="#FFFFFF" height="722.7856" style="stroke:#000000;stroke-width:1.0;" width="10" x="809.5" y="489.7451"/><rect fill="#FFFFFF" height="249.5952" style="stroke:#000000;stroke-width:1.0;" width="10" x="1037.5" y="643.7417"/><path d="M10,145.752 L10,170.752 L1626,170.752 L1626,155.752 L1616,145.752 L10,145.752 " fill="#FFFFFF" style="stroke:#000000;stroke-width:1.0;"/><path d="M1616,145.752 L1616,155.752 L1626,155.752 L1616,145.752 " fill="#FFFFFF" style="stroke:#000000;stroke-width:1.0;"/><text fill="#000000" font-family="Verdana" font-size="13" lengthAdjust="spacing" textLength="203" x="716.5" y="163.8218">Task Creation and Assignment</text><polygon fill="#000000" points="393,194.3506,403,198.3506,393,202.3506,397,198.3506" style="stroke:#000000;stroke-width:1.0;"/><line style="stroke:#000000;stroke-width:1.5;" x1="58" x2="399" y1="198.3506" y2="198.3506"/><text fill="#000000" font-family="Verdana" font-size="13" lengthAdjust="spacing" textLength="328" x="67.5" y="193.6211">requestEval(modelName, datasetName, subsets)</text><polygon fill="#000000" points="641,224.1499,651,228.1499,641,232.1499,645,228.1499" style="stroke:#000000;stroke-width:1.0;"/><line style="stroke:#000000;stroke-width:1.5;" x1="415" x2="647" y1="228.1499" y2="228.1499"/><text fill="#000000" font-family="Verdana" font-size="13" lengthAdjust="spacing" textLength="185" x="441.5" y="223.4204">popNextAssignedOperator()</text><polygon fill="#000000" points="426,253.9492,416,257.9492,426,261.9492,422,257.9492" style="stroke:#000000;stroke-width:1.0;"/><line style="stroke:#000000;stroke-width:1.5;stroke-dasharray:2.0,2.0;" x1="420" x2="652" y1="257.9492" y2="257.9492"/><text fill="#000000" font-family="Verdana" font-size="13" lengthAdjust="spacing" textLength="117" x="475.5" y="253.2197">assignedOperator</text><line style="stroke:#000000;stroke-width:1.5;" x1="415" x2="457" y1="287.7485" y2="287.7485"/><line style="stroke:#000000;stroke-width:1.5;" x1="457" x2="457" y1="287.7485" y2="300.7485"/><line style="stroke:#000000;stroke-width:1.5;" x1="416" x2="457" y1="300.7485" y2="300.7485"/><polygon fill="#000000" points="426,296.7485,416,300.7485,426,304.7485,422,300.7485" style="stroke:#000000;stroke-width:1.0;"/><text fill="#000000" font-family="Verdana" font-size="13" lengthAdjust="spacing" textLength="132" x="422" y="283.019">Create EvalAvsTask</text><line style="stroke:#000000;stroke-width:1.5;" x1="415" x2="457" y1="335.5479" y2="335.5479"/><line style="stroke:#000000;stroke-width:1.5;" x1="457" x2="457" y1="335.5479" y2="348.5479"/><line style="stroke:#000000;stroke-width:1.5;" x1="410" x2="457" y1="348.5479" y2="348.5479"/><polygon fill="#000000" points="420,344.5479,410,348.5479,420,352.5479,416,348.5479" style="stroke:#000000;stroke-width:1.0;"/><text fill="#000000" font-family="Verdana" font-size="13" lengthAdjust="spacing" textLength="174" x="422" y="330.8184">Emit EvalRequested Event</text><line style="stroke:#000000;stroke-width:1.5;" x1="814.5" x2="856.5" y1="373.3472" y2="373.3472"/><line style="stroke:#000000;stroke-width:1.5;" x1="856.5" x2="856.5" y1="373.3472" y2="386.3472"/><line style="stroke:#000000;stroke-width:1.5;" x1="815.5" x2="856.5" y1="386.3472" y2="386.3472"/><polygon fill="#000000" points="825.5,382.3472,815.5,386.3472,825.5,390.3472,821.5,386.3472" style="stroke:#000000;stroke-width:1.0;"/><text fill="#000000" font-family="Verdana" font-size="13" lengthAdjust="spacing" textLength="214" x="821.5" y="368.6177">Listen for EvalRequested events</text><polygon fill="#000000" points="802.5,412.1465,812.5,416.1465,802.5,420.1465,806.5,416.1465" style="stroke:#000000;stroke-width:1.0;"/><line style="stroke:#000000;stroke-width:1.5;" x1="410" x2="808.5" y1="416.1465" y2="416.1465"/><text fill="#000000" font-family="Verdana" font-size="13" lengthAdjust="spacing" textLength="266" x="479.25" y="411.417">EvalRequested(taskId, task, externalId)</text><path d="M749,429.1465 L749,454.1465 L1640,454.1465 L1640,439.1465 L1630,429.1465 L749,429.1465 " fill="#FFFFFF" style="stroke:#000000;stroke-width:1.0;"/><path d="M1630,429.1465 L1630,439.1465 L1640,439.1465 L1630,429.1465 " fill="#FFFFFF" style="stroke:#000000;stroke-width:1.0;"/><text fill="#000000" font-family="Verdana" font-size="13" lengthAdjust="spacing" textLength="100" x="1144.75" y="447.2163">Task Execution</text><line style="stroke:#000000;stroke-width:1.5;" x1="814.5" x2="861.5" y1="476.7451" y2="476.7451"/><line style="stroke:#000000;stroke-width:1.5;" x1="861.5" x2="861.5" y1="476.7451" y2="489.7451"/><line style="stroke:#000000;stroke-width:1.5;" x1="820.5" x2="861.5" y1="489.7451" y2="489.7451"/><polygon fill="#000000" points="830.5,485.7451,820.5,489.7451,830.5,493.7451,826.5,489.7451" style="stroke:#000000;stroke-width:1.0;"/><text fill="#000000" font-family="Verdana" font-size="13" lengthAdjust="spacing" textLength="168" x="826.5" y="472.0156">Check if assigned to task</text><polygon fill="#000000" points="1220.5,520.5444,1230.5,524.5444,1220.5,528.5444,1224.5,524.5444" style="stroke:#000000;stroke-width:1.0;"/><line style="stroke:#000000;stroke-width:1.5;" x1="819.5" x2="1226.5" y1="524.5444" y2="524.5444"/><text fill="#000000" font-family="Verdana" font-size="13" lengthAdjust="spacing" textLength="302" x="875" y="519.8149">Fetch dataset files (formatted.jsonl + config)</text><polygon fill="#000000" points="830.5,550.3438,820.5,554.3438,830.5,558.3438,826.5,554.3438" style="stroke:#000000;stroke-width:1.0;"/><line style="stroke:#000000;stroke-width:1.5;stroke-dasharray:2.0,2.0;" x1="824.5" x2="1231.5" y1="554.3438" y2="554.3438"/><text fill="#000000" font-family="Verdana" font-size="13" lengthAdjust="spacing" textLength="131" x="960.5" y="549.6143">Return dataset files</text><polygon fill="#000000" points="1564.5,580.1431,1574.5,584.1431,1564.5,588.1431,1568.5,584.1431" style="stroke:#000000;stroke-width:1.0;"/><line style="stroke:#000000;stroke-width:1.5;" x1="819.5" x2="1570.5" y1="584.1431" y2="584.1431"/><text fill="#000000" font-family="Verdana" font-size="13" lengthAdjust="spacing" textLength="241" x="1077.5" y="579.4136">Request API Key for model provider</text><polygon fill="#000000" points="830.5,609.9424,820.5,613.9424,830.5,617.9424,826.5,613.9424" style="stroke:#000000;stroke-width:1.0;"/><line style="stroke:#000000;stroke-width:1.5;stroke-dasharray:2.0,2.0;" x1="824.5" x2="1575.5" y1="613.9424" y2="613.9424"/><text fill="#000000" font-family="Verdana" font-size="13" lengthAdjust="spacing" textLength="101" x="1147.5" y="609.2129">Return API Key</text><polygon fill="#000000" points="1025.5,639.7417,1035.5,643.7417,1025.5,647.7417,1029.5,643.7417" style="stroke:#000000;stroke-width:1.0;"/><line style="stroke:#000000;stroke-width:1.5;" x1="819.5" x2="1031.5" y1="643.7417" y2="643.7417"/><text fill="#000000" font-family="Verdana" font-size="13" lengthAdjust="spacing" textLength="126" x="865.5" y="639.0122">Execute evaluation</text><path d="M963,658.7417 L1039,658.7417 L1039,666.541 L1029,676.541 L963,676.541 L963,658.7417 " fill="#FFFFFF" style="stroke:#000000;stroke-width:1.0;"/><rect fill="none" height="162.9966" style="stroke:#000000;stroke-width:1.0;" width="537" x="963" y="658.7417"/><text fill="#000000" font-family="Verdana" font-size="13" font-weight="bold" lengthAdjust="spacing" textLength="31" x="978" y="672.8115">loop</text><text fill="#000000" font-family="Verdana" font-size="11" font-weight="bold" lengthAdjust="spacing" textLength="180" x="1054" y="671.8008">[For each prompt in dataset]</text><polygon fill="#000000" points="1406,694.3403,1416,698.3403,1406,702.3403,1410,698.3403" style="stroke:#000000;stroke-width:1.0;"/><line style="stroke:#000000;stroke-width:1.5;" x1="1047.5" x2="1412" y1="698.3403" y2="698.3403"/><text fill="#000000" font-family="Verdana" font-size="13" lengthAdjust="spacing" textLength="86" x="1189.75" y="693.6108">Send prompt</text><polygon fill="#000000" points="1058.5,724.1396,1048.5,728.1396,1058.5,732.1396,1054.5,728.1396" style="stroke:#000000;stroke-width:1.0;"/><line style="stroke:#000000;stroke-width:1.5;stroke-dasharray:2.0,2.0;" x1="1052.5" x2="1417" y1="728.1396" y2="728.1396"/><text fill="#000000" font-family="Verdana" font-size="13" lengthAdjust="spacing" textLength="109" x="1178.25" y="723.4102">Return response</text><line style="stroke:#000000;stroke-width:1.5;" x1="1047.5" x2="1089.5" y1="757.939" y2="757.939"/><line style="stroke:#000000;stroke-width:1.5;" x1="1089.5" x2="1089.5" y1="757.939" y2="770.939"/><line style="stroke:#000000;stroke-width:1.5;" x1="1048.5" x2="1089.5" y1="770.939" y2="770.939"/><polygon fill="#000000" points="1058.5,766.939,1048.5,770.939,1058.5,774.939,1054.5,770.939" style="stroke:#000000;stroke-width:1.0;"/><text fill="#000000" font-family="Verdana" font-size="13" lengthAdjust="spacing" textLength="103" x="1054.5" y="753.2095">Score response</text><line style="stroke:#000000;stroke-width:1.5;" x1="1047.5" x2="1089.5" y1="800.7383" y2="800.7383"/><line style="stroke:#000000;stroke-width:1.5;" x1="1089.5" x2="1089.5" y1="800.7383" y2="813.7383"/><line style="stroke:#000000;stroke-width:1.5;" x1="1048.5" x2="1089.5" y1="813.7383" y2="813.7383"/><polygon fill="#000000" points="1058.5,809.7383,1048.5,813.7383,1058.5,817.7383,1054.5,813.7383" style="stroke:#000000;stroke-width:1.0;"/><text fill="#000000" font-family="Verdana" font-size="13" lengthAdjust="spacing" textLength="144" x="1054.5" y="796.0088">Hash response (MD5)</text><line style="stroke:#000000;stroke-width:1.5;" x1="1047.5" x2="1089.5" y1="850.5376" y2="850.5376"/><line style="stroke:#000000;stroke-width:1.5;" x1="1089.5" x2="1089.5" y1="850.5376" y2="863.5376"/><line style="stroke:#000000;stroke-width:1.5;" x1="1048.5" x2="1089.5" y1="863.5376" y2="863.5376"/><polygon fill="#000000" points="1058.5,859.5376,1048.5,863.5376,1058.5,867.5376,1054.5,863.5376" style="stroke:#000000;stroke-width:1.0;"/><text fill="#000000" font-family="Verdana" font-size="13" lengthAdjust="spacing" textLength="166" x="1054.5" y="845.8081">Generate combined hash</text><polygon fill="#000000" points="830.5,889.3369,820.5,893.3369,830.5,897.3369,826.5,893.3369" style="stroke:#000000;stroke-width:1.0;"/><line style="stroke:#000000;stroke-width:1.5;stroke-dasharray:2.0,2.0;" x1="824.5" x2="1041.5" y1="893.3369" y2="893.3369"/><text fill="#000000" font-family="Verdana" font-size="13" lengthAdjust="spacing" textLength="159" x="851.5" y="888.6074">Return results and hash</text><polygon fill="#000000" points="1564.5,919.1362,1574.5,923.1362,1564.5,927.1362,1568.5,923.1362" style="stroke:#000000;stroke-width:1.0;"/><line style="stroke:#000000;stroke-width:1.5;" x1="819.5" x2="1570.5" y1="923.1362" y2="923.1362"/><text fill="#000000" font-family="Verdana" font-size="13" lengthAdjust="spacing" textLength="141" x="1127.5" y="918.4067">Save detailed results</text><polygon fill="#000000" points="830.5,948.9355,820.5,952.9355,830.5,956.9355,826.5,952.9355" style="stroke:#000000;stroke-width:1.0;"/><line style="stroke:#000000;stroke-width:1.5;stroke-dasharray:2.0,2.0;" x1="824.5" x2="1575.5" y1="952.9355" y2="952.9355"/><text fill="#000000" font-family="Verdana" font-size="13" lengthAdjust="spacing" textLength="89" x="1153.5" y="948.2061">Confirm save</text><path d="M749,965.9355 L749,990.9355 L1640,990.9355 L1640,975.9355 L1630,965.9355 L749,965.9355 " fill="#FFFFFF" style="stroke:#000000;stroke-width:1.0;"/><path d="M1630,965.9355 L1630,975.9355 L1640,975.9355 L1630,965.9355 " fill="#FFFFFF" style="stroke:#000000;stroke-width:1.0;"/><text fill="#000000" font-family="Verdana" font-size="13" lengthAdjust="spacing" textLength="122" x="1133.75" y="984.0054">Result Submission</text><line style="stroke:#000000;stroke-width:1.5;" x1="819.5" x2="861.5" y1="1018.5342" y2="1018.5342"/><line style="stroke:#000000;stroke-width:1.5;" x1="861.5" x2="861.5" y1="1018.5342" y2="1031.5342"/><line style="stroke:#000000;stroke-width:1.5;" x1="820.5" x2="861.5" y1="1031.5342" y2="1031.5342"/><polygon fill="#000000" points="830.5,1027.5342,820.5,1031.5342,830.5,1035.5342,826.5,1031.5342" style="stroke:#000000;stroke-width:1.0;"/><text fill="#000000" font-family="Verdana" font-size="13" lengthAdjust="spacing" textLength="158" x="826.5" y="1013.8047">Generate BLS signature</text><polygon fill="#000000" points="426,1057.3335,416,1061.3335,426,1065.3335,422,1061.3335" style="stroke:#000000;stroke-width:1.0;"/><line style="stroke:#000000;stroke-width:1.5;" x1="420" x2="808.5" y1="1061.3335" y2="1061.3335"/><text fill="#000000" font-family="Verdana" font-size="13" lengthAdjust="spacing" textLength="316" x="454.25" y="1056.604">respondToEvalRequest(taskId, hash, signature)</text><line style="stroke:#000000;stroke-width:1.5;" x1="415" x2="457" y1="1091.1328" y2="1091.1328"/><line style="stroke:#000000;stroke-width:1.5;" x1="457" x2="457" y1="1091.1328" y2="1104.1328"/><line style="stroke:#000000;stroke-width:1.5;" x1="416" x2="457" y1="1104.1328" y2="1104.1328"/><polygon fill="#000000" points="426,1100.1328,416,1104.1328,426,1108.1328,422,1104.1328" style="stroke:#000000;stroke-width:1.0;"/><text fill="#000000" font-family="Verdana" font-size="13" lengthAdjust="spacing" textLength="107" x="422" y="1086.4033">Verify signature</text><line style="stroke:#000000;stroke-width:1.5;" x1="415" x2="457" y1="1133.9321" y2="1133.9321"/><line style="stroke:#000000;stroke-width:1.5;" x1="457" x2="457" y1="1133.9321" y2="1146.9321"/><line style="stroke:#000000;stroke-width:1.5;" x1="416" x2="457" y1="1146.9321" y2="1146.9321"/><polygon fill="#000000" points="426,1142.9321,416,1146.9321,426,1150.9321,422,1146.9321" style="stroke:#000000;stroke-width:1.0;"/><text fill="#000000" font-family="Verdana" font-size="13" lengthAdjust="spacing" textLength="219" x="422" y="1129.2026">Update task state to SUBMITTED</text><polygon fill="#000000" points="641,1172.7314,651,1176.7314,641,1180.7314,645,1176.7314" style="stroke:#000000;stroke-width:1.0;"/><line style="stroke:#000000;stroke-width:1.5;" x1="415" x2="647" y1="1176.7314" y2="1176.7314"/><text fill="#000000" font-family="Verdana" font-size="13" lengthAdjust="spacing" textLength="186" x="441" y="1172.002">Add operator back to queue</text><line style="stroke:#000000;stroke-width:1.5;" x1="415" x2="457" y1="1211.5308" y2="1211.5308"/><line style="stroke:#000000;stroke-width:1.5;" x1="457" x2="457" y1="1211.5308" y2="1224.5308"/><line style="stroke:#000000;stroke-width:1.5;" x1="410" x2="457" y1="1224.5308" y2="1224.5308"/><polygon fill="#000000" points="420,1220.5308,410,1224.5308,420,1228.5308,416,1224.5308" style="stroke:#000000;stroke-width:1.0;"/><text fill="#000000" font-family="Verdana" font-size="13" lengthAdjust="spacing" textLength="176" x="422" y="1206.8013">Emit EvalCompleted Event</text><!--SRC=[ZLPDSnev4BthL_Jc4gZ5gMHTkN185SOuwrh8UZqazsRKC5fcf8ca0VFljoKOq13CcWFeu-brzsjrY_TmXqxbuFokL7ebVlC5LGHrYKeBjrQwHeiLB31Vhwnfj1oRqbZO5ifJiYzfYKtfv_JYHwLQwOgqXvo_o0hn7YOlTQbovSiTIELmKH8KgENMAkz9GsLaIfPkBR5qwPuhK9ejU_hBpi4xgyd2ns3qmTYSE32BQbLuuF389VWmzxkQm5XVc6JZ2QrdPslK_Wcb3BR- -9ZiP_Ip8PtJdNbfzpz5WpDSixt6qjuMS1YmDDhpYDTogroTq8oiDTkzcekIvJtVcXSgNpEDWqyVFWlXMJs2ERerZ2sXLqP70oFdMhqVIhCL0dFFb2DPSGBhKoZmRhB1ShHnWMA66bTatm4wIEPTVCByJqCDHNGSTN5_rsIHRSRzTjA5V3N1U7D49VCky1uzElBmJ2l5cTj1BxljnoFPRHSvdSxWoPgDaeSuUE4CWJkoKz8EHa-F4SA_GcZZEUSREcWq2Al3gy8A4P5myoKLQmWsN0JdGoYzS8NBRrZH0EG-Xlt4DGiUktv8YzgWfuxUoJYmHt67K9lwMoYaw039Lj9UNqG0t9mxWcV8SzuEE0P9aDo6g_19fNm4F- -Z9Scp88gaYo69red0r8w7CELqXdBczIuP1J9txiBfO0VTOsNNZt80uNS0B19PZUMZxATvRG-dgPsyKDw4tBxcuBYWV0rgUHGJl8bcJfaxofioPBT3U22V5stUOQbABluUXreXzp3vuLzdT0c_GsxqKgtw8hkDAJpPVYRVMDqbw1Y9SHnK21FuYtPHotZje3xKWGXR5waFPpgaIH4E3_eGfoCkHQ6EWQVbMXfJXzOAdFuYMAvg3-hel03-9FXWY2jpo5sJQseFZvXGlpVdNXoyjUHgexcxNo3huBFSS6TzC_nFTCKH3RtP_UU-OBV4jJDVIGV9k7-RQg72lIYOfNlaak9iXX_4_ICGJoJrakhvQvupt10_g1xv6iYMvq9gn-4wMNuI6N_b-Zz70iYQHQNuQhzU0ST8xwOPX1f03eGwuBFs5uIKSvEKwB50GyY34ylR-b-7_WTPjTmbZbm3Vwzbu0xM-SMFGmFPzxlPutm-kN-bpuwa1DD65_xXX4C_umFtfeuuvijSqlzsn6IvrV8_]--></g></svg>