<?xml version="1.0" encoding="us-ascii" standalone="no"?><svg xmlns="http://www.w3.org/2000/svg" xmlns:xlink="http://www.w3.org/1999/xlink" contentStyleType="text/css" height="1495px" preserveAspectRatio="none" style="width:1320px;height:1495px;background:#FFFFFF;" version="1.1" viewBox="0 0 1320 1495" width="1320px" zoomAndPan="magnify"><defs/><g><text fill="#303030" font-family="Arial" font-size="16" font-weight="bold" lengthAdjust="spacing" textLength="241" x="535.5" y="37.8516">Operator Registration Flow</text><rect fill="#F8F8F8" height="427.6875" style="stroke:#000000;stroke-width:1.0;" width="10" x="46.5" y="540.6719"/><rect fill="#F8F8F8" height="144.9063" style="stroke:#000000;stroke-width:1.0;" width="10" x="237.5" y="198.8906"/><rect fill="#F8F8F8" height="100.9375" style="stroke:#000000;stroke-width:1.0;" width="10" x="237.5" y="387.7656"/><line style="stroke:#000000;stroke-width:0.5;stroke-dasharray:5.0,5.0;" x1="51" x2="51" y1="152.9219" y2="986.3594"/><line style="stroke:#000000;stroke-width:0.5;stroke-dasharray:5.0,5.0;" x1="242" x2="242" y1="152.9219" y2="986.3594"/><line style="stroke:#000000;stroke-width:0.5;stroke-dasharray:5.0,5.0;" x1="503" x2="503" y1="152.9219" y2="986.3594"/><line style="stroke:#000000;stroke-width:0.5;stroke-dasharray:5.0,5.0;" x1="714" x2="714" y1="152.9219" y2="986.3594"/><line style="stroke:#000000;stroke-width:0.5;stroke-dasharray:5.0,5.0;" x1="958" x2="958" y1="152.9219" y2="986.3594"/><line style="stroke:#000000;stroke-width:0.5;stroke-dasharray:5.0,5.0;" x1="1194" x2="1194" y1="152.9219" y2="986.3594"/><text fill="#000000" font-family="Arial" font-size="14" font-weight="bold" lengthAdjust="spacing" textLength="71" x="13" y="141.6201">Operator</text><ellipse cx="51.5" cy="69.125" fill="#FFFFFF" rx="8" ry="8" style="stroke:#454545;stroke-width:0.5;"/><path d="M51.5,77.125 L51.5,104.125 M38.5,85.125 L64.5,85.125 M51.5,104.125 L38.5,119.125 M51.5,104.125 L64.5,119.125 " fill="none" style="stroke:#454545;stroke-width:0.5;"/><text fill="#000000" font-family="Arial" font-size="14" font-weight="bold" lengthAdjust="spacing" textLength="71" x="13" y="1006.3545">Operator</text><ellipse cx="51.5" cy="1026.1563" fill="#FFFFFF" rx="8" ry="8" style="stroke:#454545;stroke-width:0.5;"/><path d="M51.5,1034.1563 L51.5,1061.1563 M38.5,1042.1563 L64.5,1042.1563 M51.5,1061.1563 L38.5,1076.1563 M51.5,1061.1563 L64.5,1076.1563 " fill="none" style="stroke:#454545;stroke-width:0.5;"/><rect fill="#EBF5FB" height="56.7734" rx="4" ry="4" style="stroke:#3498DB;stroke-width:2.0;" width="123" x="181" y="95.1484"/><text fill="#000000" font-family="Arial" font-size="10" font-weight="bold" lengthAdjust="spacing" textLength="31" x="227" y="119.4307">&#171;API&#187;</text><text fill="#000000" font-family="Arial" font-size="13" font-weight="bold" lengthAdjust="spacing" textLength="93" x="196" y="133.856">Operator CLI</text><rect fill="#EBF5FB" height="56.7734" rx="4" ry="4" style="stroke:#3498DB;stroke-width:2.0;" width="123" x="181" y="985.3594"/><text fill="#000000" font-family="Arial" font-size="10" font-weight="bold" lengthAdjust="spacing" textLength="31" x="227" y="1009.6416">&#171;API&#187;</text><text fill="#000000" font-family="Arial" font-size="13" font-weight="bold" lengthAdjust="spacing" textLength="93" x="196" y="1024.0669">Operator CLI</text><rect fill="#F5EEF8" height="56.7734" rx="4" ry="4" style="stroke:#76448A;stroke-width:2.0;" width="117" x="445" y="95.1484"/><text fill="#000000" font-family="Arial" font-size="10" font-weight="bold" lengthAdjust="spacing" textLength="57" x="475" y="119.4307">&#171;Storage&#187;</text><text fill="#000000" font-family="Arial" font-size="13" font-weight="bold" lengthAdjust="spacing" textLength="87" x="460" y="133.856">Config Files</text><rect fill="#F5EEF8" height="56.7734" rx="4" ry="4" style="stroke:#76448A;stroke-width:2.0;" width="117" x="445" y="985.3594"/><text fill="#000000" font-family="Arial" font-size="10" font-weight="bold" lengthAdjust="spacing" textLength="57" x="475" y="1009.6416">&#171;Storage&#187;</text><text fill="#000000" font-family="Arial" font-size="13" font-weight="bold" lengthAdjust="spacing" textLength="87" x="460" y="1024.0669">Config Files</text><rect fill="#FADBD8" height="56.7734" rx="4" ry="4" style="stroke:#943126;stroke-width:2.0;" width="204" x="612" y="95.1484"/><text fill="#000000" font-family="Arial" font-size="10" font-weight="bold" lengthAdjust="spacing" textLength="61" x="683.5" y="119.4307">&#171;Contract&#187;</text><text fill="#000000" font-family="Arial" font-size="13" font-weight="bold" lengthAdjust="spacing" textLength="174" x="627" y="133.856">EvalAvsServiceManager</text><rect fill="#FADBD8" height="56.7734" rx="4" ry="4" style="stroke:#943126;stroke-width:2.0;" width="204" x="612" y="985.3594"/><text fill="#000000" font-family="Arial" font-size="10" font-weight="bold" lengthAdjust="spacing" textLength="61" x="683.5" y="1009.6416">&#171;Contract&#187;</text><text fill="#000000" font-family="Arial" font-size="13" font-weight="bold" lengthAdjust="spacing" textLength="174" x="627" y="1024.0669">EvalAvsServiceManager</text><rect fill="#FADBD8" height="56.7734" rx="4" ry="4" style="stroke:#943126;stroke-width:2.0;" width="185" x="866" y="95.1484"/><text fill="#000000" font-family="Arial" font-size="10" font-weight="bold" lengthAdjust="spacing" textLength="61" x="928" y="119.4307">&#171;Contract&#187;</text><text fill="#000000" font-family="Arial" font-size="13" font-weight="bold" lengthAdjust="spacing" textLength="155" x="881" y="133.856">EvalAvsTaskManager</text><rect fill="#FADBD8" height="56.7734" rx="4" ry="4" style="stroke:#943126;stroke-width:2.0;" width="185" x="866" y="985.3594"/><text fill="#000000" font-family="Arial" font-size="10" font-weight="bold" lengthAdjust="spacing" textLength="61" x="928" y="1009.6416">&#171;Contract&#187;</text><text fill="#000000" font-family="Arial" font-size="13" font-weight="bold" lengthAdjust="spacing" textLength="155" x="881" y="1024.0669">EvalAvsTaskManager</text><rect fill="#FADBD8" height="56.7734" rx="4" ry="4" style="stroke:#943126;stroke-width:2.0;" width="187" x="1101" y="95.1484"/><text fill="#000000" font-family="Arial" font-size="10" font-weight="bold" lengthAdjust="spacing" textLength="61" x="1164" y="119.4307">&#171;Contract&#187;</text><text fill="#000000" font-family="Arial" font-size="13" font-weight="bold" lengthAdjust="spacing" textLength="157" x="1116" y="133.856">EigenLayer Contracts</text><rect fill="#FADBD8" height="56.7734" rx="4" ry="4" style="stroke:#943126;stroke-width:2.0;" width="187" x="1101" y="985.3594"/><text fill="#000000" font-family="Arial" font-size="10" font-weight="bold" lengthAdjust="spacing" textLength="61" x="1164" y="1009.6416">&#171;Contract&#187;</text><text fill="#000000" font-family="Arial" font-size="13" font-weight="bold" lengthAdjust="spacing" textLength="157" x="1116" y="1024.0669">EigenLayer Contracts</text><rect fill="#F8F8F8" height="427.6875" style="stroke:#000000;stroke-width:1.0;" width="10" x="46.5" y="540.6719"/><rect fill="#F8F8F8" height="144.9063" style="stroke:#000000;stroke-width:1.0;" width="10" x="237.5" y="198.8906"/><rect fill="#F8F8F8" height="100.9375" style="stroke:#000000;stroke-width:1.0;" width="10" x="237.5" y="387.7656"/><polygon fill="#000000" points="225.5,194.8906,235.5,198.8906,225.5,202.8906,229.5,198.8906" style="stroke:#000000;stroke-width:1.0;"/><line style="stroke:#000000;stroke-width:1.5;" x1="51.5" x2="231.5" y1="198.8906" y2="198.8906"/><text fill="#000000" font-family="Arial" font-size="12" lengthAdjust="spacing" textLength="21" x="90" y="186.0605">run</text><text fill="#000000" font-family="Arial" font-size="12" lengthAdjust="spacing" textLength="4" x="111" y="186.0605">&#160;</text><text fill="#000000" font-family="Arial" font-size="12" lengthAdjust="spacing" textLength="19" x="115" y="186.0605">init</text><text fill="#000000" font-family="Arial" font-size="12" lengthAdjust="spacing" textLength="4" x="134" y="186.0605">&#160;</text><text fill="#000000" font-family="Arial" font-size="12" lengthAdjust="spacing" textLength="61" x="138" y="186.0605">command</text><line style="stroke:#000000;stroke-width:1.5;" x1="247.5" x2="289.5" y1="242.8594" y2="242.8594"/><line style="stroke:#000000;stroke-width:1.5;" x1="289.5" x2="289.5" y1="242.8594" y2="255.8594"/><line style="stroke:#000000;stroke-width:1.5;" x1="248.5" x2="289.5" y1="255.8594" y2="255.8594"/><polygon fill="#000000" points="258.5,251.8594,248.5,255.8594,258.5,259.8594,254.5,255.8594" style="stroke:#000000;stroke-width:1.0;"/><text fill="#000000" font-family="Arial" font-size="12" lengthAdjust="spacing" textLength="90" x="262.5" y="230.0293">Generate/load</text><text fill="#000000" font-family="Arial" font-size="12" lengthAdjust="spacing" textLength="4" x="352.5" y="230.0293">&#160;</text><text fill="#000000" font-family="Arial" font-size="12" lengthAdjust="spacing" textLength="41" x="356.5" y="230.0293">ECDSA</text><text fill="#000000" font-family="Arial" font-size="12" lengthAdjust="spacing" textLength="4" x="397.5" y="230.0293">&#160;</text><text fill="#000000" font-family="Arial" font-size="12" lengthAdjust="spacing" textLength="24" x="401.5" y="230.0293">and</text><text fill="#000000" font-family="Arial" font-size="12" lengthAdjust="spacing" textLength="4" x="425.5" y="230.0293">&#160;</text><text fill="#000000" font-family="Arial" font-size="12" lengthAdjust="spacing" textLength="22" x="429.5" y="230.0293">BLS</text><text fill="#000000" font-family="Arial" font-size="12" lengthAdjust="spacing" textLength="4" x="451.5" y="230.0293">&#160;</text><text fill="#000000" font-family="Arial" font-size="12" lengthAdjust="spacing" textLength="28" x="455.5" y="230.0293">keys</text><polygon fill="#000000" points="491.5,295.8281,501.5,299.8281,491.5,303.8281,495.5,299.8281" style="stroke:#000000;stroke-width:1.0;"/><line style="stroke:#000000;stroke-width:1.5;" x1="247.5" x2="497.5" y1="299.8281" y2="299.8281"/><text fill="#000000" font-family="Arial" font-size="12" lengthAdjust="spacing" textLength="42" x="319" y="286.998">Create</text><text fill="#000000" font-family="Arial" font-size="12" lengthAdjust="spacing" textLength="4" x="361" y="286.998">&#160;</text><text fill="#000000" font-family="Arial" font-size="12" lengthAdjust="spacing" textLength="38" x="365" y="286.998">config</text><text fill="#000000" font-family="Arial" font-size="12" lengthAdjust="spacing" textLength="4" x="403" y="286.998">&#160;</text><text fill="#000000" font-family="Arial" font-size="12" lengthAdjust="spacing" textLength="25" x="407" y="286.998">files</text><polygon fill="#000000" points="62.5,339.7969,52.5,343.7969,62.5,347.7969,58.5,343.7969" style="stroke:#000000;stroke-width:1.0;"/><line style="stroke:#000000;stroke-width:1.5;stroke-dasharray:2.0,2.0;" x1="56.5" x2="241.5" y1="343.7969" y2="343.7969"/><text fill="#000000" font-family="Arial" font-size="12" lengthAdjust="spacing" textLength="84" x="74" y="330.9668">Configuration</text><text fill="#000000" font-family="Arial" font-size="12" lengthAdjust="spacing" textLength="4" x="158" y="330.9668">&#160;</text><text fill="#000000" font-family="Arial" font-size="12" lengthAdjust="spacing" textLength="58" x="162" y="330.9668">complete</text><polygon fill="#000000" points="225.5,383.7656,235.5,387.7656,225.5,391.7656,229.5,387.7656" style="stroke:#000000;stroke-width:1.0;"/><line style="stroke:#000000;stroke-width:1.5;" x1="51.5" x2="231.5" y1="387.7656" y2="387.7656"/><text fill="#000000" font-family="Arial" font-size="12" lengthAdjust="spacing" textLength="21" x="90.5" y="374.9355">run</text><text fill="#000000" font-family="Arial" font-size="12" lengthAdjust="spacing" textLength="4" x="111.5" y="374.9355">&#160;</text><text fill="#000000" font-family="Arial" font-size="12" lengthAdjust="spacing" textLength="43" x="115.5" y="374.9355">docker</text><text fill="#000000" font-family="Arial" font-size="12" lengthAdjust="spacing" textLength="4" x="158.5" y="374.9355">&#160;</text><text fill="#000000" font-family="Arial" font-size="12" lengthAdjust="spacing" textLength="36" x="162.5" y="374.9355">setup</text><line style="stroke:#000000;stroke-width:1.5;" x1="247.5" x2="289.5" y1="431.7344" y2="431.7344"/><line style="stroke:#000000;stroke-width:1.5;" x1="289.5" x2="289.5" y1="431.7344" y2="444.7344"/><line style="stroke:#000000;stroke-width:1.5;" x1="248.5" x2="289.5" y1="444.7344" y2="444.7344"/><polygon fill="#000000" points="258.5,440.7344,248.5,444.7344,258.5,448.7344,254.5,444.7344" style="stroke:#000000;stroke-width:1.0;"/><text fill="#000000" font-family="Arial" font-size="12" lengthAdjust="spacing" textLength="59" x="262.5" y="418.9043">Generate</text><text fill="#000000" font-family="Arial" font-size="12" lengthAdjust="spacing" textLength="4" x="321.5" y="418.9043">&#160;</text><text fill="#000000" font-family="Arial" font-size="12" lengthAdjust="spacing" textLength="104" x="325.5" y="418.9043">docker-compose</text><text fill="#000000" font-family="Arial" font-size="12" lengthAdjust="spacing" textLength="4" x="429.5" y="418.9043">&#160;</text><text fill="#000000" font-family="Arial" font-size="12" lengthAdjust="spacing" textLength="25" x="433.5" y="418.9043">files</text><polygon fill="#000000" points="62.5,484.7031,52.5,488.7031,62.5,492.7031,58.5,488.7031" style="stroke:#000000;stroke-width:1.0;"/><line style="stroke:#000000;stroke-width:1.5;stroke-dasharray:2.0,2.0;" x1="56.5" x2="241.5" y1="488.7031" y2="488.7031"/><text fill="#000000" font-family="Arial" font-size="12" lengthAdjust="spacing" textLength="44" x="74" y="475.873">Docker</text><text fill="#000000" font-family="Arial" font-size="12" lengthAdjust="spacing" textLength="4" x="118" y="475.873">&#160;</text><text fill="#000000" font-family="Arial" font-size="12" lengthAdjust="spacing" textLength="36" x="122" y="475.873">setup</text><text fill="#000000" font-family="Arial" font-size="12" lengthAdjust="spacing" textLength="4" x="158" y="475.873">&#160;</text><text fill="#000000" font-family="Arial" font-size="12" lengthAdjust="spacing" textLength="58" x="162" y="475.873">complete</text><line style="stroke:#000000;stroke-width:1.5;" x1="51.5" x2="98.5" y1="527.6719" y2="527.6719"/><line style="stroke:#000000;stroke-width:1.5;" x1="98.5" x2="98.5" y1="527.6719" y2="540.6719"/><line style="stroke:#000000;stroke-width:1.5;" x1="57.5" x2="98.5" y1="540.6719" y2="540.6719"/><polygon fill="#000000" points="67.5,536.6719,57.5,540.6719,67.5,544.6719,63.5,540.6719" style="stroke:#000000;stroke-width:1.0;"/><text fill="#000000" font-family="Arial" font-size="12" lengthAdjust="spacing" textLength="31" x="71.5" y="514.8418">Start</text><text fill="#000000" font-family="Arial" font-size="12" lengthAdjust="spacing" textLength="4" x="102.5" y="514.8418">&#160;</text><text fill="#000000" font-family="Arial" font-size="12" lengthAdjust="spacing" textLength="55" x="106.5" y="514.8418">operator</text><text fill="#000000" font-family="Arial" font-size="12" lengthAdjust="spacing" textLength="4" x="161.5" y="514.8418">&#160;</text><text fill="#000000" font-family="Arial" font-size="12" lengthAdjust="spacing" textLength="32" x="165.5" y="514.8418">node</text><polygon fill="#000000" points="1182.5,599.6094,1192.5,603.6094,1182.5,607.6094,1186.5,603.6094" style="stroke:#000000;stroke-width:1.0;"/><line style="stroke:#000000;stroke-width:1.5;" x1="56.5" x2="1188.5" y1="603.6094" y2="603.6094"/><text fill="#000000" font-family="Arial" font-size="12" lengthAdjust="spacing" textLength="52" x="508" y="576.8105">Register</text><text fill="#000000" font-family="Arial" font-size="12" lengthAdjust="spacing" textLength="4" x="560" y="576.8105">&#160;</text><text fill="#000000" font-family="Arial" font-size="12" lengthAdjust="spacing" textLength="25" x="564" y="576.8105">with</text><text fill="#000000" font-family="Arial" font-size="12" lengthAdjust="spacing" textLength="4" x="589" y="576.8105">&#160;</text><text fill="#000000" font-family="Arial" font-size="12" lengthAdjust="spacing" textLength="68" x="593" y="576.8105">EigenLayer</text><text fill="#000000" font-family="Arial" font-size="12" lengthAdjust="spacing" textLength="4" x="661" y="576.8105">&#160;</text><text fill="#000000" font-family="Arial" font-size="12" lengthAdjust="spacing" textLength="78" x="665" y="576.8105">(ECDSA+BLS</text><text fill="#000000" font-family="Arial" font-size="12" lengthAdjust="spacing" textLength="33" x="609" y="590.7793">keys)</text><polygon fill="#000000" points="67.5,643.5781,57.5,647.5781,67.5,651.5781,63.5,647.5781" style="stroke:#000000;stroke-width:1.0;"/><line style="stroke:#000000;stroke-width:1.5;stroke-dasharray:2.0,2.0;" x1="61.5" x2="1193.5" y1="647.5781" y2="647.5781"/><text fill="#000000" font-family="Arial" font-size="12" lengthAdjust="spacing" textLength="76" x="554.5" y="634.748">Registration</text><text fill="#000000" font-family="Arial" font-size="12" lengthAdjust="spacing" textLength="4" x="630.5" y="634.748">&#160;</text><text fill="#000000" font-family="Arial" font-size="12" lengthAdjust="spacing" textLength="62" x="634.5" y="634.748">confirmed</text><polygon fill="#000000" points="702,687.5469,712,691.5469,702,695.5469,706,691.5469" style="stroke:#000000;stroke-width:1.0;"/><line style="stroke:#000000;stroke-width:1.5;" x1="56.5" x2="708" y1="691.5469" y2="691.5469"/><text fill="#000000" font-family="Arial" font-size="12" lengthAdjust="spacing" textLength="52" x="269.75" y="678.7168">Register</text><text fill="#000000" font-family="Arial" font-size="12" lengthAdjust="spacing" textLength="4" x="321.75" y="678.7168">&#160;</text><text fill="#000000" font-family="Arial" font-size="12" lengthAdjust="spacing" textLength="25" x="325.75" y="678.7168">with</text><text fill="#000000" font-family="Arial" font-size="12" lengthAdjust="spacing" textLength="4" x="350.75" y="678.7168">&#160;</text><text fill="#000000" font-family="Arial" font-size="12" lengthAdjust="spacing" textLength="146" x="354.75" y="678.7168">EvalAvsServiceManager</text><polygon fill="#000000" points="1182.5,731.5156,1192.5,735.5156,1182.5,739.5156,1186.5,735.5156" style="stroke:#000000;stroke-width:1.0;"/><line style="stroke:#000000;stroke-width:1.5;" x1="714" x2="1188.5" y1="735.5156" y2="735.5156"/><text fill="#000000" font-family="Arial" font-size="12" lengthAdjust="spacing" textLength="34" x="898.75" y="722.6855">Verify</text><text fill="#000000" font-family="Arial" font-size="12" lengthAdjust="spacing" textLength="4" x="932.75" y="722.6855">&#160;</text><text fill="#000000" font-family="Arial" font-size="12" lengthAdjust="spacing" textLength="73" x="936.75" y="722.6855">registration</text><polygon fill="#000000" points="725,775.4844,715,779.4844,725,783.4844,721,779.4844" style="stroke:#000000;stroke-width:1.0;"/><line style="stroke:#000000;stroke-width:1.5;stroke-dasharray:2.0,2.0;" x1="719" x2="1193.5" y1="779.4844" y2="779.4844"/><text fill="#000000" font-family="Arial" font-size="12" lengthAdjust="spacing" textLength="47" x="892.25" y="766.6543">Confirm</text><text fill="#000000" font-family="Arial" font-size="12" lengthAdjust="spacing" textLength="4" x="939.25" y="766.6543">&#160;</text><text fill="#000000" font-family="Arial" font-size="12" lengthAdjust="spacing" textLength="73" x="943.25" y="766.6543">registration</text><polygon fill="#000000" points="67.5,819.4531,57.5,823.4531,67.5,827.4531,63.5,823.4531" style="stroke:#000000;stroke-width:1.0;"/><line style="stroke:#000000;stroke-width:1.5;stroke-dasharray:2.0,2.0;" x1="61.5" x2="713" y1="823.4531" y2="823.4531"/><text fill="#000000" font-family="Arial" font-size="12" lengthAdjust="spacing" textLength="24" x="301.75" y="810.623">AVS</text><text fill="#000000" font-family="Arial" font-size="12" lengthAdjust="spacing" textLength="4" x="325.75" y="810.623">&#160;</text><text fill="#000000" font-family="Arial" font-size="12" lengthAdjust="spacing" textLength="73" x="329.75" y="810.623">registration</text><text fill="#000000" font-family="Arial" font-size="12" lengthAdjust="spacing" textLength="4" x="402.75" y="810.623">&#160;</text><text fill="#000000" font-family="Arial" font-size="12" lengthAdjust="spacing" textLength="62" x="406.75" y="810.623">confirmed</text><polygon fill="#000000" points="946.5,863.4219,956.5,867.4219,946.5,871.4219,950.5,867.4219" style="stroke:#000000;stroke-width:1.0;"/><line style="stroke:#000000;stroke-width:1.5;" x1="56.5" x2="952.5" y1="867.4219" y2="867.4219"/><text fill="#000000" font-family="Arial" font-size="12" lengthAdjust="spacing" textLength="146" x="434.5" y="854.5918">joinAssignmentQueue()</text><line style="stroke:#000000;stroke-width:1.5;" x1="958.5" x2="1000.5" y1="911.3906" y2="911.3906"/><line style="stroke:#000000;stroke-width:1.5;" x1="1000.5" x2="1000.5" y1="911.3906" y2="924.3906"/><line style="stroke:#000000;stroke-width:1.5;" x1="959.5" x2="1000.5" y1="924.3906" y2="924.3906"/><polygon fill="#000000" points="969.5,920.3906,959.5,924.3906,969.5,928.3906,965.5,924.3906" style="stroke:#000000;stroke-width:1.0;"/><text fill="#000000" font-family="Arial" font-size="12" lengthAdjust="spacing" textLength="24" x="973.5" y="898.5605">Add</text><text fill="#000000" font-family="Arial" font-size="12" lengthAdjust="spacing" textLength="4" x="997.5" y="898.5605">&#160;</text><text fill="#000000" font-family="Arial" font-size="12" lengthAdjust="spacing" textLength="55" x="1001.5" y="898.5605">operator</text><text fill="#000000" font-family="Arial" font-size="12" lengthAdjust="spacing" textLength="4" x="1056.5" y="898.5605">&#160;</text><text fill="#000000" font-family="Arial" font-size="12" lengthAdjust="spacing" textLength="13" x="1060.5" y="898.5605">to</text><text fill="#000000" font-family="Arial" font-size="12" lengthAdjust="spacing" textLength="4" x="1073.5" y="898.5605">&#160;</text><text fill="#000000" font-family="Arial" font-size="12" lengthAdjust="spacing" textLength="40" x="1077.5" y="898.5605">queue</text><polygon fill="#000000" points="62.5,964.3594,52.5,968.3594,62.5,972.3594,58.5,968.3594" style="stroke:#000000;stroke-width:1.0;"/><line style="stroke:#000000;stroke-width:1.5;stroke-dasharray:2.0,2.0;" x1="56.5" x2="957.5" y1="968.3594" y2="968.3594"/><text fill="#000000" font-family="Arial" font-size="12" lengthAdjust="spacing" textLength="76" x="424" y="955.5293">Successfully</text><text fill="#000000" font-family="Arial" font-size="12" lengthAdjust="spacing" textLength="4" x="500" y="955.5293">&#160;</text><text fill="#000000" font-family="Arial" font-size="12" lengthAdjust="spacing" textLength="38" x="504" y="955.5293">joined</text><text fill="#000000" font-family="Arial" font-size="12" lengthAdjust="spacing" textLength="4" x="542" y="955.5293">&#160;</text><text fill="#000000" font-family="Arial" font-size="12" lengthAdjust="spacing" textLength="40" x="546" y="955.5293">queue</text><rect fill="none" height="385.2656" id="_legend" rx="4" ry="4" style="stroke:#000000;stroke-width:1.0;" width="383" x="917" y="1090.6563"/><text fill="#000000" font-family="Arial" font-size="14" font-weight="bold" lengthAdjust="spacing" textLength="88" x="943" y="1126.6514">Entity Type</text><text fill="#000000" font-family="Arial" font-size="14" font-weight="bold" lengthAdjust="spacing" textLength="90" x="1057" y="1126.6514">Description</text><rect fill="#E9F7EF" height="32.2969" style="stroke:none;stroke-width:1.0;" width="114" x="930" y="1137.9531"/><text fill="#000000" font-family="Arial" font-size="14" lengthAdjust="spacing" textLength="4" x="938" y="1158.9482">&#160;</text><text fill="#000000" font-family="Arial" font-size="14" lengthAdjust="spacing" textLength="219" x="1056" y="1158.9482">Frontend - Web/UI Components</text><rect fill="#EBF5FB" height="32.2969" style="stroke:none;stroke-width:1.0;" width="114" x="930" y="1170.25"/><text fill="#000000" font-family="Arial" font-size="14" lengthAdjust="spacing" textLength="4" x="938" y="1191.2451">&#160;</text><text fill="#000000" font-family="Arial" font-size="14" lengthAdjust="spacing" textLength="157" x="1056" y="1191.2451">API - Backend Services</text><rect fill="#F9EBEA" height="32.2969" style="stroke:none;stroke-width:1.0;" width="114" x="930" y="1202.5469"/><text fill="#000000" font-family="Arial" font-size="14" lengthAdjust="spacing" textLength="4" x="938" y="1223.542">&#160;</text><text fill="#000000" font-family="Arial" font-size="14" lengthAdjust="spacing" textLength="207" x="1056" y="1223.542">Auth - Authentication Services</text><rect fill="#F4ECF7" height="32.2969" style="stroke:none;stroke-width:1.0;" width="114" x="930" y="1234.8438"/><text fill="#000000" font-family="Arial" font-size="14" lengthAdjust="spacing" textLength="4" x="938" y="1255.8389">&#160;</text><text fill="#000000" font-family="Arial" font-size="14" lengthAdjust="spacing" textLength="169" x="1056" y="1255.8389">Database - Data Storage</text><rect fill="#FEF9E7" height="32.2969" style="stroke:none;stroke-width:1.0;" width="114" x="930" y="1267.1406"/><text fill="#000000" font-family="Arial" font-size="14" lengthAdjust="spacing" textLength="4" x="938" y="1288.1357">&#160;</text><text fill="#000000" font-family="Arial" font-size="14" lengthAdjust="spacing" textLength="191" x="1056" y="1288.1357">External - 3rd Party Services</text><rect fill="#FADBD8" height="32.2969" style="stroke:none;stroke-width:1.0;" width="114" x="930" y="1299.4375"/><text fill="#000000" font-family="Arial" font-size="14" lengthAdjust="spacing" textLength="4" x="938" y="1320.4326">&#160;</text><text fill="#000000" font-family="Arial" font-size="14" lengthAdjust="spacing" textLength="183" x="1056" y="1320.4326">Contract - Smart Contracts</text><rect fill="#FCF3CF" height="32.2969" style="stroke:none;stroke-width:1.0;" width="114" x="930" y="1331.7344"/><text fill="#000000" font-family="Arial" font-size="14" lengthAdjust="spacing" textLength="4" x="938" y="1352.7295">&#160;</text><text fill="#000000" font-family="Arial" font-size="14" lengthAdjust="spacing" textLength="182" x="1056" y="1352.7295">Queue - Message Queues</text><rect fill="#D6EAF8" height="32.2969" style="stroke:none;stroke-width:1.0;" width="114" x="930" y="1364.0313"/><text fill="#000000" font-family="Arial" font-size="14" lengthAdjust="spacing" textLength="4" x="938" y="1385.0264">&#160;</text><text fill="#000000" font-family="Arial" font-size="14" lengthAdjust="spacing" textLength="182" x="1056" y="1385.0264">Operator - Validator Nodes</text><rect fill="#D4EFDF" height="32.2969" style="stroke:none;stroke-width:1.0;" width="114" x="930" y="1396.3281"/><text fill="#000000" font-family="Arial" font-size="14" lengthAdjust="spacing" textLength="4" x="938" y="1417.3232">&#160;</text><text fill="#000000" font-family="Arial" font-size="14" lengthAdjust="spacing" textLength="208" x="1056" y="1417.3232">Evaluator - Evaluation Services</text><rect fill="#F5EEF8" height="32.2969" style="stroke:none;stroke-width:1.0;" width="114" x="930" y="1428.625"/><text fill="#000000" font-family="Arial" font-size="14" lengthAdjust="spacing" textLength="4" x="938" y="1449.6201">&#160;</text><text fill="#000000" font-family="Arial" font-size="14" lengthAdjust="spacing" textLength="183" x="1056" y="1449.6201">Storage - Storage Services</text><line style="stroke:#000000;stroke-width:1.0;" x1="930" x2="1287" y1="1105.6563" y2="1105.6563"/><line style="stroke:#000000;stroke-width:1.0;" x1="930" x2="1287" y1="1137.9531" y2="1137.9531"/><line style="stroke:#000000;stroke-width:1.0;" x1="930" x2="1287" y1="1170.25" y2="1170.25"/><line style="stroke:#000000;stroke-width:1.0;" x1="930" x2="1287" y1="1202.5469" y2="1202.5469"/><line style="stroke:#000000;stroke-width:1.0;" x1="930" x2="1287" y1="1234.8438" y2="1234.8438"/><line style="stroke:#000000;stroke-width:1.0;" x1="930" x2="1287" y1="1267.1406" y2="1267.1406"/><line style="stroke:#000000;stroke-width:1.0;" x1="930" x2="1287" y1="1299.4375" y2="1299.4375"/><line style="stroke:#000000;stroke-width:1.0;" x1="930" x2="1287" y1="1331.7344" y2="1331.7344"/><line style="stroke:#000000;stroke-width:1.0;" x1="930" x2="1287" y1="1364.0313" y2="1364.0313"/><line style="stroke:#000000;stroke-width:1.0;" x1="930" x2="1287" y1="1396.3281" y2="1396.3281"/><line style="stroke:#000000;stroke-width:1.0;" x1="930" x2="1287" y1="1428.625" y2="1428.625"/><line style="stroke:#000000;stroke-width:1.0;" x1="930" x2="1287" y1="1460.9219" y2="1460.9219"/><line style="stroke:#000000;stroke-width:1.0;" x1="930" x2="930" y1="1105.6563" y2="1460.9219"/><line style="stroke:#000000;stroke-width:1.0;" x1="1044" x2="1044" y1="1105.6563" y2="1460.9219"/><line style="stroke:#000000;stroke-width:1.0;" x1="1287" x2="1287" y1="1105.6563" y2="1460.9219"/><!--SRC=[ZLH1Rjim4Bpp5TjScg1msXJenJ0CA4vI173GD0fo9yYLl3L5AYHbrtrzAScoIJLkUp1iQsPsXxDBlICjL2CHXAageoVExnHUrasb67iF3voq3nzmfa9mDGegI81ed3SL_UAUZ7PG60j-HGuayTBoYharwPg7Nw18ez_L2CRwbOc0Hsuz2QgvzezSIj8bVFuKuJc-DgW5NfkV0tuLuvcrPlky8h7Mw1nSNNvXp9DN2DzgjDm7IqzOalEsCmbtocmPuw851WQhZoRWxA1RBE_FWBls6sQpxF5-Fa-P2wCBAk6E5BgUsJ-OpVAWvoME1RSRhhADoz5kIE03ru5ZEsNwA5G8fO9buK-KUEPk7UkZ_tyJKubwoNU1D51wun6Gg1axf36Pjq5CmJOQI9Fl5eLhsMP96-wnXLcRrS3yYhhLuaTbk8JRnKsUGH30zJA7DUxSWTobDeM5nRQCw4CisbHxIk0CDgPxThCVPp1HA_J892O-tlOjZLY78phqJVrlttlwfErX79vqT1DL_Jz3Hstkmtp039Ws4e_63liPQu-ZckutE_JUab_5Gpplqlum97t18YmrdroEBdfReKpjfilvHzktbfgD5dfa_0Kj5JkmKVEnnN7JHUyjrOox94VBNlA4VUfuqTsPmWz3EdEEIbsXzjyRRF3yWiNNQwp8f3mEq1juRJMf8Xrv8qHuLHMDKhkk7Sgz9bgPm-X_0m00]--></g></svg>