<?xml version="1.0" encoding="us-ascii" standalone="no"?><svg xmlns="http://www.w3.org/2000/svg" xmlns:xlink="http://www.w3.org/1999/xlink" contentStyleType="text/css" height="1051px" preserveAspectRatio="none" style="width:1140px;height:1051px;background:#FFFFFF;" version="1.1" viewBox="0 0 1140 1051" width="1140px" zoomAndPan="magnify"><defs/><g><text fill="#000000" font-family="Arial" font-size="14" font-weight="bold" lengthAdjust="spacing" textLength="185" x="486.5" y="28.1318">Operator Registration Flow</text><rect fill="#FFFFFF" height="278.5386" style="stroke:#181818;stroke-width:1.0;" width="10" x="60.5" y="420.7358"/><rect fill="#FFFFFF" height="99.8462" style="stroke:#181818;stroke-width:1.0;" width="10" x="223.5" y="184.0947"/><rect fill="#FFFFFF" height="70.8975" style="stroke:#181818;stroke-width:1.0;" width="10" x="223.5" y="312.8896"/><line style="stroke:#181818;stroke-width:0.5;stroke-dasharray:5.0,5.0;" x1="65" x2="65" y1="118.1973" y2="752.2231"/><line style="stroke:#181818;stroke-width:0.5;stroke-dasharray:5.0,5.0;" x1="228" x2="228" y1="118.1973" y2="752.2231"/><line style="stroke:#181818;stroke-width:0.5;stroke-dasharray:5.0,5.0;" x1="468" x2="468" y1="118.1973" y2="752.2231"/><line style="stroke:#181818;stroke-width:0.5;stroke-dasharray:5.0,5.0;" x1="647" x2="647" y1="118.1973" y2="752.2231"/><line style="stroke:#181818;stroke-width:0.5;stroke-dasharray:5.0,5.0;" x1="857" x2="857" y1="118.1973" y2="752.2231"/><line style="stroke:#181818;stroke-width:0.5;stroke-dasharray:5.0,5.0;" x1="1058" x2="1058" y1="118.1973" y2="752.2231"/><text fill="#000000" font-family="Arial" font-size="14" lengthAdjust="spacing" textLength="57" x="34" y="115.2305">Operator</text><ellipse cx="65.5" cy="50.5986" fill="#E2E2F0" rx="8" ry="8" style="stroke:#181818;stroke-width:0.5;"/><path d="M65.5,58.5986 L65.5,85.5986 M52.5,66.5986 L78.5,66.5986 M65.5,85.5986 L52.5,100.5986 M65.5,85.5986 L78.5,100.5986 " fill="none" style="stroke:#181818;stroke-width:0.5;"/><text fill="#000000" font-family="Arial" font-size="14" lengthAdjust="spacing" textLength="57" x="34" y="764.355">Operator</text><ellipse cx="65.5" cy="775.8218" fill="#E2E2F0" rx="8" ry="8" style="stroke:#181818;stroke-width:0.5;"/><path d="M65.5,783.8218 L65.5,810.8218 M52.5,791.8218 L78.5,791.8218 M65.5,810.8218 L52.5,825.8218 M65.5,810.8218 L78.5,825.8218 " fill="none" style="stroke:#181818;stroke-width:0.5;"/><rect fill="#EBF5FB" height="46.1973" rx="2.5" ry="2.5" style="stroke:#3498DB;stroke-width:0.5;" width="97" x="180" y="71"/><text fill="#000000" font-family="Arial" font-size="14" font-style="italic" lengthAdjust="spacing" textLength="38" x="209.5" y="91.1318">&#171;API&#187;</text><text fill="#000000" font-family="Arial" font-size="14" lengthAdjust="spacing" textLength="83" x="187" y="107.2305">Operator CLI</text><rect fill="#EBF5FB" height="46.1973" rx="2.5" ry="2.5" style="stroke:#3498DB;stroke-width:0.5;" width="97" x="180" y="751.2231"/><text fill="#000000" font-family="Arial" font-size="14" font-style="italic" lengthAdjust="spacing" textLength="38" x="209.5" y="771.355">&#171;API&#187;</text><text fill="#000000" font-family="Arial" font-size="14" lengthAdjust="spacing" textLength="83" x="187" y="787.4536">Operator CLI</text><rect fill="#F5EEF8" height="46.1973" rx="2.5" ry="2.5" style="stroke:#76448A;stroke-width:0.5;" width="89" x="424" y="71"/><text fill="#000000" font-family="Arial" font-size="14" font-style="italic" lengthAdjust="spacing" textLength="66" x="435.5" y="91.1318">&#171;Storage&#187;</text><text fill="#000000" font-family="Arial" font-size="14" lengthAdjust="spacing" textLength="75" x="431" y="107.2305">Config Files</text><rect fill="#F5EEF8" height="46.1973" rx="2.5" ry="2.5" style="stroke:#76448A;stroke-width:0.5;" width="89" x="424" y="751.2231"/><text fill="#000000" font-family="Arial" font-size="14" font-style="italic" lengthAdjust="spacing" textLength="66" x="435.5" y="771.355">&#171;Storage&#187;</text><text fill="#000000" font-family="Arial" font-size="14" lengthAdjust="spacing" textLength="75" x="431" y="787.4536">Config Files</text><rect fill="#FADBD8" height="46.1973" rx="2.5" ry="2.5" style="stroke:#943126;stroke-width:0.5;" width="168" x="563" y="71"/><text fill="#000000" font-family="Arial" font-size="14" font-style="italic" lengthAdjust="spacing" textLength="70" x="612" y="91.1318">&#171;Contract&#187;</text><text fill="#000000" font-family="Arial" font-size="14" lengthAdjust="spacing" textLength="154" x="570" y="107.2305">EvalAvsServiceManager</text><rect fill="#FADBD8" height="46.1973" rx="2.5" ry="2.5" style="stroke:#943126;stroke-width:0.5;" width="168" x="563" y="751.2231"/><text fill="#000000" font-family="Arial" font-size="14" font-style="italic" lengthAdjust="spacing" textLength="70" x="612" y="771.355">&#171;Contract&#187;</text><text fill="#000000" font-family="Arial" font-size="14" lengthAdjust="spacing" textLength="154" x="570" y="787.4536">EvalAvsServiceManager</text><rect fill="#FADBD8" height="46.1973" rx="2.5" ry="2.5" style="stroke:#943126;stroke-width:0.5;" width="152" x="781" y="71"/><text fill="#000000" font-family="Arial" font-size="14" font-style="italic" lengthAdjust="spacing" textLength="70" x="822" y="91.1318">&#171;Contract&#187;</text><text fill="#000000" font-family="Arial" font-size="14" lengthAdjust="spacing" textLength="138" x="788" y="107.2305">EvalAvsTaskManager</text><rect fill="#FADBD8" height="46.1973" rx="2.5" ry="2.5" style="stroke:#943126;stroke-width:0.5;" width="152" x="781" y="751.2231"/><text fill="#000000" font-family="Arial" font-size="14" font-style="italic" lengthAdjust="spacing" textLength="70" x="822" y="771.355">&#171;Contract&#187;</text><text fill="#000000" font-family="Arial" font-size="14" lengthAdjust="spacing" textLength="138" x="788" y="787.4536">EvalAvsTaskManager</text><rect fill="#FADBD8" height="46.1973" rx="2.5" ry="2.5" style="stroke:#943126;stroke-width:0.5;" width="151" x="983" y="71"/><text fill="#000000" font-family="Arial" font-size="14" font-style="italic" lengthAdjust="spacing" textLength="70" x="1023.5" y="91.1318">&#171;Contract&#187;</text><text fill="#000000" font-family="Arial" font-size="14" lengthAdjust="spacing" textLength="137" x="990" y="107.2305">EigenLayer Contracts</text><rect fill="#FADBD8" height="46.1973" rx="2.5" ry="2.5" style="stroke:#943126;stroke-width:0.5;" width="151" x="983" y="751.2231"/><text fill="#000000" font-family="Arial" font-size="14" font-style="italic" lengthAdjust="spacing" textLength="70" x="1023.5" y="771.355">&#171;Contract&#187;</text><text fill="#000000" font-family="Arial" font-size="14" lengthAdjust="spacing" textLength="137" x="990" y="787.4536">EigenLayer Contracts</text><rect fill="#FFFFFF" height="278.5386" style="stroke:#181818;stroke-width:1.0;" width="10" x="60.5" y="420.7358"/><rect fill="#FFFFFF" height="99.8462" style="stroke:#181818;stroke-width:1.0;" width="10" x="223.5" y="184.0947"/><rect fill="#FFFFFF" height="70.8975" style="stroke:#181818;stroke-width:1.0;" width="10" x="223.5" y="312.8896"/><path d="M5,133.1973 L5,157.1973 L1120,157.1973 L1120,143.1973 L1110,133.1973 L5,133.1973 " fill="#FEFFDD" style="stroke:#181818;stroke-width:0.5;"/><path d="M1110,133.1973 L1110,143.1973 L1120,143.1973 L1110,133.1973 " fill="#FEFFDD" style="stroke:#181818;stroke-width:0.5;"/><text fill="#000000" font-family="Arial" font-size="13" lengthAdjust="spacing" textLength="186" x="465" y="150.3911">Operator Setup and Registration</text><polygon fill="#181818" points="211.5,180.0947,221.5,184.0947,211.5,188.0947,215.5,184.0947" style="stroke:#181818;stroke-width:1.0;"/><line style="stroke:#181818;stroke-width:1.5;" x1="65.5" x2="217.5" y1="184.0947" y2="184.0947"/><text fill="#000000" font-family="Arial" font-size="13" lengthAdjust="spacing" textLength="100" x="94.5" y="179.3398">run init command</text><line style="stroke:#181818;stroke-width:1.5;" x1="233.5" x2="275.5" y1="213.0435" y2="213.0435"/><line style="stroke:#181818;stroke-width:1.5;" x1="275.5" x2="275.5" y1="213.0435" y2="226.0435"/><line style="stroke:#181818;stroke-width:1.5;" x1="234.5" x2="275.5" y1="226.0435" y2="226.0435"/><polygon fill="#181818" points="244.5,222.0435,234.5,226.0435,244.5,230.0435,240.5,226.0435" style="stroke:#181818;stroke-width:1.0;"/><text fill="#000000" font-family="Arial" font-size="13" lengthAdjust="spacing" textLength="216" x="240.5" y="208.2886">Generate/load ECDSA and BLS keys</text><polygon fill="#181818" points="456.5,250.9922,466.5,254.9922,456.5,258.9922,460.5,254.9922" style="stroke:#181818;stroke-width:1.0;"/><line style="stroke:#181818;stroke-width:1.5;" x1="233.5" x2="462.5" y1="254.9922" y2="254.9922"/><text fill="#000000" font-family="Arial" font-size="13" lengthAdjust="spacing" textLength="105" x="298.5" y="250.2373">Create config files</text><polygon fill="#181818" points="76.5,279.9409,66.5,283.9409,76.5,287.9409,72.5,283.9409" style="stroke:#181818;stroke-width:1.0;"/><line style="stroke:#181818;stroke-width:1.5;stroke-dasharray:2.0,2.0;" x1="70.5" x2="227.5" y1="283.9409" y2="283.9409"/><text fill="#000000" font-family="Arial" font-size="13" lengthAdjust="spacing" textLength="133" x="80.5" y="279.186">Configuration complete</text><polygon fill="#181818" points="211.5,308.8896,221.5,312.8896,211.5,316.8896,215.5,312.8896" style="stroke:#181818;stroke-width:1.0;"/><line style="stroke:#181818;stroke-width:1.5;" x1="65.5" x2="217.5" y1="312.8896" y2="312.8896"/><text fill="#000000" font-family="Arial" font-size="13" lengthAdjust="spacing" textLength="97" x="96" y="308.1348">run docker setup</text><line style="stroke:#181818;stroke-width:1.5;" x1="233.5" x2="275.5" y1="341.8384" y2="341.8384"/><line style="stroke:#181818;stroke-width:1.5;" x1="275.5" x2="275.5" y1="341.8384" y2="354.8384"/><line style="stroke:#181818;stroke-width:1.5;" x1="234.5" x2="275.5" y1="354.8384" y2="354.8384"/><polygon fill="#181818" points="244.5,350.8384,234.5,354.8384,244.5,358.8384,240.5,354.8384" style="stroke:#181818;stroke-width:1.0;"/><text fill="#000000" font-family="Arial" font-size="13" lengthAdjust="spacing" textLength="181" x="240.5" y="337.0835">Generate docker-compose files</text><polygon fill="#181818" points="76.5,379.7871,66.5,383.7871,76.5,387.7871,72.5,383.7871" style="stroke:#181818;stroke-width:1.0;"/><line style="stroke:#181818;stroke-width:1.5;stroke-dasharray:2.0,2.0;" x1="70.5" x2="227.5" y1="383.7871" y2="383.7871"/><text fill="#000000" font-family="Arial" font-size="13" lengthAdjust="spacing" textLength="134" x="80" y="379.0322">Docker setup complete</text><line style="stroke:#181818;stroke-width:1.5;" x1="65.5" x2="112.5" y1="407.7358" y2="407.7358"/><line style="stroke:#181818;stroke-width:1.5;" x1="112.5" x2="112.5" y1="407.7358" y2="420.7358"/><line style="stroke:#181818;stroke-width:1.5;" x1="71.5" x2="112.5" y1="420.7358" y2="420.7358"/><polygon fill="#181818" points="81.5,416.7358,71.5,420.7358,81.5,424.7358,77.5,420.7358" style="stroke:#181818;stroke-width:1.0;"/><text fill="#000000" font-family="Arial" font-size="13" lengthAdjust="spacing" textLength="111" x="77.5" y="402.981">Start operator node</text><polygon fill="#181818" points="1046.5,450.6846,1056.5,454.6846,1046.5,458.6846,1050.5,454.6846" style="stroke:#181818;stroke-width:1.0;"/><line style="stroke:#181818;stroke-width:1.5;" x1="70.5" x2="1052.5" y1="454.6846" y2="454.6846"/><text fill="#000000" font-family="Arial" font-size="13" lengthAdjust="spacing" textLength="266" x="431.5" y="449.9297">Register with EigenLayer (ECDSA+BLS keys)</text><polygon fill="#181818" points="81.5,479.6333,71.5,483.6333,81.5,487.6333,77.5,483.6333" style="stroke:#181818;stroke-width:1.0;"/><line style="stroke:#181818;stroke-width:1.5;stroke-dasharray:2.0,2.0;" x1="75.5" x2="1057.5" y1="483.6333" y2="483.6333"/><text fill="#000000" font-family="Arial" font-size="13" lengthAdjust="spacing" textLength="130" x="499.5" y="478.8784">Registration confirmed</text><polygon fill="#181818" points="635,508.582,645,512.582,635,516.582,639,512.582" style="stroke:#181818;stroke-width:1.0;"/><line style="stroke:#181818;stroke-width:1.5;" x1="70.5" x2="641" y1="512.582" y2="512.582"/><text fill="#000000" font-family="Arial" font-size="13" lengthAdjust="spacing" textLength="222" x="247.75" y="507.8271">Register with EvalAvsServiceManager</text><polygon fill="#181818" points="1046.5,537.5308,1056.5,541.5308,1046.5,545.5308,1050.5,541.5308" style="stroke:#181818;stroke-width:1.0;"/><line style="stroke:#181818;stroke-width:1.5;" x1="647" x2="1052.5" y1="541.5308" y2="541.5308"/><text fill="#000000" font-family="Arial" font-size="13" lengthAdjust="spacing" textLength="102" x="801.75" y="536.7759">Verify registration</text><polygon fill="#181818" points="658,566.4795,648,570.4795,658,574.4795,654,570.4795" style="stroke:#181818;stroke-width:1.0;"/><line style="stroke:#181818;stroke-width:1.5;stroke-dasharray:2.0,2.0;" x1="652" x2="1057.5" y1="570.4795" y2="570.4795"/><text fill="#000000" font-family="Arial" font-size="13" lengthAdjust="spacing" textLength="113" x="796.25" y="565.7246">Confirm registration</text><polygon fill="#181818" points="81.5,595.4282,71.5,599.4282,81.5,603.4282,77.5,599.4282" style="stroke:#181818;stroke-width:1.0;"/><line style="stroke:#181818;stroke-width:1.5;stroke-dasharray:2.0,2.0;" x1="75.5" x2="646" y1="599.4282" y2="599.4282"/><text fill="#000000" font-family="Arial" font-size="13" lengthAdjust="spacing" textLength="156" x="280.75" y="594.6733">AVS registration confirmed</text><polygon fill="#181818" points="845,624.377,855,628.377,845,632.377,849,628.377" style="stroke:#181818;stroke-width:1.0;"/><line style="stroke:#181818;stroke-width:1.5;" x1="70.5" x2="851" y1="628.377" y2="628.377"/><text fill="#000000" font-family="Arial" font-size="13" lengthAdjust="spacing" textLength="135" x="396.25" y="623.6221">joinAssignmentQueue()</text><line style="stroke:#181818;stroke-width:1.5;" x1="857" x2="899" y1="657.3257" y2="657.3257"/><line style="stroke:#181818;stroke-width:1.5;" x1="899" x2="899" y1="657.3257" y2="670.3257"/><line style="stroke:#181818;stroke-width:1.5;" x1="858" x2="899" y1="670.3257" y2="670.3257"/><polygon fill="#181818" points="868,666.3257,858,670.3257,868,674.3257,864,670.3257" style="stroke:#181818;stroke-width:1.0;"/><text fill="#000000" font-family="Arial" font-size="13" lengthAdjust="spacing" textLength="128" x="864" y="652.5708">Add operator to queue</text><polygon fill="#181818" points="76.5,695.2744,66.5,699.2744,76.5,703.2744,72.5,699.2744" style="stroke:#181818;stroke-width:1.0;"/><line style="stroke:#181818;stroke-width:1.5;stroke-dasharray:2.0,2.0;" x1="70.5" x2="856" y1="699.2744" y2="699.2744"/><text fill="#000000" font-family="Arial" font-size="13" lengthAdjust="spacing" textLength="152" x="385.25" y="694.5195">Successfully joined queue</text><path d="M5,712.2744 L5,736.2744 L1120,736.2744 L1120,722.2744 L1110,712.2744 L5,712.2744 " fill="#FEFFDD" style="stroke:#181818;stroke-width:0.5;"/><path d="M1110,712.2744 L1110,722.2744 L1120,722.2744 L1110,712.2744 " fill="#FEFFDD" style="stroke:#181818;stroke-width:0.5;"/><text fill="#000000" font-family="Arial" font-size="13" lengthAdjust="spacing" textLength="228" x="444" y="729.4683">Operator is now ready to execute tasks</text><rect fill="#DDDDDD" height="191.085" id="_legend" rx="7.5" ry="7.5" style="stroke:#000000;stroke-width:1.0;" width="183" x="487.5" y="840.3218"/><text fill="#000000" font-family="Arial" font-size="14" font-weight="bold" lengthAdjust="spacing" textLength="78" x="496.5" y="860.4536">Entity Type</text><text fill="#000000" font-family="Arial" font-size="14" font-weight="bold" lengthAdjust="spacing" textLength="79" x="582.5" y="860.4536">Description</text><rect fill="#E9F7EF" height="16.0986" style="stroke:none;stroke-width:1.0;" width="86" x="492.5" y="863.4204"/><text fill="#000000" font-family="Arial" font-size="14" lengthAdjust="spacing" textLength="4" x="492.5" y="876.5522">&#160;</text><text fill="#000000" font-family="Arial" font-size="14" lengthAdjust="spacing" textLength="58" x="582.5" y="876.5522">Frontend</text><rect fill="#EBF5FB" height="16.0986" style="stroke:none;stroke-width:1.0;" width="86" x="492.5" y="879.519"/><text fill="#000000" font-family="Arial" font-size="14" lengthAdjust="spacing" textLength="4" x="492.5" y="892.6509">&#160;</text><text fill="#000000" font-family="Arial" font-size="14" lengthAdjust="spacing" textLength="22" x="582.5" y="892.6509">API</text><rect fill="#F9EBEA" height="16.0986" style="stroke:none;stroke-width:1.0;" width="86" x="492.5" y="895.6177"/><text fill="#000000" font-family="Arial" font-size="14" lengthAdjust="spacing" textLength="4" x="492.5" y="908.7495">&#160;</text><text fill="#000000" font-family="Arial" font-size="14" lengthAdjust="spacing" textLength="29" x="582.5" y="908.7495">Auth</text><rect fill="#F4ECF7" height="16.0986" style="stroke:none;stroke-width:1.0;" width="86" x="492.5" y="911.7163"/><text fill="#000000" font-family="Arial" font-size="14" lengthAdjust="spacing" textLength="4" x="492.5" y="924.8481">&#160;</text><text fill="#000000" font-family="Arial" font-size="14" lengthAdjust="spacing" textLength="61" x="582.5" y="924.8481">Database</text><rect fill="#FEF9E7" height="16.0986" style="stroke:none;stroke-width:1.0;" width="86" x="492.5" y="927.8149"/><text fill="#000000" font-family="Arial" font-size="14" lengthAdjust="spacing" textLength="4" x="492.5" y="940.9468">&#160;</text><text fill="#000000" font-family="Arial" font-size="14" lengthAdjust="spacing" textLength="52" x="582.5" y="940.9468">External</text><rect fill="#FADBD8" height="16.0986" style="stroke:none;stroke-width:1.0;" width="86" x="492.5" y="943.9136"/><text fill="#000000" font-family="Arial" font-size="14" lengthAdjust="spacing" textLength="4" x="492.5" y="957.0454">&#160;</text><text fill="#000000" font-family="Arial" font-size="14" lengthAdjust="spacing" textLength="54" x="582.5" y="957.0454">Contract</text><rect fill="#FCF3CF" height="16.0986" style="stroke:none;stroke-width:1.0;" width="86" x="492.5" y="960.0122"/><text fill="#000000" font-family="Arial" font-size="14" lengthAdjust="spacing" textLength="4" x="492.5" y="973.144">&#160;</text><text fill="#000000" font-family="Arial" font-size="14" lengthAdjust="spacing" textLength="43" x="582.5" y="973.144">Queue</text><rect fill="#D6EAF8" height="16.0986" style="stroke:none;stroke-width:1.0;" width="86" x="492.5" y="976.1108"/><text fill="#000000" font-family="Arial" font-size="14" lengthAdjust="spacing" textLength="4" x="492.5" y="989.2427">&#160;</text><text fill="#000000" font-family="Arial" font-size="14" lengthAdjust="spacing" textLength="57" x="582.5" y="989.2427">Operator</text><rect fill="#D4EFDF" height="16.0986" style="stroke:none;stroke-width:1.0;" width="86" x="492.5" y="992.2095"/><text fill="#000000" font-family="Arial" font-size="14" lengthAdjust="spacing" textLength="4" x="492.5" y="1005.3413">&#160;</text><text fill="#000000" font-family="Arial" font-size="14" lengthAdjust="spacing" textLength="60" x="582.5" y="1005.3413">Evaluator</text><rect fill="#F5EEF8" height="16.0986" style="stroke:none;stroke-width:1.0;" width="86" x="492.5" y="1008.3081"/><text fill="#000000" font-family="Arial" font-size="14" lengthAdjust="spacing" textLength="4" x="492.5" y="1021.4399">&#160;</text><text fill="#000000" font-family="Arial" font-size="14" lengthAdjust="spacing" textLength="50" x="582.5" y="1021.4399">Storage</text><line style="stroke:#000000;stroke-width:1.0;" x1="492.5" x2="665.5" y1="847.3218" y2="847.3218"/><line style="stroke:#000000;stroke-width:1.0;" x1="492.5" x2="665.5" y1="863.4204" y2="863.4204"/><line style="stroke:#000000;stroke-width:1.0;" x1="492.5" x2="665.5" y1="879.519" y2="879.519"/><line style="stroke:#000000;stroke-width:1.0;" x1="492.5" x2="665.5" y1="895.6177" y2="895.6177"/><line style="stroke:#000000;stroke-width:1.0;" x1="492.5" x2="665.5" y1="911.7163" y2="911.7163"/><line style="stroke:#000000;stroke-width:1.0;" x1="492.5" x2="665.5" y1="927.8149" y2="927.8149"/><line style="stroke:#000000;stroke-width:1.0;" x1="492.5" x2="665.5" y1="943.9136" y2="943.9136"/><line style="stroke:#000000;stroke-width:1.0;" x1="492.5" x2="665.5" y1="960.0122" y2="960.0122"/><line style="stroke:#000000;stroke-width:1.0;" x1="492.5" x2="665.5" y1="976.1108" y2="976.1108"/><line style="stroke:#000000;stroke-width:1.0;" x1="492.5" x2="665.5" y1="992.2095" y2="992.2095"/><line style="stroke:#000000;stroke-width:1.0;" x1="492.5" x2="665.5" y1="1008.3081" y2="1008.3081"/><line style="stroke:#000000;stroke-width:1.0;" x1="492.5" x2="665.5" y1="1024.4067" y2="1024.4067"/><line style="stroke:#000000;stroke-width:1.0;" x1="492.5" x2="492.5" y1="847.3218" y2="1024.4067"/><line style="stroke:#000000;stroke-width:1.0;" x1="578.5" x2="578.5" y1="847.3218" y2="1024.4067"/><line style="stroke:#000000;stroke-width:1.0;" x1="665.5" x2="665.5" y1="847.3218" y2="1024.4067"/><!--SRC=[ZLH1Rjim4Bpp5TjScg1rsXJenJ0CA4vI171Gjmfo9yYrlBL4AYHbHtrzAScoI3LkSp1iQsUumvbTlICbyaeY25qKMasigtEyBAiYP-mzF71Ipd_0wWB1bYXeJG94PPqkw3Ttf9M5jJRWDcH14iyCBvZTaYgv_mKvANHrYQ2Ds-YWiEB6aQ2IAxVYKfBAuClde9xYSuLAuBL-wUjNOJqnHkyVDoIs2gs5gyklZ3boESBt4WrtNj9FpCWwqug4krpl6UEYAVG8LWuYuEp8Moplpu3RvXjcisHrFv_7o8LMQyhWZdAq7R9xC9kbdiyp71DkTpnFTZP5ioE13rnvZ6cPyID_WZ_AInRkn16Ft6v3Vl3_NsJAK2rvxK4zf1CU528sKzhvp7OucFKn04y7arDqLGbSoSXknew0oRmnSWgcKa2AN3je7jzaGJlks_WoQxpkaTzGDLpyb6ikuNPnaoPjW-jb2bkixH7SkZw5XS7c6D65i6vIwI0UqykO7j3LOHoyY397XqnYfEDrtLABhRV2DdVzl-u3VDBqq1PFAhe9JdsRe86REfylwBwcjCH1s76-GswONXULxxqdjmc7uBnr-qFlz0KBQh7uQBbQwqs1CfOR3_TVRLzR2ZPQY97m9pIqhi64epQIE6wwwBJ5d76Nw6h9KngXJrqlsBqf_DAa4cifKmKgzwF22iylMBYUOqOYvH2Wq_3SS69677abX7_LhQiyhzjsA0-SO6IEqRzzW_rxM-czlp6NTQC3Nr1Kdkky4li7]--></g></svg>