<?xml version="1.0" encoding="us-ascii" standalone="no"?><svg xmlns="http://www.w3.org/2000/svg" xmlns:xlink="http://www.w3.org/1999/xlink" contentStyleType="text/css" height="1246px" preserveAspectRatio="none" style="width:869px;height:1246px;background:#FFFFFF;" version="1.1" viewBox="0 0 869 1246" width="869px" zoomAndPan="magnify"><defs/><g><text fill="#303030" font-family="Arial" font-size="16" font-weight="bold" lengthAdjust="spacing" textLength="191" x="335.25" y="38.0078">Task Reassignment Flow</text><rect fill="#F8F8F8" height="220.1953" style="stroke:#000000;stroke-width:1.0;" width="10" x="186" y="198.2959"/><rect fill="#F8F8F8" height="100.5977" style="stroke:#000000;stroke-width:1.0;" width="10" x="567" y="569.8877"/><line style="stroke:#000000;stroke-width:0.5;stroke-dasharray:5.0,5.0;" x1="38" x2="38" y1="152.4971" y2="739.4341"/><line style="stroke:#000000;stroke-width:0.5;stroke-dasharray:5.0,5.0;" x1="191" x2="191" y1="152.4971" y2="739.4341"/><line style="stroke:#000000;stroke-width:0.5;stroke-dasharray:5.0,5.0;" x1="396" x2="396" y1="152.4971" y2="739.4341"/><line style="stroke:#000000;stroke-width:0.5;stroke-dasharray:5.0,5.0;" x1="572" x2="572" y1="152.4971" y2="739.4341"/><line style="stroke:#000000;stroke-width:0.5;stroke-dasharray:5.0,5.0;" x1="783.5" x2="783.5" y1="152.4971" y2="739.4341"/><text fill="#000000" font-family="Arial" font-size="14" font-weight="bold" lengthAdjust="spacing" textLength="44" x="13" y="141.5303">Admin</text><ellipse cx="38" cy="68.8984" fill="#FFFFFF" rx="8" ry="8" style="stroke:#454545;stroke-width:0.5;"/><path d="M38,76.8984 L38,103.8984 M25,84.8984 L51,84.8984 M38,103.8984 L25,118.8984 M38,103.8984 L51,118.8984 " fill="none" style="stroke:#454545;stroke-width:0.5;"/><text fill="#000000" font-family="Arial" font-size="14" font-weight="bold" lengthAdjust="spacing" textLength="44" x="13" y="759.5659">Admin</text><ellipse cx="38" cy="779.0327" fill="#FFFFFF" rx="8" ry="8" style="stroke:#454545;stroke-width:0.5;"/><path d="M38,787.0327 L38,814.0327 M25,795.0327 L51,795.0327 M38,814.0327 L25,829.0327 M38,814.0327 L51,829.0327 " fill="none" style="stroke:#454545;stroke-width:0.5;"/><rect fill="#FADBD8" height="56.4478" rx="4" ry="4" style="stroke:#943126;stroke-width:2.0;" width="162" x="110" y="95.0493"/><text fill="#000000" font-family="Arial" font-size="10" font-weight="bold" lengthAdjust="spacing" textLength="53" x="164.5" y="119.4292">&#171;Contract&#187;</text><text fill="#000000" font-family="Arial" font-size="13" font-weight="bold" lengthAdjust="spacing" textLength="132" x="125" y="133.7422">EvalAvsTaskManager</text><rect fill="#FADBD8" height="56.4478" rx="4" ry="4" style="stroke:#943126;stroke-width:2.0;" width="162" x="110" y="738.4341"/><text fill="#000000" font-family="Arial" font-size="10" font-weight="bold" lengthAdjust="spacing" textLength="53" x="164.5" y="762.814">&#171;Contract&#187;</text><text fill="#000000" font-family="Arial" font-size="13" font-weight="bold" lengthAdjust="spacing" textLength="132" x="125" y="777.127">EvalAvsTaskManager</text><rect fill="#D6EAF8" height="56.4478" rx="4" ry="4" style="stroke:#2E86C1;stroke-width:2.0;" width="138" x="327" y="95.0493"/><text fill="#000000" font-family="Arial" font-size="10" font-weight="bold" lengthAdjust="spacing" textLength="55" x="368.5" y="119.4292">&#171;Operator&#187;</text><text fill="#000000" font-family="Arial" font-size="13" font-weight="bold" lengthAdjust="spacing" textLength="108" x="342" y="133.7422">Original Operator</text><rect fill="#D6EAF8" height="56.4478" rx="4" ry="4" style="stroke:#2E86C1;stroke-width:2.0;" width="138" x="327" y="738.4341"/><text fill="#000000" font-family="Arial" font-size="10" font-weight="bold" lengthAdjust="spacing" textLength="55" x="368.5" y="762.814">&#171;Operator&#187;</text><text fill="#000000" font-family="Arial" font-size="13" font-weight="bold" lengthAdjust="spacing" textLength="108" x="342" y="777.127">Original Operator</text><rect fill="#D6EAF8" height="56.4478" rx="4" ry="4" style="stroke:#2E86C1;stroke-width:2.0;" width="114" x="515" y="95.0493"/><text fill="#000000" font-family="Arial" font-size="10" font-weight="bold" lengthAdjust="spacing" textLength="55" x="544.5" y="119.4292">&#171;Operator&#187;</text><text fill="#000000" font-family="Arial" font-size="13" font-weight="bold" lengthAdjust="spacing" textLength="84" x="530" y="133.7422">New Operator</text><rect fill="#D6EAF8" height="56.4478" rx="4" ry="4" style="stroke:#2E86C1;stroke-width:2.0;" width="114" x="515" y="738.4341"/><text fill="#000000" font-family="Arial" font-size="10" font-weight="bold" lengthAdjust="spacing" textLength="55" x="544.5" y="762.814">&#171;Operator&#187;</text><text fill="#000000" font-family="Arial" font-size="13" font-weight="bold" lengthAdjust="spacing" textLength="84" x="530" y="777.127">New Operator</text><rect fill="#D4EFDF" height="56.4478" rx="4" ry="4" style="stroke:#196F3D;stroke-width:2.0;" width="107" x="730.5" y="95.0493"/><text fill="#000000" font-family="Arial" font-size="10" font-weight="bold" lengthAdjust="spacing" textLength="59" x="754.5" y="119.4292">&#171;Evaluator&#187;</text><text fill="#000000" font-family="Arial" font-size="13" font-weight="bold" lengthAdjust="spacing" textLength="77" x="745.5" y="133.7422">GoEvaluator</text><rect fill="#D4EFDF" height="56.4478" rx="4" ry="4" style="stroke:#196F3D;stroke-width:2.0;" width="107" x="730.5" y="738.4341"/><text fill="#000000" font-family="Arial" font-size="10" font-weight="bold" lengthAdjust="spacing" textLength="59" x="754.5" y="762.814">&#171;Evaluator&#187;</text><text fill="#000000" font-family="Arial" font-size="13" font-weight="bold" lengthAdjust="spacing" textLength="77" x="745.5" y="777.127">GoEvaluator</text><rect fill="#F8F8F8" height="220.1953" style="stroke:#000000;stroke-width:1.0;" width="10" x="186" y="198.2959"/><rect fill="#F8F8F8" height="100.5977" style="stroke:#000000;stroke-width:1.0;" width="10" x="567" y="569.8877"/><polygon fill="#000000" points="174,194.2959,184,198.2959,174,202.2959,178,198.2959" style="stroke:#000000;stroke-width:1.0;"/><line style="stroke:#000000;stroke-width:1.5;" x1="38" x2="180" y1="198.2959" y2="198.2959"/><text fill="#000000" font-family="Arial" font-size="12" lengthAdjust="spacing" textLength="113" x="55.5" y="185.7529">reassignTask(taskId)</text><line style="stroke:#000000;stroke-width:1.5;" x1="196" x2="238" y1="242.0947" y2="242.0947"/><line style="stroke:#000000;stroke-width:1.5;" x1="238" x2="238" y1="242.0947" y2="255.0947"/><line style="stroke:#000000;stroke-width:1.5;" x1="197" x2="238" y1="255.0947" y2="255.0947"/><polygon fill="#000000" points="207,251.0947,197,255.0947,207,259.0947,203,255.0947" style="stroke:#000000;stroke-width:1.0;"/><text fill="#000000" font-family="Arial" font-size="12" lengthAdjust="spacing" textLength="35" x="211" y="229.5518">Check</text><text fill="#000000" font-family="Arial" font-size="12" lengthAdjust="spacing" textLength="3" x="246" y="229.5518">&#160;</text><text fill="#000000" font-family="Arial" font-size="12" lengthAdjust="spacing" textLength="6" x="249" y="229.5518">if</text><text fill="#000000" font-family="Arial" font-size="12" lengthAdjust="spacing" textLength="3" x="255" y="229.5518">&#160;</text><text fill="#000000" font-family="Arial" font-size="12" lengthAdjust="spacing" textLength="22" x="258" y="229.5518">task</text><text fill="#000000" font-family="Arial" font-size="12" lengthAdjust="spacing" textLength="3" x="280" y="229.5518">&#160;</text><text fill="#000000" font-family="Arial" font-size="12" lengthAdjust="spacing" textLength="9" x="283" y="229.5518">is</text><text fill="#000000" font-family="Arial" font-size="12" lengthAdjust="spacing" textLength="3" x="292" y="229.5518">&#160;</text><text fill="#000000" font-family="Arial" font-size="12" lengthAdjust="spacing" textLength="41" x="295" y="229.5518">expired</text><line style="stroke:#000000;stroke-width:1.5;" x1="196" x2="238" y1="298.8936" y2="298.8936"/><line style="stroke:#000000;stroke-width:1.5;" x1="238" x2="238" y1="298.8936" y2="311.8936"/><line style="stroke:#000000;stroke-width:1.5;" x1="197" x2="238" y1="311.8936" y2="311.8936"/><polygon fill="#000000" points="207,307.8936,197,311.8936,207,315.8936,203,311.8936" style="stroke:#000000;stroke-width:1.0;"/><text fill="#000000" font-family="Arial" font-size="12" lengthAdjust="spacing" textLength="19" x="211" y="286.3506">Get</text><text fill="#000000" font-family="Arial" font-size="12" lengthAdjust="spacing" textLength="3" x="230" y="286.3506">&#160;</text><text fill="#000000" font-family="Arial" font-size="12" lengthAdjust="spacing" textLength="23" x="233" y="286.3506">next</text><text fill="#000000" font-family="Arial" font-size="12" lengthAdjust="spacing" textLength="3" x="256" y="286.3506">&#160;</text><text fill="#000000" font-family="Arial" font-size="12" lengthAdjust="spacing" textLength="46" x="259" y="286.3506">operator</text><text fill="#000000" font-family="Arial" font-size="12" lengthAdjust="spacing" textLength="3" x="305" y="286.3506">&#160;</text><text fill="#000000" font-family="Arial" font-size="12" lengthAdjust="spacing" textLength="24" x="308" y="286.3506">from</text><text fill="#000000" font-family="Arial" font-size="12" lengthAdjust="spacing" textLength="3" x="332" y="286.3506">&#160;</text><text fill="#000000" font-family="Arial" font-size="12" lengthAdjust="spacing" textLength="35" x="335" y="286.3506">queue</text><line style="stroke:#000000;stroke-width:1.5;" x1="196" x2="238" y1="355.6924" y2="355.6924"/><line style="stroke:#000000;stroke-width:1.5;" x1="238" x2="238" y1="355.6924" y2="368.6924"/><line style="stroke:#000000;stroke-width:1.5;" x1="197" x2="238" y1="368.6924" y2="368.6924"/><polygon fill="#000000" points="207,364.6924,197,368.6924,207,372.6924,203,368.6924" style="stroke:#000000;stroke-width:1.0;"/><text fill="#000000" font-family="Arial" font-size="12" lengthAdjust="spacing" textLength="40" x="211" y="343.1494">Update</text><text fill="#000000" font-family="Arial" font-size="12" lengthAdjust="spacing" textLength="3" x="251" y="343.1494">&#160;</text><text fill="#000000" font-family="Arial" font-size="12" lengthAdjust="spacing" textLength="22" x="254" y="343.1494">task</text><text fill="#000000" font-family="Arial" font-size="12" lengthAdjust="spacing" textLength="3" x="276" y="343.1494">&#160;</text><text fill="#000000" font-family="Arial" font-size="12" lengthAdjust="spacing" textLength="22" x="279" y="343.1494">with</text><text fill="#000000" font-family="Arial" font-size="12" lengthAdjust="spacing" textLength="3" x="301" y="343.1494">&#160;</text><text fill="#000000" font-family="Arial" font-size="12" lengthAdjust="spacing" textLength="23" x="304" y="343.1494">new</text><text fill="#000000" font-family="Arial" font-size="12" lengthAdjust="spacing" textLength="3" x="327" y="343.1494">&#160;</text><text fill="#000000" font-family="Arial" font-size="12" lengthAdjust="spacing" textLength="46" x="330" y="343.1494">operator</text><line style="stroke:#000000;stroke-width:1.5;" x1="196" x2="238" y1="417.4912" y2="417.4912"/><line style="stroke:#000000;stroke-width:1.5;" x1="238" x2="238" y1="417.4912" y2="430.4912"/><line style="stroke:#000000;stroke-width:1.5;" x1="191" x2="238" y1="430.4912" y2="430.4912"/><polygon fill="#000000" points="201,426.4912,191,430.4912,201,434.4912,197,430.4912" style="stroke:#000000;stroke-width:1.0;"/><text fill="#000000" font-family="Arial" font-size="12" lengthAdjust="spacing" textLength="24" x="211" y="404.9482">Emit</text><text fill="#000000" font-family="Arial" font-size="12" lengthAdjust="spacing" textLength="3" x="235" y="404.9482">&#160;</text><text fill="#000000" font-family="Arial" font-size="12" lengthAdjust="spacing" textLength="90" x="238" y="404.9482">EvalReassigned</text><text fill="#000000" font-family="Arial" font-size="12" lengthAdjust="spacing" textLength="3" x="328" y="404.9482">&#160;</text><text fill="#000000" font-family="Arial" font-size="12" lengthAdjust="spacing" textLength="31" x="331" y="404.9482">Event</text><polygon fill="#000000" points="384,465.29,394,469.29,384,473.29,388,469.29" style="stroke:#000000;stroke-width:1.0;"/><line style="stroke:#000000;stroke-width:1.5;stroke-dasharray:2.0,2.0;" x1="191" x2="390" y1="469.29" y2="469.29"/><text fill="#000000" font-family="Arial" font-size="12" lengthAdjust="spacing" textLength="90" x="231.5" y="456.7471">EvalReassigned</text><text fill="#000000" font-family="Arial" font-size="12" lengthAdjust="spacing" textLength="3" x="321.5" y="456.7471">&#160;</text><text fill="#000000" font-family="Arial" font-size="12" lengthAdjust="spacing" textLength="31" x="324.5" y="456.7471">Event</text><line style="stroke:#000000;stroke-width:1.5;" x1="396" x2="438" y1="513.0889" y2="513.0889"/><line style="stroke:#000000;stroke-width:1.5;" x1="438" x2="438" y1="513.0889" y2="526.0889"/><line style="stroke:#000000;stroke-width:1.5;" x1="397" x2="438" y1="526.0889" y2="526.0889"/><polygon fill="#000000" points="407,522.0889,397,526.0889,407,530.0889,403,526.0889" style="stroke:#000000;stroke-width:1.0;"/><text fill="#000000" font-family="Arial" font-size="12" lengthAdjust="spacing" textLength="39" x="411" y="500.5459">Cancel</text><text fill="#000000" font-family="Arial" font-size="12" lengthAdjust="spacing" textLength="3" x="450" y="500.5459">&#160;</text><text fill="#000000" font-family="Arial" font-size="12" lengthAdjust="spacing" textLength="22" x="453" y="500.5459">task</text><text fill="#000000" font-family="Arial" font-size="12" lengthAdjust="spacing" textLength="3" x="475" y="500.5459">&#160;</text><text fill="#000000" font-family="Arial" font-size="12" lengthAdjust="spacing" textLength="60" x="478" y="500.5459">processing</text><polygon fill="#000000" points="555,565.8877,565,569.8877,555,573.8877,559,569.8877" style="stroke:#000000;stroke-width:1.0;"/><line style="stroke:#000000;stroke-width:1.5;stroke-dasharray:2.0,2.0;" x1="191" x2="561" y1="569.8877" y2="569.8877"/><text fill="#000000" font-family="Arial" font-size="12" lengthAdjust="spacing" textLength="90" x="317" y="557.3447">EvalReassigned</text><text fill="#000000" font-family="Arial" font-size="12" lengthAdjust="spacing" textLength="3" x="407" y="557.3447">&#160;</text><text fill="#000000" font-family="Arial" font-size="12" lengthAdjust="spacing" textLength="31" x="410" y="557.3447">Event</text><line style="stroke:#000000;stroke-width:1.5;" x1="577" x2="619" y1="613.6865" y2="613.6865"/><line style="stroke:#000000;stroke-width:1.5;" x1="619" x2="619" y1="613.6865" y2="626.6865"/><line style="stroke:#000000;stroke-width:1.5;" x1="578" x2="619" y1="626.6865" y2="626.6865"/><polygon fill="#000000" points="588,622.6865,578,626.6865,588,630.6865,584,626.6865" style="stroke:#000000;stroke-width:1.0;"/><text fill="#000000" font-family="Arial" font-size="12" lengthAdjust="spacing" textLength="35" x="592" y="601.1436">Check</text><text fill="#000000" font-family="Arial" font-size="12" lengthAdjust="spacing" textLength="3" x="627" y="601.1436">&#160;</text><text fill="#000000" font-family="Arial" font-size="12" lengthAdjust="spacing" textLength="6" x="630" y="601.1436">if</text><text fill="#000000" font-family="Arial" font-size="12" lengthAdjust="spacing" textLength="3" x="636" y="601.1436">&#160;</text><text fill="#000000" font-family="Arial" font-size="12" lengthAdjust="spacing" textLength="23" x="639" y="601.1436">new</text><text fill="#000000" font-family="Arial" font-size="12" lengthAdjust="spacing" textLength="3" x="662" y="601.1436">&#160;</text><text fill="#000000" font-family="Arial" font-size="12" lengthAdjust="spacing" textLength="50" x="665" y="601.1436">assigned</text><text fill="#000000" font-family="Arial" font-size="12" lengthAdjust="spacing" textLength="3" x="715" y="601.1436">&#160;</text><text fill="#000000" font-family="Arial" font-size="12" lengthAdjust="spacing" textLength="46" x="718" y="601.1436">operator</text><polygon fill="#000000" points="772,666.4854,782,670.4854,772,674.4854,776,670.4854" style="stroke:#000000;stroke-width:1.0;"/><line style="stroke:#000000;stroke-width:1.5;" x1="572" x2="778" y1="670.4854" y2="670.4854"/><text fill="#000000" font-family="Arial" font-size="12" lengthAdjust="spacing" textLength="25" x="612.5" y="657.9424">Start</text><text fill="#000000" font-family="Arial" font-size="12" lengthAdjust="spacing" textLength="3" x="637.5" y="657.9424">&#160;</text><text fill="#000000" font-family="Arial" font-size="12" lengthAdjust="spacing" textLength="57" x="640.5" y="657.9424">evaluation</text><text fill="#000000" font-family="Arial" font-size="12" lengthAdjust="spacing" textLength="3" x="697.5" y="657.9424">&#160;</text><text fill="#000000" font-family="Arial" font-size="12" lengthAdjust="spacing" textLength="43" x="700.5" y="657.9424">process</text><path d="M577,687.4854 L577,719.4854 A4,4 0 0 0 581,723.4854 L844,723.4854 A4,4 0 0 0 848,719.4854 L848,693.4854 L838,683.4854 L581,683.4854 A4,4 0 0 0 577,687.4854 " fill="#FFFFDD" style="stroke:#999999;stroke-width:1.0;"/><path d="M838,683.4854 L838,691.4854 A2,2 0 0 0 840,693.4854 L848,693.4854 L838,683.4854 " fill="#FFFFDD" style="stroke:#999999;stroke-width:1.0;"/><text fill="#000000" font-family="Arial" font-size="13" lengthAdjust="spacing" textLength="225" x="600" y="708.6792">Process follows normal evaluation flow</text><rect fill="none" height="383.085" id="_legend" rx="4" ry="4" style="stroke:#000000;stroke-width:1.0;" width="355" x="494.5" y="843.5327"/><text fill="#000000" font-family="Arial" font-size="14" font-weight="bold" lengthAdjust="spacing" textLength="78" x="519.5" y="879.6646">Entity Type</text><text fill="#000000" font-family="Arial" font-size="14" font-weight="bold" lengthAdjust="spacing" textLength="79" x="621.5" y="879.6646">Description</text><rect fill="#E9F7EF" height="32.0986" style="stroke:none;stroke-width:1.0;" width="102" x="507.5" y="890.6313"/><text fill="#000000" font-family="Arial" font-size="14" lengthAdjust="spacing" textLength="4" x="515.5" y="911.7632">&#160;</text><text fill="#000000" font-family="Arial" font-size="14" lengthAdjust="spacing" textLength="203" x="621.5" y="911.7632">Frontend - Web/UI Components</text><rect fill="#EBF5FB" height="32.0986" style="stroke:none;stroke-width:1.0;" width="102" x="507.5" y="922.73"/><text fill="#000000" font-family="Arial" font-size="14" lengthAdjust="spacing" textLength="4" x="515.5" y="943.8618">&#160;</text><text fill="#000000" font-family="Arial" font-size="14" lengthAdjust="spacing" textLength="148" x="621.5" y="943.8618">API - Backend Services</text><rect fill="#F9EBEA" height="32.0986" style="stroke:none;stroke-width:1.0;" width="102" x="507.5" y="954.8286"/><text fill="#000000" font-family="Arial" font-size="14" lengthAdjust="spacing" textLength="4" x="515.5" y="975.9604">&#160;</text><text fill="#000000" font-family="Arial" font-size="14" lengthAdjust="spacing" textLength="190" x="621.5" y="975.9604">Auth - Authentication Services</text><rect fill="#F4ECF7" height="32.0986" style="stroke:none;stroke-width:1.0;" width="102" x="507.5" y="986.9272"/><text fill="#000000" font-family="Arial" font-size="14" lengthAdjust="spacing" textLength="4" x="515.5" y="1008.0591">&#160;</text><text fill="#000000" font-family="Arial" font-size="14" lengthAdjust="spacing" textLength="158" x="621.5" y="1008.0591">Database - Data Storage</text><rect fill="#FEF9E7" height="32.0986" style="stroke:none;stroke-width:1.0;" width="102" x="507.5" y="1019.0259"/><text fill="#000000" font-family="Arial" font-size="14" lengthAdjust="spacing" textLength="4" x="515.5" y="1040.1577">&#160;</text><text fill="#000000" font-family="Arial" font-size="14" lengthAdjust="spacing" textLength="181" x="621.5" y="1040.1577">External - 3rd Party Services</text><rect fill="#FADBD8" height="32.0986" style="stroke:none;stroke-width:1.0;" width="102" x="507.5" y="1051.1245"/><text fill="#000000" font-family="Arial" font-size="14" lengthAdjust="spacing" textLength="4" x="515.5" y="1072.2563">&#160;</text><text fill="#000000" font-family="Arial" font-size="14" lengthAdjust="spacing" textLength="170" x="621.5" y="1072.2563">Contract - Smart Contracts</text><rect fill="#FCF3CF" height="32.0986" style="stroke:none;stroke-width:1.0;" width="102" x="507.5" y="1083.2231"/><text fill="#000000" font-family="Arial" font-size="14" lengthAdjust="spacing" textLength="4" x="515.5" y="1104.355">&#160;</text><text fill="#000000" font-family="Arial" font-size="14" lengthAdjust="spacing" textLength="168" x="621.5" y="1104.355">Queue - Message Queues</text><rect fill="#D6EAF8" height="32.0986" style="stroke:none;stroke-width:1.0;" width="102" x="507.5" y="1115.3218"/><text fill="#000000" font-family="Arial" font-size="14" lengthAdjust="spacing" textLength="4" x="515.5" y="1136.4536">&#160;</text><text fill="#000000" font-family="Arial" font-size="14" lengthAdjust="spacing" textLength="171" x="621.5" y="1136.4536">Operator - Validator Nodes</text><rect fill="#D4EFDF" height="32.0986" style="stroke:none;stroke-width:1.0;" width="102" x="507.5" y="1147.4204"/><text fill="#000000" font-family="Arial" font-size="14" lengthAdjust="spacing" textLength="4" x="515.5" y="1168.5522">&#160;</text><text fill="#000000" font-family="Arial" font-size="14" lengthAdjust="spacing" textLength="197" x="621.5" y="1168.5522">Evaluator - Evaluation Services</text><rect fill="#F5EEF8" height="32.0986" style="stroke:none;stroke-width:1.0;" width="102" x="507.5" y="1179.519"/><text fill="#000000" font-family="Arial" font-size="14" lengthAdjust="spacing" textLength="4" x="515.5" y="1200.6509">&#160;</text><text fill="#000000" font-family="Arial" font-size="14" lengthAdjust="spacing" textLength="171" x="621.5" y="1200.6509">Storage - Storage Services</text><line style="stroke:#000000;stroke-width:1.0;" x1="507.5" x2="836.5" y1="858.5327" y2="858.5327"/><line style="stroke:#000000;stroke-width:1.0;" x1="507.5" x2="836.5" y1="890.6313" y2="890.6313"/><line style="stroke:#000000;stroke-width:1.0;" x1="507.5" x2="836.5" y1="922.73" y2="922.73"/><line style="stroke:#000000;stroke-width:1.0;" x1="507.5" x2="836.5" y1="954.8286" y2="954.8286"/><line style="stroke:#000000;stroke-width:1.0;" x1="507.5" x2="836.5" y1="986.9272" y2="986.9272"/><line style="stroke:#000000;stroke-width:1.0;" x1="507.5" x2="836.5" y1="1019.0259" y2="1019.0259"/><line style="stroke:#000000;stroke-width:1.0;" x1="507.5" x2="836.5" y1="1051.1245" y2="1051.1245"/><line style="stroke:#000000;stroke-width:1.0;" x1="507.5" x2="836.5" y1="1083.2231" y2="1083.2231"/><line style="stroke:#000000;stroke-width:1.0;" x1="507.5" x2="836.5" y1="1115.3218" y2="1115.3218"/><line style="stroke:#000000;stroke-width:1.0;" x1="507.5" x2="836.5" y1="1147.4204" y2="1147.4204"/><line style="stroke:#000000;stroke-width:1.0;" x1="507.5" x2="836.5" y1="1179.519" y2="1179.519"/><line style="stroke:#000000;stroke-width:1.0;" x1="507.5" x2="836.5" y1="1211.6177" y2="1211.6177"/><line style="stroke:#000000;stroke-width:1.0;" x1="507.5" x2="507.5" y1="858.5327" y2="1211.6177"/><line style="stroke:#000000;stroke-width:1.0;" x1="609.5" x2="609.5" y1="858.5327" y2="1211.6177"/><line style="stroke:#000000;stroke-width:1.0;" x1="836.5" x2="836.5" y1="858.5327" y2="1211.6177"/><!--SRC=[ZLHDRzim3BthLt2zR3kqM0Vi4XG1ig0hTkWQhDqF42JQ9c9zJABZTBz-T3AxIfe6EoIGIBt7hqU_8s_QpYAOu5pmbvcVMxoAdMkLUW_tcZpB3t9m23cYeOeCc2vpSFH7CmMVeGe9kA4CbdITj5DvJJvgEK5B7lav8eJ4JIWSAvsO34NjUQMj9L_3vq-5_n5_T-WDVWtRqNzT-XSfXVwf8RFsc3DSNtrHYebRX2UTr_0JTSvKUuUUuLiRUgMqOSbpOHrv5L-YmyNjHhUBJHvmzzhh6jC5w0p57Mvkbi5p4ehv_13yaAWchrjuY9YqHDXXH-je58BnU4pm0_j3h1Z-0tONXhIx2LNS1JMT1QRKhcQud9SbpI3zQz5W_C3ozzr-79f46yrOFbLb9uvPbWsQDL050mE81d0RAQ4z2xf31ezRXZ0MMgNWG2RUuLdWhsY7v7QnUk96MFg9v2porX73q9PH6MZbAkfG5ayMVSWcTCSpdPscUpNwaz2b5cst-q9Y2aOqB19_7RGGmnlnfkIBfwhKq37BDB6XTnDPU0DQw6e6ZomI1DmRPFN7r9KFae0KsSX8gyDmg_qJ-KYqieOPV4XErgKWgORrBAPGmFy2]--></g></svg>