<?xml version="1.0" encoding="us-ascii" standalone="no"?><svg xmlns="http://www.w3.org/2000/svg" xmlns:xlink="http://www.w3.org/1999/xlink" contentStyleType="text/css" height="680px" preserveAspectRatio="none" style="width:922px;height:680px;background:#FFFFFF;" version="1.1" viewBox="0 0 922 680" width="922px" zoomAndPan="magnify"><defs/><g><text fill="#000000" font-family="Verdana" font-size="22" font-weight="bold" lengthAdjust="spacing" textLength="309" x="311.25" y="37.1182">Task Reassignment Flow</text><rect fill="#FFFFFF" height="164.1973" style="stroke:#000000;stroke-width:1.0;" width="10" x="214" y="198.3506"/><rect fill="#FFFFFF" height="72.5986" style="stroke:#000000;stroke-width:1.0;" width="10" x="613" y="471.9458"/><line style="stroke:#000000;stroke-width:1.0;" x1="55" x2="55" y1="130.752" y2="598.3438"/><line style="stroke:#000000;stroke-width:1.0;" x1="219" x2="219" y1="130.752" y2="598.3438"/><line style="stroke:#000000;stroke-width:1.0;" x1="449.5" x2="449.5" y1="130.752" y2="598.3438"/><line style="stroke:#000000;stroke-width:1.0;" x1="617.5" x2="617.5" y1="130.752" y2="598.3438"/><line style="stroke:#000000;stroke-width:1.0;" x1="852.5" x2="852.5" y1="130.752" y2="598.3438"/><text fill="#000000" font-family="Verdana" font-size="14" lengthAdjust="spacing" textLength="46" x="29" y="127.8125">Admin</text><ellipse cx="55" cy="61.7373" fill="#FFFFFF" rx="8" ry="8" style="stroke:#000000;stroke-width:1.0;"/><path d="M55,69.7373 L55,96.7373 M42,77.7373 L68,77.7373 M55,96.7373 L42,111.7373 M55,96.7373 L68,111.7373 " fill="none" style="stroke:#000000;stroke-width:1.0;"/><text fill="#000000" font-family="Verdana" font-size="14" lengthAdjust="spacing" textLength="46" x="29" y="611.4189">Admin</text><ellipse cx="55" cy="623.3584" fill="#FFFFFF" rx="8" ry="8" style="stroke:#000000;stroke-width:1.0;"/><path d="M55,631.3584 L55,658.3584 M42,639.3584 L68,639.3584 M55,658.3584 L42,673.3584 M55,658.3584 L68,673.3584 " fill="none" style="stroke:#000000;stroke-width:1.0;"/><rect fill="#FFFFFF" height="31.0146" style="stroke:#000000;stroke-width:1.0;" width="160" x="139" y="98.7373"/><text fill="#000000" font-family="Verdana" font-size="14" lengthAdjust="spacing" textLength="146" x="146" y="119.8125">EvalAvsTaskManager</text><rect fill="#FFFFFF" height="31.0146" style="stroke:#000000;stroke-width:1.0;" width="160" x="139" y="597.3438"/><text fill="#000000" font-family="Verdana" font-size="14" lengthAdjust="spacing" textLength="146" x="146" y="618.4189">EvalAvsTaskManager</text><rect fill="#FFFFFF" height="31.0146" style="stroke:#000000;stroke-width:1.0;" width="131" x="384.5" y="98.7373"/><text fill="#000000" font-family="Verdana" font-size="14" lengthAdjust="spacing" textLength="117" x="391.5" y="119.8125">OriginalOperator</text><rect fill="#FFFFFF" height="31.0146" style="stroke:#000000;stroke-width:1.0;" width="131" x="384.5" y="597.3438"/><text fill="#000000" font-family="Verdana" font-size="14" lengthAdjust="spacing" textLength="117" x="391.5" y="618.4189">OriginalOperator</text><rect fill="#FFFFFF" height="31.0146" style="stroke:#000000;stroke-width:1.0;" width="105" x="565.5" y="98.7373"/><text fill="#000000" font-family="Verdana" font-size="14" lengthAdjust="spacing" textLength="91" x="572.5" y="119.8125">NewOperator</text><rect fill="#FFFFFF" height="31.0146" style="stroke:#000000;stroke-width:1.0;" width="105" x="565.5" y="597.3438"/><text fill="#000000" font-family="Verdana" font-size="14" lengthAdjust="spacing" textLength="91" x="572.5" y="618.4189">NewOperator</text><rect fill="#FFFFFF" height="31.0146" style="stroke:#000000;stroke-width:1.0;" width="99" x="803.5" y="98.7373"/><text fill="#000000" font-family="Verdana" font-size="14" lengthAdjust="spacing" textLength="85" x="810.5" y="119.8125">GoEvaluator</text><rect fill="#FFFFFF" height="31.0146" style="stroke:#000000;stroke-width:1.0;" width="99" x="803.5" y="597.3438"/><text fill="#000000" font-family="Verdana" font-size="14" lengthAdjust="spacing" textLength="85" x="810.5" y="618.4189">GoEvaluator</text><rect fill="#FFFFFF" height="164.1973" style="stroke:#000000;stroke-width:1.0;" width="10" x="214" y="198.3506"/><rect fill="#FFFFFF" height="72.5986" style="stroke:#000000;stroke-width:1.0;" width="10" x="613" y="471.9458"/><path d="M10,145.752 L10,170.752 L898,170.752 L898,155.752 L888,145.752 L10,145.752 " fill="#FFFFFF" style="stroke:#000000;stroke-width:1.0;"/><path d="M888,145.752 L888,155.752 L898,155.752 L888,145.752 " fill="#FFFFFF" style="stroke:#000000;stroke-width:1.0;"/><text fill="#000000" font-family="Verdana" font-size="13" lengthAdjust="spacing" textLength="185" x="361.75" y="163.8218">Task Reassignment Process</text><polygon fill="#000000" points="202,194.3506,212,198.3506,202,202.3506,206,198.3506" style="stroke:#000000;stroke-width:1.0;"/><line style="stroke:#000000;stroke-width:1.5;" x1="55" x2="208" y1="198.3506" y2="198.3506"/><text fill="#000000" font-family="Verdana" font-size="13" lengthAdjust="spacing" textLength="140" x="64.5" y="193.6211">reassignTask(taskId)</text><line style="stroke:#000000;stroke-width:1.5;" x1="224" x2="266" y1="228.1499" y2="228.1499"/><line style="stroke:#000000;stroke-width:1.5;" x1="266" x2="266" y1="228.1499" y2="241.1499"/><line style="stroke:#000000;stroke-width:1.5;" x1="225" x2="266" y1="241.1499" y2="241.1499"/><polygon fill="#000000" points="235,237.1499,225,241.1499,235,245.1499,231,241.1499" style="stroke:#000000;stroke-width:1.0;"/><text fill="#000000" font-family="Verdana" font-size="13" lengthAdjust="spacing" textLength="158" x="231" y="223.4204">Check if task is expired</text><line style="stroke:#000000;stroke-width:1.5;" x1="224" x2="266" y1="270.9492" y2="270.9492"/><line style="stroke:#000000;stroke-width:1.5;" x1="266" x2="266" y1="270.9492" y2="283.9492"/><line style="stroke:#000000;stroke-width:1.5;" x1="225" x2="266" y1="283.9492" y2="283.9492"/><polygon fill="#000000" points="235,279.9492,225,283.9492,235,287.9492,231,283.9492" style="stroke:#000000;stroke-width:1.0;"/><text fill="#000000" font-family="Verdana" font-size="13" lengthAdjust="spacing" textLength="201" x="231" y="266.2197">Get next operator from queue</text><line style="stroke:#000000;stroke-width:1.5;" x1="224" x2="266" y1="313.7485" y2="313.7485"/><line style="stroke:#000000;stroke-width:1.5;" x1="266" x2="266" y1="313.7485" y2="326.7485"/><line style="stroke:#000000;stroke-width:1.5;" x1="225" x2="266" y1="326.7485" y2="326.7485"/><polygon fill="#000000" points="235,322.7485,225,326.7485,235,330.7485,231,326.7485" style="stroke:#000000;stroke-width:1.0;"/><text fill="#000000" font-family="Verdana" font-size="13" lengthAdjust="spacing" textLength="207" x="231" y="309.019">Update task with new operator</text><line style="stroke:#000000;stroke-width:1.5;" x1="224" x2="266" y1="361.5479" y2="361.5479"/><line style="stroke:#000000;stroke-width:1.5;" x1="266" x2="266" y1="361.5479" y2="374.5479"/><line style="stroke:#000000;stroke-width:1.5;" x1="219" x2="266" y1="374.5479" y2="374.5479"/><polygon fill="#000000" points="229,370.5479,219,374.5479,229,378.5479,225,374.5479" style="stroke:#000000;stroke-width:1.0;"/><text fill="#000000" font-family="Verdana" font-size="13" lengthAdjust="spacing" textLength="180" x="231" y="356.8184">Emit EvalReassigned Event</text><polygon fill="#000000" points="438,395.3472,448,399.3472,438,403.3472,442,399.3472" style="stroke:#000000;stroke-width:1.0;"/><line style="stroke:#000000;stroke-width:1.5;stroke-dasharray:2.0,2.0;" x1="219" x2="444" y1="399.3472" y2="399.3472"/><text fill="#000000" font-family="Verdana" font-size="13" lengthAdjust="spacing" textLength="145" x="262" y="394.6177">EvalReassigned Event</text><line style="stroke:#000000;stroke-width:1.5;" x1="450" x2="492" y1="429.1465" y2="429.1465"/><line style="stroke:#000000;stroke-width:1.5;" x1="492" x2="492" y1="429.1465" y2="442.1465"/><line style="stroke:#000000;stroke-width:1.5;" x1="451" x2="492" y1="442.1465" y2="442.1465"/><polygon fill="#000000" points="461,438.1465,451,442.1465,461,446.1465,457,442.1465" style="stroke:#000000;stroke-width:1.0;"/><text fill="#000000" font-family="Verdana" font-size="13" lengthAdjust="spacing" textLength="153" x="457" y="424.417">Cancel task processing</text><polygon fill="#000000" points="601,467.9458,611,471.9458,601,475.9458,605,471.9458" style="stroke:#000000;stroke-width:1.0;"/><line style="stroke:#000000;stroke-width:1.5;stroke-dasharray:2.0,2.0;" x1="219" x2="607" y1="471.9458" y2="471.9458"/><text fill="#000000" font-family="Verdana" font-size="13" lengthAdjust="spacing" textLength="145" x="343.5" y="467.2163">EvalReassigned Event</text><line style="stroke:#000000;stroke-width:1.5;" x1="623" x2="665" y1="501.7451" y2="501.7451"/><line style="stroke:#000000;stroke-width:1.5;" x1="665" x2="665" y1="501.7451" y2="514.7451"/><line style="stroke:#000000;stroke-width:1.5;" x1="624" x2="665" y1="514.7451" y2="514.7451"/><polygon fill="#000000" points="634,510.7451,624,514.7451,634,518.7451,630,514.7451" style="stroke:#000000;stroke-width:1.0;"/><text fill="#000000" font-family="Verdana" font-size="13" lengthAdjust="spacing" textLength="211" x="630" y="497.0156">Check if new assigned operator</text><polygon fill="#000000" points="841,540.5444,851,544.5444,841,548.5444,845,544.5444" style="stroke:#000000;stroke-width:1.0;"/><line style="stroke:#000000;stroke-width:1.5;" x1="618" x2="847" y1="544.5444" y2="544.5444"/><text fill="#000000" font-family="Verdana" font-size="13" lengthAdjust="spacing" textLength="163" x="654" y="539.8149">Start evaluation process</text><path d="M623,557.5444 L623,582.5444 L915,582.5444 L915,567.5444 L905,557.5444 L623,557.5444 " fill="#FFFFFF" style="stroke:#000000;stroke-width:1.0;"/><path d="M905,557.5444 L905,567.5444 L915,567.5444 L905,557.5444 " fill="#FFFFFF" style="stroke:#000000;stroke-width:1.0;"/><text fill="#000000" font-family="Verdana" font-size="13" lengthAdjust="spacing" textLength="262" x="638" y="575.6143">Process follows normal evaluation flow</text><!--SRC=[VLJ1Rjim3BthAxXUkW7Rq0xOfOS1QP0MEtGDrkm368ksXSYI9z5nylUZuYIJapGNGHJ9H_AHr2qyOZG5HDvQuohrWMjg25gBngcuCgx5W0qiiLXLmNTEJxtr0VhQC6LwJILsbXUquOarbMl8CHHoK53g5cQRrfh2iDs2DX6Nbg16f_jWcCb1utKEbgjAj37NnHgrxoNJCyq-k-0em5qA-kH3GL9OG5FL358UnSm-oRnj2NpWscUAEGQMP5jqF4UjKwnlTvd-ZVvsv0fwz9k3_duNy0LN4gyBDCG2AGDAxrXkybO44ziCPXA2xmSsbrReFLKjQbEi12R2_TVlIh6mHx30k8BVX34UI7wolbSA2nQSYMwaQ-t__E5cjaOxMSVazu8EAmetW14oUMp_6anb7DhNbW8Avixwz77iyelwaNKcZmsVVSgcEnfcibBEixHYJVigFkVQXmjrpuClX1obTkRmvKTUqmE4lMrw_CXo_DIV4ajcZKoZyhFx6Sgqfc85feI402O2RLeJI5zrUYO69ui0Viy2bC4t84FJqLN7FwrEoUrYzOPhGUcF85SzPurXI7GTA28jej2aD5qiUemcSASjVhWCTse65rsdAEjXXqBQeK_fRpaBcatAE_6EoUT3bTtX5ENOiSJT4So_upgQiJUMOGKQ7entXzI7qGoxJyINut3xAPGrjxA74PmF3TeSf4pxcNKXS_y7]--></g></svg>