<?xml version="1.0" encoding="us-ascii" standalone="no"?><svg xmlns="http://www.w3.org/2000/svg" xmlns:xlink="http://www.w3.org/1999/xlink" contentStyleType="text/css" height="2075px" preserveAspectRatio="none" style="width:1386px;height:2075px;background:#FFFFFF;" version="1.1" viewBox="0 0 1386 2075" width="1386px" zoomAndPan="magnify"><defs/><g><text fill="#303030" font-family="Arial" font-size="16" font-weight="bold" lengthAdjust="spacing" textLength="275" x="551.75" y="38.0078">Task Creation and Assignment Flow</text><rect fill="#F8F8F8" height="163.3965" style="stroke:#000000;stroke-width:1.0;" width="10" x="291" y="212.0947"/><rect fill="#F8F8F8" height="220.1953" style="stroke:#000000;stroke-width:1.0;" width="10" x="291" y="1323.2666"/><rect fill="#F8F8F8" height="1008.5742" style="stroke:#000000;stroke-width:1.0;" width="10" x="548" y="534.8877"/><rect fill="#F8F8F8" height="362.3906" style="stroke:#000000;stroke-width:1.0;" width="10" x="754" y="758.8818"/><rect fill="none" height="247.793" rx="4" ry="4" style="stroke:#CCCCCC;stroke-width:1.0;" width="539" x="675.5" y="773.8818"/><line style="stroke:#000000;stroke-width:0.5;stroke-dasharray:5.0,5.0;" x1="38" x2="38" y1="152.4971" y2="1568.4619"/><line style="stroke:#000000;stroke-width:0.5;stroke-dasharray:5.0,5.0;" x1="296" x2="296" y1="152.4971" y2="1568.4619"/><line style="stroke:#000000;stroke-width:0.5;stroke-dasharray:5.0,5.0;" x1="552.5" x2="552.5" y1="152.4971" y2="1568.4619"/><line style="stroke:#000000;stroke-width:0.5;stroke-dasharray:5.0,5.0;" x1="758.5" x2="758.5" y1="152.4971" y2="1568.4619"/><line style="stroke:#000000;stroke-width:0.5;stroke-dasharray:5.0,5.0;" x1="941.5" x2="941.5" y1="152.4971" y2="1568.4619"/><line style="stroke:#000000;stroke-width:0.5;stroke-dasharray:5.0,5.0;" x1="1127.5" x2="1127.5" y1="152.4971" y2="1568.4619"/><line style="stroke:#000000;stroke-width:0.5;stroke-dasharray:5.0,5.0;" x1="1294.5" x2="1294.5" y1="152.4971" y2="1568.4619"/><text fill="#000000" font-family="Arial" font-size="14" font-weight="bold" lengthAdjust="spacing" textLength="44" x="13" y="141.5303">Admin</text><ellipse cx="38" cy="68.8984" fill="#FFFFFF" rx="8" ry="8" style="stroke:#454545;stroke-width:0.5;"/><path d="M38,76.8984 L38,103.8984 M25,84.8984 L51,84.8984 M38,103.8984 L25,118.8984 M38,103.8984 L51,118.8984 " fill="none" style="stroke:#454545;stroke-width:0.5;"/><text fill="#000000" font-family="Arial" font-size="14" font-weight="bold" lengthAdjust="spacing" textLength="44" x="13" y="1588.5938">Admin</text><ellipse cx="38" cy="1608.0605" fill="#FFFFFF" rx="8" ry="8" style="stroke:#454545;stroke-width:0.5;"/><path d="M38,1616.0605 L38,1643.0605 M25,1624.0605 L51,1624.0605 M38,1643.0605 L25,1658.0605 M38,1643.0605 L51,1658.0605 " fill="none" style="stroke:#454545;stroke-width:0.5;"/><rect fill="#FADBD8" height="56.4478" rx="4" ry="4" style="stroke:#943126;stroke-width:2.0;" width="162" x="215" y="95.0493"/><text fill="#000000" font-family="Arial" font-size="10" font-weight="bold" lengthAdjust="spacing" textLength="53" x="269.5" y="119.4292">&#171;Contract&#187;</text><text fill="#000000" font-family="Arial" font-size="13" font-weight="bold" lengthAdjust="spacing" textLength="132" x="230" y="133.7422">EvalAvsTaskManager</text><rect fill="#FADBD8" height="56.4478" rx="4" ry="4" style="stroke:#943126;stroke-width:2.0;" width="162" x="215" y="1567.4619"/><text fill="#000000" font-family="Arial" font-size="10" font-weight="bold" lengthAdjust="spacing" textLength="53" x="269.5" y="1591.8418">&#171;Contract&#187;</text><text fill="#000000" font-family="Arial" font-size="13" font-weight="bold" lengthAdjust="spacing" textLength="132" x="230" y="1606.1548">EvalAvsTaskManager</text><rect fill="#D6EAF8" height="56.4478" rx="4" ry="4" style="stroke:#2E86C1;stroke-width:2.0;" width="85" x="510.5" y="95.0493"/><text fill="#000000" font-family="Arial" font-size="10" font-weight="bold" lengthAdjust="spacing" textLength="55" x="525.5" y="119.4292">&#171;Operator&#187;</text><text fill="#000000" font-family="Arial" font-size="13" font-weight="bold" lengthAdjust="spacing" textLength="54" x="526" y="133.7422">Operator</text><rect fill="#D6EAF8" height="56.4478" rx="4" ry="4" style="stroke:#2E86C1;stroke-width:2.0;" width="85" x="510.5" y="1567.4619"/><text fill="#000000" font-family="Arial" font-size="10" font-weight="bold" lengthAdjust="spacing" textLength="55" x="525.5" y="1591.8418">&#171;Operator&#187;</text><text fill="#000000" font-family="Arial" font-size="13" font-weight="bold" lengthAdjust="spacing" textLength="54" x="526" y="1606.1548">Operator</text><rect fill="#D4EFDF" height="56.4478" rx="4" ry="4" style="stroke:#196F3D;stroke-width:2.0;" width="107" x="705.5" y="95.0493"/><text fill="#000000" font-family="Arial" font-size="10" font-weight="bold" lengthAdjust="spacing" textLength="59" x="729.5" y="119.4292">&#171;Evaluator&#187;</text><text fill="#000000" font-family="Arial" font-size="13" font-weight="bold" lengthAdjust="spacing" textLength="77" x="720.5" y="133.7422">GoEvaluator</text><rect fill="#D4EFDF" height="56.4478" rx="4" ry="4" style="stroke:#196F3D;stroke-width:2.0;" width="107" x="705.5" y="1567.4619"/><text fill="#000000" font-family="Arial" font-size="10" font-weight="bold" lengthAdjust="spacing" textLength="59" x="729.5" y="1591.8418">&#171;Evaluator&#187;</text><text fill="#000000" font-family="Arial" font-size="13" font-weight="bold" lengthAdjust="spacing" textLength="77" x="720.5" y="1606.1548">GoEvaluator</text><rect fill="#F5EEF8" height="56.4478" rx="4" ry="4" style="stroke:#76448A;stroke-width:2.0;" width="158" x="862.5" y="95.0493"/><text fill="#000000" font-family="Arial" font-size="10" font-weight="bold" lengthAdjust="spacing" textLength="50" x="916.5" y="119.4292">&#171;Storage&#187;</text><text fill="#000000" font-family="Arial" font-size="13" font-weight="bold" lengthAdjust="spacing" textLength="128" x="877.5" y="133.7422">Dataset Registry (S3)</text><rect fill="#F5EEF8" height="56.4478" rx="4" ry="4" style="stroke:#76448A;stroke-width:2.0;" width="158" x="862.5" y="1567.4619"/><text fill="#000000" font-family="Arial" font-size="10" font-weight="bold" lengthAdjust="spacing" textLength="50" x="916.5" y="1591.8418">&#171;Storage&#187;</text><text fill="#000000" font-family="Arial" font-size="13" font-weight="bold" lengthAdjust="spacing" textLength="128" x="877.5" y="1606.1548">Dataset Registry (S3)</text><rect fill="#FEF9E7" height="56.4478" rx="4" ry="4" style="stroke:#F1C40F;stroke-width:2.0;" width="114" x="1070.5" y="95.0493"/><text fill="#000000" font-family="Arial" font-size="10" font-weight="bold" lengthAdjust="spacing" textLength="53" x="1101" y="119.4292">&#171;External&#187;</text><text fill="#000000" font-family="Arial" font-size="13" font-weight="bold" lengthAdjust="spacing" textLength="84" x="1085.5" y="133.7422">LLM Provider</text><rect fill="#FEF9E7" height="56.4478" rx="4" ry="4" style="stroke:#F1C40F;stroke-width:2.0;" width="114" x="1070.5" y="1567.4619"/><text fill="#000000" font-family="Arial" font-size="10" font-weight="bold" lengthAdjust="spacing" textLength="53" x="1101" y="1591.8418">&#171;External&#187;</text><text fill="#000000" font-family="Arial" font-size="13" font-weight="bold" lengthAdjust="spacing" textLength="84" x="1085.5" y="1606.1548">LLM Provider</text><rect fill="#EBF5FB" height="56.4478" rx="4" ry="4" style="stroke:#3498DB;stroke-width:2.0;" width="120" x="1234.5" y="95.0493"/><text fill="#000000" font-family="Arial" font-size="10" font-weight="bold" lengthAdjust="spacing" textLength="29" x="1280" y="119.4292">&#171;API&#187;</text><text fill="#000000" font-family="Arial" font-size="13" font-weight="bold" lengthAdjust="spacing" textLength="90" x="1249.5" y="133.7422">LayerLens API</text><rect fill="#EBF5FB" height="56.4478" rx="4" ry="4" style="stroke:#3498DB;stroke-width:2.0;" width="120" x="1234.5" y="1567.4619"/><text fill="#000000" font-family="Arial" font-size="10" font-weight="bold" lengthAdjust="spacing" textLength="29" x="1280" y="1591.8418">&#171;API&#187;</text><text fill="#000000" font-family="Arial" font-size="13" font-weight="bold" lengthAdjust="spacing" textLength="90" x="1249.5" y="1606.1548">LayerLens API</text><rect fill="#F8F8F8" height="163.3965" style="stroke:#000000;stroke-width:1.0;" width="10" x="291" y="212.0947"/><rect fill="#F8F8F8" height="220.1953" style="stroke:#000000;stroke-width:1.0;" width="10" x="291" y="1323.2666"/><rect fill="#F8F8F8" height="1008.5742" style="stroke:#000000;stroke-width:1.0;" width="10" x="548" y="534.8877"/><rect fill="#F8F8F8" height="362.3906" style="stroke:#000000;stroke-width:1.0;" width="10" x="754" y="758.8818"/><polygon fill="#000000" points="279,208.0947,289,212.0947,279,216.0947,283,212.0947" style="stroke:#000000;stroke-width:1.0;"/><line style="stroke:#000000;stroke-width:1.5;" x1="38" x2="285" y1="212.0947" y2="212.0947"/><text fill="#000000" font-family="Arial" font-size="12" lengthAdjust="spacing" textLength="139" x="55.5" y="185.7529">requestEval(modelName,</text><text fill="#000000" font-family="Arial" font-size="12" lengthAdjust="spacing" textLength="3" x="194.5" y="185.7529">&#160;</text><text fill="#000000" font-family="Arial" font-size="12" lengthAdjust="spacing" textLength="76" x="197.5" y="185.7529">datasetName,</text><text fill="#000000" font-family="Arial" font-size="12" lengthAdjust="spacing" textLength="46" x="141.5" y="199.5518">subsets)</text><line style="stroke:#000000;stroke-width:1.5;" x1="301" x2="343" y1="255.8936" y2="255.8936"/><line style="stroke:#000000;stroke-width:1.5;" x1="343" x2="343" y1="255.8936" y2="268.8936"/><line style="stroke:#000000;stroke-width:1.5;" x1="302" x2="343" y1="268.8936" y2="268.8936"/><polygon fill="#000000" points="312,264.8936,302,268.8936,312,272.8936,308,268.8936" style="stroke:#000000;stroke-width:1.0;"/><text fill="#000000" font-family="Arial" font-size="12" lengthAdjust="spacing" textLength="153" x="316" y="243.3506">popNextAssignedOperator()</text><line style="stroke:#000000;stroke-width:1.5;" x1="301" x2="343" y1="312.6924" y2="312.6924"/><line style="stroke:#000000;stroke-width:1.5;" x1="343" x2="343" y1="312.6924" y2="325.6924"/><line style="stroke:#000000;stroke-width:1.5;" x1="302" x2="343" y1="325.6924" y2="325.6924"/><polygon fill="#000000" points="312,321.6924,302,325.6924,312,329.6924,308,325.6924" style="stroke:#000000;stroke-width:1.0;"/><text fill="#000000" font-family="Arial" font-size="12" lengthAdjust="spacing" textLength="37" x="316" y="300.1494">Create</text><text fill="#000000" font-family="Arial" font-size="12" lengthAdjust="spacing" textLength="3" x="353" y="300.1494">&#160;</text><text fill="#000000" font-family="Arial" font-size="12" lengthAdjust="spacing" textLength="70" x="356" y="300.1494">EvalAvsTask</text><line style="stroke:#000000;stroke-width:1.5;" x1="301" x2="343" y1="374.4912" y2="374.4912"/><line style="stroke:#000000;stroke-width:1.5;" x1="343" x2="343" y1="374.4912" y2="387.4912"/><line style="stroke:#000000;stroke-width:1.5;" x1="296" x2="343" y1="387.4912" y2="387.4912"/><polygon fill="#000000" points="306,383.4912,296,387.4912,306,391.4912,302,387.4912" style="stroke:#000000;stroke-width:1.0;"/><text fill="#000000" font-family="Arial" font-size="12" lengthAdjust="spacing" textLength="24" x="316" y="361.9482">Emit</text><text fill="#000000" font-family="Arial" font-size="12" lengthAdjust="spacing" textLength="3" x="340" y="361.9482">&#160;</text><text fill="#000000" font-family="Arial" font-size="12" lengthAdjust="spacing" textLength="84" x="343" y="361.9482">EvalRequested</text><text fill="#000000" font-family="Arial" font-size="12" lengthAdjust="spacing" textLength="3" x="427" y="361.9482">&#160;</text><text fill="#000000" font-family="Arial" font-size="12" lengthAdjust="spacing" textLength="31" x="430" y="361.9482">Event</text><line style="stroke:#000000;stroke-width:1.5;" x1="553" x2="595" y1="426.29" y2="426.29"/><line style="stroke:#000000;stroke-width:1.5;" x1="595" x2="595" y1="426.29" y2="439.29"/><line style="stroke:#000000;stroke-width:1.5;" x1="554" x2="595" y1="439.29" y2="439.29"/><polygon fill="#000000" points="564,435.29,554,439.29,564,443.29,560,439.29" style="stroke:#000000;stroke-width:1.0;"/><text fill="#000000" font-family="Arial" font-size="12" lengthAdjust="spacing" textLength="33" x="568" y="413.7471">Listen</text><text fill="#000000" font-family="Arial" font-size="12" lengthAdjust="spacing" textLength="3" x="601" y="413.7471">&#160;</text><text fill="#000000" font-family="Arial" font-size="12" lengthAdjust="spacing" textLength="14" x="604" y="413.7471">for</text><text fill="#000000" font-family="Arial" font-size="12" lengthAdjust="spacing" textLength="3" x="618" y="413.7471">&#160;</text><text fill="#000000" font-family="Arial" font-size="12" lengthAdjust="spacing" textLength="84" x="621" y="413.7471">EvalRequested</text><text fill="#000000" font-family="Arial" font-size="12" lengthAdjust="spacing" textLength="3" x="705" y="413.7471">&#160;</text><text fill="#000000" font-family="Arial" font-size="12" lengthAdjust="spacing" textLength="36" x="708" y="413.7471">events</text><polygon fill="#000000" points="541,479.0889,551,483.0889,541,487.0889,545,483.0889" style="stroke:#000000;stroke-width:1.0;"/><line style="stroke:#000000;stroke-width:1.5;" x1="296" x2="547" y1="483.0889" y2="483.0889"/><text fill="#000000" font-family="Arial" font-size="12" lengthAdjust="spacing" textLength="123" x="318.5" y="470.5459">EvalRequested(taskId,</text><text fill="#000000" font-family="Arial" font-size="12" lengthAdjust="spacing" textLength="3" x="441.5" y="470.5459">&#160;</text><text fill="#000000" font-family="Arial" font-size="12" lengthAdjust="spacing" textLength="25" x="444.5" y="470.5459">task,</text><text fill="#000000" font-family="Arial" font-size="12" lengthAdjust="spacing" textLength="3" x="469.5" y="470.5459">&#160;</text><text fill="#000000" font-family="Arial" font-size="12" lengthAdjust="spacing" textLength="58" x="472.5" y="470.5459">externalId)</text><line style="stroke:#000000;stroke-width:1.5;" x1="553" x2="600" y1="521.8877" y2="521.8877"/><line style="stroke:#000000;stroke-width:1.5;" x1="600" x2="600" y1="521.8877" y2="534.8877"/><line style="stroke:#000000;stroke-width:1.5;" x1="559" x2="600" y1="534.8877" y2="534.8877"/><polygon fill="#000000" points="569,530.8877,559,534.8877,569,538.8877,565,534.8877" style="stroke:#000000;stroke-width:1.0;"/><text fill="#000000" font-family="Arial" font-size="12" lengthAdjust="spacing" textLength="35" x="573" y="509.3447">Check</text><text fill="#000000" font-family="Arial" font-size="12" lengthAdjust="spacing" textLength="3" x="608" y="509.3447">&#160;</text><text fill="#000000" font-family="Arial" font-size="12" lengthAdjust="spacing" textLength="6" x="611" y="509.3447">if</text><text fill="#000000" font-family="Arial" font-size="12" lengthAdjust="spacing" textLength="3" x="617" y="509.3447">&#160;</text><text fill="#000000" font-family="Arial" font-size="12" lengthAdjust="spacing" textLength="50" x="620" y="509.3447">assigned</text><text fill="#000000" font-family="Arial" font-size="12" lengthAdjust="spacing" textLength="3" x="670" y="509.3447">&#160;</text><text fill="#000000" font-family="Arial" font-size="12" lengthAdjust="spacing" textLength="10" x="673" y="509.3447">to</text><text fill="#000000" font-family="Arial" font-size="12" lengthAdjust="spacing" textLength="3" x="683" y="509.3447">&#160;</text><text fill="#000000" font-family="Arial" font-size="12" lengthAdjust="spacing" textLength="22" x="686" y="509.3447">task</text><polygon fill="#000000" points="929.5,579.6865,939.5,583.6865,929.5,587.6865,933.5,583.6865" style="stroke:#000000;stroke-width:1.0;"/><line style="stroke:#000000;stroke-width:1.5;" x1="558" x2="935.5" y1="583.6865" y2="583.6865"/><text fill="#000000" font-family="Arial" font-size="12" lengthAdjust="spacing" textLength="30" x="632.25" y="571.1436">Fetch</text><text fill="#000000" font-family="Arial" font-size="12" lengthAdjust="spacing" textLength="3" x="662.25" y="571.1436">&#160;</text><text fill="#000000" font-family="Arial" font-size="12" lengthAdjust="spacing" textLength="40" x="665.25" y="571.1436">dataset</text><text fill="#000000" font-family="Arial" font-size="12" lengthAdjust="spacing" textLength="3" x="705.25" y="571.1436">&#160;</text><text fill="#000000" font-family="Arial" font-size="12" lengthAdjust="spacing" textLength="22" x="708.25" y="571.1436">files</text><text fill="#000000" font-family="Arial" font-size="12" lengthAdjust="spacing" textLength="3" x="730.25" y="571.1436">&#160;</text><text fill="#000000" font-family="Arial" font-size="12" lengthAdjust="spacing" textLength="84" x="733.25" y="571.1436">(formatted.jsonl</text><text fill="#000000" font-family="Arial" font-size="12" lengthAdjust="spacing" textLength="3" x="817.25" y="571.1436">&#160;</text><text fill="#000000" font-family="Arial" font-size="12" lengthAdjust="spacing" textLength="7" x="820.25" y="571.1436">+</text><text fill="#000000" font-family="Arial" font-size="12" lengthAdjust="spacing" textLength="3" x="827.25" y="571.1436">&#160;</text><text fill="#000000" font-family="Arial" font-size="12" lengthAdjust="spacing" textLength="37" x="830.25" y="571.1436">config)</text><polygon fill="#000000" points="569,623.4854,559,627.4854,569,631.4854,565,627.4854" style="stroke:#000000;stroke-width:1.0;"/><line style="stroke:#000000;stroke-width:1.5;stroke-dasharray:2.0,2.0;" x1="563" x2="940.5" y1="627.4854" y2="627.4854"/><text fill="#000000" font-family="Arial" font-size="12" lengthAdjust="spacing" textLength="37" x="697.25" y="614.9424">Return</text><text fill="#000000" font-family="Arial" font-size="12" lengthAdjust="spacing" textLength="3" x="734.25" y="614.9424">&#160;</text><text fill="#000000" font-family="Arial" font-size="12" lengthAdjust="spacing" textLength="40" x="737.25" y="614.9424">dataset</text><text fill="#000000" font-family="Arial" font-size="12" lengthAdjust="spacing" textLength="3" x="777.25" y="614.9424">&#160;</text><text fill="#000000" font-family="Arial" font-size="12" lengthAdjust="spacing" textLength="22" x="780.25" y="614.9424">files</text><polygon fill="#000000" points="1282.5,667.2842,1292.5,671.2842,1282.5,675.2842,1286.5,671.2842" style="stroke:#000000;stroke-width:1.0;"/><line style="stroke:#000000;stroke-width:1.5;" x1="558" x2="1288.5" y1="671.2842" y2="671.2842"/><text fill="#000000" font-family="Arial" font-size="12" lengthAdjust="spacing" textLength="46" x="829.25" y="658.7412">Request</text><text fill="#000000" font-family="Arial" font-size="12" lengthAdjust="spacing" textLength="3" x="875.25" y="658.7412">&#160;</text><text fill="#000000" font-family="Arial" font-size="12" lengthAdjust="spacing" textLength="19" x="878.25" y="658.7412">API</text><text fill="#000000" font-family="Arial" font-size="12" lengthAdjust="spacing" textLength="3" x="897.25" y="658.7412">&#160;</text><text fill="#000000" font-family="Arial" font-size="12" lengthAdjust="spacing" textLength="21" x="900.25" y="658.7412">Key</text><text fill="#000000" font-family="Arial" font-size="12" lengthAdjust="spacing" textLength="3" x="921.25" y="658.7412">&#160;</text><text fill="#000000" font-family="Arial" font-size="12" lengthAdjust="spacing" textLength="14" x="924.25" y="658.7412">for</text><text fill="#000000" font-family="Arial" font-size="12" lengthAdjust="spacing" textLength="3" x="938.25" y="658.7412">&#160;</text><text fill="#000000" font-family="Arial" font-size="12" lengthAdjust="spacing" textLength="34" x="941.25" y="658.7412">model</text><text fill="#000000" font-family="Arial" font-size="12" lengthAdjust="spacing" textLength="3" x="975.25" y="658.7412">&#160;</text><text fill="#000000" font-family="Arial" font-size="12" lengthAdjust="spacing" textLength="45" x="978.25" y="658.7412">provider</text><polygon fill="#000000" points="569,711.083,559,715.083,569,719.083,565,715.083" style="stroke:#000000;stroke-width:1.0;"/><line style="stroke:#000000;stroke-width:1.5;stroke-dasharray:2.0,2.0;" x1="563" x2="1293.5" y1="715.083" y2="715.083"/><text fill="#000000" font-family="Arial" font-size="12" lengthAdjust="spacing" textLength="37" x="884.75" y="702.54">Return</text><text fill="#000000" font-family="Arial" font-size="12" lengthAdjust="spacing" textLength="3" x="921.75" y="702.54">&#160;</text><text fill="#000000" font-family="Arial" font-size="12" lengthAdjust="spacing" textLength="19" x="924.75" y="702.54">API</text><text fill="#000000" font-family="Arial" font-size="12" lengthAdjust="spacing" textLength="3" x="943.75" y="702.54">&#160;</text><text fill="#000000" font-family="Arial" font-size="12" lengthAdjust="spacing" textLength="21" x="946.75" y="702.54">Key</text><polygon fill="#000000" points="742,754.8818,752,758.8818,742,762.8818,746,758.8818" style="stroke:#000000;stroke-width:1.0;"/><line style="stroke:#000000;stroke-width:1.5;" x1="558" x2="748" y1="758.8818" y2="758.8818"/><text fill="#000000" font-family="Arial" font-size="12" lengthAdjust="spacing" textLength="44" x="604" y="746.3389">Execute</text><text fill="#000000" font-family="Arial" font-size="12" lengthAdjust="spacing" textLength="3" x="648" y="746.3389">&#160;</text><text fill="#000000" font-family="Arial" font-size="12" lengthAdjust="spacing" textLength="57" x="651" y="746.3389">evaluation</text><path d="M679.5,773.8818 L764.5,773.8818 L764.5,796.8306 L754.5,806.8306 L675.5,806.8306 L675.5,777.8818 A4,4 0 0 1 679.5,773.8818 " fill="#EEEEEE" style="stroke:#CCCCCC;stroke-width:1.5;"/><rect fill="none" height="247.793" rx="4" ry="4" style="stroke:#CCCCCC;stroke-width:1.0;" width="539" x="675.5" y="773.8818"/><text fill="#000000" font-family="Arial" font-size="13" font-weight="bold" lengthAdjust="spacing" textLength="28" x="698.5" y="795.0757">loop</text><text fill="#000000" font-family="Arial" font-size="11" font-weight="bold" lengthAdjust="spacing" textLength="151" x="787.5" y="794.1997">[For each prompt in dataset]</text><polygon fill="#000000" points="1115.5,852.2783,1125.5,856.2783,1115.5,860.2783,1119.5,856.2783" style="stroke:#000000;stroke-width:1.0;"/><line style="stroke:#000000;stroke-width:1.5;" x1="764" x2="1121.5" y1="856.2783" y2="856.2783"/><text fill="#000000" font-family="Arial" font-size="12" lengthAdjust="spacing" textLength="29" x="910.75" y="843.7354">Send</text><text fill="#000000" font-family="Arial" font-size="12" lengthAdjust="spacing" textLength="3" x="939.75" y="843.7354">&#160;</text><text fill="#000000" font-family="Arial" font-size="12" lengthAdjust="spacing" textLength="38" x="942.75" y="843.7354">prompt</text><polygon fill="#000000" points="775,896.0771,765,900.0771,775,904.0771,771,900.0771" style="stroke:#000000;stroke-width:1.0;"/><line style="stroke:#000000;stroke-width:1.5;stroke-dasharray:2.0,2.0;" x1="769" x2="1126.5" y1="900.0771" y2="900.0771"/><text fill="#000000" font-family="Arial" font-size="12" lengthAdjust="spacing" textLength="37" x="900.25" y="887.5342">Return</text><text fill="#000000" font-family="Arial" font-size="12" lengthAdjust="spacing" textLength="3" x="937.25" y="887.5342">&#160;</text><text fill="#000000" font-family="Arial" font-size="12" lengthAdjust="spacing" textLength="51" x="940.25" y="887.5342">response</text><line style="stroke:#000000;stroke-width:1.5;" x1="764" x2="806" y1="943.876" y2="943.876"/><line style="stroke:#000000;stroke-width:1.5;" x1="806" x2="806" y1="943.876" y2="956.876"/><line style="stroke:#000000;stroke-width:1.5;" x1="765" x2="806" y1="956.876" y2="956.876"/><polygon fill="#000000" points="775,952.876,765,956.876,775,960.876,771,956.876" style="stroke:#000000;stroke-width:1.0;"/><text fill="#000000" font-family="Arial" font-size="12" lengthAdjust="spacing" textLength="32" x="779" y="931.333">Score</text><text fill="#000000" font-family="Arial" font-size="12" lengthAdjust="spacing" textLength="3" x="811" y="931.333">&#160;</text><text fill="#000000" font-family="Arial" font-size="12" lengthAdjust="spacing" textLength="51" x="814" y="931.333">response</text><line style="stroke:#000000;stroke-width:1.5;" x1="764" x2="806" y1="1000.6748" y2="1000.6748"/><line style="stroke:#000000;stroke-width:1.5;" x1="806" x2="806" y1="1000.6748" y2="1013.6748"/><line style="stroke:#000000;stroke-width:1.5;" x1="765" x2="806" y1="1013.6748" y2="1013.6748"/><polygon fill="#000000" points="775,1009.6748,765,1013.6748,775,1017.6748,771,1013.6748" style="stroke:#000000;stroke-width:1.0;"/><text fill="#000000" font-family="Arial" font-size="12" lengthAdjust="spacing" textLength="29" x="779" y="988.1318">Hash</text><text fill="#000000" font-family="Arial" font-size="12" lengthAdjust="spacing" textLength="3" x="808" y="988.1318">&#160;</text><text fill="#000000" font-family="Arial" font-size="12" lengthAdjust="spacing" textLength="51" x="811" y="988.1318">response</text><text fill="#000000" font-family="Arial" font-size="12" lengthAdjust="spacing" textLength="3" x="862" y="988.1318">&#160;</text><text fill="#000000" font-family="Arial" font-size="12" lengthAdjust="spacing" textLength="34" x="865" y="988.1318">(MD5)</text><line style="stroke:#000000;stroke-width:1.5;" x1="764" x2="806" y1="1064.4736" y2="1064.4736"/><line style="stroke:#000000;stroke-width:1.5;" x1="806" x2="806" y1="1064.4736" y2="1077.4736"/><line style="stroke:#000000;stroke-width:1.5;" x1="765" x2="806" y1="1077.4736" y2="1077.4736"/><polygon fill="#000000" points="775,1073.4736,765,1077.4736,775,1081.4736,771,1077.4736" style="stroke:#000000;stroke-width:1.0;"/><text fill="#000000" font-family="Arial" font-size="12" lengthAdjust="spacing" textLength="51" x="779" y="1051.9307">Generate</text><text fill="#000000" font-family="Arial" font-size="12" lengthAdjust="spacing" textLength="3" x="830" y="1051.9307">&#160;</text><text fill="#000000" font-family="Arial" font-size="12" lengthAdjust="spacing" textLength="54" x="833" y="1051.9307">combined</text><text fill="#000000" font-family="Arial" font-size="12" lengthAdjust="spacing" textLength="3" x="887" y="1051.9307">&#160;</text><text fill="#000000" font-family="Arial" font-size="12" lengthAdjust="spacing" textLength="27" x="890" y="1051.9307">hash</text><polygon fill="#000000" points="569,1117.2725,559,1121.2725,569,1125.2725,565,1121.2725" style="stroke:#000000;stroke-width:1.0;"/><line style="stroke:#000000;stroke-width:1.5;stroke-dasharray:2.0,2.0;" x1="563" x2="758" y1="1121.2725" y2="1121.2725"/><text fill="#000000" font-family="Arial" font-size="12" lengthAdjust="spacing" textLength="37" x="593.5" y="1108.7295">Return</text><text fill="#000000" font-family="Arial" font-size="12" lengthAdjust="spacing" textLength="3" x="630.5" y="1108.7295">&#160;</text><text fill="#000000" font-family="Arial" font-size="12" lengthAdjust="spacing" textLength="36" x="633.5" y="1108.7295">results</text><text fill="#000000" font-family="Arial" font-size="12" lengthAdjust="spacing" textLength="3" x="669.5" y="1108.7295">&#160;</text><text fill="#000000" font-family="Arial" font-size="12" lengthAdjust="spacing" textLength="21" x="672.5" y="1108.7295">and</text><text fill="#000000" font-family="Arial" font-size="12" lengthAdjust="spacing" textLength="3" x="693.5" y="1108.7295">&#160;</text><text fill="#000000" font-family="Arial" font-size="12" lengthAdjust="spacing" textLength="27" x="696.5" y="1108.7295">hash</text><polygon fill="#000000" points="1282.5,1161.0713,1292.5,1165.0713,1282.5,1169.0713,1286.5,1165.0713" style="stroke:#000000;stroke-width:1.0;"/><line style="stroke:#000000;stroke-width:1.5;" x1="558" x2="1288.5" y1="1165.0713" y2="1165.0713"/><text fill="#000000" font-family="Arial" font-size="12" lengthAdjust="spacing" textLength="28" x="869.25" y="1152.5283">Save</text><text fill="#000000" font-family="Arial" font-size="12" lengthAdjust="spacing" textLength="3" x="897.25" y="1152.5283">&#160;</text><text fill="#000000" font-family="Arial" font-size="12" lengthAdjust="spacing" textLength="44" x="900.25" y="1152.5283">detailed</text><text fill="#000000" font-family="Arial" font-size="12" lengthAdjust="spacing" textLength="3" x="944.25" y="1152.5283">&#160;</text><text fill="#000000" font-family="Arial" font-size="12" lengthAdjust="spacing" textLength="36" x="947.25" y="1152.5283">results</text><polygon fill="#000000" points="569,1204.8701,559,1208.8701,569,1212.8701,565,1208.8701" style="stroke:#000000;stroke-width:1.0;"/><line style="stroke:#000000;stroke-width:1.5;stroke-dasharray:2.0,2.0;" x1="563" x2="1293.5" y1="1208.8701" y2="1208.8701"/><text fill="#000000" font-family="Arial" font-size="12" lengthAdjust="spacing" textLength="43" x="890.25" y="1196.3271">Confirm</text><text fill="#000000" font-family="Arial" font-size="12" lengthAdjust="spacing" textLength="3" x="933.25" y="1196.3271">&#160;</text><text fill="#000000" font-family="Arial" font-size="12" lengthAdjust="spacing" textLength="26" x="936.25" y="1196.3271">save</text><line style="stroke:#000000;stroke-width:1.5;" x1="558" x2="600" y1="1252.6689" y2="1252.6689"/><line style="stroke:#000000;stroke-width:1.5;" x1="600" x2="600" y1="1252.6689" y2="1265.6689"/><line style="stroke:#000000;stroke-width:1.5;" x1="559" x2="600" y1="1265.6689" y2="1265.6689"/><polygon fill="#000000" points="569,1261.6689,559,1265.6689,569,1269.6689,565,1265.6689" style="stroke:#000000;stroke-width:1.0;"/><text fill="#000000" font-family="Arial" font-size="12" lengthAdjust="spacing" textLength="51" x="573" y="1240.126">Generate</text><text fill="#000000" font-family="Arial" font-size="12" lengthAdjust="spacing" textLength="3" x="624" y="1240.126">&#160;</text><text fill="#000000" font-family="Arial" font-size="12" lengthAdjust="spacing" textLength="23" x="627" y="1240.126">BLS</text><text fill="#000000" font-family="Arial" font-size="12" lengthAdjust="spacing" textLength="3" x="650" y="1240.126">&#160;</text><text fill="#000000" font-family="Arial" font-size="12" lengthAdjust="spacing" textLength="51" x="653" y="1240.126">signature</text><polygon fill="#000000" points="312,1319.2666,302,1323.2666,312,1327.2666,308,1323.2666" style="stroke:#000000;stroke-width:1.0;"/><line style="stroke:#000000;stroke-width:1.5;" x1="306" x2="547" y1="1323.2666" y2="1323.2666"/><text fill="#000000" font-family="Arial" font-size="12" lengthAdjust="spacing" textLength="168" x="324" y="1296.9248">respondToEvalRequest(taskId,</text><text fill="#000000" font-family="Arial" font-size="12" lengthAdjust="spacing" textLength="3" x="492" y="1296.9248">&#160;</text><text fill="#000000" font-family="Arial" font-size="12" lengthAdjust="spacing" textLength="30" x="495" y="1296.9248">hash,</text><text fill="#000000" font-family="Arial" font-size="12" lengthAdjust="spacing" textLength="55" x="397" y="1310.7236">signature)</text><line style="stroke:#000000;stroke-width:1.5;" x1="301" x2="343" y1="1367.0654" y2="1367.0654"/><line style="stroke:#000000;stroke-width:1.5;" x1="343" x2="343" y1="1367.0654" y2="1380.0654"/><line style="stroke:#000000;stroke-width:1.5;" x1="302" x2="343" y1="1380.0654" y2="1380.0654"/><polygon fill="#000000" points="312,1376.0654,302,1380.0654,312,1384.0654,308,1380.0654" style="stroke:#000000;stroke-width:1.0;"/><text fill="#000000" font-family="Arial" font-size="12" lengthAdjust="spacing" textLength="31" x="316" y="1354.5225">Verify</text><text fill="#000000" font-family="Arial" font-size="12" lengthAdjust="spacing" textLength="3" x="347" y="1354.5225">&#160;</text><text fill="#000000" font-family="Arial" font-size="12" lengthAdjust="spacing" textLength="51" x="350" y="1354.5225">signature</text><line style="stroke:#000000;stroke-width:1.5;" x1="301" x2="343" y1="1423.8643" y2="1423.8643"/><line style="stroke:#000000;stroke-width:1.5;" x1="343" x2="343" y1="1423.8643" y2="1436.8643"/><line style="stroke:#000000;stroke-width:1.5;" x1="302" x2="343" y1="1436.8643" y2="1436.8643"/><polygon fill="#000000" points="312,1432.8643,302,1436.8643,312,1440.8643,308,1436.8643" style="stroke:#000000;stroke-width:1.0;"/><text fill="#000000" font-family="Arial" font-size="12" lengthAdjust="spacing" textLength="40" x="316" y="1411.3213">Update</text><text fill="#000000" font-family="Arial" font-size="12" lengthAdjust="spacing" textLength="3" x="356" y="1411.3213">&#160;</text><text fill="#000000" font-family="Arial" font-size="12" lengthAdjust="spacing" textLength="22" x="359" y="1411.3213">task</text><text fill="#000000" font-family="Arial" font-size="12" lengthAdjust="spacing" textLength="3" x="381" y="1411.3213">&#160;</text><text fill="#000000" font-family="Arial" font-size="12" lengthAdjust="spacing" textLength="26" x="384" y="1411.3213">state</text><text fill="#000000" font-family="Arial" font-size="12" lengthAdjust="spacing" textLength="3" x="410" y="1411.3213">&#160;</text><text fill="#000000" font-family="Arial" font-size="12" lengthAdjust="spacing" textLength="10" x="413" y="1411.3213">to</text><text fill="#000000" font-family="Arial" font-size="12" lengthAdjust="spacing" textLength="3" x="423" y="1411.3213">&#160;</text><text fill="#000000" font-family="Arial" font-size="12" lengthAdjust="spacing" textLength="69" x="426" y="1411.3213">SUBMITTED</text><line style="stroke:#000000;stroke-width:1.5;" x1="301" x2="343" y1="1480.6631" y2="1480.6631"/><line style="stroke:#000000;stroke-width:1.5;" x1="343" x2="343" y1="1480.6631" y2="1493.6631"/><line style="stroke:#000000;stroke-width:1.5;" x1="302" x2="343" y1="1493.6631" y2="1493.6631"/><polygon fill="#000000" points="312,1489.6631,302,1493.6631,312,1497.6631,308,1493.6631" style="stroke:#000000;stroke-width:1.0;"/><text fill="#000000" font-family="Arial" font-size="12" lengthAdjust="spacing" textLength="22" x="316" y="1468.1201">Add</text><text fill="#000000" font-family="Arial" font-size="12" lengthAdjust="spacing" textLength="3" x="338" y="1468.1201">&#160;</text><text fill="#000000" font-family="Arial" font-size="12" lengthAdjust="spacing" textLength="46" x="341" y="1468.1201">operator</text><text fill="#000000" font-family="Arial" font-size="12" lengthAdjust="spacing" textLength="3" x="387" y="1468.1201">&#160;</text><text fill="#000000" font-family="Arial" font-size="12" lengthAdjust="spacing" textLength="26" x="390" y="1468.1201">back</text><text fill="#000000" font-family="Arial" font-size="12" lengthAdjust="spacing" textLength="3" x="416" y="1468.1201">&#160;</text><text fill="#000000" font-family="Arial" font-size="12" lengthAdjust="spacing" textLength="10" x="419" y="1468.1201">to</text><text fill="#000000" font-family="Arial" font-size="12" lengthAdjust="spacing" textLength="3" x="429" y="1468.1201">&#160;</text><text fill="#000000" font-family="Arial" font-size="12" lengthAdjust="spacing" textLength="63" x="432" y="1468.1201">assignment</text><text fill="#000000" font-family="Arial" font-size="12" lengthAdjust="spacing" textLength="3" x="495" y="1468.1201">&#160;</text><text fill="#000000" font-family="Arial" font-size="12" lengthAdjust="spacing" textLength="35" x="498" y="1468.1201">queue</text><line style="stroke:#000000;stroke-width:1.5;" x1="301" x2="343" y1="1542.4619" y2="1542.4619"/><line style="stroke:#000000;stroke-width:1.5;" x1="343" x2="343" y1="1542.4619" y2="1555.4619"/><line style="stroke:#000000;stroke-width:1.5;" x1="296" x2="343" y1="1555.4619" y2="1555.4619"/><polygon fill="#000000" points="306,1551.4619,296,1555.4619,306,1559.4619,302,1555.4619" style="stroke:#000000;stroke-width:1.0;"/><text fill="#000000" font-family="Arial" font-size="12" lengthAdjust="spacing" textLength="24" x="316" y="1529.9189">Emit</text><text fill="#000000" font-family="Arial" font-size="12" lengthAdjust="spacing" textLength="3" x="340" y="1529.9189">&#160;</text><text fill="#000000" font-family="Arial" font-size="12" lengthAdjust="spacing" textLength="84" x="343" y="1529.9189">EvalCompleted</text><text fill="#000000" font-family="Arial" font-size="12" lengthAdjust="spacing" textLength="3" x="427" y="1529.9189">&#160;</text><text fill="#000000" font-family="Arial" font-size="12" lengthAdjust="spacing" textLength="31" x="430" y="1529.9189">Event</text><rect fill="none" height="383.085" id="_legend" rx="4" ry="4" style="stroke:#000000;stroke-width:1.0;" width="355" x="1011.5" y="1672.5605"/><text fill="#000000" font-family="Arial" font-size="14" font-weight="bold" lengthAdjust="spacing" textLength="78" x="1036.5" y="1708.6924">Entity Type</text><text fill="#000000" font-family="Arial" font-size="14" font-weight="bold" lengthAdjust="spacing" textLength="79" x="1138.5" y="1708.6924">Description</text><rect fill="#E9F7EF" height="32.0986" style="stroke:none;stroke-width:1.0;" width="102" x="1024.5" y="1719.6592"/><text fill="#000000" font-family="Arial" font-size="14" lengthAdjust="spacing" textLength="4" x="1032.5" y="1740.791">&#160;</text><text fill="#000000" font-family="Arial" font-size="14" lengthAdjust="spacing" textLength="203" x="1138.5" y="1740.791">Frontend - Web/UI Components</text><rect fill="#EBF5FB" height="32.0986" style="stroke:none;stroke-width:1.0;" width="102" x="1024.5" y="1751.7578"/><text fill="#000000" font-family="Arial" font-size="14" lengthAdjust="spacing" textLength="4" x="1032.5" y="1772.8896">&#160;</text><text fill="#000000" font-family="Arial" font-size="14" lengthAdjust="spacing" textLength="148" x="1138.5" y="1772.8896">API - Backend Services</text><rect fill="#F9EBEA" height="32.0986" style="stroke:none;stroke-width:1.0;" width="102" x="1024.5" y="1783.8564"/><text fill="#000000" font-family="Arial" font-size="14" lengthAdjust="spacing" textLength="4" x="1032.5" y="1804.9883">&#160;</text><text fill="#000000" font-family="Arial" font-size="14" lengthAdjust="spacing" textLength="190" x="1138.5" y="1804.9883">Auth - Authentication Services</text><rect fill="#F4ECF7" height="32.0986" style="stroke:none;stroke-width:1.0;" width="102" x="1024.5" y="1815.9551"/><text fill="#000000" font-family="Arial" font-size="14" lengthAdjust="spacing" textLength="4" x="1032.5" y="1837.0869">&#160;</text><text fill="#000000" font-family="Arial" font-size="14" lengthAdjust="spacing" textLength="158" x="1138.5" y="1837.0869">Database - Data Storage</text><rect fill="#FEF9E7" height="32.0986" style="stroke:none;stroke-width:1.0;" width="102" x="1024.5" y="1848.0537"/><text fill="#000000" font-family="Arial" font-size="14" lengthAdjust="spacing" textLength="4" x="1032.5" y="1869.1855">&#160;</text><text fill="#000000" font-family="Arial" font-size="14" lengthAdjust="spacing" textLength="181" x="1138.5" y="1869.1855">External - 3rd Party Services</text><rect fill="#FADBD8" height="32.0986" style="stroke:none;stroke-width:1.0;" width="102" x="1024.5" y="1880.1523"/><text fill="#000000" font-family="Arial" font-size="14" lengthAdjust="spacing" textLength="4" x="1032.5" y="1901.2842">&#160;</text><text fill="#000000" font-family="Arial" font-size="14" lengthAdjust="spacing" textLength="170" x="1138.5" y="1901.2842">Contract - Smart Contracts</text><rect fill="#FCF3CF" height="32.0986" style="stroke:none;stroke-width:1.0;" width="102" x="1024.5" y="1912.251"/><text fill="#000000" font-family="Arial" font-size="14" lengthAdjust="spacing" textLength="4" x="1032.5" y="1933.3828">&#160;</text><text fill="#000000" font-family="Arial" font-size="14" lengthAdjust="spacing" textLength="168" x="1138.5" y="1933.3828">Queue - Message Queues</text><rect fill="#D6EAF8" height="32.0986" style="stroke:none;stroke-width:1.0;" width="102" x="1024.5" y="1944.3496"/><text fill="#000000" font-family="Arial" font-size="14" lengthAdjust="spacing" textLength="4" x="1032.5" y="1965.4814">&#160;</text><text fill="#000000" font-family="Arial" font-size="14" lengthAdjust="spacing" textLength="171" x="1138.5" y="1965.4814">Operator - Validator Nodes</text><rect fill="#D4EFDF" height="32.0986" style="stroke:none;stroke-width:1.0;" width="102" x="1024.5" y="1976.4482"/><text fill="#000000" font-family="Arial" font-size="14" lengthAdjust="spacing" textLength="4" x="1032.5" y="1997.5801">&#160;</text><text fill="#000000" font-family="Arial" font-size="14" lengthAdjust="spacing" textLength="197" x="1138.5" y="1997.5801">Evaluator - Evaluation Services</text><rect fill="#F5EEF8" height="32.0986" style="stroke:none;stroke-width:1.0;" width="102" x="1024.5" y="2008.5469"/><text fill="#000000" font-family="Arial" font-size="14" lengthAdjust="spacing" textLength="4" x="1032.5" y="2029.6787">&#160;</text><text fill="#000000" font-family="Arial" font-size="14" lengthAdjust="spacing" textLength="171" x="1138.5" y="2029.6787">Storage - Storage Services</text><line style="stroke:#000000;stroke-width:1.0;" x1="1024.5" x2="1353.5" y1="1687.5605" y2="1687.5605"/><line style="stroke:#000000;stroke-width:1.0;" x1="1024.5" x2="1353.5" y1="1719.6592" y2="1719.6592"/><line style="stroke:#000000;stroke-width:1.0;" x1="1024.5" x2="1353.5" y1="1751.7578" y2="1751.7578"/><line style="stroke:#000000;stroke-width:1.0;" x1="1024.5" x2="1353.5" y1="1783.8564" y2="1783.8564"/><line style="stroke:#000000;stroke-width:1.0;" x1="1024.5" x2="1353.5" y1="1815.9551" y2="1815.9551"/><line style="stroke:#000000;stroke-width:1.0;" x1="1024.5" x2="1353.5" y1="1848.0537" y2="1848.0537"/><line style="stroke:#000000;stroke-width:1.0;" x1="1024.5" x2="1353.5" y1="1880.1523" y2="1880.1523"/><line style="stroke:#000000;stroke-width:1.0;" x1="1024.5" x2="1353.5" y1="1912.251" y2="1912.251"/><line style="stroke:#000000;stroke-width:1.0;" x1="1024.5" x2="1353.5" y1="1944.3496" y2="1944.3496"/><line style="stroke:#000000;stroke-width:1.0;" x1="1024.5" x2="1353.5" y1="1976.4482" y2="1976.4482"/><line style="stroke:#000000;stroke-width:1.0;" x1="1024.5" x2="1353.5" y1="2008.5469" y2="2008.5469"/><line style="stroke:#000000;stroke-width:1.0;" x1="1024.5" x2="1353.5" y1="2040.6455" y2="2040.6455"/><line style="stroke:#000000;stroke-width:1.0;" x1="1024.5" x2="1024.5" y1="1687.5605" y2="2040.6455"/><line style="stroke:#000000;stroke-width:1.0;" x1="1126.5" x2="1126.5" y1="1687.5605" y2="2040.6455"/><line style="stroke:#000000;stroke-width:1.0;" x1="1353.5" x2="1353.5" y1="1687.5605" y2="2040.6455"/><!--SRC=[dLLTRzem57tthxZhoq23QbtL5rHLelHZQD2XXkxTZI_48x4pss5bltxNXe13AQk61B7ZSywzlbzya2hDAu6GwgBGgclTAiVJiYfonZx2c4lbw0jM5mYsn5JEP0ffPPqkv1_kf5OMPjg0owG58VdSy8BPXLGbfnNaKg5RbGZQk4n71nDkd4nboPMRS26aciENpz5vWhygL2bUwvVw_2m-xnkZVqypcIuKMWjdfnUCEUboX2ct2nWO3Cu1LmBwrigvAb0vkClrRyPuwiZblYYaOkNE4JYvNVAylxHUOimLdwCv0MuXsiFbvK0hPqZYwgf9_bwYuIGSAFM6yFLo7t-llRbgIudsnDgkzsatt76B3XvnBgqpAsWbv-qWa9mJBo4AERhF6et6C35wASNcJlu5MNbnQ1JFNy7v2iq8ARdzoJ3WwKbu-YKeOo5sqBsAGzC3uvDcdNUzLMY1-GCli0DYxV5wOwjdMjksJu9SSeUn18iZlQzUwl81NzmwcoZgiBRQHrcX4X2Yp1w5tnRI1V3Z-YueQ4ULmmGUT9Xj4qrAzRe78qeDgj0PJJ7qOdRVXHsnWMvHt1P3qG7_x01kaZKKRVQMuK66wGBaZ5As3XCu7UYxUDVWXa9oteCxT6bMPmjcCaSBBRf2mHqvS_hJQfN39veKQYRdRKRbrctOVaHN6TKKQ1YXwl6eSBjGKDzm5M8KYWNAJNqoVtHGUiDfY4PjG-5xmRIYE-Bw5Kq0jhjuX6IvrYNSaGAbDVEMYzA1t3hFW3vnGv8XwfWUpIKQA6jumFWswkvxiV7Me2rfFk8XiGO-IRN1zyE_SfjjqT0Qtroq6Rd5Zd7kKVcGXJd_B7rTPAJIf1oAE9cfScV370sCg0_YUBxESyAN20BfxoCdQnkT0waT-78o1LZ2lrdMM_UlHmdumkRa7JR0UvF8HqTCTTHFssxoz-ZiLFvZ5Fr08sUho95ZuATIU6rl7QmBImt9q_LuE9tUtXobzeK0NT_ncLDd4vNl_ixeNXM-RvuDg6Hp_ESyYrxNmVqB]--></g></svg>