<?xml version="1.0" encoding="us-ascii" standalone="no"?><svg xmlns="http://www.w3.org/2000/svg" xmlns:xlink="http://www.w3.org/1999/xlink" contentStyleType="text/css" height="1477px" preserveAspectRatio="none" style="width:1224px;height:1477px;background:#FFFFFF;" version="1.1" viewBox="0 0 1224 1477" width="1224px" zoomAndPan="magnify"><defs/><g><text fill="#303030" font-family="Arial" font-size="16" font-weight="bold" lengthAdjust="spacing" textLength="204" x="506.25" y="38.0078">Operator Registration Flow</text><rect fill="#FFFFFF" height="412.1895" style="stroke:#CCCCCC;stroke-width:1.0;" width="10" x="68" y="589.8364"/><rect fill="#FFFFFF" height="144.3965" style="stroke:#CCCCCC;stroke-width:1.0;" width="10" x="240" y="249.2446"/><rect fill="#FFFFFF" height="100.5977" style="stroke:#CCCCCC;stroke-width:1.0;" width="10" x="240" y="437.4399"/><line style="stroke:#CCCCCC;stroke-width:0.5;stroke-dasharray:5.0,5.0;" x1="73" x2="73" y1="152.4971" y2="1070.9746"/><line style="stroke:#CCCCCC;stroke-width:0.5;stroke-dasharray:5.0,5.0;" x1="244.5" x2="244.5" y1="152.4971" y2="1070.9746"/><line style="stroke:#CCCCCC;stroke-width:0.5;stroke-dasharray:5.0,5.0;" x1="485.5" x2="485.5" y1="152.4971" y2="1070.9746"/><line style="stroke:#CCCCCC;stroke-width:0.5;stroke-dasharray:5.0,5.0;" x1="677.5" x2="677.5" y1="152.4971" y2="1070.9746"/><line style="stroke:#CCCCCC;stroke-width:0.5;stroke-dasharray:5.0,5.0;" x1="898.5" x2="898.5" y1="152.4971" y2="1070.9746"/><line style="stroke:#CCCCCC;stroke-width:0.5;stroke-dasharray:5.0,5.0;" x1="1110.5" x2="1110.5" y1="152.4971" y2="1070.9746"/><text fill="#000000" font-family="Arial" font-size="14" font-weight="bold" lengthAdjust="spacing" textLength="60" x="40" y="141.5303">Operator</text><ellipse cx="73" cy="68.8984" fill="#FFFFFF" rx="8" ry="8" style="stroke:#454545;stroke-width:0.5;"/><path d="M73,76.8984 L73,103.8984 M60,84.8984 L86,84.8984 M73,103.8984 L60,118.8984 M73,103.8984 L86,118.8984 " fill="none" style="stroke:#454545;stroke-width:0.5;"/><rect fill="#EBF5FB" height="56.4478" rx="4" ry="4" style="stroke:#3498DB;stroke-width:2.0;" width="109" x="190.5" y="95.0493"/><text fill="#000000" font-family="Arial" font-size="10" font-weight="bold" lengthAdjust="spacing" textLength="29" x="230.5" y="119.4292">&#171;API&#187;</text><text fill="#000000" font-family="Arial" font-size="13" font-weight="bold" lengthAdjust="spacing" textLength="79" x="205.5" y="133.7422">Operator CLI</text><rect fill="#F5EEF8" height="56.4478" rx="4" ry="4" style="stroke:#76448A;stroke-width:2.0;" width="105" x="433.5" y="95.0493"/><text fill="#000000" font-family="Arial" font-size="10" font-weight="bold" lengthAdjust="spacing" textLength="50" x="461" y="119.4292">&#171;Storage&#187;</text><text fill="#000000" font-family="Arial" font-size="13" font-weight="bold" lengthAdjust="spacing" textLength="75" x="448.5" y="133.7422">Config Files</text><rect fill="#FADBD8" height="56.4478" rx="4" ry="4" style="stroke:#943126;stroke-width:2.0;" width="179" x="588.5" y="95.0493"/><text fill="#000000" font-family="Arial" font-size="10" font-weight="bold" lengthAdjust="spacing" textLength="53" x="651.5" y="119.4292">&#171;Contract&#187;</text><text fill="#000000" font-family="Arial" font-size="13" font-weight="bold" lengthAdjust="spacing" textLength="149" x="603.5" y="133.7422">EvalAvsServiceManager</text><rect fill="#FADBD8" height="56.4478" rx="4" ry="4" style="stroke:#943126;stroke-width:2.0;" width="162" x="817.5" y="95.0493"/><text fill="#000000" font-family="Arial" font-size="10" font-weight="bold" lengthAdjust="spacing" textLength="53" x="872" y="119.4292">&#171;Contract&#187;</text><text fill="#000000" font-family="Arial" font-size="13" font-weight="bold" lengthAdjust="spacing" textLength="132" x="832.5" y="133.7422">EvalAvsTaskManager</text><rect fill="#FADBD8" height="56.4478" rx="4" ry="4" style="stroke:#943126;stroke-width:2.0;" width="163" x="1029.5" y="95.0493"/><text fill="#000000" font-family="Arial" font-size="10" font-weight="bold" lengthAdjust="spacing" textLength="53" x="1084.5" y="119.4292">&#171;Contract&#187;</text><text fill="#000000" font-family="Arial" font-size="13" font-weight="bold" lengthAdjust="spacing" textLength="133" x="1044.5" y="133.7422">EigenLayer Contracts</text><rect fill="#FFFFFF" height="412.1895" style="stroke:#CCCCCC;stroke-width:1.0;" width="10" x="68" y="589.8364"/><rect fill="#FFFFFF" height="144.3965" style="stroke:#CCCCCC;stroke-width:1.0;" width="10" x="240" y="249.2446"/><rect fill="#FFFFFF" height="100.5977" style="stroke:#CCCCCC;stroke-width:1.0;" width="10" x="240" y="437.4399"/><path d="M5,171.4971 L5,203.4971 A4,4 0 0 0 9,207.4971 L1176,207.4971 A4,4 0 0 0 1180,203.4971 L1180,177.4971 L1170,167.4971 L9,167.4971 A4,4 0 0 0 5,171.4971 " fill="#FFFFDD" style="stroke:#999999;stroke-width:1.0;"/><path d="M1170,167.4971 L1170,175.4971 A2,2 0 0 0 1172,177.4971 L1180,177.4971 L1170,167.4971 " fill="#FFFFDD" style="stroke:#999999;stroke-width:1.0;"/><text fill="#000000" font-family="Arial" font-size="13" lengthAdjust="spacing" textLength="186" x="499.75" y="192.6909">Operator Setup and Registration</text><polygon fill="#000000" points="228,245.2446,238,249.2446,228,253.2446,232,249.2446" style="stroke:#000000;stroke-width:1.0;"/><line style="stroke:#000000;stroke-width:1.5;" x1="73" x2="234" y1="249.2446" y2="249.2446"/><text fill="#000000" font-family="Arial" font-size="12" lengthAdjust="spacing" textLength="18" x="109.5" y="236.7017">run</text><text fill="#000000" font-family="Arial" font-size="12" lengthAdjust="spacing" textLength="3" x="127.5" y="236.7017">&#160;</text><text fill="#000000" font-family="Arial" font-size="12" lengthAdjust="spacing" textLength="16" x="130.5" y="236.7017">init</text><text fill="#000000" font-family="Arial" font-size="12" lengthAdjust="spacing" textLength="3" x="146.5" y="236.7017">&#160;</text><text fill="#000000" font-family="Arial" font-size="12" lengthAdjust="spacing" textLength="54" x="149.5" y="236.7017">command</text><line style="stroke:#000000;stroke-width:1.5;" x1="250" x2="292" y1="293.0435" y2="293.0435"/><line style="stroke:#000000;stroke-width:1.5;" x1="292" x2="292" y1="293.0435" y2="306.0435"/><line style="stroke:#000000;stroke-width:1.5;" x1="251" x2="292" y1="306.0435" y2="306.0435"/><polygon fill="#000000" points="261,302.0435,251,306.0435,261,310.0435,257,306.0435" style="stroke:#000000;stroke-width:1.0;"/><text fill="#000000" font-family="Arial" font-size="12" lengthAdjust="spacing" textLength="78" x="265" y="280.5005">Generate/load</text><text fill="#000000" font-family="Arial" font-size="12" lengthAdjust="spacing" textLength="3" x="343" y="280.5005">&#160;</text><text fill="#000000" font-family="Arial" font-size="12" lengthAdjust="spacing" textLength="42" x="346" y="280.5005">ECDSA</text><text fill="#000000" font-family="Arial" font-size="12" lengthAdjust="spacing" textLength="3" x="388" y="280.5005">&#160;</text><text fill="#000000" font-family="Arial" font-size="12" lengthAdjust="spacing" textLength="21" x="391" y="280.5005">and</text><text fill="#000000" font-family="Arial" font-size="12" lengthAdjust="spacing" textLength="3" x="412" y="280.5005">&#160;</text><text fill="#000000" font-family="Arial" font-size="12" lengthAdjust="spacing" textLength="23" x="415" y="280.5005">BLS</text><text fill="#000000" font-family="Arial" font-size="12" lengthAdjust="spacing" textLength="3" x="438" y="280.5005">&#160;</text><text fill="#000000" font-family="Arial" font-size="12" lengthAdjust="spacing" textLength="25" x="441" y="280.5005">keys</text><polygon fill="#000000" points="474,345.8423,484,349.8423,474,353.8423,478,349.8423" style="stroke:#000000;stroke-width:1.0;"/><line style="stroke:#000000;stroke-width:1.5;" x1="250" x2="480" y1="349.8423" y2="349.8423"/><text fill="#000000" font-family="Arial" font-size="12" lengthAdjust="spacing" textLength="37" x="319" y="337.2993">Create</text><text fill="#000000" font-family="Arial" font-size="12" lengthAdjust="spacing" textLength="3" x="356" y="337.2993">&#160;</text><text fill="#000000" font-family="Arial" font-size="12" lengthAdjust="spacing" textLength="33" x="359" y="337.2993">config</text><text fill="#000000" font-family="Arial" font-size="12" lengthAdjust="spacing" textLength="3" x="392" y="337.2993">&#160;</text><text fill="#000000" font-family="Arial" font-size="12" lengthAdjust="spacing" textLength="22" x="395" y="337.2993">files</text><polygon fill="#000000" points="84,389.6411,74,393.6411,84,397.6411,80,393.6411" style="stroke:#000000;stroke-width:1.0;"/><line style="stroke:#000000;stroke-width:1.5;stroke-dasharray:2.0,2.0;" x1="78" x2="244" y1="393.6411" y2="393.6411"/><text fill="#000000" font-family="Arial" font-size="12" lengthAdjust="spacing" textLength="74" x="95.5" y="381.0981">Configuration</text><text fill="#000000" font-family="Arial" font-size="12" lengthAdjust="spacing" textLength="3" x="169.5" y="381.0981">&#160;</text><text fill="#000000" font-family="Arial" font-size="12" lengthAdjust="spacing" textLength="50" x="172.5" y="381.0981">complete</text><polygon fill="#000000" points="228,433.4399,238,437.4399,228,441.4399,232,437.4399" style="stroke:#000000;stroke-width:1.0;"/><line style="stroke:#000000;stroke-width:1.5;" x1="73" x2="234" y1="437.4399" y2="437.4399"/><text fill="#000000" font-family="Arial" font-size="12" lengthAdjust="spacing" textLength="18" x="111" y="424.897">run</text><text fill="#000000" font-family="Arial" font-size="12" lengthAdjust="spacing" textLength="3" x="129" y="424.897">&#160;</text><text fill="#000000" font-family="Arial" font-size="12" lengthAdjust="spacing" textLength="37" x="132" y="424.897">docker</text><text fill="#000000" font-family="Arial" font-size="12" lengthAdjust="spacing" textLength="3" x="169" y="424.897">&#160;</text><text fill="#000000" font-family="Arial" font-size="12" lengthAdjust="spacing" textLength="30" x="172" y="424.897">setup</text><line style="stroke:#000000;stroke-width:1.5;" x1="250" x2="292" y1="481.2388" y2="481.2388"/><line style="stroke:#000000;stroke-width:1.5;" x1="292" x2="292" y1="481.2388" y2="494.2388"/><line style="stroke:#000000;stroke-width:1.5;" x1="251" x2="292" y1="494.2388" y2="494.2388"/><polygon fill="#000000" points="261,490.2388,251,494.2388,261,498.2388,257,494.2388" style="stroke:#000000;stroke-width:1.0;"/><text fill="#000000" font-family="Arial" font-size="12" lengthAdjust="spacing" textLength="51" x="265" y="468.6958">Generate</text><text fill="#000000" font-family="Arial" font-size="12" lengthAdjust="spacing" textLength="3" x="316" y="468.6958">&#160;</text><text fill="#000000" font-family="Arial" font-size="12" lengthAdjust="spacing" textLength="91" x="319" y="468.6958">docker-compose</text><text fill="#000000" font-family="Arial" font-size="12" lengthAdjust="spacing" textLength="3" x="410" y="468.6958">&#160;</text><text fill="#000000" font-family="Arial" font-size="12" lengthAdjust="spacing" textLength="22" x="413" y="468.6958">files</text><polygon fill="#000000" points="84,534.0376,74,538.0376,84,542.0376,80,538.0376" style="stroke:#000000;stroke-width:1.0;"/><line style="stroke:#000000;stroke-width:1.5;stroke-dasharray:2.0,2.0;" x1="78" x2="244" y1="538.0376" y2="538.0376"/><text fill="#000000" font-family="Arial" font-size="12" lengthAdjust="spacing" textLength="39" x="96.5" y="525.4946">Docker</text><text fill="#000000" font-family="Arial" font-size="12" lengthAdjust="spacing" textLength="3" x="135.5" y="525.4946">&#160;</text><text fill="#000000" font-family="Arial" font-size="12" lengthAdjust="spacing" textLength="30" x="138.5" y="525.4946">setup</text><text fill="#000000" font-family="Arial" font-size="12" lengthAdjust="spacing" textLength="3" x="168.5" y="525.4946">&#160;</text><text fill="#000000" font-family="Arial" font-size="12" lengthAdjust="spacing" textLength="50" x="171.5" y="525.4946">complete</text><line style="stroke:#000000;stroke-width:1.5;" x1="73" x2="120" y1="576.8364" y2="576.8364"/><line style="stroke:#000000;stroke-width:1.5;" x1="120" x2="120" y1="576.8364" y2="589.8364"/><line style="stroke:#000000;stroke-width:1.5;" x1="79" x2="120" y1="589.8364" y2="589.8364"/><polygon fill="#000000" points="89,585.8364,79,589.8364,89,593.8364,85,589.8364" style="stroke:#000000;stroke-width:1.0;"/><text fill="#000000" font-family="Arial" font-size="12" lengthAdjust="spacing" textLength="25" x="93" y="564.2935">Start</text><text fill="#000000" font-family="Arial" font-size="12" lengthAdjust="spacing" textLength="3" x="118" y="564.2935">&#160;</text><text fill="#000000" font-family="Arial" font-size="12" lengthAdjust="spacing" textLength="46" x="121" y="564.2935">operator</text><text fill="#000000" font-family="Arial" font-size="12" lengthAdjust="spacing" textLength="3" x="167" y="564.2935">&#160;</text><text fill="#000000" font-family="Arial" font-size="12" lengthAdjust="spacing" textLength="28" x="170" y="564.2935">node</text><polygon fill="#000000" points="1099,634.6353,1109,638.6353,1099,642.6353,1103,638.6353" style="stroke:#000000;stroke-width:1.0;"/><line style="stroke:#000000;stroke-width:1.5;" x1="78" x2="1105" y1="638.6353" y2="638.6353"/><text fill="#000000" font-family="Arial" font-size="12" lengthAdjust="spacing" textLength="46" x="470.5" y="626.0923">Register</text><text fill="#000000" font-family="Arial" font-size="12" lengthAdjust="spacing" textLength="3" x="516.5" y="626.0923">&#160;</text><text fill="#000000" font-family="Arial" font-size="12" lengthAdjust="spacing" textLength="22" x="519.5" y="626.0923">with</text><text fill="#000000" font-family="Arial" font-size="12" lengthAdjust="spacing" textLength="3" x="541.5" y="626.0923">&#160;</text><text fill="#000000" font-family="Arial" font-size="12" lengthAdjust="spacing" textLength="63" x="544.5" y="626.0923">EigenLayer</text><text fill="#000000" font-family="Arial" font-size="12" lengthAdjust="spacing" textLength="3" x="607.5" y="626.0923">&#160;</text><text fill="#000000" font-family="Arial" font-size="12" lengthAdjust="spacing" textLength="76" x="610.5" y="626.0923">(ECDSA+BLS</text><text fill="#000000" font-family="Arial" font-size="12" lengthAdjust="spacing" textLength="3" x="686.5" y="626.0923">&#160;</text><text fill="#000000" font-family="Arial" font-size="12" lengthAdjust="spacing" textLength="29" x="689.5" y="626.0923">keys)</text><polygon fill="#000000" points="89,678.4341,79,682.4341,89,686.4341,85,682.4341" style="stroke:#000000;stroke-width:1.0;"/><line style="stroke:#000000;stroke-width:1.5;stroke-dasharray:2.0,2.0;" x1="83" x2="1110" y1="682.4341" y2="682.4341"/><text fill="#000000" font-family="Arial" font-size="12" lengthAdjust="spacing" textLength="66" x="533" y="669.8911">Registration</text><text fill="#000000" font-family="Arial" font-size="12" lengthAdjust="spacing" textLength="3" x="599" y="669.8911">&#160;</text><text fill="#000000" font-family="Arial" font-size="12" lengthAdjust="spacing" textLength="54" x="602" y="669.8911">confirmed</text><polygon fill="#000000" points="666,722.2329,676,726.2329,666,730.2329,670,726.2329" style="stroke:#000000;stroke-width:1.0;"/><line style="stroke:#000000;stroke-width:1.5;" x1="78" x2="672" y1="726.2329" y2="726.2329"/><text fill="#000000" font-family="Arial" font-size="12" lengthAdjust="spacing" textLength="46" x="274" y="713.6899">Register</text><text fill="#000000" font-family="Arial" font-size="12" lengthAdjust="spacing" textLength="3" x="320" y="713.6899">&#160;</text><text fill="#000000" font-family="Arial" font-size="12" lengthAdjust="spacing" textLength="22" x="323" y="713.6899">with</text><text fill="#000000" font-family="Arial" font-size="12" lengthAdjust="spacing" textLength="3" x="345" y="713.6899">&#160;</text><text fill="#000000" font-family="Arial" font-size="12" lengthAdjust="spacing" textLength="134" x="348" y="713.6899">EvalAvsServiceManager</text><polygon fill="#000000" points="1099,766.0317,1109,770.0317,1099,774.0317,1103,770.0317" style="stroke:#000000;stroke-width:1.0;"/><line style="stroke:#000000;stroke-width:1.5;" x1="678" x2="1105" y1="770.0317" y2="770.0317"/><text fill="#000000" font-family="Arial" font-size="12" lengthAdjust="spacing" textLength="31" x="847" y="757.4888">Verify</text><text fill="#000000" font-family="Arial" font-size="12" lengthAdjust="spacing" textLength="3" x="878" y="757.4888">&#160;</text><text fill="#000000" font-family="Arial" font-size="12" lengthAdjust="spacing" textLength="61" x="881" y="757.4888">registration</text><polygon fill="#000000" points="689,809.8306,679,813.8306,689,817.8306,685,813.8306" style="stroke:#000000;stroke-width:1.0;"/><line style="stroke:#000000;stroke-width:1.5;stroke-dasharray:2.0,2.0;" x1="683" x2="1110" y1="813.8306" y2="813.8306"/><text fill="#000000" font-family="Arial" font-size="12" lengthAdjust="spacing" textLength="43" x="841" y="801.2876">Confirm</text><text fill="#000000" font-family="Arial" font-size="12" lengthAdjust="spacing" textLength="3" x="884" y="801.2876">&#160;</text><text fill="#000000" font-family="Arial" font-size="12" lengthAdjust="spacing" textLength="61" x="887" y="801.2876">registration</text><polygon fill="#000000" points="89,853.6294,79,857.6294,89,861.6294,85,857.6294" style="stroke:#000000;stroke-width:1.0;"/><line style="stroke:#000000;stroke-width:1.5;stroke-dasharray:2.0,2.0;" x1="83" x2="677" y1="857.6294" y2="857.6294"/><text fill="#000000" font-family="Arial" font-size="12" lengthAdjust="spacing" textLength="24" x="305.5" y="845.0864">AVS</text><text fill="#000000" font-family="Arial" font-size="12" lengthAdjust="spacing" textLength="3" x="329.5" y="845.0864">&#160;</text><text fill="#000000" font-family="Arial" font-size="12" lengthAdjust="spacing" textLength="61" x="332.5" y="845.0864">registration</text><text fill="#000000" font-family="Arial" font-size="12" lengthAdjust="spacing" textLength="3" x="393.5" y="845.0864">&#160;</text><text fill="#000000" font-family="Arial" font-size="12" lengthAdjust="spacing" textLength="54" x="396.5" y="845.0864">confirmed</text><polygon fill="#000000" points="886.5,897.4282,896.5,901.4282,886.5,905.4282,890.5,901.4282" style="stroke:#000000;stroke-width:1.0;"/><line style="stroke:#000000;stroke-width:1.5;" x1="78" x2="892.5" y1="901.4282" y2="901.4282"/><text fill="#000000" font-family="Arial" font-size="12" lengthAdjust="spacing" textLength="129" x="423.75" y="888.8853">joinAssignmentQueue()</text><line style="stroke:#000000;stroke-width:1.5;" x1="898.5" x2="940.5" y1="945.2271" y2="945.2271"/><line style="stroke:#000000;stroke-width:1.5;" x1="940.5" x2="940.5" y1="945.2271" y2="958.2271"/><line style="stroke:#000000;stroke-width:1.5;" x1="899.5" x2="940.5" y1="958.2271" y2="958.2271"/><polygon fill="#000000" points="909.5,954.2271,899.5,958.2271,909.5,962.2271,905.5,958.2271" style="stroke:#000000;stroke-width:1.0;"/><text fill="#000000" font-family="Arial" font-size="12" lengthAdjust="spacing" textLength="22" x="913.5" y="932.6841">Add</text><text fill="#000000" font-family="Arial" font-size="12" lengthAdjust="spacing" textLength="3" x="935.5" y="932.6841">&#160;</text><text fill="#000000" font-family="Arial" font-size="12" lengthAdjust="spacing" textLength="46" x="938.5" y="932.6841">operator</text><text fill="#000000" font-family="Arial" font-size="12" lengthAdjust="spacing" textLength="3" x="984.5" y="932.6841">&#160;</text><text fill="#000000" font-family="Arial" font-size="12" lengthAdjust="spacing" textLength="10" x="987.5" y="932.6841">to</text><text fill="#000000" font-family="Arial" font-size="12" lengthAdjust="spacing" textLength="3" x="997.5" y="932.6841">&#160;</text><text fill="#000000" font-family="Arial" font-size="12" lengthAdjust="spacing" textLength="35" x="1000.5" y="932.6841">queue</text><polygon fill="#000000" points="84,998.0259,74,1002.0259,84,1006.0259,80,1002.0259" style="stroke:#000000;stroke-width:1.0;"/><line style="stroke:#000000;stroke-width:1.5;stroke-dasharray:2.0,2.0;" x1="78" x2="897.5" y1="1002.0259" y2="1002.0259"/><text fill="#000000" font-family="Arial" font-size="12" lengthAdjust="spacing" textLength="68" x="414.25" y="989.4829">Successfully</text><text fill="#000000" font-family="Arial" font-size="12" lengthAdjust="spacing" textLength="3" x="482.25" y="989.4829">&#160;</text><text fill="#000000" font-family="Arial" font-size="12" lengthAdjust="spacing" textLength="34" x="485.25" y="989.4829">joined</text><text fill="#000000" font-family="Arial" font-size="12" lengthAdjust="spacing" textLength="3" x="519.25" y="989.4829">&#160;</text><text fill="#000000" font-family="Arial" font-size="12" lengthAdjust="spacing" textLength="35" x="522.25" y="989.4829">queue</text><path d="M5,1019.0259 L5,1051.0259 A4,4 0 0 0 9,1055.0259 L1176,1055.0259 A4,4 0 0 0 1180,1051.0259 L1180,1025.0259 L1170,1015.0259 L9,1015.0259 A4,4 0 0 0 5,1019.0259 " fill="#FFFFDD" style="stroke:#999999;stroke-width:1.0;"/><path d="M1170,1015.0259 L1170,1023.0259 A2,2 0 0 0 1172,1025.0259 L1180,1025.0259 L1170,1015.0259 " fill="#FFFFDD" style="stroke:#999999;stroke-width:1.0;"/><text fill="#000000" font-family="Arial" font-size="13" lengthAdjust="spacing" textLength="228" x="478.75" y="1040.2197">Operator is now ready to execute tasks</text><rect fill="none" height="383.085" id="_legend" rx="4" ry="4" style="stroke:#000000;stroke-width:1.0;" width="355" x="849.5" y="1073.9746"/><text fill="#000000" font-family="Arial" font-size="14" font-weight="bold" lengthAdjust="spacing" textLength="78" x="874.5" y="1110.1064">Entity Type</text><text fill="#000000" font-family="Arial" font-size="14" font-weight="bold" lengthAdjust="spacing" textLength="79" x="976.5" y="1110.1064">Description</text><rect fill="#E9F7EF" height="32.0986" style="stroke:none;stroke-width:1.0;" width="102" x="862.5" y="1121.0732"/><text fill="#000000" font-family="Arial" font-size="14" lengthAdjust="spacing" textLength="4" x="870.5" y="1142.2051">&#160;</text><text fill="#000000" font-family="Arial" font-size="14" lengthAdjust="spacing" textLength="203" x="976.5" y="1142.2051">Frontend - Web/UI Components</text><rect fill="#EBF5FB" height="32.0986" style="stroke:none;stroke-width:1.0;" width="102" x="862.5" y="1153.1719"/><text fill="#000000" font-family="Arial" font-size="14" lengthAdjust="spacing" textLength="4" x="870.5" y="1174.3037">&#160;</text><text fill="#000000" font-family="Arial" font-size="14" lengthAdjust="spacing" textLength="148" x="976.5" y="1174.3037">API - Backend Services</text><rect fill="#F9EBEA" height="32.0986" style="stroke:none;stroke-width:1.0;" width="102" x="862.5" y="1185.2705"/><text fill="#000000" font-family="Arial" font-size="14" lengthAdjust="spacing" textLength="4" x="870.5" y="1206.4023">&#160;</text><text fill="#000000" font-family="Arial" font-size="14" lengthAdjust="spacing" textLength="190" x="976.5" y="1206.4023">Auth - Authentication Services</text><rect fill="#F4ECF7" height="32.0986" style="stroke:none;stroke-width:1.0;" width="102" x="862.5" y="1217.3691"/><text fill="#000000" font-family="Arial" font-size="14" lengthAdjust="spacing" textLength="4" x="870.5" y="1238.501">&#160;</text><text fill="#000000" font-family="Arial" font-size="14" lengthAdjust="spacing" textLength="158" x="976.5" y="1238.501">Database - Data Storage</text><rect fill="#FEF9E7" height="32.0986" style="stroke:none;stroke-width:1.0;" width="102" x="862.5" y="1249.4678"/><text fill="#000000" font-family="Arial" font-size="14" lengthAdjust="spacing" textLength="4" x="870.5" y="1270.5996">&#160;</text><text fill="#000000" font-family="Arial" font-size="14" lengthAdjust="spacing" textLength="181" x="976.5" y="1270.5996">External - 3rd Party Services</text><rect fill="#FADBD8" height="32.0986" style="stroke:none;stroke-width:1.0;" width="102" x="862.5" y="1281.5664"/><text fill="#000000" font-family="Arial" font-size="14" lengthAdjust="spacing" textLength="4" x="870.5" y="1302.6982">&#160;</text><text fill="#000000" font-family="Arial" font-size="14" lengthAdjust="spacing" textLength="170" x="976.5" y="1302.6982">Contract - Smart Contracts</text><rect fill="#FCF3CF" height="32.0986" style="stroke:none;stroke-width:1.0;" width="102" x="862.5" y="1313.665"/><text fill="#000000" font-family="Arial" font-size="14" lengthAdjust="spacing" textLength="4" x="870.5" y="1334.7969">&#160;</text><text fill="#000000" font-family="Arial" font-size="14" lengthAdjust="spacing" textLength="168" x="976.5" y="1334.7969">Queue - Message Queues</text><rect fill="#D6EAF8" height="32.0986" style="stroke:none;stroke-width:1.0;" width="102" x="862.5" y="1345.7637"/><text fill="#000000" font-family="Arial" font-size="14" lengthAdjust="spacing" textLength="4" x="870.5" y="1366.8955">&#160;</text><text fill="#000000" font-family="Arial" font-size="14" lengthAdjust="spacing" textLength="171" x="976.5" y="1366.8955">Operator - Validator Nodes</text><rect fill="#D4EFDF" height="32.0986" style="stroke:none;stroke-width:1.0;" width="102" x="862.5" y="1377.8623"/><text fill="#000000" font-family="Arial" font-size="14" lengthAdjust="spacing" textLength="4" x="870.5" y="1398.9941">&#160;</text><text fill="#000000" font-family="Arial" font-size="14" lengthAdjust="spacing" textLength="197" x="976.5" y="1398.9941">Evaluator - Evaluation Services</text><rect fill="#F5EEF8" height="32.0986" style="stroke:none;stroke-width:1.0;" width="102" x="862.5" y="1409.9609"/><text fill="#000000" font-family="Arial" font-size="14" lengthAdjust="spacing" textLength="4" x="870.5" y="1431.0928">&#160;</text><text fill="#000000" font-family="Arial" font-size="14" lengthAdjust="spacing" textLength="171" x="976.5" y="1431.0928">Storage - Storage Services</text><line style="stroke:#000000;stroke-width:1.0;" x1="862.5" x2="1191.5" y1="1088.9746" y2="1088.9746"/><line style="stroke:#000000;stroke-width:1.0;" x1="862.5" x2="1191.5" y1="1121.0732" y2="1121.0732"/><line style="stroke:#000000;stroke-width:1.0;" x1="862.5" x2="1191.5" y1="1153.1719" y2="1153.1719"/><line style="stroke:#000000;stroke-width:1.0;" x1="862.5" x2="1191.5" y1="1185.2705" y2="1185.2705"/><line style="stroke:#000000;stroke-width:1.0;" x1="862.5" x2="1191.5" y1="1217.3691" y2="1217.3691"/><line style="stroke:#000000;stroke-width:1.0;" x1="862.5" x2="1191.5" y1="1249.4678" y2="1249.4678"/><line style="stroke:#000000;stroke-width:1.0;" x1="862.5" x2="1191.5" y1="1281.5664" y2="1281.5664"/><line style="stroke:#000000;stroke-width:1.0;" x1="862.5" x2="1191.5" y1="1313.665" y2="1313.665"/><line style="stroke:#000000;stroke-width:1.0;" x1="862.5" x2="1191.5" y1="1345.7637" y2="1345.7637"/><line style="stroke:#000000;stroke-width:1.0;" x1="862.5" x2="1191.5" y1="1377.8623" y2="1377.8623"/><line style="stroke:#000000;stroke-width:1.0;" x1="862.5" x2="1191.5" y1="1409.9609" y2="1409.9609"/><line style="stroke:#000000;stroke-width:1.0;" x1="862.5" x2="1191.5" y1="1442.0596" y2="1442.0596"/><line style="stroke:#000000;stroke-width:1.0;" x1="862.5" x2="862.5" y1="1088.9746" y2="1442.0596"/><line style="stroke:#000000;stroke-width:1.0;" x1="964.5" x2="964.5" y1="1088.9746" y2="1442.0596"/><line style="stroke:#000000;stroke-width:1.0;" x1="1191.5" x2="1191.5" y1="1088.9746" y2="1442.0596"/><!--SRC=[ZLH1Rjim4Bpp5TjScg1rsXJenJ0CA4vI171Gjmfo9yYrlBL4AYHbHtrzAScoI3LkSp1iQsUumvbTlICbyaeY25qKMasigtEyBAiYP-mzF71Ipd_0wWB1bYXeJG94PPqkw3Ttf9M5jJRWDcH14iyCBvZTaYgv_mKvANHrYQ2Ds-YWiEB6aQ2IAxVYKfBAuClde9xYSuLAuBL-wUjNOJqnHkyVDoIs2gs5gyklZ3boESBt4WrtNj9FpCWwqug4krpl6UEYAVG8LWuYuEp8Moplpu3RvXjcisHrFv_7o8LMQyhWZdAq7R9xC9kbdiyp71DkTpnFTZP5ioE13rnvZ6cPyID_WZ_AInRkn16Ft6v3Vl3_NsJAK2rvxK4zf1CU528sKzhvp7OucFKn04y7arDqLGbSoSXknew0oRmnSWgcKa2AN3je7jzaGJlks_WoQxpkaTzGDLpyb6ikuNPnaoPjW-jb2bkixH7SkZw5XS7c6D65i6vIwI0UqykO7j3LOHoyY397XqnYfEDrtLABhRV2DdVzl-u3VDBqq1PFAhe9JdsRe86REfylwBwcjCH1s76-GswONXULxxqdjmc7uBnr-qFlz0KBQh7uQBbQwqs1CfOR3_TVRLzR2ZPQY97m9pIqhi64epQIE6wwwBJ5d76Nw6h9KngXJrqlsBqf_DAa4cifKmKgzwF22iylMBYUOqOYvH2Wq_3SS69677abX7_LhQiyhzjsA0-SO6IEqRzzW_rxM-czlp6NTQC3Nr1Kdkky4li7]--></g></svg>