<?xml version="1.0" encoding="us-ascii" standalone="no"?><svg xmlns="http://www.w3.org/2000/svg" xmlns:xlink="http://www.w3.org/1999/xlink" contentStyleType="text/css" height="1265px" preserveAspectRatio="none" style="width:972px;height:1265px;background:#FFFFFF;" version="1.1" viewBox="0 0 972 1265" width="972px" zoomAndPan="magnify"><defs/><g><text fill="#303030" font-family="Arial" font-size="16" font-weight="bold" lengthAdjust="spacing" textLength="219" x="372.75" y="37.8516">Task Reassignment Flow</text><rect fill="#F8F8F8" height="234.8438" style="stroke:#000000;stroke-width:1.0;" width="10" x="206.5" y="198.8906"/><rect fill="#F8F8F8" height="100.9375" style="stroke:#000000;stroke-width:1.0;" width="10" x="638" y="585.6406"/><line style="stroke:#000000;stroke-width:0.5;stroke-dasharray:5.0,5.0;" x1="40" x2="40" y1="152.9219" y2="755.7109"/><line style="stroke:#000000;stroke-width:0.5;stroke-dasharray:5.0,5.0;" x1="211" x2="211" y1="152.9219" y2="755.7109"/><line style="stroke:#000000;stroke-width:0.5;stroke-dasharray:5.0,5.0;" x1="447.5" x2="447.5" y1="152.9219" y2="755.7109"/><line style="stroke:#000000;stroke-width:0.5;stroke-dasharray:5.0,5.0;" x1="642.5" x2="642.5" y1="152.9219" y2="755.7109"/><line style="stroke:#000000;stroke-width:0.5;stroke-dasharray:5.0,5.0;" x1="880.5" x2="880.5" y1="152.9219" y2="755.7109"/><text fill="#000000" font-family="Arial" font-size="14" font-weight="bold" lengthAdjust="spacing" textLength="49" x="13" y="141.6201">Admin</text><ellipse cx="40.5" cy="69.125" fill="#FFFFFF" rx="8" ry="8" style="stroke:#454545;stroke-width:0.5;"/><path d="M40.5,77.125 L40.5,104.125 M27.5,85.125 L53.5,85.125 M40.5,104.125 L27.5,119.125 M40.5,104.125 L53.5,119.125 " fill="none" style="stroke:#454545;stroke-width:0.5;"/><text fill="#000000" font-family="Arial" font-size="14" font-weight="bold" lengthAdjust="spacing" textLength="49" x="13" y="775.7061">Admin</text><ellipse cx="40.5" cy="795.5078" fill="#FFFFFF" rx="8" ry="8" style="stroke:#454545;stroke-width:0.5;"/><path d="M40.5,803.5078 L40.5,830.5078 M27.5,811.5078 L53.5,811.5078 M40.5,830.5078 L27.5,845.5078 M40.5,830.5078 L53.5,845.5078 " fill="none" style="stroke:#454545;stroke-width:0.5;"/><rect fill="#FADBD8" height="56.7734" rx="4" ry="4" style="stroke:#943126;stroke-width:2.0;" width="185" x="119" y="95.1484"/><text fill="#000000" font-family="Arial" font-size="10" font-weight="bold" lengthAdjust="spacing" textLength="61" x="181" y="119.4307">&#171;Contract&#187;</text><text fill="#000000" font-family="Arial" font-size="13" font-weight="bold" lengthAdjust="spacing" textLength="155" x="134" y="133.856">EvalAvsTaskManager</text><rect fill="#FADBD8" height="56.7734" rx="4" ry="4" style="stroke:#943126;stroke-width:2.0;" width="185" x="119" y="754.7109"/><text fill="#000000" font-family="Arial" font-size="10" font-weight="bold" lengthAdjust="spacing" textLength="61" x="181" y="778.9932">&#171;Contract&#187;</text><text fill="#000000" font-family="Arial" font-size="13" font-weight="bold" lengthAdjust="spacing" textLength="155" x="134" y="793.4185">EvalAvsTaskManager</text><rect fill="#D6EAF8" height="56.7734" rx="4" ry="4" style="stroke:#2E86C1;stroke-width:2.0;" width="158" x="368.5" y="95.1484"/><text fill="#000000" font-family="Arial" font-size="10" font-weight="bold" lengthAdjust="spacing" textLength="63" x="416" y="119.4307">&#171;Operator&#187;</text><text fill="#000000" font-family="Arial" font-size="13" font-weight="bold" lengthAdjust="spacing" textLength="128" x="383.5" y="133.856">Original Operator</text><rect fill="#D6EAF8" height="56.7734" rx="4" ry="4" style="stroke:#2E86C1;stroke-width:2.0;" width="158" x="368.5" y="754.7109"/><text fill="#000000" font-family="Arial" font-size="10" font-weight="bold" lengthAdjust="spacing" textLength="63" x="416" y="778.9932">&#171;Operator&#187;</text><text fill="#000000" font-family="Arial" font-size="13" font-weight="bold" lengthAdjust="spacing" textLength="128" x="383.5" y="793.4185">Original Operator</text><rect fill="#D6EAF8" height="56.7734" rx="4" ry="4" style="stroke:#2E86C1;stroke-width:2.0;" width="133" x="576.5" y="95.1484"/><text fill="#000000" font-family="Arial" font-size="10" font-weight="bold" lengthAdjust="spacing" textLength="63" x="611.5" y="119.4307">&#171;Operator&#187;</text><text fill="#000000" font-family="Arial" font-size="13" font-weight="bold" lengthAdjust="spacing" textLength="103" x="591.5" y="133.856">New Operator</text><rect fill="#D6EAF8" height="56.7734" rx="4" ry="4" style="stroke:#2E86C1;stroke-width:2.0;" width="133" x="576.5" y="754.7109"/><text fill="#000000" font-family="Arial" font-size="10" font-weight="bold" lengthAdjust="spacing" textLength="63" x="611.5" y="778.9932">&#171;Operator&#187;</text><text fill="#000000" font-family="Arial" font-size="13" font-weight="bold" lengthAdjust="spacing" textLength="103" x="591.5" y="793.4185">New Operator</text><rect fill="#D4EFDF" height="56.7734" rx="4" ry="4" style="stroke:#196F3D;stroke-width:2.0;" width="119" x="821.5" y="95.1484"/><text fill="#000000" font-family="Arial" font-size="10" font-weight="bold" lengthAdjust="spacing" textLength="66" x="848" y="119.4307">&#171;Evaluator&#187;</text><text fill="#000000" font-family="Arial" font-size="13" font-weight="bold" lengthAdjust="spacing" textLength="89" x="836.5" y="133.856">GoEvaluator</text><rect fill="#D4EFDF" height="56.7734" rx="4" ry="4" style="stroke:#196F3D;stroke-width:2.0;" width="119" x="821.5" y="754.7109"/><text fill="#000000" font-family="Arial" font-size="10" font-weight="bold" lengthAdjust="spacing" textLength="66" x="848" y="778.9932">&#171;Evaluator&#187;</text><text fill="#000000" font-family="Arial" font-size="13" font-weight="bold" lengthAdjust="spacing" textLength="89" x="836.5" y="793.4185">GoEvaluator</text><rect fill="#F8F8F8" height="234.8438" style="stroke:#000000;stroke-width:1.0;" width="10" x="206.5" y="198.8906"/><rect fill="#F8F8F8" height="100.9375" style="stroke:#000000;stroke-width:1.0;" width="10" x="638" y="585.6406"/><polygon fill="#000000" points="194.5,194.8906,204.5,198.8906,194.5,202.8906,198.5,198.8906" style="stroke:#000000;stroke-width:1.0;"/><line style="stroke:#000000;stroke-width:1.5;" x1="40.5" x2="200.5" y1="198.8906" y2="198.8906"/><text fill="#000000" font-family="Arial" font-size="12" lengthAdjust="spacing" textLength="131" x="58" y="186.0605">reassignTask(taskId)</text><line style="stroke:#000000;stroke-width:1.5;" x1="216.5" x2="258.5" y1="242.8594" y2="242.8594"/><line style="stroke:#000000;stroke-width:1.5;" x1="258.5" x2="258.5" y1="242.8594" y2="255.8594"/><line style="stroke:#000000;stroke-width:1.5;" x1="217.5" x2="258.5" y1="255.8594" y2="255.8594"/><polygon fill="#000000" points="227.5,251.8594,217.5,255.8594,227.5,259.8594,223.5,255.8594" style="stroke:#000000;stroke-width:1.0;"/><text fill="#000000" font-family="Arial" font-size="12" lengthAdjust="spacing" textLength="38" x="231.5" y="230.0293">Check</text><text fill="#000000" font-family="Arial" font-size="12" lengthAdjust="spacing" textLength="4" x="269.5" y="230.0293">&#160;</text><text fill="#000000" font-family="Arial" font-size="12" lengthAdjust="spacing" textLength="7" x="273.5" y="230.0293">if</text><text fill="#000000" font-family="Arial" font-size="12" lengthAdjust="spacing" textLength="4" x="280.5" y="230.0293">&#160;</text><text fill="#000000" font-family="Arial" font-size="12" lengthAdjust="spacing" textLength="27" x="284.5" y="230.0293">task</text><text fill="#000000" font-family="Arial" font-size="12" lengthAdjust="spacing" textLength="4" x="311.5" y="230.0293">&#160;</text><text fill="#000000" font-family="Arial" font-size="12" lengthAdjust="spacing" textLength="10" x="315.5" y="230.0293">is</text><text fill="#000000" font-family="Arial" font-size="12" lengthAdjust="spacing" textLength="4" x="325.5" y="230.0293">&#160;</text><text fill="#000000" font-family="Arial" font-size="12" lengthAdjust="spacing" textLength="46" x="329.5" y="230.0293">expired</text><line style="stroke:#000000;stroke-width:1.5;" x1="216.5" x2="258.5" y1="313.7969" y2="313.7969"/><line style="stroke:#000000;stroke-width:1.5;" x1="258.5" x2="258.5" y1="313.7969" y2="326.7969"/><line style="stroke:#000000;stroke-width:1.5;" x1="217.5" x2="258.5" y1="326.7969" y2="326.7969"/><polygon fill="#000000" points="227.5,322.7969,217.5,326.7969,227.5,330.7969,223.5,326.7969" style="stroke:#000000;stroke-width:1.0;"/><text fill="#000000" font-family="Arial" font-size="12" lengthAdjust="spacing" textLength="22" x="231.5" y="286.998">Get</text><text fill="#000000" font-family="Arial" font-size="12" lengthAdjust="spacing" textLength="4" x="253.5" y="286.998">&#160;</text><text fill="#000000" font-family="Arial" font-size="12" lengthAdjust="spacing" textLength="27" x="257.5" y="286.998">next</text><text fill="#000000" font-family="Arial" font-size="12" lengthAdjust="spacing" textLength="4" x="284.5" y="286.998">&#160;</text><text fill="#000000" font-family="Arial" font-size="12" lengthAdjust="spacing" textLength="55" x="288.5" y="286.998">operator</text><text fill="#000000" font-family="Arial" font-size="12" lengthAdjust="spacing" textLength="4" x="343.5" y="286.998">&#160;</text><text fill="#000000" font-family="Arial" font-size="12" lengthAdjust="spacing" textLength="28" x="347.5" y="286.998">from</text><text fill="#000000" font-family="Arial" font-size="12" lengthAdjust="spacing" textLength="4" x="375.5" y="286.998">&#160;</text><text fill="#000000" font-family="Arial" font-size="12" lengthAdjust="spacing" textLength="48" x="379.5" y="286.998">internal</text><text fill="#000000" font-family="Arial" font-size="12" lengthAdjust="spacing" textLength="73" x="271" y="300.9668">assignment</text><text fill="#000000" font-family="Arial" font-size="12" lengthAdjust="spacing" textLength="4" x="344" y="300.9668">&#160;</text><text fill="#000000" font-family="Arial" font-size="12" lengthAdjust="spacing" textLength="40" x="348" y="300.9668">queue</text><line style="stroke:#000000;stroke-width:1.5;" x1="216.5" x2="258.5" y1="370.7656" y2="370.7656"/><line style="stroke:#000000;stroke-width:1.5;" x1="258.5" x2="258.5" y1="370.7656" y2="383.7656"/><line style="stroke:#000000;stroke-width:1.5;" x1="217.5" x2="258.5" y1="383.7656" y2="383.7656"/><polygon fill="#000000" points="227.5,379.7656,217.5,383.7656,227.5,387.7656,223.5,383.7656" style="stroke:#000000;stroke-width:1.0;"/><text fill="#000000" font-family="Arial" font-size="12" lengthAdjust="spacing" textLength="46" x="231.5" y="357.9355">Update</text><text fill="#000000" font-family="Arial" font-size="12" lengthAdjust="spacing" textLength="4" x="277.5" y="357.9355">&#160;</text><text fill="#000000" font-family="Arial" font-size="12" lengthAdjust="spacing" textLength="27" x="281.5" y="357.9355">task</text><text fill="#000000" font-family="Arial" font-size="12" lengthAdjust="spacing" textLength="4" x="308.5" y="357.9355">&#160;</text><text fill="#000000" font-family="Arial" font-size="12" lengthAdjust="spacing" textLength="25" x="312.5" y="357.9355">with</text><text fill="#000000" font-family="Arial" font-size="12" lengthAdjust="spacing" textLength="4" x="337.5" y="357.9355">&#160;</text><text fill="#000000" font-family="Arial" font-size="12" lengthAdjust="spacing" textLength="25" x="341.5" y="357.9355">new</text><text fill="#000000" font-family="Arial" font-size="12" lengthAdjust="spacing" textLength="4" x="366.5" y="357.9355">&#160;</text><text fill="#000000" font-family="Arial" font-size="12" lengthAdjust="spacing" textLength="55" x="370.5" y="357.9355">operator</text><line style="stroke:#000000;stroke-width:1.5;" x1="216.5" x2="258.5" y1="432.7344" y2="432.7344"/><line style="stroke:#000000;stroke-width:1.5;" x1="258.5" x2="258.5" y1="432.7344" y2="445.7344"/><line style="stroke:#000000;stroke-width:1.5;" x1="211.5" x2="258.5" y1="445.7344" y2="445.7344"/><polygon fill="#000000" points="221.5,441.7344,211.5,445.7344,221.5,449.7344,217.5,445.7344" style="stroke:#000000;stroke-width:1.0;"/><text fill="#000000" font-family="Arial" font-size="12" lengthAdjust="spacing" textLength="27" x="231.5" y="419.9043">Emit</text><text fill="#000000" font-family="Arial" font-size="12" lengthAdjust="spacing" textLength="4" x="258.5" y="419.9043">&#160;</text><text fill="#000000" font-family="Arial" font-size="12" lengthAdjust="spacing" textLength="98" x="262.5" y="419.9043">EvalReassigned</text><text fill="#000000" font-family="Arial" font-size="12" lengthAdjust="spacing" textLength="4" x="360.5" y="419.9043">&#160;</text><text fill="#000000" font-family="Arial" font-size="12" lengthAdjust="spacing" textLength="35" x="364.5" y="419.9043">Event</text><polygon fill="#000000" points="435.5,480.7031,445.5,484.7031,435.5,488.7031,439.5,484.7031" style="stroke:#000000;stroke-width:1.0;"/><line style="stroke:#000000;stroke-width:1.5;stroke-dasharray:2.0,2.0;" x1="211.5" x2="441.5" y1="484.7031" y2="484.7031"/><text fill="#000000" font-family="Arial" font-size="12" lengthAdjust="spacing" textLength="98" x="261" y="471.873">EvalReassigned</text><text fill="#000000" font-family="Arial" font-size="12" lengthAdjust="spacing" textLength="4" x="359" y="471.873">&#160;</text><text fill="#000000" font-family="Arial" font-size="12" lengthAdjust="spacing" textLength="35" x="363" y="471.873">Event</text><line style="stroke:#000000;stroke-width:1.5;" x1="447.5" x2="489.5" y1="528.6719" y2="528.6719"/><line style="stroke:#000000;stroke-width:1.5;" x1="489.5" x2="489.5" y1="528.6719" y2="541.6719"/><line style="stroke:#000000;stroke-width:1.5;" x1="448.5" x2="489.5" y1="541.6719" y2="541.6719"/><polygon fill="#000000" points="458.5,537.6719,448.5,541.6719,458.5,545.6719,454.5,541.6719" style="stroke:#000000;stroke-width:1.0;"/><text fill="#000000" font-family="Arial" font-size="12" lengthAdjust="spacing" textLength="42" x="462.5" y="515.8418">Cancel</text><text fill="#000000" font-family="Arial" font-size="12" lengthAdjust="spacing" textLength="4" x="504.5" y="515.8418">&#160;</text><text fill="#000000" font-family="Arial" font-size="12" lengthAdjust="spacing" textLength="27" x="508.5" y="515.8418">task</text><text fill="#000000" font-family="Arial" font-size="12" lengthAdjust="spacing" textLength="4" x="535.5" y="515.8418">&#160;</text><text fill="#000000" font-family="Arial" font-size="12" lengthAdjust="spacing" textLength="69" x="539.5" y="515.8418">processing</text><polygon fill="#000000" points="626,581.6406,636,585.6406,626,589.6406,630,585.6406" style="stroke:#000000;stroke-width:1.0;"/><line style="stroke:#000000;stroke-width:1.5;stroke-dasharray:2.0,2.0;" x1="211.5" x2="632" y1="585.6406" y2="585.6406"/><text fill="#000000" font-family="Arial" font-size="12" lengthAdjust="spacing" textLength="98" x="356.25" y="572.8105">EvalReassigned</text><text fill="#000000" font-family="Arial" font-size="12" lengthAdjust="spacing" textLength="4" x="454.25" y="572.8105">&#160;</text><text fill="#000000" font-family="Arial" font-size="12" lengthAdjust="spacing" textLength="35" x="458.25" y="572.8105">Event</text><line style="stroke:#000000;stroke-width:1.5;" x1="648" x2="690" y1="629.6094" y2="629.6094"/><line style="stroke:#000000;stroke-width:1.5;" x1="690" x2="690" y1="629.6094" y2="642.6094"/><line style="stroke:#000000;stroke-width:1.5;" x1="649" x2="690" y1="642.6094" y2="642.6094"/><polygon fill="#000000" points="659,638.6094,649,642.6094,659,646.6094,655,642.6094" style="stroke:#000000;stroke-width:1.0;"/><text fill="#000000" font-family="Arial" font-size="12" lengthAdjust="spacing" textLength="38" x="663" y="616.7793">Check</text><text fill="#000000" font-family="Arial" font-size="12" lengthAdjust="spacing" textLength="4" x="701" y="616.7793">&#160;</text><text fill="#000000" font-family="Arial" font-size="12" lengthAdjust="spacing" textLength="7" x="705" y="616.7793">if</text><text fill="#000000" font-family="Arial" font-size="12" lengthAdjust="spacing" textLength="4" x="712" y="616.7793">&#160;</text><text fill="#000000" font-family="Arial" font-size="12" lengthAdjust="spacing" textLength="25" x="716" y="616.7793">new</text><text fill="#000000" font-family="Arial" font-size="12" lengthAdjust="spacing" textLength="4" x="741" y="616.7793">&#160;</text><text fill="#000000" font-family="Arial" font-size="12" lengthAdjust="spacing" textLength="57" x="745" y="616.7793">assigned</text><text fill="#000000" font-family="Arial" font-size="12" lengthAdjust="spacing" textLength="4" x="802" y="616.7793">&#160;</text><text fill="#000000" font-family="Arial" font-size="12" lengthAdjust="spacing" textLength="55" x="806" y="616.7793">operator</text><polygon fill="#000000" points="869,682.5781,879,686.5781,869,690.5781,873,686.5781" style="stroke:#000000;stroke-width:1.0;"/><line style="stroke:#000000;stroke-width:1.5;" x1="643" x2="875" y1="686.5781" y2="686.5781"/><text fill="#000000" font-family="Arial" font-size="12" lengthAdjust="spacing" textLength="31" x="685" y="673.748">Start</text><text fill="#000000" font-family="Arial" font-size="12" lengthAdjust="spacing" textLength="4" x="716" y="673.748">&#160;</text><text fill="#000000" font-family="Arial" font-size="12" lengthAdjust="spacing" textLength="65" x="720" y="673.748">evaluation</text><text fill="#000000" font-family="Arial" font-size="12" lengthAdjust="spacing" textLength="4" x="785" y="673.748">&#160;</text><text fill="#000000" font-family="Arial" font-size="12" lengthAdjust="spacing" textLength="50" x="789" y="673.748">process</text><path d="M648,703.5781 L648,736.5781 A4,4 0 0 0 652,740.5781 L933,740.5781 A4,4 0 0 0 937,736.5781 L937,709.5781 L927,699.5781 L652,699.5781 A4,4 0 0 0 648,703.5781 " fill="#FFFFDD" style="stroke:#999999;stroke-width:1.0;"/><path d="M927,699.5781 L927,707.5781 A2,2 0 0 0 929,709.5781 L937,709.5781 L927,699.5781 " fill="#FFFFDD" style="stroke:#999999;stroke-width:1.0;"/><text fill="#000000" font-family="Arial" font-size="13" lengthAdjust="spacing" textLength="243" x="671" y="724.645">Process follows normal evaluation flow</text><rect fill="none" height="385.2656" id="_legend" rx="4" ry="4" style="stroke:#000000;stroke-width:1.0;" width="383" x="569.5" y="860.0078"/><text fill="#000000" font-family="Arial" font-size="14" font-weight="bold" lengthAdjust="spacing" textLength="88" x="595.5" y="896.0029">Entity Type</text><text fill="#000000" font-family="Arial" font-size="14" font-weight="bold" lengthAdjust="spacing" textLength="90" x="709.5" y="896.0029">Description</text><rect fill="#E9F7EF" height="32.2969" style="stroke:none;stroke-width:1.0;" width="114" x="582.5" y="907.3047"/><text fill="#000000" font-family="Arial" font-size="14" lengthAdjust="spacing" textLength="4" x="590.5" y="928.2998">&#160;</text><text fill="#000000" font-family="Arial" font-size="14" lengthAdjust="spacing" textLength="219" x="708.5" y="928.2998">Frontend - Web/UI Components</text><rect fill="#EBF5FB" height="32.2969" style="stroke:none;stroke-width:1.0;" width="114" x="582.5" y="939.6016"/><text fill="#000000" font-family="Arial" font-size="14" lengthAdjust="spacing" textLength="4" x="590.5" y="960.5967">&#160;</text><text fill="#000000" font-family="Arial" font-size="14" lengthAdjust="spacing" textLength="157" x="708.5" y="960.5967">API - Backend Services</text><rect fill="#F9EBEA" height="32.2969" style="stroke:none;stroke-width:1.0;" width="114" x="582.5" y="971.8984"/><text fill="#000000" font-family="Arial" font-size="14" lengthAdjust="spacing" textLength="4" x="590.5" y="992.8936">&#160;</text><text fill="#000000" font-family="Arial" font-size="14" lengthAdjust="spacing" textLength="207" x="708.5" y="992.8936">Auth - Authentication Services</text><rect fill="#F4ECF7" height="32.2969" style="stroke:none;stroke-width:1.0;" width="114" x="582.5" y="1004.1953"/><text fill="#000000" font-family="Arial" font-size="14" lengthAdjust="spacing" textLength="4" x="590.5" y="1025.1904">&#160;</text><text fill="#000000" font-family="Arial" font-size="14" lengthAdjust="spacing" textLength="169" x="708.5" y="1025.1904">Database - Data Storage</text><rect fill="#FEF9E7" height="32.2969" style="stroke:none;stroke-width:1.0;" width="114" x="582.5" y="1036.4922"/><text fill="#000000" font-family="Arial" font-size="14" lengthAdjust="spacing" textLength="4" x="590.5" y="1057.4873">&#160;</text><text fill="#000000" font-family="Arial" font-size="14" lengthAdjust="spacing" textLength="191" x="708.5" y="1057.4873">External - 3rd Party Services</text><rect fill="#FADBD8" height="32.2969" style="stroke:none;stroke-width:1.0;" width="114" x="582.5" y="1068.7891"/><text fill="#000000" font-family="Arial" font-size="14" lengthAdjust="spacing" textLength="4" x="590.5" y="1089.7842">&#160;</text><text fill="#000000" font-family="Arial" font-size="14" lengthAdjust="spacing" textLength="183" x="708.5" y="1089.7842">Contract - Smart Contracts</text><rect fill="#FCF3CF" height="32.2969" style="stroke:none;stroke-width:1.0;" width="114" x="582.5" y="1101.0859"/><text fill="#000000" font-family="Arial" font-size="14" lengthAdjust="spacing" textLength="4" x="590.5" y="1122.0811">&#160;</text><text fill="#000000" font-family="Arial" font-size="14" lengthAdjust="spacing" textLength="182" x="708.5" y="1122.0811">Queue - Message Queues</text><rect fill="#D6EAF8" height="32.2969" style="stroke:none;stroke-width:1.0;" width="114" x="582.5" y="1133.3828"/><text fill="#000000" font-family="Arial" font-size="14" lengthAdjust="spacing" textLength="4" x="590.5" y="1154.3779">&#160;</text><text fill="#000000" font-family="Arial" font-size="14" lengthAdjust="spacing" textLength="182" x="708.5" y="1154.3779">Operator - Validator Nodes</text><rect fill="#D4EFDF" height="32.2969" style="stroke:none;stroke-width:1.0;" width="114" x="582.5" y="1165.6797"/><text fill="#000000" font-family="Arial" font-size="14" lengthAdjust="spacing" textLength="4" x="590.5" y="1186.6748">&#160;</text><text fill="#000000" font-family="Arial" font-size="14" lengthAdjust="spacing" textLength="208" x="708.5" y="1186.6748">Evaluator - Evaluation Services</text><rect fill="#F5EEF8" height="32.2969" style="stroke:none;stroke-width:1.0;" width="114" x="582.5" y="1197.9766"/><text fill="#000000" font-family="Arial" font-size="14" lengthAdjust="spacing" textLength="4" x="590.5" y="1218.9717">&#160;</text><text fill="#000000" font-family="Arial" font-size="14" lengthAdjust="spacing" textLength="183" x="708.5" y="1218.9717">Storage - Storage Services</text><line style="stroke:#000000;stroke-width:1.0;" x1="582.5" x2="939.5" y1="875.0078" y2="875.0078"/><line style="stroke:#000000;stroke-width:1.0;" x1="582.5" x2="939.5" y1="907.3047" y2="907.3047"/><line style="stroke:#000000;stroke-width:1.0;" x1="582.5" x2="939.5" y1="939.6016" y2="939.6016"/><line style="stroke:#000000;stroke-width:1.0;" x1="582.5" x2="939.5" y1="971.8984" y2="971.8984"/><line style="stroke:#000000;stroke-width:1.0;" x1="582.5" x2="939.5" y1="1004.1953" y2="1004.1953"/><line style="stroke:#000000;stroke-width:1.0;" x1="582.5" x2="939.5" y1="1036.4922" y2="1036.4922"/><line style="stroke:#000000;stroke-width:1.0;" x1="582.5" x2="939.5" y1="1068.7891" y2="1068.7891"/><line style="stroke:#000000;stroke-width:1.0;" x1="582.5" x2="939.5" y1="1101.0859" y2="1101.0859"/><line style="stroke:#000000;stroke-width:1.0;" x1="582.5" x2="939.5" y1="1133.3828" y2="1133.3828"/><line style="stroke:#000000;stroke-width:1.0;" x1="582.5" x2="939.5" y1="1165.6797" y2="1165.6797"/><line style="stroke:#000000;stroke-width:1.0;" x1="582.5" x2="939.5" y1="1197.9766" y2="1197.9766"/><line style="stroke:#000000;stroke-width:1.0;" x1="582.5" x2="939.5" y1="1230.2734" y2="1230.2734"/><line style="stroke:#000000;stroke-width:1.0;" x1="582.5" x2="582.5" y1="875.0078" y2="1230.2734"/><line style="stroke:#000000;stroke-width:1.0;" x1="696.5" x2="696.5" y1="875.0078" y2="1230.2734"/><line style="stroke:#000000;stroke-width:1.0;" x1="939.5" x2="939.5" y1="875.0078" y2="1230.2734"/><!--SRC=[ZLJBRjim4BppAxQvj3qaQ0hqOWG6N2CDUaXZDEa74EHAMfWFbLnPJh- -AxjIQCSnUf10xd9cNqE-es1SPn5Cz3w6oypF3g_QpZkbtiEzfi3oGOuU8RTeg283fiiSFVtHJ35ag682RYY39LqdxLLUKsYrhC1HG7vk4MBY9XQEbKvCXbeTUAMjfL33vq-5_n5_TnWCVetRqNzT-XSfnVwf8RCEc3DSNtrHYeaTmfFEQ_Y9EcUgWyV0yCt5NYbjMF9SM4z1jI_HuU9sezrYamVSlGwwndG1EaEnXvkRPGoSX68-FmG_9AefQ0SFBIOj4NROqJeQXM1S7XFymFuGAuR_WDt58UrkGXLxGKrhWIcrgnakvsL9CqZ_MZGOFx3yljkFGvDeendBewhin37Bia6p1gfWO03H06vRIcZFWkwG8U2M8Ow5LYbw4ArX6dfPp4vKqE5Pib-j7HBUnU-96s7k9-Apo5jF34EhHhMWbQr4LHPFDkAGJUYEvpmxJVTA3YUXIorwT_j2sXIDw5fa_pfe8P0tuat95qTLgQjZbccAG-ycilW6jD3Q31vPP0cuDyXpCAQkGfG4fCX6nbmTXbljZyZ3uUHgPWWnUHbxGL8DLxQOGW7_2m00]--></g></svg>