<?xml version="1.0" encoding="us-ascii" standalone="no"?><svg xmlns="http://www.w3.org/2000/svg" xmlns:xlink="http://www.w3.org/1999/xlink" contentStyleType="text/css" height="1251px" preserveAspectRatio="none" style="width:970px;height:1251px;background:#FFFFFF;" version="1.1" viewBox="0 0 970 1251" width="970px" zoomAndPan="magnify"><defs/><g><text fill="#303030" font-family="Arial" font-size="16" font-weight="bold" lengthAdjust="spacing" textLength="219" x="371.75" y="37.8516">Task Reassignment Flow</text><rect fill="#F8F8F8" height="220.875" style="stroke:#000000;stroke-width:1.0;" width="10" x="206.5" y="198.8906"/><rect fill="#F8F8F8" height="100.9375" style="stroke:#000000;stroke-width:1.0;" width="10" x="636" y="571.6719"/><line style="stroke:#000000;stroke-width:0.5;stroke-dasharray:5.0,5.0;" x1="40" x2="40" y1="152.9219" y2="741.7422"/><line style="stroke:#000000;stroke-width:0.5;stroke-dasharray:5.0,5.0;" x1="211" x2="211" y1="152.9219" y2="741.7422"/><line style="stroke:#000000;stroke-width:0.5;stroke-dasharray:5.0,5.0;" x1="445.5" x2="445.5" y1="152.9219" y2="741.7422"/><line style="stroke:#000000;stroke-width:0.5;stroke-dasharray:5.0,5.0;" x1="640.5" x2="640.5" y1="152.9219" y2="741.7422"/><line style="stroke:#000000;stroke-width:0.5;stroke-dasharray:5.0,5.0;" x1="878.5" x2="878.5" y1="152.9219" y2="741.7422"/><text fill="#000000" font-family="Arial" font-size="14" font-weight="bold" lengthAdjust="spacing" textLength="49" x="13" y="141.6201">Admin</text><ellipse cx="40.5" cy="69.125" fill="#FFFFFF" rx="8" ry="8" style="stroke:#454545;stroke-width:0.5;"/><path d="M40.5,77.125 L40.5,104.125 M27.5,85.125 L53.5,85.125 M40.5,104.125 L27.5,119.125 M40.5,104.125 L53.5,119.125 " fill="none" style="stroke:#454545;stroke-width:0.5;"/><text fill="#000000" font-family="Arial" font-size="14" font-weight="bold" lengthAdjust="spacing" textLength="49" x="13" y="761.7373">Admin</text><ellipse cx="40.5" cy="781.5391" fill="#FFFFFF" rx="8" ry="8" style="stroke:#454545;stroke-width:0.5;"/><path d="M40.5,789.5391 L40.5,816.5391 M27.5,797.5391 L53.5,797.5391 M40.5,816.5391 L27.5,831.5391 M40.5,816.5391 L53.5,831.5391 " fill="none" style="stroke:#454545;stroke-width:0.5;"/><rect fill="#FADBD8" height="56.7734" rx="4" ry="4" style="stroke:#943126;stroke-width:2.0;" width="185" x="119" y="95.1484"/><text fill="#000000" font-family="Arial" font-size="10" font-weight="bold" lengthAdjust="spacing" textLength="61" x="181" y="119.4307">&#171;Contract&#187;</text><text fill="#000000" font-family="Arial" font-size="13" font-weight="bold" lengthAdjust="spacing" textLength="155" x="134" y="133.856">EvalAvsTaskManager</text><rect fill="#FADBD8" height="56.7734" rx="4" ry="4" style="stroke:#943126;stroke-width:2.0;" width="185" x="119" y="740.7422"/><text fill="#000000" font-family="Arial" font-size="10" font-weight="bold" lengthAdjust="spacing" textLength="61" x="181" y="765.0244">&#171;Contract&#187;</text><text fill="#000000" font-family="Arial" font-size="13" font-weight="bold" lengthAdjust="spacing" textLength="155" x="134" y="779.4497">EvalAvsTaskManager</text><rect fill="#D6EAF8" height="56.7734" rx="4" ry="4" style="stroke:#2E86C1;stroke-width:2.0;" width="158" x="366.5" y="95.1484"/><text fill="#000000" font-family="Arial" font-size="10" font-weight="bold" lengthAdjust="spacing" textLength="63" x="414" y="119.4307">&#171;Operator&#187;</text><text fill="#000000" font-family="Arial" font-size="13" font-weight="bold" lengthAdjust="spacing" textLength="128" x="381.5" y="133.856">Original Operator</text><rect fill="#D6EAF8" height="56.7734" rx="4" ry="4" style="stroke:#2E86C1;stroke-width:2.0;" width="158" x="366.5" y="740.7422"/><text fill="#000000" font-family="Arial" font-size="10" font-weight="bold" lengthAdjust="spacing" textLength="63" x="414" y="765.0244">&#171;Operator&#187;</text><text fill="#000000" font-family="Arial" font-size="13" font-weight="bold" lengthAdjust="spacing" textLength="128" x="381.5" y="779.4497">Original Operator</text><rect fill="#D6EAF8" height="56.7734" rx="4" ry="4" style="stroke:#2E86C1;stroke-width:2.0;" width="133" x="574.5" y="95.1484"/><text fill="#000000" font-family="Arial" font-size="10" font-weight="bold" lengthAdjust="spacing" textLength="63" x="609.5" y="119.4307">&#171;Operator&#187;</text><text fill="#000000" font-family="Arial" font-size="13" font-weight="bold" lengthAdjust="spacing" textLength="103" x="589.5" y="133.856">New Operator</text><rect fill="#D6EAF8" height="56.7734" rx="4" ry="4" style="stroke:#2E86C1;stroke-width:2.0;" width="133" x="574.5" y="740.7422"/><text fill="#000000" font-family="Arial" font-size="10" font-weight="bold" lengthAdjust="spacing" textLength="63" x="609.5" y="765.0244">&#171;Operator&#187;</text><text fill="#000000" font-family="Arial" font-size="13" font-weight="bold" lengthAdjust="spacing" textLength="103" x="589.5" y="779.4497">New Operator</text><rect fill="#D4EFDF" height="56.7734" rx="4" ry="4" style="stroke:#196F3D;stroke-width:2.0;" width="119" x="819.5" y="95.1484"/><text fill="#000000" font-family="Arial" font-size="10" font-weight="bold" lengthAdjust="spacing" textLength="66" x="846" y="119.4307">&#171;Evaluator&#187;</text><text fill="#000000" font-family="Arial" font-size="13" font-weight="bold" lengthAdjust="spacing" textLength="89" x="834.5" y="133.856">GoEvaluator</text><rect fill="#D4EFDF" height="56.7734" rx="4" ry="4" style="stroke:#196F3D;stroke-width:2.0;" width="119" x="819.5" y="740.7422"/><text fill="#000000" font-family="Arial" font-size="10" font-weight="bold" lengthAdjust="spacing" textLength="66" x="846" y="765.0244">&#171;Evaluator&#187;</text><text fill="#000000" font-family="Arial" font-size="13" font-weight="bold" lengthAdjust="spacing" textLength="89" x="834.5" y="779.4497">GoEvaluator</text><rect fill="#F8F8F8" height="220.875" style="stroke:#000000;stroke-width:1.0;" width="10" x="206.5" y="198.8906"/><rect fill="#F8F8F8" height="100.9375" style="stroke:#000000;stroke-width:1.0;" width="10" x="636" y="571.6719"/><polygon fill="#000000" points="194.5,194.8906,204.5,198.8906,194.5,202.8906,198.5,198.8906" style="stroke:#000000;stroke-width:1.0;"/><line style="stroke:#000000;stroke-width:1.5;" x1="40.5" x2="200.5" y1="198.8906" y2="198.8906"/><text fill="#000000" font-family="Arial" font-size="12" lengthAdjust="spacing" textLength="131" x="58" y="186.0605">reassignTask(taskId)</text><line style="stroke:#000000;stroke-width:1.5;" x1="216.5" x2="258.5" y1="242.8594" y2="242.8594"/><line style="stroke:#000000;stroke-width:1.5;" x1="258.5" x2="258.5" y1="242.8594" y2="255.8594"/><line style="stroke:#000000;stroke-width:1.5;" x1="217.5" x2="258.5" y1="255.8594" y2="255.8594"/><polygon fill="#000000" points="227.5,251.8594,217.5,255.8594,227.5,259.8594,223.5,255.8594" style="stroke:#000000;stroke-width:1.0;"/><text fill="#000000" font-family="Arial" font-size="12" lengthAdjust="spacing" textLength="38" x="231.5" y="230.0293">Check</text><text fill="#000000" font-family="Arial" font-size="12" lengthAdjust="spacing" textLength="4" x="269.5" y="230.0293">&#160;</text><text fill="#000000" font-family="Arial" font-size="12" lengthAdjust="spacing" textLength="7" x="273.5" y="230.0293">if</text><text fill="#000000" font-family="Arial" font-size="12" lengthAdjust="spacing" textLength="4" x="280.5" y="230.0293">&#160;</text><text fill="#000000" font-family="Arial" font-size="12" lengthAdjust="spacing" textLength="27" x="284.5" y="230.0293">task</text><text fill="#000000" font-family="Arial" font-size="12" lengthAdjust="spacing" textLength="4" x="311.5" y="230.0293">&#160;</text><text fill="#000000" font-family="Arial" font-size="12" lengthAdjust="spacing" textLength="10" x="315.5" y="230.0293">is</text><text fill="#000000" font-family="Arial" font-size="12" lengthAdjust="spacing" textLength="4" x="325.5" y="230.0293">&#160;</text><text fill="#000000" font-family="Arial" font-size="12" lengthAdjust="spacing" textLength="46" x="329.5" y="230.0293">expired</text><line style="stroke:#000000;stroke-width:1.5;" x1="216.5" x2="258.5" y1="299.8281" y2="299.8281"/><line style="stroke:#000000;stroke-width:1.5;" x1="258.5" x2="258.5" y1="299.8281" y2="312.8281"/><line style="stroke:#000000;stroke-width:1.5;" x1="217.5" x2="258.5" y1="312.8281" y2="312.8281"/><polygon fill="#000000" points="227.5,308.8281,217.5,312.8281,227.5,316.8281,223.5,312.8281" style="stroke:#000000;stroke-width:1.0;"/><text fill="#000000" font-family="Arial" font-size="12" lengthAdjust="spacing" textLength="22" x="231.5" y="286.998">Get</text><text fill="#000000" font-family="Arial" font-size="12" lengthAdjust="spacing" textLength="4" x="253.5" y="286.998">&#160;</text><text fill="#000000" font-family="Arial" font-size="12" lengthAdjust="spacing" textLength="27" x="257.5" y="286.998">next</text><text fill="#000000" font-family="Arial" font-size="12" lengthAdjust="spacing" textLength="4" x="284.5" y="286.998">&#160;</text><text fill="#000000" font-family="Arial" font-size="12" lengthAdjust="spacing" textLength="55" x="288.5" y="286.998">operator</text><text fill="#000000" font-family="Arial" font-size="12" lengthAdjust="spacing" textLength="4" x="343.5" y="286.998">&#160;</text><text fill="#000000" font-family="Arial" font-size="12" lengthAdjust="spacing" textLength="28" x="347.5" y="286.998">from</text><text fill="#000000" font-family="Arial" font-size="12" lengthAdjust="spacing" textLength="4" x="375.5" y="286.998">&#160;</text><text fill="#000000" font-family="Arial" font-size="12" lengthAdjust="spacing" textLength="40" x="379.5" y="286.998">queue</text><line style="stroke:#000000;stroke-width:1.5;" x1="216.5" x2="258.5" y1="356.7969" y2="356.7969"/><line style="stroke:#000000;stroke-width:1.5;" x1="258.5" x2="258.5" y1="356.7969" y2="369.7969"/><line style="stroke:#000000;stroke-width:1.5;" x1="217.5" x2="258.5" y1="369.7969" y2="369.7969"/><polygon fill="#000000" points="227.5,365.7969,217.5,369.7969,227.5,373.7969,223.5,369.7969" style="stroke:#000000;stroke-width:1.0;"/><text fill="#000000" font-family="Arial" font-size="12" lengthAdjust="spacing" textLength="46" x="231.5" y="343.9668">Update</text><text fill="#000000" font-family="Arial" font-size="12" lengthAdjust="spacing" textLength="4" x="277.5" y="343.9668">&#160;</text><text fill="#000000" font-family="Arial" font-size="12" lengthAdjust="spacing" textLength="27" x="281.5" y="343.9668">task</text><text fill="#000000" font-family="Arial" font-size="12" lengthAdjust="spacing" textLength="4" x="308.5" y="343.9668">&#160;</text><text fill="#000000" font-family="Arial" font-size="12" lengthAdjust="spacing" textLength="25" x="312.5" y="343.9668">with</text><text fill="#000000" font-family="Arial" font-size="12" lengthAdjust="spacing" textLength="4" x="337.5" y="343.9668">&#160;</text><text fill="#000000" font-family="Arial" font-size="12" lengthAdjust="spacing" textLength="25" x="341.5" y="343.9668">new</text><text fill="#000000" font-family="Arial" font-size="12" lengthAdjust="spacing" textLength="4" x="366.5" y="343.9668">&#160;</text><text fill="#000000" font-family="Arial" font-size="12" lengthAdjust="spacing" textLength="55" x="370.5" y="343.9668">operator</text><line style="stroke:#000000;stroke-width:1.5;" x1="216.5" x2="258.5" y1="418.7656" y2="418.7656"/><line style="stroke:#000000;stroke-width:1.5;" x1="258.5" x2="258.5" y1="418.7656" y2="431.7656"/><line style="stroke:#000000;stroke-width:1.5;" x1="211.5" x2="258.5" y1="431.7656" y2="431.7656"/><polygon fill="#000000" points="221.5,427.7656,211.5,431.7656,221.5,435.7656,217.5,431.7656" style="stroke:#000000;stroke-width:1.0;"/><text fill="#000000" font-family="Arial" font-size="12" lengthAdjust="spacing" textLength="27" x="231.5" y="405.9355">Emit</text><text fill="#000000" font-family="Arial" font-size="12" lengthAdjust="spacing" textLength="4" x="258.5" y="405.9355">&#160;</text><text fill="#000000" font-family="Arial" font-size="12" lengthAdjust="spacing" textLength="98" x="262.5" y="405.9355">EvalReassigned</text><text fill="#000000" font-family="Arial" font-size="12" lengthAdjust="spacing" textLength="4" x="360.5" y="405.9355">&#160;</text><text fill="#000000" font-family="Arial" font-size="12" lengthAdjust="spacing" textLength="35" x="364.5" y="405.9355">Event</text><polygon fill="#000000" points="433.5,466.7344,443.5,470.7344,433.5,474.7344,437.5,470.7344" style="stroke:#000000;stroke-width:1.0;"/><line style="stroke:#000000;stroke-width:1.5;stroke-dasharray:2.0,2.0;" x1="211.5" x2="439.5" y1="470.7344" y2="470.7344"/><text fill="#000000" font-family="Arial" font-size="12" lengthAdjust="spacing" textLength="98" x="260" y="457.9043">EvalReassigned</text><text fill="#000000" font-family="Arial" font-size="12" lengthAdjust="spacing" textLength="4" x="358" y="457.9043">&#160;</text><text fill="#000000" font-family="Arial" font-size="12" lengthAdjust="spacing" textLength="35" x="362" y="457.9043">Event</text><line style="stroke:#000000;stroke-width:1.5;" x1="445.5" x2="487.5" y1="514.7031" y2="514.7031"/><line style="stroke:#000000;stroke-width:1.5;" x1="487.5" x2="487.5" y1="514.7031" y2="527.7031"/><line style="stroke:#000000;stroke-width:1.5;" x1="446.5" x2="487.5" y1="527.7031" y2="527.7031"/><polygon fill="#000000" points="456.5,523.7031,446.5,527.7031,456.5,531.7031,452.5,527.7031" style="stroke:#000000;stroke-width:1.0;"/><text fill="#000000" font-family="Arial" font-size="12" lengthAdjust="spacing" textLength="42" x="460.5" y="501.873">Cancel</text><text fill="#000000" font-family="Arial" font-size="12" lengthAdjust="spacing" textLength="4" x="502.5" y="501.873">&#160;</text><text fill="#000000" font-family="Arial" font-size="12" lengthAdjust="spacing" textLength="27" x="506.5" y="501.873">task</text><text fill="#000000" font-family="Arial" font-size="12" lengthAdjust="spacing" textLength="4" x="533.5" y="501.873">&#160;</text><text fill="#000000" font-family="Arial" font-size="12" lengthAdjust="spacing" textLength="69" x="537.5" y="501.873">processing</text><polygon fill="#000000" points="624,567.6719,634,571.6719,624,575.6719,628,571.6719" style="stroke:#000000;stroke-width:1.0;"/><line style="stroke:#000000;stroke-width:1.5;stroke-dasharray:2.0,2.0;" x1="211.5" x2="630" y1="571.6719" y2="571.6719"/><text fill="#000000" font-family="Arial" font-size="12" lengthAdjust="spacing" textLength="98" x="355.25" y="558.8418">EvalReassigned</text><text fill="#000000" font-family="Arial" font-size="12" lengthAdjust="spacing" textLength="4" x="453.25" y="558.8418">&#160;</text><text fill="#000000" font-family="Arial" font-size="12" lengthAdjust="spacing" textLength="35" x="457.25" y="558.8418">Event</text><line style="stroke:#000000;stroke-width:1.5;" x1="646" x2="688" y1="615.6406" y2="615.6406"/><line style="stroke:#000000;stroke-width:1.5;" x1="688" x2="688" y1="615.6406" y2="628.6406"/><line style="stroke:#000000;stroke-width:1.5;" x1="647" x2="688" y1="628.6406" y2="628.6406"/><polygon fill="#000000" points="657,624.6406,647,628.6406,657,632.6406,653,628.6406" style="stroke:#000000;stroke-width:1.0;"/><text fill="#000000" font-family="Arial" font-size="12" lengthAdjust="spacing" textLength="38" x="661" y="602.8105">Check</text><text fill="#000000" font-family="Arial" font-size="12" lengthAdjust="spacing" textLength="4" x="699" y="602.8105">&#160;</text><text fill="#000000" font-family="Arial" font-size="12" lengthAdjust="spacing" textLength="7" x="703" y="602.8105">if</text><text fill="#000000" font-family="Arial" font-size="12" lengthAdjust="spacing" textLength="4" x="710" y="602.8105">&#160;</text><text fill="#000000" font-family="Arial" font-size="12" lengthAdjust="spacing" textLength="25" x="714" y="602.8105">new</text><text fill="#000000" font-family="Arial" font-size="12" lengthAdjust="spacing" textLength="4" x="739" y="602.8105">&#160;</text><text fill="#000000" font-family="Arial" font-size="12" lengthAdjust="spacing" textLength="57" x="743" y="602.8105">assigned</text><text fill="#000000" font-family="Arial" font-size="12" lengthAdjust="spacing" textLength="4" x="800" y="602.8105">&#160;</text><text fill="#000000" font-family="Arial" font-size="12" lengthAdjust="spacing" textLength="55" x="804" y="602.8105">operator</text><polygon fill="#000000" points="867,668.6094,877,672.6094,867,676.6094,871,672.6094" style="stroke:#000000;stroke-width:1.0;"/><line style="stroke:#000000;stroke-width:1.5;" x1="641" x2="873" y1="672.6094" y2="672.6094"/><text fill="#000000" font-family="Arial" font-size="12" lengthAdjust="spacing" textLength="31" x="683" y="659.7793">Start</text><text fill="#000000" font-family="Arial" font-size="12" lengthAdjust="spacing" textLength="4" x="714" y="659.7793">&#160;</text><text fill="#000000" font-family="Arial" font-size="12" lengthAdjust="spacing" textLength="65" x="718" y="659.7793">evaluation</text><text fill="#000000" font-family="Arial" font-size="12" lengthAdjust="spacing" textLength="4" x="783" y="659.7793">&#160;</text><text fill="#000000" font-family="Arial" font-size="12" lengthAdjust="spacing" textLength="50" x="787" y="659.7793">process</text><path d="M646,689.6094 L646,722.6094 A4,4 0 0 0 650,726.6094 L931,726.6094 A4,4 0 0 0 935,722.6094 L935,695.6094 L925,685.6094 L650,685.6094 A4,4 0 0 0 646,689.6094 " fill="#FFFFDD" style="stroke:#999999;stroke-width:1.0;"/><path d="M925,685.6094 L925,693.6094 A2,2 0 0 0 927,695.6094 L935,695.6094 L925,685.6094 " fill="#FFFFDD" style="stroke:#999999;stroke-width:1.0;"/><text fill="#000000" font-family="Arial" font-size="13" lengthAdjust="spacing" textLength="243" x="669" y="710.6763">Process follows normal evaluation flow</text><rect fill="none" height="385.2656" id="_legend" rx="4" ry="4" style="stroke:#000000;stroke-width:1.0;" width="383" x="567.5" y="846.0391"/><text fill="#000000" font-family="Arial" font-size="14" font-weight="bold" lengthAdjust="spacing" textLength="88" x="593.5" y="882.0342">Entity Type</text><text fill="#000000" font-family="Arial" font-size="14" font-weight="bold" lengthAdjust="spacing" textLength="90" x="707.5" y="882.0342">Description</text><rect fill="#E9F7EF" height="32.2969" style="stroke:none;stroke-width:1.0;" width="114" x="580.5" y="893.3359"/><text fill="#000000" font-family="Arial" font-size="14" lengthAdjust="spacing" textLength="4" x="588.5" y="914.3311">&#160;</text><text fill="#000000" font-family="Arial" font-size="14" lengthAdjust="spacing" textLength="219" x="706.5" y="914.3311">Frontend - Web/UI Components</text><rect fill="#EBF5FB" height="32.2969" style="stroke:none;stroke-width:1.0;" width="114" x="580.5" y="925.6328"/><text fill="#000000" font-family="Arial" font-size="14" lengthAdjust="spacing" textLength="4" x="588.5" y="946.6279">&#160;</text><text fill="#000000" font-family="Arial" font-size="14" lengthAdjust="spacing" textLength="157" x="706.5" y="946.6279">API - Backend Services</text><rect fill="#F9EBEA" height="32.2969" style="stroke:none;stroke-width:1.0;" width="114" x="580.5" y="957.9297"/><text fill="#000000" font-family="Arial" font-size="14" lengthAdjust="spacing" textLength="4" x="588.5" y="978.9248">&#160;</text><text fill="#000000" font-family="Arial" font-size="14" lengthAdjust="spacing" textLength="207" x="706.5" y="978.9248">Auth - Authentication Services</text><rect fill="#F4ECF7" height="32.2969" style="stroke:none;stroke-width:1.0;" width="114" x="580.5" y="990.2266"/><text fill="#000000" font-family="Arial" font-size="14" lengthAdjust="spacing" textLength="4" x="588.5" y="1011.2217">&#160;</text><text fill="#000000" font-family="Arial" font-size="14" lengthAdjust="spacing" textLength="169" x="706.5" y="1011.2217">Database - Data Storage</text><rect fill="#FEF9E7" height="32.2969" style="stroke:none;stroke-width:1.0;" width="114" x="580.5" y="1022.5234"/><text fill="#000000" font-family="Arial" font-size="14" lengthAdjust="spacing" textLength="4" x="588.5" y="1043.5186">&#160;</text><text fill="#000000" font-family="Arial" font-size="14" lengthAdjust="spacing" textLength="191" x="706.5" y="1043.5186">External - 3rd Party Services</text><rect fill="#FADBD8" height="32.2969" style="stroke:none;stroke-width:1.0;" width="114" x="580.5" y="1054.8203"/><text fill="#000000" font-family="Arial" font-size="14" lengthAdjust="spacing" textLength="4" x="588.5" y="1075.8154">&#160;</text><text fill="#000000" font-family="Arial" font-size="14" lengthAdjust="spacing" textLength="183" x="706.5" y="1075.8154">Contract - Smart Contracts</text><rect fill="#FCF3CF" height="32.2969" style="stroke:none;stroke-width:1.0;" width="114" x="580.5" y="1087.1172"/><text fill="#000000" font-family="Arial" font-size="14" lengthAdjust="spacing" textLength="4" x="588.5" y="1108.1123">&#160;</text><text fill="#000000" font-family="Arial" font-size="14" lengthAdjust="spacing" textLength="182" x="706.5" y="1108.1123">Queue - Message Queues</text><rect fill="#D6EAF8" height="32.2969" style="stroke:none;stroke-width:1.0;" width="114" x="580.5" y="1119.4141"/><text fill="#000000" font-family="Arial" font-size="14" lengthAdjust="spacing" textLength="4" x="588.5" y="1140.4092">&#160;</text><text fill="#000000" font-family="Arial" font-size="14" lengthAdjust="spacing" textLength="182" x="706.5" y="1140.4092">Operator - Validator Nodes</text><rect fill="#D4EFDF" height="32.2969" style="stroke:none;stroke-width:1.0;" width="114" x="580.5" y="1151.7109"/><text fill="#000000" font-family="Arial" font-size="14" lengthAdjust="spacing" textLength="4" x="588.5" y="1172.7061">&#160;</text><text fill="#000000" font-family="Arial" font-size="14" lengthAdjust="spacing" textLength="208" x="706.5" y="1172.7061">Evaluator - Evaluation Services</text><rect fill="#F5EEF8" height="32.2969" style="stroke:none;stroke-width:1.0;" width="114" x="580.5" y="1184.0078"/><text fill="#000000" font-family="Arial" font-size="14" lengthAdjust="spacing" textLength="4" x="588.5" y="1205.0029">&#160;</text><text fill="#000000" font-family="Arial" font-size="14" lengthAdjust="spacing" textLength="183" x="706.5" y="1205.0029">Storage - Storage Services</text><line style="stroke:#000000;stroke-width:1.0;" x1="580.5" x2="937.5" y1="861.0391" y2="861.0391"/><line style="stroke:#000000;stroke-width:1.0;" x1="580.5" x2="937.5" y1="893.3359" y2="893.3359"/><line style="stroke:#000000;stroke-width:1.0;" x1="580.5" x2="937.5" y1="925.6328" y2="925.6328"/><line style="stroke:#000000;stroke-width:1.0;" x1="580.5" x2="937.5" y1="957.9297" y2="957.9297"/><line style="stroke:#000000;stroke-width:1.0;" x1="580.5" x2="937.5" y1="990.2266" y2="990.2266"/><line style="stroke:#000000;stroke-width:1.0;" x1="580.5" x2="937.5" y1="1022.5234" y2="1022.5234"/><line style="stroke:#000000;stroke-width:1.0;" x1="580.5" x2="937.5" y1="1054.8203" y2="1054.8203"/><line style="stroke:#000000;stroke-width:1.0;" x1="580.5" x2="937.5" y1="1087.1172" y2="1087.1172"/><line style="stroke:#000000;stroke-width:1.0;" x1="580.5" x2="937.5" y1="1119.4141" y2="1119.4141"/><line style="stroke:#000000;stroke-width:1.0;" x1="580.5" x2="937.5" y1="1151.7109" y2="1151.7109"/><line style="stroke:#000000;stroke-width:1.0;" x1="580.5" x2="937.5" y1="1184.0078" y2="1184.0078"/><line style="stroke:#000000;stroke-width:1.0;" x1="580.5" x2="937.5" y1="1216.3047" y2="1216.3047"/><line style="stroke:#000000;stroke-width:1.0;" x1="580.5" x2="580.5" y1="861.0391" y2="1216.3047"/><line style="stroke:#000000;stroke-width:1.0;" x1="694.5" x2="694.5" y1="861.0391" y2="1216.3047"/><line style="stroke:#000000;stroke-width:1.0;" x1="937.5" x2="937.5" y1="861.0391" y2="1216.3047"/><!--SRC=[ZLHDRzim3BthLt2zR3kqM0Vi4XG1ig0hTkWQhDqF42JQ9c9zJABZTBz-T3AxIfe6EoIGIBt7hqU_8s_QpYAOu5pmbvcVMxoAdMkLUW_tcZpB3t9m23cYeOeCc2vpSFH7CmMVeGe9kA4CbdITj5DvJJvgEK5B7lav8eJ4JIWSAvsO34NjUQMj9L_3vq-5_n5_T-WDVWtRqNzT-XSfXVwf8RFsc3DSNtrHYebRX2UTr_0JTSvKUuUUuLiRUgMqOSbpOHrv5L-YmyNjHhUBJHvmzzhh6jC5w0p57Mvkbi5p4ehv_13yaAWchrjuY9YqHDXXH-je58BnU4pm0_j3h1Z-0tONXhIx2LNS1JMT1QRKhcQud9SbpI3zQz5W_C3ozzr-79f46yrOFbLb9uvPbWsQDL050mE81d0RAQ4z2xf31ezRXZ0MMgNWG2RUuLdWhsY7v7QnUk96MFg9v2porX73q9PH6MZbAkfG5ayMVSWcTCSpdPscUpNwaz2b5cst-q9Y2aOqB19_7RGGmnlnfkIBfwhKq37BDB6XTnDPU0DQw6e6ZomI1DmRPFN7r9KFae0KsSX8gyDmg_qJ-KYqieOPV4XErgKWgORrBAPGmFy2]--></g></svg>