<?xml version="1.0" encoding="us-ascii" standalone="no"?><svg xmlns="http://www.w3.org/2000/svg" xmlns:xlink="http://www.w3.org/1999/xlink" contentStyleType="text/css" height="2111px" preserveAspectRatio="none" style="width:1537px;height:2111px;background:#FFFFFF;" version="1.1" viewBox="0 0 1537 2111" width="1537px" zoomAndPan="magnify"><defs/><g><text fill="#303030" font-family="Arial" font-size="16" font-weight="bold" lengthAdjust="spacing" textLength="317" x="606" y="37.8516">Task Creation and Assignment Flow</text><rect fill="#F8F8F8" height="163.9063" style="stroke:#000000;stroke-width:1.0;" width="10" x="325.5" y="212.8594"/><rect fill="#F8F8F8" height="234.8438" style="stroke:#000000;stroke-width:1.0;" width="10" x="325.5" y="1342.0781"/><rect fill="#F8F8F8" height="1040.25" style="stroke:#000000;stroke-width:1.0;" width="10" x="611.5" y="536.6719"/><rect fill="#F8F8F8" height="363.75" style="stroke:#000000;stroke-width:1.0;" width="10" x="842.5" y="775.4844"/><rect fill="none" height="248.8125" rx="4" ry="4" style="stroke:#CCCCCC;stroke-width:1.0;" width="594" x="758" y="790.4844"/><line style="stroke:#000000;stroke-width:0.5;stroke-dasharray:5.0,5.0;" x1="40" x2="40" y1="152.9219" y2="1601.9219"/><line style="stroke:#000000;stroke-width:0.5;stroke-dasharray:5.0,5.0;" x1="330" x2="330" y1="152.9219" y2="1601.9219"/><line style="stroke:#000000;stroke-width:0.5;stroke-dasharray:5.0,5.0;" x1="616.5" x2="616.5" y1="152.9219" y2="1601.9219"/><line style="stroke:#000000;stroke-width:0.5;stroke-dasharray:5.0,5.0;" x1="847" x2="847" y1="152.9219" y2="1601.9219"/><line style="stroke:#000000;stroke-width:0.5;stroke-dasharray:5.0,5.0;" x1="1051" x2="1051" y1="152.9219" y2="1601.9219"/><line style="stroke:#000000;stroke-width:0.5;stroke-dasharray:5.0,5.0;" x1="1259" x2="1259" y1="152.9219" y2="1601.9219"/><line style="stroke:#000000;stroke-width:0.5;stroke-dasharray:5.0,5.0;" x1="1438" x2="1438" y1="152.9219" y2="1601.9219"/><text fill="#000000" font-family="Arial" font-size="14" font-weight="bold" lengthAdjust="spacing" textLength="49" x="13" y="141.6201">Admin</text><ellipse cx="40.5" cy="69.125" fill="#FFFFFF" rx="8" ry="8" style="stroke:#454545;stroke-width:0.5;"/><path d="M40.5,77.125 L40.5,104.125 M27.5,85.125 L53.5,85.125 M40.5,104.125 L27.5,119.125 M40.5,104.125 L53.5,119.125 " fill="none" style="stroke:#454545;stroke-width:0.5;"/><text fill="#000000" font-family="Arial" font-size="14" font-weight="bold" lengthAdjust="spacing" textLength="49" x="13" y="1621.917">Admin</text><ellipse cx="40.5" cy="1641.7188" fill="#FFFFFF" rx="8" ry="8" style="stroke:#454545;stroke-width:0.5;"/><path d="M40.5,1649.7188 L40.5,1676.7188 M27.5,1657.7188 L53.5,1657.7188 M40.5,1676.7188 L27.5,1691.7188 M40.5,1676.7188 L53.5,1691.7188 " fill="none" style="stroke:#454545;stroke-width:0.5;"/><rect fill="#FADBD8" height="56.7734" rx="4" ry="4" style="stroke:#943126;stroke-width:2.0;" width="185" x="238" y="95.1484"/><text fill="#000000" font-family="Arial" font-size="10" font-weight="bold" lengthAdjust="spacing" textLength="61" x="300" y="119.4307">&#171;Contract&#187;</text><text fill="#000000" font-family="Arial" font-size="13" font-weight="bold" lengthAdjust="spacing" textLength="155" x="253" y="133.856">EvalAvsTaskManager</text><rect fill="#FADBD8" height="56.7734" rx="4" ry="4" style="stroke:#943126;stroke-width:2.0;" width="185" x="238" y="1600.9219"/><text fill="#000000" font-family="Arial" font-size="10" font-weight="bold" lengthAdjust="spacing" textLength="61" x="300" y="1625.2041">&#171;Contract&#187;</text><text fill="#000000" font-family="Arial" font-size="13" font-weight="bold" lengthAdjust="spacing" textLength="155" x="253" y="1639.6294">EvalAvsTaskManager</text><rect fill="#D6EAF8" height="56.7734" rx="4" ry="4" style="stroke:#2E86C1;stroke-width:2.0;" width="96" x="568.5" y="95.1484"/><text fill="#000000" font-family="Arial" font-size="10" font-weight="bold" lengthAdjust="spacing" textLength="63" x="585" y="119.4307">&#171;Operator&#187;</text><text fill="#000000" font-family="Arial" font-size="13" font-weight="bold" lengthAdjust="spacing" textLength="66" x="583.5" y="133.856">Operator</text><rect fill="#D6EAF8" height="56.7734" rx="4" ry="4" style="stroke:#2E86C1;stroke-width:2.0;" width="96" x="568.5" y="1600.9219"/><text fill="#000000" font-family="Arial" font-size="10" font-weight="bold" lengthAdjust="spacing" textLength="63" x="585" y="1625.2041">&#171;Operator&#187;</text><text fill="#000000" font-family="Arial" font-size="13" font-weight="bold" lengthAdjust="spacing" textLength="66" x="583.5" y="1639.6294">Operator</text><rect fill="#D4EFDF" height="56.7734" rx="4" ry="4" style="stroke:#196F3D;stroke-width:2.0;" width="119" x="788" y="95.1484"/><text fill="#000000" font-family="Arial" font-size="10" font-weight="bold" lengthAdjust="spacing" textLength="66" x="814.5" y="119.4307">&#171;Evaluator&#187;</text><text fill="#000000" font-family="Arial" font-size="13" font-weight="bold" lengthAdjust="spacing" textLength="89" x="803" y="133.856">GoEvaluator</text><rect fill="#D4EFDF" height="56.7734" rx="4" ry="4" style="stroke:#196F3D;stroke-width:2.0;" width="119" x="788" y="1600.9219"/><text fill="#000000" font-family="Arial" font-size="10" font-weight="bold" lengthAdjust="spacing" textLength="66" x="814.5" y="1625.2041">&#171;Evaluator&#187;</text><text fill="#000000" font-family="Arial" font-size="13" font-weight="bold" lengthAdjust="spacing" textLength="89" x="803" y="1639.6294">GoEvaluator</text><rect fill="#F5EEF8" height="56.7734" rx="4" ry="4" style="stroke:#76448A;stroke-width:2.0;" width="189" x="957" y="95.1484"/><text fill="#000000" font-family="Arial" font-size="10" font-weight="bold" lengthAdjust="spacing" textLength="57" x="1023" y="119.4307">&#171;Storage&#187;</text><text fill="#000000" font-family="Arial" font-size="13" font-weight="bold" lengthAdjust="spacing" textLength="159" x="972" y="133.856">Dataset Registry (S3)</text><rect fill="#F5EEF8" height="56.7734" rx="4" ry="4" style="stroke:#76448A;stroke-width:2.0;" width="189" x="957" y="1600.9219"/><text fill="#000000" font-family="Arial" font-size="10" font-weight="bold" lengthAdjust="spacing" textLength="57" x="1023" y="1625.2041">&#171;Storage&#187;</text><text fill="#000000" font-family="Arial" font-size="13" font-weight="bold" lengthAdjust="spacing" textLength="159" x="972" y="1639.6294">Dataset Registry (S3)</text><rect fill="#FEF9E7" height="56.7734" rx="4" ry="4" style="stroke:#F1C40F;stroke-width:2.0;" width="126" x="1196" y="95.1484"/><text fill="#000000" font-family="Arial" font-size="10" font-weight="bold" lengthAdjust="spacing" textLength="59" x="1229.5" y="119.4307">&#171;External&#187;</text><text fill="#000000" font-family="Arial" font-size="13" font-weight="bold" lengthAdjust="spacing" textLength="96" x="1211" y="133.856">LLM Provider</text><rect fill="#FEF9E7" height="56.7734" rx="4" ry="4" style="stroke:#F1C40F;stroke-width:2.0;" width="126" x="1196" y="1600.9219"/><text fill="#000000" font-family="Arial" font-size="10" font-weight="bold" lengthAdjust="spacing" textLength="59" x="1229.5" y="1625.2041">&#171;External&#187;</text><text fill="#000000" font-family="Arial" font-size="13" font-weight="bold" lengthAdjust="spacing" textLength="96" x="1211" y="1639.6294">LLM Provider</text><rect fill="#EBF5FB" height="56.7734" rx="4" ry="4" style="stroke:#3498DB;stroke-width:2.0;" width="133" x="1372" y="95.1484"/><text fill="#000000" font-family="Arial" font-size="10" font-weight="bold" lengthAdjust="spacing" textLength="31" x="1423" y="119.4307">&#171;API&#187;</text><text fill="#000000" font-family="Arial" font-size="13" font-weight="bold" lengthAdjust="spacing" textLength="103" x="1387" y="133.856">LayerLens API</text><rect fill="#EBF5FB" height="56.7734" rx="4" ry="4" style="stroke:#3498DB;stroke-width:2.0;" width="133" x="1372" y="1600.9219"/><text fill="#000000" font-family="Arial" font-size="10" font-weight="bold" lengthAdjust="spacing" textLength="31" x="1423" y="1625.2041">&#171;API&#187;</text><text fill="#000000" font-family="Arial" font-size="13" font-weight="bold" lengthAdjust="spacing" textLength="103" x="1387" y="1639.6294">LayerLens API</text><rect fill="#F8F8F8" height="163.9063" style="stroke:#000000;stroke-width:1.0;" width="10" x="325.5" y="212.8594"/><rect fill="#F8F8F8" height="234.8438" style="stroke:#000000;stroke-width:1.0;" width="10" x="325.5" y="1342.0781"/><rect fill="#F8F8F8" height="1040.25" style="stroke:#000000;stroke-width:1.0;" width="10" x="611.5" y="536.6719"/><rect fill="#F8F8F8" height="363.75" style="stroke:#000000;stroke-width:1.0;" width="10" x="842.5" y="775.4844"/><polygon fill="#000000" points="313.5,208.8594,323.5,212.8594,313.5,216.8594,317.5,212.8594" style="stroke:#000000;stroke-width:1.0;"/><line style="stroke:#000000;stroke-width:1.5;" x1="40.5" x2="319.5" y1="212.8594" y2="212.8594"/><text fill="#000000" font-family="Arial" font-size="12" lengthAdjust="spacing" textLength="157" x="58" y="186.0605">requestEval(modelName,</text><text fill="#000000" font-family="Arial" font-size="12" lengthAdjust="spacing" textLength="4" x="215" y="186.0605">&#160;</text><text fill="#000000" font-family="Arial" font-size="12" lengthAdjust="spacing" textLength="89" x="219" y="186.0605">datasetName,</text><text fill="#000000" font-family="Arial" font-size="12" lengthAdjust="spacing" textLength="55" x="155.5" y="200.0293">subsets)</text><line style="stroke:#000000;stroke-width:1.5;" x1="335.5" x2="377.5" y1="256.8281" y2="256.8281"/><line style="stroke:#000000;stroke-width:1.5;" x1="377.5" x2="377.5" y1="256.8281" y2="269.8281"/><line style="stroke:#000000;stroke-width:1.5;" x1="336.5" x2="377.5" y1="269.8281" y2="269.8281"/><polygon fill="#000000" points="346.5,265.8281,336.5,269.8281,346.5,273.8281,342.5,269.8281" style="stroke:#000000;stroke-width:1.0;"/><text fill="#000000" font-family="Arial" font-size="12" lengthAdjust="spacing" textLength="175" x="350.5" y="243.998">popNextAssignedOperator()</text><line style="stroke:#000000;stroke-width:1.5;" x1="335.5" x2="377.5" y1="313.7969" y2="313.7969"/><line style="stroke:#000000;stroke-width:1.5;" x1="377.5" x2="377.5" y1="313.7969" y2="326.7969"/><line style="stroke:#000000;stroke-width:1.5;" x1="336.5" x2="377.5" y1="326.7969" y2="326.7969"/><polygon fill="#000000" points="346.5,322.7969,336.5,326.7969,346.5,330.7969,342.5,326.7969" style="stroke:#000000;stroke-width:1.0;"/><text fill="#000000" font-family="Arial" font-size="12" lengthAdjust="spacing" textLength="42" x="350.5" y="300.9668">Create</text><text fill="#000000" font-family="Arial" font-size="12" lengthAdjust="spacing" textLength="4" x="392.5" y="300.9668">&#160;</text><text fill="#000000" font-family="Arial" font-size="12" lengthAdjust="spacing" textLength="75" x="396.5" y="300.9668">EvalAvsTask</text><line style="stroke:#000000;stroke-width:1.5;" x1="335.5" x2="377.5" y1="375.7656" y2="375.7656"/><line style="stroke:#000000;stroke-width:1.5;" x1="377.5" x2="377.5" y1="375.7656" y2="388.7656"/><line style="stroke:#000000;stroke-width:1.5;" x1="330.5" x2="377.5" y1="388.7656" y2="388.7656"/><polygon fill="#000000" points="340.5,384.7656,330.5,388.7656,340.5,392.7656,336.5,388.7656" style="stroke:#000000;stroke-width:1.0;"/><text fill="#000000" font-family="Arial" font-size="12" lengthAdjust="spacing" textLength="27" x="350.5" y="362.9355">Emit</text><text fill="#000000" font-family="Arial" font-size="12" lengthAdjust="spacing" textLength="4" x="377.5" y="362.9355">&#160;</text><text fill="#000000" font-family="Arial" font-size="12" lengthAdjust="spacing" textLength="93" x="381.5" y="362.9355">EvalRequested</text><text fill="#000000" font-family="Arial" font-size="12" lengthAdjust="spacing" textLength="4" x="474.5" y="362.9355">&#160;</text><text fill="#000000" font-family="Arial" font-size="12" lengthAdjust="spacing" textLength="35" x="478.5" y="362.9355">Event</text><line style="stroke:#000000;stroke-width:1.5;" x1="616.5" x2="658.5" y1="427.7344" y2="427.7344"/><line style="stroke:#000000;stroke-width:1.5;" x1="658.5" x2="658.5" y1="427.7344" y2="440.7344"/><line style="stroke:#000000;stroke-width:1.5;" x1="617.5" x2="658.5" y1="440.7344" y2="440.7344"/><polygon fill="#000000" points="627.5,436.7344,617.5,440.7344,627.5,444.7344,623.5,440.7344" style="stroke:#000000;stroke-width:1.0;"/><text fill="#000000" font-family="Arial" font-size="12" lengthAdjust="spacing" textLength="37" x="631.5" y="414.9043">Listen</text><text fill="#000000" font-family="Arial" font-size="12" lengthAdjust="spacing" textLength="4" x="668.5" y="414.9043">&#160;</text><text fill="#000000" font-family="Arial" font-size="12" lengthAdjust="spacing" textLength="17" x="672.5" y="414.9043">for</text><text fill="#000000" font-family="Arial" font-size="12" lengthAdjust="spacing" textLength="4" x="689.5" y="414.9043">&#160;</text><text fill="#000000" font-family="Arial" font-size="12" lengthAdjust="spacing" textLength="93" x="693.5" y="414.9043">EvalRequested</text><text fill="#000000" font-family="Arial" font-size="12" lengthAdjust="spacing" textLength="4" x="786.5" y="414.9043">&#160;</text><text fill="#000000" font-family="Arial" font-size="12" lengthAdjust="spacing" textLength="42" x="790.5" y="414.9043">events</text><polygon fill="#000000" points="604.5,480.7031,614.5,484.7031,604.5,488.7031,608.5,484.7031" style="stroke:#000000;stroke-width:1.0;"/><line style="stroke:#000000;stroke-width:1.5;" x1="330.5" x2="610.5" y1="484.7031" y2="484.7031"/><text fill="#000000" font-family="Arial" font-size="12" lengthAdjust="spacing" textLength="140" x="350.5" y="471.873">EvalRequested(taskId,</text><text fill="#000000" font-family="Arial" font-size="12" lengthAdjust="spacing" textLength="4" x="490.5" y="471.873">&#160;</text><text fill="#000000" font-family="Arial" font-size="12" lengthAdjust="spacing" textLength="31" x="494.5" y="471.873">task,</text><text fill="#000000" font-family="Arial" font-size="12" lengthAdjust="spacing" textLength="4" x="525.5" y="471.873">&#160;</text><text fill="#000000" font-family="Arial" font-size="12" lengthAdjust="spacing" textLength="67" x="529.5" y="471.873">externalId)</text><line style="stroke:#000000;stroke-width:1.5;" x1="616.5" x2="663.5" y1="523.6719" y2="523.6719"/><line style="stroke:#000000;stroke-width:1.5;" x1="663.5" x2="663.5" y1="523.6719" y2="536.6719"/><line style="stroke:#000000;stroke-width:1.5;" x1="622.5" x2="663.5" y1="536.6719" y2="536.6719"/><polygon fill="#000000" points="632.5,532.6719,622.5,536.6719,632.5,540.6719,628.5,536.6719" style="stroke:#000000;stroke-width:1.0;"/><text fill="#000000" font-family="Arial" font-size="12" lengthAdjust="spacing" textLength="38" x="636.5" y="510.8418">Check</text><text fill="#000000" font-family="Arial" font-size="12" lengthAdjust="spacing" textLength="4" x="674.5" y="510.8418">&#160;</text><text fill="#000000" font-family="Arial" font-size="12" lengthAdjust="spacing" textLength="7" x="678.5" y="510.8418">if</text><text fill="#000000" font-family="Arial" font-size="12" lengthAdjust="spacing" textLength="4" x="685.5" y="510.8418">&#160;</text><text fill="#000000" font-family="Arial" font-size="12" lengthAdjust="spacing" textLength="57" x="689.5" y="510.8418">assigned</text><text fill="#000000" font-family="Arial" font-size="12" lengthAdjust="spacing" textLength="4" x="746.5" y="510.8418">&#160;</text><text fill="#000000" font-family="Arial" font-size="12" lengthAdjust="spacing" textLength="13" x="750.5" y="510.8418">to</text><text fill="#000000" font-family="Arial" font-size="12" lengthAdjust="spacing" textLength="4" x="763.5" y="510.8418">&#160;</text><text fill="#000000" font-family="Arial" font-size="12" lengthAdjust="spacing" textLength="27" x="767.5" y="510.8418">task</text><polygon fill="#000000" points="1039.5,595.6094,1049.5,599.6094,1039.5,603.6094,1043.5,599.6094" style="stroke:#000000;stroke-width:1.0;"/><line style="stroke:#000000;stroke-width:1.5;" x1="621.5" x2="1045.5" y1="599.6094" y2="599.6094"/><text fill="#000000" font-family="Arial" font-size="12" lengthAdjust="spacing" textLength="35" x="719" y="572.8105">Fetch</text><text fill="#000000" font-family="Arial" font-size="12" lengthAdjust="spacing" textLength="4" x="754" y="572.8105">&#160;</text><text fill="#000000" font-family="Arial" font-size="12" lengthAdjust="spacing" textLength="49" x="758" y="572.8105">dataset</text><text fill="#000000" font-family="Arial" font-size="12" lengthAdjust="spacing" textLength="4" x="807" y="572.8105">&#160;</text><text fill="#000000" font-family="Arial" font-size="12" lengthAdjust="spacing" textLength="25" x="811" y="572.8105">files</text><text fill="#000000" font-family="Arial" font-size="12" lengthAdjust="spacing" textLength="4" x="836" y="572.8105">&#160;</text><text fill="#000000" font-family="Arial" font-size="12" lengthAdjust="spacing" textLength="100" x="840" y="572.8105">(formatted.jsonl</text><text fill="#000000" font-family="Arial" font-size="12" lengthAdjust="spacing" textLength="4" x="940" y="572.8105">&#160;</text><text fill="#000000" font-family="Arial" font-size="12" lengthAdjust="spacing" textLength="10" x="944" y="572.8105">+</text><text fill="#000000" font-family="Arial" font-size="12" lengthAdjust="spacing" textLength="43" x="815" y="586.7793">config)</text><polygon fill="#000000" points="632.5,639.5781,622.5,643.5781,632.5,647.5781,628.5,643.5781" style="stroke:#000000;stroke-width:1.0;"/><line style="stroke:#000000;stroke-width:1.5;stroke-dasharray:2.0,2.0;" x1="626.5" x2="1050.5" y1="643.5781" y2="643.5781"/><text fill="#000000" font-family="Arial" font-size="12" lengthAdjust="spacing" textLength="42" x="774.5" y="630.748">Return</text><text fill="#000000" font-family="Arial" font-size="12" lengthAdjust="spacing" textLength="4" x="816.5" y="630.748">&#160;</text><text fill="#000000" font-family="Arial" font-size="12" lengthAdjust="spacing" textLength="49" x="820.5" y="630.748">dataset</text><text fill="#000000" font-family="Arial" font-size="12" lengthAdjust="spacing" textLength="4" x="869.5" y="630.748">&#160;</text><text fill="#000000" font-family="Arial" font-size="12" lengthAdjust="spacing" textLength="25" x="873.5" y="630.748">files</text><polygon fill="#000000" points="1426.5,683.5469,1436.5,687.5469,1426.5,691.5469,1430.5,687.5469" style="stroke:#000000;stroke-width:1.0;"/><line style="stroke:#000000;stroke-width:1.5;" x1="621.5" x2="1432.5" y1="687.5469" y2="687.5469"/><text fill="#000000" font-family="Arial" font-size="12" lengthAdjust="spacing" textLength="52" x="921" y="674.7168">Request</text><text fill="#000000" font-family="Arial" font-size="12" lengthAdjust="spacing" textLength="4" x="973" y="674.7168">&#160;</text><text fill="#000000" font-family="Arial" font-size="12" lengthAdjust="spacing" textLength="19" x="977" y="674.7168">API</text><text fill="#000000" font-family="Arial" font-size="12" lengthAdjust="spacing" textLength="4" x="996" y="674.7168">&#160;</text><text fill="#000000" font-family="Arial" font-size="12" lengthAdjust="spacing" textLength="21" x="1000" y="674.7168">Key</text><text fill="#000000" font-family="Arial" font-size="12" lengthAdjust="spacing" textLength="4" x="1021" y="674.7168">&#160;</text><text fill="#000000" font-family="Arial" font-size="12" lengthAdjust="spacing" textLength="17" x="1025" y="674.7168">for</text><text fill="#000000" font-family="Arial" font-size="12" lengthAdjust="spacing" textLength="4" x="1042" y="674.7168">&#160;</text><text fill="#000000" font-family="Arial" font-size="12" lengthAdjust="spacing" textLength="38" x="1046" y="674.7168">model</text><text fill="#000000" font-family="Arial" font-size="12" lengthAdjust="spacing" textLength="4" x="1084" y="674.7168">&#160;</text><text fill="#000000" font-family="Arial" font-size="12" lengthAdjust="spacing" textLength="51" x="1088" y="674.7168">provider</text><polygon fill="#000000" points="632.5,727.5156,622.5,731.5156,632.5,735.5156,628.5,731.5156" style="stroke:#000000;stroke-width:1.0;"/><line style="stroke:#000000;stroke-width:1.5;stroke-dasharray:2.0,2.0;" x1="626.5" x2="1437.5" y1="731.5156" y2="731.5156"/><text fill="#000000" font-family="Arial" font-size="12" lengthAdjust="spacing" textLength="42" x="985" y="718.6855">Return</text><text fill="#000000" font-family="Arial" font-size="12" lengthAdjust="spacing" textLength="4" x="1027" y="718.6855">&#160;</text><text fill="#000000" font-family="Arial" font-size="12" lengthAdjust="spacing" textLength="19" x="1031" y="718.6855">API</text><text fill="#000000" font-family="Arial" font-size="12" lengthAdjust="spacing" textLength="4" x="1050" y="718.6855">&#160;</text><text fill="#000000" font-family="Arial" font-size="12" lengthAdjust="spacing" textLength="21" x="1054" y="718.6855">Key</text><polygon fill="#000000" points="830.5,771.4844,840.5,775.4844,830.5,779.4844,834.5,775.4844" style="stroke:#000000;stroke-width:1.0;"/><line style="stroke:#000000;stroke-width:1.5;" x1="621.5" x2="836.5" y1="775.4844" y2="775.4844"/><text fill="#000000" font-family="Arial" font-size="12" lengthAdjust="spacing" textLength="50" x="672.5" y="762.6543">Execute</text><text fill="#000000" font-family="Arial" font-size="12" lengthAdjust="spacing" textLength="4" x="722.5" y="762.6543">&#160;</text><text fill="#000000" font-family="Arial" font-size="12" lengthAdjust="spacing" textLength="65" x="726.5" y="762.6543">evaluation</text><path d="M762,790.4844 L851,790.4844 L851,813.6172 L841,823.6172 L758,823.6172 L758,794.4844 A4,4 0 0 1 762,790.4844 " fill="#EEEEEE" style="stroke:#CCCCCC;stroke-width:1.5;"/><rect fill="none" height="248.8125" rx="4" ry="4" style="stroke:#CCCCCC;stroke-width:1.0;" width="594" x="758" y="790.4844"/><text fill="#000000" font-family="Arial" font-size="13" font-weight="bold" lengthAdjust="spacing" textLength="32" x="781" y="811.5513">loop</text><text fill="#000000" font-family="Arial" font-size="11" font-weight="bold" lengthAdjust="spacing" textLength="184" x="874" y="810.6948">[For each prompt in dataset]</text><polygon fill="#000000" points="1247,869.3906,1257,873.3906,1247,877.3906,1251,873.3906" style="stroke:#000000;stroke-width:1.0;"/><line style="stroke:#000000;stroke-width:1.5;" x1="852.5" x2="1253" y1="873.3906" y2="873.3906"/><text fill="#000000" font-family="Arial" font-size="12" lengthAdjust="spacing" textLength="32" x="1015.25" y="860.5605">Send</text><text fill="#000000" font-family="Arial" font-size="12" lengthAdjust="spacing" textLength="4" x="1047.25" y="860.5605">&#160;</text><text fill="#000000" font-family="Arial" font-size="12" lengthAdjust="spacing" textLength="45" x="1051.25" y="860.5605">prompt</text><polygon fill="#000000" points="863.5,913.3594,853.5,917.3594,863.5,921.3594,859.5,917.3594" style="stroke:#000000;stroke-width:1.0;"/><line style="stroke:#000000;stroke-width:1.5;stroke-dasharray:2.0,2.0;" x1="857.5" x2="1258" y1="917.3594" y2="917.3594"/><text fill="#000000" font-family="Arial" font-size="12" lengthAdjust="spacing" textLength="42" x="1003.25" y="904.5293">Return</text><text fill="#000000" font-family="Arial" font-size="12" lengthAdjust="spacing" textLength="4" x="1045.25" y="904.5293">&#160;</text><text fill="#000000" font-family="Arial" font-size="12" lengthAdjust="spacing" textLength="59" x="1049.25" y="904.5293">response</text><line style="stroke:#000000;stroke-width:1.5;" x1="852.5" x2="894.5" y1="961.3281" y2="961.3281"/><line style="stroke:#000000;stroke-width:1.5;" x1="894.5" x2="894.5" y1="961.3281" y2="974.3281"/><line style="stroke:#000000;stroke-width:1.5;" x1="853.5" x2="894.5" y1="974.3281" y2="974.3281"/><polygon fill="#000000" points="863.5,970.3281,853.5,974.3281,863.5,978.3281,859.5,974.3281" style="stroke:#000000;stroke-width:1.0;"/><text fill="#000000" font-family="Arial" font-size="12" lengthAdjust="spacing" textLength="36" x="867.5" y="948.498">Score</text><text fill="#000000" font-family="Arial" font-size="12" lengthAdjust="spacing" textLength="4" x="903.5" y="948.498">&#160;</text><text fill="#000000" font-family="Arial" font-size="12" lengthAdjust="spacing" textLength="59" x="907.5" y="948.498">response</text><line style="stroke:#000000;stroke-width:1.5;" x1="852.5" x2="894.5" y1="1018.2969" y2="1018.2969"/><line style="stroke:#000000;stroke-width:1.5;" x1="894.5" x2="894.5" y1="1018.2969" y2="1031.2969"/><line style="stroke:#000000;stroke-width:1.5;" x1="853.5" x2="894.5" y1="1031.2969" y2="1031.2969"/><polygon fill="#000000" points="863.5,1027.2969,853.5,1031.2969,863.5,1035.2969,859.5,1031.2969" style="stroke:#000000;stroke-width:1.0;"/><text fill="#000000" font-family="Arial" font-size="12" lengthAdjust="spacing" textLength="32" x="867.5" y="1005.4668">Hash</text><text fill="#000000" font-family="Arial" font-size="12" lengthAdjust="spacing" textLength="4" x="899.5" y="1005.4668">&#160;</text><text fill="#000000" font-family="Arial" font-size="12" lengthAdjust="spacing" textLength="59" x="903.5" y="1005.4668">response</text><text fill="#000000" font-family="Arial" font-size="12" lengthAdjust="spacing" textLength="4" x="962.5" y="1005.4668">&#160;</text><text fill="#000000" font-family="Arial" font-size="12" lengthAdjust="spacing" textLength="37" x="966.5" y="1005.4668">(MD5)</text><line style="stroke:#000000;stroke-width:1.5;" x1="852.5" x2="894.5" y1="1082.2656" y2="1082.2656"/><line style="stroke:#000000;stroke-width:1.5;" x1="894.5" x2="894.5" y1="1082.2656" y2="1095.2656"/><line style="stroke:#000000;stroke-width:1.5;" x1="853.5" x2="894.5" y1="1095.2656" y2="1095.2656"/><polygon fill="#000000" points="863.5,1091.2656,853.5,1095.2656,863.5,1099.2656,859.5,1095.2656" style="stroke:#000000;stroke-width:1.0;"/><text fill="#000000" font-family="Arial" font-size="12" lengthAdjust="spacing" textLength="59" x="867.5" y="1069.4355">Generate</text><text fill="#000000" font-family="Arial" font-size="12" lengthAdjust="spacing" textLength="4" x="926.5" y="1069.4355">&#160;</text><text fill="#000000" font-family="Arial" font-size="12" lengthAdjust="spacing" textLength="61" x="930.5" y="1069.4355">combined</text><text fill="#000000" font-family="Arial" font-size="12" lengthAdjust="spacing" textLength="4" x="991.5" y="1069.4355">&#160;</text><text fill="#000000" font-family="Arial" font-size="12" lengthAdjust="spacing" textLength="31" x="995.5" y="1069.4355">hash</text><polygon fill="#000000" points="632.5,1135.2344,622.5,1139.2344,632.5,1143.2344,628.5,1139.2344" style="stroke:#000000;stroke-width:1.0;"/><line style="stroke:#000000;stroke-width:1.5;stroke-dasharray:2.0,2.0;" x1="626.5" x2="846.5" y1="1139.2344" y2="1139.2344"/><text fill="#000000" font-family="Arial" font-size="12" lengthAdjust="spacing" textLength="42" x="658.5" y="1126.4043">Return</text><text fill="#000000" font-family="Arial" font-size="12" lengthAdjust="spacing" textLength="4" x="700.5" y="1126.4043">&#160;</text><text fill="#000000" font-family="Arial" font-size="12" lengthAdjust="spacing" textLength="43" x="704.5" y="1126.4043">results</text><text fill="#000000" font-family="Arial" font-size="12" lengthAdjust="spacing" textLength="4" x="747.5" y="1126.4043">&#160;</text><text fill="#000000" font-family="Arial" font-size="12" lengthAdjust="spacing" textLength="24" x="751.5" y="1126.4043">and</text><text fill="#000000" font-family="Arial" font-size="12" lengthAdjust="spacing" textLength="4" x="775.5" y="1126.4043">&#160;</text><text fill="#000000" font-family="Arial" font-size="12" lengthAdjust="spacing" textLength="31" x="779.5" y="1126.4043">hash</text><polygon fill="#000000" points="1426.5,1179.2031,1436.5,1183.2031,1426.5,1187.2031,1430.5,1183.2031" style="stroke:#000000;stroke-width:1.0;"/><line style="stroke:#000000;stroke-width:1.5;" x1="621.5" x2="1432.5" y1="1183.2031" y2="1183.2031"/><text fill="#000000" font-family="Arial" font-size="12" lengthAdjust="spacing" textLength="30" x="964" y="1170.373">Save</text><text fill="#000000" font-family="Arial" font-size="12" lengthAdjust="spacing" textLength="4" x="994" y="1170.373">&#160;</text><text fill="#000000" font-family="Arial" font-size="12" lengthAdjust="spacing" textLength="51" x="998" y="1170.373">detailed</text><text fill="#000000" font-family="Arial" font-size="12" lengthAdjust="spacing" textLength="4" x="1049" y="1170.373">&#160;</text><text fill="#000000" font-family="Arial" font-size="12" lengthAdjust="spacing" textLength="43" x="1053" y="1170.373">results</text><polygon fill="#000000" points="632.5,1223.1719,622.5,1227.1719,632.5,1231.1719,628.5,1227.1719" style="stroke:#000000;stroke-width:1.0;"/><line style="stroke:#000000;stroke-width:1.5;stroke-dasharray:2.0,2.0;" x1="626.5" x2="1437.5" y1="1227.1719" y2="1227.1719"/><text fill="#000000" font-family="Arial" font-size="12" lengthAdjust="spacing" textLength="47" x="990" y="1214.3418">Confirm</text><text fill="#000000" font-family="Arial" font-size="12" lengthAdjust="spacing" textLength="4" x="1037" y="1214.3418">&#160;</text><text fill="#000000" font-family="Arial" font-size="12" lengthAdjust="spacing" textLength="29" x="1041" y="1214.3418">save</text><line style="stroke:#000000;stroke-width:1.5;" x1="621.5" x2="663.5" y1="1271.1406" y2="1271.1406"/><line style="stroke:#000000;stroke-width:1.5;" x1="663.5" x2="663.5" y1="1271.1406" y2="1284.1406"/><line style="stroke:#000000;stroke-width:1.5;" x1="622.5" x2="663.5" y1="1284.1406" y2="1284.1406"/><polygon fill="#000000" points="632.5,1280.1406,622.5,1284.1406,632.5,1288.1406,628.5,1284.1406" style="stroke:#000000;stroke-width:1.0;"/><text fill="#000000" font-family="Arial" font-size="12" lengthAdjust="spacing" textLength="59" x="636.5" y="1258.3105">Generate</text><text fill="#000000" font-family="Arial" font-size="12" lengthAdjust="spacing" textLength="4" x="695.5" y="1258.3105">&#160;</text><text fill="#000000" font-family="Arial" font-size="12" lengthAdjust="spacing" textLength="22" x="699.5" y="1258.3105">BLS</text><text fill="#000000" font-family="Arial" font-size="12" lengthAdjust="spacing" textLength="4" x="721.5" y="1258.3105">&#160;</text><text fill="#000000" font-family="Arial" font-size="12" lengthAdjust="spacing" textLength="60" x="725.5" y="1258.3105">signature</text><polygon fill="#000000" points="346.5,1338.0781,336.5,1342.0781,346.5,1346.0781,342.5,1342.0781" style="stroke:#000000;stroke-width:1.0;"/><line style="stroke:#000000;stroke-width:1.5;" x1="340.5" x2="610.5" y1="1342.0781" y2="1342.0781"/><text fill="#000000" font-family="Arial" font-size="12" lengthAdjust="spacing" textLength="191" x="358.5" y="1315.2793">respondToEvalRequest(taskId,</text><text fill="#000000" font-family="Arial" font-size="12" lengthAdjust="spacing" textLength="4" x="549.5" y="1315.2793">&#160;</text><text fill="#000000" font-family="Arial" font-size="12" lengthAdjust="spacing" textLength="35" x="553.5" y="1315.2793">hash,</text><text fill="#000000" font-family="Arial" font-size="12" lengthAdjust="spacing" textLength="65" x="441" y="1329.248">signature)</text><line style="stroke:#000000;stroke-width:1.5;" x1="335.5" x2="377.5" y1="1386.0469" y2="1386.0469"/><line style="stroke:#000000;stroke-width:1.5;" x1="377.5" x2="377.5" y1="1386.0469" y2="1399.0469"/><line style="stroke:#000000;stroke-width:1.5;" x1="336.5" x2="377.5" y1="1399.0469" y2="1399.0469"/><polygon fill="#000000" points="346.5,1395.0469,336.5,1399.0469,346.5,1403.0469,342.5,1399.0469" style="stroke:#000000;stroke-width:1.0;"/><text fill="#000000" font-family="Arial" font-size="12" lengthAdjust="spacing" textLength="34" x="350.5" y="1373.2168">Verify</text><text fill="#000000" font-family="Arial" font-size="12" lengthAdjust="spacing" textLength="4" x="384.5" y="1373.2168">&#160;</text><text fill="#000000" font-family="Arial" font-size="12" lengthAdjust="spacing" textLength="60" x="388.5" y="1373.2168">signature</text><line style="stroke:#000000;stroke-width:1.5;" x1="335.5" x2="377.5" y1="1443.0156" y2="1443.0156"/><line style="stroke:#000000;stroke-width:1.5;" x1="377.5" x2="377.5" y1="1443.0156" y2="1456.0156"/><line style="stroke:#000000;stroke-width:1.5;" x1="336.5" x2="377.5" y1="1456.0156" y2="1456.0156"/><polygon fill="#000000" points="346.5,1452.0156,336.5,1456.0156,346.5,1460.0156,342.5,1456.0156" style="stroke:#000000;stroke-width:1.0;"/><text fill="#000000" font-family="Arial" font-size="12" lengthAdjust="spacing" textLength="46" x="350.5" y="1430.1855">Update</text><text fill="#000000" font-family="Arial" font-size="12" lengthAdjust="spacing" textLength="4" x="396.5" y="1430.1855">&#160;</text><text fill="#000000" font-family="Arial" font-size="12" lengthAdjust="spacing" textLength="27" x="400.5" y="1430.1855">task</text><text fill="#000000" font-family="Arial" font-size="12" lengthAdjust="spacing" textLength="4" x="427.5" y="1430.1855">&#160;</text><text fill="#000000" font-family="Arial" font-size="12" lengthAdjust="spacing" textLength="33" x="431.5" y="1430.1855">state</text><text fill="#000000" font-family="Arial" font-size="12" lengthAdjust="spacing" textLength="4" x="464.5" y="1430.1855">&#160;</text><text fill="#000000" font-family="Arial" font-size="12" lengthAdjust="spacing" textLength="13" x="468.5" y="1430.1855">to</text><text fill="#000000" font-family="Arial" font-size="12" lengthAdjust="spacing" textLength="4" x="481.5" y="1430.1855">&#160;</text><text fill="#000000" font-family="Arial" font-size="12" lengthAdjust="spacing" textLength="69" x="485.5" y="1430.1855">SUBMITTED</text><line style="stroke:#000000;stroke-width:1.5;" x1="335.5" x2="377.5" y1="1513.9531" y2="1513.9531"/><line style="stroke:#000000;stroke-width:1.5;" x1="377.5" x2="377.5" y1="1513.9531" y2="1526.9531"/><line style="stroke:#000000;stroke-width:1.5;" x1="336.5" x2="377.5" y1="1526.9531" y2="1526.9531"/><polygon fill="#000000" points="346.5,1522.9531,336.5,1526.9531,346.5,1530.9531,342.5,1526.9531" style="stroke:#000000;stroke-width:1.0;"/><text fill="#000000" font-family="Arial" font-size="12" lengthAdjust="spacing" textLength="24" x="350.5" y="1487.1543">Add</text><text fill="#000000" font-family="Arial" font-size="12" lengthAdjust="spacing" textLength="4" x="374.5" y="1487.1543">&#160;</text><text fill="#000000" font-family="Arial" font-size="12" lengthAdjust="spacing" textLength="55" x="378.5" y="1487.1543">operator</text><text fill="#000000" font-family="Arial" font-size="12" lengthAdjust="spacing" textLength="4" x="433.5" y="1487.1543">&#160;</text><text fill="#000000" font-family="Arial" font-size="12" lengthAdjust="spacing" textLength="30" x="437.5" y="1487.1543">back</text><text fill="#000000" font-family="Arial" font-size="12" lengthAdjust="spacing" textLength="4" x="467.5" y="1487.1543">&#160;</text><text fill="#000000" font-family="Arial" font-size="12" lengthAdjust="spacing" textLength="13" x="471.5" y="1487.1543">to</text><text fill="#000000" font-family="Arial" font-size="12" lengthAdjust="spacing" textLength="4" x="484.5" y="1487.1543">&#160;</text><text fill="#000000" font-family="Arial" font-size="12" lengthAdjust="spacing" textLength="73" x="488.5" y="1487.1543">assignment</text><text fill="#000000" font-family="Arial" font-size="12" lengthAdjust="spacing" textLength="40" x="436" y="1501.123">queue</text><line style="stroke:#000000;stroke-width:1.5;" x1="335.5" x2="377.5" y1="1575.9219" y2="1575.9219"/><line style="stroke:#000000;stroke-width:1.5;" x1="377.5" x2="377.5" y1="1575.9219" y2="1588.9219"/><line style="stroke:#000000;stroke-width:1.5;" x1="330.5" x2="377.5" y1="1588.9219" y2="1588.9219"/><polygon fill="#000000" points="340.5,1584.9219,330.5,1588.9219,340.5,1592.9219,336.5,1588.9219" style="stroke:#000000;stroke-width:1.0;"/><text fill="#000000" font-family="Arial" font-size="12" lengthAdjust="spacing" textLength="27" x="350.5" y="1563.0918">Emit</text><text fill="#000000" font-family="Arial" font-size="12" lengthAdjust="spacing" textLength="4" x="377.5" y="1563.0918">&#160;</text><text fill="#000000" font-family="Arial" font-size="12" lengthAdjust="spacing" textLength="92" x="381.5" y="1563.0918">EvalCompleted</text><text fill="#000000" font-family="Arial" font-size="12" lengthAdjust="spacing" textLength="4" x="473.5" y="1563.0918">&#160;</text><text fill="#000000" font-family="Arial" font-size="12" lengthAdjust="spacing" textLength="35" x="477.5" y="1563.0918">Event</text><rect fill="none" height="385.2656" id="_legend" rx="4" ry="4" style="stroke:#000000;stroke-width:1.0;" width="383" x="1134" y="1706.2188"/><text fill="#000000" font-family="Arial" font-size="14" font-weight="bold" lengthAdjust="spacing" textLength="88" x="1160" y="1742.2139">Entity Type</text><text fill="#000000" font-family="Arial" font-size="14" font-weight="bold" lengthAdjust="spacing" textLength="90" x="1274" y="1742.2139">Description</text><rect fill="#E9F7EF" height="32.2969" style="stroke:none;stroke-width:1.0;" width="114" x="1147" y="1753.5156"/><text fill="#000000" font-family="Arial" font-size="14" lengthAdjust="spacing" textLength="4" x="1155" y="1774.5107">&#160;</text><text fill="#000000" font-family="Arial" font-size="14" lengthAdjust="spacing" textLength="219" x="1273" y="1774.5107">Frontend - Web/UI Components</text><rect fill="#EBF5FB" height="32.2969" style="stroke:none;stroke-width:1.0;" width="114" x="1147" y="1785.8125"/><text fill="#000000" font-family="Arial" font-size="14" lengthAdjust="spacing" textLength="4" x="1155" y="1806.8076">&#160;</text><text fill="#000000" font-family="Arial" font-size="14" lengthAdjust="spacing" textLength="157" x="1273" y="1806.8076">API - Backend Services</text><rect fill="#F9EBEA" height="32.2969" style="stroke:none;stroke-width:1.0;" width="114" x="1147" y="1818.1094"/><text fill="#000000" font-family="Arial" font-size="14" lengthAdjust="spacing" textLength="4" x="1155" y="1839.1045">&#160;</text><text fill="#000000" font-family="Arial" font-size="14" lengthAdjust="spacing" textLength="207" x="1273" y="1839.1045">Auth - Authentication Services</text><rect fill="#F4ECF7" height="32.2969" style="stroke:none;stroke-width:1.0;" width="114" x="1147" y="1850.4063"/><text fill="#000000" font-family="Arial" font-size="14" lengthAdjust="spacing" textLength="4" x="1155" y="1871.4014">&#160;</text><text fill="#000000" font-family="Arial" font-size="14" lengthAdjust="spacing" textLength="169" x="1273" y="1871.4014">Database - Data Storage</text><rect fill="#FEF9E7" height="32.2969" style="stroke:none;stroke-width:1.0;" width="114" x="1147" y="1882.7031"/><text fill="#000000" font-family="Arial" font-size="14" lengthAdjust="spacing" textLength="4" x="1155" y="1903.6982">&#160;</text><text fill="#000000" font-family="Arial" font-size="14" lengthAdjust="spacing" textLength="191" x="1273" y="1903.6982">External - 3rd Party Services</text><rect fill="#FADBD8" height="32.2969" style="stroke:none;stroke-width:1.0;" width="114" x="1147" y="1915"/><text fill="#000000" font-family="Arial" font-size="14" lengthAdjust="spacing" textLength="4" x="1155" y="1935.9951">&#160;</text><text fill="#000000" font-family="Arial" font-size="14" lengthAdjust="spacing" textLength="183" x="1273" y="1935.9951">Contract - Smart Contracts</text><rect fill="#FCF3CF" height="32.2969" style="stroke:none;stroke-width:1.0;" width="114" x="1147" y="1947.2969"/><text fill="#000000" font-family="Arial" font-size="14" lengthAdjust="spacing" textLength="4" x="1155" y="1968.292">&#160;</text><text fill="#000000" font-family="Arial" font-size="14" lengthAdjust="spacing" textLength="182" x="1273" y="1968.292">Queue - Message Queues</text><rect fill="#D6EAF8" height="32.2969" style="stroke:none;stroke-width:1.0;" width="114" x="1147" y="1979.5938"/><text fill="#000000" font-family="Arial" font-size="14" lengthAdjust="spacing" textLength="4" x="1155" y="2000.5889">&#160;</text><text fill="#000000" font-family="Arial" font-size="14" lengthAdjust="spacing" textLength="182" x="1273" y="2000.5889">Operator - Validator Nodes</text><rect fill="#D4EFDF" height="32.2969" style="stroke:none;stroke-width:1.0;" width="114" x="1147" y="2011.8906"/><text fill="#000000" font-family="Arial" font-size="14" lengthAdjust="spacing" textLength="4" x="1155" y="2032.8857">&#160;</text><text fill="#000000" font-family="Arial" font-size="14" lengthAdjust="spacing" textLength="208" x="1273" y="2032.8857">Evaluator - Evaluation Services</text><rect fill="#F5EEF8" height="32.2969" style="stroke:none;stroke-width:1.0;" width="114" x="1147" y="2044.1875"/><text fill="#000000" font-family="Arial" font-size="14" lengthAdjust="spacing" textLength="4" x="1155" y="2065.1826">&#160;</text><text fill="#000000" font-family="Arial" font-size="14" lengthAdjust="spacing" textLength="183" x="1273" y="2065.1826">Storage - Storage Services</text><line style="stroke:#000000;stroke-width:1.0;" x1="1147" x2="1504" y1="1721.2188" y2="1721.2188"/><line style="stroke:#000000;stroke-width:1.0;" x1="1147" x2="1504" y1="1753.5156" y2="1753.5156"/><line style="stroke:#000000;stroke-width:1.0;" x1="1147" x2="1504" y1="1785.8125" y2="1785.8125"/><line style="stroke:#000000;stroke-width:1.0;" x1="1147" x2="1504" y1="1818.1094" y2="1818.1094"/><line style="stroke:#000000;stroke-width:1.0;" x1="1147" x2="1504" y1="1850.4063" y2="1850.4063"/><line style="stroke:#000000;stroke-width:1.0;" x1="1147" x2="1504" y1="1882.7031" y2="1882.7031"/><line style="stroke:#000000;stroke-width:1.0;" x1="1147" x2="1504" y1="1915" y2="1915"/><line style="stroke:#000000;stroke-width:1.0;" x1="1147" x2="1504" y1="1947.2969" y2="1947.2969"/><line style="stroke:#000000;stroke-width:1.0;" x1="1147" x2="1504" y1="1979.5938" y2="1979.5938"/><line style="stroke:#000000;stroke-width:1.0;" x1="1147" x2="1504" y1="2011.8906" y2="2011.8906"/><line style="stroke:#000000;stroke-width:1.0;" x1="1147" x2="1504" y1="2044.1875" y2="2044.1875"/><line style="stroke:#000000;stroke-width:1.0;" x1="1147" x2="1504" y1="2076.4844" y2="2076.4844"/><line style="stroke:#000000;stroke-width:1.0;" x1="1147" x2="1147" y1="1721.2188" y2="2076.4844"/><line style="stroke:#000000;stroke-width:1.0;" x1="1261" x2="1261" y1="1721.2188" y2="2076.4844"/><line style="stroke:#000000;stroke-width:1.0;" x1="1504" x2="1504" y1="1721.2188" y2="2076.4844"/><!--SRC=[dLLTRzem57tthxZhoq23QbtL5rHLelHZQD2XXkxTZI_48x4pss5bltxNXe13AQk61B7ZSywzlbzya2hDAu6GwgBGgclTAiVJiYfonZx2c4lbw0jM5mYsn5JEP0ffPPqkv1_kf5OMPjg0owG58VdSy8BPXLGbfnNaKg5RbGZQk4n71nDkd4nboPMRS26aciENpz5vWhygL2bUwvVw_2m-xnkZVqypcIuKMWjdfnUCEUboX2ct2nWO3Cu1LmBwrigvAb0vkClrRyPuwiZblYYaOkNE4JYvNVAylxHUOimLdwCv0MuXsiFbvK0hPqZYwgf9_bwYuIGSAFM6yFLo7t-llRbgIudsnDgkzsatt76B3XvnBgqpAsWbv-qWa9mJBo4AERhF6et6C35wASNcJlu5MNbnQ1JFNy7v2iq8ARdzoJ3WwKbu-YKeOo5sqBsAGzC3uvDcdNUzLMY1-GCli0DYxV5wOwjdMjksJu9SSeUn18iZlQzUwl81NzmwcoZgiBRQHrcX4X2Yp1w5tnRI1V3Z-YueQ4ULmmGUT9Xj4qrAzRe78qeDgj0PJJ7qOdRVXHsnWMvHt1P3qG7_x01kaZKKRVQMuK66wGBaZ5As3XCu7UYxUDVWXa9oteCxT6bMPmjcCaSBBRf2mHqvS_hJQfN39veKQYRdRKRbrctOVaHN6TKKQ1YXwl6eSBjGKDzm5M8KYWNAJNqoVtHGUiDfY4PjG-5xmRIYE-Bw5Kq0jhjuX6IvrYNSaGAbDVEMYzA1t3hFW3vnGv8XwfWUpIKQA6jumFWswkvxiV7Me2rfFk8XiGO-IRN1zyE_SfjjqT0Qtroq6Rd5Zd7kKVcGXJd_B7rTPAJIf1oAE9cfScV370sCg0_YUBxESyAN20BfxoCdQnkT0waT-78o1LZ2lrdMM_UlHmdumkRa7JR0UvF8HqTCTTHFssxoz-ZiLFvZ5Fr08sUho95ZuATIU6rl7QmBImt9q_LuE9tUtXobzeK0NT_ncLDd4vNl_ixeNXM-RvuDg6Hp_ESyYrxNmVqB]--></g></svg>