<?xml version="1.0" encoding="UTF-8"?>
<svg width="900" height="700" xmlns="http://www.w3.org/2000/svg">
  <!-- Pure white background -->
  <rect width="900" height="700" fill="#ffffff"/>
  
  <!-- Frontend Box -->
  <rect x="200" y="80" width="500" height="150" fill="#ffffff" stroke="#000000" stroke-width="2"/>
  <text x="450" y="105" font-family="Arial" font-size="16" font-weight="bold" text-anchor="middle">FRONTEND</text>
  
  <!-- Frontend Components -->
  <rect x="240" y="120" width="100" height="40" fill="#adc8ff" stroke="#000000" stroke-width="2"/>
  <text x="290" y="145" font-family="Arial" font-size="11" font-weight="bold" text-anchor="middle">NEXT.JS APP</text>
  
  <rect x="350" y="120" width="100" height="40" fill="#adc8ff" stroke="#000000" stroke-width="2"/>
  <text x="400" y="145" font-family="Arial" font-size="11" font-weight="bold" text-anchor="middle">REACT QUERY</text>
  
  <rect x="460" y="120" width="100" height="40" fill="#adc8ff" stroke="#000000" stroke-width="2"/>
  <text x="510" y="145" font-family="Arial" font-size="11" font-weight="bold" text-anchor="middle">UI COMPONENTS</text>
  
  <rect x="570" y="120" width="100" height="40" fill="#adc8ff" stroke="#000000" stroke-width="2"/>
  <text x="620" y="145" font-family="Arial" font-size="11" font-weight="bold" text-anchor="middle">CUSTOM HOOKS</text>
  
  <!-- Backend Box -->
  <rect x="450" y="280" width="300" height="180" fill="#ffffff" stroke="#000000" stroke-width="2"/>
  <text x="600" y="305" font-family="Arial" font-size="16" font-weight="bold" text-anchor="middle">BACKEND SERVICES</text>
  
  <!-- Backend Components -->
  <rect x="470" y="325" width="100" height="40" fill="#c4ffad" stroke="#000000" stroke-width="2"/>
  <text x="520" y="350" font-family="Arial" font-size="11" font-weight="bold" text-anchor="middle">ATLAS API</text>
  
  <rect x="620" y="325" width="115" height="40" fill="#c4ffad" stroke="#000000" stroke-width="2"/>
  <text x="677" y="350" font-family="Arial" font-size="11" font-weight="bold" text-anchor="middle">TASK SCHEDULER</text>
  
  <rect x="470" y="395" width="130" height="40" fill="#c4ffad" stroke="#000000" stroke-width="2"/>
  <text x="535" y="420" font-family="Arial" font-size="10" font-weight="bold" text-anchor="middle">EVALUATION WORKER</text>
  
  <rect x="620" y="395" width="115" height="40" fill="#c4ffad" stroke="#000000" stroke-width="2"/>
  <text x="677" y="420" font-family="Arial" font-size="11" font-weight="bold" text-anchor="middle">RESULTS WORKER</text>
  
  <!-- Infrastructure Box -->
  <rect x="100" y="280" width="300" height="100" fill="#ffffff" stroke="#000000" stroke-width="2"/>
  <text x="250" y="305" font-family="Arial" font-size="16" font-weight="bold" text-anchor="middle">INFRASTRUCTURE</text>
  
  <!-- Infrastructure Components -->
  <rect x="110" y="330" width="90" height="35" fill="#e9adff" stroke="#000000" stroke-width="2"/>
  <text x="155" y="352" font-family="Arial" font-size="11" font-weight="bold" text-anchor="middle">KAFKA QUEUE</text>
  
  <rect x="210" y="330" width="90" height="35" fill="#e9adff" stroke="#000000" stroke-width="2"/>
  <text x="255" y="352" font-family="Arial" font-size="11" font-weight="bold" text-anchor="middle">AWS COGNITO</text>
  
  <rect x="310" y="330" width="80" height="35" fill="#e9adff" stroke="#000000" stroke-width="2"/>
  <text x="350" y="352" font-family="Arial" font-size="11" font-weight="bold" text-anchor="middle">AWS CDK</text>
  
  <!-- Blockchain Box -->
  <rect x="200" y="520" width="200" height="100" fill="#ffffff" stroke="#000000" stroke-width="2"/>
  <text x="300" y="545" font-family="Arial" font-size="16" font-weight="bold" text-anchor="middle">BLOCKCHAIN</text>
  
  <!-- Blockchain Components -->
  <rect x="230" y="570" width="140" height="35" fill="#ffdbad" stroke="#000000" stroke-width="2"/>
  <text x="300" y="593" font-family="Arial" font-size="12" font-weight="bold" text-anchor="middle">SMART CONTRACT</text>
  
  <!-- Data Storage Box -->
  <rect x="450" y="520" width="300" height="100" fill="#ffffff" stroke="#000000" stroke-width="2"/>
  <text x="600" y="545" font-family="Arial" font-size="16" font-weight="bold" text-anchor="middle">DATA STORAGE</text>
  
  <!-- Storage Components -->
  <ellipse cx="500" cy="585" rx="35" ry="22" fill="#ffbbad" stroke="#000000" stroke-width="2"/>
  <text x="500" y="590" font-family="Arial" font-size="12" font-weight="bold" text-anchor="middle">MONGODB</text>
  
  <ellipse cx="600" cy="585" rx="35" ry="22" fill="#ffbbad" stroke="#000000" stroke-width="2"/>
  <text x="600" y="590" font-family="Arial" font-size="12" font-weight="bold" text-anchor="middle">MARIADB</text>
  
  <ellipse cx="700" cy="585" rx="35" ry="22" fill="#ffbbad" stroke="#000000" stroke-width="2"/>
  <text x="700" y="590" font-family="Arial" font-size="12" font-weight="bold" text-anchor="middle">AWS S3</text>
  
  <!-- Connections -->
  <!-- Frontend to Backend -->
  <line x1="505" y1="160" x2="505" y2="325" stroke="#000000" stroke-width="1.5"/>
  <polygon points="505,325 500,315 510,315" fill="#000000"/>
  
  <!-- Frontend to Infrastructure -->
  <line x1="285" y1="160" x2="250" y2="330" stroke="#000000" stroke-width="1.5"/>
  <polygon points="250,330 245,320 255,320" fill="#000000"/>
  
  <!-- Infrastructure to Backend -->
  <line x1="350" y1="345" x2="470" y2="345" stroke="#000000" stroke-width="1.5"/>
  <polygon points="470,345 460,340 460,350" fill="#000000"/>
  
  <!-- Backend to Blockchain -->
  <line x1="520" y1="435" x2="300" y2="565" stroke="#000000" stroke-width="1.5"/>
  <polygon points="300,565 295,555 305,555" fill="#000000"/>
  
  <!-- Backend to Storage -->
  <line x1="520" y1="435" x2="500" y2="563" stroke="#000000" stroke-width="1.5"/>
  <polygon points="500,563 495,553 505,553" fill="#000000"/>
  
  <line x1="620" y1="435" x2="600" y2="563" stroke="#000000" stroke-width="1.5"/>
  <polygon points="600,563 595,553 605,553" fill="#000000"/>
  
  <line x1="670" y1="435" x2="700" y2="563" stroke="#000000" stroke-width="1.5"/>
  <polygon points="700,563 695,553 705,553" fill="#000000"/>
</svg>