<?xml version="1.0" encoding="UTF-8"?>
<svg width="800" height="600" xmlns="http://www.w3.org/2000/svg">
  <!-- Pure white background -->
  <rect width="800" height="600" fill="#ffffff"/>
  
  <!-- Frontend Box -->
  <rect x="200" y="80" width="400" height="150" fill="#ffffff" stroke="#000000" stroke-width="2"/>
  <text x="400" y="100" font-family="Arial" font-size="14" font-weight="bold" text-anchor="middle">FRONTEND</text>
  
  <!-- Frontend Components -->
  <rect x="250" y="120" width="60" height="40" fill="#adc8ff" stroke="#000000" stroke-width="2"/>
  <text x="280" y="145" font-family="Arial" font-size="10" font-weight="bold" text-anchor="middle">NEXT.JS APP</text>
  
  <rect x="330" y="120" width="60" height="40" fill="#adc8ff" stroke="#000000" stroke-width="2"/>
  <text x="360" y="145" font-family="Arial" font-size="10" font-weight="bold" text-anchor="middle">REACT QUERY</text>
  
  <rect x="410" y="120" width="60" height="40" fill="#adc8ff" stroke="#000000" stroke-width="2"/>
  <text x="440" y="145" font-family="Arial" font-size="10" font-weight="bold" text-anchor="middle">UI COMPONENTS</text>
  
  <rect x="490" y="120" width="60" height="40" fill="#adc8ff" stroke="#000000" stroke-width="2"/>
  <text x="520" y="145" font-family="Arial" font-size="10" font-weight="bold" text-anchor="middle">CUSTOM HOOKS</text>
  
  <!-- Backend Box -->
  <rect x="400" y="280" width="300" height="150" fill="#ffffff" stroke="#000000" stroke-width="2"/>
  <text x="550" y="300" font-family="Arial" font-size="14" font-weight="bold" text-anchor="middle">BACKEND SERVICES</text>
  
  <!-- Backend Components -->
  <rect x="450" y="320" width="60" height="40" fill="#c4ffad" stroke="#000000" stroke-width="2"/>
  <text x="480" y="345" font-family="Arial" font-size="10" font-weight="bold" text-anchor="middle">ATLAS API</text>
  
  <rect x="550" y="320" width="80" height="40" fill="#c4ffad" stroke="#000000" stroke-width="2"/>
  <text x="590" y="345" font-family="Arial" font-size="10" font-weight="bold" text-anchor="middle">TASK SCHEDULER</text>
  
  <rect x="450" y="380" width="80" height="40" fill="#c4ffad" stroke="#000000" stroke-width="2"/>
  <text x="490" y="405" font-family="Arial" font-size="10" font-weight="bold" text-anchor="middle">EVALUATION WORKER</text>
  
  <rect x="550" y="380" width="80" height="40" fill="#c4ffad" stroke="#000000" stroke-width="2"/>
  <text x="590" y="405" font-family="Arial" font-size="10" font-weight="bold" text-anchor="middle">RESULTS WORKER</text>
  
  <!-- Infrastructure Box -->
  <rect x="100" y="280" width="250" height="80" fill="#ffffff" stroke="#000000" stroke-width="2"/>
  <text x="225" y="300" font-family="Arial" font-size="14" font-weight="bold" text-anchor="middle">INFRASTRUCTURE</text>
  
  <!-- Infrastructure Components -->
  <rect x="120" y="320" width="60" height="30" fill="#e9adff" stroke="#000000" stroke-width="2"/>
  <text x="150" y="340" font-family="Arial" font-size="8" font-weight="bold" text-anchor="middle">KAFKA QUEUE</text>
  
  <rect x="190" y="320" width="60" height="30" fill="#e9adff" stroke="#000000" stroke-width="2"/>
  <text x="220" y="340" font-family="Arial" font-size="8" font-weight="bold" text-anchor="middle">AWS COGNITO</text>
  
  <rect x="260" y="320" width="60" height="30" fill="#e9adff" stroke="#000000" stroke-width="2"/>
  <text x="290" y="340" font-family="Arial" font-size="8" font-weight="bold" text-anchor="middle">AWS CDK</text>
  
  <!-- Blockchain Box -->
  <rect x="200" y="460" width="160" height="80" fill="#ffffff" stroke="#000000" stroke-width="2"/>
  <text x="280" y="480" font-family="Arial" font-size="14" font-weight="bold" text-anchor="middle">BLOCKCHAIN</text>
  
  <!-- Blockchain Components -->
  <rect x="230" y="500" width="100" height="30" fill="#ffdbad" stroke="#000000" stroke-width="2"/>
  <text x="280" y="520" font-family="Arial" font-size="10" font-weight="bold" text-anchor="middle">SMART CONTRACT</text>
  
  <!-- Data Storage Box -->
  <rect x="450" y="460" width="250" height="80" fill="#ffffff" stroke="#000000" stroke-width="2"/>
  <text x="575" y="480" font-family="Arial" font-size="14" font-weight="bold" text-anchor="middle">DATA STORAGE</text>
  
  <!-- Storage Components -->
  <ellipse cx="490" cy="520" rx="30" ry="20" fill="#ffbbad" stroke="#000000" stroke-width="2"/>
  <text x="490" y="525" font-family="Arial" font-size="10" font-weight="bold" text-anchor="middle">MONGODB</text>
  
  <ellipse cx="575" cy="520" rx="30" ry="20" fill="#ffbbad" stroke="#000000" stroke-width="2"/>
  <text x="575" y="525" font-family="Arial" font-size="10" font-weight="bold" text-anchor="middle">MARIADB</text>
  
  <ellipse cx="660" cy="520" rx="30" ry="20" fill="#ffbbad" stroke="#000000" stroke-width="2"/>
  <text x="660" y="525" font-family="Arial" font-size="10" font-weight="bold" text-anchor="middle">AWS S3</text>
  
  <!-- Connections -->
  <!-- Frontend to Backend -->
  <line x1="470" y1="160" x2="470" y2="320" stroke="#000000" stroke-width="1.5"/>
  <polygon points="470,320 465,310 475,310" fill="#000000"/>
  
  <!-- Frontend to Infrastructure -->
  <line x1="270" y1="160" x2="220" y2="320" stroke="#000000" stroke-width="1.5"/>
  <polygon points="220,320 215,310 225,310" fill="#000000"/>
  
  <!-- Infrastructure to Backend -->
  <line x1="260" y1="335" x2="450" y2="335" stroke="#000000" stroke-width="1.5"/>
  <polygon points="450,335 440,330 440,340" fill="#000000"/>
  
  <!-- Backend to Blockchain -->
  <line x1="490" y1="420" x2="280" y2="500" stroke="#000000" stroke-width="1.5"/>
  <polygon points="280,500 275,490 285,490" fill="#000000"/>
  
  <!-- Backend to Storage -->
  <line x1="490" y1="420" x2="490" y2="500" stroke="#000000" stroke-width="1.5"/>
  <polygon points="490,500 485,490 495,490" fill="#000000"/>
  
  <line x1="590" y1="420" x2="575" y2="500" stroke="#000000" stroke-width="1.5"/>
  <polygon points="575,500 570,490 580,490" fill="#000000"/>
  
  <line x1="630" y1="400" x2="660" y2="500" stroke="#000000" stroke-width="1.5"/>
  <polygon points="660,500 655,490 665,490" fill="#000000"/>
</svg>